<svg id="Layer_1" enable-background="new 0 0 512.001 512.001" height="512" viewBox="0 0 512.001 512.001" width="512" xmlns="http://www.w3.org/2000/svg"><g><g clip-rule="evenodd" fill-rule="evenodd"><path d="m389.424 145.215c-26.291 26.291-55.75 13.249-95.523 51.463-.743.714-1.49 1.446-2.241 2.197-35.694 35.694-33.482 77.682-6.22 104.944s69.25 29.474 104.944-6.219c14.622-14.622 22.226-27.859 27.182-40.056 8.912-21.93 9.268-40.498 26.478-57.708 17.987-17.988 16.709-41.163 1.625-56.246-15.082-15.083-38.258-16.362-56.245 1.625z" fill="#c68a86"/><path d="m285.44 303.82c-27.262-27.262-29.474-69.25 6.22-104.944.751-.751 1.498-1.483 2.244-2.196-169.693-53.374-288.896 66.654-246.758 189.321h403c21.51-27.884 51.27-70.366-32.579-128.457-4.957 12.197-12.56 25.434-27.182 40.056-35.694 35.694-77.682 33.482-104.945 6.22z" fill="#c68a86"/><path d="m450.146 386.001h-403-37.146c0 33 27 60 60 60h372.002c33 0 60-27 60-60z" fill="#e8eaf0"/></g><g><path d="m502.001 376.001h-32.425c29.457-44.919 9.315-86.833-39.958-122.144 1.529-4.393 2.794-8.583 3.991-12.55 4.081-13.52 7.304-24.199 17.505-34.4 17.678-17.229 21.527-42.688 8.018-62.639l16.964-16.965h7.87c13.268-.528 13.258-19.477 0-20h-2.012v-2.012c-.528-13.268-19.477-13.258-20 0v7.87l-16.964 16.965c-7.924-5.327-17.031-8.167-26.399-8.125-13.205.058-25.736 5.64-36.24 16.143-10.201 10.202-20.88 13.425-34.4 17.506-15.749 4.753-34.99 10.561-56.632 29.8-43.693-12.893-85.539-15.27-124.455-7.058-92.213 17.492-158.082 105.413-133.126 197.609h-23.738c-5.523 0-10 4.477-10 10 0 38.598 31.401 70 70 70h372.002c38.598 0 70-31.402 70-70-.001-5.523-4.478-10-10.001-10zm-148.27-201.204c14.262-4.305 29.01-8.756 42.764-22.51 6.694-6.695 14.366-10.251 22.185-10.285 7.266-.064 14.303 3.044 19.919 8.66 12.106 12.105 11.453 29.026-1.625 42.104-13.754 13.754-18.205 28.501-22.51 42.764-10.662 50.275-73.146 109.267-121.952 61.219-48.063-48.854 10.986-111.295 61.219-121.952zm88.27 261.204h-372.001c-24.146 0-44.349-17.206-48.995-40h190c13.268-.528 13.258-19.477 0-20h-156.532c-34.9-128.805 97.28-210.11 221.087-174.143-27.559 33.201-28.08 78.578 2.81 109.033 15.684 15.673 35.753 23.986 56.654 23.424 22.052-.602 43.641-10.852 62.433-29.643 11.286-11.286 18.746-21.977 24.024-31.927 43.734 33.521 55.402 64.146 23.716 103.256h-144.193c-13.268.528-13.258 19.477 0 20h189.993c-4.646 22.794-24.85 40-48.996 40z"/><path d="m247.729 120.227c-3.189 4.509-2.12 10.75 2.39 13.938 4.458 3.167 10.73 2.15 13.938-2.39 10.474-14.807 5.171-29.185 1.299-39.682-3.816-10.347-5.002-15.082-1.299-20.317 3.189-4.509 2.12-10.75-2.389-13.939-4.508-3.189-10.75-2.119-13.939 2.389-17.59 24.972 10.306 45.861 0 60.001z"/><path d="m193.027 120.226c-3.189 4.509-2.12 10.75 2.389 13.939 4.458 3.167 10.731 2.15 13.939-2.389 10.474-14.808 5.171-29.185 1.299-39.683-3.816-10.347-5.002-15.082-1.299-20.317 3.189-4.509 2.12-10.75-2.389-13.939s-10.75-2.119-13.939 2.389c-17.59 24.972 10.307 45.862 0 60z"/><path d="m302.431 120.226c-3.189 4.509-2.12 10.75 2.389 13.939 4.458 3.167 10.731 2.15 13.939-2.389 10.474-14.808 5.171-29.185 1.299-39.683-3.816-10.347-5.002-15.082-1.299-20.317 3.189-4.509 2.12-10.75-2.389-13.939-4.508-3.189-10.75-2.119-13.939 2.389-17.59 24.972 10.307 45.862 0 60z"/><path d="m179.654 257.046c-2.39 1.379-5.31 1.761-7.968 1.049-5.334-1.43-10.818 1.735-12.248 7.071-1.43 5.334 1.736 10.818 7.071 12.248 7.727 2.098 16.222.978 23.144-3.046 11.227-7.092 1.745-23.497-9.999-17.322z"/><path d="m124.653 317.046c-2.388 1.379-5.304 1.762-7.966 1.049-5.335-1.428-10.818 1.736-12.249 7.07-1.43 5.334 1.735 10.818 7.07 12.249 7.729 2.099 16.223.978 23.146-3.047 4.783-2.762 6.421-8.877 3.66-13.661-2.763-4.783-8.879-6.422-13.661-3.66z"/><path d="m253.315 332.708c-2.761-4.784-8.878-6.423-13.66-3.663-2.391 1.379-5.312 1.762-7.968 1.05-5.334-1.428-10.818 1.735-12.249 7.07-1.43 5.335 1.735 10.818 7.07 12.249 7.727 2.098 16.222.977 23.144-3.046 4.784-2.761 6.424-8.877 3.663-13.66z"/><path d="m256.008 376.001h-.008c-5.523 0-9.996 4.477-9.996 10 .528 13.263 19.479 13.263 20.003 0 .001-5.523-4.476-10-9.999-10z"/></g></g></svg>