<svg id="Layer_1" enable-background="new 0 0 512 512" height="512" viewBox="0 0 512 512" width="512" xmlns="http://www.w3.org/2000/svg"><g><g clip-rule="evenodd" fill-rule="evenodd"><path d="m190.69 53.54h43.54 43.54 43.54 43.54 43.54 43.54v-32.656c0-5.987-4.898-10.885-10.885-10.885h-370.089c-5.987 0-10.885 4.898-10.885 10.885v32.656h43.54 43.54z" fill="#8481e2"/><path d="m69.746 97.08 33.864-43.541h-43.54l-43.539 43.541v38.702c0 12.983 9.424 23.873 21.77 26.164 1.57.291 3.187.444 4.838.444 14.634 0 26.607-11.973 26.607-26.608z" fill="#ff5d7d"/><path d="m103.611 53.54-33.865 43.54v38.702c0 14.634 11.973 26.608 26.608 26.608 14.634 0 26.608-11.973 26.607-26.608v-38.702l24.189-43.54z" fill="#ffc144"/><path d="m122.962 97.08v38.702c0 14.634 11.973 26.608 26.608 26.608 14.634 0 26.607-11.973 26.607-26.608v-38.702l14.513-43.54h-43.54z" fill="#ff5d7d"/><path d="m176.177 97.08v38.702c0 14.634 11.973 26.608 26.608 26.608 14.634 0 26.607-11.973 26.607-26.608v-38.702l4.838-43.541h-43.54z" fill="#ffc144"/><path d="m229.392 97.08v38.702c0 14.634 11.973 26.608 26.608 26.608 14.634 0 26.607-11.973 26.607-26.608v-38.702l-4.837-43.54h-43.54z" fill="#ff5d7d"/><path d="m282.608 97.08v38.702c0 14.634 11.973 26.608 26.608 26.608 14.634 0 26.607-11.973 26.607-26.608v-38.702l-14.513-43.54h-43.54z" fill="#ffc144"/><path d="m335.823 97.08v38.702c0 14.634 11.973 26.608 26.608 26.608 14.634 0 26.607-11.973 26.607-26.608v-38.702l-24.188-43.54h-43.54z" fill="#ff5d7d"/><path d="m389.038 97.08v38.702c0 14.634 11.973 26.608 26.608 26.608 14.634 0 26.607-11.973 26.607-26.608v-38.702l-33.864-43.54h-43.54z" fill="#ffc144"/><path d="m442.253 97.08v38.702c0 14.634 11.974 26.608 26.608 26.608 1.651 0 3.268-.152 4.838-.444 12.346-2.291 21.77-13.18 21.77-26.164v-38.702l-43.54-43.541h-43.54z" fill="#ff5d7d"/><path d="m473.699 458.46h-435.398-10.885c-5.987 0-10.885 4.898-10.885 10.885v32.655h478.937v-32.655c0-5.987-4.898-10.885-10.885-10.885z" fill="#8481e2"/><path d="m43.139 310.425h114.437c1.613-6.191 3.83-12.378 6.686-18.481 22.204-47.45 74.678-79.07 119.98-89.238 58.58-15.697 91.142 33.254 63.526 63.663-9.901 10.902-14.971 21.258-18.546 34.902-.828 3.159-1.478 6.206-1.987 9.154h141.626v-148.035c-14.634 0-26.607-11.973-26.607-26.608 0 14.634-11.973 26.608-26.608 26.608-14.634 0-26.608-11.973-26.608-26.608 0 14.634-11.973 26.608-26.608 26.608-14.634 0-26.607-11.973-26.607-26.608 0 14.634-11.973 26.608-26.608 26.608s-26.608-11.973-26.608-26.608c0 14.634-11.973 26.608-26.608 26.608-14.634 0-26.607-11.973-26.607-26.608 0 14.634-11.973 26.608-26.608 26.608-14.634 0-26.607-11.973-26.607-26.608 0 14.634-11.973 26.608-26.608 26.608-14.634 0-26.607-11.973-26.607-26.608 0 14.634-11.974 26.608-26.608 26.608s-26.607-11.973-26.607-26.608c0 14.634-11.973 26.608-26.608 26.608v148.035z" fill="#66e0f7"/><path d="m157.576 310.425h-114.437v148.035h425.722v-148.035h-141.628c-3.888 22.413.243 39.02-4.799 54.971-14.871 47.043-68.285 63.311-109.173 52.629-44.478-11.619-68.147-59.75-55.685-107.6z" fill="#ff764e"/><path d="m164.261 291.945c-2.856 6.102-5.073 12.289-6.686 18.481-12.462 47.85 11.207 95.981 55.685 107.6 40.889 10.682 94.302-5.586 109.173-52.629 5.042-15.951.911-32.559 4.799-54.971.511-2.947 1.161-5.994 1.989-9.153 3.574-13.645 8.645-24 18.546-34.902 27.616-30.408-4.946-79.359-63.526-63.663-45.301 10.166-97.776 41.787-119.98 89.237zm75.727 18.788c13.676 0 24.763 11.087 24.763 24.763 0 13.677-11.087 24.763-24.763 24.763-13.677 0-24.763-11.086-24.763-24.763 0-13.676 11.087-24.763 24.763-24.763z" fill="#ff9eb1"/><ellipse cx="239.988" cy="335.496" fill="#fff3db" rx="24.763" ry="24.763" transform="matrix(.994 -.109 .109 .994 -35.175 28.19)"/></g><g><path d="m505.469 135.783v-38.682c.005-2.566-.971-5.134-2.929-7.092l-40.611-40.612v-28.513c-.001-11.515-9.369-20.884-20.884-20.884h-370.089c-11.516 0-20.885 9.369-20.885 20.884v28.513l-40.611 40.612c-1.958 1.958-2.934 4.526-2.929 7.092v38.682c0 16.72 11.268 30.858 26.608 35.219v277.458h-5.724c-11.516 0-20.885 9.369-20.885 20.885v32.655c0 5.523 4.478 10 10 10h478.938c5.522 0 10-4.477 10-10v-32.655c0-11.516-9.369-20.885-20.885-20.885h-5.723v-277.458c15.341-4.362 26.609-18.499 26.609-35.219zm-46.608 164.642h-119.022c3.295-11.106 7.756-18.99 15.332-27.333 36.227-43.869-11.079-97.556-73.317-80.098-24.836 5.604-50.4 17.022-72.003 32.161-24.702 17.312-43.599 38.942-54.646 62.551-1.958 4.184-3.654 8.431-5.088 12.719h-96.978v-129.424c6.427-1.827 12.139-5.37 16.607-10.101 13.82 15.21 39.4 15.205 53.215 0 13.82 15.209 39.401 15.206 53.216 0 13.82 15.21 39.4 15.205 53.215 0 13.819 15.209 39.401 15.206 53.215 0 13.819 15.21 39.401 15.205 53.216 0 13.82 15.21 39.4 15.205 53.215 0 13.82 15.209 39.401 15.206 53.216 0 4.468 4.731 10.18 8.274 16.607 10.101zm-285.542-4.242c21.067-45.023 71.991-74.489 113.113-83.719.133-.03.266-.062.397-.098 22.737-6.682 47.213-.769 56.839 15.432 6.445 10.568 5.211 22.474-3.303 31.849-10.419 11.472-16.645 23.163-20.817 39.091-4.069 15.534-4.174 28.327-4.266 39.614 4.142 54.681-53.935 82.301-99.495 69.999-19.398-5.068-34.986-18.31-43.893-37.288-10.696-22.794-10.177-50.086 1.425-74.88zm-42.497-232.643-16.565 29.296c-.849 1.501-1.295 3.197-1.295 4.922v38.025c-.915 22.037-32.308 22.02-33.215 0v-34.546l29.842-37.697zm271.589 0 29.842 37.697v34.546c-.915 22.038-32.309 22.02-33.216 0v-38.025c0-1.725-.446-3.42-1.295-4.922l-16.564-29.296zm-44.21 0 20.836 36.85v35.394c-.915 22.037-32.308 22.02-33.215 0v-38.026c0-1.093-.179-2.178-.53-3.213l-10.519-31.005zm-44.547 0 12.169 35.869v36.375c-.915 22.038-32.309 22.02-33.216 0v-38.026c0-.375-.021-.75-.063-1.124l-3.742-33.095h24.852zm-44.979 0 3.933 34.782v37.461c-.915 22.037-32.308 22.02-33.215 0v-37.462l3.933-34.782h25.349zm-49.219 33.094c-.042.373-.063.748-.063 1.124v38.025c-.925 22.085-32.397 21.998-33.216-.076v-36.299l12.169-35.869h24.853zm-52.749-2.089c-.352 1.035-.53 2.12-.53 3.213v38.025c0 .017.001.034.001.051-.976 22-32.313 21.939-33.216-.051v-35.394l20.836-36.85h23.428zm302.154 57.845c-9.157 0-16.607-7.45-16.607-16.607v-38.025c0-2.253-.761-4.44-2.159-6.207l-22.175-28.011h19.866l18.841 18.841 18.841 18.842v34.56c.001 9.157-7.45 16.607-16.607 16.607zm-398.79-131.506c0-.463.422-.884.885-.884h370.089c.463 0 .884.421.884.884v22.656h-371.858zm-43.54 114.899v-34.56l18.841-18.842 18.842-18.841h19.866l-22.174 28.011c-1.398 1.767-2.159 3.954-2.159 6.207v38.025c-.915 22.038-32.309 22.02-33.216 0zm274.466 312.677c-13.268.529-13.258 19.476 0 20h183.587c.463 0 .885.422.885.885v22.655h-458.938v-22.655c0-.463.422-.885.885-.885h183.581c13.268-.529 13.258-19.476 0-20h-157.858v-128.035h92.214c-7.637 45.735 19.479 96.365 65.38 107.275 8.901 2.326 18.207 3.475 27.545 3.474 14.849 0 29.771-2.908 43.228-8.61 24.828-10.521 42.75-29.754 50.464-54.155 3.15-9.968 3.229-19.647 3.313-29.895.047-5.823.096-11.754.697-18.089h122.881v128.035z"/><path d="m239.988 370.259c19.169 0 34.764-15.595 34.764-34.763-1.909-46.118-67.625-46.105-69.527 0-.001 19.169 15.594 34.763 34.763 34.763zm0-49.526c8.141 0 14.764 6.623 14.764 14.763-.811 19.585-28.719 19.58-29.527 0-.001-8.141 6.622-14.763 14.763-14.763z"/><path d="m256 448.46h-.007c-5.522 0-9.996 4.477-9.996 10 .528 13.263 19.478 13.262 20.003 0 0-5.523-4.478-10-10-10z"/></g></g></svg>