<svg id="Layer_1" enable-background="new 0 0 511.955 511.955" height="512" viewBox="0 0 511.955 511.955" width="512" xmlns="http://www.w3.org/2000/svg"><g><g clip-rule="evenodd" fill-rule="evenodd"><path d="m445.983 164.37c14.709 36.129-.234 56.225 25.049 89.685 17.814-25.899 27.256-52.008 30.049-76.969-41.699-57.366-61.328-37.3-56.421-16.827.33 1.377.77 2.755 1.323 4.111z" fill="#ff9eb1"/><path d="m444.66 160.26c-4.906-20.473 14.722-40.539 56.421 16.827 11.375-101.662-87.544-184.258-180.321-155.906 43.223 46.369 50.716 88.675 59.696 131.282 8.849 41.986 19.142 84.263 66.491 131.009 9.305-9.725 17.302-19.556 24.085-29.417-25.283-33.46-10.34-53.557-25.049-89.685-.553-1.356-.993-2.734-1.323-4.11z" fill="#ffe0e6"/><path d="m380.505 152.692c-9.002-42.685-16.444-85.059-59.744-131.511-23.982 7.329-47.553 22.071-68.703 45.814-16.077 18.049-27.294 35.59-35.899 52.549 30.91 38.892 76.334 64.044 105.856 132.172 7.753 17.892 14.093 30.568 19.67 39.877 15.766 26.317 25.426 25.707 43.655 39.901.408.318.821.643 1.238.976 3.913-2.514 7.791-5.109 11.625-7.784 19.165-13.368 35.319-27.181 48.746-41.215-47.264-46.659-57.606-88.868-66.444-130.779z" fill="#ff9eb1"/><path d="m322.014 251.716c-29.522-68.128-74.946-93.281-105.856-132.172-10.766 21.218-17.446 41.524-24.446 60.773 13.29 16.257 30.015 26.829 34.134 40.963 14.104 48.406-6.159 71.852-27.957 43.561-10.141-13.161-20.841-23.22-31.103-32.165-4.738 6.935-10.225 13.673-16.756 20.204-8.514 8.514-15.186 18.068-19.963 28.059 24.044 37.635 47.826 55.421 69.58 69.751 17.281 11.383 33.282 20.585 47.116 35.823 12.005-1.775 24.456-4.421 37.134-7.919-.16-.518-.316-1.032-.469-1.544-15.798-52.901 6.9-73.328 64.221-22.697 13.196-6.436 26.251-13.737 38.927-21.883-.417-.333-.829-.659-1.238-.976-18.229-14.195-27.889-13.584-43.655-39.901-5.576-9.308-11.916-21.985-19.669-39.877zm19.669 39.877c-5.577-9.309-11.916-21.986-19.67-39.877 7.754 17.891 14.094 30.568 19.67 39.877z" fill="#ffe0e6"/><g fill="#ff9eb1"><path d="m197.888 264.841c21.798 28.292 42.062 4.845 27.957-43.561-4.118-14.134-20.844-24.705-34.134-40.963-6.716 18.469-13.728 35.965-24.926 52.359 10.263 8.945 20.962 19.003 31.103 32.165z"/><path d="m283.427 377.05c.153.512.309 1.026.469 1.544 20.958-5.783 42.537-13.893 63.752-24.241-57.321-50.63-80.018-30.204-64.221 22.697z"/><path d="m199.646 350.69c-.049-.032-.098-.065-.147-.097-21.714-14.313-45.443-32.104-69.433-69.654-9.67 20.223-11.574 42.236-5.274 61.038 3.09 9.22 8.152 17.668 15.239 24.755 6.471 6.471 14.879 11.515 24.824 15.17 21.482 7.895 50.133 9.307 81.907 4.611-13.834-15.238-29.835-24.44-47.116-35.823z"/></g><path d="m164.856 381.903c-9.945-3.655-18.354-8.699-24.824-15.17-7.087-7.087-12.149-15.535-15.235-24.758l-61.609 61.609c-13.662-7.412-31.103-5.345-42.654 6.206-14.073 14.073-14.073 36.889 0 50.962 4.641 4.641 10.234 7.75 16.15 9.331 1.58 5.916 4.689 11.509 9.331 16.15 14.072 14.073 36.889 14.073 50.961 0 11.551-11.551 13.618-28.992 6.206-42.654z" fill="#fff3db"/></g><g><path d="m509.964 136.465c-4.829-29.274-18.185-56.678-38.623-79.247-19.939-22.018-45.131-37.903-72.851-45.937-108.944-31.706-186.241 67.842-212.909 156.539-10.581 29.558-19.719 55.085-42.623 77.99-26.641 26.641-36.825 62.783-29.366 93.226l-52.68 52.679c-16.349-5.548-34.977-1.471-47.451 11.003-17.948 17.949-17.948 47.154 0 65.104 4.392 4.392 9.619 7.841 15.333 10.148 2.307 5.713 5.756 10.94 10.147 15.332 17.135 17.86 47.969 17.859 65.104 0 12.473-12.473 16.549-31.103 11.003-47.451l52.587-52.588c111.148 28.999 277.275-58.364 326.295-158.339 15.86-31.857 21.404-65.903 16.034-98.459zm-38.857 98.937c-5.496-11.172-6.243-20.939-7.131-32.552-.918-12.007-1.959-25.617-8.731-42.251-2.396-5.887-.988-10.473-.067-10.992.095-.051 10.971-2.413 35.458 30.181-2.314 16.604-7.998 35.509-19.529 55.614zm-112.437-209.857c11.341 0 22.818 1.631 34.253 4.945 53.107 15.377 94.011 64.304 98.56 119.312-13.319-14.295-32.177-25.874-46.119-17.622-10.975 6.181-14.609 21.304-8.643 35.96 5.593 13.736 6.428 24.664 7.312 36.234 1.158 15.141 2.352 30.76 14.809 49.743-3.631 4.91-7.632 9.869-12.036 14.862-78.598-83.42-37.134-155.19-107.596-241.817 6.421-1.074 12.919-1.617 19.46-1.617zm-158.887 177.819c7.819 7.636 14.572 14.23 16.462 20.713 7.757 26.625 3.162 41.308-.061 42.945-.38.19-4.271-.362-10.375-8.284-8.748-11.354-17.779-20.372-25.983-27.844 6.248-10.33 11.14-20.983 15.506-31.906 1.523 1.517 3.017 2.976 4.451 4.376zm-103.673 233.142c-3.131 3.13-3.83 7.947-1.719 11.839 13.521 26.842-19.475 51.509-41.307 30.815-3.236-3.237-5.567-7.269-6.74-11.659-.923-3.457-3.623-6.157-7.08-7.081-4.392-1.173-8.424-3.504-11.66-6.741-10.15-10.151-10.15-26.668 0-36.819 8.092-8.094 20.764-9.94 30.814-4.488 3.892 2.111 8.708 1.413 11.84-1.718l51.445-51.444c3.069 5.253 6.819 10.155 11.257 14.594 4.211 4.21 9.152 7.915 14.751 11.1zm50.993-76.844c-14.447-14.447-18.925-35.715-14.123-56.935 24.245 32.451 47.924 47.777 69.129 61.501 7.685 4.974 14.78 9.566 21.391 14.623-34.407 1.876-62.094-4.887-76.397-19.189zm145.087-23.601c3.333-2.143 14.966-.931 36.814 15.843-12.59 5.502-25.384 10.273-38.155 14.22-4.659-19.834-1.38-28.313 1.341-30.063zm100.29-19.576c-1.819 1.269-3.655 2.523-5.505 3.761-3.804-2.716-7.224-4.869-10.343-6.831-12.159-7.651-20.192-12.707-35.687-44.369-2.428-4.96-8.418-7.016-13.378-4.587-4.961 2.428-7.015 8.417-4.587 13.378 17.125 34.994 27.496 42.75 43 52.505.8.504 1.606 1.011 2.42 1.529-6.319 3.695-12.764 7.213-19.301 10.539-29.843-25.095-52.616-32.893-67.73-23.17-9.063 5.831-17.664 19.63-9.81 52.218-7.118 1.734-14.192 3.193-21.182 4.362-11.568-11.663-24.139-19.799-37.401-28.383-22.943-14.849-46.644-30.188-71.339-67.104 4.026-7.212 9.191-14.109 15.464-20.382 4.098-4.098 7.807-8.264 11.19-12.493 6.991 6.492 14.496 14.167 21.675 23.486 12.333 15.598 24.108 18.875 35.276 13.909 15.633-7.941 19.638-33.993 10.204-66.371-4.666-16.115-20.942-27.476-32.344-40.27 4.832-13.466 9.456-26.697 15.497-40.455 20.192 21.94 41.913 39.435 61.487 63.78 3.486 4.318 9.793 4.954 14.062 1.502 4.298-3.469 4.97-9.765 1.502-14.062-12.896-15.98-26.228-28.89-39.119-41.374-10.175-9.854-19.851-19.224-28.447-29.314 7.846-14.5 17.812-29.345 31.438-44.642 17.257-19.373 37.107-33.12 58.267-40.827 75.929 88.021 29.541 161.835 115.174 250.633-11.325 10.967-24.707 22.028-40.483 33.032z"/><path d="m312.824 222.709h-.007c-5.522 0-9.996 4.477-9.996 10 .528 13.263 19.478 13.262 20.003 0 0-5.523-4.477-10-10-10z"/></g></g></svg>