<svg id="Layer_1" enable-background="new 0 0 512.028 512.028" height="512" viewBox="0 0 512.028 512.028" width="512" xmlns="http://www.w3.org/2000/svg"><g><g clip-rule="evenodd" fill-rule="evenodd"><path d="m250.673 320.815c81.591-67.62 172.909-155.88 213.346-295.218-100.579 47.107-188.753 136.1-272.742 235.821z" fill="#b6bccf"/><path d="m464.018 25.597c-40.436 139.338-131.755 227.597-213.346 295.218l44.008 19.514c201-144 207.347-330.267 207.347-330.267-12.87 4.495-25.535 9.693-38.009 15.535z" fill="#e8eaf0"/><path d="m250.673 320.815-59.397-59.397-39.475 39.475 46.001 46.001c21.338-21.338 39.156-2.325 52.871-26.079z" fill="#ddb9a3"/><path d="m197.801 346.894-46.001-46.001-129.523 129.524c-16.334 16.334-16.334 43.063 0 59.397s43.062 16.334 59.397 0c11.785-11.785 17.914-34.884 29.699-46.669 17.927-17.927 38.788-27.167 56.763-45.142 17.074-17.075 11.53-32.974 29.665-51.109z" fill="#c68a65"/></g><g><path d="m507.955 2.009c-2.658-1.956-6.108-2.475-9.225-1.387-126.283 46.321-215.422 138.002-314.822 254.022l-168.703 168.702c-20.274 20.275-20.273 53.265.001 73.539 19.275 20.106 54.265 20.106 73.539-.001 7.001-7 11.918-16.576 16.673-25.836 4.052-7.89 8.241-16.048 13.025-20.832 8.34-8.34 17.409-14.694 27.012-21.421 9.901-6.937 20.141-14.11 29.752-23.721 9.989-9.99 13.521-19.804 16.637-28.463 2.9-8.061 5.405-15.022 13.028-22.645 16.014-16.223 32.482-2.146 49.168-20.718l36.587 16.224c3.226 1.432 6.991 1.057 9.878-1.012 115.136-78.96 203.498-217.937 211.517-338.056.112-3.298-1.409-6.439-4.067-8.395zm-334.93 367.83c-2.754 7.655-5.133 14.266-11.96 21.093-8.375 8.375-17.464 14.743-27.085 21.483-9.884 6.924-20.104 14.084-29.679 23.659-7.001 7.001-11.918 16.577-16.674 25.838-4.051 7.889-8.24 16.047-13.024 20.832-6.011 6.011-14.047 9.322-22.627 9.322s-16.616-3.311-22.628-9.323c-12.477-12.476-12.477-32.777 0-45.254l122.453-122.453 32.362 32.363c-5.939 7.991-8.664 15.565-11.138 22.44zm52.081-44.931c-7.265.714-16.67 1.638-26.672 8.475l-32.491-32.491 25.333-25.333 46.056 46.056c-3.088 2.395-6.667 2.747-12.226 3.293zm239.009-206.635c-23.551 56.571-72.212 138.639-170.638 210.584l-24.075-10.675c26.986-22.821 59.455-52.035 90.25-86.888 3.656-4.139 3.266-10.458-.873-14.115-4.137-3.657-10.458-3.266-14.115.872-31.967 36.18-65.966 66.274-93.378 89.237l-46.438-46.438c68.493-80.764 149.043-165.63 242.475-215.672-12.306 35.753-28.859 70.112-49.359 102.41-2.96 4.663-1.579 10.842 3.083 13.802 4.594 2.935 10.824 1.617 13.803-3.084 24.927-39.271 44.251-81.479 57.472-125.518 5.988-2.728 12.026-5.307 18.116-7.726-2.593 18.509-9.285 52.287-26.323 93.211z"/><path d="m380.714 179.889h-.008c-5.522 0-9.996 4.477-9.996 10 .528 13.263 19.479 13.263 20.004 0 0-5.523-4.477-10-10-10z"/></g></g></svg>