<svg id="Layer_1" enable-background="new 0 0 512 512" height="512" viewBox="0 0 512 512" width="512" xmlns="http://www.w3.org/2000/svg"><g><g clip-rule="evenodd" fill-rule="evenodd"><path d="m86 50h340v272 140h-120-220zm-20 452h380c11 0 20-9 20-20v-452c0-11-9-20-20-20h-380c-11 0-20 9-20 20v452c0 11 9 20 20 20z" fill="#b6bccf"/><path d="m426 50h-340v412h219.999v-51.667c-19.071 8.193-39.809 12.574-59.773 12.694-76.456.46-132.909-72.388-117.756-154.245 13.499-72.921 76.091-135.303 136.656-165.764 72.428-40.144 139.35 12.87 116.221 69.433-6.69 16.36-14.767 31.742-14.669 48.707.231 39.733 16.021 63.317 14.785 90.051-.17 3.675-.527 7.272-1.056 10.79h45.593z" fill="#66e0f7"/><path d="m265.126 103.019c-60.565 30.461-123.157 92.843-136.656 165.764-15.153 81.856 41.3 154.705 117.756 154.245 19.964-.12 40.703-4.501 59.773-12.694v-54.989c-14.923 11.158-36.109 17.493-63.168 17.656-53.798.324-84.268-53.193-75.096-102.741 8.586-46.385 44.941-89.246 85.145-116.727 17.988-12.296 45.658-29.17 67.829-23.202 12.324 3.317 21.988 12.635 16.577 25.868-8.577 20.977-17.084 37.936-16.947 61.548.107 18.39 3.056 35.235 7.686 52.94 5.024 19.212 5.286 36.575 1.013 51.315h51.37c.529-3.518.886-7.115 1.056-10.79 1.237-26.734-14.554-50.319-14.785-90.051-.098-16.966 7.979-32.347 14.669-48.707 23.128-56.565-43.794-109.579-116.222-69.435z" fill="#ff5d7d"/><path d="m252.88 153.532c-40.204 27.481-76.558 70.342-85.145 116.727-9.172 49.548 21.298 103.065 75.096 102.741 27.06-.163 48.246-6.498 63.168-17.656v-33.344h23.037c4.273-14.74 4.01-32.103-1.013-51.315-4.63-17.705-7.579-34.55-7.686-52.94-.137-23.612 8.37-40.571 16.947-61.548 5.411-13.233-4.252-22.551-16.577-25.868-22.169-5.967-49.839 10.907-67.827 23.203zm-12.877 114.469c14.359 0 26 11.64 26 26s-11.641 26-26 26-26-11.64-26-26 11.64-26 26-26z" fill="#ff9eb1"/><ellipse cx="240.003" cy="294.001" fill="#fff3db" rx="26" ry="26" transform="matrix(.987 -.16 .16 .987 -43.995 42.241)"/><path d="m305.999 322v33.344 54.99 51.666h120.001v-140h-45.593-51.37z" fill="#e8eaf0"/></g><g><path d="m446 0h-380c-16.542 0-30 13.458-30 30v452c0 16.542 13.458 30 30 30h380c16.542 0 30-13.458 30-30v-452c0-16.542-13.458-30-30-30zm10 482c0 5.514-4.486 10-10 10h-380c-5.514 0-10-4.486-10-10v-452c0-5.514 4.486-10 10-10h380c5.514 0 10 4.486 10 10z"/><path d="m426 40h-340c-5.522 0-10 4.477-10 10v412c0 5.523 4.478 10 10 10h340c5.522 0 10-4.477 10-10v-412c0-5.522-4.478-10-10-10zm-330 156.581 48.071-48.071c3.905-3.905 3.905-10.237 0-14.143-3.906-3.905-10.236-3.905-14.143 0l-33.928 33.929v-108.296h64.733l-20.302 20.301c-3.905 3.905-3.905 10.237 0 14.142 3.905 3.906 10.237 3.905 14.143 0l34.445-34.443h226.981v252h-24.564c.005-.109.011-.218.016-.327.657-14.206-2.848-27.188-6.56-40.932-3.982-14.748-8.1-29.997-8.214-49.64-.07-12.014 5.012-23.896 10.392-36.477 1.165-2.725 2.37-5.542 3.533-8.387 11.279-27.584 4.496-56.971-17.701-76.693-28.462-25.288-72.578-27.389-112.446-5.369-65.779 32.548-129.537 101.627-141.819 172.789-17.072 81.527 42.5 167.028 126.896 166.067.25 0 .505 0 .755-.002 16.543-.1 33.495-2.926 49.712-8.24v27.211h-200zm241.698 71.574c-4.999-19.115-7.27-34.68-7.36-50.467-.108-18.657 5.683-32.498 13.013-50.02 1.052-2.513 2.121-5.068 3.19-7.685 3.166-7.742 3.047-15.451-.343-22.296-3.94-7.958-12.284-14.159-22.891-17.014-25.481-6.861-54.041 9.545-76.071 24.603-8.223 5.621-16.235 11.828-23.813 18.449-4.158 3.634-4.584 9.951-.95 14.11 3.633 4.16 9.952 4.583 14.109.951 6.985-6.104 14.367-11.823 21.94-17 9.824-6.715 39.718-27.148 59.587-21.802 4.917 1.324 8.812 3.844 10.167 6.577.504 1.019 1.027 2.733-.247 5.851-1.05 2.566-2.098 5.071-3.129 7.535-18.152 38.742-18.04 69.159-6.551 113.266 3.731 14.271 4.639 27.282 2.717 38.785h-15.067c-5.522 0-10 4.477-10 10v28.09c-13.37 8.437-31.251 12.778-53.229 12.91-.146.001-.287.001-.433.001-24.131-.001-39.41-12.18-47.99-22.431-21.286-25.168-23.01-63.403-8.993-93.999 2.153-5.086-.225-10.955-5.311-13.107-5.088-2.155-10.955.225-13.107 5.31-4.177 9.867-7.217 19.848-9.033 29.665-11.107 55.121 26.369 115.817 84.989 114.563 20.551-.124 38.337-3.568 53.107-10.262v30.849c-16.107 6.088-33.221 9.341-49.833 9.44-32.002.2-61.238-13.494-82.192-38.542-76.948-94.454 18.713-221.433 105.646-262.534.119-.06.237-.123.354-.187 56.774-32.742 122.161 2.277 102.118 56.901-1.103 2.697-2.276 5.44-3.411 8.093-5.946 13.906-12.096 28.286-12.002 44.457.129 22.237 4.792 39.503 8.905 54.738 3.436 12.722 6.402 23.709 5.89 34.795-.019.416-.042.833-.066 1.25h-30.128c1.725-13.424.53-28.117-3.582-43.843zm78.302 183.845h-100.001v-120h100.001z"/><path d="m204.003 294.001c0 19.851 16.149 36 36 36 47.759-1.977 47.745-70.03 0-72-19.851 0-36 16.15-36 36zm36-16c8.822 0 16 7.178 16 16-.879 21.226-31.124 21.22-32 0 0-8.822 7.178-16 16-16z"/><path d="m344 382h44c13.268-.529 13.258-19.476 0-20h-44c-13.268.528-13.258 19.476 0 20z"/><path d="m344 422.001h44c13.268-.529 13.258-19.476 0-20h-44c-13.268.529-13.258 19.476 0 20z"/><path d="m209.099 203.96c0-5.523-4.478-10-10-10h-.007c-5.522 0-9.996 4.477-9.996 10 .528 13.264 19.478 13.262 20.003 0z"/></g></g></svg>