<svg id="Layer_1" enable-background="new 0 0 512.122 512.122" height="512" viewBox="0 0 512.122 512.122" width="512" xmlns="http://www.w3.org/2000/svg"><g><g clip-rule="evenodd" fill-rule="evenodd"><path d="m31.29 262.405c-73.502 100.187 56.588 176.609 194.589 26.85-36.249-31.016-63.944-70.27-77.494-105.087-1.135-2.917-2.15-5.787-3.047-8.606-48.138 20.329-89.92 53.957-114.048 86.843z" fill="#c68a86"/><path d="m225.879 289.255c18.197 15.57 38.549 29.064 60.35 38.878 1.385.623 2.758 1.215 4.12 1.775 103.752 42.694 140.992-96.211 120.97-233.292 49.175 45.334 74.223 66.74 84.887 56.201 12.581-12.435 4.333-64.494-19.628-104.058-44.27-73.098-130.238-41.696-183.401 87.645-84.769-89.99-176.658-51.365-147.839 39.159.897 2.819 1.912 5.688 3.047 8.606 13.551 34.817 41.245 74.071 77.494 105.086z" fill="#ddb9b6"/><path d="m262.604 415.026c12.146-28.192 21.597-57.198 27.746-85.118-1.362-.56-2.735-1.152-4.12-1.775-21.801-9.814-42.154-23.308-60.35-38.878-22.879 24.829-45.541 43.44-67.094 56.758l.001.004c17.875 138.694 92.786 191.276 154.468 132.126 33.384-32.014 54.826-80.165 45.891-95.432-7.573-12.941-37.309 1.254-96.542 32.315z" fill="#c68a86"/></g><g><path d="m509.94 109.205c-8.781-49.615-42.589-114.449-98.207-108.868-44.673 3.426-89.653 47.447-121.915 118.622-32.488-32.15-87.135-56.687-125.776-36.228-29.041 14.844-40.235 47.999-30.659 87.172-59.003 27.945-131.513 84.036-133.329 148.471.204 40.735 34.702 65.635 75.128 65.075 22.435 0 48.34-6.746 75.838-21.484 14.613 84.086 50.53 147.973 110.084 150.157 20.292-.001 40.664-9.11 59.07-26.761 22.391-20.979 62.653-77.728 47.601-107.701-9.5-16.233-32.254-7.881-40.821-4.736-11.49 4.217-25.593 10.88-45.088 20.84 6.236-16.883 11.502-33.898 15.658-50.648 10.495 3.244 20.045 4.605 28.683 4.605 20.77 0 36.263-7.867 46.917-16.332 49.386-38.298 58.534-140.186 51.301-209.253 19.9 17.097 45.438 42.971 65.333 43.325 25.439-1.314 23.983-35.363 20.182-56.256zm-474.906 241.667c-9.724-8.018-14.903-19.294-14.979-32.611-.087-15.344 6.586-32.613 19.298-49.94 22.867-31.169 59.871-60.333 100.217-79.243 12.718 31.982 37.703 69.496 71.882 100.878-72.367 74.489-144.31 87.389-176.418 60.916zm292.596 43.261c16.496-6.812 21.76-6.397 23.021-6.091 4.838 19.566-25.969 66.887-44.319 82.884-70.614 63.646-124.027-27.161-136.779-119.974 18.699-12.204 37.919-28.065 57.108-47.95 3.001 2.401 6.06 4.749 9.177 7.039-.646 16.378-3.223 36.115-5.654 48.268-1.083 5.416 2.429 10.684 7.845 11.767 5.28 1.099 10.708-2.395 11.767-7.845 1.966-9.827 4.109-24.63 5.289-39.272 7.617 4.643 15.511 8.915 23.665 12.741-7.828 32.444-20.069 66.054-35.603 97.671-2.436 4.957-.392 10.95 4.565 13.385 4.848 2.414 10.941.441 13.385-4.565 3.229-6.571 6.321-13.227 9.268-19.941 25.059-13.116 43.481-22.425 57.265-28.117zm161.751-248.663c-1.297-.03-6.482-.993-20.628-11.818-11.855-9.072-27.245-22.838-48.066-42.003-1.108-7.237-2.372-14.466-3.792-21.661-1.07-5.418-6.328-8.947-11.748-7.874-5.418 1.069-8.944 6.329-7.874 11.747 24.189 119.484 4.509 293.862-106.937 245.155-65.59-29.528-114.73-92.479-132.632-138.474-14.438-37.099-8.522-67.754 15.441-80.002 33.742-17.243 94.101 5.836 144.188 83.318 2.998 4.638 9.188 5.967 13.827 2.969 4.638-2.998 5.968-9.188 2.969-13.827-9.218-14.26-19.02-27.175-29.26-38.606 29.055-67.64 70.298-111.194 108.393-114.115 21.488-1.646 40.428 9.993 54.763 33.662 10.572 17.456 18.674 38.88 22.227 58.779 3.786 21.205.746 30.649-.871 32.75z"/><path d="m238.393 148.157c-2.761-4.784-8.877-6.423-13.66-3.663-2.391 1.38-5.307 1.763-7.968 1.05-5.333-1.429-10.818 1.735-12.249 7.07-1.43 5.334 1.735 10.818 7.07 12.249 7.729 2.099 16.22.978 23.144-3.046 4.784-2.761 6.423-8.877 3.663-13.66z"/><path d="m248.368 231.585c-2.388 1.379-5.301 1.763-7.969 1.049-5.332-1.426-10.818 1.738-12.246 7.073-1.429 5.334 1.738 10.817 7.073 12.246 7.729 2.098 16.22.977 23.143-3.048 4.783-2.762 6.421-8.877 3.66-13.661-2.763-4.782-8.879-6.421-13.661-3.659z"/><path d="m274.369 181.085c-2.389 1.38-5.305 1.763-7.967 1.049-5.334-1.43-10.818 1.735-12.249 7.07-1.43 5.334 1.735 10.818 7.07 12.249 7.729 2.099 16.222.978 23.146-3.046 4.783-2.762 6.422-8.877 3.661-13.661-2.762-4.783-8.879-6.422-13.661-3.661z"/><path d="m104.731 307.184c-4.629-2.672-9.902-4.085-15.249-4.086-5.523-.001-10.001 4.476-10.001 9.999-.001 5.523 4.476 10.001 9.999 10.001 1.842 0 3.658.487 5.25 1.406.795.46 1.528 1.021 2.176 1.67 9.74 9.014 23.154-4.41 14.143-14.143-1.884-1.883-4.009-3.513-6.318-4.847z"/><path d="m126.731 246.184c-4.629-2.672-9.902-4.085-15.249-4.086-5.523-.001-10.001 4.476-10.001 9.999-.001 5.523 4.476 10.001 9.999 10.001 1.842 0 3.658.487 5.252 1.407.794.458 1.525 1.02 2.174 1.668 9.741 9.014 23.154-4.411 14.143-14.143-1.886-1.883-4.011-3.514-6.318-4.846z"/><path d="m347.885 207.606h-.008c-5.523 0-9.996 4.477-9.996 10 .528 13.263 19.479 13.263 20.004 0 0-5.523-4.477-10-10-10z"/></g></g></svg>