<svg id="Layer_1" enable-background="new 0 0 511.845 511.845" height="512" viewBox="0 0 511.845 511.845" width="512" xmlns="http://www.w3.org/2000/svg"><g><g clip-rule="evenodd" fill-rule="evenodd"><path d="m162.992 320.568 28.284 28.284 170.728-170.728c22.997 12.178 52.528 10.466 72.511-17.51l55.35-77.492c14.188-19.863 15.35-28.302 6.036-38.895l-86.515 86.515c-7.778 7.778-20.505 7.778-28.284 0-7.778-7.778-7.778-20.506 0-28.284l86.515-86.515c-10.593-9.314-19.032-8.152-38.895 6.036l-77.492 55.35c-27.976 19.983-29.688 49.514-17.51 72.511z" fill="#e8eaf0"/><path d="m191.277 348.852-28.284-28.284c-7.778-7.778-20.506-7.778-28.284 0l-21.214 21.214 56.568 56.569 21.214-21.214c7.778-7.778 7.778-20.506 0-28.285z" fill="#b5b3ee"/><path d="m170.063 398.351-56.568-56.569-91.923 91.923c-15.556 15.556-15.556 41.012 0 56.568 15.556 15.557 41.012 15.557 56.569 0z" fill="#8481e2"/></g><g><path d="m503.412 37.624c-1.825-2.076-4.427-3.303-7.189-3.392-2.767-.09-5.438.97-7.392 2.924l-86.515 86.515c-3.899 3.899-10.243 3.898-14.142 0-3.899-3.899-3.899-10.244 0-14.142l86.515-86.515c1.954-1.954 3.012-4.63 2.924-7.392-.089-2.762-1.316-5.364-3.392-7.189-18.105-15.921-34.603-6.527-51.311 5.408l-77.491 55.351c-15.139 10.813-24.761 25.133-27.828 41.411-2.27 12.049-.803 24.987 4.116 37.108l-48.604 48.604c-9.008 9.756 4.397 23.147 14.143 14.143l53.547-53.547c3.104-3.104 3.821-7.871 1.766-11.751-9.166-17.309-10.174-42.08 14.486-59.694l77.491-55.35c5.503-3.931 9.63-6.505 12.837-8.07l-73.341 73.34c-11.696 11.697-11.697 30.729 0 42.427 11.698 11.697 30.73 11.697 42.426 0l73.341-73.341c-1.565 3.208-4.139 7.335-8.07 12.838l-55.351 77.491c-17.615 24.66-42.386 23.651-59.694 14.486-3.879-2.054-8.646-1.339-11.751 1.766l-163.656 163.657-14.142-14.141 46.471-46.471c9.008-9.756-4.397-23.147-14.143-14.143l-47.68 47.68c-11.107-5.434-25.497-3.054-34.146 5.862l-113.136 113.137c-19.334 18.534-19.333 52.178 0 70.71 18.534 19.334 52.176 19.333 70.711 0l113.137-113.137c8.917-8.647 11.297-23.041 5.862-34.146l159.924-159.924c12.12 4.919 25.055 6.384 37.108 4.116 16.278-3.067 30.598-12.689 41.411-27.828l55.351-77.492c11.933-16.707 21.327-33.204 5.407-51.309zm-432.344 445.579c-11.09 11.574-31.337 11.575-42.426 0-11.573-11.088-11.574-31.337 0-42.425l84.852-84.852 42.426 42.426zm113.138-113.138-14.143 14.143-42.426-42.426 14.143-14.143c3.68-3.844 10.447-3.848 14.131-.01.009.01.019.019.029.029l28.227 28.226c.019.02.038.039.058.058 3.829 3.688 3.821 10.447-.019 14.123z"/><path d="m241.625 242.609c4.075 3.707 10.402 3.422 14.126-.673l.005-.005c3.715-4.086 3.411-10.408-.675-14.123s-10.413-3.411-14.128.675c-3.716 4.086-3.414 10.411.672 14.126z"/></g></g></svg>