<svg id="Layer_1" enable-background="new 0 0 512.049 512.049" height="512" viewBox="0 0 512.049 512.049" width="512" xmlns="http://www.w3.org/2000/svg"><g><g clip-rule="evenodd" fill-rule="evenodd"><path d="m470.814 10.014c-2.298 32.943-29.111 109.053-58.945 146.884 2.186.749 4.598 1.689 7.353 2.764 14.93 5.828 29.859 11.655 44.789 17.483 2.969 1.159 5.578 2.299 7.838 3.541 23.252-51.219 34.192-120.145 28.83-168.613z" fill="#fff3db"/><path d="m411.87 156.898c-13.211-4.531-18.139-2.118-40.383 19.224-91.119 87.424-187.073 84.073-258.812 74.339-78.139-10.602-102.653 30.293-102.653 87.848 0 158.52 154.76 197.639 283.966 135.813 94.088-45.021 171.131-150.254 187.894-258.125 3.376-21.726.369-29.595-10.031-35.31-2.26-1.242-4.869-2.383-7.838-3.541-14.93-5.828-29.859-11.655-44.789-17.483-2.756-1.075-5.169-2.015-7.354-2.765zm-169.209 132.05c60.449-12.096 112.187-41.43 156.518-83.962 8.798-8.442 47.312-8.535 38.927 26.288-9.043 37.557-26.328 74.933-49.51 108.186-12.505 17.938-14.329 23.793-46.007 10.916-41.141-16.726-83.261-11.877-121.471-7.474-14.135 1.629-27.676 3.19-38.999 3.329-27.787.343-52.693-2.515-77.609-12.953-9.492-3.976-50.775-24.004-40.771-35.567 9.923-11.471 30.529-9.381 43.557-7.613 45.596 6.186 89.934 7.941 135.365-1.15zm-60.073 97.128c14.353-.177 28.399-1.796 43.061-3.486 27.916-3.217 58.372-6.842 87.799 1.043 17.106 4.584 22.889 15.79 4.424 29.465-13.099 9.701-26.871 18.11-41.151 24.943-79.454 38.019-180.691 35.104-214.835-39.322-8.993-19.603 3.872-38.385 27.312-28.566 30.583 12.812 60.428 16.329 93.39 15.923z" fill="#ddb9b6"/><g fill="#c68a86"><path d="m399.179 204.986c-44.331 42.533-96.069 71.867-156.518 83.962-45.431 9.091-89.769 7.336-135.365 1.15-13.028-1.768-33.634-3.858-43.557 7.613-10.004 11.564 31.279 31.591 40.771 35.567 24.916 10.438 49.822 13.296 77.609 12.953 11.323-.14 24.864-1.701 38.999-3.329 38.21-4.404 80.329-9.252 121.471 7.474 31.679 12.878 33.502 7.022 46.007-10.916 23.182-33.253 40.466-70.629 49.51-108.186 8.385-34.824-30.129-34.73-38.927-26.288z"/><path d="m313.448 383.633c-29.427-7.885-59.883-4.26-87.799-1.043-14.662 1.69-28.709 3.309-43.061 3.486-32.962.407-62.808-3.11-93.391-15.922-23.44-9.819-36.305 8.963-27.312 28.566 34.144 74.426 135.382 77.341 214.836 39.322 14.279-6.833 28.052-15.242 41.151-24.943 18.465-13.676 12.682-24.882-4.424-29.466z"/></g></g><g><path d="m484.22 177.333c21.306-50.854 31.876-116.861 26.399-166.359-.532-4.807-4.427-8.544-9.251-8.877l-29.865-2.06c-5.503-.383-10.28 3.774-10.664 9.281-1.964 28.141-25.269 97.563-52.898 136.156-4.288-.796-8.479-.741-13.117.703-8.325 2.594-16.063 9.108-30.261 22.729-150.833 140.753-266.557 30.626-335.931 89.41-18.985 16.584-28.611 43.497-28.611 79.993-1.465 106.893 73.466 175.649 179.398 173.686 154.338.069 290.246-145.95 312.344-294.462 2.452-15.785 1.826-25.359-2.162-33.048-1.462-2.819-3.302-5.164-5.381-7.152zm-4.598-156.688 11.856.818c3.021 44.112-6.757 101.716-24.815 145.983l-39.082-15.255c24.269-36.525 46.451-96.018 52.041-131.546zm-7.623 193.817c-24.452 174.685-225.282 343.516-388.465 253.08-41.55-26.181-63.514-70.869-63.514-129.232 0-30.467 7.324-52.312 21.769-64.929 15.346-14.413 45.42-16.775 69.54-13.009 92.986 15.266 192.302-2.106 267.079-77.033 10.851-10.41 17.988-16.703 22.363-18.066 2.729-.849 5.853.209 14.814 3.707l44.789 17.483c6.966 2.719 10.183 4.747 11.471 7.231 1.752 3.373 1.802 10.166.154 20.768z"/><path d="m316.036 373.974c-30.973-8.299-62.699-4.642-90.691-1.416l-.846.098c-14.5 1.671-28.195 3.25-42.034 3.42-35.761.441-63.346-4.229-89.404-15.146-14.073-5.896-27.588-4.127-36.154 4.731-8.731 9.027-10.344 23.64-4.111 37.228 40.012 84.813 152.118 81.507 228.242 44.172 14.581-6.977 28.976-15.7 42.785-25.927 14.741-10.917 16.354-21 15.112-27.538-1.008-5.307-5.325-14.914-22.899-19.622zm-4.115 31.088c-12.788 9.47-26.082 17.531-39.516 23.958-71.844 33.297-166.238 37.867-201.431-34.471-3.152-6.871-2.117-12.477.309-14.984 2.655-2.747 7.777-2.816 14.05-.188 38.916 17.501 94.474 19.993 141.461 13.147l.841-.097c27.499-3.17 55.932-6.448 83.225.865 5.421 1.453 7.743 3.271 8.353 4.036-.248.747-1.494 3.439-7.292 7.734z"/><path d="m434.397 195.17c-14.117-8.106-33.894-5.314-42.142 2.6-26.87 25.782-56.195 46.108-87.16 60.413-5.014 2.316-7.2 8.258-4.884 13.272 2.317 5.015 8.26 7.199 13.272 4.884 32.982-15.238 64.144-36.817 92.567-64.091 2.273-1.852 12.583-3.399 18.797.513 1.596 1.004 6.452 4.062 3.537 16.172-8.656 35.948-25.252 72.19-47.991 104.809-.658.943-1.286 1.854-1.892 2.73-4.409 6.386-7.014 10.029-9.29 10.647-4.838 1.319-18.401-4.195-22.857-6.006-43.522-17.693-87.542-12.621-126.418-8.14-13.957 1.608-27.14 3.127-37.94 3.26-29.93.371-52.637-3.386-73.622-12.177-13.177-5.521-30.378-15.735-35.185-21.513 8.16-5.872 25.782-3.482 32.762-2.535 45.658 6.195 83.297 6.87 118.453 2.125 5.474-.739 9.312-5.774 8.573-11.248s-5.78-9.314-11.248-8.573c-33.327 4.497-69.261 3.823-113.089-2.124-12.481-1.694-38.453-5.217-52.465 10.98-3.501 4.047-4.757 9.14-3.537 14.34 1.84 7.845 9.32 15.572 23.54 24.315 36.49 21.223 60.173 26.14 106.065 26.407 51.022-1.801 105.057-17.948 156.58 3.41 11.468 4.662 20.711 7.664 28.66 7.664 2.436 0 4.75-.282 6.969-.884 9.448-2.565 14.329-9.635 20.509-18.585.588-.853 1.199-1.738 1.839-2.656 24.15-34.642 41.795-73.22 51.029-111.564 5.867-24.37-7.438-35.004-13.432-38.445z"/><path d="m267.12 292.989c13.268-.529 13.258-19.476 0-20h-.007c-13.267.53-13.25 19.478.007 20z"/></g></g></svg>