<svg id="Layer_1" enable-background="new 0 0 512.002 512.002" height="512" viewBox="0 0 512.002 512.002" width="512" xmlns="http://www.w3.org/2000/svg"><g><path clip-rule="evenodd" d="m321.001 96.001c15.704 0 16.796-9.221 32.5-9.221s16.796 9.221 32.5 9.221c11 0 20 9 20 20v60.001c0 11-9 19.999-20 19.999h-260c-11 0-20-9-20-19.999v-60.001c0-11 9-20 20-20 15.704 0 16.796-9.221 32.5-9.221s16.796 9.221 32.5 9.221 16.796-9.221 32.5-9.221c15.705 0 16.796 9.221 32.5 9.221s16.796-9.221 32.5-9.221c15.704-.001 16.796 9.221 32.5 9.221zm-155 356c0 25.333 14.313 45.797 30 50.001 15.687-4.203 30-24.667 30-50.001v-160c0-16.5 13.5-30 30-30s30 13.5 30 30v160c0 25.333 14.313 45.797 30 50.001 15.687-4.203 30-24.667 30-50.001v-160c0-16.5 13.5-30 30-30s30 13.5 30 30v160c0 25.333 14.313 45.797 30 50.001 15.687-4.203 30-24.667 30-50.001v-362.001c0-44-36.001-80-80-80h-260c-43.999 0-80 36.001-80 80v362.001c0 25.333 14.313 45.797 30 50.001 15.687-4.203 30-24.667 30-50.001v-160c0-16.5 13.5-30 30-30s30 13.5 30 30z" fill="#ff764e" fill-rule="evenodd"/><g><path d="m386.001 0h-260c-49.626 0-90 40.374-90 90v362.001c0 28.297 16.083 53.945 37.412 59.66 1.695.454 3.481.454 5.177 0 21.328-5.715 37.412-31.364 37.412-59.66v-160c1.102-26.539 38.908-26.519 40 0v160c0 28.297 16.083 53.945 37.412 59.66 1.695.454 3.481.454 5.177 0 21.328-5.715 37.411-31.364 37.411-59.66v-160c1.102-26.539 38.908-26.519 40 0v160c0 28.296 16.083 53.945 37.411 59.66 1.695.454 3.481.454 5.177 0 21.328-5.715 37.412-31.363 37.412-59.66v-160c1.102-26.539 38.908-26.519 40 0v160c0 28.296 16.083 53.945 37.412 59.66 1.696.454 3.481.454 5.177 0 21.328-5.715 37.412-31.363 37.412-59.66v-362.001c-.002-49.626-40.376-90-90.002-90zm70 452.001c0 19.504-9.943 34.829-20 39.404-10.057-4.576-20-19.9-20-39.404v-160c-2.204-53.078-77.816-53.038-80 0v160c0 19.504-9.943 34.829-20 39.404-10.057-4.576-20-19.9-20-39.404v-160c-2.203-53.078-77.816-53.038-80 0v160c0 19.504-9.943 34.829-20 39.404-10.057-4.576-20-19.9-20-39.404v-160c-2.203-53.078-77.816-53.038-80 0v160c0 19.504-9.943 34.829-20 39.404-10.057-4.576-20-19.9-20-39.404v-362.001c0-38.598 31.402-70 70-70h260c38.598 0 70 31.402 70 70z"/><path d="m386.001 86c-5.288 0-7.734-1.343-11.438-3.376-12.398-7.794-29.762-7.774-42.125 0-3.704 2.033-6.15 3.376-11.438 3.376s-7.734-1.343-11.437-3.376c-12.398-7.794-29.762-7.774-42.125 0-3.703 2.033-6.149 3.376-11.437 3.376s-7.734-1.343-11.438-3.376c-12.398-7.794-29.762-7.774-42.125 0-3.703 2.033-6.149 3.376-11.437 3.376s-7.734-1.343-11.438-3.376c-12.431-7.802-29.75-7.771-42.125 0-3.703 2.033-6.15 3.376-11.438 3.376-16.542 0-30 13.458-30 30v60c0 16.542 13.458 30 30 30h85.004c13.268-.528 13.258-19.477 0-20h-85.004c-5.514 0-10-4.486-10-10v-60c0-5.514 4.486-10 10-10 10.417 0 16.32-3.241 21.062-5.845 3.703-2.033 6.15-3.376 11.438-3.376s7.734 1.343 11.437 3.376c12.398 7.794 29.762 7.774 42.125 0 3.703-2.033 6.15-3.376 11.438-3.376s7.734 1.343 11.437 3.376c12.398 7.794 29.762 7.774 42.125 0 3.703-2.033 6.15-3.376 11.438-3.376s7.734 1.343 11.437 3.376c12.398 7.794 29.762 7.774 42.125 0 3.703-2.033 6.15-3.376 11.438-3.376s7.734 1.343 11.437 3.376c4.743 2.604 10.646 5.845 21.063 5.845 5.514 0 10 4.486 10 10v60c0 5.514-4.486 10-10 10h-84.996c-13.268.528-13.258 19.477 0 20h84.996c16.542 0 30-13.458 30-30v-60c.001-16.542-13.457-30-29.999-30z"/><path d="m256.009 186h-.007c-5.523 0-9.996 4.477-9.996 10 .528 13.263 19.479 13.263 20.003 0 0-5.522-4.478-10-10-10z"/></g></g></svg>