<svg id="Layer_1" enable-background="new 0 0 512 512" height="512" viewBox="0 0 512 512" width="512" xmlns="http://www.w3.org/2000/svg"><g><g clip-rule="evenodd" fill-rule="evenodd"><path d="m292.776 421.09c49.682-25.731 80.876-77.013 80.876-132.965 0-82.699-67.041-149.739-149.739-149.739-55.952 0-107.234 31.194-132.965 80.876 20.598-10.673 43.991-16.702 68.791-16.702 82.699 0 149.739 67.041 149.739 149.739 0 24.801-6.029 48.193-16.702 68.791z" fill="#ff5d7d"/><path d="m356.95 356.916c49.682-25.731 80.875-77.013 80.875-132.965 0-82.699-67.04-149.739-149.739-149.739-55.952 0-107.234 31.194-132.965 80.876 20.599-10.673 43.991-16.702 68.791-16.702 82.699 0 149.739 67.041 149.739 149.739.001 24.801-6.028 48.193-16.701 68.791z" fill="#ff9eb1"/><path d="m421.124 292.743c49.682-25.731 80.876-77.013 80.876-132.965 0-82.698-67.041-149.739-149.739-149.739-55.952 0-107.234 31.194-132.965 80.876 20.598-10.673 43.991-16.702 68.791-16.702 82.699 0 149.739 67.04 149.739 149.739 0 24.8-6.029 48.192-16.702 68.791z" fill="#ff5d7d"/><path d="m292.776 421.09c10.673-20.598 16.702-43.99 16.702-68.791 0-82.699-67.041-149.739-149.739-149.739-24.801 0-48.193 6.029-68.791 16.702-48.088 24.916-80.948 75.139-80.948 133.037 0 82.698 67.041 149.739 149.739 149.739 57.898 0 108.121-32.86 133.037-80.948z" fill="#ff9eb1"/><circle cx="128.647" cy="416.96" fill="#ff5d7d" r="22.5"/></g><g><path d="m272.686 239.341c-9.756-9.007-23.142 4.404-14.136 14.147 3.905 3.906 10.236 3.906 14.142 0 3.905-3.905 3.905-10.237 0-14.142z"/><path d="m512 159.778c-1.717-165.198-220.047-220.497-300.1-76.26-26.67 14.467-49.141 36.502-64.174 64.174-26.698 14.482-49.186 36.548-64.22 64.26-49.706 27.108-83.506 79.855-83.506 140.347 1.982 166.222 220.855 219.655 300.086 76.233 27.712-15.034 49.778-37.522 64.26-64.22 27.672-15.034 49.707-37.504 64.174-64.174 51.503-27.981 83.48-81.723 83.48-140.36zm-198.401 235.525c10.96-38.311 6.382-82.017-12.436-117.315-2.572-4.887-8.618-6.762-13.507-4.19-4.887 2.573-6.763 8.62-4.19 13.507 49.101 91.47-19.774 205.633-123.728 204.733-77.051.001-139.738-62.686-139.738-139.739-.89-103.945 113.257-172.834 204.726-123.73 4.885 2.571 10.933.697 13.507-4.19 2.573-4.887.697-10.934-4.19-13.507-22.753-11.98-48.447-18.312-74.304-18.312-14.893 0-29.317 2.049-43.004 5.88 26.238-31.39 65.279-50.053 107.178-50.053 129.966.025 188.997 164.145 89.686 246.916zm64.178-64.178c33.837-118.723-78.177-230.698-196.865-196.864 26.238-31.388 65.278-50.049 107.175-50.049 129.962.026 188.995 164.141 89.69 246.913zm64.173-64.173c33.837-118.723-78.176-230.698-196.865-196.864 26.238-31.388 65.279-50.049 107.175-50.049 129.963.025 188.996 164.141 89.69 246.913z"/><path d="m298.521 104.334h-.007c-5.523 0-9.997 4.477-9.997 10 .528 13.263 19.479 13.263 20.004 0 0-5.522-4.477-10-10-10z"/><path d="m393.771 177.084h-.007c-5.523 0-9.997 4.477-9.997 10 .528 13.263 19.479 13.263 20.004 0 0-5.522-4.477-10-10-10z"/><path d="m429.021 76.584h-.007c-5.523 0-9.997 4.477-9.997 10 .528 13.263 19.479 13.263 20.004 0 0-5.523-4.477-10-10-10z"/><path d="m328.53 249.085h-.007c-5.523 0-9.997 4.477-9.997 10 .528 13.263 19.479 13.263 20.004 0 0-5.522-4.477-10-10-10z"/><path d="m234.406 169.585h-.007c-5.523 0-9.997 4.477-9.997 10 .528 13.263 19.479 13.263 20.004 0 0-5.522-4.477-10-10-10z"/><path d="m204.022 272.335h-.007c-5.523 0-9.997 4.477-9.997 10 .528 13.263 19.479 13.263 20.004 0 0-5.523-4.477-10-10-10z"/><path d="m81.772 295.585h-.007c-5.523 0-9.997 4.477-9.997 10 .528 13.263 19.479 13.263 20.004 0 0-5.523-4.477-10-10-10z"/><path d="m253.522 354.835h-.007c-5.523 0-9.997 4.477-9.997 10 .528 13.263 19.479 13.263 20.004 0 0-5.523-4.477-10-10-10z"/><path d="m128.647 384.46c-17.921 0-32.5 14.58-32.5 32.5 1.785 43.115 63.222 43.103 65.001 0-.001-17.921-14.581-32.5-32.501-32.5zm0 45c-6.893 0-12.5-5.607-12.5-12.5.687-16.583 24.316-16.578 25.001 0-.001 6.892-5.608 12.5-12.501 12.5z"/><path d="m156.78 327.835h-.007c-5.523 0-9.997 4.477-9.997 10 .528 13.263 19.479 13.263 20.004 0 0-5.523-4.477-10-10-10z"/></g></g></svg>