<svg id="Layer_1" enable-background="new 0 0 512 512" height="512" viewBox="0 0 512 512" width="512" xmlns="http://www.w3.org/2000/svg"><g><g clip-rule="evenodd" fill-rule="evenodd"><path d="m210 36h-200v80h66.001 40.001 93.998z" fill="#e8eaf0"/><path d="m76.001 116h40.001v160h-40.001z" fill="#b6bccf"/><path d="m116.002 275.999h-40.001-20.001c-11 0-20 9-20 20s9 20 20 20h40 320 40c11 0 20-9 20-20s-9-20-20-20h-39.178-251.718z" fill="#e8eaf0"/><path d="m96 316h-40l-46 100.003h492l-46-100.003h-40l10 50.001h-340.001z" fill="#b6bccf"/><path d="m96 316-10.001 50.001h340.001l-10-50.001z" fill="#66e0f7"/><path d="m502 416.003h-492v39.997c0 10.997 9 20 20 20h452c11 0 20-9.003 20-20z" fill="#8481e2"/><g fill="#ff9eb1"><path d="m316.564 224.29c17.31 17.311 43.971 18.715 66.636-3.949 25.978-25.977 17.066-45.071 34.072-62.076 11.421-11.421 10.609-26.137 1.032-35.714s-24.293-10.389-35.714 1.032c-17.006 17.005-36.099 8.094-62.076 34.072-22.665 22.664-21.26 49.325-3.95 66.635z"/><path d="m316.564 224.29c-17.31-17.31-18.715-43.971 3.949-66.635.499-.499.994-.984 1.488-1.457-107.232-33.383-183.983 42.212-157.741 119.801h148.026 104.536c13.589-17.667 36.31-44.399-15.974-80.819l-.42-.197c-3.148 7.723-7.974 16.103-17.228 25.356-17.776 17.776-38.01 20.746-54.263 12.849-4.47-2.17-8.639-5.164-12.373-8.898z"/></g></g><g><path d="m511.084 411.824-41.076-89.301c27.275-14.679 17.385-56.138-14.008-56.524h-19.938c5.11-8.864 8.929-19.551 7.049-31.793-2.287-14.893-12.35-28.997-30.699-42.974.625-1.926 1.187-3.787 1.728-5.579 2.538-8.411 4.373-14.488 10.202-20.317 12.149-12.15 14.581-28.525 7.145-41.827l7.648-7.648h3.485c11.985-.286 13.665-17.003 2.142-19.77-2.772-11.53-19.487-9.833-19.77 2.143v3.485l-7.648 7.648c-13.301-7.435-29.676-5.003-41.827 7.146-5.829 5.829-11.905 7.663-20.316 10.202-9.975 3.011-22.082 6.665-35.744 18.305-27.331-7.657-54.535-8.968-79.012-3.765-58.315 10.996-102.237 66.089-89.23 124.746h-25.214v-140.001h83.999c5.523 0 10-4.477 10-10v-80c0-5.523-4.477-10-10-10h-200c-5.523 0-10 4.477-10 10v80c0 5.523 4.477 10 10 10h56v140h-10c-31.414.394-41.27 41.858-14.008 56.524l-41.076 89.3c-.604 1.311-.916 2.736-.916 4.179v39.997c0 16.542 13.458 30 30 30h452c16.542 0 30-13.458 30-30v-39.997c0-1.443-.313-2.868-.916-4.179zm-427.282-85.824-7.608 38.041c-1.349 5.975 3.682 12.112 9.806 11.961h124.997c13.268-.528 13.258-19.477 0-20h-112.799l6-30.002h303.604l6 30.002h-112.805c-13.268.529-13.258 19.476 0 20h125.003c6.124.15 11.154-5.986 9.806-11.961l-7.608-38.041h21.395l36.8 80.003h-460.786l36.8-80.003zm277.179-180.14c9.487-2.863 19.298-5.825 28.68-15.206 6.583-6.582 15-7.534 21.572-1.032 6.239 6.238 5.834 14.706-1.032 21.571-9.382 9.382-12.343 19.193-15.207 28.68-3.23 10.704-6.282 20.813-18.865 33.396-17.144 17.145-37.747 18.695-52.493 3.949-6.843-6.842-10.332-15.129-10.091-23.966.266-9.744 5.121-19.608 14.04-28.527.401-.401.8-.793 1.196-1.175.098-.09.194-.183.289-.277 11.9-11.373 21.632-14.311 31.911-17.413zm-168.337 42.621c26.183-26.828 67.061-36.397 111.445-26.695-6.642 9.725-10.246 20.224-10.537 30.922-.39 14.258 5.271 27.985 15.94 38.654 23.924 23.608 56.915 19.922 80.778-3.949 6.061-6.061 10.45-11.849 13.751-17.32 23.407 19.415 25.264 34.522 7.879 55.908h-240.17c-7.068-28.069.51-56.613 20.914-77.52zm-172.644-142.481h180v60h-180zm66 80h20.001v140h-20.001zm-30 159.999h108.029c.153.004.306.004.46 0h252.277c.029 0 .057.001.085 0h39.149c13.227.545 13.278 19.37.07 20-.077-.001-.155 0-.232.001h-399.624c-.112-.002-.225-.003-.337-.002-13.18-.697-13.064-19.464.123-19.999zm436 170.001c0 5.514-4.486 10-10 10h-452c-5.514 0-10-4.486-10-10v-29.997h472z"/><path d="m165.125 66h-110.25c-13.268.528-13.258 19.477 0 20h110.25c13.269-.528 13.258-19.477 0-20z"/><path d="m256 376.002c13.267-.528 13.257-19.477 0-20h-.007c-13.268.529-13.25 19.478.007 20z"/></g></g></svg>