<svg id="Layer_1" enable-background="new 0 0 511.861 511.861" height="512" viewBox="0 0 511.861 511.861" width="512" xmlns="http://www.w3.org/2000/svg"><g><g clip-rule="evenodd" fill-rule="evenodd"><path d="m54.246 344.464c70.061-162.011 185.157-96.651 265.11-282.106l-29.795-29.795c-8.016-8.016-21.133-8.016-29.149 0l-244.459 244.459c-8.016 8.016-8.016 21.133 0 29.149z" fill="#c68a65"/><path d="m319.356 62.359c-79.954 185.455-195.049 120.095-265.11 282.106l38.879 38.878c26.857-46.656 50.546-66.809 94.386-71.759s83.439-67.175 105.712-42.78c22.274 24.396-35.355 74.246-84.853 112.43s-34.623 69.978-41.707 75.648l39.027 39.027c8.016 8.016 21.133 8.016 29.15 0l92.539-92.539c-5.089-82.871 107.619-128.555 102.287-230.702l-26.953-26.953c32.822-53.588 71.966-63.409 89.885-81.328 5.774-5.774 9.345-13.751 9.345-22.562s-3.571-16.787-9.345-22.561-13.751-9.345-22.561-9.345c-8.811 0-16.788 3.571-22.561 9.345-17.919 17.919-27.74 57.063-81.328 89.885z" fill="#ddb9a3"/><g fill="#c68a65"><path d="m293.223 268.804c-22.274-24.395-61.872 37.83-105.712 42.78-43.841 4.95-67.529 25.102-94.387 71.759l73.539 73.539c7.084-5.67-7.791-37.464 41.707-75.648s107.127-88.035 84.853-112.43z"/><path d="m429.665 172.667c5.332 102.148-107.376 147.832-102.287 230.702l151.92-151.92c8.016-8.016 8.016-21.133 0-29.149z"/></g></g><g><path d="m475.96 88.725c9.314-5.858 17.358-10.918 23.707-17.268 16.259-15.599 16.258-43.665.002-59.265-15.601-16.256-43.665-16.256-59.266 0-6.35 6.35-11.409 14.394-17.268 23.708-11.34 18.029-25.269 40.177-55.605 60.49l-70.898-70.898c-11.355-11.844-31.936-11.842-43.292 0l-244.458 244.459c-11.843 11.355-11.843 31.938 0 43.292l189.736 189.737c11.356 11.842 31.937 11.842 43.292 0l244.459-244.46c11.935-11.936 11.935-31.355 0-43.292l-70.898-70.898c20.311-30.336 42.46-44.265 60.489-55.605zm-370.287 293.023c24.577-40.658 46.135-56.07 82.96-60.227 22.348-2.523 42.43-17.224 60.147-30.194 9.667-7.077 18.798-13.761 26.116-16.702 7.384-2.969 9.358-.812 10.941.922 11.986 17.208-30.351 56.241-83.575 97.77-32.102 24.763-39.568 47.558-41.893 63.13zm366.554-137.37-131.955 131.955c6.832-24.464 24.16-46.662 42.236-69.818 24.111-30.887 50.977-65.303 56.367-110.495l33.352 33.351c4.138 4.138 4.138 10.87 0 15.007zm-78.042-103.887c-2.415 3.942-1.812 9.025 1.456 12.294l24.176 24.176c1.032 47.933-26.463 83.156-53.074 117.247-24.648 31.574-50.109 64.19-49.521 105.175l-89.454 89.454c-3.91 4.084-11.097 4.083-15.007 0l-34.286-34.286c.411-2.185.604-4.521.809-6.993 1.033-12.487 2.764-33.387 35.195-58.405 65.32-51.318 112.566-94.231 86.129-127.091-5.89-6.45-16.424-12.725-33.17-5.994-25.445 10.688-52.956 42.438-81.049 45.58-46.485 5.65-69.871 25.578-95.257 65.56l-24.486-24.486c24.622-54.88 54.098-81.366 90.586-103.946 4.696-2.906 6.147-9.069 3.241-13.766-2.906-4.695-9.067-6.148-13.767-3.241-33.072 20.466-67.318 47.579-95.124 105.89l-28.557-28.559c-4.085-3.91-4.085-11.097 0-15.007l244.458-244.458c3.91-4.084 11.097-4.084 15.007 0l24.477 24.477c-22.129 49.923-48.236 84.321-84.241 111.128-4.43 3.298-5.348 9.563-2.05 13.993 3.316 4.457 9.606 5.327 13.993 2.049 37.189-27.688 64.472-62.567 87.408-112.06l36.999 36.999c3.269 3.269 8.354 3.871 12.294 1.457 38.974-23.871 56.152-51.185 68.696-71.127 5.216-8.293 9.721-15.455 14.48-20.214 8.154-8.499 22.826-8.498 30.98-.001 8.499 8.155 8.498 22.827-.001 30.98-4.759 4.76-11.921 9.264-20.214 14.48-19.943 12.543-47.256 29.722-71.126 68.695z"/><path d="m190.887 197.662h-.008c-5.522 0-9.996 4.477-9.996 10 .528 13.263 19.479 13.263 20.004 0 0-5.523-4.478-10-10-10z"/></g></g></svg>