<svg id="Layer_1" enable-background="new 0 0 512.014 512.014" height="512" viewBox="0 0 512.014 512.014" width="512" xmlns="http://www.w3.org/2000/svg"><g><g clip-rule="evenodd" fill-rule="evenodd"><path d="m86.694 290.659c4.488-16.637 11.087-32.591 19.466-47.399-15.771-9.847-26.264-27.359-26.264-47.322-77.709 33.364-110.126 121.022 6.798 94.721z" fill="#ffe0e6"/><path d="m106.16 243.26c8.553 5.34 18.658 8.426 29.483 8.426 16.888 0 32.021-7.51 42.244-19.372 16.541 25.63 45.348 42.599 78.12 42.599s61.579-16.969 78.12-42.599c10.223 11.861 25.356 19.372 42.244 19.372 10.826 0 20.93-3.086 29.483-8.426 15.771-9.847 26.264-27.359 26.264-47.322 0-20.035-10.572-37.598-26.438-47.425.443-2.992.675-6.052.675-9.167 0-34.286-27.796-62.082-62.082-62.082-9.995 0-19.438 2.362-27.802 6.559-6.398-27.476-31.04-47.948-60.464-47.948s-54.066 20.472-60.464 47.948c-8.364-4.196-17.807-6.559-27.802-6.559-34.286 0-62.082 27.796-62.082 62.082 0 3.115.232 6.175.675 9.167-15.867 9.827-26.438 27.391-26.438 47.425 0 19.963 10.493 37.475 26.264 47.322z" fill="#e8eaf0"/><path d="m405.852 243.257c8.381 14.812 14.98 30.766 19.468 47.402 116.924 26.301 84.506-61.357 6.798-94.721 0 19.963-10.493 37.475-26.266 47.319z" fill="#ffe0e6"/><path d="m282.767 388.568c0-14.779-11.981-17.49-26.76-17.49-14.78 0-26.761 2.71-26.761 17.49s11.981 26.761 26.761 26.761c14.779-.001 26.76-11.981 26.76-26.761z" fill="#60c"/><path d="m432.118 341.437c0-34.83-9.619-68.759-26.264-98.176-8.553 5.34-18.658 8.426-29.483 8.426-16.888 0-32.021-7.51-42.244-19.372-16.541 25.63-45.348 42.599-78.12 42.599s-61.579-16.969-78.12-42.599c-10.223 11.861-25.356 19.372-42.244 19.372-10.826 0-20.93-3.086-29.481-8.429-16.647 29.421-26.266 63.35-26.266 98.18 0 99.771 78.847 134.439 176.111 134.439s176.111-34.67 176.111-134.44z" fill="#ffe0e6"/><path d="m282.767 388.568c0-14.779-11.981-17.49-26.76-17.49-14.78 0-26.761 2.71-26.761 17.49s11.981 26.761 26.761 26.761c14.779-.001 26.76-11.981 26.76-26.761z" fill="#ff9eb1"/></g><g><path d="m441.793 189.336c-1.799-18.188-10.99-34.621-25.565-45.696 3.651-49.526-46.416-88.549-93.517-73.104-23.986-59.258-109.44-59.228-133.407 0-47.11-15.444-97.165 23.58-93.517 73.104-14.576 11.075-23.767 27.508-25.566 45.696-46.613 22.093-77.724 62.828-68.645 91.107 3.349 10.43 14.045 25.03 47.677 25.028 7.035 0 15.077-.64 24.263-2.09-21.128 110.071 44.97 184.408 182.492 182.493 137.496 1.923 203.649-72.436 182.492-182.493 9.186 1.45 17.224 2.089 24.26 2.089 33.594 0 44.31-14.571 47.668-25 9.109-28.283-21.998-69.031-68.635-91.134zm-330.193-32.322c3.393-2.102 5.211-6.02 4.626-9.967-6.376-41.356 37.562-73.191 74.832-54.286 2.739 1.374 5.956 1.416 8.73.116 2.774-1.301 4.798-3.802 5.493-6.786 5.514-23.679 26.373-40.216 50.725-40.216s45.211 16.537 50.725 40.216c.695 2.984 2.719 5.485 5.493 6.786 2.774 1.302 5.992 1.259 8.73-.115 37.286-18.908 81.207 12.941 74.833 54.287-.584 3.948 1.234 7.865 4.626 9.966 13.545 8.389 21.649 22.871 21.703 38.763-.002.104-.002.209 0 .313-.139 42.085-53.012 61.583-80.415 29.695-2.058-2.387-5.127-3.67-8.265-3.447-3.145.218-6.002 1.905-7.712 4.553-31.493 50.384-107.952 50.372-139.436 0-1.709-2.648-4.567-4.336-7.711-4.554-3.123-.221-6.212 1.058-8.266 3.447-27.416 31.9-80.283 12.369-80.416-29.695.002-.104.001-.208 0-.313.055-15.892 8.16-30.373 21.705-38.763zm-90.981 117.315c-4.277-13.324 14.016-43.365 51.022-63.313 3.283 13.937 11.012 26.178 21.604 35.135-5.951 11.605-10.805 23.659-14.516 35.98-38.416 7.7-55.233 1.16-58.11-7.802zm235.388 130.999c-9.242 0-16.761-7.519-16.761-16.76 0-3.852 0-7.49 16.761-7.49 16.76 0 16.76 3.638 16.76 7.49 0 9.242-7.518 16.76-16.76 16.76zm119.002 32.409c-26.278 17.429-62.914 26.837-109.002 28.013v-41.803c26.007-6.308 37.945-45.685 13.546-58.532-9.858-5.825-37.234-5.825-47.092 0-24.417 12.864-12.437 52.237 13.546 58.532v41.803c-86.651-2.275-155.771-33.422-156.112-124.313.001-29.004 7.054-58.163 20.459-84.808 21.268 9.234 48.222 5.498 66.191-9.214 39.477 49.688 119.454 49.679 158.923 0 17.967 14.712 44.926 18.448 66.191 9.214 30.081 57.09 31.21 145.832-26.65 181.108zm116.383-163.398c-2.888 8.968-19.716 15.488-58.104 7.793-3.711-12.321-8.566-24.375-14.518-35.981 10.591-8.957 18.321-21.198 21.604-35.135 37.022 19.955 55.308 50 51.018 63.323z"/><path d="m326.013 326.078h-.007c-8.284 0-14.996 6.716-14.996 15 .792 19.895 29.216 19.893 30.003 0 0-8.284-6.716-15-15-15z"/><path d="m186.008 326.078h-.007c-8.284 0-14.996 6.716-14.996 15 .792 19.895 29.216 19.893 30.003 0 0-8.284-6.716-15-15-15z"/><path d="m171.602 160.826c1.575.91 3.294 1.342 4.991 1.341 3.456 0 6.817-1.793 8.67-5.001 2.561-4.437 5.695-8.521 9.316-12.142 12.766-12.767 30.371-18.882 48.301-16.77 5.486.646 10.454-3.279 11.1-8.764.645-5.485-3.278-10.455-8.764-11.1-24.044-2.829-47.658 5.369-64.779 22.49-4.856 4.855-9.061 10.334-12.495 16.284-2.762 4.785-1.123 10.901 3.66 13.662z"/><path d="m277.831 145.352c4.075 3.707 10.402 3.422 14.126-.673 3.715-4.086 3.414-10.411-.673-14.126l-.005-.005c-4.086-3.715-10.408-3.412-14.123.675-3.716 4.087-3.411 10.414.675 14.129z"/></g></g></svg>