<svg id="Layer_1" enable-background="new 0 0 511.939 511.939" height="512" viewBox="0 0 511.939 511.939" width="512" xmlns="http://www.w3.org/2000/svg"><g><g clip-rule="evenodd" fill-rule="evenodd"><g fill="#c68a86"><path d="m312.423 74.04c-7.778-7.778-20.506-7.779-28.284 0-7.779 7.779-7.778 20.506 0 28.284l53.172 53.172c7.778 7.779 20.506 7.778 28.284 0s7.778-20.506 0-28.284z"/><path d="m300.095 238.713-94.672-94.673c-7.779-7.778-20.506-7.779-28.284 0-7.779 7.779-7.778 20.506 0 28.284l94.673 94.673c7.778 7.779 20.506 7.779 28.284 0 7.777-7.778 7.777-20.506-.001-28.284z"/><path d="m245.453 357.356-94.672-94.673c-7.779-7.778-20.506-7.779-28.284 0s-7.778 20.506 0 28.284l94.673 94.673c7.778 7.779 20.506 7.779 28.284 0 7.777-7.778 7.777-20.506-.001-28.284z"/></g><path d="m150.78 262.683 94.672 94.673c7.778 7.778 7.779 20.506 0 28.284-7.778 7.779-20.506 7.779-28.284 0l-94.673-94.673c-7.778-7.779-7.778-20.506 0-28.284 7.779-7.779 20.507-7.778 28.285 0zm233.182 88.532c11.798-37.323-.69-76.384 14.038-132.606 7.392-28.216 29.277-49.234 46.163-74.58 20.694-31.062 24.17-57.56 16.177-78.599-17.349-45.663-88.729-65.604-155.358-50.648-93.682 21.027-202.197 86.417-248.113 184.54-29.261 62.533-26.12 129.35 1.07 180.399 20.704 38.871 55.353 68.598 100.257 80.329 84.557 22.09 195.012-11.551 225.766-108.835zm-83.867-84.218c7.779-7.778 7.778-20.506 0-28.284l-94.672-94.673c-7.779-7.778-20.506-7.779-28.284 0-7.779 7.779-7.778 20.506 0 28.284l94.673 94.673c7.777 7.779 20.504 7.779 28.283 0zm65.5-111.5c-7.778 7.778-20.506 7.779-28.284 0l-53.172-53.172c-7.778-7.778-7.779-20.506 0-28.284 7.779-7.779 20.506-7.778 28.284 0l53.172 53.173c7.778 7.777 7.778 20.505 0 28.283z" fill="#ddb9b6"/><path d="m304.953 443.93c-19.108 9.998-40.051 16.63-61.427 20-28.794 4.539-58.377 3.161-85.329-3.88-44.905-11.731-79.553-41.459-100.257-80.329 93.068 197.573 393.816 146.164 331.936-87.022-.185 21.174-.079 40.057-5.914 58.516-1.966 6.221-4.259 12.181-6.849 17.883-4.546 10.007-10.01 19.218-16.244 27.646-14.917 20.165-34.236 35.842-55.916 47.186z" fill="#c68a86"/><path d="m394.303 235.213c-3.932 21.368-4.276 40.191-4.427 57.486 29.749-89.829 123.289-89.781 70.464-227.268 7.345 19.333 5.005 43.277-11.481 71.135-1.454 2.458-3.019 4.946-4.696 7.464-11.861 17.802-26.187 33.469-36.225 50.995-4.254 7.426-7.738 15.187-9.938 23.585-1.495 5.706-2.71 11.235-3.697 16.603z" fill="#c68a86"/></g><g><path d="m442.798 228.55c32.48-36.56 63.167-71.104 27.418-165.286-21.474-54.483-95.352-73.357-167.424-58.238-166.254 35.113-341.303 205.299-253.749 379.274 42.837 95.479 152.903 150.327 252.072 118.625 83.544-26.987 120.339-105.761 102.916-193.072-2.815-14.889-2.354-21.511 2.146-30.808 9.863-20.375 23.466-35.687 36.621-50.495zm-14.952-13.283c-8.164 9.19-16.992 19.127-25.148 30.659 1.127-7.914 2.718-16.164 4.975-24.783 4.716-18 16.404-33.333 28.778-49.565 5.36-7.031 10.902-14.301 16.034-22.004 5.391-8.091 9.795-16.078 13.199-23.923 3.955 42.573-15.202 64.136-37.838 89.616zm-361.92-11.707c45.102-96.384 153.664-159.362 241.246-179.02 88.33-19.732 188.923 24.408 128.668 113.946-4.779 7.172-10.125 14.186-15.295 20.968-13.022 17.084-26.489 34.75-32.219 56.622-8.078 30.836-8.288 56.583-8.473 79.3-.16 19.641-.299 36.604-5.427 52.825-28.497 90.149-133.118 123.225-213.702 102.174-40.529-10.588-73.565-37.119-93.843-75.128-.069-.138-.141-.273-.215-.406-27.297-51.78-27.279-114.395-.74-171.281zm229.021 280.341c-42.158 13.67-94.206 10.017-140.204-14.42.309.082.618.165.927.246 86.808 23.651 195.806-13.532 231.469-98.617-7.044 62.359-48.752 98.706-92.192 112.791z"/><path d="m210.097 392.711c11.698 11.697 30.729 11.697 42.427 0 11.697-11.697 11.697-30.729 0-42.427l-94.672-94.673c-11.128-11.606-31.299-11.606-42.426 0-11.607 11.128-11.606 31.298 0 42.427zm-80.53-122.957c3.684-3.848 10.459-3.848 14.142 0l94.672 94.673c3.899 3.899 3.899 10.243 0 14.142s-10.243 3.899-14.142 0l-94.672-94.673c-3.848-3.683-3.848-10.458 0-14.142z"/><path d="m185.586 194.915c3.906 3.906 10.238 3.906 14.142 0 3.905-3.905 3.906-10.237 0-14.142l-15.519-15.52c-3.848-3.683-3.848-10.459 0-14.142 3.898-3.899 10.243-3.898 14.142 0l94.672 94.673c3.899 3.899 3.899 10.243 0 14.142s-10.243 3.899-14.142 0l-15.514-15.514c-3.906-3.905-10.237-3.905-14.142 0s-3.906 10.237 0 14.142l15.514 15.515c11.698 11.697 30.729 11.697 42.427 0 11.697-11.697 11.697-30.729 0-42.426l-94.673-94.674c-11.698-11.695-30.73-11.697-42.426 0-11.697 11.697-11.697 30.73 0 42.427z"/><path d="m330.239 162.568c11.128 11.607 31.298 11.606 42.427 0 11.697-11.697 11.697-30.729 0-42.427l-53.172-53.172c-11.698-11.698-30.731-11.697-42.426 0-11.608 11.128-11.606 31.298 0 42.427zm-39.03-81.456c3.899-3.899 10.244-3.899 14.142 0l53.172 53.172c3.899 3.899 3.899 10.243 0 14.142-3.683 3.848-10.458 3.848-14.142 0l-53.171-53.173c-3.848-3.683-3.848-10.458-.001-14.141z"/><path d="m217.406 212.593c-3.905 3.905-3.902 10.24.003 14.145 3.905 3.906 10.236 3.906 14.142 0 3.905-3.905 3.905-10.237 0-14.142l-.005-.005c-3.906-3.906-10.235-3.904-14.14.002z"/></g></g></svg>