<svg id="Layer_1" enable-background="new 0 0 512.027 512.027" height="512" viewBox="0 0 512.027 512.027" width="512" xmlns="http://www.w3.org/2000/svg"><g><g clip-rule="evenodd" fill-rule="evenodd"><path d="m197.801 307.797-46.001-46.001-129.523 129.525c-16.334 16.334-16.334 43.062 0 59.397 16.334 16.334 43.063 16.334 59.397 0 11.785-11.785 17.914-34.884 29.699-46.669 17.927-17.927 38.788-27.167 56.763-45.142 17.074-17.075 11.53-32.974 29.665-51.11z" fill="#c68a65"/><path d="m151.801 261.796 46.001 46.001c21.338-21.338 39.157-2.325 52.871-26.079l-13.511-13.511-45.885-45.886z" fill="#ddb9a3"/><path d="m191.275 222.322 45.885 45.886c7.999-6.197 16.825-10.299 25.911-12.129 56.039-52.808 178.285-181.378 199.162-205.593-91.491-14.305-188.147 89.026-270.958 171.836z" fill="#b6bccf"/><path d="m462.233 50.486c-20.877 24.215-143.123 152.785-199.161 205.592 17.394-3.505 35.737 1.314 51.033 15.682 62-60 132.399-134.341 187.923-206.992-13.115-7.571-26.399-12.187-39.795-14.282z" fill="#e8eaf0"/></g><g><path d="m511.833 62.808c-.563-2.82-2.314-5.262-4.806-6.7-108.971-63.99-231.757 68.377-308.914 145.193-4.677 4.697-9.314 9.355-13.909 13.95l-168.999 168.999c-20.274 20.274-20.274 53.264 0 73.539 19.276 20.105 54.265 20.105 73.54-.001 7.001-7 11.918-16.577 16.674-25.837 4.051-7.889 8.241-16.047 13.025-20.832 17.715-17.558 38.667-26.885 56.762-45.142 9.99-9.99 13.522-19.804 16.638-28.464 2.9-8.061 5.406-15.022 13.029-22.645 7.732-7.732 14.112-8.359 22.188-9.153 10.062-.989 22.585-2.219 32.272-18.997 2.263-3.92 1.611-8.871-1.59-12.071l-4.681-4.681c18.24-8.994 38.301-5.848 54.197 9.083 3.889 3.652 9.964 3.61 13.801-.103 52.326-50.638 127.576-127.847 188.913-208.105 1.747-2.285 2.424-5.212 1.86-8.033zm-338.808 267.934c-2.754 7.655-5.133 14.266-11.961 21.093-8.375 8.375-17.463 14.743-27.085 21.483-9.883 6.924-20.102 14.083-29.677 23.658-7.001 7.001-11.918 16.577-16.674 25.837-4.051 7.89-8.241 16.048-13.025 20.832-11.829 12.347-33.425 12.346-45.254 0-12.477-12.477-12.477-32.778 0-45.255l122.451-122.451 32.362 32.362c-5.938 7.993-8.663 15.567-11.137 22.441zm52.08-44.93c-7.264.714-16.67 1.638-26.672 8.475l-32.49-32.49 25.332-25.333 46.056 46.056c-3.086 2.394-6.666 2.746-12.226 3.292zm88.475-27.481c-8.138-5.974-16.966-9.966-26.061-11.952 14.457-14.109 32.203-31.881 52.35-52.432 3.867-3.944 3.804-10.275-.14-14.142-3.946-3.867-10.276-3.802-14.142.141-27.974 28.536-51.248 51.638-67.415 66.917-6.762 1.693-13.425 4.487-19.822 8.392l-32.94-32.94c2.282-2.29 4.574-4.592 6.875-6.903 46.673-46.88 94.935-95.355 144.447-126.146 30.499-18.965 58.335-28.918 83.975-29.91-12.612 13.708-31.608 33.913-52.667 55.981-3.813 3.996-3.665 10.326.331 14.138 3.99 3.809 10.321 3.669 14.138-.331 28.5-29.866 52.534-55.574 63.358-67.747 7.137 1.484 14.098 3.745 20.892 6.781-56.674 72.647-123.88 142.102-173.179 190.153z"/><path d="m364.11 144.696h-.008c-5.522 0-9.996 4.477-9.996 10 .528 13.263 19.479 13.263 20.004 0 0-5.523-4.477-10-10-10z"/></g></g></svg>