<svg id="Layer_1" enable-background="new 0 0 512.002 512.002" height="512" viewBox="0 0 512.002 512.002" width="512" xmlns="http://www.w3.org/2000/svg"><g><g clip-rule="evenodd" fill-rule="evenodd"><path d="m256.001 83.515c26.051 0 48.44 15.68 58.243 38.118 3.4 7.782 5.286 16.376 5.286 25.411 0 35.087-28.443 63.53-63.529 63.53s-63.53-28.443-63.53-63.53c0-9.035 1.886-17.629 5.286-25.411 9.803-22.438 32.192-38.118 58.244-38.118z" fill="#ff9eb1"/><path d="m314.236 172.474c26.051 0 48.44 15.68 58.243 38.118 3.4 7.782 5.286 16.376 5.286 25.411 0 35.087-28.443 63.53-63.53 63.53s-63.529-28.443-63.529-63.53c0-9.035 1.886-17.629 5.286-25.411 9.803-22.437 32.192-38.118 58.244-38.118z" fill="#ff5d7d"/><path d="m197.765 172.474c26.051 0 48.44 15.68 58.243 38.118 3.4 7.782 5.286 16.376 5.286 25.411 0 35.087-28.443 63.53-63.53 63.53s-63.529-28.443-63.529-63.53c0-9.035 1.886-17.629 5.286-25.411 9.803-22.437 32.193-38.118 58.244-38.118z" fill="#ff9eb1"/><path d="m139.53 261.434c26.051 0 48.44 15.68 58.243 38.118 3.4 7.782 5.286 16.376 5.286 25.411 0 35.087-28.443 63.53-63.529 63.53s-63.53-28.443-63.53-63.53c0-9.035 1.886-17.629 5.286-25.411 9.803-22.437 32.193-38.118 58.244-38.118z" fill="#ff5d7d"/><path d="m372.472 261.434c26.051 0 48.44 15.68 58.243 38.118 3.4 7.782 5.286 16.376 5.286 25.411 0 35.087-28.443 63.53-63.529 63.53s-63.53-28.443-63.53-63.53c0-9.035 1.886-17.629 5.286-25.411 9.803-22.437 32.192-38.118 58.244-38.118z" fill="#ff9eb1"/><path d="m256.001 261.434c26.051 0 48.44 15.68 58.243 38.118 3.4 7.782 5.286 16.376 5.286 25.411 0 35.087-28.443 63.53-63.529 63.53s-63.53-28.443-63.53-63.53c0-9.035 1.886-17.629 5.286-25.411 9.803-22.437 32.192-38.118 58.244-38.118z" fill="#ff9eb1"/><path d="m10 368.493h492.001c0 33-27 60-60 60h-372.001c-33-.001-60-27-60-60z" fill="#8690af"/></g><g><path d="m502.002 358.493h-64.1c22.843-43.244-4.802-97.75-52.04-105.837 9.944-40.361-18.285-82.211-58.235-88.96 11.049-45.214-24.996-90.773-71.627-90.181-46.622-.594-82.684 44.968-71.626 90.178-2.284.42-4.545.949-6.777 1.584-5.312 1.512-8.392 7.044-6.88 12.356 1.513 5.312 7.043 8.394 12.356 6.879 40.315-11.829 78.559 27.209 65.849 67.259-20.77 1.993-39.044 12.663-51.145 28.333-12.321-15.958-30.853-26.35-51.163-28.326-.757-2.454-1.338-4.964-1.735-7.504-.854-5.457-5.964-9.183-11.427-8.333-5.456.854-9.188 5.97-8.333 11.426.278 1.775.621 3.538 1.028 5.287-47.253 8.087-74.886 62.599-52.047 105.838h-64.1c-5.522 0-10 4.477-10 10 0 38.598 31.401 70 70 70h372.002c38.599 0 70-31.402 70-70 0-5.522-4.478-9.999-10-9.999zm-76.001-33.529c0 12.331-4.077 23.92-11.791 33.513-.004.005-.009.011-.013.017h-83.454c-.003-.004-.006-.008-.009-.011-2.132-2.655-4.008-5.512-5.597-8.521 5.845-15.777 5.805-34.424.01-50.014 26.511-48.863 100.225-30.707 100.854 25.016zm-58.235-88.96c0 5.388-.798 10.674-2.375 15.774-20.311 1.976-38.845 12.367-51.167 28.326-10.859-14.061-26.689-24.096-44.833-27.449 3.237-13.574 2.274-28.824-2.479-41.669 26.512-48.861 100.224-30.704 100.854 25.018zm-162.922-73.192c-10.897-33.585 15.769-69.866 51.157-69.297 35.383-.571 62.064 35.721 51.154 69.303-20.311 1.976-38.845 12.368-51.167 28.327-12.099-15.669-30.374-26.34-51.144-28.333zm51.157 108.622c44.558-.2 69.843 52.515 41.738 87.042-.004.005-.009.011-.013.017h-83.451c-.004-.005-.009-.011-.013-.017-28.113-34.537-2.802-87.247 41.739-87.042zm-158.209 87.042c-28.111-34.541-2.806-87.244 41.739-87.042 19.858 0 38.108 11.095 47.323 28.512-5.795 15.592-5.834 34.236.01 50.014-1.589 3.01-3.465 5.867-5.597 8.521-.003.004-.006.008-.009.011h-83.453c-.004-.005-.009-.01-.013-.016zm344.21 60.016h-372.002c-24.146 0-44.35-17.206-48.995-40h469.992c-4.645 22.794-24.85 40-48.995 40z"/><path d="m235.531 123.053c-13.268.529-13.258 19.476 0 20h.007c13.269-.53 13.252-19.477-.007-20z"/><path d="m278.649 154.303h.007c5.522 0 9.997-4.477 9.997-10-.528-13.263-19.479-13.263-20.004 0 0 5.523 4.478 10 10 10z"/><path d="m335.656 235.679h.007c5.522 0 9.997-4.477 9.997-10-.528-13.263-19.479-13.263-20.004 0 0 5.523 4.478 10 10 10z"/><path d="m294.406 217.178c-13.268.529-13.258 19.476 0 20h.007c13.269-.53 13.252-19.477-.007-20z"/><path d="m195.788 245.428c5.522 0 9.997-4.477 9.997-10-.528-13.263-19.479-13.263-20.004 0 0 5.523 4.478 10 10 10z"/><path d="m399.022 345.741h.008c5.522 0 9.996-4.477 9.996-10-.528-13.263-19.479-13.263-20.004 0 0 5.523 4.478 10 10 10z"/><path d="m357.405 296.866c-13.268.529-13.258 19.476 0 20h.007c13.269-.53 13.252-19.478-.007-20z"/><path d="m161.655 302.866c-13.268.529-13.258 19.476 0 20h.007c13.269-.53 13.252-19.478-.007-20z"/><path d="m116.28 318.616c-13.268.529-13.258 19.476 0 20h.007c13.269-.53 13.252-19.478-.007-20z"/><path d="m284.655 343.491h.007c5.522 0 9.997-4.477 9.997-10-.528-13.263-19.479-13.263-20.004 0 0 5.523 4.478 10 10 10z"/><path d="m231.03 338.991h.007c5.522 0 9.997-4.477 9.997-10-.528-13.263-19.479-13.263-20.004 0 0 5.523 4.478 10 10 10z"/><path d="m262.155 306.741h.007c5.522 0 9.997-4.477 9.997-10-.528-13.263-19.479-13.263-20.004 0 0 5.523 4.478 10 10 10z"/><path d="m144.245 211.773c13.268-.529 13.258-19.476 0-20h-.008c-13.268.53-13.25 19.478.008 20z"/></g></g></svg>