<svg id="Layer_1" enable-background="new 0 0 512.012 512.012" height="512" viewBox="0 0 512.012 512.012" width="512" xmlns="http://www.w3.org/2000/svg"><g><g clip-rule="evenodd" fill-rule="evenodd"><path d="m331.96 230.008c39.861 50.465-4.695 80.52 35.435 105.787-40.13-25.267 4.425-55.321-35.435-105.787zm-75.955 168.431c88.14-1.896 120.991-35.206 143.565 23.073l62.531-36.102c5.347-2.446 9.062-7.842 9.062-14.106v-230.539c0 6.264-3.715 11.66-9.062 14.106l-39.664 22.9-37.172 21.461-.599.346-52.707 30.43-.13.075-27.14 15.669-.396.228c16.705 34.165-4.362 77.459-48.29 78.752v73.707z" fill="#ff5d7d"/><path d="m223.115 26.624c38.462 25.649 85.132 40.236 128.126 94.424 40.117 50.563 50.49 49.94 71.196 56.723l39.664-22.9c5.347-2.446 9.062-7.842 9.062-14.106-.005-5.341-2.849-10.533-7.813-13.385l-198.757-114.752c-4.747-3.163-11.07-3.57-16.341-.517z" fill="#ff9eb1"/><path d="m351.241 121.048c-42.993-54.188-89.664-68.775-128.126-94.424l-41.587 24.01c12.667 7.274 24.48 12.916 30.131 22.229 26.152 43.105 12.647 70.996-15.73 49.311-25.59-19.555-50.189-27.303-70.544-39.126l-31.728 18.318c59.426 76.878 103.02 90.103 140.516 102.218 25.283 8.169 47.794 15.834 70.516 42.167l27.14-15.669c-32.484-47.73-40.717-86.247 53.436-30.851l37.172-21.461c-20.707-6.782-31.079-6.159-71.196-56.722z" fill="#ffe0e6"/><path d="m385.266 199.232c-94.153-55.396-85.92-16.879-53.436 30.851z" fill="#ff5d7d"/><path d="m195.929 122.175c28.377 21.685 41.882-6.206 15.73-49.311-5.651-9.313-17.464-14.956-30.131-22.229l-56.143 32.414c20.355 11.823 44.954 19.571 70.544 39.126z" fill="#ff5d7d"/><path d="m234.174 203.585c-37.496-12.116-81.09-25.341-140.516-102.218l-44.079 25.449c-5.168 2.515-8.73 7.816-8.73 13.95.005 5.334 2.805 10.52 7.752 13.385l199.652 115.269c2.351 1.359 5.033 2.072 7.753 2.067 2.615-.005 5.265-.672 7.692-2.067l40.993-23.668c-22.723-26.333-45.234-33.998-70.517-42.167z" fill="#ff9eb1"/><path d="m256.005 271.487c-2.72.005-5.402-.708-7.753-2.067l-199.651-115.269c-4.947-2.865-7.748-8.052-7.752-13.385v161.425c116.191 39.876 64.568 94.552 215.157 132.14v-35.891c-48.069-16.146-48.497-45.293-81.482-70.922-20.535-15.956-13.994-55.391 81.482-2.785v-53.246z" fill="#ff9eb1"/><path d="m256.005 434.33c-150.589-37.588-98.966-92.264-215.157-132.14v69.113c.005 5.333 2.805 10.52 7.752 13.385l199.652 115.269c2.351 1.359 5.033 2.071 7.753 2.067z" fill="#ff5d7d"/><path d="m174.523 327.517c32.985 25.629 33.413 54.776 81.482 70.922v-73.707c-95.476-52.606-102.017-13.171-81.482 2.785z" fill="#ffe0e6"/><path d="m256.005 271.487v53.245c43.928-1.293 64.994-44.587 48.29-78.752l-40.598 23.439c-2.426 1.396-5.077 2.063-7.692 2.068z" fill="#ff9eb1"/><path d="m399.57 421.513c-22.574-58.279-55.425-24.969-143.565-23.073v35.891c45.391 1.962 72.793-.742 74.842 26.859z" fill="#ff9eb1"/><path d="m330.847 461.189c-2.049-27.602-29.451-24.897-74.842-26.859v67.695c2.615-.005 5.265-.672 7.692-2.066z" fill="#ff5d7d"/><path d="m256.005 398.439c88.14-1.896 120.991-35.206 143.565 23.073l62.531-36.102c5.347-2.446 9.062-7.842 9.062-14.106v-230.539c0 6.264-3.715 11.66-9.062 14.106l-39.664 22.9-37.172 21.461-.599.346c62.459 74.364 22.98 161.561-17.272 136.217-40.131-25.267 4.425-55.322-35.435-105.787l-.13.075-27.14 15.669-.396.228c16.705 34.165-4.362 77.459-48.29 78.752v73.707z" fill="#ffe0e6"/></g><g><path d="m148.434 221.786c13.268-.529 13.258-19.476 0-20h-.007c-13.267.53-13.25 19.478.007 20z"/><path d="m468.35 118.721-198.512-114.612c-8.091-5.23-18.247-5.487-26.586-.658l-198.405 114.55c-8.518 4.312-13.999 13.204-13.999 22.765v230.548c.008 9.042 4.891 17.482 12.753 22.036l199.648 115.268c7.844 4.533 17.589 4.518 25.448.002l198.045-114.342c8.778-4.24 14.421-13.199 14.421-22.973v-230.55c-.009-9.056-4.926-17.503-12.813-22.034zm-215.086-97.956c1.836-1.117 4.213-.889 5.784.187.178.118.359.231.545.338l198.774 114.763c1.713.984 2.782 2.78 2.795 4.683.011 2.16-1.255 4.145-3.222 5.044-.287.132-.567.276-.84.434l-35.844 20.694c-.438-.136-.872-.27-1.303-.403-15.863-4.903-26.344-8.142-60.88-51.669-39.506-48.987-75.341-63.845-116.529-87.881zm93.211 212.41 35.729-20.628c18.184 24.233 23.574 46.991 24.769 62.429 1.498 19.339-3.086 37.747-11.963 48.041-6.805 7.892-14.304 9.344-22.287 4.315-14.848-9.348-14.296-17.548-13.198-33.885 1.04-15.469 2.416-35.93-13.05-60.272zm-27.005-51.163c2.798-.379 13.712.002 45.645 17.308l-30.115 17.386c-13.163-20.731-15.711-31.273-15.53-34.694zm65.807 5.667c-45.033-25.911-69.241-31.753-80.661-19.579-9.745 10.387-5.617 29.113 13.042 58.618l-11.013 6.358c-64.204-61.761-108.777-18.241-197.948-128.846l16.773-9.684c5.905 3.176 11.998 6.076 18.39 9.12 14.841 7.066 30.187 14.373 45.996 26.454 13.527 10.7 28.359 12.62 37.674 4.306 13.045-11.717 10.17-37.917-7.322-66.748-4.386-7.23-11.065-12.39-18.645-17.063l21.248-12.267c9.191 5.821 18.611 11.059 28.517 16.567 30.507 16.963 62.052 34.503 92.079 72.351 26.951 33.967 41.343 46.094 55.284 52.67zm-91.324 105.483c-6.053 10.381-15.946 17.458-27.947 20.257v-33.997c.917-.391 1.816-.839 2.691-1.342l30.234-17.456c2.492 11.032.821 22.59-4.978 32.538zm43.118 152.888c-3.919-7.766-10.786-13.253-20.534-16.378-11.488-3.682-26.355-4.17-45.178-4.788-1.76-.058-3.544-.116-5.354-.178v-16.61c23.607-1.136 43.071-4.331 59.084-6.96 36.058-5.916 49.998-8.207 61.784 16.16zm-126.724-94.797c-7.566-9.894-16.143-21.106-29.688-31.632-5.042-3.918-6.112-8.654-5.549-9.511 11.301-6.551 41.981 5.222 70.895 20.575v52.908c-17.498-8.598-26.042-19.769-35.658-32.34zm-28.77-289.1c.091.051.182.102.273.153 9.527 5.351 17.757 9.972 21.259 15.745 14.385 23.708 13.747 39.079 11.058 41.494-.315.281-4.218.757-12.165-5.316-17.471-13.351-34.51-21.463-49.542-28.621-2.134-1.016-4.233-2.015-6.293-3.01zm-127.623 73.655c.212-.104.421-.214.625-.332l36.591-21.126c57.794 72.2 102.337 86.598 138.297 98.223 22.49 7.269 40.804 13.19 59.249 30.855l-30.003 17.322c-1.695.975-3.785.979-5.461.01l-60.848-35.13c-4.785-2.762-10.9-1.122-13.66 3.66-2.762 4.783-1.123 10.898 3.66 13.66l60.843 35.128c.896.518 1.817.976 2.758 1.375v28.713c-20.64-10.332-38.143-16.693-52.172-18.948-21.613-3.474-31.195 3.465-35.429 9.897-7.086 10.766-2.794 26.371 9.983 36.299 11.502 8.938 18.58 18.191 26.073 27.988 11.691 15.287 23.753 31.057 51.544 42.032v15.931c-126.391-33.71-84.612-83.886-195.157-126.232v-128.138l53.606 30.95c4.698 2.737 10.883 1.167 13.66-3.66 2.762-4.783 1.123-10.898-3.66-13.66l-60.842-35.127c-1.702-.986-2.761-2.802-2.765-4.738.004-2.538 1.608-4.222 3.108-4.952zm-.341 240.228c-1.703-.987-2.763-2.803-2.765-4.731v-54.756c97.073 40.807 57.613 89.369 195.157 125.534v45.031zm212.392 111.044v-42.362c1.586.054 3.15.106 4.697.156 33.184 1.089 45.298 2.541 48.931 11.243zm191.936-110.764c-.287.132-.567.276-.84.434l-52.899 30.542c-18.494-36.372-45.695-31.907-82.352-25.89-15.257 2.504-33.757 5.54-55.845 6.668v-54.26c38.992-5.371 63.411-46.923 50.811-83.511l12.329-7.118c12.433 19.052 11.415 34.209 10.425 48.926-1.148 17.083-2.45 36.444 22.497 52.151 16.479 10.362 34.861 7.15 48.09-8.179 12.415-14.398 18.68-37.817 16.757-62.646-1.374-17.744-7.379-43.623-27.277-70.95l61.527-35.522v204.344c-.001 2.148-1.265 4.116-3.223 5.011z"/></g></g></svg>