<svg id="Layer_1" enable-background="new 0 0 512.025 512.025" height="512" viewBox="0 0 512.025 512.025" width="512" xmlns="http://www.w3.org/2000/svg"><g><g clip-rule="evenodd" fill-rule="evenodd"><g><path d="m216.657 319.083c-15.414-15.414-8.303-24.667-23.717-40.081s-24.667-8.303-40.08-23.717c-15.414-15.414-8.303-24.667-23.717-40.08-15.414-15.414-24.667-8.303-40.081-23.717s-8.303-24.667-23.716-40.08l21.214-21.214c7.779-7.779 20.505-7.779 28.284-.001 13.895 13.895 6.679 23.043 20.574 36.938s23.043 6.679 36.938 20.574 6.679 23.043 20.574 36.938 23.043 6.679 36.938 20.574 6.679 23.043 20.574 36.938 23.043 6.679 36.938 20.574 6.679 23.043 20.574 36.938 23.043 6.679 36.938 20.574 6.679 23.043 20.574 36.938c7.779 7.779 7.778 20.505-.001 28.284l-21.214 21.214c-15.414-15.414-8.303-24.667-23.717-40.08-15.414-15.414-24.667-8.303-40.081-23.717s-8.303-24.667-23.717-40.081c-15.412-15.414-24.665-8.303-40.079-23.716z" fill="#ff5d7d"/><path d="m192.94 279.002c15.414 15.414 8.303 24.667 23.717 40.081s24.667 8.303 40.08 23.717c15.414 15.414 8.303 24.667 23.717 40.081s24.667 8.303 40.081 23.717 8.303 24.667 23.716 40.08l-28.285 28.285c-15.414-15.414-8.303-24.667-23.717-40.081s-24.667-8.303-40.081-23.717-8.303-24.667-23.717-40.08c-15.414-15.414-24.667-8.303-40.081-23.717s-8.303-24.667-23.717-40.081-24.667-8.303-40.08-23.717c-15.414-15.414-8.303-24.667-23.717-40.08-15.414-15.414-24.667-8.303-40.081-23.717s-8.303-24.667-23.716-40.08l28.285-28.285c15.413 15.413 8.303 24.667 23.716 40.08 15.414 15.414 24.667 8.303 40.081 23.717s8.303 24.667 23.717 40.08c15.415 15.414 24.668 8.303 40.082 23.717z" fill="#ff9eb1"/><path d="m188.371 347.368c15.414 15.414 24.667 8.303 40.081 23.717s8.303 24.667 23.717 40.08c15.414 15.414 24.667 8.303 40.081 23.717s8.303 24.667 23.716 40.08l-21.214 21.215c-7.779 7.779-20.505 7.779-28.284 0-13.895-13.895-6.679-23.043-20.574-36.938s-23.043-6.679-36.938-20.574-6.679-23.043-20.574-36.938-23.043-6.679-36.938-20.574-6.679-23.043-20.574-36.938-23.042-6.679-36.938-20.574c-13.895-13.895-6.679-23.043-20.574-36.938s-23.043-6.679-36.938-20.574c-13.895-13.896-6.679-23.043-20.574-36.938-7.778-7.779-7.778-20.506 0-28.284l21.215-21.214c15.413 15.414 8.303 24.667 23.716 40.08 15.414 15.414 24.667 8.303 40.081 23.717s8.303 24.667 23.717 40.08c15.414 15.414 24.667 8.303 40.08 23.717 15.414 15.414 8.303 24.667 23.716 40.081z" fill="#ff5d7d"/></g><g><path d="m295.368 204.732c15.414-15.414 8.303-24.667 23.717-40.081s24.667-8.303 40.08-23.717c15.414-15.414 8.303-24.667 23.717-40.08 15.414-15.414 24.667-8.303 40.081-23.717s8.303-24.667 23.716-40.08l-21.214-21.214c-7.779-7.779-20.505-7.779-28.284-.001-13.895 13.895-6.679 23.043-20.574 36.938s-23.043 6.679-36.938 20.574-6.679 23.043-20.574 36.938c-13.895 13.896-23.043 6.679-36.938 20.574-13.896 13.895-6.679 23.043-20.574 36.938s-23.042 6.679-36.938 20.574c-13.895 13.895-6.679 23.043-20.574 36.938s-23.043 6.679-36.938 20.574-6.679 23.043-20.574 36.938c-7.779 7.779-7.778 20.506.001 28.284l21.214 21.215c15.414-15.414 8.303-24.667 23.717-40.081s24.667-8.303 40.081-23.717 8.303-24.667 23.717-40.08c15.413-15.414 24.666-8.303 40.079-23.717z" fill="#ff5d7d"/><path d="m319.085 164.652c-15.414 15.414-8.303 24.667-23.717 40.081s-24.667 8.303-40.08 23.717c-15.414 15.414-8.303 24.667-23.717 40.08-15.414 15.414-24.667 8.303-40.081 23.717s-8.303 24.667-23.716 40.08l28.285 28.285c15.414-15.414 8.303-24.667 23.717-40.08 15.414-15.414 24.667-8.303 40.081-23.717s8.303-24.667 23.717-40.081 24.667-8.303 40.081-23.717 8.303-24.667 23.717-40.081 24.667-8.303 40.081-23.717 8.303-24.667 23.717-40.081 24.666-8.303 40.08-23.717 8.303-24.666 23.716-40.08l-28.285-28.285c-15.413 15.413-8.303 24.667-23.716 40.08-15.414 15.414-24.667 8.303-40.081 23.717s-8.303 24.666-23.717 40.08c-15.415 15.416-24.668 8.305-40.082 23.719z" fill="#ff9eb1"/><path d="m323.654 233.018c-15.414 15.414-24.667 8.303-40.081 23.717s-8.303 24.667-23.717 40.081-24.667 8.303-40.081 23.717-8.303 24.667-23.716 40.08l21.214 21.214c7.779 7.779 20.505 7.779 28.284 0 13.895-13.895 6.679-23.042 20.574-36.938 13.895-13.895 23.043-6.679 36.938-20.574s6.679-23.043 20.574-36.938c13.896-13.895 23.043-6.679 36.938-20.574s6.679-23.043 20.574-36.938 23.043-6.679 36.938-20.574 6.679-23.042 20.574-36.938c13.895-13.895 23.043-6.679 36.938-20.574 13.895-13.896 6.679-23.043 20.574-36.938 7.778-7.779 7.778-20.506 0-28.284l-21.215-21.214c-15.413 15.414-8.303 24.667-23.716 40.08-15.414 15.414-24.667 8.303-40.08 23.717-15.414 15.414-8.303 24.667-23.717 40.081s-24.667 8.303-40.081 23.717c-15.414 15.413-8.303 24.666-23.716 40.08z" fill="#ff5d7d"/></g></g><g><path d="m503.251 79.486-70.715-70.714c-11.696-11.696-30.729-11.695-42.426-.001-8.765 8.766-11.014 16.523-12.82 22.757-1.523 5.255-2.624 9.052-7.753 14.182-5.13 5.13-8.927 6.23-14.182 7.753-6.233 1.808-13.991 4.056-22.756 12.821-8.766 8.766-11.014 16.522-12.821 22.756-1.523 5.255-2.624 9.052-7.753 14.182-5.13 5.13-8.927 6.23-14.182 7.754-17.153 3.903-31.685 18.47-35.577 35.576-1.523 5.255-2.624 9.052-7.754 14.182-5.129 5.13-8.926 6.23-14.181 7.754-6.233 1.807-13.991 4.055-22.756 12.82-8.766 8.766-11.015 16.523-12.821 22.757-1.326 4.574-2.332 8.045-5.954 12.25-4.114-4.516-5.156-8.108-6.552-12.924-1.807-6.233-4.055-13.991-12.821-22.757-8.765-8.765-16.523-11.014-22.756-12.82-5.255-1.522-9.052-2.623-14.182-7.753s-6.23-8.927-7.753-14.182c-1.807-6.233-4.055-13.991-12.821-22.757-5.65-5.65-13.184-8.763-21.213-8.762-8.029 0-15.562 3.112-21.212 8.763l-70.715 70.713c-11.697 11.697-11.697 30.729 0 42.426 5.13 5.13 6.23 8.927 7.753 14.182 3.903 17.153 18.469 31.685 35.577 35.577 5.255 1.522 9.052 2.623 14.182 7.753s6.23 8.927 7.753 14.182c1.807 6.233 4.055 13.991 12.821 22.757 8.766 8.765 16.522 11.014 22.755 12.82 5.255 1.522 9.052 2.623 14.183 7.754 5.13 5.129 6.23 8.926 7.753 14.181 1.807 6.233 4.055 13.991 12.82 22.757 8.766 8.766 16.523 11.014 22.756 12.82 5.255 1.523 9.052 2.624 14.182 7.754 5.13 5.129 6.23 8.927 7.753 14.182 3.892 17.132 18.471 31.691 35.577 35.576 5.255 1.523 9.052 2.624 14.181 7.754 5.13 5.13 6.23 8.927 7.753 14.182 3.118 13.614 15.235 31.885 34.033 31.528 7.682 0 15.365-2.924 21.213-8.772l70.714-70.714c5.651-5.65 8.763-13.185 8.764-21.213 0-8.028-3.112-15.562-8.763-21.214-5.13-5.129-6.23-8.926-7.753-14.181-1.807-6.233-4.055-13.991-12.82-22.757-8.766-8.766-16.523-11.014-22.756-12.82-5.255-1.523-9.052-2.624-14.182-7.754-1.189-1.189-2.136-2.287-2.901-3.294 7.14-7.912 9.176-14.937 10.838-20.672 1.523-5.255 2.624-9.052 7.753-14.182 5.13-5.13 8.927-6.23 14.182-7.753 6.233-1.807 13.991-4.056 22.756-12.82 8.765-8.766 11.014-16.523 12.82-22.757 1.523-5.255 2.624-9.052 7.753-14.182s8.926-6.23 14.182-7.753c6.233-1.808 13.991-4.056 22.756-12.821 8.766-8.766 11.015-16.522 12.821-22.756 1.523-5.256 2.624-9.053 7.753-14.182 5.129-5.13 8.926-6.23 14.181-7.754 6.233-1.807 13.991-4.055 22.757-12.82 8.765-8.766 11.014-16.523 12.82-22.757 1.523-5.255 2.624-9.052 7.753-14.181 11.699-11.697 11.699-30.729.003-42.426zm-279.288 130.145c1.523-5.255 2.624-9.052 7.754-14.182 5.129-5.13 8.926-6.23 14.181-7.754 6.233-1.807 13.991-4.055 22.756-12.82 8.766-8.766 11.014-16.523 12.821-22.756 1.523-5.255 2.624-9.052 7.753-14.182s8.927-6.23 14.182-7.754c17.153-3.904 31.685-18.47 35.577-35.577 1.523-5.255 2.624-9.052 7.754-14.181 5.13-5.131 8.927-6.231 14.182-7.754 6.233-1.807 13.99-4.056 22.756-12.82 8.765-8.766 11.014-16.523 12.82-22.757 1.523-5.255 2.624-9.052 7.753-14.182 3.899-3.899 10.244-3.898 14.143.001l14.685 14.687c-4.481 6.26-6.344 11.796-7.927 16.498-1.898 5.639-3.397 10.093-9.434 16.13s-10.491 7.536-16.129 9.435c-6.477 2.18-14.538 4.893-23.891 14.246-9.354 9.354-12.067 17.415-14.247 23.892-1.898 5.639-3.397 10.092-9.434 16.129-6.038 6.038-10.492 7.537-16.132 9.436l-.047.016c-5.234 1.762-8.025 7.425-6.264 12.659 1.751 5.284 7.596 8.036 12.691 6.28 6.478-2.181 14.54-4.894 23.894-14.248s12.067-17.414 14.247-23.892c1.898-5.639 3.397-10.092 9.434-16.129s10.491-7.536 16.129-9.435c6.477-2.18 14.538-4.893 23.892-14.247s12.066-17.414 14.247-23.891c1.01-3.001 1.908-5.667 3.437-8.415l13.821 13.821c-4.481 6.26-6.344 11.797-7.927 16.499-1.898 5.639-3.397 10.092-9.434 16.129s-10.491 7.536-16.129 9.435c-6.477 2.18-14.538 4.893-23.891 14.246-9.354 9.354-12.067 17.415-14.247 23.892-1.898 5.639-3.397 10.092-9.434 16.129s-10.491 7.537-16.13 9.435c-17.682 4.843-33.311 20.503-38.138 38.139-1.898 5.639-3.397 10.092-9.434 16.129s-10.491 7.536-16.129 9.435c-6.477 2.18-14.538 4.893-23.891 14.246-9.354 9.354-12.067 17.415-14.247 23.892-1.898 5.639-3.397 10.093-9.434 16.13s-10.491 7.536-16.129 9.435c-6.477 2.18-14.538 4.893-23.891 14.246-9.354 9.354-12.067 17.415-14.247 23.892-1.01 3.002-1.908 5.667-3.437 8.415l-13.821-13.821c4.481-6.26 6.345-11.797 7.927-16.499 1.898-5.639 3.397-10.092 9.434-16.129s10.491-7.537 16.13-9.435c17.683-4.843 33.31-20.503 38.138-38.139 1.898-5.639 3.397-10.092 9.434-16.129 6.036-6.036 10.489-7.535 16.174-9.449 5.234-1.763 8.025-7.426 6.263-12.66-1.763-5.235-7.46-8.044-12.692-6.278-17.68 4.842-33.309 20.504-38.134 38.137-1.898 5.639-3.397 10.092-9.434 16.129s-10.491 7.537-16.13 9.435c-6.477 2.181-14.537 4.894-23.891 14.247-9.354 9.354-12.067 17.415-14.247 23.892-1.01 3.002-1.908 5.667-3.437 8.415l-13.278-13.278c-3.899-3.899-3.899-10.244-.001-14.143 8.766-8.766 11.015-16.523 12.821-22.757 1.523-5.255 2.624-9.053 7.753-14.182 5.13-5.13 8.927-6.23 14.182-7.753 6.233-1.807 13.99-4.056 22.756-12.82 8.763-8.769 11.011-16.527 12.818-22.761zm-84.475 66.126c-1.383 1.383-2.603 2.869-3.659 4.434-1.272-.972-2.637-2.157-4.107-3.626-6.037-6.037-7.536-10.49-9.434-16.129-2.18-6.477-4.893-14.538-14.247-23.892s-17.414-12.066-23.891-14.247c-5.639-1.897-10.092-3.397-16.13-9.435-6.037-6.037-7.536-10.49-9.434-16.129-1.583-4.702-3.446-10.239-7.927-16.499l13.821-13.821c1.529 2.747 2.426 5.413 3.436 8.414 2.18 6.477 4.894 14.538 14.248 23.892 9.353 9.354 17.414 12.066 23.89 14.246 5.639 1.898 10.092 3.397 16.13 9.436 6.037 6.037 7.536 10.49 9.434 16.129 2.18 6.478 4.893 14.538 14.248 23.893.29.29.582.576.875.859-1.317 4.411-2.694 7.917-7.253 12.475zm-45.857-138.493c3.684-3.848 10.457-3.848 14.142 0 5.13 5.13 6.23 8.927 7.753 14.182 1.807 6.233 4.055 13.991 12.821 22.757 8.765 8.765 16.523 11.014 22.756 12.82 5.255 1.522 9.052 2.623 14.182 7.753s6.23 8.927 7.753 14.182c1.437 4.957 3.153 10.877 8.203 17.502-5.945 1.762-13.138 4.32-21.179 12.36-1.596 1.597-2.977 3.16-4.177 4.686-2.788-3.858-3.946-7.3-5.311-11.354-2.18-6.477-4.893-14.538-14.247-23.892s-17.415-12.067-23.892-14.247c-5.638-1.898-10.092-3.397-16.129-9.435s-7.536-10.49-9.434-16.129c-1.583-4.702-3.446-10.239-7.927-16.499zm194.05 351.841c-3.9 3.9-10.243 3.899-14.142.001-5.13-5.13-6.23-8.927-7.753-14.182-1.807-6.233-4.055-13.991-12.82-22.757-8.766-8.766-16.523-11.014-22.756-12.82-5.255-1.523-9.052-2.624-14.182-7.754-5.129-5.129-6.23-8.926-7.753-14.181-3.892-17.132-18.47-31.692-35.577-35.577-5.255-1.523-9.052-2.624-14.182-7.754-5.129-5.13-6.23-8.927-7.753-14.182-1.807-6.233-4.055-13.99-12.82-22.756-8.766-8.766-16.523-11.014-22.756-12.821-5.255-1.522-9.052-2.623-14.182-7.753s-6.23-8.927-7.753-14.182c-1.807-6.233-4.055-13.991-12.821-22.757-8.766-8.765-16.523-11.014-22.756-12.82-5.255-1.522-9.052-2.623-14.182-7.753-5.129-5.13-6.23-8.927-7.753-14.182-1.807-6.233-4.055-13.991-12.821-22.757-3.898-3.898-3.898-10.243 0-14.142l13.279-13.279c1.529 2.747 2.426 5.413 3.437 8.414 4.842 17.683 20.502 33.31 38.138 38.139 5.639 1.897 10.092 3.397 16.13 9.435 6.037 6.037 7.536 10.49 9.434 16.129 3.177 11.815 13.24 26.543 27.615 33.893.796 6.393 3.643 12.577 8.54 17.475l70.714 70.714c5.984 5.976 13.847 8.897 21.725 8.767 2.107 5.814 5.296 12.685 13.057 20.446 9.354 9.354 17.414 12.066 23.891 14.246 5.638 1.898 10.092 3.397 16.13 9.436 6.037 6.037 7.536 10.49 9.434 16.129 1.583 4.702 3.446 10.238 7.927 16.498zm-25.219-114.28c2.15 4.521 5.348 9.541 10.808 15.001 9.354 9.354 17.414 12.066 23.891 14.246 5.639 1.898 10.092 3.397 16.129 9.434 6.037 6.038 7.537 10.492 9.435 16.131 1.583 4.702 3.446 10.238 7.927 16.498l-13.821 13.821c-1.529-2.747-2.426-5.413-3.437-8.415-2.18-6.477-4.894-14.537-14.247-23.89-9.354-9.354-17.415-12.068-23.892-14.248-5.639-1.898-10.092-3.397-16.129-9.434-4.987-4.987-6.877-8.894-8.454-13.28.672-.563 1.324-1.16 1.956-1.791 5.061-5.06 7.949-9.784 9.834-14.073zm61.177-15.267c5.255 1.523 9.052 2.624 14.182 7.754 5.129 5.13 6.23 8.927 7.753 14.182 1.807 6.233 4.055 13.99 12.82 22.755 3.848 3.685 3.849 10.459 0 14.143l-13.279 13.279c-1.529-2.747-2.426-5.413-3.437-8.415-2.18-6.477-4.894-14.537-14.247-23.892-9.354-9.354-17.414-12.066-23.891-14.246-5.639-1.898-10.092-3.397-16.129-9.435-6.039-6.038-7.539-10.492-9.438-16.132-.919-2.732-1.914-5.686-3.425-8.874 4.474-4.048 8.05-5.085 12.836-6.471 2.633-.763 5.537-1.605 8.674-2.984 1.409 1.874 3.006 3.698 4.823 5.515 8.767 8.766 16.525 11.014 22.758 12.821zm165.469-251.788c-8.766 8.766-11.014 16.522-12.821 22.756-1.523 5.255-2.624 9.053-7.753 14.182-5.13 5.13-8.927 6.23-14.182 7.754-6.233 1.807-13.991 4.055-22.756 12.82-8.765 8.766-11.013 16.523-12.82 22.756-1.523 5.255-2.624 9.052-7.754 14.182-5.129 5.131-8.927 6.231-14.182 7.754-17.153 3.904-31.684 18.471-35.576 35.577-1.523 5.255-2.624 9.053-7.753 14.182-5.13 5.13-8.927 6.23-14.182 7.753-6.233 1.807-13.991 4.056-22.757 12.82-8.765 8.766-11.014 16.523-12.82 22.757-1.523 5.255-2.624 9.052-7.753 14.182-5.13 5.13-8.927 6.23-14.182 7.753-6.233 1.808-13.991 4.056-22.756 12.821-8.766 8.766-11.014 16.522-12.821 22.756-1.523 5.255-2.624 9.052-7.753 14.182-3.899 3.899-10.244 3.899-14.143 0l-14.686-14.686c4.481-6.26 6.345-11.797 7.927-16.499 1.898-5.639 3.397-10.092 9.434-16.129s10.491-7.536 16.129-9.435c6.477-2.18 14.538-4.893 23.892-14.247s12.066-17.414 14.247-23.892c1.898-5.639 3.397-10.092 9.434-16.129s10.491-7.536 16.129-9.435c6.477-2.18 14.538-4.893 23.891-14.246 9.354-9.354 12.067-17.415 14.247-23.892 1.898-5.639 3.397-10.092 9.434-16.129s10.491-7.536 16.13-9.435c6.477-2.181 14.537-4.894 23.891-14.247 9.354-9.354 12.067-17.414 14.247-23.892 1.898-5.639 3.397-10.092 9.434-16.129 6.038-6.037 10.491-7.536 16.129-9.435 6.477-2.18 14.538-4.893 23.891-14.246 9.354-9.354 12.067-17.415 14.247-23.892 1.01-3.001 1.908-5.667 3.437-8.415l13.279 13.279c3.9 3.901 3.9 10.245.001 14.144z"/><path d="m307.227 194.692c13.268-.528 13.258-19.476 0-20h-.007c-13.269.53-13.251 19.478.007 20z"/></g></g></svg>