<svg id="Layer_1" enable-background="new 0 0 512.002 512.002" height="512" viewBox="0 0 512.002 512.002" width="512" xmlns="http://www.w3.org/2000/svg"><g><g clip-rule="evenodd" fill-rule="evenodd"><path d="m116.08 50h279.997 40.001 46c11 0 20-9 20-20s-9-20-20-20h-472v40h66z" fill="#ddb9a3"/><path d="m396.077 102.002h-279.997-40.002c-11 0-20 9-20 20v269.997c0 15.688 10.147 25.118 20 30l141.127 69.936c14.607 7.239 22.581 10.066 38.873 10.066s24.266-2.828 38.873-10.066l141.127-69.936c9.853-4.883 20-14.313 20-30v-269.997c0-11-9-20-20-20zm-299.999 40h320v245.266l-138.888 68.827c-8.778 4.35-11.505 5.907-21.112 5.907s-12.334-1.557-21.112-5.907l-138.888-68.827z" fill="#ddb9a3"/><path d="m416.078 142.002h-320v245.266l138.888 68.827c8.778 4.35 11.506 5.907 21.112 5.907 9.607 0 12.334-1.557 21.112-5.907l138.888-68.827zm-249.715 129.624c21.714-46.403 73.031-77.326 117.334-87.269 57.288-15.35 89.132 32.521 62.125 62.258-9.682 10.662-14.641 20.789-18.137 34.132-6.965 26.587-1.059 45.06-6.639 62.71-14.543 46.006-66.778 61.915-106.765 51.468-49.124-12.833-72.293-71.21-47.918-123.299z" fill="#c68a65"/><path d="m283.697 184.357c-44.302 9.943-95.62 40.866-117.334 87.269-24.375 52.089-1.206 110.466 47.918 123.299 39.987 10.446 92.222-5.463 106.765-51.468 5.579-17.65-.326-36.122 6.639-62.71 3.496-13.344 8.454-23.47 18.137-34.132 27.006-29.738-4.838-77.608-62.125-62.258zm-43.278 105.643c13.375 0 24.217 10.842 24.217 24.217s-10.842 24.217-24.217 24.217-24.217-10.842-24.217-24.217 10.843-24.217 24.217-24.217z" fill="#ff9eb1"/><circle cx="240.419" cy="314.217" fill="#fff3db" r="24.217"/><g fill="#c68a65"><path d="m96.079 50h40.001v52.002h-40.001z"/><path d="m376.076 50h40.001v52.002h-40.001z"/></g></g><g><path d="m482.078 0h-472c-5.523 0-10 4.478-10 10v40c0 5.522 4.477 10 10 10h76v32.003h-10c-16.542 0-30 13.457-30 29.999v269.997c0 16.711 9.316 30.912 25.559 38.96l141.127 69.937c15.804 7.832 25.315 11.106 43.313 11.106 17.999 0 27.51-3.274 43.314-11.106l141.126-69.936c16.244-8.049 25.56-22.25 25.56-38.961v-269.997c0-16.542-13.458-29.999-30-29.999h-10v-32.003h56c39.81-1.653 39.779-58.362.001-60zm-375.999 60h20.001v32.003h-20.001zm40.001 32.003v-32.003h219.996v32.003zm299.998 29.999v269.997c0 11.476-7.853 17.775-14.44 21.04l-141.126 69.937c-14.111 6.993-20.342 9.026-34.433 9.026-14.09 0-20.322-2.033-34.433-9.026l-141.128-69.937c-6.587-3.265-14.439-9.563-14.439-21.04v-269.997c0-5.514 4.486-9.999 10-9.999h360c5.513 0 9.999 4.485 9.999 9.999zm-40-29.999h-20.001v-32.003h20.001zm76-52.003h-462v-20h462c13.27.551 13.26 19.454 0 20z"/><path d="m91.638 396.229 138.888 68.827 1.038.516c8.353 4.146 12.954 6.431 24.514 6.431 11.561 0 16.162-2.284 24.515-6.432l139.926-69.342c3.405-1.688 5.56-5.159 5.56-8.96v-245.266c0-5.522-4.477-10-10-10h-115.004c-13.268.528-13.258 19.476 0 20h105.003v229.061l-133.328 66.072-1.051.521c-7.586 3.766-8.751 4.345-15.621 4.345-6.869 0-8.035-.579-15.621-4.345l-134.379-66.594v-229.06h104.996c13.268-.528 13.258-19.476 0-20h-114.995c-5.523 0-10 4.478-10 10v245.266c0 3.8 2.154 7.272 5.559 8.96z"/><path d="m157.306 267.388c-26.11 52.055-3.256 122.877 54.448 137.213 8.724 2.278 17.844 3.404 26.994 3.404 14.551-.001 29.173-2.85 42.36-8.437 24.34-10.314 41.911-29.172 49.474-53.097 3.091-9.78 3.169-19.263 3.25-29.301-.531-20.607 3.468-47.86 19.393-63.832 14.123-15.551 16.272-37.039 5.476-54.742-10.788-17.69-37.517-34.558-77.391-23.953-24.315 5.487-49.34 16.665-70.489 31.486-24.19 16.953-42.695 38.136-53.515 61.259zm128.58-73.275c.133-.029.266-.062.398-.098 29.31-7.853 48.129 3.17 55.34 14.994 6.249 10.246 5.05 21.791-3.206 30.882-10.213 11.246-16.316 22.707-20.407 38.321-3.986 15.218-4.089 27.743-4.179 38.794 4.046 53.327-52.592 80.237-97.024 68.242-18.906-4.938-34.099-17.846-42.78-36.344-33.545-73.814 49.179-142.506 111.858-154.791z"/><path d="m240.42 348.434c18.867 0 34.217-15.35 34.217-34.218-1.88-45.394-66.562-45.38-68.434 0 0 18.868 15.349 34.218 34.217 34.218zm0-48.435c7.839 0 14.217 6.378 14.217 14.217-.781 18.862-27.656 18.856-28.434 0 0-7.839 6.378-14.217 14.217-14.217z"/><path d="m256.078 152.003c13.268-.528 13.258-19.476 0-20h-.007c-13.268.53-13.25 19.478.007 20z"/></g></g></svg>