<svg id="Layer_1" enable-background="new 0 0 511.915 511.915" height="512" viewBox="0 0 511.915 511.915" width="512" xmlns="http://www.w3.org/2000/svg"><g><g clip-rule="evenodd" fill-rule="evenodd"><path d="m177.134 306.491 28.284 28.284 290.653-290.652c7.779-7.779 7.778-20.506 0-28.284-7.779-7.779-20.506-7.779-28.284 0z" fill="#e8eaf0"/><path d="m205.418 334.775-28.284-28.284-21.213-21.213c-7.779-7.778-20.506-7.778-28.284 0s-7.778 20.506 0 28.284l7.071 7.071 56.568 56.569 7.071 7.071c7.778 7.778 20.506 7.778 28.284 0s7.778-20.506 0-28.284z" fill="#8690af"/><path d="m128.849 323.061h40.001v80h-40.001z" fill="#b5b3ee" transform="matrix(.707 -.707 .707 .707 -213.126 211.591)"/><path d="m162.991 405.487-56.568-56.568-84.852 84.852c-15.556 15.557-15.556 41.012 0 56.569 15.556 15.556 41.012 15.556 56.569 0z" fill="#8481e2"/></g><g><path d="m503.142 8.767c-5.651-5.65-13.185-8.763-21.214-8.763-8.028.001-15.562 3.113-21.213 8.764l-113.035 113.035c-3.905 3.905-3.905 10.237 0 14.143 3.906 3.904 10.236 3.904 14.143 0l113.035-113.036c3.683-3.848 10.458-3.848 14.142-.001 3.899 3.9 3.899 10.245 0 14.144l-283.581 283.58-14.142-14.142 106.906-106.906c3.905-3.905 3.905-10.237 0-14.143-3.906-3.904-10.236-3.904-14.143 0l-106.905 106.907-14.143-14.143c-11.129-11.606-31.299-11.606-42.427.001-11.606 11.13-11.606 31.296 0 42.426l-106.065 106.067c-19.334 18.533-19.333 52.177 0 70.711 18.533 19.334 52.177 19.333 70.711 0l106.066-106.066c11.697 11.696 30.729 11.696 42.426 0 11.697-11.697 11.697-30.729 0-42.427l-14.142-14.142 283.581-283.581c11.697-11.697 11.697-30.73 0-42.428zm-326.008 368.435-14.143 14.143-42.426-42.426 14.143-14.143zm-106.066 106.066c-11.089 11.575-31.338 11.574-42.426 0-11.575-11.089-11.574-31.338 0-42.426l77.78-77.78 42.426 42.426zm148.492-106.066c-3.899 3.9-10.244 3.898-14.142 0l-70.711-70.711c-3.898-3.898-3.898-10.242 0-14.142 3.684-3.848 10.458-3.848 14.142 0l70.711 70.711c3.9 3.898 3.9 10.243 0 14.142z"/><path d="m316.528 168.379c4.219 3.521 10.533 2.978 14.084-1.281l.005-.006c3.535-4.242 2.959-10.545-1.283-14.081-4.244-3.534-10.551-2.958-14.087 1.284-3.535 4.242-2.962 10.548 1.281 14.084z"/></g></g></svg>