<svg id="Layer_1" enable-background="new 0 0 512.094 512.094" height="512" viewBox="0 0 512.094 512.094" width="512" xmlns="http://www.w3.org/2000/svg"><g><g clip-rule="evenodd" fill-rule="evenodd"><path d="m444.889 286.487c-135.015 36.634-198.954-208.456-122.044-261.76-49.689 28.725-98.897 123.286-121.063 177.788-23.462 57.687-76.398 23.633-75.926 100.879.399 65.449-135.507 20.448-113.333 157.288l20.915 1.35c-.717 11.136 1.466 24.409 8.505 40.036 0 0 61.938 5.189 99.916-63.837 4.986 8.2 12.644 18.893 27.846 21.974 0 0 33.479-21.083 41.071-73.649 9.782-67.735 169.619-79.99 234.113-100.069z" fill="#ffe0e6"/><path d="m322.845 24.727c-76.91 53.304-12.971 298.394 122.043 261.76 48.919-15.921 78.053-80.387 39.18-172.786-27.156-64.549-82.474-134.498-161.223-88.974zm91.416 152.911c-12.304 5.189-29.567-7.93-38.559-29.304-8.992-21.373-6.307-42.906 5.996-48.095 12.303-5.19 29.566 7.93 38.558 29.303s6.308 42.906-5.995 48.096z" fill="#ff9eb1"/><path d="m375.702 148.334c8.992 21.373 26.255 34.493 38.559 29.304 12.303-5.19 14.988-26.722 5.996-48.096-8.992-21.373-26.255-34.493-38.558-29.303-12.304 5.189-14.989 26.723-5.997 48.095z" fill="#fff3db"/></g><g><path d="m493.286 109.823c-25.215-63.411-89.333-144.779-175.389-93.786-.046.026-.093.053-.138.08-49.51 25.023-109.806 140.687-125.239 182.632-8.786 21.597-21.876 27.979-35.734 34.735-19.328 9.422-41.235 20.102-40.931 69.971.113 18.54-13.655 24.741-40.05 34.973-37.017 14.348-87.715 33.997-73.154 123.854.746 4.604 4.574 8.079 9.228 8.38l11.628.75c.702 10.208 3.473 21.785 9.318 34.763 1.492 3.312 4.663 5.556 8.283 5.858 10.511.288 23.312-.147 44.256-8.25 16.892-6.883 38.827-20.581 57.311-47.779 5.812 6.112 13.802 11.723 25.043 14.001 2.518.512 5.139.031 7.315-1.339 1.527-.961 37.481-24.192 45.64-80.681 10.43-59.709 162.398-71.831 227.079-91.918.017-.005.035-.011.052-.016.019-.006.039-.012.058-.018.007-.002.013-.004.019-.006.072-.022.143-.045.214-.069 73.034-27.593 76.494-111.848 45.191-186.135zm-10.191 128.93c-8.549 18.693-23.125 32.23-41.061 38.145-54.439 14.641-89.843-23.315-106.111-47.265-3.103-4.568-9.322-5.755-13.891-2.653-4.568 3.104-5.756 9.323-2.653 13.892 16.599 24.236 35.354 40.951 58.28 50.985-76.366 15.892-168.549 36.267-176.783 93.271-5.49 38.012-25.275 57.66-33.211 64.152-6.43-2.335-10.751-6.707-14.224-11.581 1.558-3.07 3.072-6.268 4.534-9.602 2.218-5.058-.084-10.956-5.142-13.174-5.059-2.218-10.956.084-13.174 5.143-14.001 31.927-34.501 53.735-60.931 64.818-12.629 5.297-23.726 6.777-30.137 7.152-7.729-20.24-6.999-37.665 2.192-51.869 7.683-11.871 18.758-17.361 18.957-17.458 4.963-2.366 7.088-8.3 4.745-13.282-2.351-4.997-8.307-7.144-13.305-4.794-10.714 4.865-31.789 22.393-36.346 46.823l-3.56-.229c-7.039-56.528 15.519-78.005 61.759-94.151 94.121-31.865 19.642-78.275 82.517-105.613 15.071-7.347 33.828-16.491 45.495-45.179 14.152-34.797 40.887-89.401 71.635-129.503-4.376 23.099-3.847 49.793 1.55 77.364 1.036 5.454 6.449 8.97 11.735 7.893 5.42-1.061 8.954-6.314 7.893-11.734-10.452-53.394-.891-99.295 24.357-117.129 22.95-13.167 45.024-16.335 65.61-9.417 62.166 18.252 121.43 154.838 89.27 214.995z"/><path d="m408.271 96.968c-10.105-7.681-21.206-9.846-30.458-5.943-9.247 3.9-15.45 13.36-17.021 25.956-3.056 21.451 9.42 51.121 26.897 63.928 9.792 7.23 19.991 10.086 30.458 5.943 9.247-3.9 15.45-13.36 17.021-25.956 3.056-21.451-9.421-51.122-26.897-63.928zm2.104 71.456c-2.439 1.028-6.396-.256-10.584-3.438-5.824-4.427-11.244-11.909-14.87-20.529-7.458-17.729-4.539-32.809.665-35.004 2.438-1.028 6.396.256 10.584 3.438 5.824 4.427 11.244 11.909 14.87 20.529 7.458 17.729 4.538 32.809-.665 35.004z"/><path d="m306.721 185.411h-.007c-5.523 0-9.996 4.478-9.996 10 .528 13.263 19.478 13.263 20.003 0 0-5.522-4.477-10-10-10z"/></g></g></svg>