<svg id="Layer_1" enable-background="new 0 0 512.07 512.07" height="512" viewBox="0 0 512.07 512.07" width="512" xmlns="http://www.w3.org/2000/svg"><g><g clip-rule="evenodd" fill-rule="evenodd"><path d="m324.005 54.331c25.57-5.739 54.526-6.108 79.865 1.042 14.044 3.963 33.234 12.4 40.259 26.224 8.101 15.94-3.529 37.716-12.227 50.772-21.034 31.571-45.028 53.796-55.139 92.389-6.207 23.694-8.837 46.533-9.692 70.54-.383 10.763-4.976 15.8-13.864 17.362-19.486 3.426-37.131 4.86-53.146 4.627-12.007-.174-16.988-5.392-20.84-17.548-8.329-26.289-32.926-45.34-61.971-45.34-6.841 0-13.435 1.058-19.627 3.018-12.395 3.923-19.814 4.608-28.73-8.254-14.286-20.609-24.434-43.17-33.205-63.548-6.222-14.455-3.412-24.139 4.639-32.052 50.454-49.582 119.101-84.737 183.678-99.232zm-81.753 265.069c0-13.807-11.193-25-25-25s-25 11.193-25 25 11.193 25 25 25c13.807-.001 25-11.194 25-25zm-132.408-93.639c-9.128-19.675-14.946-17.618-25.674 5.308-28.909 61.78-25.696 140.737 24.027 191.162 6.165 6.252 15.89 5.992 21.641.403 14.631-14.219 25.9-29.111 34.986-43.63 7.928-12.668.209-19.242-5.119-29.356-4.759-9.035-7.453-19.327-7.453-30.248 0-15.227 4.748-17.317-6.808-32.451-14.764-19.337-26.054-40.611-35.6-61.188zm235.661 129.159c10.354-1.563 17.787 8.272 14.624 16.798-28.027 75.553-119.652 104.221-192.913 84.592-6.118-1.639-7.206-6.758-2.614-11.559 19.332-20.211 33.04-41.262 43.708-60.967 2.924.402 5.908.615 8.942.615 21.763 0 41.026-10.697 52.823-27.119 22.03 2.458 47.001 1.932 75.43-2.36zm54.829 22.838c12.711-40.21-.744-82.292 15.124-142.863 7.964-30.398 31.541-53.042 49.733-80.348 70.686-106.098-45.09-162.781-149.946-139.245-100.928 22.653-217.837 93.1-267.305 198.813-55.529 118.667-2.748 251.659 109.166 280.896 91.096 23.798 210.096-12.445 243.228-117.253z" fill="#ff9eb1"/><path d="m403.87 55.373c-25.339-7.15-54.295-6.781-79.865-1.042-64.577 14.495-133.224 49.65-183.676 99.232-8.051 7.913-10.861 17.597-4.639 32.052 8.772 20.378 18.919 42.939 33.205 63.548 8.916 12.862 16.335 12.177 28.73 8.254 6.192-1.96 12.786-3.018 19.627-3.018 29.046 0 53.643 19.051 61.971 45.34 3.852 12.156 8.832 17.374 20.84 17.548 16.015.232 33.66-1.201 53.146-4.627 8.888-1.562 13.48-6.6 13.864-17.362.855-24.007 3.485-46.846 9.692-70.54 10.111-38.594 34.105-60.818 55.139-92.389 8.698-13.056 20.328-34.831 12.227-50.772-7.026-13.824-26.217-22.261-40.261-26.224z" fill="#ff5d7d"/><path d="m152.253 319.4c0-15.227 4.748-17.317-6.808-32.451-14.764-19.337-26.055-40.611-35.601-61.188-9.128-19.675-14.946-17.618-25.674 5.308-28.909 61.78-25.696 140.737 24.027 191.162 6.165 6.252 15.89 5.992 21.641.403 14.631-14.219 25.9-29.111 34.986-43.63 7.928-12.668.209-19.242-5.119-29.356-4.758-9.035-7.452-19.327-7.452-30.248z" fill="#ff5d7d"/><ellipse cx="217.252" cy="319.4" fill="#fff3db" rx="25" ry="25" transform="matrix(.707 -.707 .707 .707 -162.218 247.171)"/><path d="m270.075 357.281c-11.797 16.422-31.06 27.119-52.823 27.119-3.034 0-6.019-.213-8.942-.615-10.668 19.705-24.376 40.756-43.708 60.967-4.592 4.801-3.504 9.92 2.614 11.559 73.261 19.629 164.886-9.039 192.913-84.592 3.163-8.526-4.27-18.361-14.624-16.798-28.429 4.291-53.4 4.817-75.43 2.36z" fill="#ff5d7d"/></g><g><path d="m264.523 83.138c13.268-.529 13.258-19.476 0-20h-.008c-13.268.531-13.249 19.478.008 20z"/><path d="m483.434 50.085c-28.551-41.559-100.205-60.295-170.379-44.54-174.805 36.985-360.693 213.384-277.327 398.554 31.915 70.613 102.301 109.241 177.152 107.939 112.11.673 211.042-78.089 203.801-194.27.189-23.26.404-49.624 8.451-80.339 5.12-19.542 17.758-36.121 31.139-53.673 5.767-7.564 11.729-15.387 17.244-23.664 13.98-20.986 21.77-41.298 23.15-60.373 1.32-18.233-3.132-34.933-13.231-49.634zm-26.564 98.917c-5.162 7.748-10.929 15.313-16.506 22.629-13.984 18.345-28.444 37.314-34.58 60.729-8.678 33.127-8.903 60.815-9.103 85.244 8.884 129.577-126.463 196.947-237.048 167.73-46.809-12.228-84.383-44.097-105.802-89.735-80.26-176.828 112.81-340.537 263.604-370.54 61.516-13.811 125.792 1.82 149.514 36.351 16.034 23.339 12.549 53.628-10.079 87.592z"/><path d="m406.586 45.749c-25.712-7.257-55.816-7.674-84.77-1.176-5.688 1.276-11.533 2.744-17.377 4.361-12.648 4.053-7.577 22.308 5.338 19.275 29.314-8.931 64.089-11.223 91.378-3.213 13.161 3.713 29.02 11.214 34.06 21.13 8.452 15.987-16.414 48.368-29.047 64.782-16.075 21.327-31.258 41.471-39.077 71.315-5.86 22.37-9.042 45.478-10.013 72.719-.246 6.928-2.262 7.282-5.601 7.869-18.203 3.199-35.445 4.717-51.27 4.477-6.151-.089-8.396-.929-11.451-10.569-11.717-39.053-55.507-61.536-94.148-48.836-10.349 3.277-12.184 3.242-17.494-4.417-13.718-19.79-23.448-41.384-32.239-61.806-4.671-10.851-2.521-16.066 2.465-20.965 23.136-22.739 50.483-42.756 81.284-59.494 4.853-2.637 6.648-8.709 4.011-13.562s-8.708-6.648-13.562-4.011c-32.437 17.628-61.288 38.758-85.752 62.802-11.838 11.633-14.131 26.146-6.816 43.138 9.191 21.353 19.4 43.982 34.172 65.292 12.979 18.723 26.862 16.238 39.967 12.091 28.335-9.308 60.457 7.173 69.047 35.809 3.792 11.967 10.348 24.238 30.228 24.526 17.651.226 35.488-1.368 55.022-4.777 9.719-1.708 21.446-7.755 22.126-26.854.916-25.731 3.895-47.454 9.372-68.362 6.817-26.026 20.202-43.783 35.7-64.344 5.957-7.902 12.116-16.074 18.087-25.036 16.464-24.715 20.777-45.186 12.819-60.846-9.401-18.497-33.144-27.562-46.459-31.318z"/><path d="m171.413 349.886c-1.026-1.676-1.995-3.259-2.859-4.899-5.562-10.134-7.314-22.893-5.77-34.141.993-9.653 1.071-16.266-9.391-29.966-12.093-15.839-23.048-34.69-34.478-59.327-4.63-9.979-10.289-19.217-20.269-19.233h-.026c-11.115 0-17.464 11.595-23.508 24.511-31.2 65.023-25.578 151.531 25.965 202.422 9.747 9.892 25.773 10.219 35.731.553 13.774-13.386 25.711-28.269 36.492-45.495 9.704-15.505 3.005-26.441-1.887-34.425zm-15.065 23.814c-9.919 15.849-20.87 29.51-33.478 41.763-1.802 1.75-5.267 2.065-7.553-.253-49.786-50.49-46.969-126.736-22.09-179.902 2.242-4.791 3.952-7.929 5.208-9.975.653 1.172 1.432 2.686 2.337 4.637 12.057 25.99 23.727 46.024 36.724 63.049 6.183 8.096 6.047 9.42 5.393 15.78-2.017 14.695.677 32.193 7.97 45.51 1.166 2.214 2.406 4.239 3.501 6.025 4.392 7.169 5.034 8.497 1.988 13.366z"/><path d="m344.013 345.033c-26.376 3.98-50.878 4.758-72.829 2.31-3.587-.393-7.12 1.167-9.23 4.104-11.743 16.477-32.266 25.297-52.279 22.432-4.122-.573-8.174 1.48-10.157 5.146-12.389 22.883-26.173 42.121-42.14 58.814-9.782 9.831-6.237 24.698 7.251 28.131 15.76 4.223 32.311 6.312 48.908 6.312 24.284 0 48.667-4.473 70.798-13.282 40.918-16.287 71.166-46.049 85.171-83.802 2.706-7.295 1.257-15.677-3.783-21.876-5.245-6.452-13.367-9.549-21.71-8.289zm6.74 23.207c-20.985 56.572-80.768 83.942-137.757 83.94-12.879 0-25.623-1.399-37.735-4.175 14.417-15.665 27.124-33.315 38.646-53.681 23.356 1.028 45.759-8.937 60.655-26.55 22.199 1.938 46.534.944 72.436-2.967 1.682-.252 2.673.475 3.206 1.13.226.279.934 1.267.549 2.303z"/><path d="m252.253 319.399c0-19.299-15.701-34.999-35.001-34.999-46.432 1.922-46.417 68.085 0 70 19.3 0 35.001-15.701 35.001-35.001zm-50 0c0-8.271 6.729-14.999 14.999-14.999 19.902.824 19.894 29.179 0 30-8.271 0-14.999-6.73-14.999-15.001z"/></g></g></svg>