<svg id="Layer_1" enable-background="new 0 0 511.831 511.831" height="512" viewBox="0 0 511.831 511.831" width="512" xmlns="http://www.w3.org/2000/svg"><g><g clip-rule="evenodd" fill="#c68a86" fill-rule="evenodd"><path d="m140.838 240.189c2.173-1.774 4.279-3.636 6.319-5.575-4.958-46.85 5.358-95.488 18.167-123.394-16.007-2.437-36.975 9.097-52.391 37.621-42.111-55.017-87.602-59.035-99.436-18.305-6.415 22.079-3.677 48.137 3.963 52.489 6.451 3.674 15.675-9.705 33.316-37.57 4.954 73.902 42.251 133.778 90.062 94.734z"/><path d="m165.324 111.22c-12.808 27.906-23.125 76.545-18.167 123.394.884 8.351 2.253 16.646 4.18 24.755 5.792 24.377 16.623 47.087 34.459 64.667 5.515 5.436 11.701 10.382 18.614 14.734 21.641 13.625 26.097 35.991 51.506 35.991s29.864-22.365 51.506-35.991c6.913-4.353 13.098-9.298 18.614-14.734 17.836-17.58 28.667-40.291 34.459-64.667 1.927-8.11 3.296-16.404 4.18-24.755 4.958-46.85-5.358-95.488-18.167-123.394-2.95-6.428-6.033-11.756-9.091-15.708-32.5-42-53.75-13-81.5-13s-49-28.999-81.5 13c-3.06 3.952-6.143 9.28-9.093 15.708z"/><path d="m346.507 111.22c12.809 27.906 23.125 76.545 18.167 123.394 2.04 1.939 4.147 3.801 6.319 5.575 47.811 39.044 85.108-20.832 90.061-94.734 17.64 27.865 26.865 41.244 33.316 37.57 7.641-4.352 10.378-30.41 3.963-52.489-11.834-40.73-57.325-36.712-99.436 18.305-15.415-28.524-36.383-40.058-52.39-37.621z"/><path d="m387.395 258.728c-9.228-2.472-18.476-2.265-26.901.641-5.792 24.377-16.623 47.087-34.46 64.666 1.271 18.663 9.164 30.1 4.503 47.496-4.385 16.366 4.185 28.865 17.909 32.542s27.404-2.859 31.789-19.225c6.53-24.368 28.549-26.287 38.523-63.513 8.703-32.476-6.557-55.96-31.363-62.607z"/><path d="m181.295 371.532c-4.661-17.396 3.232-28.834 4.501-47.495-17.836-17.58-28.667-40.291-34.459-64.667-8.425-2.906-17.673-3.114-26.901-.641-24.805 6.647-40.065 30.131-31.363 62.607 9.975 37.225 31.994 39.145 38.523 63.513 4.385 16.366 18.066 22.902 31.789 19.225 13.724-3.677 22.295-16.176 17.91-32.542z"/></g><g><path d="m507.937 127.746c-5.424-18.669-17.344-30.637-33.563-33.699-22.431-4.237-49.595 9.704-74.311 37.638-14.432-20.349-31.951-30.062-47.528-30.742-2.385-4.565-4.813-8.453-7.21-11.551-27.265-35.236-50.565-27.541-69.287-21.359-16.646 5.878-23.609 5.874-40.244 0-18.722-6.184-42.022-13.875-69.287 21.359-2.398 3.099-4.826 6.988-7.212 11.554-15.588.688-33.094 10.391-47.525 30.739-24.716-27.933-51.887-41.87-74.312-37.638-16.22 3.063-28.139 15.031-33.563 33.699-6.018 20.712-6.412 55.41 8.617 63.969 11.772 6.704 21.794-5.295 25.087-9.238 2.032-2.434 4.183-5.288 6.584-8.706 7.739 42.648 26.121 74.806 49.771 85.072 1.654.718 3.443 1.38 5.359 1.938-3.468 2.989-6.533 6.417-9.141 10.247-3.108 4.565-1.927 10.786 2.638 13.895 4.508 3.084 10.767 1.96 13.894-2.639 7.157-11.067 23.283-17.185 36.409-14.74 6.544 23.896 17.454 44.163 32.277 60.07-2.275 16.318-8.677 27.796-3.755 46.506 1.38 5.15.991 9.774-1.125 13.374-1.943 3.306-5.393 5.764-9.713 6.921-4.321 1.156-8.54.754-11.879-1.138-3.634-2.059-6.284-5.868-7.663-11.018-3.57-13.323-10.887-21.113-17.962-28.647l-.242-.257c-3.78-4.024-10.108-4.225-14.135-.444-4.026 3.781-4.225 10.109-.444 14.136l.242.258c6.358 6.771 10.953 11.661 13.223 20.132 2.798 10.444 8.719 18.48 17.122 23.242 5.121 2.901 10.918 4.381 16.919 4.388l3.24 12.093-4.009 6.945c-2.761 4.783-1.122 10.899 3.661 13.66 4.698 2.737 10.883 1.167 13.66-3.66l1.08-1.871 1.87 1.08c4.783 2.762 10.899 1.123 13.66-3.66 2.762-4.783 1.123-10.898-3.66-13.66l-6.944-4.009-3.24-12.094c5.193-3.006 9.473-7.187 12.455-12.26 4.893-8.323 6-18.242 3.202-28.686-2.27-8.474-.738-15.008 1.383-24.053.147-.626.296-1.263.446-1.91 2.049 1.481 4.148 2.899 6.298 4.253 7.013 4.415 12.167 10.187 17.151 15.769 9.107 10.2 19.43 21.76 39.683 21.76s30.575-11.56 39.683-21.76c4.984-5.582 10.139-11.354 17.151-15.769 2.15-1.354 4.249-2.772 6.298-4.252.15.647.299 1.283.446 1.909 2.121 9.045 3.654 15.58 1.383 24.054-2.798 10.443-1.69 20.362 3.203 28.686 2.982 5.073 7.262 9.254 12.455 12.26l-3.24 12.093-6.944 4.009c-4.783 2.762-6.421 8.878-3.66 13.66 2.761 4.783 8.876 6.422 13.661 3.66l1.869-1.079 1.08 1.87c2.778 4.827 8.962 6.397 13.66 3.66 4.783-2.761 6.422-8.877 3.661-13.66l-4.009-6.944 3.24-12.093c6-.006 11.799-1.487 16.919-4.388 8.403-4.762 14.324-12.798 17.123-23.242 2.27-8.472 6.864-13.362 13.222-20.133 8.526-9.078 19.138-20.376 25.301-43.38 6.899-25.748.458-49.028-15.888-63.146 1.911-.558 3.697-1.219 5.347-1.935 23.65-10.267 42.033-42.424 49.771-85.072 2.402 3.418 4.553 6.272 6.584 8.706 3.292 3.943 13.313 15.943 25.086 9.238 15.031-8.56 14.638-43.259 8.621-63.97zm-447.183 17.04c-.289-4.317-3.322-7.958-7.516-9.023-4.192-1.064-8.596.688-10.911 4.344-5.964 9.422-15.146 23.925-20.872 30.557-1.884-7.4-2.705-22.364 1.645-37.337 3.307-11.384 9.386-17.987 18.067-19.626 12.936-2.447 35.197 5.981 59.935 36.297-4.181 8.743-7.864 18.729-10.863 30.023-1.417 5.338 1.76 10.813 7.098 12.231 5.341 1.42 10.815-1.76 12.232-7.099 9.677-36.438 26.402-54.764 40.149-61.333-9.66 28.417-16.3 67.574-12.997 106.765-.735.636-1.473 1.258-2.209 1.859-11.778 9.618-22.745 12.328-32.595 8.052-21.071-9.147-37.999-48.504-41.163-95.71zm241.34 185.523c-9.397 5.916-15.781 13.065-21.413 19.373-9.095 10.185-13.946 15.08-24.765 15.08s-15.67-4.896-24.765-15.08c-5.632-6.308-12.016-13.457-21.413-19.374-26.887-16.928-43.959-44.943-50.742-83.268-4.686-26.48-4.019-57.552 1.878-87.491 5.884-29.87 14.938-49.504 21.449-57.918 17.444-21.946 26.794-21.559 47.198-14.608 20.047 7.211 32.763 7.201 52.787 0 17.215-5.686 28.588-9.441 47.198 14.608 21.659 27.855 32.081 106.298 23.328 145.408-6.781 38.326-23.853 66.341-50.74 83.27zm107.005-11.561c-4.863 18.15-12.844 26.646-20.561 34.864-7.076 7.533-14.392 15.323-17.962 28.648-1.379 5.148-4.029 8.958-7.663 11.017-3.339 1.893-7.557 2.295-11.879 1.138-4.32-1.157-7.769-3.615-9.712-6.921-2.116-3.6-2.505-8.224-1.125-13.374 3.571-13.325 1.13-23.731-1.229-33.795-.952-4.059-1.932-8.238-2.525-12.711 14.823-15.908 25.732-36.175 32.277-60.071 5.134-.9 10.628-.618 16.089.844 21.414 5.739 30.95 25.507 24.29 50.361zm81.277-148.085c-5.726-6.633-14.908-21.136-20.872-30.557-2.314-3.656-6.716-5.411-10.911-4.344-4.193 1.065-7.227 4.707-7.516 9.023-3.164 47.205-20.091 86.562-41.164 95.71-9.85 4.274-20.816 1.566-32.596-8.054-.735-.6-1.473-1.221-2.208-1.857 3.302-39.187-3.336-78.34-12.994-106.756 13.747 6.573 30.47 24.889 40.146 61.324 1.417 5.338 6.891 8.514 12.232 7.099 5.338-1.418 8.516-6.894 7.098-12.231-3-11.295-6.683-21.28-10.863-30.023 24.738-30.312 47.009-38.742 59.934-36.297 21.934 3.034 23.289 44.707 19.714 56.963z"/><path d="m305.825 119.59c-3.905-3.905-10.237-3.904-14.142.001-1.301 1.302-2.929 2.241-4.702 2.717-.89.237-1.805.358-2.722.358-5.523 0-10 4.478-10 10s4.477 10 10 10c2.661 0 5.315-.35 7.895-1.039 5.165-1.384 9.893-4.114 13.673-7.896 3.904-3.904 3.903-10.236-.002-14.141z"/><path d="m334.232 223.172c3.905-3.905 3.905-10.237 0-14.143-3.905-3.904-10.237-3.904-14.143 0-1.301 1.302-2.929 2.241-4.708 2.718-.887.238-1.801.358-2.717.358-5.523 0-10 4.478-10 10s4.477 10 10 10c2.664 0 5.32-.35 7.896-1.04 5.165-1.384 9.892-4.113 13.672-7.893z"/><path d="m282.035 260.48c-2.39 1.38-5.312 1.763-7.967 1.05-5.333-1.428-10.818 1.735-12.249 7.07-1.43 5.334 1.735 10.818 7.07 12.248 7.727 2.099 16.223.977 23.145-3.046 4.783-2.762 6.422-8.877 3.661-13.66-2.761-4.784-8.877-6.421-13.66-3.662z"/><path d="m257.485 194.35c5.335-1.427 8.503-6.909 7.077-12.244-1.428-5.335-6.915-8.506-12.245-7.076-2.675.716-5.583.33-7.97-1.048-4.783-2.763-10.898-1.126-13.661 3.658-2.762 4.782-1.124 10.898 3.658 13.66 6.921 4.027 15.409 5.147 23.141 3.05z"/><path d="m212.871 234.667c-.918 0-1.833-.12-2.717-.357-1.778-.477-3.407-1.417-4.709-2.719-3.907-3.905-10.238-3.904-14.142.003-3.905 3.905-3.903 10.237.002 14.142 3.781 3.779 8.508 6.509 13.67 7.893 2.573.689 5.229 1.039 7.896 1.039 13.265-.528 13.26-19.476 0-20.001z"/><path d="m257.596 309.342c-2.657.712-5.577.33-7.967-1.05-4.783-2.758-10.899-1.122-13.66 3.662-2.761 4.783-1.122 10.898 3.661 13.66 6.922 4.023 15.418 5.145 23.145 3.046 5.334-1.43 8.5-6.914 7.07-12.248-1.431-5.334-6.914-8.5-12.249-7.07z"/><path d="m93.073 311.335h-.007c-5.523 0-9.996 4.478-9.996 10 .528 13.263 19.478 13.263 20.003 0 0-5.522-4.477-10-10-10z"/></g></g></svg>