<svg id="Layer_1" enable-background="new 0 0 512.138 512.138" height="512" viewBox="0 0 512.138 512.138" width="512" xmlns="http://www.w3.org/2000/svg"><g><g clip-rule="evenodd" fill-rule="evenodd"><path d="m456.953 55.126c-32.156-32.156-76.021-47.314-124.676-44.857 31.372 21.163 62.764 46.952 92.672 76.86s55.697 61.301 76.861 92.673c2.458-48.654-12.7-92.52-44.857-124.676z" fill="#ff764e"/><path d="m424.949 87.13c-29.908-29.908-61.301-55.697-92.672-76.86-26.011 1.314-53.391 7.663-81.083 19.141 41.248 21.576 87.495 55.998 131.486 99.989s78.413 90.238 99.989 131.486c11.478-27.691 17.827-55.071 19.141-81.082-21.163-31.373-46.952-62.766-76.861-92.674z" fill="#ffad95"/><path d="m271.573 240.507c-17.175-17.175-12.039-50.158 11.473-73.669 23.511-23.511 56.494-28.648 73.669-11.473s12.038 50.158-11.473 73.669c-23.512 23.511-56.494 28.648-73.669 11.473zm111.108-111.108c-43.991-43.991-90.238-78.413-131.486-99.989-39.487 16.367-79.607 43.164-117.296 80.665 19.453 46.914 58.61 103.299 111.708 156.398 53.098 53.098 109.484 92.255 156.398 111.709 37.501-37.689 64.297-77.809 80.665-117.296-21.576-41.249-55.999-87.497-99.989-131.487z" fill="#ff764e"/><ellipse cx="314.144" cy="197.936" fill="#fff3db" rx="60.205" ry="43.979" transform="matrix(.707 -.707 .707 .707 -47.951 280.106)"/><path d="m245.607 266.472c-53.098-53.098-92.255-109.484-111.708-156.398-.27.268-.539.537-.808.806-18.249 18.249-34.812 37.903-49.455 58.347 24.688 49.403 62.065 101.199 110.041 149.175z" fill="#ffad95"/><path d="m245.607 266.472-51.931 51.931c47.976 47.976 99.772 85.353 149.175 110.041 20.445-14.643 40.099-31.207 58.348-49.455.269-.269.538-.539.806-.808-46.914-19.453-103.3-58.61-156.398-111.709z" fill="#ffad95"/><path d="m193.676 318.403c-47.976-47.976-85.353-99.772-110.041-149.175-20.732 28.945-37.614 59.475-49.981 89.844 21.824 30.521 46.533 60.899 73.923 90.518 21.317-15.554 48.186-23.208 63.152-8.241z" fill="#ff764e"/><path d="m193.676 318.403-22.946 22.947c14.967 14.967 7.313 41.836-8.241 63.153 29.619 27.39 59.997 52.099 90.518 73.923 30.369-12.367 60.899-29.25 89.844-49.981-49.403-24.689-101.199-62.066-149.175-110.042z" fill="#ff764e"/><g fill="#ffad95"><path d="m253.007 478.425c-30.521-21.824-60.899-46.533-90.518-73.923-7.769 10.648-17.509 19.911-27.386 25.613-47.888 27.648-34.373 75.787 23.621 71.645 29.844-2.131 61.972-10.177 94.283-23.335z"/><path d="m10.319 353.356c-4.142 57.993 43.997 71.508 71.645 23.62 5.702-9.876 14.965-19.617 25.613-27.386-27.39-29.619-52.099-59.997-73.923-90.518-13.158 32.312-21.203 64.44-23.335 94.284z"/></g></g><g><path d="m464.024 48.055c-38.847-38.847-94.128-54.953-155.663-45.341-68.369 10.88-131.151 49.975-182.342 101.096-71.676 71.675-119.831 167.023-125.675 248.834-2.695 37.736 14.26 56.674 31.026 61.813 20.904 6.409 44.162-6.342 59.254-32.48 10.754-18.628 35.19-35.847 54.471-38.386 8.054-1.058 14.297.564 18.562 4.83.004.004.008.008.012.011 4.256 4.264 5.877 10.506 4.818 18.55-2.538 19.281-19.758 43.718-38.385 54.473-26.139 15.091-38.889 38.35-32.481 59.254 4.895 18.551 29.147 34.165 61.814 31.025 144.161-10.326 325.47-151.092 349.929-308.017 9.61-61.532-6.492-116.815-45.34-155.662zm26.6 98.986c-34.984-46.148-79.44-90.603-125.588-125.587 66.186 7.64 117.947 59.403 125.588 125.587zm-179.177-124.566c6.361-.993 12.644-1.684 18.834-2.075.622.821 1.382 1.559 2.274 2.177 29.643 20.553 58.35 44.649 85.323 71.624 26.974 26.974 51.072 55.681 71.624 85.322.619.893 1.357 1.653 2.177 2.275-1.208 18.769-4.926 36.902-10.887 55.249-44.296-75.75-130.011-161.465-205.76-205.761 12.197-3.974 24.368-6.93 36.415-8.811zm-60.669 18.042c81.285 42.946 177.84 139.499 220.784 220.785-15.771 36.252-40.232 72.131-71.904 104.983-43.659-19.412-94.042-55.417-139.855-99.867l12.597-12.597c9.811 6.208 23.113 8.096 35.17 6.086 15.994-2.491 31.884-10.944 44.743-23.804 12.859-12.859 21.313-28.749 23.804-44.743 2.671-17.15-1.708-32.445-12.331-43.068-10.624-10.623-25.92-15.003-43.068-12.33-15.994 2.491-31.884 10.944-44.743 23.804-21.137 20.806-32.894 54.64-17.718 79.913l-12.596 12.596c-44.449-45.814-80.454-96.197-99.867-139.855 32.853-31.671 68.732-56.131 104.984-71.903zm91.165 376.234c-45.857-23.704-92-57.584-134.071-98.402l37.785-37.785c45.624 44.357 94.252 79.641 138.792 100.744-13.501 12.715-27.752 24.571-42.506 35.443zm-87.551 50.328c-26.901-19.495-53.4-41.066-78.866-64.199 6.723-10.923 11.383-22.587 12.792-33.287 1.364-10.366-.16-19.621-4.423-27.266l9.834-9.833c40.718 39.537 85.228 72.834 129.819 97.134-22.444 14.903-45.767 27.525-69.156 37.451zm24.263-233.632c-.004-.004-.007-.008-.011-.011-.004-.004-.008-.007-.012-.011-15.239-16.589-4.178-44.211 11.485-59.515 9.883-9.884 21.843-16.342 33.678-18.185 9.227-1.634 19.906.448 25.848 6.711 15.255 16.583 4.193 44.22-11.473 59.526-9.883 9.884-21.843 16.342-33.678 18.185-10.67 1.662-19.845-.717-25.837-6.7zm-205.351 138.53c-10.256 17.764-24.416 26.932-36.072 23.359-32.606-12.572-10.387-86.689-.799-115.545 17.495 23.425 36.474 46.464 56.61 68.72-8.01 7.057-14.911 15.103-19.739 23.466zm69.181-48.215c-10.701 1.409-22.365 6.069-33.287 12.792-23.116-25.445-44.685-51.941-64.198-78.867 9.926-23.389 22.549-46.713 37.453-69.156 5.362 9.837 11.194 19.732 17.413 29.541 2.976 4.702 9.206 6.022 13.8 3.09 4.665-2.958 6.048-9.137 3.09-13.801-7.852-12.383-15.055-24.896-21.428-37.225 10.872-14.753 22.728-29.005 35.442-42.505 21.103 44.539 56.386 93.167 100.744 138.792l-37.785 37.785c-8.26-8.514-16.293-17.253-23.961-26.069-9.107-9.662-23.396 2.779-15.09 13.127 7.97 9.162 16.321 18.243 24.907 27.086l-9.835 9.834c-7.644-4.263-16.899-5.786-27.265-4.424zm15.526 168.023c-21.442 1.524-37.644-5.116-41.267-16.938-3.574-11.656 5.595-25.815 23.359-36.071 8.363-4.829 16.408-11.729 23.467-19.739 22.272 20.147 45.312 39.127 68.72 56.61-25.331 8.88-50.437 14.435-74.279 16.138z"/><path d="m133.921 239.721h-.007c-5.523 0-9.996 4.478-9.996 10 .528 13.263 19.478 13.263 20.003 0 0-5.523-4.477-10-10-10z"/></g></g></svg>