<svg id="Layer_1" enable-background="new 0 0 512.063 512.063" height="512" viewBox="0 0 512.063 512.063" width="512" xmlns="http://www.w3.org/2000/svg"><g><g clip-rule="evenodd" fill-rule="evenodd"><path d="m94.47 388.176c-10.24-9.365-22.646-24.732-37.146-48.394-12.417 12.176-25.261 24.566-38.55 37.855-11.699 11.699-11.699 30.844 0 42.543s30.844 11.699 42.543 0c12.539-12.539 23.399-23.129 33.153-32.004z" fill="#ff9eb1"/><path d="m94.474 388.172c10.956-9.969 20.516-17.775 29.494-23.751-5.627-20.436-2.793-35.947-8.11-53.521-1.941-6.413-4.967-13.1-9.884-20.402-.162-.241-.326-.482-.492-.724-15.297 17.41-31.335 33.512-48.157 50.008 14.499 23.662 26.905 39.029 37.146 48.394 0-.001.002-.003.003-.004z" fill="#ff5d7d"/><path d="m118.141 320.874c2.255 13.757 1.283 27.047 5.826 43.547 18.453-12.284 34.444-16.837 55.03-16.554-.062-.289-.125-.578-.187-.867-6.205-28.663-14.561-57.657-47.154-89.574-8.476 11.463-17.198 22.131-26.175 32.348.166.242.33.483.492.724 7.418 11.013 10.518 20.547 12.081 29.853.03.175.059.349.087.523z" fill="#ff9eb1"/><path d="m131.656 257.426c32.593 31.917 40.949 60.911 47.154 89.574.062.289.125.578.187.867 13.776.189 29.61 2.545 49.618 6.198 25.16 4.594 54.94-3.841 86.87-20.174-29.37-32.079-67.458-58.101-93.896-116.044-.677-1.484-1.346-2.989-2.008-4.516-9.72-22.431-17.218-36.66-23.774-46.337-.192-.284-.383-.563-.574-.839-18.438 23.377-34.586 48.204-48.339 69.324-4.988 7.665-10.067 14.954-15.238 21.947z" fill="#ff5d7d"/><path d="m221.59 217.848c26.438 57.943 64.526 83.965 93.896 116.044 15.22-7.785 30.929-17.365 46.858-28.183-2.008-4.794-4.181-9.313-6.842-13.363-13.686-20.824-35.025-32.354-39.752-48.578-14.104-48.406 6.159-71.852 27.957-43.561 24.247 31.469 51.688 45.196 68.708 68.391 9.979-7.929 19.937-16.112 29.808-24.416-42.365-101.705-86.263-119.466-121.91-144.038-6.32-4.356-12.381-8.927-18.127-14.217-12.29 2.505-24.089 7.27-35.387 13.723 15.297 48.78-1.1 71.302-46.305 38.804-.275-.197-.551-.397-.828-.599-8.542 8.923-16.689 18.484-24.431 28.3.191.276.382.555.574.839 6.557 9.676 14.055 23.909 23.774 46.337.66 1.528 1.33 3.033 2.007 4.517z" fill="#ff9eb1"/><g fill="#ff5d7d"><path d="m219.666 137.857c45.831 33.369 62.522 10.871 47.132-38.205-16.838 9.617-32.561 22.983-47.132 38.205z"/><path d="m343.707 200.208c-21.798-28.292-42.062-4.845-27.957 43.561 4.727 16.224 26.066 27.754 39.752 48.578 2.661 4.05 4.834 8.568 6.842 13.363 16.552-11.241 33.342-23.819 50.071-37.11-17.02-23.197-44.461-36.923-68.708-68.392z"/><path d="m320.313 100.145c35.648 24.571 79.546 42.333 121.91 144.038 12.037-10.126 23.947-20.433 35.613-30.681 85.086-74.738-74.451-142.864-170.46-128.491-1.74.26-3.47.567-5.191.918 5.747 5.289 11.808 9.859 18.128 14.216z"/></g></g><g><path d="m506.979 148.318c-24.15-52.017-130.761-83.727-201.082-73.197-73.701 11.033-129.939 97.402-167.154 154.556l-.227.349c-36.326 56.115-80.641 94.325-126.813 140.541-25.104 25.005-7.12 68.562 28.343 68.389 10.729 0 20.795-4.157 28.342-11.704 11.927-11.927 22.207-22.013 31.394-30.479.782-.48 1.51-1.075 2.159-1.787.226-.248.437-.503.633-.767 44.4-40.28 63.405-41.422 124.244-30.315 69.074 12.629 164.642-61.22 257.617-142.888 33.051-29.031 30.502-55.558 22.544-72.698zm-248.11-5.546c-2.361 1.694-9.717 1.744-23.463-6.445 8.1-7.772 16.517-14.849 25.228-20.899 3.695 17.62.756 25.537-1.765 27.344zm-127.862 205.909c-.594-4.457-.924-8.764-1.248-12.998-1.059-13.846-2.151-28.116-11.876-44.984 4.955-5.793 9.841-11.75 14.65-17.918 20.655 22.894 28.739 44.258 34.025 65.575-12.629 1.097-23.931 4.324-35.551 10.325zm-27.35-41.955c4.616 10.308 5.322 19.529 6.16 30.483.529 6.906 1.113 14.544 2.855 22.967-5.635 4.102-11.51 8.848-17.782 14.297-7.719-8.319-16.032-19.433-24.828-33.195 11.454-11.31 22.672-22.663 33.595-34.552zm-49.411 106.384c-7.417 7.743-20.984 7.742-28.4 0v-.001c-7.83-7.83-7.83-20.57 0-28.4 10.158-10.157 19.877-19.615 29.641-29.144 8.545 13.055 16.775 23.876 24.598 32.344-7.88 7.409-16.417 15.779-25.839 25.201zm176.165-68.881c-16.769-3.063-30.851-5.194-43.313-5.977-5.948-25.611-15.201-52.833-42.401-81.786 3.574-5.02 7.101-10.188 10.578-15.528l.227-.35c11.198-17.198 24.214-37.187 38.84-56.771 4.804 8.663 10.051 19.617 16.063 33.49.902 2.082 1.875 4.246 2.891 6.432 2.335 5.059 8.392 7.16 13.284 4.851 5.008-2.328 7.18-8.276 4.851-13.284-.955-2.055-1.83-4-2.674-5.95-7.995-18.45-14.823-32.18-21.176-42.536 4.402-5.4 8.928-10.692 13.574-15.805 17.659 11.027 34.597 17.925 49.367 8.011 8.741-6.267 16.885-20.775 8.124-54.331 6.775-3.361 13.704-6.027 20.781-7.864 53.615 41.86 85.045 42.617 130.673 144.438-5.397 4.495-10.805 8.937-16.215 13.307-7.388-8.272-15.839-15.479-24.673-23.013-12.506-10.667-25.438-21.696-37.583-37.46-16.355-21.226-31.135-16.012-35.276-13.909-15.633 7.941-19.638 33.993-10.203 66.372 3.358 11.526 12.262 20.22 21.688 29.424 6.791 6.631 13.812 13.487 19.307 21.847.857 1.304 1.693 2.73 2.531 4.322-10.9 7.188-21.624 13.71-32.077 19.383-5.974-6.216-12.158-12.205-18.627-18.469-5.771-5.587-11.737-11.365-17.614-17.39-9.644-9.127-23.199 4.109-14.316 13.967 6.075 6.228 12.146 12.106 18.018 17.791 4.743 4.593 9.328 9.033 13.747 13.486-25.379 11.495-48.679 16.903-68.396 13.302zm135.857-53.415c-.786-1.393-1.585-2.706-2.41-3.961-6.685-10.172-14.847-18.142-22.048-25.173-7.818-7.635-14.571-14.228-16.46-20.71-7.758-26.625-3.163-41.308.061-42.944.37-.192 4.264.354 10.374 8.284 13.421 17.418 27.779 29.665 40.448 40.47 8.266 7.05 15.676 13.371 21.958 20.256-10.703 8.343-21.372 16.322-31.923 23.778zm104.969-84.826c-8.319 7.307-16.734 14.615-25.205 21.845-42.135-90.821-75.884-106.051-118.195-134.659 71.258-4.217 217.724 47.481 143.4 112.814z"/><path d="m245.042 248.398h-.007c-5.523 0-9.996 4.478-9.996 10 .528 13.263 19.478 13.263 20.003 0 0-5.523-4.477-10-10-10z"/></g></g></svg>