<svg id="Layer_1" enable-background="new 0 0 512.084 512.084" height="512" viewBox="0 0 512.084 512.084" width="512" xmlns="http://www.w3.org/2000/svg"><g><g clip-rule="evenodd" fill-rule="evenodd"><path d="m68.507 147.501c11.611-13.573 24.774-25.984 39.328-36.887-22.713-49.451-63.287-83.549-93.75-96.51-10.612 39.74-.332 83.898 30.844 115.075 7.233 7.232 15.165 13.338 23.578 18.322z" fill="#ff9eb1"/><path d="m14.085 14.103c30.462 12.961 71.037 47.059 93.75 96.51 14.355-10.754 30.062-20.04 46.967-27.529-5.809-13.863-14.355-26.851-25.641-38.137-31.177-31.177-75.336-41.456-115.076-30.844z" fill="#ffe0e6"/><path d="m382.923 44.947c-11.286 11.286-19.831 24.274-25.641 38.137 16.905 7.488 32.612 16.775 46.967 27.529 22.713-49.451 63.287-83.549 93.75-96.51-39.741-10.612-83.899-.333-115.076 30.844z" fill="#ffe0e6"/><path d="m497.999 14.103c-30.463 12.961-71.037 47.059-93.75 96.51 14.554 10.903 27.717 23.314 39.328 36.887 8.413-4.983 16.345-11.089 23.577-18.322 31.177-31.176 41.457-75.334 30.845-115.075z" fill="#ff9eb1"/><path d="m404.249 110.613c-14.355-10.754-30.062-20.041-46.967-27.529-30.216-13.385-64.259-21.024-101.24-21.024-36.982 0-71.024 7.639-101.24 21.024-16.905 7.488-32.612 16.775-46.967 27.529-14.554 10.903-27.717 23.314-39.328 36.887-37.202 43.49-58.465 98.913-58.465 154.901 0 121.503 110.138 199.658 246 199.658s246-78.156 246-199.658c0-55.989-21.263-111.411-58.464-154.901-11.611-13.573-24.775-25.984-39.329-36.887zm-228.207 250.479c0-39.513 32.565-78.16 80-78.16s80 38.647 80 78.16-35.817 52.096-80 52.096-80-12.583-80-52.096z" fill="#ffe0e6"/><path d="m256.042 282.932c-47.435 0-80 38.647-80 78.16s35.817 52.096 80 52.096 80-12.583 80-52.096-32.565-78.16-80-78.16z" fill="#ff9eb1"/></g><g><path d="m458.342 149.77c43.168-30.694 63.265-87.116 49.318-138.247-.923-3.458-3.624-6.158-7.081-7.081-57.446-16.007-121.727 12.468-148.332 65.774-15.931-6.349-32.556-11.1-49.641-14.114-5.438-.957-10.626 2.671-11.585 8.11-.96 5.438 2.671 10.625 8.11 11.585 258.946 57.471 268.635 414.643-43.09 416.26-311.567-1.532-302.151-358.743-43.095-416.257 5.438-.96 9.069-6.146 8.109-11.586-.96-5.437-6.138-9.07-11.586-8.109-17.082 3.015-33.704 7.765-49.632 14.112-6.106-11.908-14.021-22.758-23.605-32.341-32.492-32.493-80.286-45.304-124.727-33.434-3.458.923-6.158 3.624-7.081 7.081-13.948 51.128 6.153 107.556 49.318 138.247-34.671 44.312-53.7 98.28-53.7 152.632-.208 134.045 126.68 211.249 256 209.657 129.291 1.619 256.25-75.636 256-209.658 0-54.351-19.029-108.319-53.7-152.631zm-68.348-97.752c20.661-20.662 48.645-31.904 77.239-31.933-23.093 16.086-48.668 41.532-66.776 75.656-9.563-6.466-19.555-12.273-29.904-17.378 5.086-9.672 11.602-18.507 19.441-26.345zm26.764 55.718c19.828-38.865 50.156-65.53 74.083-78.947 6.214 40.182-11.705 82.414-45.475 105.667-8.872-9.67-18.443-18.596-28.608-26.72zm-275.227-29.373c-10.349 5.105-20.34 10.912-29.903 17.377-18.116-34.165-43.615-59.563-66.747-75.653 28.584.037 56.557 11.278 77.21 31.931 7.838 7.838 14.354 16.673 19.44 26.345zm-120.287-49.58c24.019 13.442 54.236 40.026 74.083 78.953-10.166 8.124-19.736 17.05-28.608 26.72-5.237-3.664-10.167-7.799-14.717-12.349-24.531-24.529-35.787-59.385-30.758-93.324z"/><path d="m191.208 300.097c-6.385-8.21-14.476-16.078-23.099-22.306-17.115-12.36-36.157-18.509-55.092-17.753-13.256 1.052-12.465 20.037.789 19.984 29.452-1.167 53.522 19.777 64.737 36.624-16.236 26.337-19.008 67.149 6.466 87.464-4.561 11.501-14.748 25.002-19.553 28.156-4.617 3.029-5.904 9.229-2.874 13.847 3.049 4.654 9.293 5.88 13.847 2.874 8.469-5.557 19.772-20.956 25.903-34.564 26.182 11.676 81.238 11.676 107.42 0 6.132 13.608 17.435 29.007 25.903 34.564 4.554 3.006 10.798 1.779 13.847-2.874 3.03-4.617 1.743-10.817-2.874-13.847-4.805-3.154-14.992-16.655-19.553-28.156 25.475-20.323 22.701-61.119 6.466-87.464 11.215-16.847 35.285-37.792 64.738-36.624 13.271.009 14.027-18.932.789-19.984-18.931-.753-37.978 5.393-55.093 17.753-8.623 6.228-16.715 14.095-23.099 22.306-33.254-35.984-96.416-35.982-129.668 0zm134.834 60.995c0 10.411 0 42.095-70 42.095s-70-31.684-70-42.095c0-32.78 26.763-68.16 70-68.16s70 35.38 70 68.16z"/><path d="m286.047 366.532c13.268-.529 13.258-19.476 0-20h-.007c-13.269.531-13.252 19.477.007 20z"/><path d="m331.048 252.059c0-8.284-6.716-15-15-15h-.007c-8.284 0-14.996 6.716-14.996 15 .791 19.897 29.216 19.892 30.003 0z"/><path d="m226.045 346.532h-.008c-5.522 0-9.996 4.478-9.996 10 .529 13.263 19.479 13.263 20.004 0 0-5.523-4.478-10-10-10z"/><path d="m196.044 267.059c19.902-.793 19.887-29.215 0-30h-.008c-19.902.795-19.879 29.217.008 30z"/><path d="m256.042 72.06c13.268-.529 13.258-19.476 0-20h-.007c-13.268.53-13.25 19.478.007 20z"/></g></g></svg>