<svg id="Layer_1" enable-background="new 0 0 511.907 511.907" height="512" viewBox="0 0 511.907 511.907" width="512" xmlns="http://www.w3.org/2000/svg"><g><g clip-rule="evenodd" fill-rule="evenodd"><path d="m204.222 360.142-42.054-42.054-118.411 118.412c-14.933 14.933-14.933 39.368 0 54.301s39.368 14.933 54.301 0c10.774-10.774 16.377-31.891 27.151-42.665 16.389-16.389 35.46-24.836 51.893-41.269 15.609-15.61 10.541-30.145 27.12-46.725z" fill="#c68a65"/><path d="m162.168 318.089 42.054 42.054c19.508-19.507 35.798-2.126 48.335-23.841l-7.507-7.507-46.793-46.795z" fill="#ddb9a3"/><path d="m198.257 282 46.794 46.794c21.662-60.162 167.48-191.485 210.48-237.485s14.727-81.31 14.727-81.31z" fill="#e8eaf0"/></g><g><path d="m488.953 32.25c-1.968-16.942-9.98-27.369-10.889-28.502-1.777-2.22-4.415-3.578-7.255-3.735-2.824-.145-5.61.904-7.622 2.914l-426.501 426.501c-18.869 18.87-18.869 49.573 0 68.443 17.94 18.714 50.503 18.714 68.442 0 6.497-6.495 11.023-15.311 15.401-23.836 3.673-7.153 7.472-14.551 11.75-18.829 7.571-7.571 15.832-13.359 24.578-19.486 19.255-13.472 35.964-25.302 42.726-48.121 2.617-7.271 4.877-13.553 11.71-20.386 6.852-6.852 12.549-7.411 19.762-8.12 8.898-.874 21.086-2.071 30.162-17.792 2.263-3.92 1.611-8.871-1.589-12.071l-2.796-2.796c11.503-25.004 43.734-64.529 98.214-120.48 3.853-3.957 3.769-10.288-.188-14.142-3.958-3.854-10.29-3.768-14.142.188-52.247 53.66-84.159 92.224-98.777 119.541l-29.54-29.541 255.109-255.109c11.459 38.329-30.746 68.079-62.941 101.38-3.938 3.872-3.992 10.203-.12 14.142 3.874 3.939 10.204 3.992 14.142.12 18.22-17.913 33.955-33.384 44.249-44.395 24.824-26.558 27.904-50.489 26.115-65.888zm-308.188 348.578c-2.586 7.186-4.629 12.861-10.735 18.968-7.604 7.604-15.883 13.404-24.647 19.544-9.064 6.352-18.438 12.918-27.245 21.725-6.495 6.496-11.021 15.311-15.399 23.836-3.674 7.153-7.472 14.551-11.751 18.829-10.495 10.956-29.664 10.955-40.158 0-11.072-11.071-11.072-29.087 0-40.158l111.339-111.339 28.457 28.456c-5.196 7.174-7.638 13.962-9.861 20.139zm58.286-43.891c-2.42 1.513-5.346 1.8-9.951 2.252-6.603.649-15.111 1.485-24.196 7.493l-28.594-28.593 21.946-21.946z"/><path d="m379.559 157.014h-.008c-5.522 0-9.996 4.478-9.996 10 .529 13.263 19.479 13.263 20.004 0 0-5.522-4.477-10-10-10z"/></g></g></svg>