<svg id="Layer_1" enable-background="new 0 0 511.861 511.861" height="512" viewBox="0 0 511.861 511.861" width="512" xmlns="http://www.w3.org/2000/svg"><g><g clip-rule="evenodd" fill-rule="evenodd"><path d="m89.862 85.93v20.002 159.999h159.999v20c0 11-9 20-20 20h252v-220.001c0-21.999-18-40-40-40h-312c-21.999 0-39.999 18-39.999 40zm171.997 91.876c0-49.706 40.294-90 90-90s90 40.294 90 90-40.294 90-90 90-90-40.294-90-90z" fill="#b6bccf"/><path d="m351.859 87.806c-49.706 0-90 40.294-90 90s40.294 90 90 90 90-40.294 90-90-40.294-90-90-90zm0 70c11.046 0 20 8.954 20 20s-8.954 20-20 20-20-8.954-20-20 8.954-20 20-20z" fill="#e8eaf0"/><circle cx="351.859" cy="177.806" fill="#8690af" r="20"/><path d="m249.861 265.932h-159.999v-39.995-40.001-40.001-40.001h-20c-11 0-20 8.999-20 20v179.999h179.999c11 0 20-9 20-20z" fill="#e8eaf0"/><path d="m229.861 305.932h-179.999-20.001c-11 0-20 8.999-20 20s9 20 20 20h452c11 0 20-9 20-20s-9-20-20-20z" fill="#8690af"/><path d="m481.862 345.931h-452v100c0 11 9 20 20 20h412.001c11 0 20-9 20-20v-100z" fill="#b6bccf"/></g><g><path d="m511.861 325.931c0-13.037-8.36-24.159-20-28.286v-211.715c0-27.57-22.43-50-50-50h-312c-27.57 0-50 22.43-50 50v10.002h-10c-16.542 0-30 13.458-30 30v169.999h-10c-33.832.645-41.304 46.706-10 58.286v91.714c0 16.542 13.458 30 30 30h412.001c16.542 0 30-13.458 30-30v-91.714c11.64-4.127 19.999-15.248 19.999-28.286zm-381.999-270.001h312c16.542 0 30 13.458 30 30v210.001h-213.715c1.11-3.129 1.714-6.495 1.714-10v-20c0-5.522-4.477-10-10-10h-149.999v-19.994h110c13.268-.528 13.258-19.476 0-20h-110v-20.002h110c13.268-.528 13.258-19.476 0-20h-110v-20.001h110c13.268-.528 13.258-19.476 0-20h-110v-20.002h110c13.268-.528 13.258-19.476 0-20h-110v-10.002c0-16.542 13.458-30 30-30zm-70 70.002c0-5.514 4.486-10 10-10h10v149.999c0 5.522 4.477 10 10 10h149.999v10c0 5.514-4.486 10-10 10h-169.999zm421.999 209.999h-181.003c-13.268.529-13.258 19.476 0 20h171.003v90c0 5.514-4.486 10-10 10h-412c-5.514 0-10-4.486-10-10v-90h170.997c13.268-.528 13.258-19.476 0-20h-180.997c-13.27-.551-13.259-19.454 0-20h452c13.27.551 13.26 19.454 0 20z"/><path d="m351.859 277.806c55.14 0 100-44.86 100-100.001-5.493-132.664-194.528-132.625-200 .001 0 55.14 44.86 100 100 100zm0-180.001c44.112 0 80 35.888 80 80-4.395 106.132-155.622 106.101-160-.001 0-44.111 35.888-79.999 80-79.999z"/><path d="m351.859 207.805c16.542 0 30-13.458 30-30-1.648-39.799-58.358-39.787-60 0 0 16.542 13.458 30 30 30zm0-40c5.514 0 10 4.486 10 10-.549 13.266-19.453 13.262-20 0 0-5.513 4.486-10 10-10z"/><path d="m421.86 415.93h-331.998c-13.268.529-13.258 19.476 0 20h331.998c13.268-.528 13.258-19.476 0-20z"/><path d="m79.862 385.928c0 5.522 4.477 10 10 10h331.998c13.268-.528 13.258-19.476 0-20h-331.998c-5.523 0-10 4.478-10 10z"/><path d="m255.861 355.931c13.268-.528 13.258-19.476 0-20h-.007c-13.268.53-13.25 19.478.007 20z"/></g></g></svg>