<svg id="Layer_1" enable-background="new 0 0 511.994 511.994" height="512" viewBox="0 0 511.994 511.994" width="512" xmlns="http://www.w3.org/2000/svg"><g><g clip-rule="evenodd" fill-rule="evenodd"><path d="m451.284 206.844c0-106.272-88.25-197.251-195.29-196.843-107.04-.408-195.29 90.571-195.29 196.843 0 128.344 149.391 295.15 195.29 295.15s195.29-166.807 195.29-295.15zm-195.29-156.845c85.764 0 155.29 69.526 155.29 155.29 0 85.765-69.526 155.29-155.29 155.29s-155.29-69.526-155.29-155.29 69.525-155.29 155.29-155.29z" fill="#ff5d7d"/><path d="m411.284 205.289c0-85.764-69.526-155.29-155.29-155.29s-155.29 69.526-155.29 155.29c0 85.765 69.526 155.29 155.29 155.29s155.29-69.525 155.29-155.29zm-242.071-14.256c20.398-43.592 68.607-72.642 110.226-81.983 53.818-14.42 83.733 30.551 58.362 58.487-9.096 10.016-13.754 19.529-17.038 32.065-6.543 24.977-.995 42.33-6.237 58.911-13.662 43.219-62.733 58.164-100.298 48.351-46.148-12.057-67.913-66.898-45.015-115.831z" fill="#e8eaf0"/><path d="m337.801 167.537c25.371-27.936-4.544-72.907-58.362-58.487-41.619 9.341-89.828 38.391-110.226 81.983-22.898 48.934-1.133 103.774 45.016 115.83 37.565 9.813 86.636-5.132 100.298-48.351 5.241-16.581-.307-33.934 6.237-58.911 3.283-12.535 7.941-22.048 17.037-32.064zm-99.018 40.756c12.564 0 22.75 10.185 22.75 22.75s-10.185 22.75-22.75 22.75-22.75-10.185-22.75-22.75c0-12.564 10.186-22.75 22.75-22.75z" fill="#ff9eb1"/><circle cx="238.783" cy="231.043" fill="#fff3db" r="22.75"/></g><g><path d="m139.783 103.168c4.22 3.521 10.537 2.975 14.087-1.284 3.535-4.242 2.962-10.548-1.281-14.084-4.239-3.533-10.546-2.962-14.084 1.281l-.005.006c-3.536 4.242-2.96 10.545 1.283 14.081z"/><path d="m399.494 59.983c-38.849-38.701-89.522-59.983-142.702-59.983h-1.523c-53.25 0-103.929 21.284-142.775 59.983-99.175 104.659-68.347 227.737 20.627 348.544 37.182 49.833 91.493 103.467 122.872 103.467s85.69-53.634 122.872-103.466c88.969-120.748 119.824-243.958 20.629-348.545zm-36.658 336.584c-25.822 34.207-74.216 89.761-106.842 95.428-6.581-.001-21.424-6.737-43.348-25.643-69.29-57.896-145.608-185.379-141.94-259.51-1.651-98 85.988-188.914 184.641-186.844h1.368c98.58-2.044 186.233 88.865 184.567 186.846.002 53.755-28.591 122.906-78.446 189.723z"/><path d="m255.994 39.999c-27.389 0-54.527 6.844-78.483 19.792-4.858 2.626-6.668 8.693-4.042 13.552 2.625 4.857 8.691 6.67 13.552 4.042 95.127-52.411 215.212 19.137 214.263 127.906.001 80.112-65.176 145.289-145.289 145.289-108.77.932-180.319-119.125-127.907-214.26 2.624-4.858.815-10.925-4.044-13.551-4.859-2.628-10.927-.816-13.552 4.042-59.641 108.245 21.755 244.836 145.503 243.767 219.268-9.071 219.224-321.53-.001-330.579z"/><path d="m158.857 271.87c10.646 22.684 29.412 38.547 52.844 44.669 21.398 5.586 45.263 3.834 65.542-4.757 23.032-9.76 39.659-27.607 46.818-50.255 6.032-20.513.278-37.545 6.376-59.392 3.076-11.747 7.217-19.562 14.766-27.876 13.453-14.812 15.499-35.282 5.213-52.149-10.243-16.795-35.598-32.812-73.365-22.773-39.235 8.862-93.311 37.056-116.895 87.458-13.081 27.953-13.554 58.961-1.299 85.075zm19.414-76.599c19.236-41.112 65.772-68.027 103.358-76.465.133-.029.266-.062.397-.098 20.492-6.023 42.632-.793 51.313 13.815 5.723 9.384 4.623 19.959-2.943 28.29-9.665 10.643-15.439 21.485-19.308 36.253-3.765 14.369-3.86 26.176-3.945 36.593-.067 8.277-.126 15.427-2.153 21.839-9.396 29.725-39.213 44.247-67.878 44.245-6.955 0-13.847-.855-20.357-2.557-17.583-4.593-31.715-16.603-39.793-33.814-9.724-20.721-9.248-45.543 1.309-68.101z"/><path d="m238.784 263.793c18.059 0 32.75-14.691 32.75-32.75-1.799-43.447-63.708-43.435-65.5 0 0 18.059 14.691 32.75 32.75 32.75zm0-45.5c7.03 0 12.75 5.72 12.75 12.75-.701 16.915-24.802 16.91-25.5 0 0-7.03 5.719-12.75 12.75-12.75z"/></g></g></svg>