<svg id="Layer_1" enable-background="new 0 0 511.909 511.909" height="512" viewBox="0 0 511.909 511.909" width="512" xmlns="http://www.w3.org/2000/svg"><g><g clip-rule="evenodd" fill-rule="evenodd"><path d="m216.012 116.427c28.7 32.95 60.087 38.162 79.07 20.592 19.662-18.199 26.891-59.86 55.585-62.473 27.95-2.545 57.828-16.437 51.275-60.196-45.333-12.352-97.547 1.017-144.23 47.7-19.296 19.295-32.312 37.351-41.7 54.377z" fill="#ddb9b6"/><path d="m295.082 137.019c-18.983 17.57-50.37 12.358-79.07-20.592-29.356 53.238-23.244 96.407-62.74 135.902 6.309 65.617 84.172 75.527 120.173 13.171 44.126-76.428 133.447-67.005 147.57 13.869 9.306-6.967 18.911-15.237 28.845-25.171 69.471-69.471 65.166-151.194 12.105-204.254-17.405-17.405-37.894-29.564-60.024-35.594 6.553 43.759-23.325 57.651-51.275 60.196-28.693 2.613-35.923 44.274-55.584 62.473z" fill="#c68a86"/><path d="m273.445 265.501c-36.001 62.356-113.864 52.446-120.173-13.171-26.358 26.358-35.469 62.448-25.834 91.203 3.162 9.438 8.344 18.086 15.598 25.341 7.255 7.254 15.903 12.436 25.341 15.598 28.756 9.635 64.846.524 91.203-25.833 45.623-45.623 96.148-30.39 161.434-79.269-14.122-80.874-103.443-90.298-147.569-13.869z" fill="#ddb9b6"/><path d="m168.378 384.472c-9.438-3.162-18.086-8.344-25.341-15.598-7.254-7.254-12.436-15.903-15.596-25.344l-63.065 63.065c-13.985-7.587-31.838-5.471-43.663 6.353-14.405 14.405-14.405 37.761 0 52.166 4.751 4.751 10.476 7.934 16.532 9.551 1.617 6.056 4.8 11.781 9.551 16.532 14.405 14.405 37.761 14.405 52.166 0 11.824-11.824 13.94-29.677 6.353-43.663z" fill="#fff3db"/></g><g><path d="m469.036 42.873c-28.649-28.65-65.301-43.874-103.317-42.822-92.58 1.395-167.369 101.771-183.076 174.296-7.999 26.493-14.905 49.375-36.442 70.911-25.482 25.512-38.211 61.391-30.043 95.413l-54.046 54.047c-16.684-5.723-35.729-1.581-48.469 11.158-18.189 17.453-18.188 48.856 0 66.309 4.497 4.496 9.854 8.023 15.709 10.373 2.35 5.856 5.877 11.214 10.374 15.71 17.453 18.189 48.855 18.188 66.309 0 12.739-12.739 16.879-31.783 11.158-48.469l54.047-54.046c9.119 2.292 19.187 2.97 28.825 2.102 24.35-2.139 47.997-13.555 66.588-32.146 21.536-21.536 44.417-28.442 70.911-36.439 34.487-10.409 73.575-22.207 119.368-67.999 34.83-34.831 53.823-74.625 54.927-115.08 1.035-37.976-14.173-74.667-42.823-103.318zm-204.254 26.248c31.145-31.146 66.236-48.116 101.482-49.077 8.903-.245 17.813.577 26.483 2.414.631 11.014-1.684 19.908-6.91 26.491-8.734 11.005-24.44 14.578-36.078 15.638-23.294 2.122-34.783 22.665-44.92 40.79-9.255 16.277-17.12 32.479-36.825 31.497-12.573-.629-26.52-8.341-39.714-21.86 8.658-14.451 20.222-29.633 36.482-45.893zm-166.538 371.342c-3.131 3.131-3.83 7.948-1.719 11.84 5.631 10.379 3.726 23.465-4.634 31.822-10.009 10.431-28.016 10.43-38.024-.001-3.343-3.342-5.75-7.505-6.961-12.039-.923-3.457-3.623-6.157-7.079-7.081-19.873-5.263-26.659-30.501-12.042-44.985 8.359-8.36 21.445-10.263 31.822-4.634 3.89 2.11 8.707 1.412 11.84-1.719l52.851-52.851c6.342 10.947 15.85 20.455 26.797 26.797zm344.545-193.335c-5.39 5.39-10.661 10.264-15.827 14.687-17.848-58.562-82.767-76.608-130.532-38.488-4.354 3.396-5.132 9.681-1.734 14.035 3.396 4.355 9.682 5.13 14.035 1.734 19.588-15.279 43.108-19.912 62.915-12.39 19.151 7.273 32.619 24.362 38.292 48.398-56.14 41.382-107.34 28.097-157.429 76.461-15.272 15.273-34.52 24.637-54.195 26.364-19.007 1.672-36.135-4.058-48.206-16.129-21.569-21.568-21.522-57.924-2.025-87.415 5.943 15.955 16.75 28.57 31.202 35.919 21.624 10.877 46.72 8.633 67.994-3.762 11.184-7.16 1.606-23.503-10.102-17.262-16.047 9.39-34.299 10.583-48.827 3.196-13.216-6.72-21.836-19.645-24.556-36.652 22.392-24.012 29.981-49.156 37.993-75.702 4.574-15.155 9.219-30.542 16.756-46.712 15.555 14.409 32.435 22.634 48.472 23.435 13.028.693 25.359-3.64 34.858-12.49 8.459-7.83 14.54-18.703 20.421-29.219 8.476-15.155 16.481-29.47 29.279-30.635 22.267-2.027 39.532-10.022 49.93-23.121 7.074-8.913 10.856-19.881 11.307-32.729 15.26 6.259 29.541 15.818 42.083 28.361 53.237 53.239 48.372 129.64-12.104 190.116z"/><path d="m273.445 255.5h-.008c-5.522 0-9.996 4.478-9.996 10 .529 13.263 19.479 13.263 20.004 0 0-5.522-4.477-10-10-10z"/></g></g></svg>