<?xml version="1.0" encoding="iso-8859-1"?>
<!-- Generator: Adobe Illustrator 19.0.0, SVG Export Plug-In . SVG Version: 6.00 Build 0)  -->
<svg xmlns="http://www.w3.org/2000/svg" xmlns:xlink="http://www.w3.org/1999/xlink" version="1.1" id="Layer_1" x="0px" y="0px" viewBox="0 0 512 512" style="enable-background:new 0 0 512 512;" xml:space="preserve" width="512" height="512">
<g id="XMLID_1600_">
	<path id="XMLID_1602_" style="fill:#EDF2FA;" d="M395.687,281.961h37.107c-0.001,19.108,15.492,34.601,34.6,34.6   c19.119,0,34.606-15.487,34.606-34.606c0-10.396-4.684-19.609-11.937-25.954c7.253-6.345,11.938-15.559,11.938-25.955   c0-19.12-15.487-34.607-34.607-34.607c-19.107,0-34.6,15.493-34.601,34.601l-36.131,0.006"/>
	<path id="XMLID_807_" style="fill:#FF5D5D;" d="M373.517,215.017h-5.354C293.362,134.18,188.202,88.235,78.052,88.286l0,0   l0.081,335.346h0.179c110.046,0,215.096-45.909,289.85-126.649h5.354c12.514,0,22.658-10.144,22.658-22.658v-36.651   C396.174,225.161,386.03,215.017,373.517,215.017z"/>
	<ellipse id="XMLID_1620_" style="fill:#FFB9B7;" cx="78.134" cy="256" rx="68.134" ry="167.714"/>
	<ellipse id="XMLID_1604_" style="fill:#FFFFFF;" cx="78.134" cy="255.999" rx="23.828" ry="41.649"/>
	<g id="XMLID_146_">
		<path id="XMLID_809_" d="M512,230.046c0-24.596-20.011-44.607-44.606-44.607c-21.157,0-38.92,14.806-43.471,34.602l-22.938,0.004    c-5.816-9.03-15.952-15.028-27.468-15.028h-1.015c-37.544-39.721-81.977-70.951-132.135-92.863    C188.92,89.679,134.381,78.286,78.243,78.286c-0.063,0-0.134,0-0.195,0c-0.014,0-0.028,0.002-0.042,0.002    c-13.63,0.045-33.516,7.348-51.114,41.749c-12.345,24.131-21.178,57.791-24.873,94.778c-0.55,5.496,3.461,10.396,8.956,10.945    c5.498,0.542,10.396-3.462,10.944-8.957c7.691-76.98,34.704-118.518,56.215-118.518c27.496,0,58.134,64.771,58.134,157.714    c0,91.037-29.394,155.035-56.438,157.622c-0.506,0.002-1.012,0.01-1.518,0.01h-0.179c-0.342,0-0.68,0.018-1.013,0.051    c-21.376-1.277-47.69-42.797-55.227-118.733c-0.546-5.495-5.438-9.501-10.938-8.963c-5.496,0.545-9.509,5.443-8.964,10.939    c8.12,81.817,38.72,136.788,76.142,136.788c0.865,0,1.727-0.039,2.585-0.097c55.302-0.321,109.04-11.706,159.757-33.868    c50.108-21.896,94.504-53.092,132.024-92.766h1.016c11.514,0,21.647-5.995,27.464-15.022h22.932    c1.846,8.093,5.931,15.522,11.944,21.537c8.425,8.424,19.624,13.064,31.537,13.063c24.596,0,44.605-20.01,44.605-44.606    c0-9.354-3.016-18.419-8.479-25.955C508.984,248.464,512,239.401,512,230.046z M373.517,286.983h-5.354    c-2.786,0-5.445,1.162-7.338,3.206c-8.276,8.939-16.95,17.438-25.975,25.491c1.859-16.485,2.817-33.453,2.817-50.725    c0-5.523-4.478-10-10-10s-10,4.477-10,10c0,24.017-1.913,47.395-5.648,69.567c-30.604,23.333-64.502,41.913-100.423,55.188    c8.57-25.024,14.474-54.182,17.192-85.274c0.481-5.501-3.589-10.352-9.091-10.833c-5.503-0.479-10.352,3.589-10.833,9.091    c-3.04,34.774-10.202,66.832-20.725,92.734l-0.966,2.398c-22.863,6.76-46.396,11.419-70.295,13.845    c6.935-8.702,13.235-19.87,18.698-33.317c13.343-32.844,20.691-76.297,20.691-122.355c0-46.058-7.349-89.511-20.691-122.355    c-5.48-13.489-11.803-24.684-18.765-33.398c41.78,4.241,82.442,15.305,120.352,32.487c12.515,34.359,19.39,77.944,19.39,123.173    c0,5.523,4.478,10,10,10s10-4.477,10-10c0-39.47-5.044-77.906-14.376-110.725c36.532,19.848,69.958,45.623,98.646,76.627    c1.893,2.045,4.553,3.208,7.34,3.208h5.354c6.979,0,12.657,5.678,12.657,12.657v36.651    C386.174,281.305,380.496,286.983,373.517,286.983z M467.394,306.561c-6.57,0-12.748-2.559-17.395-7.206    c-4.646-4.646-7.205-10.824-7.205-17.394c0-2.652-1.054-5.196-2.929-7.071s-4.419-2.929-7.071-2.929h-26.62v-31.917l26.621-0.004    c5.521-0.001,9.998-4.478,9.998-10c0-13.565,11.036-24.601,24.601-24.601c13.568,0,24.606,11.039,24.606,24.607    c0,4.745-1.367,9.247-3.92,13.151c-6.504-2.928-15.135-4.784-23.985-1.968c-5.263,1.675-8.171,7.299-6.496,12.562    c1.676,5.264,7.3,8.174,12.563,6.496c6.105-1.939,12.534,2.671,13.45,3.362c5.408,4.796,8.388,11.288,8.388,18.306    C491.999,295.523,480.961,306.561,467.394,306.561z"/>
		<path id="XMLID_1008_" d="M78.134,307.649c9.958,0,19.264-6.281,25.529-17.233c5.352-9.354,8.299-21.577,8.299-34.417    s-2.947-25.062-8.299-34.417c-6.266-10.952-15.571-17.233-25.529-17.233s-19.264,6.281-25.529,17.233    c-5.352,9.354-8.299,21.577-8.299,34.417s2.947,25.062,8.299,34.417C58.87,301.368,68.176,307.649,78.134,307.649z M78.134,224.35    c5.505,0,13.828,12.623,13.828,31.649s-8.323,31.649-13.828,31.649S64.306,275.026,64.306,256S72.629,224.35,78.134,224.35z"/>
		<path id="XMLID_1009_" d="M220.56,253.57c-2.63,0-5.21,1.06-7.069,2.92c-1.86,1.87-2.931,4.44-2.931,7.08    c0,2.63,1.07,5.2,2.931,7.07c1.869,1.86,4.439,2.93,7.069,2.93c2.641,0,5.21-1.07,7.08-2.93c1.86-1.87,2.93-4.44,2.93-7.07    c0-2.64-1.069-5.21-2.93-7.08C225.779,254.63,223.2,253.57,220.56,253.57z"/>
		<path id="XMLID_1010_" d="M10,266c2.63,0,5.21-1.07,7.069-2.93C18.93,261.21,20,258.63,20,256c0-2.63-1.07-5.21-2.931-7.07    C15.21,247.07,12.63,246,10,246s-5.21,1.07-7.07,2.93C1.069,250.79,0,253.37,0,256c0,2.63,1.069,5.21,2.93,7.07S7.37,266,10,266z"/>
	</g>
</g>















</svg>
