<?xml version="1.0" encoding="iso-8859-1"?>
<!-- Generator: Adobe Illustrator 19.0.0, SVG Export Plug-In . SVG Version: 6.00 Build 0)  -->
<svg xmlns="http://www.w3.org/2000/svg" xmlns:xlink="http://www.w3.org/1999/xlink" version="1.1" id="Layer_1" x="0px" y="0px" viewBox="0 0 512 512" style="enable-background:new 0 0 512 512;" xml:space="preserve" width="512" height="512">
<g id="XMLID_827_">
	<path id="XMLID_1980_" style="fill:#FFB954;" d="M384.288,227.588H347.29c-20.077,0-36.353,16.276-36.353,36.353V322h109.705   v-58.058C420.641,243.864,404.365,227.588,384.288,227.588z"/>
	<circle id="XMLID_1979_" style="fill:#FEDA9B;" cx="365.789" cy="195.944" r="31.644"/>
	<path id="XMLID_1981_" style="fill:#FE8F8D;" d="M159.144,263.846c6.467-7.454,16-12.179,26.565-12.179c0.066,0,0.131,0,0.197,0   c7.282,0.04,14.26,2.289,20.179,6.503c4.552,3.241,9.692,5.266,14.866,5.856c7.781,0.888,14.735,4.774,19.579,10.943c0,0,0,0,0,0   c4.632,5.898,6.773,13.289,6.027,20.811c-0.745,7.52-4.293,14.347-9.989,19.224c-5.269,4.511-11.983,6.995-18.906,6.995   c-0.006,0-0.011,0-0.017,0c-3.79-0.002-14.828-0.001-23.303,0L185.707,322L159.144,263.846z"/>
	<rect id="XMLID_1910_" x="45.135" y="322" style="fill:#FF5D5D;" width="421.73" height="180"/>
	<path id="XMLID_1137_" style="fill:#FFFFFF;" d="M80.27,10v72.865C80.27,102.27,64.54,118,45.135,118h0   C25.73,118,10,102.27,10,82.865V10H80.27z"/>
	<path id="XMLID_1136_" style="fill:#FF5D5D;" d="M150.54,10v72.865c0,19.405-15.73,35.135-35.135,35.135h0   c-19.405,0-35.135-15.73-35.135-35.135V10H150.54z"/>
	<path id="XMLID_1135_" style="fill:#FFFFFF;" d="M220.811,10v72.865c0,19.405-15.73,35.135-35.135,35.135h0   c-19.405,0-35.135-15.73-35.135-35.135V10H220.811z"/>
	<path id="XMLID_1142_" style="fill:#FF5D5D;" d="M291.189,10v72.865c0,19.405-15.73,35.135-35.135,35.135h0   c-19.405,0-35.135-15.73-35.135-35.135V10H291.189z"/>
	<path id="XMLID_1141_" style="fill:#FFFFFF;" d="M361.46,10v72.865c0,19.405-15.73,35.135-35.135,35.135h0   c-19.405,0-35.135-15.73-35.135-35.135V10H361.46z"/>
	<path id="XMLID_1140_" style="fill:#FF5D5D;" d="M431.73,10v72.865c0,19.405-15.73,35.135-35.135,35.135h0   c-19.405,0-35.135-15.73-35.135-35.135V10H431.73z"/>
	<path id="XMLID_1679_" style="fill:#FFFFFF;" d="M502,10v72.865C502,102.27,486.27,118,466.865,118h0   c-19.405,0-35.135-15.73-35.135-35.135V10H502z"/>
	<g id="XMLID_1225_">
		<path id="XMLID_1226_" style="fill:#FFDFE0;" d="M125.162,322c-9.486,0-18.379-3.72-25.04-10.475    c-6.66-6.754-10.255-15.7-10.123-25.191c0.267-19.157,16.023-34.668,35.165-34.668c0.066,0,0.131,0,0.197,0    c7.282,0.04,14.26,2.289,20.179,6.503c4.552,3.241,9.692,5.266,14.866,5.856c7.781,0.888,14.735,4.774,19.579,10.943l0,0    c4.632,5.898,6.773,13.289,6.027,20.811c-0.745,7.52-4.293,14.347-9.989,19.224c-5.269,4.511-11.983,6.995-18.906,6.995    c-0.006,0-0.011,0-0.017,0c-3.79-0.002-14.828-0.001-23.303,0L125.162,322z"/>
	</g>
	<g id="XMLID_204_">
		<path id="XMLID_207_" d="M502,0H10C4.477,0,0,4.477,0,10v72.865c0,21.451,15.046,39.441,35.135,44.005V502c0,5.523,4.477,10,10,10    h421.729c5.523,0,10-4.477,10-10V198c0-5.523-4.477-10-10-10s-10,4.477-10,10v114h-26.224v-48.058    c0-20.192-12.982-37.399-31.034-43.74c4.918-6.837,7.826-15.212,7.826-24.258c0-22.962-18.682-41.644-41.645-41.644    c-22.962,0-41.644,18.682-41.644,41.644c0,9.046,2.908,17.421,7.826,24.258c-18.052,6.341-31.034,23.548-31.034,43.74V312h-49.193    c2.586-4.636,4.227-9.798,4.765-15.233c1.001-10.102-1.88-20.037-8.114-27.974c-6.508-8.288-15.852-13.509-26.31-14.703    c-3.497-0.399-7.023-1.805-10.2-4.067c-7.605-5.415-16.569-8.305-25.923-8.357c-0.006,0-0.111,0-0.117,0c-0.012,0-0.123,0-0.135,0    c-10.893,0-21.338,3.969-29.506,11.039c-1.675-0.679-3.312-1.576-4.864-2.681c-7.605-5.415-16.569-8.305-25.923-8.357    c-0.006,0-0.111,0-0.117,0c-0.012,0-0.123,0-0.135,0c-24.561,0-44.822,19.976-45.164,44.528    c-0.13,9.329,2.554,18.244,7.652,25.805H55.135V126.87c10.065-2.287,18.861-7.94,25.135-15.718    c6.274,7.778,15.07,13.431,25.135,15.718v40.428c0,2.777-2.259,5.036-5.036,5.036s-5.036-2.259-5.036-5.036v-1.631    c0-5.523-4.477-10-10-10s-10,4.477-10,10v1.631c0,13.805,11.231,25.036,25.036,25.036s25.036-11.231,25.036-25.036V126.87    c10.065-2.287,18.861-7.94,25.135-15.718c6.274,7.777,15.07,13.431,25.135,15.718v40.428c0,2.777-2.259,5.036-5.036,5.036    s-5.036-2.259-5.036-5.036v-1.631c0-5.523-4.477-10-10-10s-10,4.477-10,10v1.631c0,13.805,11.231,25.036,25.036,25.036    s25.036-11.231,25.036-25.036V126.87c10.095-2.293,18.912-7.974,25.19-15.787C229.144,121.387,241.838,128,256.054,128    c14.185,0,26.855-6.583,35.135-16.848C299.47,121.417,312.14,128,326.325,128c14.184,0,26.854-6.583,35.135-16.848    C369.74,121.417,382.41,128,396.595,128s26.855-6.583,35.135-16.848C440.01,121.417,452.68,128,466.865,128    C491.752,128,512,107.752,512,82.865V10C512,4.477,507.523,0,502,0z M365.789,174.3c11.935,0,21.645,9.709,21.645,21.644    c0,11.935-9.709,21.645-21.645,21.645c-11.935,0-21.644-9.709-21.644-21.645C344.145,184.009,353.854,174.3,365.789,174.3z     M320.937,263.942c0-14.531,11.822-26.354,26.354-26.354h8.499v23.23c0,5.523,4.477,10,10,10s10-4.477,10-10v-23.23h8.499    c14.531,0,26.354,11.822,26.354,26.354V312h-89.705V263.942z M185.85,261.667c5.212,0.029,10.203,1.637,14.434,4.649    c5.927,4.22,12.681,6.864,19.533,7.646c5.104,0.583,9.667,3.134,12.848,7.183c3.031,3.86,4.43,8.708,3.94,13.65    c-0.49,4.941-2.813,9.421-6.542,12.613c-3.458,2.961-7.862,4.591-12.414,4.591c-3.791-0.002-14.833-0.002-23.308,0l-3.144,0    c2.586-4.636,4.227-9.798,4.765-15.233c1.001-10.102-1.88-20.036-8.113-27.974c-1.985-2.528-4.237-4.766-6.701-6.696    c1.494-0.279,3.019-0.43,4.56-0.43L185.85,261.667z M107.242,304.504c-4.766-4.833-7.339-11.236-7.244-18.03    c0.191-13.679,11.48-24.808,25.166-24.808l0.141,0c5.212,0.029,10.203,1.637,14.434,4.649c5.417,3.857,11.526,6.379,17.768,7.384    c0.183,0.03,0.366,0.062,0.551,0.082c0.405,0.059,0.808,0.134,1.214,0.18c5.104,0.583,9.667,3.134,12.848,7.184    c3.031,3.859,4.43,8.707,3.94,13.649c-0.49,4.941-2.813,9.421-6.542,12.613c-3.458,2.961-7.862,4.591-12.414,4.591    c-3.792-0.002-14.833-0.003-23.308,0l-8.635,0C118.374,312,112.009,309.338,107.242,304.504z M456.865,332v160H55.135V380h101.627    c5.523,0,10-4.477,10-10s-4.477-10-10-10H55.135v-28H456.865z M45.135,108C31.276,108,20,96.724,20,82.865V20h50.27v62.865    C70.27,96.724,58.995,108,45.135,108z M115.405,108c-13.859,0-25.135-11.275-25.135-25.135V20h50.271v62.865    C140.541,96.725,129.265,108,115.405,108z M185.675,108c-13.859,0-25.135-11.275-25.135-25.135V20h50.27v62.865    C210.811,96.725,199.535,108,185.675,108z M256.054,108c-13.859,0-25.135-11.275-25.135-25.135V20h50.27v62.865    C281.189,96.725,269.914,108,256.054,108z M326.325,108c-13.86,0-25.135-11.275-25.135-25.135V20h50.27v62.865    C351.459,96.725,340.184,108,326.325,108z M396.595,108c-13.859,0-25.135-11.275-25.135-25.135V20h50.271v62.865    C421.73,96.725,410.454,108,396.595,108z M492,82.865C492,96.724,480.724,108,466.865,108S441.73,96.724,441.73,82.865V20H492    V82.865z"/>
		<path id="XMLID_219_" d="M459.796,151.93c-1.86,1.86-2.93,4.44-2.93,7.07c0,2.63,1.07,5.21,2.93,7.07s4.44,2.93,7.07,2.93    c2.63,0,5.21-1.07,7.07-2.93c1.86-1.86,2.93-4.44,2.93-7.07c0-2.63-1.07-5.21-2.93-7.07c-1.86-1.86-4.44-2.93-7.07-2.93    C464.236,149,461.656,150.07,459.796,151.93z"/>
		<path id="XMLID_255_" d="M123.606,276.83c-2.64,0-5.21,1.07-7.07,2.93c-1.87,1.86-2.93,4.44-2.93,7.07c0,2.63,1.06,5.21,2.93,7.08    c1.86,1.86,4.44,2.92,7.07,2.92s5.2-1.06,7.07-2.92c1.86-1.87,2.93-4.45,2.93-7.08c0-2.63-1.07-5.21-2.93-7.07    C128.816,277.9,126.236,276.83,123.606,276.83z"/>
		<path id="XMLID_256_" d="M196.767,380c2.63,0,5.21-1.07,7.07-2.93s2.93-4.44,2.93-7.07c0-2.63-1.07-5.21-2.93-7.07    c-1.86-1.86-4.44-2.93-7.07-2.93c-2.64,0-5.21,1.07-7.08,2.93c-1.86,1.86-2.92,4.44-2.92,7.07c0,2.63,1.06,5.21,2.92,7.07    C191.556,378.93,194.126,380,196.767,380z"/>
	</g>
</g>















</svg>
