<?xml version="1.0" encoding="iso-8859-1"?>
<!-- Generator: Adobe Illustrator 19.0.0, SVG Export Plug-In . SVG Version: 6.00 Build 0)  -->
<svg xmlns="http://www.w3.org/2000/svg" xmlns:xlink="http://www.w3.org/1999/xlink" version="1.1" id="Layer_1" x="0px" y="0px" viewBox="0 0 512 512" style="enable-background:new 0 0 512 512;" xml:space="preserve" width="512" height="512">
<g id="XMLID_1312_">
	<rect id="XMLID_2060_" x="40" y="191.995" style="fill:#72D8FF;" width="432" height="310.005"/>
	<polygon id="XMLID_1037_" style="fill:#72D8FF;" points="448,82 64,82 10,157 502,157  "/>
	<g id="XMLID_1461_">
		<path id="XMLID_1434_" style="fill:#FFFFFF;" d="M91.979,157v29c0,22.638-18.352,40.989-40.989,40.989h0    C28.352,226.989,10,208.638,10,186v-29H91.979z"/>
		<path id="XMLID_1433_" style="fill:#FF8E4B;" d="M173.958,157v29c0,22.638-18.352,40.989-40.989,40.989h0    c-22.638,0-40.989-18.352-40.989-40.989v-29H173.958z"/>
		<path id="XMLID_1432_" style="fill:#FFFFFF;" d="M255.937,157v29c0,22.638-18.352,40.989-40.989,40.989h0    c-22.638,0-40.989-18.352-40.989-40.989v-29H255.937z"/>
		<path id="XMLID_1428_" style="fill:#FF8E4B;" d="M338.042,157v29c0,22.638-18.352,40.989-40.989,40.989h0    c-22.638,0-40.989-18.352-40.989-40.989v-29H338.042z"/>
		<path id="XMLID_1427_" style="fill:#FFFFFF;" d="M420.021,157v29c0,22.638-18.352,40.989-40.989,40.989h0    c-22.638,0-40.989-18.352-40.989-40.989v-29H420.021z"/>
		<path id="XMLID_1793_" style="fill:#FF8E4B;" d="M502,157v29c0,22.638-18.352,40.989-40.989,40.989h0    c-22.638,0-40.989-18.352-40.989-40.989v-29H502z"/>
	</g>
	<rect id="XMLID_2476_" x="98" y="274" style="fill:#FFFFFF;" width="134" height="228"/>
	<rect id="XMLID_2475_" x="272" y="274" style="fill:#FFFFFF;" width="200" height="174"/>
	<g id="XMLID_1117_">
		<path id="XMLID_1125_" style="fill:#EDF2FA;" d="M318.272,100.997h34.765c0,12.877,10.44,23.318,23.318,23.318    c12.885,0,23.322-10.437,23.322-23.322c0-7.006-3.157-13.215-8.045-17.491c4.888-4.276,8.045-10.485,8.045-17.492    c0-12.885-10.437-23.322-23.322-23.322c-12.877,0-23.318,10.441-23.318,23.318l-34.761,0.004"/>
		<path id="XMLID_1122_" style="fill:#FF8E4B;" d="M187.795,10c-48.199,0.003-75.472,32.904-75.472,73.5    c0,40.596,27.269,73.5,75.472,73.5c27.639-0.002,51.672-10.826,68.475-27.713c15.971-16.05,37.722-25.008,60.364-25.008h0V62.721    h0c-22.641,0-44.392-8.957-60.362-25.006C239.468,20.826,215.435,10.002,187.795,10z"/>
	</g>
	<g id="XMLID_233_">
		<path id="XMLID_234_" d="M129.33,369c-2.63,0-5.21,1.07-7.07,2.93c-1.86,1.86-2.93,4.44-2.93,7.07c0,2.63,1.07,5.21,2.93,7.07    s4.44,2.93,7.07,2.93c2.63,0,5.21-1.07,7.08-2.93c1.86-1.86,2.92-4.44,2.92-7.07c0-2.63-1.06-5.21-2.92-7.07    C134.54,370.07,131.97,369,129.33,369z"/>
		<path id="XMLID_237_" d="M482,232.45c17.672-8.017,30-25.815,30-46.45v-29c0-2.073-0.67-4.163-1.885-5.843l-54-75    C454.236,73.547,451.216,72,448,72h-38.897c0.367-1.965,0.574-3.966,0.574-5.99c0-18.374-14.948-33.322-33.322-33.322    c-14.89,0-27.53,9.817-31.786,23.319l-20.536,0.002c-1.829-2.016-4.462-3.289-7.398-3.289c-19.906,0-39.324-8.041-53.273-22.06    C243.689,10.891,216.853,0.002,187.795,0c0,0,0,0-0.001,0c-25.69,0.002-47.477,8.502-63.003,24.582    C112.761,37.039,105.237,53.585,103.024,72H64c-3.216,0-6.236,1.547-8.115,4.157l-54,75C0.672,152.84,0,154.925,0,157v29    c0,20.635,12.328,38.433,30,46.45V348c0,5.523,4.477,10,10,10s10-4.477,10-10V236.964c0.33,0.006,0.658,0.025,0.989,0.025    c16.782,0,31.692-8.153,40.99-20.702c9.297,12.549,24.207,20.702,40.989,20.702s31.692-8.153,40.989-20.702    c9.297,12.549,24.208,20.702,40.99,20.702c16.821,0,31.76-8.192,41.053-20.791c9.293,12.599,24.232,20.791,41.053,20.791    c16.782,0,31.692-8.153,40.99-20.702c9.297,12.549,24.207,20.702,40.989,20.702s31.692-8.153,40.989-20.702    c9.297,12.549,24.208,20.702,40.99,20.702c0.332,0,0.659-0.019,0.989-0.025V264H272c-5.523,0-10,4.477-10,10v174    c0,5.523,4.477,10,10,10h190v34H242V274c0-5.523-4.477-10-10-10H98c-5.523,0-10,4.477-10,10v218H50v-64c0-5.523-4.477-10-10-10    s-10,4.477-10,10v64H10c-5.523,0-10,4.477-10,10s4.477,10,10,10h462h30c5.523,0,10-4.477,10-10s-4.477-10-10-10h-20v-44V232.45z     M482.478,147H250.891c4.409-3.198,8.581-6.752,12.469-10.659c13.951-14.021,33.369-22.062,53.275-22.062    c2.652,0,5.196-1.054,7.071-2.929c0.113-0.113,0.213-0.235,0.32-0.353h20.53c1.585,5.063,4.381,9.7,8.24,13.559    c6.293,6.293,14.66,9.759,23.559,9.759c18.374,0,33.322-14.948,33.322-33.322c0-3.066-0.437-6.089-1.267-8.993h34.468L482.478,147    z M353.037,76.006c5.522,0,9.999-4.478,9.999-10c0-7.344,5.975-13.318,13.318-13.318c7.346,0,13.322,5.977,13.322,13.322    c0,1.655-0.327,3.252-0.922,4.75c-4.286-1.456-9.718-2.197-15.613-0.32c-5.263,1.675-8.171,7.299-6.496,12.562    c1.675,5.264,7.3,8.174,12.562,6.496c2.119-0.673,4.92,0.896,5.963,1.651c2.902,2.6,4.505,6.086,4.505,9.844    c0,7.346-5.976,13.322-13.322,13.322c-3.557,0-6.901-1.385-9.417-3.901c-2.516-2.516-3.901-5.86-3.901-9.417    c0-2.652-1.053-5.196-2.929-7.071s-4.419-2.929-7.071-2.929h-26.402l0-14.988L353.037,76.006z M187.795,20    c23.696,0.002,45.498,8.798,61.389,24.768c15.326,15.403,35.846,25.11,57.451,27.418v22.627    c-21.605,2.309-42.125,12.017-57.453,27.42c-15.89,15.969-37.691,24.765-61.387,24.766c-39.772,0-65.472-24.926-65.472-63.5    C122.323,44.928,148.022,20.003,187.795,20z M69.123,92h33.571c1.723,19.619,9.416,37.287,22.096,50.419    c1.555,1.61,3.19,3.123,4.868,4.581H29.522L69.123,92z M50.989,216.989C33.902,216.989,20,203.087,20,186v-19h61.979v19    C81.979,203.087,68.077,216.989,50.989,216.989z M132.968,216.989c-17.087,0-30.989-13.902-30.989-30.989v-19h61.979v19    C163.958,203.087,150.056,216.989,132.968,216.989z M214.947,216.989c-17.088,0-30.99-13.902-30.99-30.989v-19h61.979v19    C245.937,203.087,232.035,216.989,214.947,216.989z M297.053,216.989c-17.087,0-30.989-13.902-30.989-30.989v-19h61.979v19    C328.042,203.087,314.141,216.989,297.053,216.989z M379.032,216.989c-17.087,0-30.989-13.902-30.989-30.989v-19h61.979v19    C410.021,203.087,396.119,216.989,379.032,216.989z M430.021,186v-19H492v19c0,17.087-13.902,30.989-30.989,30.989    C443.923,216.989,430.021,203.087,430.021,186z M108,492V284h114v208H108z M282,284h87.732l-30.992,30.992    c-3.905,3.905-3.905,10.237,0,14.143c1.953,1.953,4.512,2.929,7.071,2.929s5.119-0.976,7.071-2.929L398.018,284h49.84l-154,154    H282V284z M322.143,438L462,298.143V438H322.143z"/>
		<path id="XMLID_250_" d="M317.53,360.35c2.63,0,5.21-1.07,7.07-2.93c1.86-1.86,2.93-4.44,2.93-7.07c0-2.63-1.07-5.21-2.93-7.07    c-1.86-1.87-4.44-2.93-7.07-2.93s-5.21,1.06-7.07,2.93c-1.86,1.86-2.93,4.44-2.93,7.07c0,2.63,1.07,5.21,2.93,7.07    S314.9,360.35,317.53,360.35z"/>
		<path id="XMLID_251_" d="M151.78,93.52c-1.86,1.86-2.93,4.44-2.93,7.07c0,2.64,1.07,5.21,2.93,7.08c1.87,1.86,4.44,2.92,7.07,2.92    c2.64,0,5.21-1.06,7.07-2.92c1.87-1.87,2.93-4.44,2.93-7.08c0-2.63-1.06-5.21-2.93-7.07c-1.85-1.86-4.43-2.93-7.07-2.93    C156.22,90.59,153.64,91.66,151.78,93.52z"/>
		<path id="XMLID_252_" d="M187.91,52.69c2.64,0,5.21-1.07,7.07-2.93c1.86-1.86,2.93-4.44,2.93-7.07s-1.07-5.21-2.93-7.07    c-1.86-1.87-4.43-2.93-7.07-2.93c-2.63,0-5.21,1.06-7.07,2.93c-1.86,1.86-2.93,4.44-2.93,7.07s1.07,5.21,2.93,7.07    S185.28,52.69,187.91,52.69z"/>
		<path id="XMLID_253_" d="M155.15,74.98c2.63,0,5.21-1.06,7.07-2.93c1.86-1.86,2.93-4.44,2.93-7.07c0-2.63-1.07-5.21-2.93-7.07    c-1.86-1.86-4.44-2.93-7.07-2.93s-5.21,1.07-7.07,2.93c-1.86,1.86-2.93,4.44-2.93,7.07c0,2.63,1.07,5.21,2.93,7.07    C149.94,73.92,152.52,74.98,155.15,74.98z"/>
		<path id="XMLID_254_" d="M40,398c2.63,0,5.21-1.07,7.07-2.93S50,390.63,50,388c0-2.63-1.07-5.21-2.93-7.07    C45.21,379.07,42.63,378,40,378c-2.63,0-5.21,1.07-7.07,2.93C31.07,382.79,30,385.37,30,388c0,2.63,1.07,5.21,2.93,7.07    C34.79,396.93,37.37,398,40,398z"/>
	</g>
</g>















</svg>
