<?xml version="1.0" encoding="iso-8859-1"?>
<!-- Generator: Adobe Illustrator 19.0.0, SVG Export Plug-In . SVG Version: 6.00 Build 0)  -->
<svg xmlns="http://www.w3.org/2000/svg" xmlns:xlink="http://www.w3.org/1999/xlink" version="1.1" id="Layer_1" x="0px" y="0px" viewBox="0 0 512.026 512.026" style="enable-background:new 0 0 512.026 512.026;" xml:space="preserve" width="512" height="512">
<g id="XMLID_1033_">
	<path id="XMLID_1802_" style="fill:#FE8F8D;" d="M445.147,139.288l49.791,16.896l0,0c6.362-28.425,6.362-57.905,0-86.331l0,0   L445.147,86.75"/>
	<path id="XMLID_1744_" style="fill:#FE8F8D;" d="M208.959,216.039h133.169c56.896,0,103.019-46.123,103.019-103.019v0   C445.147,56.123,399.024,10,342.128,10H208.959"/>
	<circle id="XMLID_1745_" style="fill:#FFDFE0;" cx="208.959" cy="113.019" r="103.019"/>
	<circle id="XMLID_1743_" style="fill:#FE8F8D;" cx="231.123" cy="73.994" r="22.164"/>
	<circle id="XMLID_1742_" style="fill:#FE8F8D;" cx="157.072" cy="132.414" r="16.138"/>
	<circle id="XMLID_1292_" style="fill:#FE8F8D;" cx="230.217" cy="158.747" r="16.564"/>
	<g id="XMLID_1301_">
		<path id="XMLID_882_" style="fill:#FE8F8D;" d="M210.544,368.152v41.512c0,48.617-44.367,88.028-99.097,88.028    s-99.097-39.412-99.097-88.028v-41.512"/>
		<ellipse id="XMLID_883_" style="fill:#FFDFE0;" cx="111.446" cy="368.152" rx="99.097" ry="88.028"/>
		<ellipse id="XMLID_1027_" style="fill:#FE8F8D;" cx="132.766" cy="334.806" rx="21.32" ry="18.939"/>
		<ellipse id="XMLID_1019_" style="fill:#FE8F8D;" cx="65.235" cy="381.437" rx="19.224" ry="17.077"/>
		<ellipse id="XMLID_874_" style="fill:#FE8F8D;" cx="135.024" cy="404.446" rx="19.062" ry="16.933"/>
	</g>
	<g id="XMLID_870_">
		<path id="XMLID_877_" style="fill:#FE8F8D;" d="M390.273,409.798l-15.105,38.666c-17.69,45.284-73.357,65.85-124.335,45.935    s-77.963-72.769-60.273-118.053l15.105-38.666"/>
		
			<ellipse id="XMLID_878_" transform="matrix(0.9314 0.3639 -0.3639 0.9314 156.4203 -82.8029)" style="fill:#FFDFE0;" cx="297.97" cy="373.739" rx="99.097" ry="88.028"/>
		
			<ellipse id="XMLID_1017_" transform="matrix(0.9314 0.3639 -0.3639 0.9314 150.1343 -96.0414)" style="fill:#FE8F8D;" cx="329.962" cy="350.437" rx="21.32" ry="18.939"/>
		
			<ellipse id="XMLID_965_" transform="matrix(0.9314 0.3639 -0.3639 0.9314 162.8692 -72.2399)" style="fill:#FE8F8D;" cx="273.16" cy="396.136" rx="19.551" ry="17.367"/>
	</g>
	<g id="XMLID_276_">
		<path id="XMLID_279_" d="M231.123,106.158c17.735,0,32.164-14.429,32.164-32.164c0-17.735-14.429-32.164-32.164-32.164    c-17.735,0-32.164,14.429-32.164,32.164C198.959,91.729,213.388,106.158,231.123,106.158z M231.123,61.831    c6.708,0,12.164,5.457,12.164,12.164c0,6.707-5.457,12.164-12.164,12.164c-6.707,0-12.164-5.457-12.164-12.164    C218.959,67.287,224.416,61.831,231.123,61.831z"/>
		<path id="XMLID_282_" d="M130.933,132.414c0,14.413,11.726,26.138,26.138,26.138s26.138-11.726,26.138-26.138    s-11.726-26.138-26.138-26.138S130.933,118.001,130.933,132.414z M157.071,126.275c3.385,0,6.138,2.753,6.138,6.138    s-2.753,6.138-6.138,6.138s-6.138-2.753-6.138-6.138S153.687,126.275,157.071,126.275z"/>
		<path id="XMLID_285_" d="M230.217,132.184c-14.647,0-26.564,11.917-26.564,26.564s11.917,26.564,26.564,26.564    c14.647,0,26.563-11.917,26.563-26.564S244.864,132.184,230.217,132.184z M230.217,165.312c-3.619,0-6.564-2.945-6.564-6.564    s2.945-6.564,6.564-6.564s6.563,2.945,6.563,6.564S233.837,165.312,230.217,165.312z"/>
		<path id="XMLID_286_" d="M168.139,78.99c2.63,0,5.2-1.07,7.07-2.93c1.86-1.86,2.93-4.44,2.93-7.07s-1.07-5.21-2.93-7.07    c-1.86-1.86-4.44-2.93-7.07-2.93c-2.64,0-5.21,1.07-7.08,2.93c-1.86,1.86-2.92,4.44-2.92,7.07s1.06,5.21,2.92,7.07    C162.929,77.92,165.509,78.99,168.139,78.99z"/>
		<path id="XMLID_886_" d="M504.697,67.67c-0.62-2.77-2.388-5.145-4.862-6.535c-2.476-1.39-5.424-1.664-8.11-0.751l-43.154,14.644    C432.931,31.343,391.124,0,342.128,0H208.959C146.64,0,95.94,50.7,95.94,113.019c0,62.319,50.7,113.02,113.019,113.02h133.169    c1.323,0,2.669-0.023,4.001-0.069c5.52-0.191,9.839-4.821,9.648-10.34c-0.191-5.519-4.818-9.825-10.34-9.648    c-1.098,0.038-2.201,0.058-3.309,0.058h-69.054c29.522-20.411,48.905-54.492,48.905-93.02c0-19.301-4.868-37.485-13.433-53.396    h15.833c5.523,0,10-4.477,10-10s-4.477-10-10-10h-29.549c-6.367-7.438-13.682-14.041-21.755-19.623h69.054    c51.291,0,93.019,41.729,93.019,93.02c0,23.481-8.772,45.901-24.701,63.129c-3.749,4.055-3.501,10.382,0.554,14.131    c1.924,1.778,4.358,2.657,6.786,2.657c2.691,0,5.375-1.08,7.345-3.211c10.468-11.323,18.387-24.492,23.457-38.71l43.136,14.638    c1.046,0.355,2.131,0.53,3.213,0.53c1.698,0,3.386-0.432,4.897-1.281c2.474-1.39,4.242-3.766,4.862-6.535    C511.337,128.701,511.337,97.338,504.697,67.67z M301.979,113.019c0,51.291-41.729,93.02-93.02,93.02s-93.019-41.729-93.019-93.02    S157.668,20,208.959,20S301.979,61.728,301.979,113.019z M487.288,143.028l-33.668-11.425c1.01-6.097,1.527-12.309,1.527-18.584    c0-6.328-0.531-12.533-1.536-18.581l33.677-11.428C490.478,102.82,490.478,123.219,487.288,143.028z"/>
		<path id="XMLID_945_" d="M132.766,363.744c17.27,0,31.32-12.982,31.32-28.938s-14.05-28.938-31.32-28.938    s-31.32,12.982-31.32,28.938S115.496,363.744,132.766,363.744z M132.766,325.867c6.136,0,11.32,4.093,11.32,8.938    s-5.184,8.938-11.32,8.938s-11.32-4.093-11.32-8.938S126.63,325.867,132.766,325.867z"/>
		<path id="XMLID_978_" d="M94.459,381.437c0-14.93-13.11-27.077-29.225-27.077S36.01,366.506,36.01,381.437    s13.11,27.077,29.224,27.077S94.459,396.367,94.459,381.437z M56.01,381.437c0-3.836,4.224-7.077,9.224-7.077    c5,0,9.225,3.241,9.225,7.077c0,3.836-4.224,7.077-9.225,7.077C60.234,388.514,56.01,385.273,56.01,381.437z"/>
		<path id="XMLID_981_" d="M135.024,377.513c-16.025,0-29.062,12.082-29.062,26.933c0,14.851,13.037,26.933,29.062,26.933    s29.062-12.082,29.062-26.933C164.086,389.595,151.049,377.513,135.024,377.513z M135.024,411.379    c-4.912,0-9.062-3.175-9.062-6.933c0-3.758,4.15-6.933,9.062-6.933s9.062,3.175,9.062,6.933    C144.086,408.204,139.936,411.379,135.024,411.379z"/>
		<path id="XMLID_983_" d="M72.179,340.53c2.63,0,5.21-1.07,7.07-2.93c1.86-1.86,2.93-4.44,2.93-7.07s-1.07-5.21-2.93-7.07    c-1.86-1.86-4.44-2.93-7.07-2.93s-5.21,1.07-7.07,2.93c-1.87,1.86-2.93,4.44-2.93,7.07s1.06,5.21,2.93,7.07    C66.969,339.46,69.549,340.53,72.179,340.53z"/>
		<path id="XMLID_986_" d="M333.639,282.431c-26.938-10.523-55.973-11.073-81.754-1.548c-19.976,7.38-36.179,20.111-47.013,36.643    c-19.503-28.921-54.932-47.403-93.425-47.403c-60.156,0-109.097,43.975-109.097,98.028v41.512    c0,54.053,48.941,98.028,109.097,98.028c34.464,0,66.743-14.717,87.194-39.093c12.196,14.987,28.714,27.364,48.554,35.115    c14.174,5.537,28.926,8.313,43.482,8.313c13.107,0,26.056-2.251,38.272-6.765c26.201-9.68,45.923-28.559,55.533-53.159    l15.105-38.666C419.256,363.089,389.672,304.32,333.639,282.431z M111.446,290.124c36.458,0,69.404,19.702,82.821,49.253    l-13.021,33.331c-6.191,15.847-7.498,32.528-4.641,48.631c-16.852,15.842-40.304,24.841-65.159,24.841    c-49.128,0-89.097-35.003-89.097-78.028S62.318,290.124,111.446,290.124z M111.446,487.691c-42.107,0-77.482-25.714-86.734-60.151    c19.951,23.468,51.406,38.64,86.734,38.64c26.446,0,51.674-8.562,71.362-23.867c1.241,2.962,2.625,5.879,4.149,8.74    C170.694,473.753,142.202,487.691,111.446,487.691z M322.018,486.5c-21.186,7.827-45.175,7.323-67.546-1.416    c-39.22-15.322-62.813-52.145-58.901-87.589c10.044,29.119,33.822,54.696,66.729,67.552c14.343,5.604,29.048,8.255,43.323,8.255    c18.478,0,36.224-4.454,51.527-12.693C348.683,472.139,336.649,481.095,322.018,486.5z M380.959,406.159    c-15.657,40.075-65.621,58.135-111.382,40.259c-45.761-17.877-70.253-65.024-54.597-105.1    c7.502-19.203,23.069-34.003,43.835-41.675c9.98-3.687,20.58-5.525,31.341-5.525c12.084,0,24.372,2.318,36.205,6.941    C372.122,318.937,396.614,366.083,380.959,406.159z"/>
		<path id="XMLID_1535_" d="M340.491,323.482c-16.085-6.282-33.897,0.696-39.703,15.559c-5.806,14.863,2.557,32.067,18.643,38.351    c3.968,1.55,8.11,2.327,12.21,2.327c3.741,0,7.447-0.646,10.954-1.942c7.77-2.871,13.644-8.533,16.538-15.942    c2.895-7.411,2.415-15.555-1.352-22.932C354.219,331.922,348.078,326.446,340.491,323.482z M340.505,354.555    C340.505,354.556,340.505,354.556,340.505,354.555c-1.061,2.717-3.488,3.961-4.84,4.46c-2.754,1.016-5.935,0.927-8.956-0.253    c-5.715-2.233-9.054-7.932-7.292-12.445c1.263-3.233,4.864-5.139,8.906-5.139c1.6,0,3.27,0.298,4.89,0.932    c3.022,1.181,5.421,3.271,6.756,5.885C340.626,349.28,341.567,351.839,340.505,354.555z"/>
		<path id="XMLID_1538_" d="M283.118,370.645c-7.146-2.792-14.899-2.919-21.832-0.358c-7.351,2.716-12.909,8.077-15.651,15.097    c-5.491,14.055,2.389,30.314,17.567,36.244c3.779,1.477,7.659,2.175,11.441,2.175c11.406,0,21.918-6.357,26.042-16.913    C306.175,392.833,298.296,376.575,283.118,370.645z M282.056,399.611c-1.454,3.72-6.753,5.27-11.577,3.387    c-4.822-1.884-7.668-6.618-6.215-10.338c0.855-2.188,2.844-3.203,3.953-3.613c1.054-0.389,2.208-0.583,3.395-0.583    c1.403,0,2.85,0.271,4.229,0.81C280.662,391.158,283.509,395.892,282.056,399.611z"/>
		<path id="XMLID_1540_" d="M260.979,347.68c2.63,0,5.21-1.07,7.07-2.93c1.87-1.86,2.93-4.44,2.93-7.07c0-2.63-1.06-5.21-2.93-7.07    c-1.86-1.86-4.43-2.93-7.07-2.93c-2.63,0-5.21,1.07-7.07,2.93s-2.93,4.44-2.93,7.07c0,2.63,1.07,5.21,2.93,7.07    C255.769,346.61,258.349,347.68,260.979,347.68z"/>
		<path id="XMLID_1542_" d="M329.959,403.81c-2.63,0-5.21,1.07-7.07,2.93s-2.93,4.44-2.93,7.07c0,2.63,1.07,5.21,2.93,7.07    s4.44,2.93,7.07,2.93c2.63,0,5.21-1.07,7.07-2.93c1.87-1.86,2.93-4.44,2.93-7.07c0-2.63-1.06-5.21-2.93-7.07    C335.169,404.88,332.589,403.81,329.959,403.81z"/>
		<path id="XMLID_1544_" d="M373.999,49.62c0-2.63-1.07-5.21-2.93-7.07c-1.86-1.86-4.44-2.93-7.07-2.93s-5.21,1.07-7.07,2.93    s-2.93,4.44-2.93,7.07c0,2.63,1.07,5.21,2.93,7.07c1.86,1.87,4.44,2.93,7.07,2.93s5.21-1.06,7.07-2.93    C372.929,54.83,373.999,52.25,373.999,49.62z"/>
		<path id="XMLID_1545_" d="M392.399,213.73c1.86-1.86,2.93-4.44,2.93-7.07c0-2.63-1.07-5.21-2.93-7.07    c-1.86-1.86-4.44-2.93-7.07-2.93s-5.21,1.07-7.07,2.93c-1.86,1.86-2.93,4.43-2.93,7.07c0,2.63,1.07,5.21,2.93,7.07    c1.86,1.86,4.44,2.93,7.07,2.93S390.539,215.59,392.399,213.73z"/>
	</g>
</g>















</svg>
