<?xml version="1.0" encoding="iso-8859-1"?>
<!-- Generator: Adobe Illustrator 19.0.0, SVG Export Plug-In . SVG Version: 6.00 Build 0)  -->
<svg xmlns="http://www.w3.org/2000/svg" xmlns:xlink="http://www.w3.org/1999/xlink" version="1.1" id="Layer_1" x="0px" y="0px" viewBox="0 0 512.031 512.031" style="enable-background:new 0 0 512.031 512.031;" xml:space="preserve" width="512" height="512">
<g id="XMLID_894_">
	<path id="XMLID_1714_" style="fill:#FFB954;" d="M502,38.016H38c-15.464,0-28,12.536-28,28v0c0,15.464,12.536,28,28,28h464"/>
	<g id="XMLID_977_">
		<path id="XMLID_1713_" style="fill:#FFDFE0;" d="M170.939,218.817c17.419,13.68,27.505,33.08,29.816,53.335    c2.842,24.905,12.488,48.548,27.026,68.968c11.751,16.505,18.705,36.663,18.826,58.44    c0.309,55.656-44.772,101.671-100.424,102.446c-56.931,0.793-103.331-45.119-103.331-101.868c0-24.137,0.014-98.899,0.002-118.99    c-0.011-18.225,6.235-36.559,19.056-51.534C89.328,197.589,137.783,192.778,170.939,218.817z"/>
		<g id="XMLID_1710_">
			<path id="XMLID_1711_" style="fill:#FE8F8D;" d="M122.193,242.063c-11.149,0-22.251,4.634-29.898,13.565     c-7.811,9.123-9.445,18.899-9.441,25.496c0.009,14.177,0.004,55.572,0.001,87.204l-0.002,31.81     c0,16.692,6.546,32.34,18.433,44.062c11.882,11.717,27.63,18.077,44.341,17.81c33.814-0.471,61.17-28.386,60.982-62.228     c-0.071-12.813-4.018-25.077-11.412-35.463c-18.84-26.462-30.661-56.765-34.183-87.632c-1.196-10.486-6.445-19.866-14.779-26.411     l0,0C139.199,244.752,130.681,242.063,122.193,242.063z"/>
		</g>
		<circle id="XMLID_1709_" style="fill:#FFB954;" cx="144.73" cy="396.469" r="22.999"/>
	</g>
	<g id="XMLID_1580_">
		<path id="XMLID_1585_" style="fill:#FFDFE0;" d="M426.361,218.817c17.419,13.68,27.505,33.08,29.816,53.335    c2.842,24.905,12.488,48.548,27.026,68.968c11.751,16.505,18.705,36.663,18.826,58.44    c0.309,55.656-44.772,101.671-100.424,102.446c-56.931,0.793-103.331-45.119-103.331-101.868c0-24.137,0.014-98.899,0.002-118.99    c-0.011-18.225,6.235-36.559,19.056-51.534C344.751,197.589,393.205,192.778,426.361,218.817z"/>
		<g id="XMLID_1582_">
			<path id="XMLID_1583_" style="fill:#FE8F8D;" d="M377.616,242.063c-11.149,0-22.251,4.634-29.898,13.565     c-7.811,9.123-9.445,18.899-9.441,25.496c0.009,14.177,0.004,55.572,0.001,87.204l-0.002,31.81     c0,16.692,6.546,32.34,18.433,44.062c11.882,11.717,27.63,18.077,44.341,17.81c33.814-0.471,61.17-28.386,60.982-62.228     c-0.071-12.813-4.018-25.077-11.412-35.463c-18.84-26.462-30.661-56.765-34.183-87.632c-1.196-10.486-6.445-19.866-14.779-26.411     l0,0C394.621,244.752,386.104,242.063,377.616,242.063z"/>
		</g>
		<circle id="XMLID_1581_" style="fill:#FFB954;" cx="400.153" cy="396.469" r="22.999"/>
	</g>
	<g id="XMLID_302_">
		<path id="XMLID_305_" d="M111.731,396.469c0,18.196,14.803,32.999,32.999,32.999s33-14.803,33-32.999s-14.804-33-33-33    S111.731,378.273,111.731,396.469z M144.73,383.469c7.168,0,13,5.832,13,13c0,7.167-5.832,12.999-13,12.999    c-7.167,0-12.999-5.832-12.999-12.999C131.731,389.301,137.563,383.469,144.73,383.469z"/>
		<path id="XMLID_308_" d="M491.35,335.32c-13.945-19.587-22.672-41.822-25.237-64.302c-2.724-23.87-14.647-45.202-33.576-60.066    c-13.002-10.211-28.387-16.444-44.591-18.3v-60.636h16.603c16.165,0,29.511-12.28,31.21-28H502c5.523,0,10-4.477,10-10    s-4.477-10-10-10H339.947v-36h85.99c0.003,0,0.006,0,0.01,0s0.006,0,0.01,0H502c5.523,0,10-4.477,10-10s-4.477-10-10-10h-66.24    c-1.699-15.72-15.046-28-31.21-28h-53.207c-16.164,0-29.51,12.28-31.21,28H180.337c-1.699-15.72-15.046-28-31.21-28H95.92    c-16.164,0-29.51,12.28-31.21,28H38c-20.953,0-38,17.047-38,38s17.047,38,38,38h26.711c1.699,15.72,15.046,28,31.21,28h16.604    v60.568c-22.779,2.451-43.429,13.262-58.21,30.526c-10.525,12.293-17.442,27.15-20.157,42.898H32c-6.617,0-12-5.383-12-12v-20    c0-5.523-4.477-10-10-10s-10,4.477-10,10v20c0,17.645,14.355,32,32,32h0.856c0.002,7.926,0.003,19.919,0.003,33.34    c0,5.523,4.477,10,10,10h0c5.522,0,10-4.477,10-10c0-13.42,0-25.413-0.003-33.341h20c0.006,17.259,0.002,53.764-0.001,82.319    l-0.002,31.811c0,19.389,7.604,37.565,21.411,51.182c13.563,13.375,31.402,20.698,50.329,20.698c0.39,0,0.781-0.003,1.172-0.009    c39.281-0.547,71.062-32.973,70.843-72.282c-0.083-14.885-4.67-29.134-13.266-41.207c-17.862-25.088-29.063-53.777-32.394-82.966    c-1.501-13.163-8.085-24.933-18.539-33.143c-8.497-6.673-19.228-10.348-30.216-10.348c-14.544,0-28.211,6.219-37.494,17.062    c-4.81,5.618-7.746,11.435-9.496,16.883H54.53c2.458-10.952,7.568-21.237,14.977-29.89c23.781-27.777,66.513-32.01,95.256-9.436    c14.69,11.537,23.944,28.087,26.057,46.604c2.948,25.834,12.912,51.296,28.815,73.634c10.998,15.446,16.867,33.667,16.972,52.695    c0.279,50.245-40.348,91.692-90.563,92.392c-24.802,0.357-48.179-9.047-65.824-26.447c-17.648-17.404-27.368-40.638-27.368-65.422    c0-5.523-4.477-10-10-10s-10,4.477-10,10c0,30.179,11.835,58.47,33.325,79.663c21.104,20.812,48.939,32.216,78.537,32.216    c0.535,0,1.072-0.004,1.608-0.011c61.151-0.852,110.625-51.32,110.285-112.501c-0.129-23.169-7.28-45.364-20.68-64.184    c-13.945-19.587-22.672-41.822-25.237-64.302c-2.724-23.87-14.647-45.202-33.576-60.066c-13.002-10.211-28.387-16.444-44.591-18.3    v-60.636h16.603c16.165,0,29.511-12.28,31.21-28h27.521c5.523,0,10-4.477,10-10s-4.477-10-10-10H84.524v-36h85.99    c0.003,0,0.006,0,0.01,0s0.006,0,0.01,0h149.413v36h-32.087c-5.523,0-10,4.477-10,10s4.477,10,10,10h32.274    c1.699,15.72,15.046,28,31.21,28h16.604v60.568c-22.779,2.451-43.429,13.262-58.21,30.526    c-10.525,12.293-17.442,27.15-20.157,42.898h-2.157c-6.617,0-12-5.383-12-12v-20c0-5.523-4.477-10-10-10s-10,4.477-10,10v20    c0,17.645,14.355,32,32,32h0.856c0.006,17.141,0.001,53.319-0.001,81.8l-0.003,32.33c0,30.179,11.835,58.47,33.325,79.663    c21.104,20.812,48.939,32.216,78.537,32.216c0.535,0,1.072-0.004,1.608-0.011c61.151-0.852,110.625-51.32,110.285-112.501    C511.901,376.335,504.75,354.14,491.35,335.32z M99.891,262.132c5.479-6.399,13.607-10.069,22.302-10.069    c6.529,0,12.874,2.158,17.864,6.078c6.215,4.881,10.129,11.87,11.02,19.68c3.713,32.543,16.152,64.46,35.972,92.298    c6.194,8.699,9.499,18.976,9.559,29.719c0.158,28.374-22.775,51.778-51.142,52.173c-13.978,0.198-27.169-5.081-37.159-14.932    c-9.966-9.828-15.455-22.948-15.455-36.941l0.002-31.81c0.003-28.553,0.007-65.055,0.001-82.321h21.905c5.523,0,10-4.477,10-10    s-4.477-10-10-10H97.068C97.861,264.712,98.794,263.413,99.891,262.132z M351.343,20.016h53.207c5.102,0,9.43,3.37,10.879,8    h-74.965C341.913,23.386,346.242,20.016,351.343,20.016z M95.92,20.016h53.207c5.102,0,9.43,3.37,10.879,8H85.041    C86.49,23.386,90.819,20.016,95.92,20.016z M149.127,112.016H95.92c-5.102,0-9.43-3.37-10.879-8h74.965    C158.557,108.646,154.229,112.016,149.127,112.016z M64.524,84.016H38c-9.925,0-18-8.075-18-18s8.075-18,18-18h26.524V84.016z     M340.464,104.016h74.965c-1.449,4.63-5.778,8-10.879,8h-53.207C346.242,112.016,341.913,108.646,340.464,104.016z     M401.466,492.006c-24.807,0.357-48.179-9.047-65.824-26.447c-17.648-17.404-27.368-40.638-27.368-65.422l0.003-32.328    c0.003-28.479,0.007-64.653,0.001-81.802h20c0.006,17.259,0.002,53.764-0.001,82.319l-0.002,31.811    c0,19.389,7.604,37.565,21.411,51.182c13.563,13.375,31.402,20.698,50.329,20.698c0.39,0,0.781-0.003,1.172-0.009    c39.281-0.547,71.062-32.973,70.843-72.282c-0.083-14.885-4.67-29.134-13.266-41.207c-17.862-25.088-29.063-53.777-32.394-82.966    c-1.501-13.163-8.085-24.933-18.539-33.143c-8.497-6.673-19.228-10.348-30.216-10.348c-14.544,0-28.211,6.219-37.494,17.062    c-4.81,5.618-7.746,11.435-9.496,16.883h-20.674c2.458-10.952,7.568-21.238,14.977-29.891    c13.499-15.766,33.098-23.946,52.784-23.946c14.995,0,30.044,4.75,42.472,14.51c14.69,11.537,23.944,28.087,26.057,46.604    c2.948,25.834,12.912,51.296,28.815,73.634c10.998,15.446,16.867,33.667,16.972,52.695    C492.309,449.86,451.682,491.307,401.466,492.006z M370.184,266.008h-17.692c0.793-1.296,1.726-2.595,2.823-3.876    c5.479-6.399,13.607-10.069,22.302-10.069c6.529,0,12.874,2.158,17.864,6.078c6.215,4.881,10.129,11.87,11.02,19.68    c3.713,32.543,16.152,64.46,35.972,92.298c6.194,8.699,9.499,18.976,9.559,29.719c0.158,28.374-22.775,51.778-51.142,52.173    c-13.979,0.198-27.169-5.081-37.159-14.932c-9.966-9.828-15.455-22.948-15.455-36.941l0.002-31.81    c0.003-28.553,0.007-65.055,0.001-82.321h21.905c5.523,0,10-4.477,10-10S375.707,266.008,370.184,266.008z"/>
		<path id="XMLID_1530_" d="M367.154,396.469c0,18.196,14.803,32.999,32.999,32.999s33-14.803,33-32.999s-14.804-33-33-33    S367.154,378.273,367.154,396.469z M400.153,383.469c7.168,0,13,5.832,13,13c0,7.167-5.832,12.999-13,12.999    c-7.167,0-12.999-5.832-12.999-12.999C387.154,389.301,392.985,383.469,400.153,383.469z"/>
		<path id="XMLID_1531_" d="M254.93,86.945c-1.86-1.86-4.44-2.93-7.07-2.93s-5.21,1.07-7.07,2.93c-1.86,1.86-2.93,4.44-2.93,7.07    c0,2.63,1.07,5.21,2.93,7.07c1.86,1.86,4.44,2.93,7.07,2.93s5.21-1.07,7.07-2.93c1.86-1.86,2.93-4.44,2.93-7.07    C257.86,91.385,256.79,88.806,254.93,86.945z"/>
		<path id="XMLID_1533_" d="M42.86,369.345c2.63,0,5.21-1.06,7.07-2.93c1.86-1.86,2.93-4.43,2.93-7.07c0-2.63-1.07-5.21-2.93-7.07    c-1.86-1.86-4.44-2.93-7.07-2.93s-5.21,1.07-7.07,2.93c-1.86,1.86-2.93,4.44-2.93,7.07c0,2.64,1.07,5.21,2.93,7.07    C37.65,368.286,40.23,369.345,42.86,369.345z"/>
	</g>
</g>















</svg>
