<?xml version="1.0" encoding="iso-8859-1"?>
<!-- Generator: Adobe Illustrator 19.0.0, SVG Export Plug-In . SVG Version: 6.00 Build 0)  -->
<svg xmlns="http://www.w3.org/2000/svg" xmlns:xlink="http://www.w3.org/1999/xlink" version="1.1" id="Layer_1" x="0px" y="0px" viewBox="0 0 512 512" style="enable-background:new 0 0 512 512;" xml:space="preserve" width="512" height="512">
<g id="XMLID_1690_">
	<g id="XMLID_808_">
		<path id="XMLID_1841_" style="fill:#72D8FF;" d="M187.453,133.455V334H63.998V10h0C132.181,10,187.453,65.273,187.453,133.455z"/>
		<path id="XMLID_802_" style="fill:#FFFFFF;" d="M63.998,10L63.998,10l0,44.549h0c43.509,0,78.906,35.397,78.906,78.906V334v0    h44.549V133.455C187.453,65.273,132.18,10,63.998,10z"/>
		<g id="XMLID_1835_">
			<path id="XMLID_1839_" style="fill:#FFB954;" d="M121.189,473.404V334H63.998v139.404c0,15.793,12.803,28.596,28.596,28.596h0     C108.387,502,121.189,489.197,121.189,473.404z"/>
			<line id="XMLID_1838_" style="fill:#C9F3FF;" x1="92.594" y1="467.498" x2="92.594" y2="467.498"/>
			<line id="XMLID_1837_" style="fill:#C9F3FF;" x1="92.594" y1="419.943" x2="92.594" y2="419.943"/>
			<line id="XMLID_1836_" style="fill:#C9F3FF;" x1="92.594" y1="372.388" x2="92.594" y2="372.388"/>
		</g>
	</g>
	<g id="XMLID_1823_">
		<path id="XMLID_1878_" style="fill:#72D8FF;" d="M448.002,10v324H277.476V43.464c0-18.481,14.982-33.464,33.464-33.464H448.002z"/>
		<rect id="XMLID_1877_" x="400.931" y="10" style="fill:#C9F3FF;" width="47.071" height="324"/>
		<g id="XMLID_1872_">
			<path id="XMLID_1876_" style="fill:#FFB954;" d="M334.667,473.404V334h-57.191v139.404c0,15.793,12.803,28.596,28.596,28.596h0     C321.864,502,334.667,489.197,334.667,473.404z"/>
			<line id="XMLID_1875_" style="fill:#C9F3FF;" x1="306.071" y1="467.498" x2="306.071" y2="467.498"/>
			<line id="XMLID_1874_" style="fill:#C9F3FF;" x1="306.071" y1="419.943" x2="306.071" y2="419.943"/>
			<line id="XMLID_1873_" style="fill:#C9F3FF;" x1="306.071" y1="372.389" x2="306.071" y2="372.389"/>
		</g>
	</g>
	<g id="XMLID_811_">
		<path id="XMLID_852_" d="M63.998,0c-5.523,0-10,4.477-10,10v204.992c0,5.523,4.477,10,10,10s10-4.477,10-10V65.284    c33.271,4.859,58.906,33.573,58.906,68.171V324h-11.714H73.998v-29.008c0-5.523-4.477-10-10-10s-10,4.477-10,10v178.413    c0,21.282,17.314,38.596,38.596,38.596s38.596-17.314,38.596-38.596V344h56.264c5.523,0,10-4.477,10-10V133.455    C197.453,59.868,137.585,0,63.998,0z M111.189,473.404c0,10.254-8.342,18.596-18.596,18.596s-18.596-8.342-18.596-18.596V344    h37.191V473.404z M177.453,324h-24.549V133.455c0-45.642-34.573-83.355-78.906-88.34V20.437    c57.896,5.078,103.455,53.827,103.455,113.019V324z"/>
		<path id="XMLID_921_" d="M92.598,473.87c2.63,0,5.21-1.07,7.07-2.93c1.86-1.86,2.93-4.44,2.93-7.07c0-2.63-1.07-5.21-2.93-7.07    s-4.44-2.93-7.07-2.93c-2.64,0-5.21,1.07-7.07,2.93c-1.87,1.86-2.93,4.44-2.93,7.07c0,2.63,1.06,5.21,2.93,7.07    C87.388,472.8,89.958,473.87,92.598,473.87z"/>
		<path id="XMLID_923_" d="M92.598,428.13c2.63,0,5.2-1.07,7.07-2.93c1.86-1.86,2.93-4.44,2.93-7.07s-1.07-5.21-2.93-7.07    c-1.86-1.86-4.44-2.93-7.07-2.93c-2.64,0-5.21,1.07-7.08,2.93c-1.86,1.86-2.92,4.44-2.92,7.07s1.06,5.21,2.92,7.07    C87.388,427.06,89.968,428.13,92.598,428.13z"/>
		<path id="XMLID_1173_" d="M92.598,382.39c2.63,0,5.2-1.07,7.07-2.93c1.86-1.86,2.93-4.44,2.93-7.07c0-2.64-1.07-5.21-2.93-7.07    s-4.44-2.93-7.07-2.93c-2.64,0-5.22,1.07-7.08,2.93c-1.86,1.86-2.92,4.44-2.92,7.07c0,2.63,1.06,5.21,2.92,7.07    C87.388,381.32,89.958,382.39,92.598,382.39z"/>
		<path id="XMLID_1284_" d="M448.002,0H310.939c-23.966,0-43.463,19.498-43.463,43.464v429.94c0,21.282,17.314,38.596,38.596,38.596    s38.596-17.314,38.596-38.596V344h103.335c5.523,0,10-4.477,10-10V10C458.002,4.477,453.525,0,448.002,0z M410.931,144.718    l27.071,27.071v48.186l-27.071-27.071V144.718z M438.002,143.504l-27.071-27.071V20h27.071V143.504z M324.667,473.404    c0,10.254-8.342,18.596-18.596,18.596s-18.596-8.342-18.596-18.596V344h37.191V473.404z M334.667,324h-47.191V43.464    c0-12.938,10.526-23.464,23.463-23.464h79.992v177.041c0,0.003,0,0.007,0,0.01V254c0,5.523,4.477,10,10,10s10-4.477,10-10v-32.812    l27.071,27.071V324H334.667z"/>
		<path id="XMLID_1458_" d="M306.068,473.87c2.64,0,5.21-1.07,7.07-2.93c1.87-1.86,2.93-4.44,2.93-7.07c0-2.63-1.06-5.21-2.93-7.07    c-1.86-1.86-4.43-2.93-7.07-2.93c-2.63,0-5.21,1.07-7.07,2.93c-1.86,1.86-2.93,4.44-2.93,7.07c0,2.63,1.07,5.21,2.93,7.07    C300.858,472.8,303.438,473.87,306.068,473.87z"/>
		<path id="XMLID_1459_" d="M306.068,428.13c2.64,0,5.21-1.07,7.07-2.93c1.87-1.86,2.93-4.44,2.93-7.07s-1.06-5.21-2.93-7.07    c-1.86-1.86-4.43-2.93-7.07-2.93c-2.63,0-5.21,1.07-7.07,2.93c-1.86,1.86-2.93,4.44-2.93,7.07s1.07,5.21,2.93,7.07    C300.858,427.06,303.438,428.13,306.068,428.13z"/>
		<path id="XMLID_1486_" d="M306.068,382.39c2.64,0,5.21-1.07,7.07-2.93c1.87-1.86,2.93-4.44,2.93-7.07c0-2.63-1.06-5.21-2.93-7.07    c-1.86-1.86-4.43-2.93-7.07-2.93c-2.63,0-5.21,1.07-7.07,2.93c-1.86,1.86-2.93,4.44-2.93,7.07c0,2.63,1.07,5.21,2.93,7.07    C300.858,381.32,303.438,382.39,306.068,382.39z"/>
		<path id="XMLID_1511_" d="M328.27,35.929c-15.142,0-27.46,12.318-27.46,27.46s12.318,27.46,27.46,27.46s27.46-12.318,27.46-27.46    S343.411,35.929,328.27,35.929z M328.27,70.849c-4.113,0-7.46-3.347-7.46-7.46s3.347-7.46,7.46-7.46s7.46,3.347,7.46,7.46    S332.383,70.849,328.27,70.849z"/>
		<path id="XMLID_1512_" d="M63.998,264.99c2.63,0,5.21-1.06,7.07-2.93c1.86-1.86,2.93-4.43,2.93-7.07c0-2.63-1.07-5.21-2.93-7.07    s-4.44-2.93-7.07-2.93c-2.63,0-5.21,1.07-7.07,2.93c-1.86,1.86-2.93,4.44-2.93,7.07c0,2.64,1.07,5.21,2.93,7.07    C58.788,263.93,61.368,264.99,63.998,264.99z"/>
		<path id="XMLID_1513_" d="M400.928,284c-2.63,0-5.21,1.07-7.07,2.93c-1.86,1.86-2.93,4.44-2.93,7.07c0,2.63,1.07,5.21,2.93,7.07    s4.44,2.93,7.07,2.93c2.64,0,5.21-1.07,7.07-2.93c1.86-1.86,2.93-4.44,2.93-7.07c0-2.63-1.07-5.21-2.93-7.07    C406.138,285.07,403.558,284,400.928,284z"/>
	</g>
</g>















</svg>
