<?xml version="1.0" encoding="iso-8859-1"?>
<!-- Generator: Adobe Illustrator 19.0.0, SVG Export Plug-In . SVG Version: 6.00 Build 0)  -->
<svg xmlns="http://www.w3.org/2000/svg" xmlns:xlink="http://www.w3.org/1999/xlink" version="1.1" id="Layer_1" x="0px" y="0px" viewBox="0 0 512.003 512.003" style="enable-background:new 0 0 512.003 512.003;" xml:space="preserve" width="512" height="512">
<g id="XMLID_1562_">
	<g id="XMLID_1344_">
		<g id="XMLID_1347_">
			<path id="XMLID_1348_" style="fill:#FF6E37;" d="M80.225,431.77C34.94,386.485,10,326.274,10,262.231     c0.001-31.451,25.497-56.948,56.949-56.948c31.451-0.001,56.948,25.496,56.948,56.948c0,33.62,13.092,65.228,36.865,89.001     c23.773,23.773,55.381,36.865,89.001,36.865c31.452,0,56.95,25.498,56.948,56.949c0,31.452-25.496,56.948-56.948,56.949     C185.721,501.995,125.511,477.056,80.225,431.77z"/>
		</g>
		<path id="XMLID_1346_" style="fill-rule:evenodd;clip-rule:evenodd;fill:#FF8E4B;" d="M305.951,432.987l22.634-11.72    c5.159-2.671,11.179,1.603,10.359,7.354l-1.897,13.295c-0.212,1.489,0.05,3.007,0.751,4.337l6.047,11.488    c2.793,5.307-1.799,11.486-7.685,10.342l-28.131-5.466L305.951,432.987z"/>
		<path id="XMLID_1345_" style="fill-rule:evenodd;clip-rule:evenodd;fill:#FF8E4B;" d="M79.009,206.045l12.565-24.266    c2.494-4.816-1.076-10.545-6.498-10.429l-15.638,0.335c-0.939,0.02-1.873-0.145-2.748-0.486l-13.537-5.277    c-5.244-2.044-10.682,2.495-9.609,8.02l5.834,30.027L79.009,206.045z"/>
	</g>
	<g id="XMLID_2151_">
		<g id="XMLID_2244_">
			<path id="XMLID_2245_" style="fill:#FF6E37;" d="M244.774,277.872c-38.039-51.522-53.738-114.774-44.204-178.104     c4.683-31.101,33.691-52.518,64.792-47.836c31.101,4.681,52.518,33.689,47.836,64.792c-5.005,33.246,3.236,66.45,23.205,93.497     s49.276,44.699,82.521,49.704c31.102,4.682,52.52,33.691,47.836,64.792c-4.682,31.101-33.69,52.518-64.791,47.837     C338.64,363.02,282.813,329.395,244.774,277.872z"/>
		</g>
		<path id="XMLID_2153_" style="fill-rule:evenodd;clip-rule:evenodd;fill:#FF8E4B;" d="M467.803,312.678l24.127-8.22    c5.499-1.873,10.816,3.25,9.148,8.814l-3.855,12.864c-0.432,1.441-0.398,2.981,0.097,4.401l4.269,12.26    c1.972,5.663-3.489,11.09-9.139,9.082l-27.004-9.593L467.803,312.678z"/>
		<path id="XMLID_2152_" style="fill-rule:evenodd;clip-rule:evenodd;fill:#FF8E4B;" d="M277.173,54.481l16.037-22.125    c3.183-4.391,0.506-10.587-4.873-11.28l-15.514-1.997c-0.932-0.12-1.83-0.422-2.645-0.89l-12.601-7.233    c-4.881-2.802-10.935,0.877-10.696,6.5l1.299,30.561L277.173,54.481z"/>
	</g>
	<g id="XMLID_338_">
		<path id="XMLID_341_" d="M347.076,442.413l1.767-12.379c0.911-6.384-1.79-12.669-7.048-16.402    c-5.258-3.732-12.082-4.21-17.808-1.245l-12.567,6.507c-3.316-7.816-8.131-15.002-14.316-21.187    c-12.646-12.645-29.458-19.609-47.341-19.609c-30.948,0-60.045-12.052-81.93-33.937c-21.885-21.884-33.937-50.98-33.937-81.93    c0-17.883-6.964-34.696-19.609-47.341c-6.185-6.185-13.37-10.999-21.187-14.316l7.352-14.198    c2.811-5.427,2.559-11.763-0.673-16.95s-8.835-8.224-14.918-8.075l-15.07,0.322l-13.008-5.07    c-5.82-2.27-12.416-1.193-17.212,2.811c-4.797,4.003-7.036,10.3-5.845,16.433l4.993,25.698C15.877,212.217,0.001,235.4,0,262.231    c0,66.715,25.98,129.437,73.154,176.611c47.174,47.174,109.896,73.154,176.61,73.154c17.883,0,34.694-6.964,47.339-19.609    c5.631-5.631,10.128-12.092,13.392-19.102l23.755,4.616c1.116,0.217,2.232,0.323,3.336,0.323c5.354,0,10.403-2.497,13.695-6.927    c3.971-5.343,4.511-12.321,1.41-18.212L347.076,442.413z M54.349,177.121l8.71,3.395c2.11,0.822,4.326,1.214,6.593,1.166    l10.831-0.231l-7.313,14.125c-2.056-0.188-4.13-0.292-6.22-0.292c-0.002,0,0.001,0-0.001,0c-3.037,0-6.021,0.222-8.951,0.616    L54.349,177.121z M282.962,478.244c-8.867,8.868-20.657,13.751-33.197,13.751c-61.372,0-119.071-23.899-162.468-67.296    C43.899,381.303,20,323.604,20,262.231c0.001-25.888,21.063-46.949,46.949-46.948c12.54,0,24.33,4.883,33.197,13.75    s13.751,20.657,13.751,33.198c0,36.292,14.133,70.411,39.794,96.072c25.662,25.662,59.781,39.794,96.072,39.794    c12.541,0,24.331,4.884,33.198,13.751c8.867,8.868,13.751,20.657,13.75,33.198C296.712,457.587,291.829,469.376,282.962,478.244z     M316.106,454c0.391-2.945,0.606-5.932,0.606-8.953c0-2.09-0.104-4.164-0.292-6.22l11.841-6.131l-1.115,7.811    c-0.512,3.594,0.111,7.191,1.803,10.404l3.273,6.22L316.106,454z"/>
		<path id="XMLID_346_" d="M511.032,339.509l-3.965-11.387l3.59-11.979c1.851-6.178,0.115-12.795-4.529-17.269    c-4.646-4.475-11.321-5.96-17.423-3.881l-13.396,4.564c-2.116-8.223-5.808-16.045-11.003-23.082    c-10.621-14.387-26.21-23.776-43.894-26.438c-30.604-4.607-57.583-20.856-75.965-45.755    c-18.383-24.897-25.969-55.464-21.361-86.069c4.115-27.338-9.002-53.363-31.18-67.019l9.4-12.969    c3.587-4.948,4.28-11.251,1.857-16.861c-2.424-5.61-7.489-9.425-13.551-10.205l-14.95-1.925l-12.107-6.95    c-5.42-3.11-12.101-3.026-17.44,0.218c-5.339,3.245-8.49,9.138-8.225,15.379l1.112,26.156    c-24.179,7.15-43.328,27.709-47.323,54.243c-7.824,51.974,0.57,103.975,24.276,150.379c2.513,4.919,8.537,6.868,13.455,4.356    c4.918-2.513,6.868-8.536,4.355-13.455c-21.794-42.662-29.509-90.486-22.31-138.303c3.854-25.598,27.808-43.291,53.415-39.436    c25.598,3.853,43.289,27.815,39.437,53.414c-5.402,35.888,3.493,71.731,25.049,100.926c21.555,29.196,53.19,48.25,89.078,53.653    c12.4,1.867,23.332,8.451,30.78,18.54c7.449,10.089,10.522,22.474,8.655,34.875c-1.866,12.4-8.45,23.332-18.539,30.781    s-22.476,10.522-34.875,8.656c-47.523-7.154-90.75-28.407-125.007-61.46c-3.975-3.835-10.306-3.722-14.14,0.253    c-3.835,3.974-3.722,10.305,0.253,14.14c37.263,35.954,84.262,59.069,135.917,66.845c3.378,0.508,6.753,0.76,10.106,0.76    c14.202,0,27.986-4.511,39.624-13.104c6.406-4.73,11.815-10.449,16.086-16.896l22.804,8.101c1.905,0.677,3.861,1.007,5.795,1.006    c4.432,0,8.741-1.734,12.029-5.001C511.648,352.617,513.222,345.797,511.032,339.509z M257.907,41.321l-0.813-19.113l8.109,4.655    c1.964,1.126,4.098,1.844,6.345,2.134l10.744,1.383l-9.339,12.885c-1.997-0.492-4.03-0.909-6.103-1.221    C263.847,41.592,260.863,41.368,257.907,41.321z M474.717,334.969c0.825-2.854,1.483-5.776,1.933-8.763    c0.311-2.067,0.517-4.133,0.637-6.194l12.621-4.3l-2.264,7.555c-1.042,3.478-0.962,7.128,0.232,10.559l2.312,6.639    L474.717,334.969z"/>
		<path id="XMLID_348_" d="M251.84,284.945c1.87-1.86,2.93-4.44,2.93-7.07s-1.06-5.21-2.93-7.07c-1.86-1.87-4.44-2.93-7.07-2.93    s-5.21,1.06-7.069,2.93c-1.86,1.86-2.931,4.43-2.931,7.07c0,2.63,1.07,5.21,2.931,7.07c1.859,1.86,4.439,2.93,7.069,2.93    C247.41,287.875,249.979,286.806,251.84,284.945z"/>
		<path id="XMLID_349_" d="M68,262.231c0-5.523-4.478-10-10-10s-10,4.477-10,10c0,39.311,11.236,77.32,32.494,109.918    c1.917,2.94,5.118,4.539,8.386,4.539c1.872,0,3.767-0.525,5.452-1.625c4.627-3.017,5.932-9.212,2.914-13.839    C78.113,331.884,68,297.652,68,262.231z"/>
		<path id="XMLID_350_" d="M114.17,387.825c-2.63,0-5.21,1.07-7.07,2.93c-1.87,1.86-2.93,4.44-2.93,7.07c0,2.64,1.06,5.21,2.93,7.07    c1.86,1.87,4.431,2.93,7.07,2.93c2.63,0,5.21-1.06,7.07-2.93c1.859-1.86,2.93-4.44,2.93-7.07c0-2.63-1.07-5.21-2.93-7.07    C119.37,388.895,116.8,387.825,114.17,387.825z"/>
	</g>
</g>















</svg>
