<?xml version="1.0" encoding="iso-8859-1"?>
<!-- Generator: Adobe Illustrator 19.0.0, SVG Export Plug-In . SVG Version: 6.00 Build 0)  -->
<svg xmlns="http://www.w3.org/2000/svg" xmlns:xlink="http://www.w3.org/1999/xlink" version="1.1" id="Layer_1" x="0px" y="0px" viewBox="0 0 512 512" style="enable-background:new 0 0 512 512;" xml:space="preserve" width="512" height="512">
<g id="XMLID_1440_">
	<path id="XMLID_1260_" style="fill:#FFB954;" d="M185,323h-69.5C57.234,323,10,370.234,10,428.5V502h434v-73.5   c0-58.266-47.234-105.5-105.5-105.5H269"/>
	<polygon id="XMLID_1218_" style="fill:#72D8FF;" points="79,331 79,384.311 79,502 375,502 375,384.311 375,331 335,331 335,395    119,395 119,325.311  "/>
	<path id="XMLID_1098_" style="fill:#FCCB9D;" d="M227,301.297L227,301.297c-48.601,0-88-39.399-88-88v-43.173h176v43.173   C315,261.898,275.601,301.297,227,301.297z"/>
	<path id="XMLID_2100_" style="fill:#EDF2FA;" d="M308.417,10.206L308.417,10.206c-17.065,0-32.048,8.876-40.614,22.255   C259.235,18.965,244.169,10,227,10h0c-17.169,0-32.235,8.965-40.802,22.461c-8.566-13.379-23.549-22.255-40.614-22.255h0   c-26.623,0-48.205,21.582-48.205,48.205v0c0,22.611,15.571,41.577,36.572,46.783v64.64h186.098v-64.64   c21.001-5.205,36.572-24.172,36.572-46.783v0C356.621,31.788,335.039,10.206,308.417,10.206z"/>
	<rect id="XMLID_2099_" x="133.951" y="121.951" style="fill:#FFFFFF;" width="185.115" height="47.883"/>
	<path id="XMLID_2094_" style="fill:#FCCB9D;" d="M331,169.833h-16v48h16c13.255,0,24-10.745,24-24v0   C355,180.578,344.255,169.833,331,169.833z"/>
	<path id="XMLID_924_" style="fill:#FCCB9D;" d="M123,169.833h16v48h-16c-13.255,0-24-10.745-24-24v0   C99,180.578,109.745,169.833,123,169.833z"/>
	<path id="XMLID_1529_" style="fill:#FCCB9D;" d="M269,293.107v23.833c0,23.196-18.804,42-42,42h0c-23.196,0-42-18.804-42-42   v-23.833"/>
	<g id="XMLID_1403_">
		<path id="XMLID_1521_" style="fill:#72D8FF;" d="M502,10v163.508h-97.165V43.464c0-18.481,14.982-33.464,33.464-33.464H502z"/>
		<g id="XMLID_1462_">
			<path id="XMLID_1520_" style="fill:#FFB954;" d="M444.01,241.163v-67.655h-39.175v67.655c0,10.818,8.77,19.588,19.588,19.588h0     C435.24,260.751,444.01,251.981,444.01,241.163z"/>
			<line id="XMLID_1481_" style="fill:#C9F3FF;" x1="424.422" y1="213.995" x2="424.422" y2="213.995"/>
			<line id="XMLID_1463_" style="fill:#C9F3FF;" x1="424.422" y1="195.381" x2="424.422" y2="195.381"/>
		</g>
	</g>
	<g id="XMLID_364_">
		<path id="XMLID_390_" d="M279.06,132.33c2.641,0,5.21-1.06,7.08-2.93c1.86-1.86,2.92-4.43,2.92-7.07c0-2.63-1.06-5.21-2.92-7.07    c-1.87-1.86-4.439-2.93-7.08-2.93c-2.63,0-5.2,1.07-7.069,2.93c-1.86,1.86-2.931,4.44-2.931,7.07c0,2.64,1.07,5.21,2.931,7.07    C273.859,131.27,276.43,132.33,279.06,132.33z"/>
		<path id="XMLID_393_" d="M338.5,313H279v-16.675c23.707-14.901,40.615-39.663,44.92-68.492H331c18.748,0,34-15.252,34-34    s-15.252-34-34-34h-0.951V112.46c21.879-8.712,36.572-29.931,36.572-54.05c0-32.094-26.11-58.205-58.204-58.205    c-15.398,0-29.841,5.993-40.58,16.472C257.063,6.068,242.527,0,227,0s-30.063,6.068-40.837,16.678    c-10.739-10.479-25.182-16.472-40.58-16.472c-32.094,0-58.204,26.111-58.204,58.205c0,24.119,14.693,45.337,36.572,54.049v47.374    H123c-18.748,0-34,15.252-34,34s15.252,34,34,34h7.08c4.305,28.829,21.213,53.591,44.92,68.492V313h-59.5    C51.813,313,0,364.813,0,428.5V502c0,5.523,4.478,10,10,10h434c5.522,0,10-4.477,10-10v-73.5C454,364.813,402.187,313,338.5,313z     M129,333h48.55c6.783,20.835,26.381,35.94,49.45,35.94s42.667-15.105,49.45-35.94H325v52H129V333z M345,193.833    c0,7.72-6.28,14-14,14h-6v-28h6C338.72,179.833,345,186.114,345,193.833z M107.379,58.41c0-21.066,17.139-38.205,38.204-38.205    c13.083,0,25.117,6.597,32.192,17.647c1.839,2.872,5.014,4.608,8.422,4.608c0.007,0,0.013,0,0.02,0    c3.416-0.007,6.592-1.756,8.423-4.641C201.724,26.662,213.82,20,227,20s25.276,6.662,32.36,17.82    c1.831,2.884,5.007,4.634,8.423,4.641c0.007,0,0.013,0,0.02,0c3.408,0,6.583-1.736,8.422-4.608    c7.075-11.05,19.109-17.647,32.192-17.647c21.065,0,38.204,17.139,38.204,38.205c0,17.601-11.916,32.847-28.978,37.076    c-4.462,1.106-7.595,5.11-7.595,9.707v54.641H143.951v-27.5h95.114c5.522,0,10-4.477,10-10s-4.478-10-10-10h-95.114v-7.141    c0-4.596-3.133-8.601-7.595-9.707C119.295,91.258,107.379,76.012,107.379,58.41z M109,193.833c0-7.72,6.28-14,14-14h6v28h-6    C115.28,207.833,109,201.553,109,193.833z M149,213.297v-33.172h156v33.172c0,43.009-34.99,78-78,78S149,256.306,149,213.297z     M227,311.297c11.201,0,21.967-1.894,32-5.37v11.014c0,17.645-14.355,32-32,32s-32-14.355-32-32v-11.014    C205.033,309.403,215.799,311.297,227,311.297z M20,428.5c0-35.788,19.791-67.035,49-83.388V492H20V428.5z M89,492v-20h100.326    c5.522,0,10-4.477,10-10s-4.478-10-10-10H89V336.744c6.417-1.856,13.109-3.053,20-3.518V395c0,5.523,4.478,10,10,10h216    c5.522,0,10-4.477,10-10v-61.774c6.891,0.466,13.583,1.662,20,3.518V492H89z M434,492h-49V345.112    c29.209,16.353,49,47.6,49,83.388V492z"/>
		<path id="XMLID_1406_" d="M502,0h-63.702c-23.966,0-43.463,19.498-43.463,43.463v130.044v67.655    c0,16.315,13.272,29.588,29.587,29.588s29.588-13.273,29.588-29.588v-57.655H502c5.522,0,10-4.477,10-10V10    C512,4.477,507.522,0,502,0z M434.01,241.163c0,5.287-4.301,9.588-9.588,9.588c-5.286,0-9.587-4.301-9.587-9.588v-57.655h19.175    V241.163z M492,163.508h-47.99h-29.175V43.463C414.835,30.525,425.36,20,438.298,20H492V163.508z"/>
		<path id="XMLID_1439_" d="M229.33,452c-2.641,0-5.21,1.07-7.07,2.93c-1.87,1.86-2.93,4.44-2.93,7.07c0,2.63,1.06,5.21,2.93,7.07    c1.86,1.86,4.43,2.93,7.07,2.93c2.63,0,5.21-1.07,7.069-2.93c1.86-1.86,2.931-4.44,2.931-7.07c0-2.63-1.07-5.21-2.931-7.07    C234.54,453.07,231.96,452,229.33,452z"/>
	</g>
</g>















</svg>
