<?xml version="1.0" encoding="iso-8859-1"?>
<!-- Generator: Adobe Illustrator 19.0.0, SVG Export Plug-In . SVG Version: 6.00 Build 0)  -->
<svg xmlns="http://www.w3.org/2000/svg" xmlns:xlink="http://www.w3.org/1999/xlink" version="1.1" id="Layer_1" x="0px" y="0px" viewBox="0 0 511.991 511.991" style="enable-background:new 0 0 511.991 511.991;" xml:space="preserve" width="512" height="512">
<g id="XMLID_1904_">
	<path id="XMLID_365_" d="M470.54,144.561c-2.701,0-5.394-1.088-7.366-3.233c-3.736-4.066-3.47-10.393,0.597-14.129   c9.855-9.057,22.956-5.908,24.415-5.521l-5.141,19.328l0.145,0.037c-0.831-0.19-4.267-0.604-5.886,0.882   C475.383,143.689,472.958,144.561,470.54,144.561z"/>
</g>
<g id="XMLID_1423_">
	<path id="XMLID_1907_" style="fill:#FF6E37;" d="M152.185,412.491h130.778c76.74,0,140.477-60.856,142.151-137.577   c0.023-1.038,0.034-2.079,0.034-3.121c0-94.274-124.48-170.698-239.12-170.698C71.388,101.095,10,177.519,10,271.793   c0,1.043,0.011,2.083,0.034,3.121C11.707,351.636,75.445,412.491,152.185,412.491z"/>
	<path id="XMLID_1906_" style="fill:#EDF2FA;" d="M422.521,179.431l36.23-16.84c5.278,11.356,18.765,16.284,30.121,11.005   c11.363-5.282,16.289-18.763,11.007-30.126c-2.872-6.179-8.201-10.36-14.264-12.127c2.558-5.775,2.797-12.544-0.075-18.723   c-5.282-11.363-18.764-16.289-30.127-11.007c-11.356,5.278-16.284,18.766-11.005,30.122l-37.829,17.588l-5.121,12.943   L422.521,179.431z"/>
	<path id="XMLID_1903_" style="fill:#FF8E4B;" d="M279.655,143.217c-45.139,20.985-56.359,63.67-38.686,101.689   c17.672,38.02,57.534,56.965,102.678,35.981c28.818-13.398,53.675-40.23,63.327-67.795c5.845-16.69,18.349-30.212,34.385-37.666h0   l-23.654-18.324c-1.674-1.297-2.235-3.576-1.353-5.502l6.915-15.095l0,0c-16.036,7.454-34.433,8.296-50.959,2.005   C345.013,128.12,308.476,129.823,279.655,143.217z"/>
	<path id="XMLID_2006_" style="fill:#FF8E4B;" d="M185.158,368.515L185.158,368.515c-43.65,0-84.66-20.902-110.309-56.221   l-2.541-3.5c-6.109-8.412-9.399-18.542-9.399-28.939v0c0-16.326,8.091-31.591,21.602-40.757l68.939-46.765l0,0   c2.944,10.511,1.413,21.771-4.231,31.113l-19.934,33c-3.086,5.109-2.313,11.66,1.878,15.909l0,0   c2.452,2.487,5.799,3.886,9.291,3.886h28.328c27.146,0,50.365,19.509,55.044,46.248l0,0   C228.03,346.513,209.545,368.515,185.158,368.515z"/>
	<g id="XMLID_379_">
		<path id="XMLID_382_" d="M508.948,139.254c-2.548-5.481-6.58-10.088-11.575-13.376c0.706-5.939-0.216-11.991-2.764-17.474    c-7.597-16.341-27.07-23.457-43.41-15.86c-7.914,3.679-13.923,10.22-16.918,18.418c-1.813,4.962-2.392,10.171-1.75,15.265    l-3.927,1.826c-2.832-1.787-6.426-2.067-9.551-0.615c-13.657,6.348-29.398,6.977-43.187,1.728    c-16.993-6.469-37.031-8.633-56.862-6.665c-41.523-20.257-88.675-31.405-132.978-31.405c-57.067,0-104.861,18.351-138.215,53.068    C16.98,176.257,0,221.583,0,271.793c0,1.115,0.013,2.228,0.036,3.339c0.865,39.669,17.196,76.796,45.983,104.542    c28.649,27.611,66.353,42.817,106.165,42.817h25.389c5.522,0,10-4.477,10-10s-4.478-10-10-10h-25.389    c-71.333,0-130.616-57.329-132.152-127.793c-0.021-0.966-0.032-1.935-0.032-2.905c0-97.621,65.17-160.698,166.027-160.698    c32.86,0,67.44,6.594,99.758,18.822c-3.529,1.267-6.988,2.672-10.344,4.231c0,0,0,0-0.001,0    c-23.977,11.146-40.62,28.525-48.133,50.257c-7.01,20.278-5.378,43.261,4.594,64.715c9.973,21.455,26.49,37.519,46.51,45.233    c9.094,3.504,18.647,5.25,28.463,5.25c13.344,0,27.173-3.227,40.989-9.649c24.705-11.485,46.778-32.114,60.107-55.302    c4.763,12.234,7.178,24.666,7.178,37.14c0,0.971-0.011,1.938-0.032,2.903c-1.537,70.466-60.821,127.795-132.153,127.795h-25.39    c-5.522,0-10,4.477-10,10s4.478,10,10,10h25.39c39.813,0,77.516-15.206,106.165-42.818    c28.788-27.745,45.118-64.872,45.984-104.542c0.023-1.111,0.036-2.223,0.036-3.338c0-20.789-5.499-41.32-16.346-61.091    c5.533-11.376,15.028-20.748,26.773-26.207c2.982-1.386,5.06-4.148,5.618-7.364l4.113-1.912c3.48,3.775,7.835,6.691,12.797,8.504    c3.658,1.336,7.451,2.001,11.232,2.001c4.694,0,9.371-1.024,13.754-3.062C509.429,175.068,516.543,155.595,508.948,139.254z     M397.537,209.788c-8.763,25.019-32.113,49.948-58.105,62.031c-37.427,17.396-72.519,5.179-89.395-31.128    c-16.875-36.305-3.594-71.006,33.834-88.406l-0.001,0c25.993-12.08,60.104-13.86,84.882-4.429    c11.847,4.51,24.723,5.849,37.263,4.069c-0.547,4.927,1.459,9.899,5.567,13.083l12.111,9.382    C411.695,183.343,402.472,195.695,397.537,209.788z M484.658,164.527c-3.071,1.429-6.514,1.573-9.693,0.411    c-3.18-1.162-5.718-3.493-7.145-6.563c-1.118-2.405-3.146-4.268-5.637-5.178c-2.49-0.91-5.241-0.794-7.646,0.324l-15.703,7.299    l-11.591-8.98l0.64-1.397l20.741-9.643c5.008-2.328,7.181-8.275,4.853-13.283c-1.427-3.069-1.572-6.512-0.41-9.692    c1.162-3.181,3.493-5.719,6.563-7.146c6.343-2.951,13.896-0.186,16.844,6.153c1.529,3.292,1.529,7.005,0,10.457    c-1.169,2.637-1.142,5.65,0.074,8.266c1.215,2.616,3.501,4.579,6.27,5.386c3.626,1.057,6.466,3.451,7.995,6.742    C493.759,154.024,490.998,161.58,484.658,164.527z"/>
		<path id="XMLID_384_" d="M322.262,234.88c-17.464,8.118-29.164-0.784-34.294-11.818c-1.475-3.174-2.369-6.394-2.658-9.567    c-0.501-5.5-5.382-9.544-10.865-9.053c-5.5,0.5-9.553,5.365-9.053,10.865c0.498,5.472,1.991,10.917,4.439,16.184    c7.932,17.063,22.777,26.485,39.503,26.485c6.916,0,14.154-1.611,21.357-4.959c5.009-2.328,7.182-8.275,4.854-13.283    C333.217,234.726,327.271,232.55,322.262,234.88z"/>
		<path id="XMLID_385_" d="M296.806,190.163c1.422,0,2.866-0.302,4.235-0.938c0.035-0.017,0.071-0.033,0.106-0.05    c4.97-2.382,7.123-8.359,4.756-13.336s-8.364-7.078-13.348-4.725c-4.984,2.353-7.173,8.317-4.834,13.308    C289.419,188.045,293.037,190.163,296.806,190.163z"/>
		<path id="XMLID_388_" d="M168.782,266.243h-28.328c-0.811,0-1.602-0.331-2.172-0.909c-0.979-0.993-1.159-2.521-0.438-3.716    l19.934-33c7.042-11.658,8.975-25.866,5.302-38.98c-0.868-3.097-3.172-5.588-6.193-6.694c-3.021-1.107-6.389-0.691-9.05,1.115    l-68.939,46.764c-16.273,11.039-25.989,29.368-25.989,49.032c0,12.589,3.91,24.628,11.308,34.814l2.541,3.5    c27.441,37.786,71.703,60.345,118.401,60.345c14.585,0,28.33-6.404,37.712-17.571c9.382-11.166,13.32-25.81,10.807-40.176    C228.148,289.174,200.856,266.243,168.782,266.243z M207.558,348.079c-5.572,6.632-13.737,10.436-22.399,10.436    c-40.315,0-78.527-19.476-102.218-52.097l-2.541-3.5c-4.901-6.748-7.491-14.723-7.491-23.063c0-13.026,6.436-25.168,17.216-32.48    l53.693-36.422c-0.712,2.556-1.769,5.023-3.158,7.325l-19.934,33c-5.456,9.033-4.093,20.589,3.317,28.103    c4.303,4.362,10.284,6.864,16.411,6.864h28.328c22.337,0,41.344,15.969,45.193,37.972    C215.47,332.748,213.13,341.447,207.558,348.079z"/>
		<path id="XMLID_389_" d="M217.569,402.491c-2.63,0-5.21,1.07-7.069,2.93c-1.86,1.86-2.931,4.44-2.931,7.07    c0,2.63,1.07,5.21,2.931,7.07c1.859,1.86,4.439,2.93,7.069,2.93c2.631,0,5.211-1.07,7.07-2.93c1.86-1.86,2.93-4.44,2.93-7.07    c0-2.64-1.069-5.21-2.93-7.07C222.78,403.561,220.21,402.491,217.569,402.491z"/>
	</g>
</g>















</svg>
