<?xml version="1.0" encoding="iso-8859-1"?>
<!-- Generator: Adobe Illustrator 19.0.0, SVG Export Plug-In . SVG Version: 6.00 Build 0)  -->
<svg xmlns="http://www.w3.org/2000/svg" xmlns:xlink="http://www.w3.org/1999/xlink" version="1.1" id="Layer_1" x="0px" y="0px" viewBox="0 0 512.015 512.015" style="enable-background:new 0 0 512.015 512.015;" xml:space="preserve" width="512" height="512">
<g id="XMLID_1339_">
	<g id="XMLID_2204_">
		<path id="XMLID_2165_" style="fill:#FE8F8D;" d="M430.195,351.981h3.375c7.098,0,12.29,6.696,10.522,13.57l-0.868,3.376    c-0.754,2.931-0.251,6.043,1.387,8.587l4.453,6.917c1.856,2.883,2.242,6.474,1.041,9.686l-6.151,16.45    c-1.203,3.218-0.814,6.815,1.051,9.701l4.517,6.991c1.593,2.466,2.121,5.471,1.462,8.332l-3.71,16.125    c-0.52,2.259-0.303,4.626,0.618,6.753l2.135,4.931c1.261,2.911,1.186,6.229-0.205,9.08l-5.47,11.214    c-1.459,2.991-1.467,6.486-0.02,9.484l4.259,8.828h48.678l3.585-8.278c1.212-2.799,1.08-5.998-0.359-8.688l-2.962-5.538    c-1.253-2.342-1.522-5.086-0.749-7.626l4.727-15.533c0.77-2.529,0.506-5.26-0.732-7.595l-6.318-11.914    c-1.81-3.412-1.492-7.562,0.817-10.659l4.256-5.71c1.988-2.667,2.519-6.147,1.418-9.285l-6.307-17.974    c-1.296-3.694-0.317-7.804,2.505-10.517l0.339-0.326c3.117-2.997,3.954-7.657,2.075-11.551l-3.919-8.124    c-1.331-2.758-1.324-5.974,0.019-8.727l5.033-10.319c1.28-2.624,1.349-5.676,0.189-8.356l-1.965-4.538    c-0.848-1.958-1.047-4.135-0.569-6.214l3.414-14.838c0.606-2.633,0.12-5.398-1.346-7.667l-4.156-6.433    c-1.716-2.655-2.074-5.966-0.967-8.927l5.66-15.137c1.105-2.956,0.75-6.26-0.958-8.913l-4.098-6.365    c-1.507-2.341-1.97-5.205-1.276-7.902l0.799-3.107c1.627-6.326-3.151-12.488-9.683-12.488h-3.106c-3.376,0-6.524-1.704-8.37-4.53    v0c-3.243-4.964-8.772-7.957-14.701-7.957h-29.369V351.981z"/>
		<path id="XMLID_955_" style="fill:#FE8F8D;" d="M53.357,67.666l53.067-53.067c6.121-6.121,16.045-6.121,22.166,0l53.067,53.067    H53.357z"/>
		<path id="XMLID_951_" style="fill:#FE8F8D;" d="M167.776,53.784L207.87,13.69c3.55-3.55,8.871-4.647,13.536-2.791l42.171,16.781    c4.783,1.903,7.923,6.531,7.923,11.679v28.306h-89.842L167.776,53.784z"/>
		<path id="XMLID_1539_" style="fill:#72D8FF;" d="M337.61,502.008H10v0c0-19.667,15.943-35.61,35.61-35.61H302    C321.667,466.398,337.61,482.341,337.61,502.008L337.61,502.008z"/>
		<path id="XMLID_1047_" style="fill:#C9F3FF;" d="M278.831,169.057H83.476C42.896,169.057,10,201.953,10,242.532v150.39    c0,40.579,32.896,73.476,73.476,73.476h180.659c40.579,0,73.476-32.896,73.476-73.476V227.835    C337.61,195.373,311.294,169.057,278.831,169.057z"/>
		<circle id="XMLID_989_" style="fill:#FFFFFF;" cx="251.836" cy="380.625" r="43.338"/>
		<rect id="XMLID_835_" x="337.61" y="232.584" style="fill:#ADE5FF;" width="56.976" height="101.073"/>
		<rect id="XMLID_834_" x="114.882" y="131.666" style="fill:#ADE5FF;" width="112.451" height="37.39"/>
		<path id="XMLID_1635_" style="fill:#72D8FF;" d="M418.085,202.999h12.11v160.244h-12.11c-12.979,0-23.5-10.521-23.5-23.5V226.499    C394.585,213.52,405.107,202.999,418.085,202.999z"/>
		<path id="XMLID_1909_" style="fill:#72D8FF;" d="M47.108,67.666L47.108,67.666l248,0v0c0,35.346-28.654,64-64,64h-120    C75.761,131.666,47.108,103.012,47.108,67.666z"/>
	</g>
	<g id="XMLID_869_">
		<path id="XMLID_915_" d="M251.836,327.286c-29.41,0-53.338,23.927-53.338,53.338s23.928,53.338,53.338,53.338    c29.411,0,53.339-23.927,53.339-53.338S281.247,327.286,251.836,327.286z M251.836,413.963c-18.383,0-33.338-14.956-33.338-33.338    s14.955-33.338,33.338-33.338s33.339,14.956,33.339,33.338S270.219,413.963,251.836,413.963z"/>
		<path id="XMLID_917_" d="M257.229,361.09l-12.464,12.463c-3.905,3.905-3.905,10.237,0,14.142c1.953,1.953,4.512,2.929,7.071,2.929    c2.559,0,5.118-0.977,7.071-2.929l12.464-12.463c3.905-3.905,3.905-10.237,0-14.142    C267.466,357.185,261.136,357.185,257.229,361.09z"/>
		<path id="XMLID_919_" d="M99.76,230.278c-2.63,0-5.21,1.07-7.07,2.93c-1.859,1.86-2.93,4.44-2.93,7.07c0,2.63,1.07,5.21,2.93,7.07    c1.86,1.86,4.44,2.93,7.07,2.93s5.21-1.07,7.07-2.93c1.859-1.86,2.93-4.44,2.93-7.07c0-2.63-1.07-5.21-2.93-7.07    C104.97,231.348,102.39,230.278,99.76,230.278z"/>
		<path id="XMLID_930_" d="M509.615,444.064l-6.318-11.912l4.257-5.71c3.98-5.341,5.041-12.283,2.835-18.572l-6.304-17.976    l0.335-0.322c6.251-6.01,7.92-15.295,4.151-23.105l-3.919-8.122l5.032-10.319c2.564-5.255,2.702-11.347,0.378-16.714l-1.965-4.536    l3.414-14.839c1.204-5.234,0.224-10.824-2.691-15.335l-4.156-6.431l5.66-15.137c2.2-5.883,1.484-12.548-1.916-17.83l-4.098-6.363    l0.799-3.106c1.552-6.031,0.252-12.313-3.563-17.234c-3.816-4.921-9.576-7.744-15.804-7.744l-3.104,0.001    c-5.107-7.82-13.733-12.488-23.074-12.488h-19.369v-7.272c0-5.523-4.478-10-10-10h-12.11c-17.146,0-31.318,12.952-33.264,29.585    h-37.433c-2.694-35.478-32.401-63.527-68.558-63.527h-41.498v-17.672c37.899-3.175,67.774-35.013,67.774-73.719    c0-5.523-4.478-10-10-10H281.5V39.359c0-9.3-5.584-17.532-14.226-20.971L225.104,1.607c-8.384-3.336-17.924-1.369-24.305,5.012    l-33.022,33.023L135.662,7.527c-10.012-10.01-26.298-10.01-36.31,0L49.215,57.666h-2.108c-5.522,0-10,4.477-10,10    c0,38.705,29.875,70.544,67.774,73.719v17.672H83.476c-44.846,0-81.53,35.551-83.386,79.949C0.037,239.422,0,239.844,0,240.276    c0,0.255,0.02,0.505,0.038,0.755C0.029,241.532,0,242.028,0,242.532v150.39c0,26.58,12.502,50.28,31.919,65.578    C13.438,464.328,0,481.627,0,502.008c0,5.523,4.478,10,10,10h191.761c5.522,0,10-4.477,10-10s-4.478-10-10-10H22.033    c3.902-9.167,13.001-15.61,23.576-15.61h37.866h180.658H302c10.575,0,19.674,6.443,23.576,15.61h-43.819c-5.522,0-10,4.477-10,10    s4.478,10,10,10h55.853c5.522,0,10-4.477,10-10c0-20.381-13.438-37.679-31.919-43.508c19.417-15.298,31.919-38.998,31.919-65.578    v-49.265h37.212c1.946,16.633,16.117,29.585,33.264,29.585h12.11c0.947,0,1.86-0.14,2.729-0.387    c0.211,3.551,1.323,7.033,3.279,10.071l4.453,6.918c0.146,0.228,0.178,0.516,0.082,0.771l-6.149,16.45    c-2.3,6.15-1.546,13.114,2.018,18.63l4.517,6.991c0.126,0.195,0.168,0.437,0.116,0.663l-3.711,16.126    c-1.004,4.369-0.594,8.853,1.188,12.967l2.135,4.932c0.101,0.232,0.095,0.495-0.017,0.723l-5.47,11.215    c-2.818,5.78-2.833,12.417-0.039,18.213l4.26,8.829c1.725,3.574,5.295,5.657,9.014,5.657c1.458,0,2.938-0.32,4.339-0.996    c4.974-2.4,7.061-8.378,4.661-13.352l-4.259-8.826c-0.116-0.241-0.116-0.518,0.001-0.757l5.469-11.212    c2.676-5.483,2.819-11.839,0.395-17.438l-2.135-4.931c-0.074-0.171-0.091-0.358-0.05-0.538l3.71-16.125    c1.257-5.462,0.233-11.294-2.808-16.001l-4.517-6.99c-0.147-0.229-0.179-0.518-0.083-0.773l6.149-16.449    c2.296-6.139,1.548-13.093-1.999-18.602l-4.453-6.917c-0.13-0.202-0.17-0.45-0.11-0.683l0.868-3.376    c1.618-6.293,0.263-12.847-3.719-17.981c-2.577-3.323-6.005-5.721-9.863-7.005V230.271h19.369c2.563,0,4.928,1.28,6.329,3.426    c3.707,5.674,9.966,9.062,16.742,9.062l3.104-0.003l-0.799,3.106c-1.383,5.378-0.452,11.139,2.553,15.805l4.098,6.363    l-5.66,15.137c-2.205,5.895-1.482,12.571,1.934,17.856l4.156,6.431l-3.414,14.838c-0.964,4.188-0.571,8.487,1.137,12.431    l1.965,4.536l-5.032,10.319c-2.703,5.541-2.717,11.904-0.038,17.457l3.916,8.125l-0.336,0.323    c-5.628,5.412-7.594,13.668-5.009,21.036l6.308,17.972l-4.256,5.709c-4.594,6.162-5.235,14.531-1.635,21.321l6.319,11.913    l-4.728,15.532c-1.558,5.118-1.027,10.535,1.497,15.256l2.962,5.535l-3.585,8.278c-2.194,5.068,0.135,10.956,5.203,13.15    c1.295,0.561,2.643,0.826,3.969,0.826c3.865,0,7.547-2.255,9.182-6.028l3.585-8.279c2.438-5.632,2.177-11.965-0.718-17.379    l-2.962-5.535l4.728-15.534C512.629,454.163,512.109,448.768,509.615,444.064z M214.941,20.761    c0.727-0.728,1.814-0.951,2.768-0.571l42.171,16.781c0.984,0.392,1.62,1.329,1.62,2.388v18.307h-75.699l-3.882-3.882    L214.941,20.761z M113.495,21.67c2.212-2.212,5.811-2.214,8.024,0l35.996,35.996H77.5L113.495,21.67z M58.035,77.666H284.18    c-4.704,25.014-26.713,44-53.072,44h-120C84.748,121.666,62.739,102.68,58.035,77.666z M124.882,141.666h92.451v17.39h-92.451    V141.666z M327.609,392.922c0,35-28.475,63.476-63.476,63.476H83.476C48.475,456.398,20,427.923,20,392.922V335.74h79.761    c5.522,0,10-4.477,10-10s-4.478-10-10-10H20v-22.732h79.761c5.522,0,10-4.477,10-10s-4.478-10-10-10H20v-22.732h39.761    c5.522,0,10-4.477,10-10s-4.478-10-10-10H21.199c5.728-29.154,31.469-51.219,62.277-51.219h31.406h112.451h51.498    c26.896,0,48.778,21.882,48.778,48.778V392.922z M347.609,242.584h36.976v81.073h-36.976V242.584z M420.195,353.243h-2.11    c-7.444,0-13.5-6.056-13.5-13.5v-6.085V232.584v-6.085c0-7.444,6.056-13.5,13.5-13.5h2.11V353.243z"/>
		<path id="XMLID_1482_" d="M162.5,413.963h-12c-5.522,0-10,4.477-10,10s4.478,10,10,10h12c5.522,0,10-4.477,10-10    S168.022,413.963,162.5,413.963z"/>
		<path id="XMLID_1483_" d="M162.5,374.008h-12c-5.522,0-10,4.477-10,10s4.478,10,10,10h12c5.522,0,10-4.477,10-10    S168.022,374.008,162.5,374.008z"/>
		<path id="XMLID_1484_" d="M241.76,492.008c-2.63,0-5.21,1.07-7.07,2.93c-1.859,1.86-2.93,4.44-2.93,7.07    c0,2.63,1.07,5.21,2.93,7.07c1.86,1.86,4.44,2.93,7.07,2.93s5.21-1.07,7.07-2.93c1.859-1.86,2.93-4.44,2.93-7.07    c0-2.63-1.07-5.21-2.93-7.07C246.97,493.078,244.39,492.008,241.76,492.008z"/>
	</g>
</g>















</svg>
