<?xml version="1.0" encoding="iso-8859-1"?>
<!-- Generator: Adobe Illustrator 19.0.0, SVG Export Plug-In . SVG Version: 6.00 Build 0)  -->
<svg xmlns="http://www.w3.org/2000/svg" xmlns:xlink="http://www.w3.org/1999/xlink" version="1.1" id="Layer_1" x="0px" y="0px" viewBox="0 0 511.973 511.973" style="enable-background:new 0 0 511.973 511.973;" xml:space="preserve" width="512" height="512">
<g id="XMLID_912_">
	<g id="XMLID_1192_">
		<path id="XMLID_1204_" style="fill:#EDF2FA;" d="M342.995,385.027l49.349,49.349c-15.468,15.467-15.468,40.55,0,56.017    c15.477,15.477,40.55,15.477,56.027,0c8.416-8.416,12.082-19.665,11.347-30.673c11.008,0.735,22.259-2.931,30.674-11.347    c15.477-15.477,15.477-40.551,0-56.028c-15.467-15.467-40.551-15.467-56.018,0l-51.533-51.524l-24.306-0.643L342.995,385.027z"/>
		<path id="XMLID_1203_" style="fill:#FF8E4B;" d="M285.137,62.048c-73.151-73.141-164.469-64.6-226.076-2.993    c-61.608,61.609-70.159,152.925,2.993,226.077c46.703,46.696,116.804,76.077,177.49,75.261    c36.746-0.494,72.057,14.27,98.042,40.255l0,0l18.898-59.237c1.338-4.193,5.387-6.912,9.774-6.563l34.396,2.732l0,0    c-25.984-25.984-40.75-61.293-40.255-98.037C361.214,178.853,331.833,108.751,285.137,62.048z"/>
	</g>
	<g id="XMLID_863_">
		<path id="XMLID_2761_" d="M497.464,385.274c-9.37-9.37-21.828-14.53-35.081-14.53c-9.854,0-19.269,2.854-27.301,8.168    l-31.719-31.714c2.762-0.779,5.12-2.719,6.37-5.427c1.755-3.804,0.953-8.299-2.009-11.261    c-24.174-24.173-37.779-57.28-37.327-90.832c0.239-17.769-1.961-36.437-6.539-55.485c-1.291-5.37-6.688-8.677-12.06-7.386    c-5.37,1.291-8.677,6.69-7.386,12.06c4.189,17.432,6.204,34.437,5.987,50.542c-0.414,30.731,9.314,61.116,27.197,86.309    l-10.547-0.838c-9.058-0.723-17.329,4.828-20.093,13.493l-14.206,44.529c-26.458-21.255-59.679-32.958-93.342-32.507    c-58.648,0.793-125.546-27.602-170.284-72.333C4.848,213.785,3.645,128.614,66.131,66.127    c62.483-62.483,147.653-61.28,211.934,2.992c13.914,13.916,26.399,30.139,37.109,48.219c2.814,4.751,8.947,6.32,13.7,3.507    c4.751-2.814,6.322-8.948,3.507-13.7c-11.563-19.519-25.079-37.07-40.175-52.168C255.468,18.242,212.392-0.742,167.595,0.022    c-41.771,0.73-82.828,19.184-115.606,51.962C19.21,84.764,0.755,125.821,0.023,167.591c-0.784,44.784,18.22,87.875,54.959,124.614    c47.706,47.698,118.885,78.208,182.076,78.206c0.872,0,1.75-0.006,2.619-0.018c33.533-0.47,66.663,13.153,90.836,37.327    c1.898,1.898,4.451,2.929,7.072,2.929c0.786,0,1.578-0.093,2.36-0.283c3.39-0.823,6.106-3.354,7.167-6.678l0.097-0.305    l31.701,31.701c-5.315,8.032-8.167,17.447-8.167,27.3c0,13.252,5.16,25.71,14.53,35.08c9.673,9.672,22.378,14.509,35.084,14.509    s25.412-4.836,35.085-14.509c7.604-7.605,12.43-17.503,13.894-28.125c10.623-1.464,20.522-6.29,28.127-13.895    C516.81,436.098,516.81,404.62,497.464,385.274z M483.321,441.302c-4.359,4.359-9.825,7.125-15.833,8.106    c-2.407-6.98-7.372-16.143-17.498-21.38c-4.907-2.538-10.94-0.616-13.476,4.289c-2.537,4.906-0.617,10.939,4.289,13.476    c7.226,3.737,8.77,13.469,8.944,14.76c0.536,8.699-2.458,16.78-8.447,22.769c-11.547,11.547-30.337,11.548-41.885,0    c-5.592-5.592-8.672-13.028-8.672-20.938c0-7.91,3.08-15.346,8.672-20.938c1.875-1.875,2.929-4.419,2.929-7.071    c0-2.652-1.054-5.196-2.929-7.071l-45.365-45.365l11.832-37.089l7.437,0.591l53.984,53.976c3.905,3.904,10.236,3.904,14.142,0    c5.592-5.592,13.028-8.672,20.938-8.672s15.346,3.08,20.938,8.672C494.87,410.964,494.87,429.754,483.321,441.302z"/>
		<path id="XMLID_2795_" d="M99.791,89.77c1.86-1.86,2.93-4.44,2.93-7.07c0-2.63-1.07-5.21-2.93-7.07    c-1.86-1.86-4.44-2.93-7.07-2.93c-2.64,0-5.21,1.07-7.07,2.93c-1.87,1.86-2.93,4.44-2.93,7.07c0,2.63,1.06,5.21,2.93,7.07    c1.86,1.86,4.43,2.93,7.07,2.93C95.351,92.7,97.93,91.63,99.791,89.77z"/>
		<path id="XMLID_2796_" d="M71.07,139.33c1.86-1.87,2.93-4.44,2.93-7.07s-1.07-5.21-2.93-7.08c-1.86-1.86-4.44-2.92-7.07-2.92    c-2.63,0-5.21,1.06-7.07,2.92c-1.86,1.87-2.93,4.44-2.93,7.08c0,2.63,1.07,5.21,2.93,7.07c1.86,1.86,4.44,2.93,7.07,2.93    C66.63,142.26,69.21,141.19,71.07,139.33z"/>
		<path id="XMLID_2797_" d="M227.72,73.57c1.86-1.87,2.92-4.44,2.92-7.07c0-2.64-1.06-5.21-2.92-7.08    c-1.87-1.86-4.44-2.92-7.08-2.92c-2.63,0-5.2,1.06-7.07,2.92c-1.86,1.87-2.93,4.44-2.93,7.08c0,2.63,1.07,5.2,2.93,7.07    c1.87,1.86,4.44,2.93,7.07,2.93C223.28,76.5,225.851,75.43,227.72,73.57z"/>
		<path id="XMLID_2798_" d="M69.67,192.33c2.63,0,5.21-1.06,7.07-2.93c1.86-1.86,2.93-4.43,2.93-7.07c0-2.63-1.07-5.21-2.93-7.07    c-1.86-1.86-4.44-2.93-7.07-2.93c-2.64,0-5.21,1.07-7.08,2.93c-1.86,1.86-2.92,4.44-2.92,7.07c0,2.64,1.06,5.21,2.92,7.07    C64.46,191.27,67.041,192.33,69.67,192.33z"/>
		<path id="XMLID_2799_" d="M140.07,130.86c1.86-1.86,2.93-4.44,2.93-7.07c0-2.64-1.07-5.21-2.93-7.08    c-1.86-1.86-4.44-2.92-7.07-2.92c-2.63,0-5.21,1.06-7.07,2.92c-1.86,1.86-2.93,4.44-2.93,7.08c0,2.63,1.07,5.21,2.93,7.07    c1.86,1.86,4.44,2.92,7.07,2.92C135.63,133.78,138.21,132.72,140.07,130.86z"/>
		<path id="XMLID_2800_" d="M160.3,66.74c1.87-1.86,2.93-4.44,2.93-7.07c0-2.64-1.06-5.21-2.93-7.07c-1.86-1.87-4.43-2.93-7.07-2.93    c-2.63,0-5.21,1.06-7.07,2.93c-1.86,1.86-2.93,4.43-2.93,7.07c0,2.63,1.07,5.21,2.93,7.07c1.86,1.86,4.44,2.93,7.07,2.93    C155.87,69.67,158.44,68.6,160.3,66.74z"/>
		<path id="XMLID_2801_" d="M334.69,155.56c1.86,1.86,4.44,2.93,7.07,2.93s5.21-1.07,7.07-2.93c1.86-1.86,2.93-4.44,2.93-7.07    s-1.07-5.21-2.93-7.07c-1.86-1.86-4.43-2.93-7.07-2.93c-2.63,0-5.21,1.07-7.07,2.93s-2.93,4.44-2.93,7.07    S332.831,153.7,334.69,155.56z"/>
		<path id="XMLID_2802_" d="M121.268,265.79c-3.083,4.582-1.869,10.796,2.713,13.879c37.211,25.04,81.16,39.296,120.955,39.296    c0.742,0,1.483-0.005,2.223-0.015c5.522-0.074,9.939-4.611,9.865-10.133c-0.074-5.522-4.62-9.945-10.133-9.865    c-36.399,0.489-77.133-12.586-111.743-35.876C130.565,259.993,124.352,261.209,121.268,265.79z"/>
		<path id="XMLID_2803_" d="M91.676,253.232c1.953,1.953,4.512,2.929,7.071,2.929s5.119-0.976,7.071-2.929    c3.905-3.905,3.905-10.237,0-14.143l-0.144-0.144c-3.905-3.905-10.237-3.905-14.143,0c-3.905,3.905-3.905,10.237,0,14.143    L91.676,253.232z"/>
	</g>
</g>















</svg>
