<?xml version="1.0" encoding="iso-8859-1"?>
<!-- Generator: Adobe Illustrator 19.0.0, SVG Export Plug-In . SVG Version: 6.00 Build 0)  -->
<svg xmlns="http://www.w3.org/2000/svg" xmlns:xlink="http://www.w3.org/1999/xlink" version="1.1" id="Layer_1" x="0px" y="0px" viewBox="0 0 512 512" style="enable-background:new 0 0 512 512;" xml:space="preserve" width="512" height="512">
<g id="XMLID_2042_">
	<g id="XMLID_1653_">
		<circle id="XMLID_1657_" style="fill:#72D8FF;" cx="163" cy="70" r="60"/>
		<circle id="XMLID_1656_" style="fill:#FFFFFF;" cx="163" cy="70" r="24"/>
		<g id="XMLID_1654_">
			<path id="XMLID_1655_" style="fill:#72D8FF;" d="M369,305v64c0,51.28-41.72,93-93,93s-93-41.72-93-93V130h-40v239     c0,73.336,59.664,133,133,133s133-59.664,133-133v-20.667L369,305z"/>
		</g>
	</g>
	<g id="XMLID_176_">
		<path id="XMLID_183_" d="M197,70c0-18.748-15.252-34-34-34s-34,15.252-34,34s15.252,34,34,34S197,88.748,197,70z M149,70    c0-7.72,6.28-14,14-14s14,6.28,14,14s-6.28,14-14,14S149,77.72,149,70z"/>
		<path id="XMLID_190_" d="M175.93,162.93c-1.86,1.86-2.93,4.44-2.93,7.07c0,2.63,1.07,5.21,2.93,7.07    c1.86,1.86,4.44,2.93,7.07,2.93c2.63,0,5.21-1.07,7.07-2.93S193,172.63,193,170c0-2.63-1.07-5.21-2.93-7.07    c-1.86-1.86-4.44-2.93-7.07-2.93C180.37,160,177.79,161.07,175.93,162.93z"/>
		<path id="XMLID_257_" d="M416.348,341.55l-40-43.333c-2.793-3.025-7.155-4.03-10.99-2.53C361.524,297.186,359,300.883,359,305v64    c0,45.767-37.233,83-83,83s-83-37.233-83-83V210c0-5.523-4.477-10-10-10s-10,4.477-10,10v159c0,56.794,46.206,103,103,103    s103-46.206,103-103v-38.424l20,21.667V369c0,67.822-55.178,123-123,123s-123-55.178-123-123v-9.333c0-5.522-4.477-10-10-10    s-10,4.478-10,10V369c0,78.851,64.149,143,143,143s143-64.149,143-143v-20.667C419,345.819,418.053,343.397,416.348,341.55z"/>
		<path id="XMLID_260_" d="M133,279.667c0,5.522,4.477,10,10,10s10-4.478,10-10V139.274c3.268,0.47,6.604,0.726,10,0.726    c38.598,0,70-31.402,70-70S201.598,0,163,0S93,31.402,93,70c0,27.867,16.372,51.977,40,63.232V279.667z M113,70    c0-27.57,22.43-50,50-50s50,22.43,50,50s-22.43,50-50,50S113,97.57,113,70z"/>
		<path id="XMLID_261_" d="M143,309.67c-2.63,0-5.21,1.06-7.07,2.93c-1.86,1.86-2.93,4.44-2.93,7.07s1.07,5.21,2.93,7.07    c1.86,1.859,4.44,2.93,7.07,2.93c2.63,0,5.21-1.07,7.07-2.93c1.86-1.86,2.93-4.44,2.93-7.07s-1.07-5.21-2.93-7.07    C148.21,310.729,145.63,309.67,143,309.67z"/>
	</g>
</g>















</svg>
