<?xml version="1.0" encoding="iso-8859-1"?>
<!-- Generator: Adobe Illustrator 19.0.0, SVG Export Plug-In . SVG Version: 6.00 Build 0)  -->
<svg xmlns="http://www.w3.org/2000/svg" xmlns:xlink="http://www.w3.org/1999/xlink" version="1.1" id="Layer_1" x="0px" y="0px" viewBox="0 0 512.054 512.054" style="enable-background:new 0 0 512.054 512.054;" xml:space="preserve" width="512" height="512">
<g id="XMLID_2098_">
	<g id="XMLID_2089_">
		<path id="XMLID_2091_" style="fill:#D8D8E4;" d="M150.978,177.654h56.351c0,0-25.555-92.473-82.133-160.045    c-5.259-6.28-13.648-8.998-21.559-6.875c-0.198,0.053-0.397,0.107-0.595,0.16c-13.388,3.602-19.636,18.993-12.553,30.911    C108.388,71.921,138.012,126.53,150.978,177.654z"/>
	</g>
	<g id="XMLID_2021_">
		<path id="XMLID_2023_" style="fill:#D8D8E4;" d="M150.978,177.654h56.351c0,0-25.555-92.473-82.133-160.045    c-5.259-6.28-13.648-8.998-21.559-6.875c-0.198,0.053-0.397,0.107-0.595,0.16c-13.388,3.602-19.636,18.993-12.553,30.911    C108.388,71.921,138.012,126.53,150.978,177.654z"/>
	</g>
	<g id="XMLID_2019_">
		<path id="XMLID_2020_" style="fill:#D8D8E4;" d="M246.702,177.654h47.732c0,0-17.731-92.351-73.464-159.911    c-5.248-6.362-13.694-9.133-21.66-6.995c-0.182,0.049-0.363,0.098-0.545,0.146c-13.388,3.602-19.636,18.993-12.553,30.911    C204.112,71.921,233.736,126.53,246.702,177.654z"/>
	</g>
	<g id="XMLID_2017_">
		<path id="XMLID_2018_" style="fill:#D8D8E4;" d="M344.783,177.654h51.775c0,0-21.398-92.409-77.53-159.974    c-5.253-6.324-13.673-9.07-21.612-6.938c-0.19,0.051-0.379,0.102-0.569,0.153c-13.388,3.602-19.636,18.993-12.553,30.911    C302.193,71.921,331.817,126.53,344.783,177.654z"/>
	</g>
	<path id="XMLID_2016_" style="fill:#FF5D5D;" d="M413.048,189.614l72.905,165.791c10.618,24.147,16.101,50.238,16.101,76.616v0   c0,19.157-7.852,37.478-21.724,50.69l0,0c-13.016,12.396-30.301,19.31-48.276,19.31h-253.34l-27.69-324.368h243.699   C402.662,177.654,409.852,182.346,413.048,189.614z"/>
	<path id="XMLID_1817_" style="fill:#FFDFE0;" d="M101.285,168.022h24.607c14.779,0,28.161,8.734,34.11,22.263l72.61,165.121   c10.618,24.147,16.101,50.238,16.101,76.616v0c0,19.157-7.852,37.478-21.724,50.69l0,0c-13.016,12.396-30.301,19.31-48.276,19.31   h-35.141c-49.016,0-94.094-26.846-117.443-69.943l0,0C15.544,412.54,10,390.67,10,368.449v0c0-26.103,7.263-51.691,20.976-73.901   l14.273-23.117c12.274-19.88,18.775-42.783,18.775-66.147v0C64.023,184.704,80.706,168.022,101.285,168.022z"/>
	<g id="XMLID_1814_">
		<path id="XMLID_1815_" style="fill:#FF5D5D;" d="M115.913,208.022c-6.525,0-11.941,5.002-12.501,11.503    c-2.219,25.799-10.448,50.762-24.128,72.92l-14.273,23.117C55.191,331.468,50,349.755,50,368.449    c0,15.517,3.907,30.931,11.299,44.575c16.374,30.222,47.899,48.997,82.273,48.997h35.141c8.332,0,16.212-3.407,21.948-9.547    c5.295-5.667,8.08-13.265,8.051-21.02c-0.076-20.764-4.354-40.93-12.716-59.949l-68.593-155.985    C125.399,210.964,120.891,208.022,115.913,208.022L115.913,208.022z"/>
	</g>
	<g id="XMLID_411_">
		<path id="XMLID_430_" d="M207.968,459.302c6.967-7.457,10.783-17.359,10.745-27.884c-0.082-22.145-4.645-43.656-13.563-63.938    l-68.593-155.985c-3.6-8.185-11.703-13.474-20.645-13.474c-11.793,0-21.451,8.876-22.464,20.646    c-2.079,24.171-9.919,47.865-22.673,68.522l-14.273,23.117C45.707,327.794,40,347.899,40,368.449    c0,17.175,4.325,34.236,12.507,49.339c18.125,33.452,53.019,54.233,91.065,54.233h35.141    C189.916,472.022,200.305,467.504,207.968,459.302z M70.092,408.261C63.49,396.074,60,382.308,60,368.449    c0-16.836,4.675-33.308,13.521-47.634l14.273-23.118c14.39-23.307,23.236-50.042,25.582-77.315    c0.116-1.346,1.207-2.361,2.537-2.361c1.012,0,1.929,0.598,2.336,1.524l28.16,64.037c-6.463,11.169-18.473,18.105-31.385,18.105    c-5.523,0-10,4.478-10,10s4.477,10,10,10c15.449,0,30.064-6.402,40.544-17.277l15.971,36.32l-3.402,13.608    c-2.897,11.588-13.264,19.682-25.208,19.682c-6.94,0-13.465-2.703-18.373-7.61l-9.96-9.961c-3.905-3.903-10.237-3.904-14.142,0    c-3.905,3.905-3.906,10.237,0,14.143l9.961,9.961c2.919,2.919,6.168,5.386,9.653,7.39l-1.675,2.02    c-5.126,6.181-12.671,9.726-20.701,9.726c-5.523,0-10,4.478-10,10s4.477,10,10,10c14.001,0,27.157-6.181,36.096-16.958    l7.261-8.755c0.626,0.025,1.253,0.046,1.882,0.046c17.618,0,33.287-9.954,40.989-25.14l2.924,6.65    c7.805,17.751,11.799,36.579,11.871,55.96c0.02,5.331-1.934,10.491-5.358,14.156c-3.84,4.11-9.04,6.374-14.641,6.374h-35.141    C112.873,452.022,84.716,435.253,70.092,408.261z"/>
		<path id="XMLID_439_" d="M495.106,351.38l-72.905-165.791c-3.386-7.699-9.771-13.458-17.422-16.183    c-2.244-8.411-7.048-25.008-14.971-45.768c-1.969-5.16-7.75-7.746-12.908-5.777c-5.16,1.969-7.747,7.749-5.777,12.908    c5.778,15.14,9.851,28.086,12.397,36.885h-31.066c-14.302-50.69-43.143-103.328-59.564-130.958    c-1.764-2.968-2.03-6.505-0.73-9.704c1.299-3.197,3.954-5.545,7.276-6.438l0.573-0.154c4.113-1.101,8.559,0.337,11.328,3.67    c8.949,10.772,17.575,22.94,25.639,36.166c2.875,4.715,9.028,6.206,13.744,3.332c4.715-2.875,6.207-9.029,3.332-13.744    c-8.568-14.052-17.764-27.017-27.332-38.534c-7.746-9.322-20.266-13.328-31.893-10.207l-0.578,0.155    c-9.428,2.537-16.943,9.181-20.619,18.228c-3.676,9.049-2.922,19.054,2.068,27.449c15.319,25.776,41.772,73.944,55.913,120.739    h-29.124c-5.736-24.446-26.137-98.494-73.802-156.275c-7.742-9.385-20.29-13.425-31.97-10.288l-0.547,0.147    c-9.428,2.537-16.943,9.18-20.618,18.227c-3.676,9.049-2.922,19.054,2.067,27.45c15.319,25.775,41.772,73.943,55.913,120.739    h-18.748c-7.346-23.562-33.234-98.32-81.918-156.464c-7.748-9.253-20.239-13.221-31.819-10.113l-0.6,0.161    c-9.428,2.537-16.943,9.18-20.618,18.227c-3.676,9.049-2.922,19.054,2.067,27.45c14.367,24.174,38.527,68.044,53.14,112.005    c-2.976-0.587-6.033-0.898-9.14-0.898h-24.607c-26.06,0-47.262,21.202-47.262,47.262c0,21.523-5.977,42.58-17.284,60.895    l-14.272,23.116C7.769,313.1,0,340.471,0,368.449c0,23.809,5.995,47.458,17.337,68.393c25.124,46.372,73.495,75.18,126.235,75.18    h35.141h253.341c20.636,0,40.229-7.838,55.172-22.069c15.778-15.026,24.828-36.142,24.828-57.931    C512.054,404.086,506.352,376.954,495.106,351.38z M194.81,36.696c-1.764-2.968-2.03-6.505-0.731-9.705    c1.299-3.197,3.954-5.545,7.283-6.44l0.542-0.146c4.128-1.107,8.584,0.344,11.353,3.7c41.847,50.728,61.83,116.893,68.595,143.547    h-27.478C240.071,116.963,211.231,64.325,194.81,36.696z M98.355,26.992c1.299-3.197,3.954-5.545,7.28-6.439l0.595-0.16    c4.095-1.101,8.529,0.329,11.299,3.636c42.323,50.546,67.125,116.369,76.196,143.625h-35.076    c-14.302-50.69-43.143-103.328-59.564-130.957C97.322,33.728,97.056,30.191,98.355,26.992z M34.921,427.315    C25.16,409.296,20,388.94,20,368.449c0-24.265,6.738-48.003,19.485-68.648l14.272-23.117c13.258-21.474,20.266-46.164,20.266-71.4    c0-15.032,12.229-27.262,27.262-27.262h24.607c10.809,0,20.604,6.394,24.956,16.288l72.61,165.121    c10.123,23.021,15.255,47.443,15.255,72.591c0,16.342-6.787,32.178-18.621,43.448c-11.207,10.674-25.902,16.552-41.379,16.552    h-35.141C98.179,492.022,56.546,467.228,34.921,427.315z M473.434,475.47c-11.207,10.674-25.903,16.552-41.379,16.552H231.607    c0.768-0.678,1.533-1.36,2.279-2.069c15.778-15.026,24.828-36.142,24.828-57.931c0-27.937-5.702-55.068-16.947-80.642    l-71.997-163.727h37.56h39.373h47.732h50.348h49.94c3.972,0,7.572,2.35,9.171,5.986l72.905,165.791    c10.123,23.021,15.256,47.444,15.256,72.591C492.054,448.363,485.267,464.199,473.434,475.47z"/>
		<path id="XMLID_872_" d="M285.956,297.995c-2.223-5.055-8.124-7.349-13.179-5.129c-5.056,2.224-7.352,8.124-5.128,13.18    l23.475,53.385c10.123,23.021,15.256,47.444,15.256,72.591c0,5.522,4.477,10,10,10s10-4.478,10-10    c0-27.936-5.702-55.067-16.948-80.642L285.956,297.995z"/>
		<path id="XMLID_873_" d="M269.885,261.447l-0.075-0.171c-2.225-5.055-8.125-7.349-13.181-5.126    c-5.055,2.225-7.35,8.126-5.126,13.181l0.075,0.171c1.648,3.745,5.314,5.976,9.159,5.976c1.345,0,2.712-0.273,4.022-0.85    C269.814,272.403,272.109,266.502,269.885,261.447z"/>
		<path id="XMLID_875_" d="M331.73,246.632c-2.222-5.056-8.123-7.353-13.179-5.128c-5.056,2.223-7.352,8.124-5.129,13.179    l46.062,104.748c10.123,23.021,15.256,47.444,15.256,72.591c0,5.522,4.477,10,10,10s10-4.478,10-10    c0-27.936-5.702-55.067-16.948-80.642L331.73,246.632z"/>
		<path id="XMLID_876_" d="M393.209,252.069c-2.183-5.073-8.063-7.418-13.138-5.234c-5.073,2.183-7.417,8.065-5.234,13.138    l42.788,99.457c10.123,23.021,15.256,47.444,15.256,72.591c0,5.522,4.477,10,10,10s10-4.478,10-10    c0-27.936-5.702-55.067-16.916-80.568L393.209,252.069z"/>
		<path id="XMLID_879_" d="M357.343,97.611c1.86,1.86,4.44,2.93,7.07,2.93c2.64,0,5.21-1.07,7.07-2.93    c1.87-1.86,2.93-4.44,2.93-7.07c0-2.63-1.06-5.21-2.93-7.07c-1.86-1.86-4.44-2.93-7.07-2.93c-2.63,0-5.21,1.07-7.07,2.93    c-1.86,1.86-2.93,4.44-2.93,7.07C354.413,93.171,355.483,95.752,357.343,97.611z"/>
	</g>
</g>















</svg>
