<?xml version="1.0" encoding="iso-8859-1"?>
<!-- Generator: Adobe Illustrator 19.0.0, SVG Export Plug-In . SVG Version: 6.00 Build 0)  -->
<svg xmlns="http://www.w3.org/2000/svg" xmlns:xlink="http://www.w3.org/1999/xlink" version="1.1" id="Layer_1" x="0px" y="0px" viewBox="0 0 511.979 511.979" style="enable-background:new 0 0 511.979 511.979;" xml:space="preserve" width="512" height="512">
<g id="XMLID_1444_">
	<g id="XMLID_1182_">
		<g id="XMLID_1208_">
			<path id="XMLID_1209_" style="fill:#FF8E4B;" d="M283.197,327.85c-38.356,0-76.119-12.746-106.727-36.612     c-25.139-19.601-22.891-58.287,4.415-74.736l0,0c16.208-9.764,36.658-8.302,51.602,3.305     c18.285,14.203,41.92,20.067,64.724,16.059c18.636-3.275,37.397,4.992,47.161,21.2l0,0c16.383,27.196,0.512,62.469-30.738,68.078     C303.527,326.958,293.341,327.85,283.197,327.85z"/>
		</g>
		<g id="XMLID_1206_">
			<path id="XMLID_1207_" style="fill:#FF8E4B;" d="M457.005,154.284c0,38.356-12.746,76.119-36.612,106.727     c-19.601,25.139-58.287,22.891-74.736-4.415l0,0c-9.764-16.208-8.302-36.658,3.305-51.602     c14.203-18.285,20.067-41.92,16.059-64.724c-3.275-18.636,4.992-37.397,21.2-47.161l0,0     c27.196-16.383,62.469-0.512,68.078,30.738C456.113,133.954,457.005,144.14,457.005,154.284z"/>
		</g>
		<g id="XMLID_1191_">
			<path id="XMLID_1205_" style="fill:#FF8E4B;" d="M238.796,31.577c37.404-8.493,77.052-4.424,112.184,12.072     c28.855,13.549,35.229,51.772,12.242,73.859l0,0c-13.644,13.11-33.91,16.212-51.053,8.202     c-20.975-9.802-45.323-10.287-66.673-1.33c-17.448,7.32-37.575,3.412-50.684-10.232l0,0     c-21.998-22.894-14.33-60.805,14.902-73.194C219.168,36.948,228.904,33.823,238.796,31.577z"/>
		</g>
		<g id="XMLID_1189_">
			<path id="XMLID_1190_" style="fill:#FF8E4B;" d="M38.591,140.037c17.156-34.306,45.447-62.379,80.482-79.08     c28.776-13.717,62.37,5.597,64.869,37.377v0c1.483,18.863-8.972,36.5-26.037,44.674c-20.881,10.001-36.698,28.518-43.313,50.705     c-5.406,18.133-21.192,31.215-40.055,32.698h0c-31.652,2.488-56.101-27.484-47.139-57.942     C30.296,158.619,34.054,149.11,38.591,140.037z"/>
		</g>
		<g id="XMLID_1187_">
			<path id="XMLID_1188_" style="fill:#FF8E4B;" d="M35.401,375.928C15.44,343.175,6.673,304.296,11.123,265.74     c3.656-31.667,37.86-49.88,66.116-35.124l0,0c16.772,8.759,26.166,26.983,24.031,45.784c-2.612,23.005,4.68,46.24,19.969,63.626     c12.495,14.209,15.199,34.532,6.44,51.304l0,0c-14.697,28.143-53.077,32.946-74.129,9.18     C46.743,392.824,40.68,384.59,35.401,375.928z"/>
		</g>
		<g id="XMLID_1185_">
			<path id="XMLID_1186_" style="fill:#FF8E4B;" d="M251.855,479.139c-37.125,9.64-76.879,6.794-112.503-8.612     c-29.258-12.654-36.806-50.663-14.511-73.447l0,0c13.234-13.524,33.395-17.249,50.776-9.77     c21.267,9.151,45.618,8.887,66.682-0.723c17.214-7.854,37.452-4.567,50.975,8.666l0,0c22.692,22.205,16.196,60.335-12.641,73.618     C271.309,473.166,261.674,476.59,251.855,479.139z"/>
		</g>
		<g id="XMLID_1183_">
			<path id="XMLID_1184_" style="fill:#FF8E4B;" d="M362.024,379.755c37.125-9.64,76.879-6.794,112.503,8.612     c29.258,12.654,36.806,50.663,14.511,73.447l0,0c-13.234,13.524-33.395,17.249-50.776,9.77     c-21.267-9.151-45.618-8.887-66.682,0.723c-17.214,7.854-37.452,4.567-50.975-8.666l0,0     c-22.692-22.205-16.196-60.335,12.641-73.618C342.571,385.728,352.206,382.305,362.024,379.755z"/>
		</g>
	</g>
	<g id="XMLID_427_">
		<path id="XMLID_454_" d="M510.939,419.427c-3.524-17.933-15.652-32.975-32.443-40.237c-37.277-16.121-79.533-19.357-118.985-9.112    h0c-10.436,2.709-20.681,6.364-30.45,10.864c-8.382,3.861-15.518,9.701-20.925,16.857c-2.231-3.478-4.849-6.741-7.866-9.693    c-16.496-16.142-40.879-20.308-62.12-10.616c-18.525,8.451-39.876,8.682-58.579,0.635c-12.071-5.194-25.041-5.977-36.952-2.729    c1.37-14.907-3.392-30.059-13.869-41.973c-13.446-15.291-19.84-35.663-17.543-55.895c2.008-17.682-4.211-34.599-16.337-46.378    c13.894-6.637,24.649-18.961,29.306-34.58c5.817-19.513,19.686-35.748,38.05-44.543c12.813-6.137,22.426-16.461,27.588-28.784    c15.959,14.881,38.989,18.985,59.551,10.359c18.776-7.877,40.125-7.452,58.571,1.168c7.743,3.618,15.921,5.383,23.998,5.383    c7.743,0,15.389-1.63,22.464-4.799c0.129,2.206,0.384,4.425,0.775,6.648c3.525,20.054-1.617,40.778-14.107,56.858    c-7.298,9.395-11.274,20.413-11.851,31.575c-10.204-4.809-21.909-6.495-33.735-4.418c-20.054,3.523-40.778-1.618-56.858-14.108    c-18.439-14.323-43.127-15.882-62.896-3.974c-15.62,9.409-25.598,25.891-26.692,44.088c-1.097,18.243,6.861,35.851,21.289,47.1    c32.028,24.973,72.115,38.726,112.876,38.726c10.783,0,21.618-0.963,32.203-2.862c17.876-3.209,33.03-15.016,40.538-31.582    c2.928-6.461,4.532-13.32,4.866-20.209c6.311,2.992,13.206,4.822,20.377,5.253c1.115,0.066,2.226,0.1,3.335,0.1    c17.035,0,33.203-7.844,43.764-21.389c6.45-8.271,12.226-17.174,17.167-26.46c2.594-4.875,0.745-10.931-4.131-13.525    c-4.876-2.595-10.931-0.745-13.525,4.131c-4.399,8.269-9.541,16.194-15.282,23.557c-7.306,9.369-18.281,14.336-30.127,13.624    c-11.795-0.709-22.058-6.924-28.158-17.049c-7.607-12.628-6.572-28.45,2.637-40.307c15.946-20.529,22.51-46.986,18.011-72.589    c-2.599-14.787,3.882-29.257,16.511-36.864c10.136-6.105,22.136-6.805,32.923-1.916c10.73,4.863,18.076,14.287,20.152,25.855    c1.691,9.421,2.548,19.067,2.548,28.669c0,1.34-0.017,2.68-0.049,4.018c-0.135,5.521,4.232,10.106,9.753,10.241    c5.492,0.131,10.106-4.231,10.241-9.753c0.037-1.5,0.055-3.003,0.055-4.506c0-10.784-0.963-21.619-2.863-32.203    c-3.208-17.875-15.015-33.03-31.582-40.538c-14.562-6.599-31.141-6.555-45.532-0.116c-0.115-1.87-0.302-3.744-0.61-5.614    c-2.97-18.033-14.629-33.441-31.188-41.216c-36.763-17.262-78.899-21.798-118.649-12.773c-10.516,2.388-20.868,5.726-30.769,9.922    c-13.424,5.689-23.899,16.399-29.403,29.618c-3.015-2.803-6.349-5.304-9.991-7.408c-15.826-9.14-35.133-9.898-51.647-2.026    C78.11,69.405,47.88,99.107,29.648,135.564c-4.823,9.645-8.808,19.766-11.843,30.082c-5.126,17.423-1.346,36.257,10.113,50.382    c1.398,1.723,2.893,3.342,4.464,4.866c-0.687,0.328-1.377,0.65-2.053,1.008c-16.148,8.558-27.042,24.517-29.14,42.69    c-4.657,40.345,4.46,81.732,25.673,116.539c5.61,9.206,12.071,17.957,19.204,26.009c10.542,11.9,25.624,18.592,41.33,18.592    c2.235,0,4.484-0.136,6.733-0.411c2.736-0.335,5.412-0.893,8.027-1.615c-0.481,5.203-0.249,10.506,0.784,15.763    c3.524,17.933,15.652,32.974,32.442,40.235c22.992,9.943,47.877,14.985,72.833,14.985c15.503,0,31.035-1.946,46.153-5.872h0    c10.434-2.71,20.678-6.365,30.449-10.864c8.383-3.861,15.518-9.702,20.925-16.858c2.231,3.478,4.849,6.74,7.866,9.693    c10.584,10.356,24.414,15.784,38.58,15.783c7.911,0,15.929-1.693,23.541-5.166c18.525-8.451,39.876-8.684,58.579-0.636    c21.447,9.229,45.735,4.534,61.876-11.961C508.938,455.775,514.454,437.315,510.939,419.427z M337.721,295.149    c-4.863,10.73-14.287,18.076-25.854,20.152c-9.422,1.69-19.068,2.548-28.67,2.548c-36.328,0-72.047-12.251-100.578-34.497    c-9.369-7.306-14.334-18.287-13.623-30.128c0.709-11.794,6.923-22.057,17.049-28.157c5.627-3.39,11.885-5.063,18.146-5.063    c7.792,0,15.586,2.594,22.161,7.7c20.529,15.946,46.99,22.51,72.589,18.011c14.79-2.597,29.257,3.882,36.864,16.511    C341.911,272.362,342.61,284.362,337.721,295.149z M192.865,75.537c2.366-11.541,9.93-20.79,20.751-25.376    c8.813-3.735,18.03-6.707,27.394-8.833c35.426-8.043,72.971-4.005,105.72,11.373c10.754,5.049,18.027,14.658,19.955,26.362    c1.92,11.659-1.867,23.043-10.391,31.234c-10.631,10.216-26.29,12.709-39.891,6.353c-12.344-5.769-25.705-8.662-39.078-8.662    c-12.14,0-24.291,2.385-35.697,7.17c-13.845,5.809-29.39,2.692-39.605-7.939C193.824,98.686,190.486,87.139,192.865,75.537z     M36.991,171.291c2.702-9.183,6.25-18.194,10.544-26.782c16.249-32.491,43.183-58.958,75.841-74.526    c10.726-5.111,22.767-4.641,33.039,1.291c10.232,5.91,16.632,16.058,17.559,27.843c1.156,14.697-6.847,28.385-20.387,34.871    c-23.444,11.229-41.15,31.956-48.577,56.867c-4.29,14.387-16.559,24.431-31.256,25.586c-11.795,0.924-22.842-3.816-30.303-13.013    C36.029,194.28,33.674,182.566,36.991,171.291z M91.699,405.471c-11.696,1.433-22.869-2.793-30.662-11.591    c-6.349-7.167-12.101-14.957-17.097-23.155c-18.905-31.021-27.032-67.897-22.883-103.838c1.362-11.802,8.155-21.757,18.636-27.311    c5.252-2.783,10.896-4.175,16.544-4.175c5.581,0,11.165,1.359,16.373,4.079c13.068,6.825,20.418,20.875,18.725,35.792    c-2.933,25.827,5.23,51.836,22.396,71.357c9.914,11.274,11.91,27.003,5.085,40.071C113.338,397.19,103.454,404.031,91.699,405.471    z M276.451,459.788c-8.697,4.005-17.818,7.26-27.109,9.673c-35.163,9.129-72.814,6.249-106.021-8.113    c-10.904-4.716-18.47-14.096-20.757-25.734c-2.278-11.595,1.157-23.09,9.424-31.539c6.786-6.936,15.852-10.595,25.188-10.595    c4.85,0,9.773,0.987,14.488,3.016c23.877,10.274,51.136,9.98,74.786-0.811c13.658-6.233,29.292-3.597,39.831,6.716    c8.458,8.276,12.149,19.715,10.129,31.385C294.401,445.393,287.126,454.871,276.451,459.788z M481.89,454.821    c-10.312,10.536-25.886,13.513-39.677,7.578c-23.878-10.275-51.135-9.979-74.785,0.812c-13.661,6.231-29.294,3.595-39.831-6.717    c-8.458-8.276-12.15-19.716-10.129-31.385c2.01-11.608,9.285-21.085,19.96-26.002c8.696-4.006,17.816-7.26,27.107-9.673h0    c13.479-3.5,27.321-5.234,41.142-5.234c22.23,0,44.402,4.49,64.878,13.347c10.904,4.716,18.47,14.097,20.757,25.736    C493.592,434.877,490.157,446.373,481.89,454.821z"/>
		<path id="XMLID_865_" d="M443.999,191.251c-1.86,1.86-2.92,4.44-2.92,7.07c0,2.64,1.06,5.21,2.92,7.07    c1.87,1.87,4.45,2.93,7.08,2.93s5.2-1.06,7.07-2.93c1.86-1.86,2.93-4.43,2.93-7.07c0-2.63-1.07-5.21-2.93-7.07    c-1.87-1.86-4.44-2.93-7.07-2.93C448.439,188.321,445.869,189.391,443.999,191.251z"/>
		<path id="XMLID_866_" d="M253.738,278.983c-17.323-4.858-33.253-12.895-47.35-23.886c-4.354-3.395-10.639-2.618-14.035,1.737    c-3.396,4.355-2.618,10.639,1.737,14.035c16.157,12.599,34.408,21.808,54.246,27.372c0.903,0.253,1.812,0.374,2.706,0.374    c4.37,0,8.385-2.888,9.623-7.303C262.158,285.995,259.056,280.475,253.738,278.983z"/>
		<path id="XMLID_880_" d="M291.048,284.116c-0.018,0-0.035,0-0.052,0c-5.518,0-10.048,4.47-10.055,9.987    c-0.007,5.518,4.511,9.999,10.029,10.013c0.009,0,0.017,0,0.026,0c5.505,0,10.033-4.452,10.054-9.961    C301.072,288.638,296.565,284.144,291.048,284.116z"/>
	</g>
</g>















</svg>
