<?xml version="1.0" encoding="iso-8859-1"?>
<!-- Generator: Adobe Illustrator 19.0.0, SVG Export Plug-In . SVG Version: 6.00 Build 0)  -->
<svg xmlns="http://www.w3.org/2000/svg" xmlns:xlink="http://www.w3.org/1999/xlink" version="1.1" id="Layer_1" x="0px" y="0px" viewBox="0 0 512.01 512.01" style="enable-background:new 0 0 512.01 512.01;" xml:space="preserve" width="512" height="512">
<g id="XMLID_1526_">
	<g id="XMLID_1014_">
		<polygon id="XMLID_449_" style="fill:#FE8F8D;" points="418.294,374.367 433.944,406.622 463.951,368.387 427.568,359.353   "/>
		<polygon id="XMLID_448_" style="fill:#FE8F8D;" points="259.031,474.746 277.566,502.01 307.833,470.415 273.169,460.42   "/>
		<g id="XMLID_1381_">
			<g id="XMLID_1387_">
				<path id="XMLID_1388_" style="fill:#FF5D5D;" d="M402.722,384.706c-10.621,4.048-22.83,3.849-33.84-1.551      c-59.557-29.206-112.462-66.303-157.244-110.261c-35.992-35.33-66.804-75.11-91.581-118.236      c-19.464-33.878-32.189-64.68-40.312-88.399c-8.491-24.792,7.261-51.278,33.099-55.651l0,0      c20.548-3.478,40.541,8.475,47.299,28.189c6.821,19.898,17.941,46.858,35.445,76.753      c47.959,81.911,118.85,146.282,210.7,191.324c21.064,10.329,29.767,35.779,19.437,56.843      C420.796,373.773,412.421,381.01,402.722,384.706z"/>
			</g>
			<g id="XMLID_1389_">
				<path id="XMLID_1390_" style="fill:#FE8F8D;" d="M236.73,481.069c-11.367,0-22.704-4.534-31.069-13.501      c-45.252-48.501-81.476-102.007-107.667-159.031c-21.05-45.831-35.675-93.976-43.469-143.099      c-6.123-38.589-7.044-71.903-6.187-96.959c0.895-26.19,25.046-45.33,50.748-40.215l0,0c20.44,4.068,34.865,22.357,34.159,43.186      c-0.712,21.022,0.078,50.175,5.787,84.344c15.644,93.62,58.962,179.017,128.75,253.817      c16.004,17.154,15.073,44.034-2.081,60.039C257.512,477.289,247.108,481.069,236.73,481.069z"/>
			</g>
		</g>
	</g>
	<g id="XMLID_450_">
		<path id="XMLID_466_" d="M473.408,365.137c-1.102-3.208-3.755-5.638-7.047-6.455l-26.778-6.649    c2.919-21.765-8.116-43.948-28.891-54.136c-90.057-44.163-159.524-107.212-206.474-187.397    c-14.285-24.398-25.932-49.613-34.615-74.943c-8.391-24.479-32.963-39.116-58.428-34.806C98.831,2.839,87.853,9.139,79.871,18.606    c-7.818,1.663-15.246,5.096-21.673,10.189c-12.092,9.582-19.329,23.922-19.855,39.343c-1.104,32.282,1.018,65.546,6.305,98.868    c4.023,25.354,9.903,50.739,17.478,75.451c1.619,5.281,7.211,8.249,12.492,6.63s8.249-7.211,6.63-12.492    c-7.301-23.822-12.97-48.29-16.847-72.724c-5.087-32.063-7.129-64.043-6.069-95.051c0.326-9.545,4.805-18.421,12.289-24.352    c7.483-5.929,17.147-8.261,26.513-6.397c15.676,3.12,26.66,17.015,26.117,33.04c-0.951,28.09,1.04,57.136,5.918,86.331    c15.974,95.592,60.15,182.729,131.301,258.991c12.217,13.095,11.504,33.688-1.591,45.905c-6.034,5.63-13.9,8.73-22.148,8.73    c-9.11,0-17.547-3.666-23.758-10.323c-42.573-45.629-77.059-95.808-102.502-149.141c-2.377-4.985-8.348-7.1-13.331-4.72    c-4.985,2.378-7.098,8.347-4.72,13.331c26.322,55.178,61.962,107.05,105.929,154.173c9.89,10.601,23.879,16.68,38.381,16.68    c6.547,0,12.941-1.215,18.912-3.522l13.655,20.085c1.697,2.496,4.43,4.092,7.437,4.343c0.279,0.023,0.557,0.035,0.834,0.035    c2.714,0,5.326-1.105,7.22-3.082l30.267-31.594c2.421-2.528,3.345-6.138,2.435-9.519c-0.91-3.38-3.521-6.038-6.885-7.008    l-23.733-6.843c5.287-17.351,1.46-36.985-11.779-51.175c-43.886-47.037-77.071-98.325-99.283-153.238    c9.223,10.502,18.843,20.683,28.824,30.48c45.547,44.709,99.327,82.426,159.846,112.103c7.246,3.553,15.177,5.345,23.125,5.345    c6.331,0,12.672-1.138,18.68-3.427c2.958-1.128,5.778-2.515,8.445-4.123l10.217,21.058c1.505,3.103,4.502,5.21,7.931,5.578    c0.357,0.038,0.713,0.057,1.068,0.057c3.05,0,5.958-1.396,7.865-3.826l30.007-38.235    C473.911,371.892,474.51,368.345,473.408,365.137z M289.169,475.442l-10.279,10.729l-6.305-9.274    c1.661-1.555,3.186-3.202,4.6-4.912L289.169,475.442z M399.161,375.362c-8.513,3.245-17.702,2.824-25.876-1.186    c-58.595-28.733-110.624-65.21-154.642-108.419c-22.428-22.015-42.981-46.011-61.124-71.338    c-3.466-13.245-6.352-26.669-8.625-40.273c-4.66-27.885-6.563-55.594-5.656-82.358c0.76-22.428-12.492-42.265-32.544-50.428    c1.247-0.367,2.52-0.672,3.82-0.892c15.758-2.668,30.971,6.405,36.171,21.572c9.114,26.586,21.319,53.019,36.275,78.563    c48.968,83.635,121.28,149.326,214.926,195.249c14.973,7.343,21.778,24.753,16.278,40.098c-0.004,0.01-0.007,0.021-0.011,0.031    c-0.404,1.124-0.868,2.237-1.406,3.333C413.114,366.726,406.868,372.425,399.161,375.362z M435.956,387.86l-5.862-12.081    c1.096-1.517,2.115-3.098,3.05-4.738l13.4,3.327L435.956,387.86z"/>
		<path id="XMLID_469_" d="M95.63,278.119c0-2.63-1.07-5.21-2.93-7.069c-1.86-1.87-4.44-2.931-7.07-2.931    c-2.63,0-5.21,1.061-7.07,2.931c-1.86,1.859-2.93,4.439-2.93,7.069c0,2.631,1.07,5.21,2.93,7.07s4.44,2.93,7.07,2.93    c2.63,0,5.21-1.069,7.07-2.93C94.561,283.329,95.63,280.75,95.63,278.119z"/>
	</g>
</g>















</svg>
