<?xml version="1.0" encoding="iso-8859-1"?>
<!-- Generator: Adobe Illustrator 19.0.0, SVG Export Plug-In . SVG Version: 6.00 Build 0)  -->
<svg xmlns="http://www.w3.org/2000/svg" xmlns:xlink="http://www.w3.org/1999/xlink" version="1.1" id="Layer_1" x="0px" y="0px" viewBox="0 0 512.002 512.002" style="enable-background:new 0 0 512.002 512.002;" xml:space="preserve" width="512" height="512">
<g id="XMLID_1660_">
	<g id="XMLID_2414_">
		<path id="XMLID_2416_" style="fill:#FFC66C;" d="M484.495,126.002h-88.018c-11.175,0-19.139-10.762-15.976-21.48    c2.728-9.245,6.001-18.338,9.829-27.227c2.923-6.788,4.332-14.381,3.799-22.357c-1.61-24.118-20.516-43.108-44.627-44.812    c-28.23-1.995-51.752,20.316-51.752,48.121c0,6.377,1.238,12.463,3.486,18.032c3.744,9.274,7.041,18.707,9.839,28.267    c3.136,10.715-4.816,21.455-15.981,21.455h-87.6c-9.665,0-17.5,7.835-17.5,17.5v341c0,9.665,7.835,17.5,17.5,17.5h277    c9.665,0,17.5-7.835,17.5-17.5v-341C501.995,133.837,494.16,126.002,484.495,126.002z"/>
		<circle id="XMLID_2415_" style="fill:#FFFFFF;" cx="345.995" cy="58.247" r="17.245"/>
	</g>
	<g id="XMLID_2405_">
		<path id="XMLID_2410_" style="fill:#FFDFE0;" d="M330.475,430.84c-15.982-12.551-25.236-30.351-27.357-48.935    c-2.607-22.85-11.457-44.543-24.796-63.278c-10.782-15.144-17.162-33.638-17.273-53.618    c-0.284-51.065,41.079-93.283,92.139-93.994c52.234-0.728,94.806,41.397,94.806,93.464c0,22.145-0.013,90.74-0.002,109.173    c0.01,16.721-5.721,33.543-17.484,47.282C405.352,450.316,360.896,454.73,330.475,430.84z"/>
		<g id="XMLID_2407_">
			<path id="XMLID_2408_" style="fill:#FE8F8D;" d="M375.2,409.511c10.23,0,20.415-4.251,27.431-12.446     c7.166-8.37,8.666-17.34,8.662-23.392c-0.008-13.007-0.004-50.987-0.001-80.009l0.002-29.185     c0-15.315-6.006-29.672-16.912-40.427c-10.902-10.751-25.351-16.585-40.683-16.341c-31.024,0.432-56.124,26.044-55.951,57.094     c0.065,11.756,3.686,23.008,10.471,32.537c17.286,24.279,28.132,52.082,31.363,80.403c1.098,9.621,5.914,18.227,13.56,24.232l0,0     C359.597,407.045,367.411,409.511,375.2,409.511z"/>
		</g>
		<circle id="XMLID_2406_" style="fill:#FFB954;" cx="354.521" cy="267.844" r="21.102"/>
	</g>
	<g id="XMLID_1930_">
		<path id="XMLID_2404_" style="fill:#72D8FF;" d="M127.814,384.238L48.595,247.027l84.467-48.767l127.986,221.678l0,0    C214.398,446.872,154.747,430.888,127.814,384.238z"/>
		<path id="XMLID_2377_" style="fill:#FFFFFF;" d="M261.048,419.938L261.048,419.938l-17.598-30.48l0,0    c-29.768,17.187-67.969,6.951-85.156-22.817L79.075,229.429l0,0l-30.48,17.598l79.219,137.211    C154.747,430.888,214.398,446.872,261.048,419.938z"/>
		<g id="XMLID_1938_">
			<path id="XMLID_2375_" style="fill:#FFB954;" d="M13.831,106.128l69.702,120.727l49.529-28.596L63.36,77.532     c-7.896-13.677-25.385-18.363-39.062-10.467l0,0C10.62,74.962,5.934,92.451,13.831,106.128z"/>
			<line id="XMLID_2374_" style="fill:#C9F3FF;" x1="41.548" y1="96.945" x2="41.548" y2="96.945"/>
			<line id="XMLID_2373_" style="fill:#C9F3FF;" x1="65.326" y1="138.129" x2="65.326" y2="138.129"/>
			<line id="XMLID_2372_" style="fill:#C9F3FF;" x1="89.103" y1="179.312" x2="89.103" y2="179.312"/>
		</g>
	</g>
	<g id="XMLID_908_">
		<path id="XMLID_939_" d="M43.364,90.082c-2.64,0-5.21,1.07-7.07,2.93c-1.87,1.86-2.93,4.44-2.93,7.07c0,2.64,1.06,5.21,2.93,7.07    c1.86,1.87,4.43,2.93,7.07,2.93c2.63,0,5.21-1.06,7.07-2.93c1.86-1.86,2.93-4.44,2.93-7.07c0-2.63-1.07-5.2-2.93-7.07    C48.574,91.152,45.995,90.082,43.364,90.082z"/>
		<path id="XMLID_942_" d="M66.235,129.702c-2.64,0-5.21,1.06-7.07,2.93c-1.86,1.86-2.93,4.43-2.93,7.07c0,2.63,1.07,5.21,2.93,7.07    c1.86,1.86,4.43,2.93,7.07,2.93c2.63,0,5.21-1.07,7.07-2.93c1.86-1.86,2.93-4.44,2.93-7.07s-1.07-5.21-2.93-7.07    C71.445,130.762,68.864,129.702,66.235,129.702z"/>
		<path id="XMLID_953_" d="M96.174,172.242c-1.86-1.86-4.44-2.93-7.07-2.93s-5.21,1.07-7.07,2.93c-1.86,1.86-2.93,4.44-2.93,7.07    c0,2.63,1.07,5.21,2.93,7.07c1.86,1.86,4.44,2.93,7.07,2.93s5.21-1.07,7.07-2.93c1.86-1.86,2.93-4.44,2.93-7.07    C99.105,176.682,98.035,174.102,96.174,172.242z"/>
		<path id="XMLID_1018_" d="M251.049,265.064c0.119,21.428,6.733,41.954,19.126,59.362c12.714,17.857,20.669,38.125,23.007,58.612    c2.523,22.12,13.574,41.889,31.115,55.665h0c14.564,11.438,32.346,17.525,50.805,17.525c2.77,0,5.557-0.138,8.349-0.414    c21.391-2.12,40.8-12.198,54.653-28.378c12.836-14.993,19.9-34.097,19.888-53.792c-0.008-12.984-0.004-50.858-0.001-79.853    l0.002-29.314c0-27.912-10.946-54.077-30.821-73.678c-19.871-19.597-46.176-30.181-74.125-29.786    C296.492,161.803,250.735,208.479,251.049,265.064z M353.328,181.013c22.544-0.279,43.772,8.22,59.803,24.028    c16.034,15.813,24.864,36.921,24.864,59.438l-0.002,29.313c-0.003,28.999-0.007,66.88,0.001,79.866    c0.009,14.924-5.347,29.404-15.081,40.772c-21.535,25.154-60.231,28.986-86.261,8.546h0    c-13.304-10.449-21.685-25.438-23.598-42.204c-2.721-23.842-11.914-47.337-26.585-67.944    c-9.992-14.034-15.324-30.588-15.419-47.874C270.796,219.304,307.706,181.649,353.328,181.013z"/>
		<path id="XMLID_1038_" d="M329.647,378.878c1.403,12.297,7.554,23.293,17.32,30.964c7.94,6.235,17.967,9.669,28.233,9.669    c13.586,0,26.354-5.811,35.028-15.941c9.155-10.693,11.071-22.164,11.066-29.902c-0.008-13.006-0.004-50.982,0-80.003    l0.002-29.186c0-18.012-7.063-34.897-19.89-47.548c-12.86-12.681-29.898-19.522-47.844-19.219    c-36.492,0.508-66.015,30.63-65.812,67.148c0.077,13.828,4.339,27.065,12.324,38.281    C316.38,326.046,326.607,352.235,329.647,378.878z M353.86,217.709c0.255-0.004,0.508-0.006,0.763-0.006    c12.313,0,23.915,4.766,32.739,13.467c8.985,8.862,13.934,20.691,13.934,33.307l-0.002,29.185    c-0.003,29.024-0.007,67.009,0,80.018c0.003,4.363-1.081,10.834-6.258,16.882c-4.87,5.688-12.099,8.949-19.835,8.949    c-5.807,0-11.447-1.918-15.881-5.399c-5.528-4.342-9.008-10.557-9.801-17.501c-3.423-29.997-14.887-59.414-33.152-85.068    c-5.583-7.842-8.563-17.107-8.617-26.793C307.607,239.167,328.283,218.065,353.86,217.709z"/>
		<path id="XMLID_1068_" d="M354.522,298.946c17.149,0,31.102-13.952,31.102-31.103c0-17.149-13.952-31.102-31.102-31.102    c-17.15,0-31.102,13.952-31.102,31.102C323.42,284.994,337.372,298.946,354.522,298.946z M354.522,256.742    c6.122,0,11.102,4.98,11.102,11.102c0,6.122-4.98,11.103-11.102,11.103s-11.102-4.98-11.102-11.103    C343.42,261.723,348.4,256.742,354.522,256.742z"/>
		<path id="XMLID_1119_" d="M484.495,116.002h-88.018c-2.898,0-4.579-1.669-5.323-2.664c-1.289-1.724-1.676-3.906-1.062-5.986    c2.626-8.9,5.796-17.682,9.422-26.102c3.673-8.53,5.218-17.607,4.593-26.978c-1.956-29.291-24.625-52.052-53.9-54.121    c-16.367-1.154-31.96,4.339-43.911,15.476c-11.786,10.982-18.545,26.517-18.545,42.62c0,7.524,1.417,14.851,4.213,21.776    c3.655,9.054,6.856,18.25,9.514,27.333c0.61,2.085,0.22,4.27-1.071,5.993c-0.743,0.991-2.42,2.654-5.312,2.654h-87.6    c-15.164,0-27.5,12.336-27.5,27.5v47.758c0,5.523,4.477,10,10,10s10-4.477,10-10v-47.758c0-4.136,3.364-7.5,7.5-7.5h87.6    c8.471,0,16.241-3.886,21.317-10.661c5.104-6.812,6.657-15.415,4.261-23.604c-2.843-9.713-6.262-19.538-10.163-29.202    c-1.831-4.535-2.759-9.343-2.759-14.289c0-10.729,4.326-20.669,12.18-27.988c7.847-7.311,18.101-10.912,28.867-10.158    C368,21.459,382.868,36.39,384.152,55.604c0.413,6.178-0.599,12.145-3.006,17.735c-3.941,9.15-7.385,18.689-10.236,28.352    c-2.417,8.187-0.876,16.797,4.225,23.621c5.078,6.793,12.857,10.69,21.342,10.69h88.018c4.136,0,7.5,3.364,7.5,7.5v341    c0,4.136-3.364,7.5-7.5,7.5h-277c-4.136,0-7.5-3.364-7.5-7.5v-42.254c4.13,0.48,8.291,0.737,12.467,0.737    c18.23-0.001,36.696-4.635,53.586-14.386c2.297-1.326,3.973-3.51,4.659-6.072c0.687-2.562,0.327-5.291-0.999-7.588L141.722,193.26    L72.02,72.532c-5.154-8.928-13.478-15.314-23.436-17.983c-9.958-2.667-20.359-1.299-29.287,3.856    C0.867,69.046-5.471,92.697,5.171,111.128l64.702,112.067l-26.278,15.172c-2.297,1.326-3.973,3.51-4.659,6.072    c-0.687,2.562-0.327,5.292,0.999,7.588l21.234,36.779c2.761,4.781,8.877,6.421,13.66,3.66c4.783-2.762,6.422-8.877,3.66-13.66    l-16.234-28.119l13.16-7.598l74.219,128.552c13.384,23.182,37.748,36.155,62.769,36.155c9.092,0,18.271-1.719,27.041-5.278    l7.661,13.27c-40.225,17.474-88.188,2.322-110.63-36.549l-17.978-31.138c-2.761-4.783-8.878-6.423-13.66-3.66    c-4.783,2.762-6.422,8.877-3.66,13.66l17.978,31.138c13.988,24.228,36.049,40.942,60.841,48.74v46.524    c0,15.163,12.336,27.5,27.5,27.5h277c15.164,0,27.5-12.337,27.5-27.5v-341C511.995,128.338,499.658,116.002,484.495,116.002z     M22.491,101.128c-5.127-8.88-2.073-20.275,6.807-25.402c8.881-5.126,20.276-2.072,25.402,6.807L119.402,194.6l-32.208,18.596    L22.491,101.128z M166.954,361.641L92.736,233.089l32.657-18.855l4.009-2.315l99.903,173.038    C206.1,392.949,179.673,383.671,166.954,361.641z"/>
		<path id="XMLID_1124_" d="M373.24,58.247c0-15.023-12.222-27.245-27.245-27.245S318.75,43.224,318.75,58.247    s12.222,27.245,27.245,27.245S373.24,73.27,373.24,58.247z M345.995,65.492c-3.995,0-7.245-3.25-7.245-7.245    c0-3.995,3.25-7.245,7.245-7.245c3.995,0,7.245,3.25,7.245,7.245C353.24,62.242,349.99,65.492,345.995,65.492z"/>
		<path id="XMLID_1130_" d="M197.065,238.332c1.86-1.86,2.93-4.44,2.93-7.07s-1.07-5.21-2.93-7.07c-1.86-1.86-4.44-2.93-7.07-2.93    c-2.63,0-5.21,1.07-7.07,2.93c-1.86,1.86-2.93,4.44-2.93,7.07s1.07,5.21,2.93,7.07c1.86,1.86,4.44,2.93,7.07,2.93    C192.625,241.262,195.205,240.192,197.065,238.332z"/>
		<path id="XMLID_1131_" d="M89.815,308.422c-2.63,0-5.21,1.07-7.07,2.93c-1.86,1.86-2.93,4.44-2.93,7.07s1.07,5.21,2.93,7.07    c1.86,1.859,4.44,2.93,7.07,2.93s5.21-1.07,7.07-2.93c1.86-1.86,2.93-4.44,2.93-7.07c0-2.64-1.07-5.21-2.93-7.07    C95.025,309.492,92.445,308.422,89.815,308.422z"/>
	</g>
</g>















</svg>
