<?xml version="1.0" encoding="iso-8859-1"?>
<!-- Generator: Adobe Illustrator 19.0.0, SVG Export Plug-In . SVG Version: 6.00 Build 0)  -->
<svg xmlns="http://www.w3.org/2000/svg" xmlns:xlink="http://www.w3.org/1999/xlink" version="1.1" id="Layer_1" x="0px" y="0px" viewBox="0 0 512 512" style="enable-background:new 0 0 512 512;" xml:space="preserve" width="512" height="512">
<g id="XMLID_1055_">
	<polygon id="XMLID_1508_" style="fill:#FFC66C;" points="475,10 37,10 37,88 75.168,87.5 37,132.461 37,360.333 52,400.711    41.333,420.333 52,441.667 37,454.635 37,502 475,502 475,435.27 456,417 475,380.966  "/>
	<g id="XMLID_1491_">
		<path id="XMLID_1507_" style="fill:#FFDFE0;" d="M215.787,90.396c25.826,3.696,47.54,17.545,61.826,36.845    c17.566,23.731,41.33,42.168,68.186,54.435c21.708,9.916,40.673,26.383,53.621,48.525c33.093,56.591,14.207,130.08-42.105,163.646    c-57.607,34.338-131.977,14.831-165.399-43.057c-14.215-24.621-58.231-100.892-70.076-121.379    c-10.744-18.584-15.17-40.965-10.911-63.791C120.038,116.806,166.631,83.362,215.787,90.396z"/>
		<g id="XMLID_1503_">
			<path id="XMLID_1505_" style="fill:#FE8F8D;" d="M174.509,136.907c-12.053,6.959-21.162,18.897-23.854,33.325     c-2.75,14.736,1.585,26.326,5.706,33.454c8.858,15.32,34.689,60.072,54.427,94.269l19.851,34.388     c10.418,18.044,27.261,30.874,47.426,36.128c20.158,5.251,41.151,2.296,59.049-8.421c36.26-21.613,48.41-68.864,27.085-105.33     c-8.074-13.807-19.994-24.601-34.47-31.214c-36.883-16.848-68.574-42.228-91.647-73.398     c-7.838-10.589-19.366-17.453-32.46-19.326c0-0.001-0.001,0-0.001,0C194.571,129.199,183.686,131.609,174.509,136.907z"/>
		</g>
		<circle id="XMLID_1502_" style="fill:#FFB954;" cx="295.242" cy="289.757" r="28.709"/>
	</g>
	<g id="XMLID_896_">
		<path id="XMLID_898_" d="M475,0H37c-5.522,0-10,4.477-10,10v78c0,2.675,1.071,5.238,2.976,7.117s4.515,2.904,7.155,2.882    l16.187-0.212l-23.94,28.202C27.842,127.796,27,130.09,27,132.461v227.872c0,1.188,0.212,2.368,0.626,3.482l13.416,36.115    l-8.495,15.626c-1.561,2.872-1.62,6.325-0.158,9.249l7.19,14.381l-9.119,7.883c-2.197,1.9-3.46,4.661-3.46,7.565V502    c0,5.522,4.478,10,10,10h438c5.522,0,10-4.478,10-10v-66.729c0-2.72-1.108-5.322-3.068-7.208l-13.576-13.055l15.49-29.378    c0.758-1.438,1.154-3.039,1.154-4.664V220.333c0-5.523-4.478-10-10-10s-10,4.477-10,10v158.158l-17.846,33.845    c-2.078,3.941-1.298,8.783,1.914,11.872L465,439.527V492H47v-32.792l11.54-9.977c3.459-2.99,4.449-7.946,2.404-12.037    l-8.334-16.668l8.176-15.039c1.38-2.539,1.594-5.55,0.588-8.259L47,358.535V136.133l35.791-42.162    c2.538-2.989,3.095-7.184,1.425-10.731c-1.67-3.547-5.232-5.762-9.179-5.739L47,77.868V20h418v51h-31    c-3.49,0-6.728,1.819-8.542,4.8l-14,23c-2.871,4.718-1.375,10.87,3.343,13.742c1.624,0.989,3.418,1.459,5.189,1.459    c3.375,0,6.669-1.708,8.552-4.802L439.62,91H465v49.333c0,5.523,4.478,10,10,10s10-4.477,10-10V10C485,4.477,480.522,0,475,0z"/>
		<path id="XMLID_1132_" d="M183.256,355.791c17.533,30.368,45.88,51.962,79.817,60.803c10.933,2.848,22.004,4.256,33.001,4.256    c23.134,0,45.93-6.233,66.36-18.412c61.041-36.385,81.505-115.914,45.618-177.283c-13.59-23.24-33.681-41.419-58.099-52.574    c-26.034-11.892-48.27-29.627-64.303-51.288c-16.551-22.36-40.859-36.848-68.447-40.795c-26.342-3.772-52.866,2.78-74.693,18.443    c-21.824,15.659-36.531,38.688-41.411,64.846c-4.524,24.245-0.233,49.328,12.084,70.629c3.076,5.322,8.325,14.41,14.658,25.379    c2.762,4.783,8.879,6.424,13.66,3.66c4.783-2.762,6.422-8.877,3.66-13.66c-6.335-10.973-11.586-20.063-14.664-25.389    c-9.929-17.171-13.387-37.397-9.738-56.951c8.071-43.263,50.056-73.39,93.611-67.16c22.254,3.185,41.859,14.867,55.204,32.896    c18.043,24.376,42.964,44.287,72.068,57.582c20.651,9.434,37.646,24.813,49.144,44.478    c30.367,51.929,13.055,119.223-38.593,150.008c-25.509,15.204-55.371,19.459-84.079,11.981    c-28.718-7.48-52.703-25.752-67.539-51.448l-15.359-26.607c-2.76-4.783-8.875-6.426-13.659-3.661    c-4.783,2.761-6.423,8.876-3.661,13.659L183.256,355.791z"/>
		<path id="XMLID_1139_" d="M221.979,337.343c11.767,20.38,30.79,34.871,53.566,40.804c7.361,1.918,14.809,2.865,22.201,2.865    c15.538,0,30.824-4.19,44.488-12.373c40.956-24.413,54.683-77.781,30.598-118.968c-9.119-15.595-22.588-27.789-38.947-35.262    c-35.349-16.146-65.697-40.439-87.764-70.251c-9.44-12.754-23.32-21.021-39.083-23.277c-12.804-1.831-26.129,0.784-37.529,7.366    c-15.094,8.714-25.55,23.349-28.685,40.151c-3.31,17.742,1.914,31.704,6.88,40.293c8.856,15.319,34.687,60.067,54.423,94.262    L221.979,337.343z M160.485,172.066c2.063-11.051,8.996-20.709,19.024-26.499c7.538-4.352,16.311-6.089,24.698-4.887    c10.427,1.492,19.604,6.953,25.838,15.376c24.076,32.526,57.11,58.995,95.529,76.544c12.593,5.752,22.965,15.146,29.993,27.166    c18.564,31.746,7.989,72.879-23.591,91.703c-15.54,9.307-33.791,11.905-51.391,7.323c-17.555-4.573-32.218-15.742-41.286-31.449    l-19.851-34.389c-19.74-34.199-45.572-78.954-54.431-94.274C161.743,193.014,158.298,183.796,160.485,172.066z"/>
		<path id="XMLID_1167_" d="M295.307,328.458c6.563,0,13.21-1.668,19.29-5.179c18.484-10.672,24.84-34.393,14.168-52.877    c-10.673-18.485-34.393-24.84-52.877-14.169c-18.485,10.672-24.841,34.393-14.169,52.878    C268.88,321.516,281.918,328.458,295.307,328.458z M285.888,273.554c2.883-1.664,6.082-2.515,9.323-2.515    c1.626,0,3.262,0.214,4.873,0.646c4.827,1.294,8.861,4.39,11.36,8.718c5.158,8.934,2.086,20.398-6.848,25.557    c-4.328,2.498-9.37,3.161-14.197,1.869c-4.827-1.293-8.861-4.389-11.36-8.717C273.881,290.177,276.953,278.712,285.888,273.554z"/>
		<path id="XMLID_1168_" d="M475,170.33c-2.63,0-5.21,1.07-7.07,2.93s-2.93,4.44-2.93,7.07c0,2.64,1.069,5.21,2.93,7.07    c1.86,1.87,4.44,2.93,7.07,2.93s5.21-1.06,7.069-2.93c1.86-1.86,2.931-4.43,2.931-7.07c0-2.63-1.07-5.21-2.931-7.07    C480.21,171.4,477.63,170.33,475,170.33z"/>
		<path id="XMLID_1169_" d="M156.689,299.76c2.63,0,5.2-1.07,7.07-2.93c1.86-1.87,2.93-4.44,2.93-7.07s-1.069-5.21-2.93-7.08    c-1.87-1.86-4.44-2.92-7.07-2.92c-2.64,0-5.21,1.06-7.08,2.92c-1.859,1.87-2.92,4.44-2.92,7.08c0,2.63,1.061,5.21,2.92,7.07    C151.479,298.689,154.05,299.76,156.689,299.76z"/>
	</g>
</g>















</svg>
