<?xml version="1.0" encoding="iso-8859-1"?>
<!-- Generator: Adobe Illustrator 19.0.0, SVG Export Plug-In . SVG Version: 6.00 Build 0)  -->
<svg xmlns="http://www.w3.org/2000/svg" xmlns:xlink="http://www.w3.org/1999/xlink" version="1.1" id="Layer_1" x="0px" y="0px" viewBox="0 0 512 512" style="enable-background:new 0 0 512 512;" xml:space="preserve" width="512" height="512">
<g id="XMLID_1153_">
	<g id="XMLID_843_">
		<path id="XMLID_1216_" style="fill:#C9F3FF;" d="M402.5,30h-293C57.309,30,15,72.309,15,124.5V236h482V124.5    C497,72.309,454.691,30,402.5,30z"/>
		<rect id="XMLID_1083_" x="10" y="236" style="fill:#FF5D5D;" width="492" height="246"/>
		<path id="XMLID_1280_" style="fill:#FE8F8D;" d="M64,216L64,216c0-11.046,8.954-20,20-20h40c11.046,0,20,8.954,20,20v0    c0,11.046-8.954,20-20,20H84C72.954,236,64,227.046,64,216z"/>
		<path id="XMLID_1279_" style="fill:#FE8F8D;" d="M64,176L64,176c0-11.046,8.954-20,20-20h40c11.046,0,20,8.954,20,20v0    c0,11.046-8.954,20-20,20H84C72.954,196,64,187.046,64,176z"/>
		<path id="XMLID_1278_" style="fill:#FFC66C;" d="M164.106,116L164.106,116c11.046,0,20,8.954,20,20v80c0,11.046-8.954,20-20,20h0    c-11.046,0-20-8.954-20-20v-80C144.106,124.954,153.061,116,164.106,116z"/>
		<path id="XMLID_1276_" style="fill:#FFC66C;" d="M204.106,116L204.106,116c11.046,0,20,8.954,20,20v80c0,11.046-8.954,20-20,20h0    c-11.046,0-20-8.954-20-20v-80C184.106,124.954,193.061,116,204.106,116z"/>
		<path id="XMLID_1275_" style="fill:#FE8F8D;" d="M64,136L64,136c0-11.046,8.954-20,20-20h40c11.046,0,20,8.954,20,20v0    c0,11.046-8.954,20-20,20H84C72.954,156,64,147.046,64,136z"/>
		<path id="XMLID_1274_" style="fill:#FE8F8D;" d="M377.635,236c28.558,0,51.663-23.35,51.264-52    c-0.39-28.006-23.546-50.693-51.555-50.537H323.5"/>
		<path id="XMLID_1303_" style="fill:#FFB9B7;" d="M323.5,133.463c-10.959,0.061-21.103,3.56-29.409,9.474    c-10.276,7.316-22.174,12.17-34.707,13.6c-10.193,1.163-19.956,6.239-26.84,15.005c-13.104,16.685-10.682,41.069,5.433,54.867    c7.536,6.452,16.762,9.595,25.934,9.59c10.11-0.006,47.733,0.001,59.88,0.001c28.558,0,51.663-23.35,51.264-52    C374.665,155.994,351.509,133.307,323.5,133.463z"/>
	</g>
	<g id="XMLID_1061_">
		<path id="XMLID_1171_" d="M507,227.349V124.5C507,66.878,460.121,20,402.5,20h-95.131c-5.522,0-10,4.477-10,10s4.478,10,10,10    H402.5c46.594,0,84.5,37.907,84.5,84.5V226h-64.096c10.543-11.541,16.213-26.407,15.994-42.139    c-0.465-33.377-27.913-60.399-61.211-60.399c-0.112,0-0.229,0-0.342,0.001h-53.519c-0.013,0-0.026-0.001-0.039-0.001    c-0.112,0-0.23,0-0.343,0.001c-12.688,0.071-24.843,3.988-35.153,11.328c-9.173,6.531-19.561,10.615-30.041,11.811    c-8.899,1.016-17.159,4.33-24.144,9.556V136c0-16.542-13.458-30-30-30c-7.678,0-14.688,2.902-20,7.663    c-5.312-4.761-12.322-7.663-20-7.663c-7.703,0-14.735,2.921-20.053,7.709C138.735,108.921,131.703,106,124,106H84    c-16.542,0-30,13.458-30,30c0,7.678,2.902,14.688,7.664,20C56.902,161.312,54,168.322,54,176s2.902,14.688,7.664,20    C56.902,201.312,54,208.322,54,216c0,3.506,0.61,6.87,1.72,10H25V124.5C25,77.907,62.906,40,109.5,40h117.869    c5.522,0,10-4.477,10-10s-4.478-10-10-10H109.5C51.879,20,5,66.878,5,124.5v102.849c-2.986,1.73-5,4.952-5,8.651v246    c0,5.522,4.478,10,10,10h492c5.522,0,10-4.478,10-10V236C512,232.301,509.986,229.079,507,227.349z M377.4,143.463    c0.077,0,0.153-0.001,0.23-0.001c22.465,0,40.956,18.2,41.269,40.677c0.155,11.142-4.063,21.643-11.879,29.568    C399.203,221.634,388.767,226,377.635,226h-8.575c10.543-11.541,16.213-26.407,15.994-42.139    c-0.216-15.54-6.287-29.699-16.075-40.398H377.4z M240.408,177.718L240.408,177.718c4.979-6.34,12.121-10.333,20.109-11.245    c13.835-1.579,27.45-6.9,39.373-15.39c6.936-4.938,15.119-7.573,23.665-7.621h0.269c22.448,0.021,40.919,18.212,41.231,40.676    c0.155,11.142-4.063,21.643-11.879,29.568C345.359,221.634,334.923,226,323.791,226l-16.311-0.001    c-9.099-0.001-19.751-0.002-28.523-0.002c-6.534,0-12.025,0-15.052,0.002c-0.006,0-0.012,0-0.018,0    c-7.102,0-13.994-2.552-19.406-7.186C232.498,208.553,230.671,190.118,240.408,177.718z M204.106,126c5.514,0,10,4.486,10,10    v60.067c0,0.088,0,0.177,0,0.265V216c0,5.514-4.486,10-10,10s-10-4.486-10-10v-80C194.106,130.486,198.593,126,204.106,126z     M154.106,136c0-5.514,4.486-10,10-10s10,4.486,10,10v80c0,5.514-4.486,10-10,10s-10-4.486-10-10V136z M74,176    c0-5.514,4.486-10,10-10h40c5.514,0,10,4.486,10,10s-4.486,10-10,10H84C78.486,186,74,181.514,74,176z M84,126h40    c5.514,0,10,4.486,10,10s-4.486,10-10,10H84c-5.514,0-10-4.486-10-10S78.486,126,84,126z M74,216c0-5.514,4.486-10,10-10h40    c5.514,0,10,4.486,10,10s-4.486,10-10,10H84C78.486,226,74,221.514,74,216z M492,472H20V286h70c5.522,0,10-4.478,10-10    s-4.478-10-10-10H20v-20h472V472z"/>
		<path id="XMLID_1232_" d="M64.631,317.063h-20c-5.522,0-10,4.478-10,10v32v32c0,5.522,4.478,10,10,10h20c14.337,0,26-11.663,26-26    c0-6.031-2.07-11.584-5.528-16c3.459-4.416,5.528-9.969,5.528-16C90.631,328.727,78.968,317.063,64.631,317.063z M54.631,337.063    h10c3.309,0,6,2.691,6,6s-2.691,6-6,6h-10V337.063z M64.631,381.063h-10v-12h10c3.309,0,6,2.691,6,6    S67.939,381.063,64.631,381.063z"/>
		<path id="XMLID_1238_" d="M433.369,401.063c5.522,0,10-4.478,10-10v-20.495c8.187,3.207,14,11.186,14,20.495    c0,5.522,4.478,10,10,10s10-4.478,10-10c0-10.454-3.848-20.02-10.19-27.379c6.19-4.757,10.19-12.229,10.19-20.621    c0-14.337-11.663-26-26-26h-18c-5.522,0-10,4.478-10,10v32v32C423.369,396.586,427.847,401.063,433.369,401.063z M443.369,337.063    h8c3.309,0,6,2.691,6,6s-2.691,6-6,6h-8V337.063z"/>
		<path id="XMLID_1239_" d="M359.369,327.063v64c0,5.522,4.478,10,10,10h28c5.522,0,10-4.478,10-10s-4.478-10-10-10h-18v-12h19.079    c5.522,0,10-4.478,10-10s-4.478-10-10-10h-19.079v-12h18c5.522,0,10-4.478,10-10s-4.478-10-10-10h-28    C363.847,317.063,359.369,321.541,359.369,327.063z"/>
		<path id="XMLID_1251_" d="M155.369,317.063c-5.522,0-10,4.478-10,10v44.631c0,5.166-4.203,9.369-9.369,9.369    s-9.369-4.203-9.369-9.369v-44.631c0-5.522-4.478-10-10-10s-10,4.478-10,10v44.631c0,16.194,13.175,29.369,29.369,29.369    s29.369-13.175,29.369-29.369v-44.631C165.369,321.541,160.892,317.063,155.369,317.063z"/>
		<path id="XMLID_1253_" d="M333.369,317.063c-5.522,0-10,4.478-10,10v22h-16v-22c0-5.522-4.478-10-10-10s-10,4.478-10,10v64    c0,5.522,4.478,10,10,10s10-4.478,10-10v-22h16v22c0,5.522,4.478,10,10,10s10-4.478,10-10v-64    C343.369,321.541,338.892,317.063,333.369,317.063z"/>
		<path id="XMLID_1254_" d="M206.631,317.063h-22.524c-5.522,0-10,4.478-10,10s4.478,10,10,10h1.263v54c0,5.522,4.478,10,10,10    s10-4.478,10-10v-54h1.262c5.522,0,10-4.478,10-10S212.153,317.063,206.631,317.063z"/>
		<path id="XMLID_1256_" d="M256.895,337.063h6.475c5.522,0,10-4.478,10-10s-4.478-10-10-10h-6.475    c-17.383,0-31.525,14.143-31.525,31.525v20.948c0,17.384,14.143,31.526,31.525,31.526h6.475c5.522,0,10-4.478,10-10    s-4.478-10-10-10h-6.475c-6.355,0-11.525-5.171-11.525-11.526v-20.948C245.369,342.233,250.539,337.063,256.895,337.063z"/>
		<path id="XMLID_1258_" d="M320.93,194.73c2.63,0,5.21-1.07,7.07-2.93c1.859-1.86,2.93-4.44,2.93-7.07c0-2.63-1.07-5.21-2.93-7.07    c-1.86-1.86-4.44-2.93-7.07-2.93s-5.21,1.07-7.07,2.93c-1.859,1.86-2.93,4.44-2.93,7.07c0,2.63,1.07,5.21,2.93,7.07    C315.72,193.66,318.3,194.73,320.93,194.73z"/>
		<path id="XMLID_1259_" d="M267.37,40c2.63,0,5.21-1.07,7.069-2.93c1.86-1.86,2.931-4.44,2.931-7.07c0-2.63-1.07-5.21-2.931-7.07    C272.58,21.07,270,20,267.37,20c-2.641,0-5.21,1.07-7.07,2.93c-1.86,1.86-2.93,4.44-2.93,7.07c0,2.63,1.069,5.21,2.93,7.07    S264.729,40,267.37,40z"/>
		<path id="XMLID_1261_" d="M130,286c2.63,0,5.21-1.07,7.069-2.931C138.93,281.21,140,278.63,140,276s-1.07-5.21-2.931-7.07    c-1.859-1.86-4.439-2.93-7.069-2.93s-5.21,1.069-7.07,2.93S120,273.37,120,276s1.069,5.21,2.93,7.069    C124.79,284.93,127.37,286,130,286z"/>
	</g>
</g>















</svg>
