<?xml version="1.0" encoding="iso-8859-1"?>
<!-- Generator: Adobe Illustrator 19.0.0, SVG Export Plug-In . SVG Version: 6.00 Build 0)  -->
<svg xmlns="http://www.w3.org/2000/svg" xmlns:xlink="http://www.w3.org/1999/xlink" version="1.1" id="Layer_1" x="0px" y="0px" viewBox="0 0 512.013 512.013" style="enable-background:new 0 0 512.013 512.013;" xml:space="preserve" width="512" height="512">
<g id="XMLID_37_">
	<path id="XMLID_44_" style="fill:#D8D8E4;" d="M382.205,134.179c0,0-88.874-146.121-147.424-100.014   c-56.484,44.481,111.931,132.077,111.931,132.077L382.205,134.179z"/>
	<path id="XMLID_43_" style="fill:#EDF2FA;" d="M294.78,408.585c0,0,0.009-0.009,0.011-0.011   c10.463,26.818,26.313,51.249,46.633,71.739l0,0c4.153,4.187,9.806,6.543,15.703,6.543h44.193c8.275,0,13.077-9.245,8.442-16.1   c-8.086-11.962-19.701-21.106-33.229-26.156l-17.529-6.544l-7.906-56.564c35.851-11.448,60.256-44.673,60.458-82.307l0.041-7.609   l-0.179-0.336c27.136,9.311,55.107,5.604,73.173-12.462c27.865-27.865,21.611-79.298-13.969-114.878s-87.013-41.834-114.878-13.969   c-2.491,2.491-4.692,5.181-6.64,8.021l0.963-2.877c0,0-93.375-125.54-138.125-81.002c-41.815,41.617,62.1,98.852,104.925,119.902   H156.441c-24.298,0-47.214,5.918-67.386,16.391l-2.527,1.303c-24.028,12.393-43.817,31.666-56.84,55.358   C17.168,288.603,10,313.671,10,340.414v0c0,80.877,65.564,146.441,146.441,146.441h64.479c6.034,0,10.213-6.021,8.104-11.674   l-3.317-8.89c-3.886-10.413-13.831-17.316-24.945-17.316h-38.924l0.144-10.921l29.189-16.481c1.018-0.575,2.268-1.159,3.707-1.75   l0.29,1.022L294.78,408.585z"/>
	<path id="XMLID_369_" style="fill:#EDF2FA;" d="M337.048,193.973l1.499-4.477c-0.102,1.483-0.176,2.973-0.19,4.477H337.048z"/>
	<g id="XMLID_367_">
		<polygon id="XMLID_370_" style="fill:#EDF2FA;" points="294.78,408.585 294.78,408.585 294.78,408.585   "/>
	</g>
	<g id="XMLID_45_">
		<path id="XMLID_70_" d="M416.41,205.041c1.859-1.86,2.93-4.44,2.93-7.07c0-2.63-1.07-5.21-2.93-7.07    c-1.86-1.86-4.44-2.93-7.07-2.93s-5.21,1.07-7.07,2.93c-1.859,1.86-2.93,4.44-2.93,7.07c0,2.63,1.07,5.21,2.93,7.07    c1.86,1.86,4.44,2.93,7.07,2.93S414.55,206.901,416.41,205.041z"/>
		<path id="XMLID_72_" d="M177.87,241.991c1.859-1.86,2.93-4.44,2.93-7.07c0-2.63-1.07-5.21-2.93-7.07    c-1.86-1.86-4.44-2.93-7.07-2.93c-2.64,0-5.22,1.07-7.08,2.93s-2.92,4.44-2.92,7.07c0,2.64,1.06,5.21,2.92,7.07    c1.86,1.87,4.44,2.93,7.08,2.93C173.43,244.921,176.01,243.861,177.87,241.991z"/>
		<path id="XMLID_73_" d="M263.505,244.925c5.522,0,10-4.477,10-10s-4.478-10-10-10h-51.758c-5.522,0-10,4.477-10,10s4.478,10,10,10    H263.505z"/>
		<path id="XMLID_74_" d="M55.71,244.501c2.63,0,5.21-1.07,7.069-2.93c1.86-1.86,2.931-4.43,2.931-7.07c0-2.63-1.07-5.21-2.931-7.07    c-1.859-1.86-4.439-2.93-7.069-2.93c-2.641,0-5.21,1.07-7.07,2.93c-1.87,1.86-2.93,4.44-2.93,7.07s1.06,5.21,2.93,7.07    C50.5,243.431,53.069,244.501,55.71,244.501z"/>
		<path id="XMLID_77_" d="M511.325,223.023c-2.907-23.906-14.852-47.415-33.633-66.195c-18.781-18.781-42.29-30.726-66.195-33.633    c-8.402-1.022-16.51-0.877-24.178,0.344c-13.864-21.502-66.547-98.312-117.108-107.442c-15.468-2.792-29.467,0.643-41.616,10.211    c-11.688,9.204-16.898,20.889-15.289,34.064c-2.976,1.797-5.789,3.992-8.419,6.611c-10.292,10.244-14.435,22.563-11.98,35.628    c4.275,22.762,29.1,48.113,73.781,75.351c3.409,2.078,6.797,4.081,10.136,6.011H156.441c-25.028,0-49.924,6.057-71.995,17.516    c-4.901,2.545-6.812,8.582-4.267,13.483c1.78,3.429,5.27,5.394,8.884,5.394c1.552,0,3.127-0.362,4.6-1.127    c19.511-10.13,40.632-15.266,62.778-15.266h158.093c9.215,4.485,15.218,7.119,15.771,7.36c5.056,2.21,10.953-0.102,13.164-5.162    s-0.1-10.955-5.16-13.167c-0.302-0.132-30.554-13.413-61.39-32.229c-38.414-23.441-61.27-45.41-64.357-61.859    c-1.225-6.526,0.819-12.169,6.434-17.757c5.049-5.024,10.836-7.113,18.178-6.565c35.175,2.604,87.629,63.287,104.871,86.448    c1.683,2.263,4.243,3.709,7.05,3.984c2.805,0.273,5.599-0.649,7.688-2.543l5.677-5.145c0.122-0.11,0.24-0.223,0.356-0.338    c23.923-23.922,69.113-17.653,100.734,13.97c15.636,15.635,25.551,34.979,27.921,54.468c2.26,18.58-2.695,35.011-13.951,46.267    s-27.682,16.21-46.268,13.951c-19.489-2.369-38.833-12.285-54.468-27.921c-3.906-3.905-10.236-3.905-14.143,0    c-3.905,3.905-3.905,10.237,0,14.143c11.525,11.525,24.834,20.461,38.919,26.329l-0.005,0.923    c-0.179,33.403-21.679,62.673-53.5,72.834c-4.639,1.481-7.536,6.088-6.861,10.911l7.906,56.563    c0.508,3.635,2.967,6.699,6.405,7.983l17.53,6.545c11.682,4.361,21.538,12.135,28.503,22.479c0.052,0.077,0.062,0.114,0.062,0.114    c0.008,0.075-0.084,0.248-0.149,0.283c0,0-0.036,0.013-0.131,0.013h-44.192c-3.208,0-6.345-1.307-8.604-3.585    c-21.476-21.654-37.966-48.379-47.688-77.284l-12.038-35.792c-1.761-5.234-7.432-8.053-12.666-6.291    c-5.235,1.761-8.052,7.432-6.291,12.666l10.583,31.464c-20.039,6.438-40.74,10.136-61.756,11.012    c6.776-10.418,10.576-22.731,10.576-35.564c0-35.967-29.262-65.229-65.229-65.229h-24.673c-5.522,0-10,4.478-10,10s4.478,10,10,10    h24.673c24.939,0,45.229,20.289,45.229,45.229c0,16.285-8.81,31.376-22.991,39.383l-29.188,16.481    c-3.1,1.75-5.035,5.017-5.082,8.575l-0.145,10.921c-0.035,2.676,1.002,5.253,2.881,7.157c1.88,1.903,4.443,2.976,7.118,2.976    h38.924c6.903,0,13.163,4.346,15.576,10.813l2.638,7.068h-62.533C81.207,476.855,20,415.648,20,340.414    c0-24.054,6.341-47.695,18.338-68.37c2.771-4.776,1.146-10.896-3.631-13.668c-4.774-2.772-10.896-1.146-13.668,3.631    C7.275,285.726,0,312.84,0,340.414c0,22.864,4.932,44.597,13.785,64.193C5.281,409.12,0,417.898,0,427.526    c0,14.307,11.64,25.945,25.946,25.945h22.475c28.103,26.862,66.167,43.384,108.02,43.384h64.479    c6.108,0,11.836-2.996,15.319-8.014c3.484-5.02,4.289-11.433,2.153-17.157l-3.317-8.89c-5.316-14.248-19.106-23.82-34.314-23.82    h-20.072l15.397-8.694c0.591-0.334,1.174-0.678,1.751-1.028h11.013c26.75,0,53.117-4.19,78.495-12.437    c10.946,26.22,26.987,50.382,46.979,70.539c5.988,6.038,14.3,9.501,22.804,9.501h44.192c7.507,0,14.36-4.116,17.888-10.742    c3.526-6.627,3.113-14.611-1.079-20.838c-9.31-13.826-22.483-24.216-38.098-30.045l-11.948-4.461l-5.967-42.686    c34.136-14.256,57.158-46.654,59.267-83.797c2.478,0.497,4.963,0.921,7.455,1.224c3.782,0.46,7.503,0.688,11.154,0.688    c20.305,0,38.364-7.046,51.67-20.351C507.359,270.149,514.343,247.839,511.325,223.023z M351.283,140.383    c-6.868-8.539-18.426-22.256-32.396-36.272c-31.073-31.174-58.065-47.815-80.226-49.461c-1.899-0.141-3.755-0.164-5.577-0.093    c0.388-4.674,2.928-8.632,7.884-12.535c7.561-5.955,15.959-7.998,25.68-6.244c36.187,6.526,80.355,63.093,100.784,93.846    C361.56,132.418,356.141,136.014,351.283,140.383z M20,427.526c0-2.21,1.214-4.225,3.166-5.257l0.009-0.005    c2.373,3.848,4.905,7.588,7.591,11.207h-4.82C22.668,433.471,20,430.804,20,427.526z"/>
	</g>
</g>















</svg>
