<?xml version="1.0" encoding="iso-8859-1"?>
<!-- Generator: Adobe Illustrator 19.0.0, SVG Export Plug-In . SVG Version: 6.00 Build 0)  -->
<svg xmlns="http://www.w3.org/2000/svg" xmlns:xlink="http://www.w3.org/1999/xlink" version="1.1" id="Layer_1" x="0px" y="0px" viewBox="0 0 512.007 512.007" style="enable-background:new 0 0 512.007 512.007;" xml:space="preserve" width="512" height="512">
<g id="XMLID_974_">
	<g id="XMLID_1564_">
		<path id="XMLID_1565_" style="fill:#FF5D5D;" d="M501.988,235.768v49.353c-1.366,98.014-81.981,177.376-179.92,177.376    c-0.336,0-0.67,0-1.007-0.002c-37.26-0.207-72.962-11.712-103.244-33.272c-23.289-16.582-49.591-26.942-76.063-29.963    c-39.813-4.542-75.39-24.426-100.178-55.988l0,0C21.189,317.31,10.235,285.696,10,252.865v-55.198"/>
	</g>
	<g id="XMLID_1567_">
		<path id="XMLID_1568_" style="fill:#FFDFE0;" d="M322.077,49.509c48.535,0,94.034,19.033,128.116,53.594    c34.077,34.555,52.471,80.328,51.795,128.887c-1.366,98.014-81.981,177.376-179.92,177.376c-0.336,0-0.67,0-1.007-0.002    c-37.26-0.207-72.962-11.712-103.244-33.272c-23.289-16.582-49.591-26.942-76.063-29.963    c-39.813-4.542-75.39-24.426-100.178-55.988l0,0c-23.7-30.179-34.652-67.994-30.837-106.481    c3.813-38.474,21.965-73.405,51.111-98.359c26.958-23.081,61.309-35.789,96.73-35.789c0.03,0,0.059,0,0.089,0    c19.39,0.01,75.867,0.006,119.227,0.001L322.077,49.509z"/>
	</g>
	<path id="XMLID_1571_" style="fill:#FE8F8D;" d="M73.036,265.434c18.789,23.925,45.435,37.778,73.255,40.953   c34.206,3.903,66.68,17.152,94.726,37.12c22.67,16.14,50.356,25.691,80.266,25.857c76.443,0.425,139.644-61.494,140.709-137.932   c1.089-78.195-61.97-141.924-139.915-141.924c-33.152,0-135.837,0.019-163.431,0.002c-25.031-0.015-50.213,8.564-70.781,26.174   C43.881,153.344,37.272,219.895,73.036,265.434z"/>
	<circle id="XMLID_1563_" style="fill:#FFB954;" cx="348.333" cy="229.438" r="42"/>
	<g id="XMLID_933_">
		<path id="XMLID_1193_" d="M471.992,231.572c0.564-40.468-14.763-78.611-43.158-107.404c-28.4-28.799-66.313-44.659-106.756-44.659    L277.9,79.512c-43.367,0.004-99.853,0.01-119.248-0.001c-0.024,0-0.047,0-0.071,0c-28.271,0-55.693,10.147-77.219,28.578    c-23.243,19.9-37.721,47.789-40.768,78.529c-3.048,30.747,5.681,60.931,24.577,84.993c0,0,0,0,0,0    c19.796,25.206,48.203,41.085,79.986,44.711c31.503,3.595,62.646,15.812,90.061,35.331c25.221,17.956,54.963,27.539,86.01,27.711    c0.28,0.001,0.56,0.002,0.839,0.002C403.678,379.366,470.854,313.24,471.992,231.572z M451.994,231.293    c-0.045,3.259-0.214,6.488-0.498,9.685l-7.117-7.915c-8.067-8.971-20.003-13.238-31.928-11.413l-12.46,1.906    c-2.69-23.775-21.47-42.731-45.161-45.699l-7.876-16.424c-1.587-3.31-1.069-7.25,1.321-10.039l7.101-8.285    c5.523-6.443,7.976-14.953,6.729-23.346l-2.181-14.69c20.477,6.199,39.202,17.452,54.67,33.136    C439.2,163.163,452.482,196.22,451.994,231.293z M348.332,261.437c-17.645,0-32-14.355-32-32    c0-17.638,14.344-31.988,31.979-31.999c0.009,0,0.018,0.002,0.027,0.002c0.009,0,0.019-0.002,0.028-0.002    c17.629,0.019,31.965,14.366,31.965,31.999c0,1.45-0.106,2.875-0.294,4.274c-0.001,0.007-0.001,0.014-0.003,0.021    C377.93,249.353,364.52,261.437,348.332,261.437z M147.424,296.451c-26.43-3.016-50.056-16.224-66.523-37.193    c-32.223-41.031-26.181-102.03,13.468-135.977c17.906-15.331,40.706-23.77,64.212-23.77c0.019,0,0.041,0,0.06,0    c19.395,0.011,75.889,0.006,119.261,0.001l44.176-0.003c5.722,0,11.384,0.373,16.963,1.095l3.281,22.099    c0.395,2.657-0.382,5.352-2.131,7.392l-7.101,8.285c-7.546,8.804-9.183,21.248-4.169,31.703l4.568,9.526    c-12.789,3.817-23.521,12.43-30.112,23.747l-40.48-22.442c-2.109-1.169-4.312-2.13-6.572-2.892l-20.634-28.334    c-7.262-9.972-18.962-15.925-31.298-15.925h-33.818c-4.302,0-8.507-1.499-11.84-4.22l-12.071-9.858    c-4.276-3.494-10.577-2.858-14.07,1.42c-3.494,4.277-2.858,10.577,1.42,14.07l12.071,9.859c6.894,5.629,15.591,8.729,24.49,8.729    h33.818c5.964,0,11.62,2.878,15.131,7.699l11.848,16.269c-1.365,0.426-2.713,0.919-4.034,1.495l-29.857,13.023    c-12.62,5.504-21.45,16.908-23.622,30.503c-1.574,9.856-9.961,17.01-19.942,17.01h-37.578c-5.523,0-10,4.477-10,10s4.477,10,10,10    h37.578c19.866,0,36.558-14.238,39.692-33.856c1.091-6.831,5.527-12.56,11.868-15.326l29.857-13.023    c5.724-2.498,12.403-2.18,17.866,0.849l43.601,24.172c-0.298,2.247-0.467,4.534-0.467,6.86c0,22.163,13.943,41.121,33.513,48.592    l-3.654,4.394c-9.032,10.862-8.944,26.554,0.21,37.313l4.782,5.621c2.656,3.122,2.863,7.643,0.502,10.994l-16.092,22.845    c-24.82-1.215-48.49-9.393-68.776-23.835C216.652,313.883,182.282,300.429,147.424,296.451z M340.909,357.987l7.127-10.118    c7.616-10.812,6.95-25.398-1.62-35.472l-4.783-5.621c-2.837-3.334-2.864-8.198-0.064-11.565l11.651-14.011    c21.432-2.008,39.115-17.074,45.006-37.142l17.25-2.639c5.24-0.799,10.486,1.073,14.031,5.016l17.324,19.267    C432.751,313.869,391.381,350.574,340.909,357.987z"/>
		<path id="XMLID_1198_" d="M511.988,232.129c0.714-51.257-18.703-99.573-54.674-136.048C421.338,59.6,373.31,39.509,322.077,39.509    l-44.181,0.003c-5.522,0-10,4.478-9.999,10.001c0,5.522,4.478,10,10.001,9.999l44.18-0.003c45.837,0,88.808,17.976,120.996,50.615    c32.183,32.634,49.555,75.864,48.916,121.727c-1.085,77.856-57.153,146.626-133.318,163.519    c-5.392,1.196-8.793,6.536-7.597,11.928c1.034,4.663,5.167,7.837,9.753,7.836c0.717,0,1.446-0.078,2.175-0.239    c41.034-9.101,78.51-32.121,105.524-64.818c6.959-8.423,13.143-17.408,18.511-26.824    c-18.396,73.987-85.732,129.246-164.97,129.246l-0.951-0.002c-35.19-0.195-68.905-11.06-97.5-31.418    c-24.664-17.561-52.58-28.541-80.729-31.752c-37.136-4.237-70.323-22.786-93.447-52.229    c-13.141-16.733-22.06-35.805-26.399-56.152c3.233,5.298,6.79,10.432,10.67,15.374c26.452,33.682,64.419,54.9,106.909,59.748    c24.794,2.829,49.483,12.571,71.396,28.174c20.196,14.379,42.583,24.515,66.539,30.125c0.767,0.18,1.534,0.266,2.289,0.266    c4.539,0,8.648-3.112,9.728-7.722c1.26-5.377-2.079-10.757-7.456-12.017c-21.413-5.015-41.431-14.081-59.5-26.945    c-24.664-17.561-52.58-28.541-80.729-31.752c-37.136-4.237-70.323-22.786-93.447-52.229C30.154,259.404,19.925,229.41,20,198.304    v-0.35c0.022-4.418,0.25-8.858,0.691-13.308c3.558-35.896,20.485-68.479,47.663-91.749c25.146-21.529,57.189-33.385,90.311-33.385    c7.937,0.004,22.085,0.006,39.005,0.006c0,0,0,0,0,0c5.522,0,10-4.477,10-10c0-5.523-4.477-10-10-10    c-16.916,0-31.061-0.002-39.089-0.006c-37.804,0-74.467,13.564-103.234,38.193c-31.114,26.639-50.49,63.918-54.558,104.969    c-0.494,4.989-0.752,9.967-0.785,14.921c0,0.025-0.004,0.049-0.004,0.074v0.161c-0.001,0.197,0,0.394,0,0.592v54.516    c0.253,35.377,11.911,68.75,33.713,96.512c26.452,33.682,64.419,54.9,106.909,59.748c24.794,2.829,49.483,12.571,71.396,28.173    c31.968,22.761,69.656,34.907,108.985,35.126l1.065,0.002c103.283,0,188.48-83.994,189.919-187.237    c0-0.046,0.001-0.093,0.001-0.139v-49.354c0-0.373-0.024-0.74-0.064-1.102C511.948,233.82,511.976,232.975,511.988,232.129z"/>
		<path id="XMLID_1200_" d="M320.62,399.373c-5.354,0.204-9.665,4.612-9.654,10.011c0.01,5.516,4.581,9.982,10.097,9.982    c0.313,0,0.624-0.015,0.93-0.042c5.753-0.499,9.162-5.306,9.167-9.948c0.006-5.504-4.535-9.979-10.039-10.012    C320.954,399.364,320.786,399.367,320.62,399.373z"/>
		<path id="XMLID_1201_" d="M237.674,59.523c2.63,0,5.2-1.07,7.07-2.93c1.86-1.87,2.93-4.44,2.93-7.08c0-2.63-1.07-5.2-2.93-7.07    c-1.86-1.86-4.44-2.93-7.07-2.93c-2.64,0-5.21,1.07-7.07,2.93c-1.87,1.86-2.93,4.44-2.93,7.07c0,2.64,1.06,5.21,2.93,7.08    C232.464,58.453,235.044,59.523,237.674,59.523z"/>
	</g>
</g>















</svg>
