<?xml version="1.0" encoding="iso-8859-1"?>
<!-- Generator: Adobe Illustrator 19.0.0, SVG Export Plug-In . SVG Version: 6.00 Build 0)  -->
<svg xmlns="http://www.w3.org/2000/svg" xmlns:xlink="http://www.w3.org/1999/xlink" version="1.1" id="Layer_1" x="0px" y="0px" viewBox="0 0 512.01 512.01" style="enable-background:new 0 0 512.01 512.01;" xml:space="preserve" width="512" height="512">
<g id="XMLID_1915_">
	<g id="XMLID_1810_">
		<path id="XMLID_1696_" style="fill:#FF5D5D;" d="M10.018,235.081v44.253c-0.677,48.633,17.745,94.475,51.873,129.082    c34.134,34.613,79.702,53.675,128.31,53.675l44.248-0.003c43.425-0.005,99.988-0.009,119.407,0.001c0.03,0,0.059,0,0.089,0    c35.475,0,69.878-12.728,96.877-35.843c29.19-24.992,47.369-59.976,51.188-98.508v-60.274L10.018,235.081z"/>
		<g id="XMLID_1632_">
			<path id="XMLID_1633_" style="fill:#FFDFE0;" d="M189.929,409.777c-48.535,0-94.034-19.033-128.116-53.594     c-34.077-34.555-52.471-80.328-51.795-128.887c1.366-98.014,81.981-177.376,179.92-177.376c0.336,0,0.67,0,1.007,0.002     c37.26,0.207,72.962,11.712,103.244,33.272c23.289,16.582,49.591,26.942,76.063,29.963c39.813,4.542,75.39,24.426,100.178,55.988     l0,0c23.7,30.179,34.652,67.994,30.837,106.481c-3.813,38.474-21.965,73.405-51.111,98.359     c-26.958,23.081-61.309,35.789-96.73,35.789c-0.03,0-0.059,0-0.089,0c-19.39-0.01-75.867-0.006-119.227-0.001L189.929,409.777z"/>
		</g>
		<path id="XMLID_1662_" style="fill:#FF5D5D;" d="M221.007,304.919c0-69.838-62-66-53-115.921    c2.836-15.729-0.087-29.937-5.42-42.019c-13.228-29.966-52.527-36.346-74.882-12.405c-22.927,24.555-37.691,57.304-37.691,93.279    c0,83.287,54.103,117.782,101.444,132.023c34.685,10.434,69.549-15.905,69.549-52.125V304.919z"/>
		<path id="XMLID_1641_" style="fill:#FF5D5D;" d="M459.443,284.391c3.523-16.112-10.377-30.882-26.616-27.999    c-9.002,1.598-19.988,5.499-32.82,13.527c-41.572,26.008-95.321,4.384-136.291-16.764c-6.059-3.128-12.607,3.19-9.726,9.37    c6.18,13.261,11.559,31.181,8.018,49.393c-2.866,14.738-6.88,27.105-10.622,36.573c-4.037,10.215,3.479,21.279,14.463,21.278    c35.887-0.003,72.625-0.005,87.511,0.004c25.031,0.015,50.213-8.564,70.781-26.174    C442.661,327.744,454.55,306.766,459.443,284.391z"/>
		<path id="XMLID_1631_" style="fill:#FF5D5D;" d="M438.971,193.851c-18.79-23.925-45.436-37.778-73.255-40.953    c-0.069-0.008-0.14-0.016-0.21-0.024c-12.85-1.508-25.456,4.352-32.49,15.211l-34.819,53.752    c-2.809,4.337-1.096,10.158,3.621,12.267c17.007,7.606,54.747,21.441,78.19,6.962c31-19.147,52.895-21.985,75.447-17.566h0    C451.649,213.038,446.17,203.018,438.971,193.851z"/>
		<path id="XMLID_1626_" style="fill:#FF5D5D;" d="M270.989,115.779c-22.67-16.14-50.356-25.691-80.267-25.857    c-0.1-0.001-0.2-0.001-0.3-0.001c-9.746-0.033-14.197,12.227-6.745,18.507c16.626,14.012,27.488,30.27,25.364,46.456    c-3.971,30.244-6.583,46.907,6.365,61.468c3.979,4.474,10.879,4.596,15.186,0.436c9.417-9.095,21.037-8.081,28.58-5.956    c4.797,1.351,9.876-0.851,12.169-5.276l35.748-68.986l0.014-0.02C294.461,130.839,282.356,123.872,270.989,115.779z"/>
	</g>
	<g id="XMLID_553_">
		<path id="XMLID_573_" d="M511.909,266.113c1.274-37.4-10.474-73.677-33.616-103.144c-26.451-33.681-64.418-54.9-106.908-59.748    c-24.794-2.829-49.482-12.571-71.396-28.173C268.02,52.287,230.332,40.14,191.002,39.922l-1.064-0.002    c-103.283,0-188.48,83.994-189.919,187.237c-0.033,2.356-0.008,4.703,0.043,7.045c-0.025,0.29-0.044,0.583-0.044,0.88v44.187    c-0.695,51.302,18.748,99.66,54.753,136.17c36.028,36.533,84.125,56.653,135.432,56.653l36.903-0.003    c5.522,0,9.999-4.478,9.999-10.001c0-5.522-4.478-9.999-10.001-9.999l-36.902,0.003c-45.911,0-88.95-18.004-121.19-50.696    c-21.292-21.59-36.105-47.813-43.529-76.365c7.983,13.733,17.753,26.557,29.21,38.175c35.976,36.481,84.004,56.572,135.236,56.572    h0.001l44.181-0.003c43.359-0.007,99.83-0.01,119.314,0.001c37.805,0,74.467-13.563,103.234-38.192    c13.171-11.277,24.229-24.467,32.923-39.036c-6.365,29.655-22.09,56.262-45.265,76.103    c-25.187,21.563-57.281,33.439-90.456,33.439c-9.125-0.005-26.447-0.006-46.754-0.006c-5.522,0-10,4.478-10,10s4.478,10,10,10    c20.303,0,37.621,0.001,46.837,0.006c37.858,0,74.573-13.583,103.381-38.247c31.157-26.676,50.561-64.008,54.636-105.117    c0.032-0.328,0.049-0.657,0.049-0.986v-60.274C512.01,267.004,511.968,266.555,511.909,266.113z M443.652,366.389    c-25.146,21.529-57.189,33.386-90.31,33.386c-19.392-0.011-75.87-0.007-119.233-0.001l-44.18,0.003    c-45.838,0-88.809-17.976-120.996-50.615c-32.183-32.634-49.555-75.863-48.916-121.727    C21.303,135.067,97.53,59.919,189.938,59.919l0.951,0.002c35.19,0.195,68.905,11.06,97.499,31.418    c24.664,17.561,52.579,28.541,80.729,31.752c37.137,4.237,70.324,22.786,93.448,52.229c22.099,28.14,32.31,63.412,28.751,99.318    C487.758,310.536,470.831,343.12,443.652,366.389z"/>
		<path id="XMLID_574_" d="M196.224,230.494c-13.088-12.701-21.734-21.091-18.375-39.721c2.886-16.01,0.829-32.103-6.113-47.832    c-7.532-17.063-22.966-29.102-41.286-32.204c-18.477-3.13-37.188,3.232-50.053,17.013c-22.277,23.857-35.929,52.958-39.479,84.156    c-0.625,5.488,3.317,10.442,8.805,11.067c5.49,0.618,10.442-3.318,11.066-8.805c3.063-26.906,14.896-52.069,34.226-72.769    c8.392-8.987,20.089-12.975,32.096-10.942c11.85,2.006,21.446,9.5,26.328,20.561c5.303,12.013,6.893,24.195,4.727,36.207    c-5.248,29.114,10.359,44.26,24.13,57.623c14.116,13.698,28.712,27.862,28.712,60.073v2.832c0,14.203-6.546,27.216-17.96,35.702    c-11.253,8.365-25.36,10.862-38.709,6.847c-39.388-11.849-66.841-32.938-81.599-62.685c-2.455-4.948-8.456-6.971-13.402-4.514    c-4.947,2.454-6.969,8.455-4.514,13.402c17.07,34.407,49.489,59.633,93.753,72.948c6.104,1.836,12.315,2.74,18.472,2.74    c13.476,0,26.688-4.33,37.932-12.689c16.541-12.297,26.027-31.16,26.027-51.752v-2.832    C231.007,264.247,211.721,245.532,196.224,230.494z"/>
		<path id="XMLID_577_" d="M431.08,246.546c-11.642,2.067-23.88,7.078-36.376,14.895c-37.32,23.346-87.153,3.087-126.4-17.171    c-6.616-3.416-14.357-2.293-19.721,2.859c-5.372,5.16-6.808,12.861-3.657,19.62c5.047,10.829,10.403,27.125,7.266,43.261    c-2.347,12.068-5.747,23.778-10.105,34.807c-3.115,7.882-2.131,16.77,2.633,23.773c4.762,7.001,12.661,11.181,21.132,11.18    c35.883-0.003,72.619-0.004,87.505,0.005c0.024,0,0.045,0,0.069,0c28.271,0,55.695-10.148,77.221-28.578    c19.66-16.833,32.997-39.195,38.567-64.669c2.386-10.912-0.819-22.244-8.575-30.313    C452.971,248.237,441.925,244.624,431.08,246.546z M449.673,282.254L449.673,282.254c-4.632,21.186-15.71,39.772-32.036,53.751    c-17.905,15.329-40.706,23.77-64.213,23.77c-0.019,0-0.039,0-0.058,0c-8.765-0.005-25.098-0.007-44.376-0.007    c-13.471,0-28.381,0.001-43.143,0.002c-2.56,0-3.976-1.521-4.593-2.428c-0.497-0.731-1.548-2.699-0.57-5.174    c4.81-12.169,8.558-25.068,11.139-38.341c2.879-14.806,0.926-31.336-5.64-48.205c17.034,8.484,40.009,18.661,63.473,23.4    c29.425,5.945,54.882,2.371,75.654-10.626c10.313-6.451,20.158-10.542,29.265-12.158c4.317-0.766,8.563,0.631,11.643,3.835    C449.386,273.37,450.646,277.81,449.673,282.254z"/>
		<path id="XMLID_580_" d="M287.598,231.651c1.527,5.163,5.222,9.384,10.136,11.582c13.93,6.23,35.791,14.166,56.754,14.165    c10.918,0,21.595-2.154,30.774-7.824c32.016-19.774,51.73-19.501,68.27-16.26c3.541,0.694,7.178-0.572,9.521-3.313    s3.031-6.53,1.799-9.919c-4.255-11.699-10.317-22.602-18.018-32.407c-19.795-25.206-48.2-41.085-79.984-44.712    c-0.01-0.001-0.17-0.02-0.18-0.021c-16.779-1.973-32.898,5.581-42.048,19.706L289.804,216.4    C286.873,220.924,286.069,226.483,287.598,231.651z M341.408,173.522c4.98-7.686,13.768-11.79,22.991-10.709l0.184,0.021    c26.431,3.016,50.056,16.225,66.523,37.193c2.919,3.718,5.555,7.625,7.893,11.698c-20.751-0.268-40.849,6.381-64.246,20.833    c-19.292,11.914-54.378-1.306-67.157-6.837L341.408,173.522z"/>
		<path id="XMLID_583_" d="M256.461,220.457c9.314,2.623,19.307-1.709,23.759-10.301l35.651-68.799    c1.262-2.301,1.574-5.019,0.844-7.564c-0.81-2.824-2.819-5.148-5.496-6.357c-12.007-5.423-23.59-12.086-34.43-19.803v0    c-25.22-17.957-54.963-27.539-85.97-27.711l-0.363-0.002c-0.024,0-0.049,0-0.073,0c-8.65,0-16.166,5.257-19.159,13.411    c-3.012,8.202-0.652,17.129,6.009,22.743c9.018,7.6,23.853,22.579,21.893,37.508l-0.322,2.448    c-3.916,29.74-6.503,49.387,9.13,66.967c3.71,4.172,8.834,6.586,14.428,6.799c0.257,0.01,0.514,0.015,0.77,0.015    c5.333,0,10.547-2.101,14.409-5.83C242.248,219.432,248.616,218.247,256.461,220.457z M223.646,209.594    c-0.196,0.188-0.404,0.216-0.525,0.216c-0.155-0.006-0.203-0.061-0.242-0.104c-9.188-10.333-8.022-22.384-4.246-51.065    l0.323-2.456c2.405-18.32-7.565-37.479-28.834-55.404c-0.186-0.157-0.185-0.188-0.178-0.307c0.016-0.256,0.162-0.488,0.227-0.532    c0,0,0.061-0.022,0.198-0.022c0,0,0.003,0,0.005,0l0.293,0.001c26.907,0.149,52.677,8.45,74.523,24.003v0    c9.01,6.414,18.492,12.167,28.292,17.168l-31.02,59.86c-0.109,0.213-0.348,0.316-0.579,0.252    C247.124,197.05,233.547,200.03,223.646,209.594z"/>
		<path id="XMLID_584_" d="M267.107,452.085c-2.64,0-5.21,1.06-7.08,2.93c-1.859,1.86-2.93,4.43-2.93,7.07    c0,2.63,1.07,5.21,2.93,7.069c1.87,1.86,4.44,2.931,7.08,2.931c2.63,0,5.2-1.07,7.061-2.931c1.869-1.869,2.939-4.439,2.939-7.069    s-1.07-5.21-2.939-7.07C272.307,453.145,269.737,452.085,267.107,452.085z"/>
		<path id="XMLID_585_" d="M62.267,253.595c0-2.63-1.07-5.21-2.93-7.07c-1.86-1.86-4.44-2.92-7.07-2.92c-2.64,0-5.22,1.06-7.07,2.92    c-1.87,1.87-2.93,4.44-2.93,7.07c0,2.64,1.06,5.21,2.93,7.07c1.86,1.87,4.431,2.93,7.07,2.93c2.63,0,5.21-1.06,7.07-2.93    C61.197,258.815,62.267,256.235,62.267,253.595z"/>
	</g>
</g>















</svg>
