<?xml version="1.0" encoding="iso-8859-1"?>
<!-- Generator: Adobe Illustrator 19.0.0, SVG Export Plug-In . SVG Version: 6.00 Build 0)  -->
<svg xmlns="http://www.w3.org/2000/svg" xmlns:xlink="http://www.w3.org/1999/xlink" version="1.1" id="Layer_1" x="0px" y="0px" viewBox="0 0 512 512" style="enable-background:new 0 0 512 512;" xml:space="preserve" width="512" height="512">
<g id="XMLID_119_">
	<path id="XMLID_22_" style="fill:#B3B6C3;" d="M401.991,117.157L338.959,95.85l0,0c-2.368,20.001,8.787,39.155,27.353,46.964   l7.188,3.023l0,0c13.268-3.121,23.852-13.103,27.743-26.167L401.991,117.157z"/>
	<path id="XMLID_21_" style="fill:#B3B6C3;" d="M405.275,116.779L441.958,62.8l0,0c12.515,13.019,15.227,32.614,6.719,48.543   l-2.974,5.569l0,0"/>
	<path id="XMLID_20_" style="fill:#EDF2FA;" d="M497.533,179.197L474,157.666l-16.077-24.413   c-5.156-7.829-13.642-12.832-22.988-13.554l-32.943-2.543l-31.674,31.884c-6.822,6.868-16.102,10.729-25.783,10.729H143.384   c-23.968,0-46.972,9.444-64.026,26.285h0c-38.986,38.499-35.424,102.45,7.595,136.382h0c11.456,9.036,18.163,22.805,18.216,37.395   l0.324,89.368h9.841h21.085h34.303l0-34.394c0-13.35,4.203-26.274,11.569-37.408c4.858-7.343,8.204-15.583,9.841-24.237h119.658   c1.637,8.655,4.983,16.894,9.841,24.238c7.366,11.134,11.569,24.058,11.569,37.408V449.2H387h0h0h11.941v-91.601l10.259-25.537   c8.741-21.759,13.233-44.992,13.233-68.441v-39.292h19.824c7.494,0,14.922-1.398,21.903-4.122l13.783-5.378h10.31   c7.592,0,13.747-6.155,13.747-13.747V189.34C502,185.482,500.379,181.801,497.533,179.197z"/>
	<path id="XMLID_19_" style="fill:#B3B6C3;" d="M40.721,337.459c0-9.735-6.877-17.626-15.361-17.626S10,327.724,10,337.459   s6.877,35.715,15.361,35.715S40.721,347.193,40.721,337.459z"/>
	<path id="XMLID_122_" style="fill:#EDF2FA;" d="M192.131,353.161"/>
	<g id="XMLID_23_">
		<path id="XMLID_48_" d="M504.283,171.819l-22.615-20.69l-15.394-23.375c-2.598-3.945-5.873-7.361-9.612-10.136l0.834-1.562    c10.581-19.809,7.233-43.995-8.33-60.186c-2.089-2.173-5.042-3.286-8.052-3.035c-3.004,0.255-5.733,1.851-7.428,4.344    l-33.232,48.902l-58.293-19.705c-2.855-0.965-5.995-0.591-8.543,1.02c-2.549,1.61-4.235,4.284-4.589,7.278    c-2.516,21.248,7.682,41.959,25.369,53.159c-3.117,1.26-6.471,1.938-9.863,1.938H143.384c-24.129,0-47.007,8.419-65.235,23.854    c-0.815-0.214-1.665-0.34-2.547-0.34H63.676c-26.641,0-48.315,21.674-48.315,48.315v90.476C6.336,316.31,0,326.092,0,337.459    c0,6.443,2.046,16.45,5.092,24.898c4.979,13.813,11.798,20.816,20.269,20.816c8.471,0,15.291-7.004,20.269-20.816    c3.045-8.448,5.091-18.455,5.091-24.898c0-11.367-6.335-21.148-15.36-25.384v-90.476c0-14.409,10.82-26.329,24.76-28.084    c-12.615,18.313-18.958,40.454-17.702,62.999c1.611,28.937,15.586,55.825,38.341,73.773c9.115,7.189,14.367,17.972,14.409,29.58    l0.324,89.368c0.02,5.509,4.491,9.964,10,9.964h30.926c0.577,0,1.139-0.06,1.689-0.153c0.55,0.094,1.112,0.153,1.689,0.153h30.926    c5.523,0,10-4.478,10-10v-34.395c0-11.225,3.313-22.081,9.579-31.396c4.494-6.679,7.846-13.92,10.033-21.59h103.255    c2.187,7.669,5.538,14.911,10.033,21.59c6.266,9.314,9.579,20.171,9.579,31.396V449.2c0,5.522,4.477,10,10,10h29.116    c0.823,0,1.619-0.111,2.385-0.298c0.766,0.188,1.562,0.298,2.385,0.298h31.856c5.523,0,10-4.478,10-10v-89.668l9.538-23.744    c0.326-0.812,0.646-1.624,0.961-2.439c1.987-5.153-0.58-10.941-5.733-12.928c-5.155-1.991-10.941,0.58-12.928,5.732    c-0.281,0.729-0.568,1.456-0.859,2.181l-10.258,25.537c-0.476,1.186-0.721,2.45-0.721,3.728V439.2h-11.856v-24.395    c0-15.216-4.49-29.933-12.985-42.561c-4.136-6.147-6.964-12.938-8.436-20.188c0.002-0.08,0.012-0.157,0.012-0.237    c0-1.417-0.298-2.762-0.83-3.984l-6.928-36.631c-1.026-5.427-6.256-8.988-11.684-7.968c-5.427,1.026-8.994,6.258-7.967,11.685    l5.087,26.897H170.15l5.087-26.897c1.026-5.427-2.541-10.658-7.967-11.685c-5.424-1.023-10.658,2.54-11.684,7.968l-7.583,40.097    c-1.425,7.535-4.318,14.581-8.6,20.943c-8.494,12.627-12.984,27.344-12.984,42.56V439.2h-10.962l-0.288-79.404    c-0.064-17.743-8.091-34.222-22.023-45.211c-18.254-14.398-29.465-35.97-30.758-59.183c-1.292-23.213,7.454-45.896,23.997-62.231    c15.281-15.09,35.524-23.4,57-23.4h201.151c12.256,0,24.239-4.986,32.877-13.682c0.386-0.388,0.722-0.805,1.03-1.236    c13.698-4.066,24.877-14.077,30.481-27.131l25.243,1.949c6.217,0.479,11.976,3.875,15.406,9.083l16.077,24.413    c0.454,0.689,0.992,1.32,1.602,1.878l23.532,21.529c0.774,0.709,1.218,1.717,1.218,2.766v11.741c0,2.066-1.681,3.747-3.747,3.747    h-10.311c-1.244,0-2.477,0.232-3.635,0.684l-13.784,5.379c-5.845,2.281-11.991,3.438-18.267,3.438h-19.824    c-5.523,0-10,4.478-10,10V250.5c0,5.522,4.477,10,10,10s10-4.478,10-10v-16.172h9.824c8.774,0,17.366-1.617,25.538-4.806    l12.03-4.694h8.429c13.094,0,23.747-10.653,23.747-23.747V189.34C512,182.693,509.188,176.307,504.283,171.819z M25.361,359.261    C22.666,353.121,20,343.017,20,337.459c0-4.063,2.505-7.626,5.361-7.626c2.855,0,5.36,3.563,5.36,7.626    C30.721,343.017,28.056,353.121,25.361,359.261z M357.084,439.2h-13.886v-24.395c0-15.217-4.49-29.934-12.985-42.561    c-2.22-3.299-4.058-6.785-5.52-10.425h12.779c2.187,7.67,5.539,14.911,10.033,21.59c6.267,9.314,9.579,20.171,9.579,31.396V439.2z     M155.996,383.411c4.495-6.679,7.846-13.921,10.034-21.591h13.197c-1.462,3.64-3.3,7.126-5.52,10.426    c-8.495,12.626-12.985,27.343-12.985,42.56V439.2h-14.304v-24.395C146.418,403.581,149.73,392.724,155.996,383.411z     M374.12,135.249l-3.931-1.653c-10.239-4.307-17.628-13.175-20.37-23.52l38.994,13.182    C385.475,128.796,380.283,133.07,374.12,135.249z M422.832,108.735l18.895-27.805c2.987,8.255,2.469,17.578-1.87,25.701    l-1.791,3.353c-0.783-0.108-1.57-0.195-2.361-0.256L422.832,108.735z"/>
		<path id="XMLID_53_" d="M436.51,174.689c1.86-1.859,2.93-4.439,2.93-7.069s-1.07-5.21-2.93-7.07s-4.44-2.93-7.07-2.93    s-5.21,1.069-7.07,2.93c-1.87,1.86-2.93,4.44-2.93,7.07s1.06,5.21,2.93,7.069c1.86,1.86,4.43,2.931,7.07,2.931    C432.07,177.62,434.65,176.55,436.51,174.689z"/>
		<path id="XMLID_54_" d="M243.4,192.21c-1.86,1.87-2.93,4.439-2.93,7.08c0,2.63,1.07,5.2,2.93,7.069    c1.86,1.86,4.44,2.921,7.07,2.921c2.63,0,5.21-1.061,7.07-2.921c1.86-1.869,2.93-4.439,2.93-7.069c0-2.641-1.07-5.221-2.93-7.08    c-1.86-1.86-4.44-2.92-7.07-2.92C247.84,189.29,245.26,190.349,243.4,192.21z"/>
		<path id="XMLID_55_" d="M135.984,189.285c-5.523,0-10,4.478-10,10s4.477,10,10,10h74.491c5.523,0,10-4.478,10-10s-4.477-10-10-10    H135.984z"/>
		<path id="XMLID_56_" d="M420.41,280.83c-2.64,0-5.22,1.069-7.08,2.93c-1.86,1.86-2.93,4.44-2.93,7.07s1.07,5.21,2.93,7.069    c1.86,1.87,4.44,2.931,7.08,2.931c2.63,0,5.2-1.061,7.07-2.931c1.86-1.859,2.93-4.439,2.93-7.069s-1.07-5.21-2.93-7.07    C425.61,281.899,423.04,280.83,420.41,280.83z"/>
	</g>
</g>















</svg>
