<?xml version="1.0" encoding="iso-8859-1"?>
<!-- Generator: Adobe Illustrator 19.0.0, SVG Export Plug-In . SVG Version: 6.00 Build 0)  -->
<svg xmlns="http://www.w3.org/2000/svg" xmlns:xlink="http://www.w3.org/1999/xlink" version="1.1" id="Layer_1" x="0px" y="0px" viewBox="0 0 512 512" style="enable-background:new 0 0 512 512;" xml:space="preserve" width="512" height="512">
<g id="XMLID_1199_">
	<path id="XMLID_2022_" style="fill:#C9F3FF;" d="M458.667,64H53.333C29.401,64,10,83.401,10,107.333v297.333   C10,428.599,29.401,448,53.333,448h405.333C482.599,448,502,428.599,502,404.667V107.333C502,83.401,482.599,64,458.667,64z"/>
	<g id="XMLID_2134_">
		<path id="XMLID_2135_" style="fill:#D8D8E4;" d="M53.333,104c-1.838,0-3.333,1.495-3.333,3.333v297.334    c0,1.838,1.495,3.333,3.333,3.333h405.333c1.838,0,3.333-1.495,3.333-3.333V107.333c0-1.838-1.495-3.333-3.333-3.333H53.333z"/>
	</g>
	<g id="XMLID_887_">
		<path id="XMLID_958_" style="fill:#FFB9B7;" d="M355.004,407.295c-26.826,3.225-52.261-4.809-71.726-20.287    c-23.934-19.032-52.649-31.106-82.804-36.179c-24.374-4.101-47.761-15.491-66.65-34.171    c-48.276-47.742-49.081-126.322-1.744-174.996c48.425-49.793,128.053-50.214,177.005-1.262    c20.82,20.82,85.298,85.322,102.639,102.642c15.73,15.711,26.157,36.914,28.015,60.891    C443.712,355.209,406.065,401.156,355.004,407.295z"/>
		<path id="XMLID_1756_" style="fill:#FE8F8D;" d="M297.1,216.932c4.383-10.638,1.938-22.868-6.197-31.005l-15.776-15.779    c-15.077-15.076-35.081-23.359-56.382-23.359c-0.191,0-0.381,0.001-0.573,0.003c-21.508,0.15-41.625,8.736-56.641,24.179    c-30.387,31.246-29.878,81.618,1.135,112.289c8.481,8.387,18.542,14.67,29.581,18.54c7.627,2.674,16.063,1.71,23.084-2.294    l52.733-30.07c6.273-3.577,11.173-9.145,13.924-15.822L297.1,216.932z"/>
		<path id="XMLID_1790_" style="fill:#FE8F8D;" d="M375.109,302.191c10.94,3.911,20.234-8.782,13.259-18.074    c-1.6-2.131-3.236-3.962-4.779-5.503c-5.588-5.581-23.92-23.913-37.616-37.609c-7.314-7.314-19.777-4.258-22.882,5.609    l-3.858,12.262c-3.459,10.995,1.77,22.85,12.223,27.709L375.109,302.191z"/>
		<path id="XMLID_1789_" style="fill:#FE8F8D;" d="M272.992,316.268L272.992,316.268c-8.144,10.47-4.049,25.81,8.229,30.828    c12.171,4.974,26.08,11.092,34.879,16.343c12.906,7.7,28.055,9.854,42.668,6.076c0.108-0.028,0.215-0.056,0.323-0.085    c13.479-3.581,15-22.186,2.424-28.215l-64.059-30.71C288.96,306.432,278.775,308.832,272.992,316.268z"/>
	</g>
	<g id="XMLID_625_">
		<path id="XMLID_648_" d="M467.421,54.731c-0.067-0.013-0.133-0.024-0.2-0.036c-2.787-0.451-5.642-0.695-8.554-0.695H169.333    c-5.523,0-10,4.478-10,10s4.477,10,10,10h272.496l-20,20H53.333C45.981,94,40,99.981,40,107.333v297.334    C40,412.019,45.981,418,53.333,418h15.857l-19.763,19.763C32.882,435.823,20,421.725,20,404.667V107.333    C20,88.953,34.953,74,53.333,74h36c5.523,0,10-4.478,10-10s-4.477-10-10-10h-36C23.925,54,0,77.925,0,107.333v297.334    C0,434.075,23.925,458,53.333,458H304c5.523,0,10-4.478,10-10s-4.477-10-10-10H77.476l20-20h245.44    c0.094,0,0.187,0.006,0.28,0.006c0.129,0,0.26-0.005,0.389-0.006h115.081c7.352,0,13.333-5.981,13.333-13.333V107.333    C472,99.981,466.019,94,458.667,94h-8.553l18.487-18.488C482.145,79.75,492,92.412,492,107.333v297.334    c0,18.38-14.953,33.333-33.333,33.333H384c-5.523,0-10,4.478-10,10s4.477,10,10,10h74.666C488.075,458,512,434.075,512,404.667    V107.333C512,80.907,492.677,58.921,467.421,54.731z M353.811,397.366C353.81,397.366,353.81,397.366,353.811,397.366    c-23.213,2.792-46.051-3.668-64.309-18.185c-24.538-19.512-54.749-32.726-87.369-38.214c-23.26-3.913-44.449-14.778-61.277-31.42    c-44.438-43.946-45.158-116.131-1.607-160.913c21.51-22.118,50.332-34.417,81.155-34.632c0.275-0.002,0.546-0.003,0.82-0.003    c30.521,0,59.187,11.869,80.79,33.473l27.659,27.663c27.248,27.253,62.784,62.797,74.984,74.982    c14.596,14.578,23.514,33.964,25.111,54.588C433.304,350.339,399.229,391.906,353.811,397.366z M117.476,398l19.597-19.597    c3.905-3.905,3.905-10.237,0-14.143c-3.905-3.904-10.237-3.904-14.143,0L89.191,398H60V114h90.6    c-9.259,5.746-17.884,12.667-25.689,20.691c-51.176,52.621-50.332,137.441,1.881,189.077    c19.772,19.554,44.677,32.321,72.022,36.922c29.291,4.928,56.345,16.735,78.24,34.146c1.378,1.096,2.783,2.143,4.203,3.164    H117.476z M452,114v284h-46.561c7.476-5.396,14.305-11.801,20.305-19.12c17.576-21.443,26.087-48.335,23.965-75.719    c-1.966-25.381-12.946-49.244-30.918-67.193c-12.199-12.185-47.731-47.724-74.975-74.974l-27.66-27.664    c-7.454-7.454-15.627-13.912-24.356-19.33h110.028l-27.556,27.557c-3.905,3.905-3.905,10.237,0,14.143    c1.953,1.952,4.512,2.929,7.071,2.929s5.119-0.977,7.071-2.929L430.114,114H452z"/>
		<path id="XMLID_653_" d="M217.119,193.041c-16.406,0-29.752,13.347-29.752,29.752c0,16.406,13.347,29.753,29.752,29.753    s29.752-13.347,29.752-29.753C246.872,206.388,233.525,193.041,217.119,193.041z M217.119,232.546    c-5.377,0-9.752-4.375-9.752-9.753c0-5.377,4.375-9.752,9.752-9.752s9.752,4.375,9.752,9.752    C226.872,228.171,222.497,232.546,217.119,232.546z"/>
		<path id="XMLID_656_" d="M291.234,257.424l15.112-36.682c5.939-14.418,2.654-30.859-8.371-41.885l-15.777-15.78    c-16.953-16.952-39.487-26.288-63.453-26.288l-0.642,0.003c-24.207,0.168-46.844,9.831-63.741,27.207    c-34.199,35.165-33.628,91.854,1.272,126.37c9.554,9.448,20.759,16.469,33.303,20.866c3.956,1.388,8.089,2.072,12.231,2.072    c6.576,0,13.173-1.727,19.116-5.116l52.733-30.069C281.184,273.466,287.653,266.115,291.234,257.424z M263.111,260.749    l-52.733,30.069c-4.652,2.653-10.054,3.217-14.822,1.544c-9.728-3.41-18.427-8.865-25.857-16.214    c-27.125-26.825-27.573-70.881-0.998-98.206c13.136-13.509,30.73-21.02,49.522-21.15l0.522-0.003    c18.624,0,36.136,7.256,49.311,20.43l15.777,15.779c5.297,5.298,6.875,13.197,4.021,20.125l-15.112,36.682    C270.849,254.4,267.428,258.287,263.111,260.749z"/>
		<path id="XMLID_659_" d="M390.656,271.539c-5.587-5.581-23.918-23.909-37.612-37.604c-5.928-5.928-14.326-8.272-22.469-6.281    c-8.143,1.995-14.507,7.962-17.023,15.96l-3.857,12.262c-4.949,15.728,2.595,32.829,17.547,39.778    c0.277,0.129,0.561,0.245,0.849,0.348l43.653,15.606c2.429,0.869,4.918,1.288,7.373,1.288c6.725-0.001,13.183-3.148,17.372-8.833    c5.736-7.782,5.687-18.211-0.123-25.949C394.631,275.803,392.71,273.591,390.656,271.539z M380.388,292.198    c-0.735,0.995-1.53,0.714-1.913,0.577l-43.16-15.431c-5.642-2.834-8.45-9.409-6.543-15.468l3.857-12.262    c0.556-1.766,1.933-2.347,2.705-2.536c0.77-0.189,2.259-0.312,3.567,0.998c13.698,13.697,32.033,32.031,37.62,37.611    c1.386,1.385,2.681,2.876,3.85,4.433C380.604,290.433,381.152,291.161,380.388,292.198z"/>
		<path id="XMLID_662_" d="M365.837,332.197l-64.059-30.71c-12.645-6.06-28.071-2.427-36.68,8.642    c-5.819,7.482-7.755,17.023-5.312,26.178s8.878,16.461,17.651,20.046c15.098,6.171,26.694,11.591,33.538,15.675    c10.314,6.153,21.846,9.306,33.585,9.306c5.574,0,11.196-0.711,16.756-2.148l0.34-0.09c10.163-2.699,17.369-11.243,18.358-21.766    C381.017,346.672,375.452,336.807,365.837,332.197z M360.103,355.457c-0.121,1.286-0.747,3.556-3.562,4.303l-0.277,0.073    c-12.008,3.105-24.453,1.336-35.04-4.98c-7.797-4.653-19.983-10.377-36.22-17.014c-2.93-1.197-5.079-3.636-5.894-6.69    c-0.816-3.056-0.168-6.241,1.775-8.74c1.941-2.496,4.918-3.859,7.948-3.859c1.458,0,2.928,0.316,4.299,0.974l64.059,30.71    C360.13,351.642,360.207,354.355,360.103,355.457z"/>
		<path id="XMLID_663_" d="M129.33,74c2.63,0,5.21-1.07,7.07-2.931c1.87-1.859,2.93-4.439,2.93-7.069s-1.06-5.21-2.93-7.07    c-1.86-1.86-4.43-2.93-7.07-2.93c-2.63,0-5.21,1.069-7.07,2.93s-2.93,4.44-2.93,7.07s1.07,5.21,2.93,7.069    C124.12,72.93,126.7,74,129.33,74z"/>
		<path id="XMLID_664_" d="M344,438c-2.63,0-5.21,1.069-7.07,2.93c-1.86,1.86-2.93,4.44-2.93,7.07s1.07,5.21,2.93,7.069    c1.86,1.86,4.44,2.931,7.07,2.931c2.63,0,5.21-1.07,7.07-2.931c1.86-1.859,2.93-4.439,2.93-7.069s-1.07-5.21-2.93-7.07    S346.63,438,344,438z"/>
	</g>
</g>















</svg>
