<?xml version="1.0" encoding="iso-8859-1"?>
<!-- Generator: Adobe Illustrator 19.0.0, SVG Export Plug-In . SVG Version: 6.00 Build 0)  -->
<svg xmlns="http://www.w3.org/2000/svg" xmlns:xlink="http://www.w3.org/1999/xlink" version="1.1" id="Layer_1" x="0px" y="0px" viewBox="0 0 512 512" style="enable-background:new 0 0 512 512;" xml:space="preserve" width="512" height="512">
<g id="XMLID_1090_">
	<g id="XMLID_1984_">
		<rect id="XMLID_1994_" x="37" y="10" style="fill:#C9F3FF;" width="438" height="492"/>
		<rect id="XMLID_1985_" x="80" y="50" style="fill:#EDF2FA;" width="352" height="412"/>
	</g>
	<g id="XMLID_1446_">
		<path id="XMLID_1455_" style="fill:#FFB9B7;" d="M217.718,418h-80.513c-9.502,0-17.204,7.703-17.204,17.204v9.591    c0,9.502,7.703,17.204,17.204,17.204h80.513c9.502,0,17.204-7.703,17.204-17.204v-9.591C234.922,425.703,227.219,418,217.718,418z    "/>
		<path id="XMLID_1454_" style="fill:#FFB9B7;" d="M217.718,374h-80.513c-9.502,0-17.204,7.703-17.204,17.204v9.591    c0,9.502,7.703,17.204,17.204,17.204h80.513c9.502,0,17.204-7.703,17.204-17.204v-9.591C234.922,381.703,227.219,374,217.718,374z    "/>
		<path id="XMLID_1450_" style="fill:#FFB9B7;" d="M278.315,455.6c-17.652-8.537-32.195-22.808-40.969-40.603    c-7.207-14.616,2.438-31.92,18.665-33.413h0c9.632-0.886,18.719,4.338,23.013,13.006c5.254,10.606,14.826,18.565,26.213,21.796    c9.306,2.64,16.1,10.621,16.986,20.253v0c1.487,16.162-13.668,28.863-29.298,24.489C287.87,459.714,282.983,457.858,278.315,455.6    z"/>
		<path id="XMLID_1447_" style="fill:#FFB9B7;" d="M352.933,455.6c-17.652-8.537-32.195-22.808-40.969-40.603    c-7.207-14.616,2.438-31.92,18.665-33.413h0c9.632-0.886,18.719,4.338,23.013,13.006c5.254,10.606,14.826,18.565,26.213,21.796    c9.306,2.64,16.1,10.621,16.986,20.253l0,0c1.487,16.162-13.668,28.863-29.298,24.489    C362.487,459.714,357.601,457.858,352.933,455.6z"/>
	</g>
	<path id="XMLID_1965_" style="fill:#FE8F8D;" d="M343.388,324.667c27.078,0,48.986-22.14,48.607-49.305   c-0.37-26.555-22.326-48.066-48.883-47.918H303.91"/>
	<path id="XMLID_1964_" style="fill:#FFB9B7;" d="M303.91,227.443c-10.391,0.058-20.01,3.376-27.885,8.983   c-9.743,6.937-21.025,11.54-32.909,12.896c-9.665,1.103-18.922,5.915-25.449,14.227c-12.425,15.821-10.129,38.941,5.152,52.024   c7.145,6.118,15.894,9.098,24.59,9.093c9.586-0.006,45.26,0.001,56.777,0.001c27.079,0,48.986-22.14,48.607-49.305   C352.423,248.807,330.467,227.295,303.91,227.443z"/>
	<path id="XMLID_1086_" style="fill:#FFB9B7;" d="M214.244,227.443c-10.391,0.058-20.01,3.376-27.885,8.983   c-9.743,6.937-21.025,11.54-32.909,12.896c-9.665,1.103-18.922,5.915-25.449,14.227c-12.425,15.821-10.129,38.941,5.152,52.024   c7.145,6.118,15.894,9.098,24.59,9.093c9.586-0.006,45.26,0.001,56.777,0.001c27.079,0,48.986-22.14,48.607-49.305   C262.757,248.807,240.801,227.295,214.244,227.443z"/>
	<g id="XMLID_2004_">
		<path id="XMLID_2003_" style="fill:#FE8F8D;" d="M156,187.333h64.194c15.464,0,28-12.536,28-28v0c0-15.464-12.536-28-28-28H156"/>
		<circle id="XMLID_2002_" style="fill:#FFDFE0;" cx="156" cy="159.333" r="28"/>
	</g>
	<g id="XMLID_1028_">
		<path id="XMLID_1032_" style="fill:#FE8F8D;" d="M276.194,187.333h64.194c15.464,0,28-12.536,28-28v0c0-15.464-12.536-28-28-28    h-64.194"/>
		<circle id="XMLID_1031_" style="fill:#FFDFE0;" cx="276.194" cy="159.333" r="28"/>
	</g>
	<g id="XMLID_679_">
		<path id="XMLID_708_" d="M475,0H37c-5.523,0-10,4.478-10,10v492c0,5.522,4.477,10,10,10h438c5.523,0,10-4.478,10-10V227.442    c0-5.522-4.477-10-10-10s-10,4.478-10,10V492H47V20h418v128.628c0,5.522,4.477,10,10,10s10-4.478,10-10V10    C485,4.478,480.523,0,475,0z"/>
		<path id="XMLID_748_" d="M80,40c-5.523,0-10,4.478-10,10v412c0,5.522,4.477,10,10,10h352c5.523,0,10-4.478,10-10V50    c0-5.522-4.477-10-10-10H80z M199.054,314.666c-8.594-0.001-18.65-0.002-26.95-0.002c-6.238,0-11.484,0-14.368,0.002    c-0.005,0-0.01,0-0.015,0c-6.611,0-13.026-2.375-18.064-6.689c-11.155-9.55-12.856-26.71-3.792-38.251h0    c4.635-5.902,11.284-9.62,18.719-10.469c13.205-1.506,26.198-6.584,37.575-14.685c6.488-4.619,14.145-7.085,22.141-7.129    c0.072-0.001,0.144-0.001,0.216-0.001c21.019,0,38.319,17.028,38.612,38.059c0.145,10.424-3.802,20.249-11.115,27.664    c-7.314,7.417-17.079,11.502-27.494,11.502L199.054,314.666z M288.721,314.666c-9.721-0.001-21.309-0.002-30.113-0.002    c9.584-10.914,14.722-24.785,14.518-39.442c-0.112-8.069-1.878-15.747-4.962-22.72c4.739-2.183,9.31-4.831,13.662-7.929    c6.487-4.62,14.144-7.085,22.14-7.129c0.072-0.001,0.144-0.001,0.216-0.001c21.019,0,38.319,17.028,38.612,38.059    c0.145,10.425-3.802,20.249-11.115,27.664c-7.314,7.417-17.078,11.502-27.494,11.502L288.721,314.666z M370.881,303.165    c-6.085,6.171-13.868,10.025-22.31,11.15c9.39-10.86,14.423-24.591,14.221-39.093c-0.199-14.288-5.577-27.348-14.307-37.43    c18.646,2.49,33.242,18.409,33.511,37.709C382.141,285.926,378.194,295.75,370.881,303.165z M343.439,217.442    c-0.107,0-0.22,0-0.327,0.001H307.33c-0.347,0-0.69,0.018-1.028,0.052c-0.704-0.025-1.408-0.053-2.119-0.053    c-0.107,0-0.22,0.001-0.328,0.001c-12.138,0.067-23.767,3.814-33.629,10.836c-4.239,3.018-8.733,5.467-13.398,7.327    c-10.699-11.178-25.738-18.164-42.311-18.164c-0.107,0-0.22,0.001-0.328,0.001c-12.138,0.067-23.767,3.814-33.63,10.837    c-8.626,6.142-18.392,9.982-28.242,11.105c-12.789,1.46-24.217,7.848-32.18,17.986h0c-7.609,9.69-11.125,21.836-9.9,34.202    c0.838,8.451,3.83,16.368,8.629,23.093H90V197.333h66h64.194h56h64.195H422v117.334h-34.526    c9.586-10.914,14.724-24.787,14.52-39.445C401.55,243.292,375.292,217.442,343.439,217.442z M138,159.333c0-9.925,8.075-18,18-18    s18,8.075,18,18s-8.075,18-18,18S138,169.258,138,159.333z M276.194,141.333c9.925,0,18,8.075,18,18s-8.075,18-18,18    s-18-8.075-18-18S266.269,141.333,276.194,141.333z M340.389,177.333h-30.738c2.896-5.361,4.543-11.491,4.543-18    s-1.647-12.639-4.543-18h30.738c9.925,0,18,8.075,18,18S350.314,177.333,340.389,177.333z M220.194,177.333h-30.737    c2.896-5.361,4.543-11.491,4.543-18s-1.647-12.639-4.543-18h30.737c9.925,0,18,8.075,18,18S230.12,177.333,220.194,177.333z     M422,60v117.333h-48.154c2.896-5.361,4.543-11.491,4.543-18c0-20.953-17.047-38-38-38h-64.195c-11.071,0-21.048,4.761-28,12.341    c-6.952-7.579-16.929-12.341-28-12.341H156c-20.953,0-38,17.047-38,38c0,6.509,1.647,12.639,4.543,18H90V60H422z M130,400.796    v-9.592c0-3.973,3.232-7.204,7.205-7.204h80.513c3.973,0,7.205,3.231,7.205,7.204v9.592c0,3.973-3.232,7.204-7.205,7.204h-80.513    C133.232,408,130,404.769,130,400.796z M382.174,448.932c-3.372,2.81-7.724,3.746-11.937,2.567    c-4.436-1.242-8.793-2.891-12.951-4.902c0,0,0,0,0,0c-11.875-5.742-22.135-14.434-29.767-25.061    c-0.57-0.94-1.202-1.837-1.863-2.713c-1.737-2.647-3.32-5.399-4.725-8.249c-1.963-3.981-1.848-8.481,0.316-12.347    c2.153-3.845,5.906-6.281,10.296-6.686c0.407-0.037,0.812-0.056,1.213-0.056c5.015,0,9.606,2.865,11.922,7.542    c6.51,13.142,18.335,22.975,32.444,26.978c5.424,1.539,9.254,6.073,9.758,11.55C387.287,441.954,385.571,446.101,382.174,448.932z     M302.506,426.006c2.925,0.83,5.38,2.536,7.106,4.786c0.264,0.392,0.536,0.777,0.805,1.165c1.013,1.667,1.66,3.567,1.846,5.599    c0.405,4.398-1.311,8.545-4.708,11.376c-3.372,2.81-7.724,3.746-11.937,2.567c-4.436-1.242-8.793-2.891-12.951-4.902c0,0,0,0,0,0    c-15.743-7.612-28.653-20.405-36.354-36.021c-1.963-3.982-1.848-8.482,0.316-12.348c2.153-3.845,5.906-6.281,10.295-6.686    c0.407-0.037,0.811-0.056,1.213-0.056c5.015,0,9.606,2.866,11.923,7.542C276.572,412.17,288.398,422.003,302.506,426.006z     M254.308,452h-10.361c0.631-2.296,0.976-4.71,0.976-7.204v-1.566C247.855,446.352,250.994,449.278,254.308,452z M137.205,452    c-3.973,0-7.205-3.231-7.205-7.204v-9.592c0-3.973,3.232-7.204,7.205-7.204h80.513c3.973,0,7.205,3.231,7.205,7.204v9.592    c0,3.973-3.232,7.204-7.205,7.204H137.205z M404.175,452c2.194-5.05,3.142-10.633,2.623-16.277    c-1.268-13.776-10.772-25.143-24.215-28.957c-8.689-2.466-15.973-8.521-19.981-16.615c-6.202-12.52-19.107-19.797-32.89-18.524    c-10.886,1.002-20.573,7.293-25.914,16.829c-2.54,4.535-3.927,9.526-4.181,14.569c-4.938-3.119-8.996-7.551-11.633-12.874    c-6.203-12.52-19.108-19.796-32.89-18.524c-5.228,0.481-10.172,2.193-14.499,4.887C235.75,368.994,227.309,364,217.717,364    h-80.513c-15,0-27.205,12.204-27.205,27.204v9.592c0,6.521,2.309,12.513,6.149,17.204c-3.84,4.691-6.149,10.683-6.149,17.204    v9.592c0,2.494,0.344,4.908,0.976,7.204H90V334.667h332V452H404.175z"/>
		<path id="XMLID_1026_" d="M301.48,266.06c-2.64,0-5.22,1.061-7.08,2.92c-1.86,1.87-2.93,4.44-2.93,7.07    c0,2.64,1.07,5.21,2.93,7.07c1.87,1.87,4.44,2.939,7.08,2.939c2.63,0,5.21-1.069,7.07-2.939c1.86-1.851,2.92-4.431,2.92-7.07    c0-2.63-1.06-5.21-2.92-7.07C306.69,267.12,304.11,266.06,301.48,266.06z"/>
		<path id="XMLID_1156_" d="M211.81,266.06c-2.64,0-5.21,1.061-7.07,2.92c-1.86,1.86-2.93,4.44-2.93,7.07    c0,2.64,1.07,5.22,2.93,7.07c1.86,1.87,4.44,2.939,7.07,2.939c2.63,0,5.21-1.069,7.07-2.939c1.86-1.86,2.93-4.431,2.93-7.07    c0-2.63-1.07-5.2-2.93-7.07C217.02,267.12,214.44,266.06,211.81,266.06z"/>
		<path id="XMLID_1157_" d="M475,177.33c-2.63,0-5.21,1.069-7.07,2.93c-1.86,1.86-2.93,4.44-2.93,7.07s1.07,5.21,2.93,7.069    c1.86,1.87,4.44,2.931,7.07,2.931c2.63,0,5.21-1.061,7.07-2.931c1.86-1.859,2.93-4.43,2.93-7.069c0-2.63-1.07-5.21-2.93-7.07    S477.63,177.33,475,177.33z"/>
	</g>
</g>















</svg>
