<?xml version="1.0" encoding="iso-8859-1"?>
<!-- Generator: Adobe Illustrator 19.0.0, SVG Export Plug-In . SVG Version: 6.00 Build 0)  -->
<svg xmlns="http://www.w3.org/2000/svg" xmlns:xlink="http://www.w3.org/1999/xlink" version="1.1" id="Layer_1" x="0px" y="0px" viewBox="0 0 512 512" style="enable-background:new 0 0 512 512;" xml:space="preserve" width="512" height="512">
<g id="XMLID_905_">
	<path id="XMLID_2174_" style="fill:#FFB9B7;" d="M43.456,238.218c0-63.027,51.094-114.121,114.121-114.121H357.35h0   c6.988,0,20.521,1.444,20.521,1.444s0.701-41.781,45.439-54.231c-0.959,17.789,8.996,24.655,6.078,40.788   c-2.918,16.134-21.871,29.602-20.973,30.343l27.043,22.308c18.732,15.452,42.258,23.903,66.541,23.903v0v41.738l-2.27,3.895   c-0.492,0.845-0.998,1.68-1.515,2.504c-16.051,25.559-44.156,41.166-74.473,41.166h0v0c-5.974,24.257-25.237,45.466-44.868,58.683   l0.002,78.037c6.26,3.983,15.649,26.016,15.649,26.016h-60.298c0,0-7.437-41.012-16.896-68.032   c-2.337-6.676-4.27-13.473-5.799-20.354h-156.75l-11.412,62.37c6.26,3.983,15.649,26.016,15.649,26.016h-58.211   c0,0-13.074-103.586-34.591-134.075c-0.308-0.412-0.609-0.829-0.912-1.245c-0.272-0.355-0.544-0.708-0.818-1.039l0.075,0.02   C51.273,285.694,43.456,262.869,43.456,238.218L43.456,238.218z"/>
	<g id="XMLID_693_">
		<path id="XMLID_696_" d="M502,178.653c-21.907,0-43.278-7.677-60.178-21.617l-18.678-15.408    c6.236-6.496,13.993-16.181,16.085-27.749c1.984-10.973-0.635-18.729-2.946-25.572c-1.792-5.306-3.34-9.889-2.986-16.458    c0.173-3.216-1.212-6.318-3.724-8.335c-2.512-2.017-5.84-2.701-8.943-1.837c-26.721,7.436-39.67,24.272-45.829,37.087    c-2.835,5.898-4.51,11.448-5.5,15.946c-4.07-0.324-8.625-0.612-11.951-0.612H241.626c-5.523,0-10,4.478-10,10s4.477,10,10,10h30    v39.041h-42.147c-34.974,0-68.776-13.205-94.49-36.566c7.276-1.616,14.834-2.475,22.589-2.475h4.048c5.523,0,10-4.478,10-10    s-4.477-10-10-10h-4.048c-18.473,0-36.012,4.063-51.782,11.332c-0.461,0.171-0.911,0.388-1.352,0.632    c-23.415,11.138-42.81,29.396-55.377,51.958c-8.533,1.243-17.119-1.573-23.259-7.704C22.063,166.576,20,161.607,20,156.32    c0-5.287,2.062-10.258,5.807-13.997c5.413-5.404,14.221-5.404,19.632,0c3.909,3.902,10.24,3.897,14.143-0.011    c3.902-3.908,3.897-10.239-0.011-14.142c-13.205-13.186-34.69-13.186-47.896,0C4.146,135.69,0,145.687,0,156.32    s4.146,20.63,11.675,28.147c7.786,7.774,17.837,12.464,28.457,13.579c-4.323,12.605-6.675,26.118-6.675,40.171    c0,25.6,7.713,50.133,22.319,71.027c0.292,0.516,0.632,1.011,1.021,1.479c0.166,0.2,0.329,0.413,0.494,0.628l0.145,0.198    c0.227,0.313,0.454,0.624,0.684,0.934c16.425,23.448,29.22,101.372,32.768,129.46c0.632,4.998,4.883,8.747,9.921,8.747h58.211    c3.358,0,6.492-1.686,8.343-4.486c1.852-2.802,2.173-6.345,0.857-9.435c-3.032-7.114-8.313-18.349-14.086-25.431l8.845-49.035H225    c5.523,0,10-4.478,10-10s-4.477-10-10-10h-58.417l2.795-15.576c3.881-21.623,4.699-43.436,2.574-64.875l0.557,0.002    c27.309,0.047,54.168,7.423,77.672,21.332l50.56,29.919c-0.791,3.306-1.226,6.749-1.233,10.292l-0.036,18.072    c0,0.084,0.01,0.165,0.012,0.248c0.004,0.18,0.012,0.36,0.026,0.542c0.014,0.179,0.033,0.355,0.056,0.531    c0.011,0.084,0.013,0.167,0.027,0.251c1.744,11.098,4.537,22.174,8.299,32.921c9.084,25.947,16.422,66.109,16.495,66.513    c0.863,4.756,5.005,8.215,9.839,8.215h60.298c3.358,0,6.491-1.686,8.343-4.486c1.851-2.802,2.173-6.345,0.857-9.434    c-3.165-7.428-8.78-19.345-14.849-26.34l-0.002-68.599c20.108-14.719,35.4-34.307,42.385-54.159    c30.932-2.332,58.736-18.993,75.425-45.565c0.556-0.886,3.159-5.323,3.944-6.662c0.898-1.533,1.372-3.278,1.372-5.056v-41.737    C512,183.13,507.523,178.653,502,178.653z M291.626,134.097H341v8.364c0,10.397,0.943,20.653,2.743,30.677h-52.117V134.097z     M105.743,147.94l14.038,22.212c0.762,1.205,1.504,2.42,2.24,3.637l-13.34,20.87c-12.291,19.229-32.382,31.482-54.76,33.755    C57.151,193.997,77.198,164.394,105.743,147.94z M53.974,248.487c29.226-2.345,55.582-18.059,71.56-43.056l7.296-11.414    c8.52,18.198,14.407,37.395,17.557,57.063c-0.016,0.227-0.036,0.452-0.037,0.683c-0.005,1.299,0.245,2.537,0.69,3.677    c3.103,22.298,2.713,45.14-1.346,67.756l-3.2,17.832c0,0.001,0,0.001,0,0.001l-0.23,1.276h-32.427l-24.488-7.523    c-4.377-13.877-9.378-26.021-14.959-33.931c-0.054-0.077-0.109-0.153-0.166-0.229c-0.205-0.273-0.406-0.551-0.607-0.827    l-0.229-0.315c-0.048-0.065-0.097-0.132-0.147-0.196c-0.095-0.124-0.19-0.248-0.286-0.371c-0.079-0.122-0.162-0.242-0.247-0.362    C62.108,283.668,55.733,266.53,53.974,248.487z M109.537,430.691c-2.077-14.515-6.789-44.545-13.831-73.033l13.692,4.206    c0.951,0.292,1.941,0.44,2.937,0.44h30.321l-9.126,50.595c-0.708,3.928,0.986,7.893,4.296,10.098    c1.15,1.011,3.058,3.9,5.181,7.694H109.537z M172.568,241.855l-3.485-0.015c-4.744-25.331-13.657-49.87-26.57-72.642    c-0.01-0.018-0.02-0.036-0.03-0.055c-0.517-0.912-1.053-1.816-1.584-2.722c26.061,17.23,56.899,26.717,88.58,26.717h42.147v5.318    c0,31.697,9.005,62.708,25.669,89.37l-36.928-21.852C233.791,250.248,203.422,241.907,172.568,241.855z M342.488,430.691    c-2.702-13.549-8.598-40.998-15.718-61.337c-3.282-9.376-5.731-19.025-7.295-28.69l0.034-17.226    c0.027-13.583,11.1-24.634,24.683-24.634c13.61,0,24.683,11.072,24.683,24.683v13.151l0.002,78.036    c0,3.349,1.676,6.47,4.455,8.321c1.151,1.011,3.059,3.901,5.181,7.695H342.488z M388.3,316.365    c-3.422-21.264-21.894-37.561-44.108-37.561c-8.865,0-17.133,2.611-24.093,7.089c-18.423-25.308-28.473-55.99-28.473-87.437    v-5.318h56.961c10.829,35.351,32.865,66.607,63.469,88.85C407.666,293.983,399.341,305.969,388.3,316.365z M492,227.671    c-1.078,1.831-2.041,3.459-2.253,3.8c-13.813,21.994-37.199,35.449-63,36.422c-30.357-21.001-51.651-51.836-60.768-86.711    c-0.082-0.412-0.193-0.813-0.324-1.205c-3.06-12.11-4.655-24.696-4.655-37.515v-8.259c5.531,0.267,12.904,0.973,15.811,1.282    c2.793,0.299,5.581-0.592,7.684-2.451s3.329-4.518,3.375-7.324c0.005-0.304,0.791-27.043,26.699-40.348    c0.796,3.516,1.833,6.585,2.765,9.345c1.905,5.64,3.281,9.714,2.214,15.612c-1.588,8.78-11.269,18.019-15.403,21.964    c-3.18,3.035-5.927,5.656-5.754,10.452c0.104,2.857,1.456,5.601,3.661,7.42l27.043,22.309    c17.892,14.759,39.92,23.723,62.904,25.749V227.671z"/>
		<path id="XMLID_706_" d="M265,342.3c-2.63,0-5.21,1.07-7.07,2.93c-1.86,1.86-2.93,4.44-2.93,7.07c0,2.64,1.07,5.21,2.93,7.07    c1.86,1.87,4.44,2.93,7.07,2.93c2.63,0,5.21-1.06,7.07-2.93c1.86-1.86,2.93-4.431,2.93-7.07c0-2.63-1.07-5.2-2.93-7.07    C270.21,343.37,267.63,342.3,265,342.3z"/>
		<path id="XMLID_707_" d="M201.63,134.1c2.63,0,5.21-1.069,7.07-2.93c1.86-1.86,2.93-4.44,2.93-7.07s-1.07-5.21-2.93-7.069    c-1.86-1.87-4.44-2.931-7.07-2.931c-2.64,0-5.21,1.061-7.07,2.931c-1.87,1.859-2.93,4.439-2.93,7.069s1.06,5.21,2.93,7.07    C196.42,133.03,199,134.1,201.63,134.1z"/>
	</g>
</g>















</svg>
