<?xml version="1.0" encoding="iso-8859-1"?>
<!-- Generator: Adobe Illustrator 19.0.0, SVG Export Plug-In . SVG Version: 6.00 Build 0)  -->
<svg xmlns="http://www.w3.org/2000/svg" xmlns:xlink="http://www.w3.org/1999/xlink" version="1.1" id="Layer_1" x="0px" y="0px" viewBox="0 0 512.007 512.007" style="enable-background:new 0 0 512.007 512.007;" xml:space="preserve" width="512" height="512">
<g id="XMLID_2308_">
	<path id="XMLID_959_" style="fill:#FF5D5D;" d="M309.46,302.852L309.46,302.852c-16.122-20.528-39.262-33.461-65.155-36.415   c-17.217-1.964-34.323-8.703-49.471-19.488c-19.695-14.022-42.915-21.505-67.149-21.64c-0.219-0.001-0.436-0.002-0.655-0.002   c-63.699,0-116.131,51.617-117.019,115.365v37.244l0.204,0.012c3.667-61.246,54.919-109.984,116.815-109.984   c0.218,0,0.436,0,0.655,0.002c24.234,0.135,47.454,7.617,67.149,21.64c15.147,10.785,32.254,17.523,49.471,19.488   c25.894,2.954,49.033,15.887,65.155,36.415l0,0c11.767,14.983,18.695,32.862,20.215,51.619l0.325,0.02v-25.02   C330,346.754,324.875,322.48,309.46,302.852z"/>
	<g id="XMLID_1020_">
		<path id="XMLID_1722_" style="fill:#72D8FF;" d="M246.096,466.626l229.103-229.103l-120.58-120.58l-205.44,205.44    c-13.068,13.068-13.068,34.256,0,47.325L246.096,466.626z"/>
		
			<rect id="XMLID_1721_" x="182.005" y="311.897" transform="matrix(0.7071 -0.7071 0.7071 0.7071 -136.4301 341.4941)" style="fill:#C9F3FF;" width="324" height="47.071"/>
		<g id="XMLID_1716_">
			<path id="XMLID_1720_" style="fill:#FFB954;" d="M493.632,58.81l-98.574,98.574l-40.44-40.44l98.574-98.574     c11.167-11.167,29.273-11.167,40.44,0l0,0C504.799,29.537,504.799,47.643,493.632,58.81z"/>
			<line id="XMLID_1719_" style="fill:#C9F3FF;" x1="469.235" y1="42.766" x2="469.235" y2="42.766"/>
			<line id="XMLID_1718_" style="fill:#C9F3FF;" x1="435.609" y1="76.393" x2="435.609" y2="76.393"/>
			<line id="XMLID_1717_" style="fill:#C9F3FF;" x1="401.983" y1="110.019" x2="401.983" y2="110.019"/>
		</g>
	</g>
	<g id="XMLID_2295_">
		<path id="XMLID_2296_" style="fill:#FFDFE0;" d="M127.025,501.994c-31.567,0-61.159-12.379-83.326-34.857    c-22.164-22.474-34.127-52.245-33.687-83.827c0.888-63.748,53.32-115.364,117.019-115.364c0.218,0,0.436,0,0.655,0.002    c24.234,0.135,47.454,7.617,67.149,21.64c15.147,10.785,32.254,17.523,49.471,19.488c25.894,2.954,49.033,15.886,65.155,36.414    l0,0c15.414,19.628,22.537,44.223,20.056,69.254c-2.48,25.023-14.286,47.742-33.242,63.972    c-17.534,15.011-39.875,23.277-62.913,23.277c-0.02,0-0.038,0-0.058,0c-12.611-0.007-49.343-0.004-77.544-0.001L127.025,501.994z"/>
	</g>
	<path id="XMLID_2290_" style="fill:#FF5D5D;" d="M143.487,432.026c0-39.913-35.433-37.719-30.29-66.249   c1.621-8.989-0.05-17.109-3.098-24.014c-7.56-17.126-30.019-20.772-42.795-7.089c-13.103,14.033-21.541,32.75-21.541,53.309   c0,47.599,30.92,67.313,57.975,75.452c19.823,5.963,39.748-9.09,39.748-29.79V432.026z"/>
	<path id="XMLID_2289_" style="fill:#FF5D5D;" d="M287.721,421.848c1.959-8.96-5.77-17.173-14.801-15.57   c-5.006,0.889-11.115,3.058-18.251,7.522c-23.118,14.463-53.007,2.438-75.791-9.322c-3.369-1.739-7.01,1.774-5.409,5.211   c3.437,7.374,6.428,17.339,4.459,27.467c-1.594,8.196-3.826,15.073-5.907,20.338c-2.245,5.681,1.935,11.833,8.043,11.832   c19.956-0.002,40.386-0.003,48.664,0.002c13.92,0.008,27.923-4.762,39.361-14.555C278.389,445.957,285.001,434.291,287.721,421.848   z"/>
	<path id="XMLID_2288_" style="fill:#FF5D5D;" d="M276.222,358.666c-9.23-11.752-22.319-18.557-35.984-20.116   c-0.034-0.004-0.069-0.008-0.103-0.012c-6.312-0.741-12.505,2.138-15.96,7.472l-17.103,26.404c-1.38,2.13-0.538,4.99,1.778,6.026   c8.354,3.736,26.892,10.532,38.408,3.42c15.228-9.405,25.983-10.799,37.061-8.628h0   C282.449,368.09,279.758,363.169,276.222,358.666z"/>
	<path id="XMLID_2287_" style="fill:#FF5D5D;" d="M177.166,314.486c-12.165-8.661-27.022-13.787-43.073-13.876   c-0.054,0-0.107-0.001-0.161-0.001c-5.23-0.018-7.619,6.561-3.62,9.931c8.922,7.519,14.751,16.244,13.611,24.929   c-2.131,16.23-3.533,25.171,3.416,32.985c2.135,2.401,5.838,2.466,8.149,0.234c5.053-4.88,11.289-4.336,15.337-3.196   c2.574,0.725,5.3-0.457,6.53-2.831l19.183-37.019l0.007-0.011C189.762,322.567,183.266,318.829,177.166,314.486z"/>
	<g id="XMLID_699_">
		<path id="XMLID_723_" d="M512.007,38.59c0-10.31-4.015-20.002-11.305-27.292c-15.047-15.046-39.533-15.047-54.583,0    l-98.574,98.574L211.724,245.694c-3.806-2.05-7.523-4.351-11.089-6.891c-21.383-15.224-46.589-23.348-72.86-23.493l-0.744-0.002    c-69.076,0-126.056,56.176-127.018,125.225c0,0.047-0.001,0.093-0.001,0.14v37.244c0,0.494,0.048,0.975,0.117,1.45    c-0.056,1.264-0.098,2.53-0.116,3.803c-0.478,34.281,12.509,66.595,36.566,90.988c24.061,24.398,56.182,37.836,90.447,37.836    l12.352-0.001c5.522,0,10-4.478,9.999-10.001c0-5.522-4.478-9.999-10.001-9.999l-12.351,0.001    c-28.87,0-55.934-11.321-76.206-31.879c-20.27-20.553-31.21-47.78-30.808-76.666c0.811-58.175,48.819-105.504,107.02-105.504    l0.6,0.002c22.162,0.122,43.396,6.964,61.404,19.786c16.523,11.764,35.244,19.121,54.137,21.276    c23.217,2.648,43.966,14.246,58.424,32.656c13.813,17.589,20.195,39.64,17.97,62.091c-2.225,22.445-12.806,42.817-29.794,57.362    c-15.722,13.46-35.756,20.873-56.464,20.873l-13.93-0.003c-5.523,0-10,4.478-10,10s4.477,10,10,10l13.984,0.003    c25.42,0,50.073-9.12,69.417-25.681c20.924-17.915,33.954-42.981,36.689-70.582c0.922-9.298,0.636-18.541-0.792-27.541    L482.27,244.595c1.875-1.876,2.929-4.419,2.929-7.071s-1.054-5.195-2.929-7.071l-73.069-73.068l91.502-91.503    C507.993,58.591,512.007,48.899,512.007,38.59z M127.03,257.945c-41.423,0-78.49,20.207-101.742,51.272    c14.062-42.787,54.55-73.909,101.742-73.909l0.6,0.002c22.162,0.122,43.396,6.964,61.404,19.786    c2.612,1.859,5.295,3.611,8.029,5.258l-11.747,11.747c-17.711-9.178-37.307-14.042-57.542-14.154L127.03,257.945z     M245.438,299.139c-14.737-1.681-29.43-7.279-42.656-16.217l151.836-151.836l14.196,14.196l-64.35,64.35    c-3.905,3.905-3.905,10.237,0,14.143c1.953,1.952,4.512,2.929,7.071,2.929s5.119-0.977,7.071-2.929l64.35-64.35l5.031,5.031    c0.001,0.001,0.002,0.002,0.003,0.003l39.781,39.781L305.495,326.515C288.98,311.304,268.174,301.733,245.438,299.139z     M392.585,305.994h-38.285l24.663-24.663h38.285L392.585,305.994z M318.911,341.384l15.39-15.39h38.285l-39.968,39.968    C329.192,357.27,324.605,349.008,318.911,341.384z M437.249,261.331h-38.285l42.95-42.95l19.142,19.142L437.249,261.331z     M486.561,51.738C486.561,51.738,486.561,51.738,486.561,51.738l-91.503,91.503l-20.828-20.827l-5.471-5.471l91.502-91.503    c7.25-7.249,19.047-7.252,26.299,0.001c3.512,3.512,5.446,8.182,5.446,13.148S490.073,48.227,486.561,51.738z"/>
		<path id="XMLID_729_" d="M466.667,35.334c-2.63,0-5.21,1.06-7.07,2.92c-1.86,1.87-2.93,4.44-2.93,7.08c0,2.63,1.07,5.2,2.93,7.07    c1.86,1.859,4.44,2.93,7.07,2.93c2.64,0,5.21-1.07,7.07-2.93c1.87-1.87,2.93-4.44,2.93-7.07c0-2.64-1.06-5.21-2.93-7.08    C471.877,36.394,469.307,35.334,466.667,35.334z"/>
		<path id="XMLID_730_" d="M434.327,67.674c-2.63,0-5.21,1.07-7.07,2.93c-1.86,1.86-2.93,4.44-2.93,7.07s1.07,5.21,2.93,7.07    c1.86,1.859,4.44,2.93,7.07,2.93s5.21-1.07,7.07-2.93c1.86-1.86,2.93-4.44,2.93-7.07s-1.07-5.21-2.93-7.07    C439.537,68.744,436.957,67.674,434.327,67.674z"/>
		<path id="XMLID_731_" d="M401.987,100.014c-2.64,0-5.22,1.07-7.08,2.931c-1.86,1.859-2.92,4.439-2.92,7.069    c0,2.641,1.06,5.21,2.92,7.08c1.86,1.86,4.44,2.92,7.08,2.92c2.63,0,5.2-1.06,7.07-2.92c1.86-1.87,2.93-4.439,2.93-7.08    c0-2.63-1.07-5.21-2.93-7.069C407.197,101.084,404.617,100.014,401.987,100.014z"/>
		<path id="XMLID_734_" d="M132.307,386.416c-8.012-7.774-10.71-10.871-9.269-18.865c1.804-10.007,0.529-20.042-3.791-29.826    c-4.888-11.073-14.906-18.886-26.8-20.899c-11.979-2.027-24.113,2.092-32.453,11.023c-15.626,16.735-24.232,38.091-24.232,60.134    c0,24.084,7.245,44.053,21.535,59.35c10.84,11.604,25.496,20.243,43.561,25.678c3.901,1.174,7.87,1.751,11.804,1.751    c8.606,0,17.043-2.765,24.221-8.102c10.551-7.845,16.603-19.878,16.603-33.015v-1.619    C153.487,406.969,141.246,395.09,132.307,386.416z M133.487,433.645c0,6.748-3.111,12.932-8.536,16.965    c-5.333,3.964-12.015,5.149-18.331,3.248c-33.746-10.151-50.856-32.314-50.856-65.875c0-16.958,6.694-33.466,18.85-46.484    c3.147-3.371,7.316-5.188,11.737-5.188c0.911,0,1.833,0.077,2.759,0.233c5.327,0.902,9.644,4.276,11.842,9.257    c2.679,6.068,3.488,12.192,2.405,18.201c-3.405,18.885,6.813,28.801,15.023,36.768c8.106,7.866,15.107,14.66,15.107,31.256    V433.645z"/>
		<path id="XMLID_737_" d="M228.768,479.329c16.778,0,33.052-6.022,45.827-16.959c11.673-9.994,19.591-23.269,22.896-38.387v0.001    c1.645-7.518-0.563-15.324-5.904-20.881c-5.293-5.507-12.923-8.005-20.414-6.671c-7.038,1.249-14.375,4.24-21.807,8.891    c-18.851,11.792-45.121,0.995-65.9-9.73c-5.308-2.742-11.769-1.804-16.076,2.331c-4.312,4.141-5.511,10.565-2.984,15.99    c2.529,5.425,5.224,13.529,3.707,21.333c-1.252,6.441-3.066,12.689-5.391,18.571c-2.273,5.752-1.555,12.237,1.922,17.349    c3.475,5.109,9.239,8.159,15.418,8.159c0.001,0,0.002,0,0.003,0c19.954-0.001,40.381-0.002,48.657,0.003    C228.739,479.329,228.752,479.329,228.768,479.329z M182.033,459.326c2.436-6.476,4.355-13.282,5.712-20.262    c1.188-6.112,1.046-12.669-0.386-19.408c22.137,9.781,49.681,16.968,72.614,2.622c5.249-3.284,10.193-5.354,14.695-6.154    c1.197-0.212,2.018,0.34,2.498,0.839c0.422,0.438,1.085,1.38,0.786,2.748v0.001c-2.368,10.829-8.027,20.327-16.365,27.466    c-9.154,7.837-20.808,12.151-32.82,12.151c-0.01,0-0.021,0-0.032,0c-4.898-0.003-14.05-0.004-24.841-0.004    C197.046,459.325,189.535,459.326,182.033,459.326z"/>
		<path id="XMLID_740_" d="M241.373,328.613l-0.074-0.008c-10.187-1.199-19.962,3.392-25.517,11.967l-17.103,26.403    c-2.249,3.472-2.866,7.736-1.692,11.701c1.173,3.963,4.009,7.203,7.781,8.891c7.3,3.265,18.729,7.375,29.993,7.375    c6.208,0,12.366-1.249,17.752-4.576c13.444-8.304,21.668-8.933,29.883-7.323c3.536,0.688,7.177-0.572,9.521-3.313    c2.344-2.74,3.032-6.53,1.799-9.92c-2.274-6.253-5.515-12.08-9.63-17.32v-0.001C273.516,339.03,258.346,330.551,241.373,328.613z     M242.003,373.351c-4.224,2.606-12.75,1.979-22.663-1.485l13.228-20.42c1.384-2.138,3.837-3.273,6.402-2.977    c0.02,0.003,0.114,0.014,0.134,0.016c10.868,1.24,20.657,6.401,27.804,14.606C258.951,364.489,250.908,367.851,242.003,373.351z"/>
		<path id="XMLID_743_" d="M200.663,316.519c-6.173-2.788-12.126-6.213-17.695-10.179c0,0,0-0.001,0-0.001    c-14.316-10.192-31.197-15.631-48.818-15.729v0.001l-0.183-0.002c-0.019,0-0.037,0-0.055,0c-6.607,0-12.347,4.013-14.631,10.234    c-2.295,6.253-0.494,13.061,4.588,17.344c7.002,5.902,10.699,11.728,10.14,15.981l-0.172,1.313    c-2.187,16.604-3.767,28.602,6.03,39.618c2.837,3.19,6.753,5.037,11.027,5.2c0.196,0.008,0.392,0.012,0.588,0.012    c4.056,0,8.019-1.596,10.954-4.43c0.567-0.548,1.894-1.829,5.68-0.763c7.104,1.998,14.723-1.304,18.119-7.856l19.106-36.871    c1.231-2.273,1.54-4.951,0.833-7.466C205.373,320.08,203.356,317.735,200.663,316.519z M170.021,355.082    c-6.327-1.04-12.248,0.04-17.255,3.124c-1.066-3.556-0.569-8.961,0.899-20.114l0.174-1.319c0.817-6.228-0.28-15.104-8.359-25.098    c9.292,1.698,18.088,5.404,25.887,10.957c3.747,2.668,7.643,5.132,11.65,7.369L170.021,355.082z"/>
		<path id="XMLID_744_" d="M283.027,235.204c-2.63,0-5.21,1.07-7.07,2.93c-1.86,1.86-2.93,4.44-2.93,7.07s1.07,5.21,2.93,7.07    c1.87,1.869,4.44,2.93,7.07,2.93c2.63,0,5.21-1.061,7.08-2.93c1.86-1.86,2.92-4.44,2.92-7.07s-1.06-5.21-2.92-7.07    C288.247,236.274,285.667,235.204,283.027,235.204z"/>
		<path id="XMLID_745_" d="M179.377,491.994c-2.63,0-5.21,1.06-7.07,2.92c-1.86,1.87-2.93,4.439-2.93,7.08    c0,2.63,1.07,5.2,2.93,7.069c1.86,1.86,4.43,2.921,7.07,2.921c2.63,0,5.21-1.061,7.07-2.921c1.86-1.869,2.93-4.439,2.93-7.069    c0-2.641-1.07-5.21-2.93-7.08C184.587,493.054,182.007,491.994,179.377,491.994z"/>
	</g>
</g>















</svg>
