<?xml version="1.0" encoding="iso-8859-1"?>
<!-- Generator: Adobe Illustrator 19.0.0, SVG Export Plug-In . SVG Version: 6.00 Build 0)  -->
<svg xmlns="http://www.w3.org/2000/svg" xmlns:xlink="http://www.w3.org/1999/xlink" version="1.1" id="Layer_1" x="0px" y="0px" viewBox="0 0 512 512" style="enable-background:new 0 0 512 512;" xml:space="preserve" width="512" height="512">
<g id="XMLID_2260_">
	<circle id="XMLID_2176_" style="fill:#72D8FF;" cx="256.127" cy="34" r="24"/>
	<rect id="XMLID_1415_" x="10" y="206" style="fill:#FFC66C;" width="492" height="296"/>
	<g id="XMLID_1309_">
		<path id="XMLID_1436_" d="M64.631,254.5h-20c-5.522,0-10,4.478-10,10v32v32c0,5.522,4.478,10,10,10h20c14.337,0,26-11.663,26-26    c0-6.031-2.07-11.584-5.528-16c3.459-4.416,5.528-9.969,5.528-16C90.631,266.163,78.968,254.5,64.631,254.5z M54.631,274.5h10    c3.309,0,6,2.691,6,6s-2.691,6-6,6h-10V274.5z M64.631,318.5h-10v-12h10c3.309,0,6,2.691,6,6S67.939,318.5,64.631,318.5z"/>
		<path id="XMLID_1577_" d="M477.369,280.5c0-14.337-11.663-26-26-26h-18c-5.522,0-10,4.478-10,10v32v32c0,5.522,4.478,10,10,10    s10-4.478,10-10v-20.495c8.187,3.207,14,11.186,14,20.495c0,5.522,4.478,10,10,10s10-4.478,10-10    c0-10.454-3.848-20.02-10.19-27.379C473.369,296.364,477.369,288.893,477.369,280.5z M443.369,274.5h8c3.309,0,6,2.691,6,6    s-2.691,6-6,6h-8V274.5z"/>
		<path id="XMLID_1578_" d="M397.369,274.5c5.522,0,10-4.478,10-10s-4.478-10-10-10h-28c-5.522,0-10,4.478-10,10v64    c0,5.522,4.478,10,10,10h28c5.522,0,10-4.478,10-10s-4.478-10-10-10h-18v-12h19.079c5.522,0,10-4.478,10-10s-4.478-10-10-10    h-19.079v-12H397.369z"/>
		<path id="XMLID_1579_" d="M165.369,309.131V264.5c0-5.522-4.478-10-10-10s-10,4.478-10,10v44.631c0,5.166-4.203,9.369-9.369,9.369    s-9.369-4.203-9.369-9.369V264.5c0-5.522-4.478-10-10-10s-10,4.478-10,10v44.631c0,16.194,13.175,29.369,29.369,29.369    S165.369,325.325,165.369,309.131z"/>
		<path id="XMLID_1586_" d="M297.369,254.5c-5.522,0-10,4.478-10,10v64c0,5.522,4.478,10,10,10s10-4.478,10-10v-22h16v22    c0,5.522,4.478,10,10,10s10-4.478,10-10v-64c0-5.522-4.478-10-10-10s-10,4.478-10,10v22h-16v-22    C307.369,258.978,302.892,254.5,297.369,254.5z"/>
		<path id="XMLID_1607_" d="M206.631,254.5h-22.524c-5.522,0-10,4.478-10,10s4.478,10,10,10h1.263v54c0,5.522,4.478,10,10,10    s10-4.478,10-10v-54h1.262c5.522,0,10-4.478,10-10S212.153,254.5,206.631,254.5z"/>
		<path id="XMLID_1609_" d="M256.895,274.5h6.475c5.522,0,10-4.478,10-10s-4.478-10-10-10h-6.475    c-17.383,0-31.525,14.143-31.525,31.526v20.948c0,17.383,14.143,31.525,31.525,31.525h6.475c5.522,0,10-4.478,10-10    s-4.478-10-10-10h-6.475c-6.355,0-11.525-5.17-11.525-11.525v-20.948C245.369,279.671,250.539,274.5,256.895,274.5z"/>
		<path id="XMLID_1610_" d="M147.316,389.5h12.532c5.522,0,10-4.478,10-10s-4.478-10-10-10h-12.532c-14.337,0-26,11.663-26,26    s11.663,26,26,26h1.989h2.011c3.309,0,6,2.691,6,6s-2.691,6-6,6h-20c-5.522,0-10,4.478-10,10s4.478,10,10,10h20    c14.337,0,26-11.663,26-26s-11.663-26-26-26h-2.011h-1.989c-3.309,0-6-2.691-6-6S144.008,389.5,147.316,389.5z"/>
		<path id="XMLID_1613_" d="M211.849,379.5c0-5.522-4.478-10-10-10s-10,4.478-10,10v64c0,5.522,4.478,10,10,10s10-4.478,10-10v-22    h16v22c0,5.522,4.478,10,10,10s10-4.478,10-10v-64c0-5.522-4.478-10-10-10s-10,4.478-10,10v22h-16V379.5z"/>
		<path id="XMLID_1618_" d="M261.849,397.5v28c0,15.439,12.561,28,28,28s28-12.561,28-28v-28c0-15.439-12.561-28-28-28    S261.849,382.061,261.849,397.5z M281.849,397.5c0-4.411,3.589-8,8-8s8,3.589,8,8v28c0,4.411-3.589,8-8,8s-8-3.589-8-8V397.5z"/>
		<path id="XMLID_1623_" d="M334.684,379.5v32v32c0,5.522,4.478,10,10,10s10-4.478,10-10v-22h10c14.337,0,26-11.663,26-26    s-11.663-26-26-26h-20C339.161,369.5,334.684,373.978,334.684,379.5z M354.684,389.5h10c3.309,0,6,2.691,6,6s-2.691,6-6,6h-10    V389.5z"/>
		<path id="XMLID_1629_" d="M502,196h-35.795L280.054,9.848c-0.147-0.147-0.304-0.277-0.458-0.413    C273.489,3.597,265.223,0,256.127,0c-9.096,0-17.362,3.597-23.47,9.435c-0.154,0.136-0.31,0.266-0.457,0.413L46.049,196H10    c-5.522,0-10,4.478-10,10v296c0,5.522,4.478,10,10,10h40c5.522,0,10-4.478,10-10s-4.478-10-10-10H20V216h273.369    c5.522,0,10-4.478,10-10s-4.478-10-10-10H74.334l149.99-149.991C229.188,58.847,241.605,68,256.127,68s26.939-9.153,31.803-21.991    L437.92,196h-64.551c-5.522,0-10,4.478-10,10s4.478,10,10,10H492v276H130c-5.522,0-10,4.478-10,10s4.478,10,10,10h372    c5.522,0,10-4.478,10-10V206C512,200.478,507.522,196,502,196z M256.127,48c-7.72,0-14-6.28-14-14s6.28-14,14-14s14,6.28,14,14    S263.847,48,256.127,48z"/>
		<path id="XMLID_1630_" d="M333.37,216c2.63,0,5.21-1.07,7.069-2.931c1.86-1.859,2.931-4.439,2.931-7.069s-1.07-5.21-2.931-7.07    c-1.859-1.86-4.439-2.93-7.069-2.93s-5.21,1.069-7.07,2.93s-2.93,4.44-2.93,7.07s1.069,5.21,2.93,7.069    C328.16,214.93,330.74,216,333.37,216z"/>
		<path id="XMLID_1638_" d="M90,492c-2.63,0-5.21,1.069-7.07,2.93S80,499.37,80,502s1.069,5.21,2.93,7.069    C84.79,510.93,87.37,512,90,512s5.21-1.07,7.069-2.931C98.93,507.21,100,504.63,100,502s-1.07-5.21-2.931-7.07    C95.21,493.069,92.63,492,90,492z"/>
	</g>
</g>















</svg>
