<?xml version="1.0" encoding="iso-8859-1"?>
<!-- Generator: Adobe Illustrator 19.0.0, SVG Export Plug-In . SVG Version: 6.00 Build 0)  -->
<svg xmlns="http://www.w3.org/2000/svg" xmlns:xlink="http://www.w3.org/1999/xlink" version="1.1" id="Layer_1" x="0px" y="0px" viewBox="0 0 511.839 511.839" style="enable-background:new 0 0 511.839 511.839;" xml:space="preserve" width="512" height="512">
<g id="XMLID_1647_">
	<path id="XMLID_833_" style="fill:#FFCDAC;" d="M112.689,397.92v49l6.812,12.261c3.674,6.613-1.108,14.739-8.673,14.739H86.998   c-6.674,0-12.083-5.41-12.083-12.083V397.92H112.689z"/>
	<path id="XMLID_1003_" style="fill:#EDF2FA;" d="M123,154.92h163.334c12.632,0,24.764-4.938,33.805-13.759l35.003-34.15   c2.787-2.719,2.385-7.381-0.909-9.455c-28.008-17.639-13.864-59.636-13.864-59.636l51.241,37h20.057   c11.176,0,21.95,4.166,30.22,11.683l52.032,47.302c7.314,6.649,9.828,17.089,6.343,26.338l-1.345,3.571   c-3.538,9.39-12.524,15.606-22.558,15.606h-35.49v36.513c0,9.467-0.912,18.837-2.669,28.002l0.01-0.015   c0,0,13.827,90.333-55.839,147.176l-41.156-0.173c-0.061,0.057-0.118,0.115-0.178,0.173l-42-0.176c0,0-10.316-17.649-18.015-36.002   H171.247c-10.725,17.601-29.469,39.086-58.386,43.002H75.108v49l6.812,12.261c3.674,6.613-1.108,14.739-8.673,14.739H49.417   c-6.674,0-12.083-5.41-12.083-12.083v-79.004c0,0-3.608-20.931-1.399-44.45h-5.998C16.934,318.731,10,295.689,10,272.125v-4.205   C10,205.512,60.592,154.92,123,154.92z"/>
	<path id="XMLID_1070_" style="fill:#FFCDAC;" d="M75.108,397.92v49l6.812,12.261c3.674,6.613-1.108,14.739-8.673,14.739H49.417   c-6.674,0-12.083-5.41-12.083-12.083V397.92H75.108z"/>
	<path id="XMLID_1075_" style="fill:#FFCDAC;" d="M378.06,397.92v49l6.812,12.261c3.674,6.613-1.108,14.739-8.673,14.739h-23.831   c-6.674,0-12.083-5.41-12.083-12.083V397.92H378.06z"/>
	<path id="XMLID_1034_" style="fill:#FFCDAC;" d="M340.479,397.92v49l6.812,12.261c3.674,6.613-1.108,14.739-8.673,14.739h-23.831   c-6.674,0-12.083-5.41-12.083-12.083V397.92H340.479z"/>
	<g id="XMLID_1296_">
		<path id="XMLID_1297_" d="M241.032,344.92c-2.63,0-5.21,1.069-7.07,2.93c-1.859,1.86-2.93,4.44-2.93,7.07s1.07,5.21,2.93,7.069    c1.87,1.86,4.44,2.931,7.07,2.931c2.64,0,5.21-1.07,7.08-2.931c1.86-1.859,2.93-4.439,2.93-7.069s-1.069-5.21-2.93-7.07    S243.672,344.92,241.032,344.92z"/>
		<path id="XMLID_1311_" d="M423.112,116.989c1.86-1.859,2.92-4.439,2.92-7.069s-1.06-5.21-2.92-7.07    c-1.87-1.86-4.44-2.93-7.07-2.93c-2.64,0-5.22,1.069-7.08,2.93c-1.859,1.86-2.93,4.44-2.93,7.07s1.07,5.21,2.93,7.069    c1.87,1.86,4.44,2.931,7.08,2.931C418.672,119.92,421.242,118.85,423.112,116.989z"/>
		<path id="XMLID_1340_" d="M500.647,126.506l-52.032-47.303c-10.132-9.211-23.253-14.283-36.946-14.283h-16.824l-48.619-35.107    c-2.576-1.86-5.885-2.387-8.907-1.415c-3.025,0.97-5.41,3.32-6.424,6.331c-0.651,1.934-14.967,45.735,13.907,68.402    l-31.646,30.872c-7.216,7.04-16.741,10.917-26.822,10.917H123c-67.822,0-123,55.178-123,123c0,28.441,8.599,55.807,24.865,79.137    l0.462,0.662c-0.623,17.651,1.408,32.126,2.006,35.924v78.194c0,12.177,9.907,22.083,22.084,22.083h23.831    c1.602,0,3.164-0.195,4.67-0.551c1.021,0.351,2.112,0.551,3.251,0.551H111c7.134,0,13.552-3.671,17.17-9.818    c3.617-6.148,3.709-13.541,0.244-19.777l-5.553-9.995v-38.175c25.452-6.451,42.874-24.759,53.864-41.234h24.312    c5.522,0,10-4.478,10-10s-4.478-10-10-10h-50.901c2.772-6.08,4.166-10.266,4.377-10.917c1.703-5.254-1.176-10.894-6.43-12.596    c-5.26-1.704-10.894,1.177-12.596,6.43c-0.175,0.54-17.908,53.768-61.13,60.083H47.333v-5.088c0-0.564-0.049-1.136-0.145-1.691    c-0.095-0.556-9.233-55.876,12.596-82.943c3.467-4.299,2.792-10.595-1.507-14.062c-4.297-3.467-10.594-2.792-14.062,1.507    c-6.916,8.576-11.441,18.921-14.334,29.645C23.384,300.443,20,284.394,20,267.92c0-56.794,46.206-103,103-103h163.334    c15.33,0,29.815-5.896,40.789-16.601l35.005-34.15c3.561-3.476,5.303-8.309,4.777-13.26c-0.519-4.896-3.194-9.203-7.342-11.815    c-12.277-7.731-13.534-22.779-12.452-33.972l38.646,27.905c1.704,1.23,3.753,1.893,5.854,1.893h20.058    c8.707,0,17.051,3.226,23.493,9.082l52.032,47.303c4.307,3.915,5.764,9.965,3.71,15.414l-1.344,3.568    c-2.059,5.463-7.364,9.133-13.201,9.133h-35.49c-5.522,0-10,4.478-10,10v36.513c0,30.24-10.143,59.911-28.275,83.891    c0.394-2.226,0.736-4.391,1.018-6.473c4.054-29.86-1.337-50.955-1.568-51.839c-1.397-5.33-6.834-8.517-12.176-7.131    c-5.335,1.381-8.544,6.833-7.179,12.172c0.047,0.186,4.695,18.838,0.981,44.996c-2.068,14.569-6.192,28.479-12.332,41.668    c-0.345,0.57-0.627,1.166-0.848,1.78c-7.974,16.555-19.151,31.961-33.477,46.083l-32.118-0.136    c-5.621-10.202-18.098-34.014-21.396-50.041c-1.113-5.409-6.404-8.889-11.812-7.778c-5.409,1.114-8.892,6.401-7.778,11.812    c4.941,24.003,25.618,59.531,26.496,61.032c0.607,1.039,1.396,1.928,2.299,2.669v60.949c0,1.457,0.318,2.896,0.933,4.218    l1.865,4.008c4.549,9.785,14.462,16.107,25.253,16.107h16.51c4.273,0,8.266-1.203,11.66-3.298    c3.988,2.14,8.485,3.298,13.164,3.298h16.51c10.997,0,20.191-7.889,21.862-18.757c1.222-7.944-1.967-15.936-8.322-20.855    l-2.102-1.626v-44.959c29.606-24.705,49.04-59.165,56.226-99.789c4.731-26.746,2.769-47.973,2.049-53.894    c1.683-9.241,2.557-18.65,2.557-28.107V189.42h25.49c14.113,0,26.938-8.873,31.917-22.082l1.344-3.568    C514.583,150.599,511.061,135.973,500.647,126.506z M93.188,463.92c-0.014-3.288-0.85-6.577-2.527-9.596l-5.553-9.995v-36.61    c0.646,0.131,1.315,0.201,2,0.201h15.753v39c0,1.699,0.433,3.371,1.259,4.856l6.744,12.144H93.188z M139.037,364.92h12.554    c-7.672,8.698-17.58,16.658-29.938,20.741C128.658,379.113,134.412,371.866,139.037,364.92z M65.108,407.92v39    c0,1.699,0.433,3.371,1.259,4.856l6.744,12.144H49.417c-1.149,0-2.084-0.935-2.084-2.083V407.92H65.108z M320.755,463.92    c-3.042,0-5.836-1.782-7.118-4.541l-0.933-2.004v-56.397l16,0.067v46.542c0,3.094,1.432,6.014,3.879,7.907l5.979,4.629    c0.609,0.472,0.915,1.238,0.798,1.998c-0.037,0.244-0.117,0.47-0.227,0.676c-0.009,0.018-0.017,0.035-0.026,0.053    c-0.366,0.648-1.056,1.07-1.843,1.07H320.755z M380.693,462.123c-0.16,1.041-1.041,1.797-2.095,1.797h-16.51    c-0.963,0-1.897-0.18-2.77-0.509c0.537-7.35-2.625-14.545-8.514-19.103l-2.101-1.627v-41.727l21.333,0.09v46.542    c0,3.094,1.433,6.014,3.879,7.908l5.98,4.628C380.505,460.595,380.811,461.36,380.693,462.123z M378.758,381.081l-14.543-0.061    c10.274-12.321,18.003-24.714,23.812-36.622l15.866-15.733c7.871-7.804,14.847-16.414,20.868-25.622    C418.927,328.374,406.083,357.626,378.758,381.081z"/>
		<path id="XMLID_1382_" d="M159.933,187.91c-1.86,1.859-2.931,4.439-2.931,7.069s1.07,5.21,2.931,7.07    c1.859,1.86,4.439,2.93,7.069,2.93s5.21-1.069,7.07-2.93s2.93-4.44,2.93-7.07s-1.069-5.21-2.93-7.069    c-1.86-1.86-4.44-2.931-7.07-2.931S161.792,186.05,159.933,187.91z"/>
		<path id="XMLID_1384_" d="M291.5,194.982c0-5.522-4.478-10-10-10H207c-5.522,0-10,4.478-10,10s4.478,10,10,10h74.5    C287.022,204.982,291.5,200.505,291.5,194.982z"/>
	</g>
</g>















</svg>
