<?xml version="1.0" encoding="iso-8859-1"?>
<!-- Generator: Adobe Illustrator 19.0.0, SVG Export Plug-In . SVG Version: 6.00 Build 0)  -->
<svg xmlns="http://www.w3.org/2000/svg" xmlns:xlink="http://www.w3.org/1999/xlink" version="1.1" id="Layer_1" x="0px" y="0px" viewBox="0 0 512 512" style="enable-background:new 0 0 512 512;" xml:space="preserve" width="512" height="512">
<g id="XMLID_2025_">
	<path id="XMLID_1532_" style="fill:#C9F3FF;" d="M478.72,37H33.28C20.423,37,10,47.423,10,60.28V451.72   C10,464.577,20.423,475,33.28,475H478.72c12.857,0,23.28-10.423,23.28-23.28V60.28C502,47.423,491.577,37,478.72,37z"/>
	<g id="XMLID_2562_">
		<g id="XMLID_1966_">
			<path id="XMLID_1983_" style="fill:#FE8F8D;" d="M462,352.303V159.697c0-37.924-30.743-68.667-68.667-68.667h0     c-37.923,0-68.667,30.743-68.667,68.667v192.607"/>
			<circle id="XMLID_1982_" style="fill:#FFDFE0;" cx="393.333" cy="352.303" r="68.667"/>
			<circle id="XMLID_2056_" style="fill:#FE8F8D;" cx="413.333" cy="349.174" r="20"/>
		</g>
	</g>
	<g id="XMLID_1942_">
		<g id="XMLID_1944_">
			<path id="XMLID_1957_" style="fill:#FE8F8D;" d="M324.794,352.303V159.697c0-37.924-30.743-68.667-68.667-68.667h0     c-37.924,0-68.667,30.743-68.667,68.667v192.607"/>
			<circle id="XMLID_1956_" style="fill:#FFDFE0;" cx="256.127" cy="352.303" r="68.667"/>
			<circle id="XMLID_1946_" style="fill:#FE8F8D;" cx="244.197" cy="368.658" r="20"/>
		</g>
	</g>
	<g id="XMLID_2115_">
		<g id="XMLID_2116_">
			<path id="XMLID_2124_" style="fill:#FE8F8D;" d="M187.587,352.303V159.697c0-37.924-30.743-68.667-68.667-68.667h0     c-37.924,0-68.667,30.743-68.667,68.667v192.607"/>
			<circle id="XMLID_2123_" style="fill:#FFDFE0;" cx="118.921" cy="352.303" r="68.667"/>
			<circle id="XMLID_2118_" style="fill:#FE8F8D;" cx="115.792" cy="332.303" r="20"/>
		</g>
	</g>
	<g id="XMLID_973_">
		<path id="XMLID_975_" d="M478.72,27H33.28C14.93,27,0,41.93,0,60.28V451.72C0,470.07,14.93,485,33.28,485h182.847    c5.522,0,10-4.478,10-10s-4.478-10-10-10H33.28C25.958,465,20,459.042,20,451.72V60.28C20,52.958,25.958,47,33.28,47H478.72    c7.322,0,13.28,5.958,13.28,13.28V451.72c0,7.322-5.958,13.28-13.28,13.28H296.127c-5.522,0-10,4.478-10,10s4.478,10,10,10H478.72    c18.351,0,33.28-14.93,33.28-33.28V60.28C512,41.93,497.07,27,478.72,27z"/>
		<path id="XMLID_1380_" d="M374.33,374c-2.63,0-5.21,1.069-7.07,2.93s-2.93,4.44-2.93,7.07s1.069,5.21,2.93,7.069    c1.86,1.86,4.44,2.931,7.07,2.931c2.64,0,5.21-1.07,7.069-2.931c1.86-1.859,2.931-4.439,2.931-7.069s-1.07-5.21-2.931-7.07    C379.54,375.069,376.97,374,374.33,374z"/>
		<path id="XMLID_1386_" d="M370,337.53c0-2.631-1.07-5.211-2.931-7.07c-1.859-1.86-4.439-2.93-7.069-2.93s-5.21,1.069-7.07,2.93    c-1.86,1.859-2.93,4.439-2.93,7.07c0,2.63,1.069,5.21,2.93,7.069c1.86,1.86,4.44,2.931,7.07,2.931s5.21-1.07,7.069-2.931    C368.93,342.74,370,340.16,370,337.53z"/>
		<path id="XMLID_1469_" d="M413.333,319.174c-16.542,0-30,13.458-30,30s13.458,30,30,30s30-13.458,30-30    S429.875,319.174,413.333,319.174z M413.333,359.174c-5.514,0-10-4.486-10-10s4.486-10,10-10s10,4.486,10,10    S418.847,359.174,413.333,359.174z"/>
		<path id="XMLID_1559_" d="M311.753,407.929c5.171-5.171,9.513-10.946,13.004-17.15c13.497,23.962,39.17,40.191,68.576,40.191    c43.377,0,78.667-35.29,78.667-78.667V159.696c0-43.377-35.29-78.666-78.667-78.666c-29.425,0-55.112,16.249-68.603,40.236    C311.24,97.279,285.552,81.03,256.127,81.03s-55.113,16.249-68.604,40.236c-13.49-23.987-39.177-40.236-68.603-40.236    c-43.377,0-78.667,35.289-78.667,78.666v192.606c0,43.377,35.29,78.667,78.667,78.667c29.406,0,55.079-16.229,68.576-40.191    c3.49,6.204,7.833,11.979,13.004,17.15c15.336,15.336,35.481,23.004,55.626,23.004S296.417,423.265,311.753,407.929z     M393.333,410.97c-31.492,0-57.258-24.945-58.601-56.113c0.027-0.85,0.062-1.699,0.062-2.553c0,0,0,0,0,0v0v-3.676    c1.905-30.641,27.426-54.99,58.539-54.99c32.349,0,58.667,26.317,58.667,58.666S425.682,410.97,393.333,410.97z M393.333,101.03    c32.349,0,58.667,26.317,58.667,58.666v140.272c-14.417-16.144-35.371-26.332-58.667-26.332    c-23.227,0-44.126,10.125-58.539,26.185V159.696c0-0.839-0.037-1.669-0.063-2.502C336.047,126.003,361.823,101.03,393.333,101.03z     M256.127,101.03c31.51,0,57.287,24.973,58.604,56.164c-0.026,0.833-0.063,1.663-0.063,2.502V299.76    c-0.943-1.047-1.91-2.078-2.914-3.082c-30.673-30.673-80.579-30.672-111.252,0c-1.004,1.004-1.971,2.034-2.914,3.082V159.696    c0-0.839-0.037-1.669-0.063-2.502C198.84,126.003,224.617,101.03,256.127,101.03z M60.254,159.696    c0-32.349,26.318-58.666,58.667-58.666c31.51,0,57.286,24.973,58.603,56.164c-0.026,0.833-0.063,1.663-0.063,2.502v140.125    c-14.413-16.06-35.313-26.185-58.539-26.185c-23.296,0-44.25,10.188-58.667,26.332V159.696z M118.921,410.97    c-32.349,0-58.667-26.318-58.667-58.667s26.318-58.666,58.667-58.666c31.113,0,56.634,24.349,58.539,54.99v3.676v0    c0,0,0,0,0,0.001c0,0.854,0.035,1.703,0.062,2.553C176.179,386.024,150.413,410.97,118.921,410.97z M197.522,354.857    c0.027-0.85,0.065-1.698,0.065-2.554v-3.686c0.88-14.283,6.85-27.591,17.057-37.797c11.437-11.438,26.46-17.156,41.483-17.156    s30.047,5.719,41.483,17.156c10.207,10.206,16.176,23.514,17.057,37.797v3.686c0,0.857,0.038,1.704,0.065,2.554    c-0.626,14.711-6.645,28.453-17.122,38.929c-22.873,22.875-60.094,22.875-82.967,0    C204.167,383.31,198.148,369.568,197.522,354.857z"/>
		<path id="XMLID_1591_" d="M247.149,326.46c2.631,0,5.21-1.07,7.07-2.93c1.86-1.86,2.93-4.44,2.93-7.07    c0-2.641-1.069-5.22-2.93-7.08s-4.439-2.92-7.07-2.92c-2.63,0-5.21,1.06-7.069,2.92c-1.86,1.87-2.931,4.439-2.931,7.08    c0,2.63,1.07,5.2,2.931,7.07C241.939,325.39,244.52,326.46,247.149,326.46z"/>
		<path id="XMLID_1592_" d="M290.14,349.18c2.63,0,5.21-1.07,7.07-2.93c1.87-1.86,2.93-4.44,2.93-7.07s-1.06-5.21-2.93-7.07    c-1.86-1.859-4.44-2.93-7.07-2.93s-5.21,1.07-7.07,2.93c-1.859,1.86-2.93,4.44-2.93,7.07s1.07,5.21,2.93,7.07    C284.939,348.109,287.51,349.18,290.14,349.18z"/>
		<path id="XMLID_1596_" d="M265.411,347.444c-11.697-11.697-30.73-11.698-42.428,0.001c-11.695,11.696-11.695,30.729,0,42.425    v0.001c5.849,5.849,13.531,8.772,21.214,8.772s15.365-2.924,21.214-8.772C277.107,378.174,277.107,359.142,265.411,347.444z     M251.269,375.729c-1.889,1.889-4.4,2.929-7.071,2.929s-5.183-1.04-7.071-2.929v0.001c-3.898-3.899-3.898-10.244,0-14.143    c1.889-1.889,4.4-2.93,7.071-2.93s5.183,1.041,7.071,2.93s2.93,4.399,2.93,7.07C254.198,371.329,253.157,373.84,251.269,375.729z"/>
		<path id="XMLID_1597_" d="M150.62,361.3c-2.641,0-5.21,1.07-7.07,2.93c-1.86,1.86-2.93,4.44-2.93,7.07    c0,2.64,1.069,5.21,2.93,7.07c1.86,1.859,4.43,2.93,7.07,2.93c2.63,0,5.199-1.07,7.069-2.93c1.86-1.86,2.931-4.431,2.931-7.07    c0-2.63-1.07-5.21-2.931-7.07C155.819,362.37,153.25,361.3,150.62,361.3z"/>
		<path id="XMLID_1598_" d="M104.149,375.64c-2.63,0-5.21,1.061-7.069,2.93c-1.87,1.86-2.931,4.431-2.931,7.07    c0,2.63,1.061,5.21,2.931,7.07c1.859,1.859,4.439,2.93,7.069,2.93c2.631,0,5.21-1.07,7.07-2.93c1.86-1.87,2.93-4.44,2.93-7.07    s-1.069-5.21-2.93-7.07C109.359,376.7,106.78,375.64,104.149,375.64z"/>
		<path id="XMLID_1603_" d="M115.792,302.303c-16.542,0-30,13.458-30,30s13.458,30,30,30s30-13.458,30-30    S132.334,302.303,115.792,302.303z M115.792,342.303c-5.514,0-10-4.486-10-10s4.486-10,10-10s10,4.486,10,10    S121.306,342.303,115.792,342.303z"/>
		<path id="XMLID_1605_" d="M256.13,465c-2.64,0-5.21,1.069-7.07,2.93c-1.87,1.86-2.93,4.44-2.93,7.07s1.06,5.21,2.93,7.069    c1.86,1.86,4.431,2.931,7.07,2.931c2.63,0,5.21-1.07,7.07-2.931c1.859-1.859,2.93-4.439,2.93-7.069s-1.07-5.21-2.93-7.07    C261.34,466.069,258.76,465,256.13,465z"/>
		<path id="XMLID_1606_" d="M90.254,214c5.522,0,10-4.478,10-10v-71c0-5.522-4.478-10-10-10s-10,4.478-10,10v71    C80.254,209.522,84.731,214,90.254,214z"/>
		<path id="XMLID_1608_" d="M90.25,254c2.64,0,5.21-1.07,7.069-2.931c1.87-1.859,2.931-4.439,2.931-7.069s-1.061-5.21-2.931-7.07    c-1.859-1.86-4.43-2.93-7.069-2.93c-2.63,0-5.21,1.069-7.07,2.93s-2.93,4.43-2.93,7.07c0,2.63,1.069,5.21,2.93,7.069    C85.04,252.93,87.62,254,90.25,254z"/>
	</g>
</g>















</svg>
