<?xml version="1.0" encoding="iso-8859-1"?>
<!-- Generator: Adobe Illustrator 19.0.0, SVG Export Plug-In . SVG Version: 6.00 Build 0)  -->
<svg xmlns="http://www.w3.org/2000/svg" xmlns:xlink="http://www.w3.org/1999/xlink" version="1.1" id="Layer_1" x="0px" y="0px" viewBox="0 0 512 512" style="enable-background:new 0 0 512 512;" xml:space="preserve" width="512" height="512">
<g id="XMLID_1046_">
	<g id="XMLID_1052_">
		<g id="XMLID_1672_">
			<path id="XMLID_1479_" style="fill:#72D8FF;" d="M302.346,462L75.568,235.221l119.357-119.357l203.116,203.116     c13.068,13.068,13.068,34.256,0,47.325L302.346,462z"/>
			
				<rect id="XMLID_1510_" x="45.074" y="308.84" transform="matrix(-0.7071 -0.7071 0.7071 -0.7071 115.8352 712.2551)" style="fill:#C9F3FF;" width="320.714" height="46.594"/>
			<g id="XMLID_1474_">
				<path id="XMLID_1478_" style="fill:#FFB954;" d="M57.321,58.321l97.574,97.574l40.03-40.03L97.351,18.291      c-11.054-11.054-28.976-11.054-40.03,0l0,0C46.267,29.345,46.267,47.267,57.321,58.321z"/>
				<line id="XMLID_1477_" style="fill:#C9F3FF;" x1="81.47" y1="42.44" x2="81.47" y2="42.44"/>
				<line id="XMLID_1476_" style="fill:#C9F3FF;" x1="114.755" y1="75.725" x2="114.755" y2="75.725"/>
				<line id="XMLID_1475_" style="fill:#C9F3FF;" x1="148.041" y1="109.01" x2="148.041" y2="109.01"/>
			</g>
		</g>
		<rect id="XMLID_1050_" x="37" y="448" style="fill:#FFB954;" width="438" height="54"/>
	</g>
	<g id="XMLID_2812_">
		<path id="XMLID_2813_" d="M84.01,34.98c-2.63,0-5.21,1.07-7.07,2.93c-1.86,1.86-2.93,4.43-2.93,7.07c0,2.63,1.07,5.21,2.93,7.07    s4.44,2.93,7.07,2.93s5.21-1.07,7.07-2.93c1.86-1.86,2.93-4.44,2.93-7.07c0-2.64-1.07-5.21-2.93-7.07    C89.22,36.05,86.64,34.98,84.01,34.98z"/>
		<path id="XMLID_2814_" d="M116.02,66.99c-2.63,0-5.21,1.07-7.07,2.93c-1.86,1.86-2.93,4.44-2.93,7.07c0,2.64,1.07,5.21,2.93,7.07    c1.87,1.87,4.44,2.93,7.07,2.93c2.64,0,5.21-1.06,7.08-2.93c1.86-1.86,2.92-4.43,2.92-7.07c0-2.63-1.06-5.21-2.92-7.07    C121.24,68.06,118.66,66.99,116.02,66.99z"/>
		<path id="XMLID_2815_" d="M155.11,101.94c-1.86-1.86-4.44-2.93-7.07-2.93c-2.63,0-5.21,1.07-7.07,2.93    c-1.86,1.86-2.93,4.44-2.93,7.07s1.07,5.21,2.93,7.07c1.86,1.86,4.44,2.93,7.07,2.93c2.63,0,5.21-1.07,7.07-2.93    c1.86-1.86,2.93-4.44,2.93-7.07S156.97,103.8,155.11,101.94z"/>
		<path id="XMLID_2818_" d="M368.075,360.119C368.075,360.118,368.075,360.118,368.075,360.119    c10.637-10.638,10.637-27.946,0-38.584c-10.638-10.637-27.945-10.636-38.584,0c-10.637,10.638-10.637,27.947,0,38.584    c5.319,5.318,12.306,7.978,19.292,7.978C355.769,368.097,362.756,365.437,368.075,360.119z M343.633,345.976    c-2.84-2.839-2.84-7.46,0-10.299c1.42-1.42,3.285-2.13,5.15-2.13c1.865,0,3.73,0.71,5.149,2.129c2.839,2.84,2.839,7.46,0,10.3    C351.093,348.816,346.472,348.816,343.633,345.976z"/>
		<path id="XMLID_2821_" d="M475,438H340.489l64.624-64.624c16.946-16.946,16.946-44.52,0-61.467l-83.513-83.513    c-3.905-3.905-10.237-3.905-14.142,0s-3.905,10.237,0,14.143l83.513,83.512c9.148,9.149,9.148,24.035,0,33.183l-55.677,55.677    L122.657,202.274l39.304-39.304c0.002-0.002,0.003-0.003,0.005-0.005l32.959-32.959l55.965,55.965    c3.905,3.905,10.238,3.905,14.142,0c3.905-3.905,3.905-10.237,0-14.143l-63.031-63.031c-0.002-0.002-0.003-0.003-0.005-0.005    L104.422,11.22C97.188,3.984,87.568,0,77.336,0C67.104,0,57.485,3.984,50.25,11.219c-14.935,14.936-14.935,39.237,0,54.173v0    l90.502,90.503L68.497,228.15c-3.905,3.905-3.905,10.237,0,14.143L264.205,438h-75.69c-5.523,0-10,4.477-10,10s4.477,10,10,10H465    v34H47v-34h61.515c5.523,0,10-4.477,10-10s-4.477-10-10-10H37c-5.523,0-10,4.477-10,10v54c0,5.523,4.477,10,10,10h438    c5.523,0,10-4.477,10-10v-54C485,442.477,480.523,438,475,438z M162.622,308.133h37.608l33.524,33.524h-37.608L162.622,308.133z     M64.393,51.25c-7.138-7.137-7.138-18.75,0-25.888C67.85,21.904,72.447,20,77.336,20c4.889,0,9.486,1.904,12.943,5.362    l90.503,90.502l-25.888,25.888L64.393,51.25z M108.514,216.417l71.716,71.717h-37.609L89.71,235.221L108.514,216.417z     M216.147,361.658h37.608l67.396,67.396L312.204,438h-19.715L216.147,361.658z"/>
		<path id="XMLID_2825_" d="M286.25,217.19c2.63,0,5.21-1.07,7.07-2.93c1.86-1.87,2.93-4.44,2.93-7.07c0-2.64-1.07-5.21-2.93-7.08    c-1.86-1.86-4.44-2.92-7.07-2.92c-2.64,0-5.21,1.06-7.07,2.92c-1.87,1.86-2.93,4.44-2.93,7.08c0,2.63,1.06,5.21,2.93,7.07    C281.04,216.12,283.61,217.19,286.25,217.19z"/>
		<path id="XMLID_2826_" d="M155.59,455.07c1.86-1.86,2.93-4.44,2.93-7.07c0-2.63-1.07-5.21-2.93-7.07    c-1.87-1.86-4.44-2.93-7.07-2.93c-2.64,0-5.21,1.07-7.08,2.93c-1.86,1.86-2.92,4.44-2.92,7.07c0,2.63,1.06,5.21,2.92,7.07    s4.44,2.93,7.08,2.93C151.15,458,153.73,456.93,155.59,455.07z"/>
	</g>
</g>















</svg>
