<?xml version="1.0" encoding="iso-8859-1"?>
<!-- Generator: Adobe Illustrator 19.0.0, SVG Export Plug-In . SVG Version: 6.00 Build 0)  -->
<svg xmlns="http://www.w3.org/2000/svg" xmlns:xlink="http://www.w3.org/1999/xlink" version="1.1" id="Layer_1" x="0px" y="0px" viewBox="0 0 511.18 511.18" style="enable-background:new 0 0 511.18 511.18;" xml:space="preserve" width="512" height="512">
<g id="XMLID_1963_">
	<g id="XMLID_995_">
		<g id="XMLID_847_">
			<rect id="XMLID_853_" x="60.59" y="461.18" style="fill:#72D8FF;" width="48" height="40"/>
			<rect id="XMLID_850_" x="402.59" y="461.18" style="fill:#72D8FF;" width="48" height="40"/>
			<path id="XMLID_849_" style="fill:#72D8FF;" d="M401.09,43.18c-91.956-44.24-199.044-44.24-291,0l0,0l68,223v91h155v-91     L401.09,43.18L401.09,43.18z"/>
			<path id="XMLID_848_" style="fill:#C9F3FF;" d="M456.09,357.18h-401c-10.217,0-18.5,8.283-18.5,18.5v67     c0,10.217,8.283,18.5,18.5,18.5h401c10.217,0,18.5-8.283,18.5-18.5v-67C474.59,365.463,466.307,357.18,456.09,357.18z"/>
		</g>
		<g id="XMLID_840_">
			<path id="XMLID_841_" style="fill:#FFFFFF;" d="M182.321,142.914h147.103l22.825-76.701c-62.777-21.832-130.539-21.832-193.316,0     L182.321,142.914z"/>
		</g>
		<g id="XMLID_1534_">
			<path id="XMLID_838_" style="fill:#FEDA9B;" d="M300.909,308.268l33.65,13.355c6.485,2.574,9.656,9.917,7.082,16.402     l-4.375,11.025c-2.574,6.485-9.917,9.656-16.402,7.082l-33.65-13.355L300.909,308.268z"/>
			<path id="XMLID_1558_" style="fill:#FF5D5D;" d="M292.453,302.714l-2.459-1.024c-18.898-51.444-58.417-92.666-109.026-113.713     l0,0l-64.112,154.065l0.082,0.034c50.552,21.051,107.591,20.057,157.377-2.733l2.459,1.024     c5.748,2.394,12.349-0.326,14.743-6.074l7.011-16.836C300.921,311.709,298.201,305.108,292.453,302.714z"/>
			
				<ellipse id="XMLID_1556_" transform="matrix(-0.9232 -0.3844 0.3844 -0.9232 184.5145 566.9549)" style="fill:#FFB9B7;" cx="148.922" cy="265.036" rx="33.904" ry="83.456"/>
		</g>
	</g>
	<g id="XMLID_568_">
		<path id="XMLID_968_" d="M456.09,347.18H348.767l2.169-5.466c3.907-9.846,0.396-20.827-7.846-26.739v-47.304l7.485-24.548    c1.61-5.283-1.366-10.871-6.648-12.482c-5.279-1.606-10.871,1.365-12.482,6.648l-7.92,25.974    c-0.288,0.945-0.435,1.929-0.435,2.917v40.133l-18.492-7.339c-0.296-0.118-0.595-0.217-0.895-0.304    c-1.645-1.779-3.601-3.31-5.855-4.467c-20.364-52.017-61.334-93.941-112.997-115.439l-0.002-0.001l-0.002-0.001    c-0.013-0.005-0.025-0.011-0.039-0.017c-0.02-0.008-0.04-0.013-0.06-0.021c-6.836-2.813-14.499-2.37-22.52,1.152L122.19,48.577    c85.248-38.34,181.551-38.34,266.799,0l-34.198,112.148c-1.61,5.283,1.366,10.871,6.648,12.482    c5.282,1.607,10.871-1.364,12.482-6.648l36.733-120.463c1.439-4.722-0.781-9.788-5.23-11.929C358.962,11.814,307.15,0,255.59,0    S152.218,11.814,105.755,34.168c-4.449,2.141-6.67,7.207-5.23,11.929l44.429,145.7c-0.861,0.806-1.722,1.64-2.583,2.509    c-12.857,12.985-24.925,32.11-33.979,53.853c-9.054,21.741-14.128,43.779-14.286,62.052c-0.15,17.152,4.158,29.931,12.263,36.97    H55.09c-15.715,0-28.5,12.785-28.5,28.5v67c0,14.184,10.416,25.977,24,28.141v30.359c0,5.522,4.478,10,10,10h48    c5.522,0,10-4.478,10-10v-30h274v30c0,5.522,4.478,10,10,10h48c5.522,0,10-4.478,10-10v-30.359c13.584-2.164,24-13.958,24-28.141    v-67C484.59,359.965,471.805,347.18,456.09,347.18z M307.6,321.683l23.271,9.235c1.35,0.535,2.011,2.069,1.476,3.419    l-4.375,11.023c-0.332,0.839-0.947,1.25-1.404,1.447c-0.456,0.196-1.178,0.36-2.015,0.029l-23.538-9.341L307.6,321.683z     M280.607,305.139c0.961,2.615,2.969,4.711,5.541,5.783l2.461,1.024c0.323,0.135,0.555,0.367,0.688,0.691    c0.133,0.324,0.133,0.652-0.002,0.975l-7.012,16.837c-0.135,0.323-0.367,0.555-0.691,0.688s-0.654,0.133-0.977-0.003l-2.459-1.023    c-2.573-1.069-5.473-1.021-8.005,0.14c-38.144,17.461-81.097,21.397-121.451,11.692c2.252-1.842,4.513-3.896,6.772-6.177    c12.857-12.985,24.925-32.11,33.979-53.852c9.054-21.742,14.128-43.78,14.287-62.053c0.028-3.235-0.121-6.294-0.405-9.209    C238.665,232.467,266.134,265.741,280.607,305.139z M126.854,255.846c16.925-40.644,39.233-58.967,48.383-58.967    c0.726,0,1.368,0.116,1.919,0.344c0.003,0.002,0.007,0.003,0.011,0.005c3.357,1.406,6.691,8.893,6.573,22.459    c-0.138,15.753-4.666,35.121-12.751,54.537s-18.643,36.274-29.728,47.469c-9.147,9.239-16.552,12.283-20.118,11.297    c-0.12-0.05-0.241-0.095-0.361-0.145l-0.082-0.034l-0.015,0.037c-0.001,0-0.002,0-0.002,0c-3.36-1.4-6.698-8.888-6.58-22.463    C114.241,294.631,118.77,275.262,126.854,255.846z M98.59,491.18h-28v-20h28V491.18z M440.59,491.18h-28v-20h28V491.18z     M464.59,442.68c0,4.687-3.813,8.5-8.5,8.5h-401c-4.687,0-8.5-3.813-8.5-8.5v-23.5h70c5.522,0,10-4.478,10-10s-4.478-10-10-10h-70    v-23.5c0-4.687,3.813-8.5,8.5-8.5h401c4.687,0,8.5,3.813,8.5,8.5V442.68z"/>
		<path id="XMLID_1287_" d="M355.533,56.768c-32.301-11.233-65.927-16.929-99.943-16.929s-67.643,5.695-99.943,16.929    c-5.074,1.765-7.847,7.224-6.28,12.362l23.389,76.701c1.283,4.208,5.166,7.083,9.565,7.083h147.103    c4.424,0,8.322-2.907,9.585-7.147l22.825-76.701C363.357,63.941,360.582,58.523,355.533,56.768z M321.965,132.914h-44.966    l21.22-21.22c3.905-3.905,3.905-10.237,0-14.143c-3.905-3.903-10.235-3.904-14.143,0l-35.363,35.362h-58.987l-18.377-60.266    c55.33-17.238,113.215-17.231,168.545,0.02L321.965,132.914z"/>
		<path id="XMLID_1289_" d="M148.92,275.04c2.63,0,5.21-1.07,7.069-2.931c1.86-1.859,2.931-4.439,2.931-7.069    c0-2.641-1.07-5.221-2.931-7.08c-1.859-1.86-4.43-2.92-7.069-2.92c-2.63,0-5.21,1.06-7.07,2.92c-1.86,1.87-2.93,4.439-2.93,7.08    c0,2.63,1.069,5.199,2.93,7.069C143.72,273.97,146.29,275.04,148.92,275.04z"/>
		<path id="XMLID_1290_" d="M156.59,399.18c-2.63,0-5.21,1.07-7.07,2.93c-1.86,1.86-2.93,4.431-2.93,7.07    c0,2.63,1.069,5.21,2.93,7.07c1.86,1.859,4.44,2.93,7.07,2.93s5.21-1.07,7.069-2.93c1.86-1.86,2.931-4.44,2.931-7.07    s-1.07-5.21-2.931-7.07C161.8,400.25,159.22,399.18,156.59,399.18z"/>
		<path id="XMLID_1291_" d="M352.25,213.35c2.63,0,5.21-1.06,7.069-2.93c1.86-1.86,2.931-4.44,2.931-7.07s-1.07-5.21-2.931-7.07    c-1.859-1.859-4.439-2.93-7.069-2.93c-2.631,0-5.21,1.07-7.07,2.93c-1.86,1.87-2.93,4.44-2.93,7.07s1.069,5.21,2.93,7.07    C347.04,212.29,349.619,213.35,352.25,213.35z"/>
	</g>
</g>















</svg>
