<?xml version="1.0" encoding="iso-8859-1"?>
<!-- Generator: Adobe Illustrator 19.0.0, SVG Export Plug-In . SVG Version: 6.00 Build 0)  -->
<svg xmlns="http://www.w3.org/2000/svg" xmlns:xlink="http://www.w3.org/1999/xlink" version="1.1" id="Layer_1" x="0px" y="0px" viewBox="0 0 512.109 512.109" style="enable-background:new 0 0 512.109 512.109;" xml:space="preserve" width="512" height="512">
<g id="XMLID_1777_">
	<g id="XMLID_1127_">
		<path id="XMLID_1527_" style="fill:#EDF2FA;" d="M259.085,465.473l22.18,7.081c-3.647,11.421,2.657,23.638,14.079,27.284    c11.428,3.648,23.64-2.653,27.289-14.081c1.984-6.214,0.942-12.615-2.182-17.792c5.546-2.409,10.105-7.022,12.089-13.236    c3.649-11.428-2.653-23.641-14.081-27.289c-11.421-3.646-23.638,2.658-27.285,14.079l-21.598-6.892"/>
		<path id="XMLID_1245_" style="fill:#FF5D5D;" d="M258.608,421.228l-3.2-1.022c-29.285-62.593-83.374-110.123-149.224-131.112l0,0    L42.239,489.555l0.107,0.034c65.778,21,137.33,13.606,197.42-20.39l3.2,1.022c7.48,2.388,15.479-1.74,17.867-9.219l6.994-21.907    C270.215,431.615,266.088,423.615,258.608,421.228z"/>
		
			<ellipse id="XMLID_1243_" transform="matrix(-0.9526 -0.3041 0.3041 -0.9526 26.523 782.8439)" style="fill:#FFB9B7;" cx="74.228" cy="389.356" rx="58.382" ry="105.232"/>
		
			<ellipse id="XMLID_1219_" transform="matrix(-0.9526 -0.3041 0.3041 -0.9526 26.5233 782.8431)" style="fill:#FFFFFF;" cx="74.228" cy="389.356" rx="20.418" ry="26.133"/>
	</g>
	<g id="XMLID_1821_">
		<polygon id="XMLID_1887_" style="fill:#72D8FF;" points="502.049,240.315 470.254,272.11 400.915,202.707 502.11,101.512   "/>
		<path id="XMLID_1885_" style="fill:#FFB954;" d="M386.864,354.412l-93.601-93.601l37.504-37.504l93.601,93.601    c9.15,9.15,9.15,23.985,0,33.135l-4.37,4.37C410.849,363.562,396.014,363.562,386.864,354.412z"/>
		<path id="XMLID_1884_" style="fill:#FCCB9D;" d="M470.254,272.11l-45.413,45.413l-59.701-60.444h-8.437l-30.813,12.304    c-5.729,2.288-12.273,0.885-16.56-3.551h0c-5.791-5.991-5.678-15.529,0.255-21.38l3.815-3.762    c23.716-23.39,55.686-36.504,88.996-36.504h0L470.254,272.11z"/>
		<g id="XMLID_1858_">
			<path id="XMLID_1883_" style="fill:#72D8FF;" d="M118.299,172.754l131.51,131.51l80.958-80.958L118.299,10.839l0,0     C73.588,55.551,73.588,128.042,118.299,172.754z"/>
			<path id="XMLID_1882_" style="fill:#FFFFFF;" d="M118.299,10.839L118.299,10.839l29.214,29.214l0,0     c-28.531,28.531-28.531,74.956,0,103.487l131.51,131.51l0,0l-29.214,29.214l-131.51-131.51     C73.588,128.042,73.588,55.551,118.299,10.839z"/>
			<g id="XMLID_1864_">
				<line id="XMLID_1880_" style="fill:#C9F3FF;" x1="399.558" y1="329.602" x2="399.558" y2="329.602"/>
				<line id="XMLID_1879_" style="fill:#C9F3FF;" x1="368.373" y1="298.417" x2="368.373" y2="298.417"/>
				<line id="XMLID_1866_" style="fill:#C9F3FF;" x1="337.189" y1="267.233" x2="337.189" y2="267.233"/>
			</g>
		</g>
		<g id="XMLID_1846_">
			<path id="XMLID_1857_" style="fill:#FCCB9D;" d="M275.491,301.055L275.491,301.055c-6.187-6.189-6.186-16.222,0.003-22.409     l6.572-6.571c6.189-6.187,16.222-6.186,22.409,0.003l0,0c6.187,6.189,6.186,16.222-0.003,22.409l-6.572,6.571     C291.711,307.245,281.678,307.244,275.491,301.055z"/>
			<path id="XMLID_1855_" style="fill:#FCCB9D;" d="M297.897,323.467L297.897,323.467c-6.187-6.189-6.186-16.222,0.003-22.409     l6.572-6.571c6.189-6.187,16.222-6.186,22.409,0.003l0,0c6.187,6.189,6.186,16.222-0.003,22.409l-6.572,6.571     C314.118,329.656,304.085,329.655,297.897,323.467z"/>
			<path id="XMLID_1853_" style="fill:#FCCB9D;" d="M320.304,345.878L320.304,345.878c-6.187-6.189-6.186-16.222,0.002-22.409     l6.572-6.571c6.189-6.187,16.222-6.186,22.409,0.003l0,0c6.187,6.189,6.186,16.222-0.003,22.409l-6.572,6.571     C336.525,352.068,326.492,352.067,320.304,345.878z"/>
			<path id="XMLID_1850_" style="fill:#FCCB9D;" d="M342.711,368.29L342.711,368.29c-6.187-6.189-6.186-16.222,0.003-22.409     l6.572-6.571c6.189-6.187,16.222-6.186,22.409,0.003l0,0c6.187,6.189,6.186,16.222-0.003,22.409l-6.572,6.571     C358.931,374.48,348.898,374.479,342.711,368.29z"/>
		</g>
	</g>
	<g id="XMLID_607_">
		<path id="XMLID_1222_" d="M321.498,417.914c-8.068-2.576-16.658-1.855-24.185,2.028c-4.461,2.303-8.233,5.553-11.102,9.497    l-9.18-2.929c-2.376-6.52-7.506-11.964-14.456-14.493c-30.773-62.939-86.383-111.06-153.215-132.405    c-0.029-0.009-0.058-0.021-0.087-0.03c-0.007-0.002-0.015-0.004-0.022-0.007c-0.01-0.003-0.02-0.007-0.03-0.01    c-0.011-0.003-0.022-0.005-0.034-0.009c-18.452-5.852-39.227,0.922-58.511,19.077c-17.765,16.725-32.536,41.558-41.592,69.925    c-19.652,61.555-6.432,118.909,30.097,130.571c0.76,0.243,1.524,0.455,2.29,0.654c24.819,7.681,50.478,11.484,76.079,11.484    c42.715,0,85.246-10.562,123.31-31.243c5.886,1.628,12.075,0.987,17.534-1.828c0.925-0.477,1.795-1.026,2.639-1.606l9.188,2.933    c0.052,4.877,1.243,9.711,3.544,14.172c3.884,7.527,10.467,13.092,18.536,15.667c3.18,1.016,6.44,1.519,9.685,1.519    c4.991,0,9.942-1.191,14.503-3.545c7.527-3.884,13.091-10.468,15.668-18.54c1.757-5.505,1.93-11.35,0.592-16.905    c4.31-3.754,7.557-8.617,9.314-14.122C347.382,441.112,338.156,423.232,321.498,417.914z M28.138,374.641    c8.041-25.187,20.915-47.009,36.249-61.445c10.93-10.29,21.855-15.671,31.515-15.671c2.523,0,4.962,0.367,7.289,1.11    c11.239,3.588,19.474,15.788,23.189,34.353c4.132,20.651,1.979,45.896-6.062,71.083c-8.041,25.187-20.915,47.009-36.249,61.445    c-13.23,12.455-26.452,17.698-37.429,14.929c-0.416-0.13-0.835-0.249-1.25-0.381l-0.107-0.034    c-0.168-0.054-0.337-0.089-0.505-0.134c-10.986-3.784-19.042-15.879-22.702-34.172C17.944,425.073,20.096,399.829,28.138,374.641z     M246.007,460.695l-3.2-1.021c-2.654-0.848-5.541-0.549-7.965,0.822c-45.158,25.548-97.454,35.417-148.304,28.743    c21.679-15.021,41.387-43.236,52.832-79.086c11.454-35.875,11.737-70.319,2.752-95.126    c45.327,24.037,82.231,62.401,104.228,109.416c1.181,2.524,3.362,4.441,6.017,5.289l3.199,1.021    c2.215,0.707,3.442,3.084,2.735,5.3l-6.994,21.907C250.6,460.176,248.219,461.401,246.007,460.695z M313.106,482.715    c-0.952,2.982-3.007,5.415-5.786,6.849c-2.779,1.435-5.951,1.698-8.936,0.747c-2.979-0.951-5.41-3.006-6.844-5.785    c-1.435-2.78-1.701-5.951-0.749-8.931c0.807-2.527,0.577-5.271-0.64-7.627c-1.216-2.357-3.319-4.135-5.845-4.941l-12.362-3.947    l3.825-11.98l12.364,3.945c5.261,1.681,10.887-1.225,12.566-6.485c0.951-2.979,3.006-5.41,5.786-6.845    c2.78-1.434,5.952-1.701,8.931-0.749c6.153,1.964,9.561,8.568,7.596,14.722c-0.374,1.172-0.928,2.252-1.633,3.221    c-3.43-2.412-7.993-4.449-13.628-4.454c-0.003,0-0.006,0-0.009,0c-5.519,0-9.995,4.472-10,9.991    c-0.005,5.523,4.469,10.004,9.991,10.009c1.645,0.002,3.527,1.877,4.258,2.867C313.7,476.265,314.103,479.59,313.106,482.715z"/>
		<path id="XMLID_1272_" d="M63.239,423.778c2.598,0.829,5.247,1.226,7.888,1.226c13.605,0,27.003-10.503,32.078-26.396    c2.798-8.765,2.719-17.975-0.224-25.932c-3.216-8.697-9.691-15.164-17.764-17.741c-8.074-2.577-17.097-1.059-24.757,4.166    c-7.009,4.78-12.411,12.239-15.209,21.005C39.191,399.085,47.26,418.676,63.239,423.778z M64.304,386.187    c1.427-4.469,4.133-8.319,7.425-10.564c1.168-0.797,3.227-1.929,5.489-1.929c0.628,0,1.272,0.087,1.916,0.293    c2.968,0.947,4.462,3.931,5.088,5.625c1.382,3.737,1.356,8.444-0.07,12.913c-2.892,9.055-10.137,13.701-14.831,12.2    C64.627,403.226,61.412,395.245,64.304,386.187z"/>
		<path id="XMLID_1299_" d="M494.978,233.244l-24.721,24.721l-55.203-55.255l65.812-65.812c3.905-3.905,3.906-10.237,0-14.143    c-3.905-3.903-10.237-3.904-14.142,0l-71.629,71.628c-21.732,1.138-42.544,7.353-61.047,18.063l-58.335-58.335    c-3.905-3.904-10.237-3.904-14.143,0c-3.905,3.905-3.905,10.237,0,14.143l55.053,55.053l-11.46,11.46l-2.602,2.566    c-0.312,0.308-0.614,0.622-0.906,0.942l-22.633,22.632l-124.44-124.44c-11.91-11.91-18.47-27.775-18.47-44.672    c0-13.504,4.201-26.343,11.963-37.037l56.927,56.927c3.905,3.904,10.237,3.904,14.143,0c3.905-3.905,3.905-10.237,0-14.143    L125.371,3.768c-3.906-3.903-10.237-3.904-14.142,0C87.715,27.281,74.765,58.544,74.765,91.796s12.95,64.516,36.463,88.028    l131.51,131.511c1.953,1.952,4.512,2.929,7.071,2.929c2.559,0,5.119-0.977,7.071-2.929l7.853-7.853    c1.036,1.663,2.264,3.223,3.684,4.643c0,0,0,0,0,0c4.217,4.217,9.539,6.663,15.043,7.351c0.701,5.686,3.25,10.945,7.364,15.06    c4.22,4.221,9.548,6.667,15.057,7.353c0.685,5.509,3.13,10.838,7.349,15.059h0c4.217,4.217,9.539,6.663,15.043,7.351    c0.701,5.686,3.25,10.945,7.364,15.06c4.881,4.883,11.371,7.571,18.274,7.572c0.001,0,0.002,0,0.003,0    c6.902,0,13.392-2.688,18.274-7.568l6.571-6.57c1.579-1.578,2.924-3.326,4.027-5.2c6.196,4.25,13.416,6.385,20.642,6.384    c9.351-0.001,18.705-3.561,25.824-10.679c10.771-10.771,13.387-26.649,7.863-39.909l40.208-40.208l31.795-31.795    c3.905-3.905,3.905-10.237,0-14.143C505.215,229.339,498.883,229.339,494.978,233.244z M249.81,290.122L125.37,165.682    c-19.736-19.735-30.605-45.976-30.605-73.886c0-24.55,8.411-47.809,23.866-66.483l15.177,15.177    c-11.458,14.569-17.694,32.445-17.694,51.306c0,22.239,8.64,43.127,24.328,58.814L264.881,275.05L249.81,290.122z     M280.851,289.851c0-1.562,0.608-3.029,1.712-4.134l6.572-6.57c1.104-1.104,2.572-1.712,4.133-1.712c0,0,0,0,0,0    c1.562,0,3.029,0.608,4.134,1.713c1.104,1.104,1.712,2.572,1.712,4.134c0,1.562-0.608,3.029-1.712,4.133l-6.573,6.57    c-2.279,2.279-5.988,2.279-8.267,0C281.459,292.88,280.851,291.413,280.851,289.851z M303.257,312.262    c0-1.562,0.608-3.029,1.712-4.133l6.573-6.57c1.14-1.14,2.637-1.71,4.134-1.71c1.497,0,2.994,0.57,4.133,1.71    c2.279,2.279,2.279,5.988,0,8.268l-6.572,6.57c-2.28,2.28-5.988,2.277-8.267-0.001    C303.865,315.292,303.257,313.824,303.257,312.262z M327.377,330.541l6.572-6.57c1.104-1.104,2.572-1.712,4.133-1.712    c0,0,0,0,0.001,0c1.561,0,3.029,0.608,4.133,1.713c1.104,1.104,1.712,2.572,1.711,4.134c0,1.562-0.608,3.029-1.712,4.133    l-6.573,6.57c-2.279,2.279-5.988,2.279-8.267,0C325.098,336.529,325.098,332.82,327.377,330.541z M364.621,354.65l-6.571,6.57    c-1.104,1.104-2.572,1.712-4.133,1.712h0c-1.561,0-3.029-0.608-4.133-1.712c0-0.001,0-0.001,0-0.001    c-1.104-1.104-1.712-2.572-1.712-4.134c0-1.562,0.608-3.029,1.712-4.133l6.573-6.571c1.14-1.14,2.637-1.709,4.133-1.709    c1.497,0,2.994,0.57,4.133,1.709c1.104,1.104,1.712,2.573,1.712,4.135C366.334,352.078,365.726,353.546,364.621,354.65z     M415.112,345.156c-6.44,6.441-16.921,6.441-23.361,0l-12.278-12.278c-0.238-0.238-0.487-0.461-0.742-0.67    c-4.106-4.091-9.346-6.628-15.008-7.33c-0.703-5.68-3.251-10.935-7.361-15.046c-4.115-4.115-9.374-6.665-15.059-7.367    c-0.687-5.503-3.132-10.828-7.348-15.045c-3.641-3.641-8.108-5.96-12.802-6.97c2.841-0.106,5.696-0.679,8.448-1.778l29.027-11.591    h1.771l54.715,54.715c3.12,3.12,4.838,7.269,4.838,11.681S418.232,342.036,415.112,345.156z M424.912,303.309l-37.222-37.222    c3.357-1.613,5.68-5.035,5.68-9.008c0-5.522-4.477-10-10-10h-26.667c-1.27,0-2.529,0.242-3.708,0.713l-30.813,12.304    c-1.966,0.787-4.189,0.311-5.662-1.214c-1.904-1.97-1.914-5.089-0.092-7.094l2.839-2.839l1.155-1.139    c21.014-20.727,48.542-32.551,77.899-33.555l57.795,57.851L424.912,303.309z"/>
		<path id="XMLID_1342_" d="M240.359,142.904c2.63,0,5.21-1.069,7.07-2.93c1.87-1.87,2.93-4.439,2.93-7.07    c0-2.63-1.06-5.21-2.93-7.069c-1.86-1.87-4.44-2.931-7.07-2.931c-2.63,0-5.21,1.061-7.07,2.931c-1.86,1.859-2.93,4.43-2.93,7.069    c0,2.631,1.07,5.211,2.93,7.07C235.149,141.835,237.729,142.904,240.359,142.904z"/>
		<path id="XMLID_1418_" d="M502.109,111.514c2.63,0,5.21-1.07,7.07-2.93c1.86-1.86,2.93-4.44,2.93-7.07s-1.07-5.21-2.93-7.07    c-1.86-1.859-4.44-2.93-7.07-2.93c-2.63,0-5.21,1.07-7.07,2.93c-1.86,1.86-2.93,4.44-2.93,7.07s1.07,5.21,2.93,7.07    C496.899,110.444,499.479,111.514,502.109,111.514z"/>
	</g>
</g>















</svg>
