<?xml version="1.0" encoding="iso-8859-1"?>
<!-- Generator: Adobe Illustrator 19.0.0, SVG Export Plug-In . SVG Version: 6.00 Build 0)  -->
<svg xmlns="http://www.w3.org/2000/svg" xmlns:xlink="http://www.w3.org/1999/xlink" version="1.1" id="Layer_1" x="0px" y="0px" viewBox="0 0 512.156 512.156" style="enable-background:new 0 0 512.156 512.156;" xml:space="preserve" width="512" height="512">
<g id="XMLID_1560_">
	<g id="XMLID_952_">
		<path id="XMLID_1102_" style="fill:#FF5D5D;" d="M291.01,220.006l-42.617-42.227c-11.545-11.444-27.143-17.865-43.399-17.865    H71.647C37.6,159.914,10,187.514,10,221.561v101.152c0,16.516,6.627,32.341,18.396,43.929l51.531,50.736L291.01,220.006z"/>
		<path id="XMLID_1397_" style="fill:#FE8F8D;" d="M106.763,211.059h155.53c20.273,0,36.707,16.434,36.707,36.707v144.655    c0,20.273-16.434,36.707-36.707,36.707h-155.53c-20.273,0-36.707-16.434-36.707-36.707V247.766    C70.056,227.493,86.49,211.059,106.763,211.059z"/>
	</g>
	<g id="XMLID_1399_">
		<path id="XMLID_1417_" style="fill:#FF5D5D;" d="M501.792,273.253L494.09,214.6c-2.084-15.893-10.36-30.32-23.029-40.14    L366.648,93.854c-26.533-20.568-64.715-15.733-85.283,10.8l-63.886,82.413c-9.978,12.871-14.373,29.207-12.202,45.347    l9.508,70.669L501.792,273.253z"/>
		<path id="XMLID_1416_" style="fill:#FE8F8D;" d="M363.168,152.524l124.763,96.716c16.022,12.421,18.942,35.478,6.522,51.5    l-89.986,116.08c-12.421,16.022-35.478,18.942-51.5,6.522l-124.763-96.716c-16.022-12.421-18.942-35.478-6.522-51.5l89.986-116.08    C324.088,143.023,347.146,140.103,363.168,152.524z"/>
	</g>
	<g id="XMLID_1212_">
		<path id="XMLID_1213_" d="M202.903,385.802l0.1,0.024c3.5,6.531,10.279,10.589,17.689,10.589h23.958c5.523,0,10-4.478,10-10    s-4.477-10-10-10l-24.02-0.037c-2.637-4.918-7.246-8.542-12.647-9.944c-5.404-1.401-11.192-0.476-15.887,2.538l-11.612,7.443    H168.9c-5.523,0-10,4.478-10,10s4.477,10,10,10h11.584c3.854,0,7.604-1.101,10.845-3.182L202.903,385.802z"/>
		<path id="XMLID_1700_" d="M133.714,245.419c-5.523,0-10,4.478-10,10s4.477,10,10,10h19.904c5.523,0,10-4.478,10-10    s-4.477-10-10-10H133.714z"/>
		<path id="XMLID_1702_" d="M113.174,365.788c-5.523,0-10,4.478-10,10s4.477,10,10,10h6.226c5.523,0,10-4.478,10-10s-4.477-10-10-10    H113.174z"/>
		<path id="XMLID_1707_" d="M511.779,272.383c-0.033-0.26-0.08-0.515-0.117-0.774l-7.656-58.309    c-2.442-18.631-11.966-35.231-26.833-46.756L372.775,85.951c-30.848-23.915-75.4-18.272-99.314,12.576l-43.365,55.94    c-8.009-2.987-16.57-4.553-25.104-4.553H71.647C32.141,149.913,0,182.054,0,221.561v101.152c0,19.067,7.793,37.676,21.38,51.055    l50.813,50.03c8.551,9.412,20.881,15.33,34.569,15.33h14.185c5.523,0,10-4.478,10-10s-4.477-10-10-10h-14.185    c-7.445,0-14.184-3.065-19.032-7.995c-0.244-0.304-0.502-0.601-0.787-0.881l-0.291-0.287c-4.102-4.697-6.596-10.833-6.596-17.544    v-62.328h27.388c4.535,0,9.009-1.526,12.6-4.3l2.218-1.714c0.217-0.17,0.521-0.172,0.742-0.002l2.372,1.806    c3.566,2.715,8,4.21,12.483,4.21h17.109c5.523,0,10-4.478,10-10s-4.477-10-10-10h-17.109c-0.134,0-0.262-0.043-0.37-0.125    l-2.372-1.805c-7.403-5.637-17.717-5.601-25.083,0.089l-2.218,1.714c-0.106,0.082-0.238,0.127-0.373,0.127H80.056v-62.327    c0-14.727,11.98-26.707,26.707-26.707h88.084c-0.203,4.221-0.048,8.468,0.52,12.688l8.654,64.323    c0.148,13.784,6.341,27.378,18.056,36.46L289,386.409v6.013c0,14.727-11.981,26.707-26.707,26.707h-61.345    c-5.523,0-10,4.478-10,10s4.477,10,10,10h61.345c22.734,0,41.716-16.33,45.858-37.874l38.689,29.992    c8.497,6.586,18.564,9.773,28.563,9.773c13.956,0,27.774-6.215,36.967-18.072l89.985-116.08    C510,297.007,513.346,284.76,511.779,272.383z M360.538,101.77l104.397,80.594c10.655,8.26,17.488,20.17,19.24,33.538    l2.598,19.789l-117.479-91.07c0,0,0,0,0,0c-20.356-15.778-49.752-12.056-65.53,8.298l-17.485,22.555l-5.847-4.533    c-4.364-3.383-10.646-2.589-14.03,1.776s-2.588,10.646,1.776,14.03l5.848,4.533l-54.7,70.563l-4.139-30.763    c-1.148-8.533-0.048-17.23,3.035-25.183l4.841,3.753c1.823,1.413,3.979,2.097,6.12,2.097c2.985,0,5.939-1.331,7.91-3.873    c3.384-4.365,2.588-10.646-1.776-14.03l-6.521-5.055l54.237-69.966l9.84,7.628c1.823,1.413,3.979,2.097,6.12,2.097    c2.985,0,5.939-1.331,7.91-3.873c3.384-4.365,2.588-10.646-1.777-14.03l-9.079-7.038C313.962,87.99,341.048,86.661,360.538,101.77    z M106.763,201.059c-25.754,0-46.707,20.953-46.707,46.707v27.78h-7.224c-5.523,0-10,4.478-10,10s4.477,10,10,10h7.224v88.233    l-24.643-24.263c-5.367-5.285-9.47-11.705-12.092-18.688h3.619c5.523,0,10-4.478,10-10s-4.477-10-10-10H20v-91.562h16.275    c5.523,0,10-4.478,10-10s-4.477-10-10-10H21.491c5.532-22.56,25.915-39.353,50.157-39.353h133.346    c4.037,0,8.08,0.495,12.016,1.437l-7.434,9.59c-4.719,6.088-8.355,12.911-10.856,20.119H106.763z M486.549,294.614l-13.314,17.175    l-19.947-15.463c-4.365-3.384-10.646-2.589-14.03,1.776s-2.588,10.646,1.777,14.03l19.948,15.463l-50.549,65.208l-14.179-10.992    c-0.05-0.039-0.075-0.103-0.064-0.165c0.935-5.53-0.495-11.248-3.923-15.688c-3.428-4.439-8.598-7.27-14.183-7.766l-13.931-1.266    l-9.249-7.169c-4.364-3.384-10.646-2.589-14.03,1.777c-3.383,4.364-2.587,10.646,1.777,14.029l9.248,7.169    c3.06,2.372,6.716,3.808,10.575,4.151l13.841,1.229c0.042,0.004,0.075,0.007,0.121,0.066s0.041,0.092,0.033,0.134    c-1.241,7.345,1.646,14.741,7.532,19.304l14.179,10.992l-1.615,2.083c-9.023,11.639-25.833,13.766-37.47,4.746l-124.763-96.717    c-4.979-3.86-8.211-9.146-9.581-14.841c0.055-0.698,0.043-1.411-0.054-2.133l-0.678-5.038c0.177-5.427,1.994-10.849,5.568-15.458    l38.866-50.137L290.4,248.13c3.603,2.792,8.098,4.334,12.656,4.342l2.834,0.005c0.323,0.001,0.607,0.219,0.69,0.532l0.777,2.911    c1.162,4.354,3.763,8.271,7.324,11.032l13.66,10.589c1.823,1.413,3.979,2.097,6.12,2.097c2.985,0,5.939-1.331,7.91-3.873    c3.384-4.365,2.588-10.646-1.777-14.03l-13.659-10.589c-0.123-0.095-0.213-0.23-0.253-0.383l-0.777-2.911    c-2.411-9.037-10.628-15.36-19.981-15.375l-2.833-0.005c-0.158,0-0.314-0.054-0.438-0.149l-21.947-17.014l38.866-50.137    c5.257-6.781,13.156-10.334,21.137-10.334c5.717,0,11.476,1.823,16.333,5.589l124.764,96.717    c5.428,4.208,8.958,10.21,10.013,16.967l0.058,0.444c0.013,0.096,0.037,0.188,0.052,0.283c0.003,0.02,0.006,0.038,0.009,0.058    C492.833,281.973,490.92,288.976,486.549,294.614z"/>
		<path id="XMLID_1723_" d="M405.7,229.541l-15.892-12.318c-4.364-3.383-10.645-2.589-14.03,1.777    c-3.383,4.364-2.588,10.646,1.777,14.029l15.892,12.318c1.823,1.413,3.979,2.097,6.12,2.097c2.985,0,5.939-1.331,7.911-3.874    C410.861,239.206,410.065,232.924,405.7,229.541z"/>
		<path id="XMLID_1725_" d="M291.018,298.032l-4.971-3.854c-4.364-3.383-10.646-2.589-14.03,1.776s-2.588,10.646,1.776,14.03    l4.971,3.854c1.823,1.413,3.979,2.097,6.12,2.097c2.985,0,5.939-1.331,7.91-3.873    C296.178,307.697,295.383,301.415,291.018,298.032z"/>
		<path id="XMLID_1726_" d="M160.95,419.133c-2.64,0-5.21,1.061-7.07,2.92c-1.87,1.87-2.93,4.45-2.93,7.07    c0,2.63,1.06,5.21,2.93,7.08c1.86,1.86,4.44,2.93,7.07,2.93c2.63,0,5.21-1.069,7.07-2.93c1.86-1.87,2.93-4.44,2.93-7.08    c0-2.63-1.07-5.21-2.93-7.07C166.16,420.194,163.58,419.133,160.95,419.133z"/>
	</g>
</g>















</svg>
