<?xml version="1.0" encoding="iso-8859-1"?>
<!-- Generator: Adobe Illustrator 19.0.0, SVG Export Plug-In . SVG Version: 6.00 Build 0)  -->
<svg xmlns="http://www.w3.org/2000/svg" xmlns:xlink="http://www.w3.org/1999/xlink" version="1.1" id="Layer_1" x="0px" y="0px" viewBox="0 0 512 512" style="enable-background:new 0 0 512 512;" xml:space="preserve" width="512" height="512">
<g id="XMLID_2036_">
	<g id="XMLID_2192_">
		<path id="XMLID_2218_" style="fill:#C9F3FF;" d="M439.394,370.94H72.606C38.03,370.94,10,342.91,10,308.334v0h492v0    C502,342.91,473.97,370.94,439.394,370.94z"/>
		<path id="XMLID_2168_" style="fill:#FE8F8D;" d="M469.416,308.333c17.996,0,32.584-14.588,32.584-32.584    c0-16.806-12.724-30.636-29.063-32.392c0.208-1.486,0.322-3.002,0.322-4.545c0-17.996-14.588-32.584-32.584-32.584    c-3.245,0-6.376,0.481-9.334,1.364c-1.51-16.594-15.455-29.595-32.442-29.595c-4.251,0-8.307,0.822-12.03,2.303    c-2.685-15.291-16.022-26.913-32.082-26.913c-6.653,0-12.837,1.998-17.994,5.421c-5.398-10.534-16.357-17.749-29.008-17.749    c-10.521,0-19.872,4.992-25.83,12.731c-5.957-7.739-15.308-12.731-25.83-12.731c-10.595,0-20.006,5.06-25.957,12.892    c-5.951-7.832-15.361-12.892-25.957-12.892c-12.651,0-23.609,7.214-29.008,17.749c-5.157-3.423-11.341-5.421-17.994-5.421    c-16.06,0-29.397,11.622-32.082,26.913c-3.723-1.481-7.779-2.303-12.03-2.303c-16.987,0-30.932,13.001-32.442,29.595    c-2.958-0.883-6.089-1.364-9.334-1.364c-17.996,0-32.584,14.588-32.584,32.584c0,1.543,0.115,3.059,0.322,4.545    C22.724,245.114,10,258.944,10,275.749c0,17.996,14.588,32.584,32.584,32.584H469.416z"/>
	</g>
	<g id="XMLID_1674_">
		<path id="XMLID_1697_" d="M505.158,298.855c4.321-6.661,6.842-14.592,6.842-23.106c0-18.619-11.909-34.609-28.875-40.335    c-1.737-21.898-20.112-39.186-42.45-39.186c-0.547,0-1.093,0.011-1.639,0.031c-5.867-16.666-21.629-28.263-40.137-28.263    c-1.794,0-3.576,0.111-5.338,0.333c-6.757-14.916-21.722-24.942-38.774-24.942c-5.034,0-9.973,0.88-14.625,2.583    c-7.98-9.371-19.703-14.91-32.377-14.91c-9.509,0-18.502,3.092-25.83,8.709c-7.328-5.617-16.32-8.709-25.83-8.709    c-9.575,0-18.611,3.124-25.957,8.799c-7.346-5.675-16.381-8.799-25.957-8.799c-12.674,0-24.397,5.539-32.377,14.91    c-4.652-1.703-9.591-2.583-14.625-2.583c-17.052,0-32.017,10.026-38.774,24.942c-1.763-0.222-3.544-0.333-5.338-0.333    c-18.507,0-34.27,11.597-40.137,28.263c-0.545-0.021-1.092-0.031-1.639-0.031c-22.337,0-40.712,17.287-42.45,39.186    C11.909,241.14,0,257.13,0,275.749c0,8.512,2.52,16.443,6.84,23.103C2.867,300.175,0,303.917,0,308.334    c0,40.035,32.571,72.605,72.606,72.605h253.34c5.523,0,10-4.478,10-10s-4.477-10-10-10H72.606    c-25.588,0-46.969-18.365-51.653-42.606l470.093,0.001c-4.684,24.24-26.064,42.605-51.653,42.605h-33.447c-5.523,0-10,4.478-10,10    s4.477,10,10,10h33.447c40.035,0,72.606-32.571,72.606-72.606c0-2.652-1.054-5.195-2.929-7.071    C507.963,300.154,506.618,299.341,505.158,298.855z M40.131,253.3c2.692-0.289,5.151-1.657,6.816-3.792    c1.665-2.134,2.394-4.853,2.019-7.533c-0.15-1.075-0.226-2.139-0.226-3.162c0-12.453,10.131-22.584,22.584-22.584    c2.193,0,4.372,0.318,6.474,0.945c2.874,0.858,5.98,0.381,8.465-1.301c2.483-1.681,4.082-4.389,4.354-7.375    c1.063-11.688,10.729-20.501,22.482-20.501c2.869,0,5.673,0.537,8.333,1.595c2.796,1.115,5.945,0.906,8.571-0.56    c2.627-1.467,4.455-4.038,4.975-7.002c1.897-10.802,11.247-18.643,22.233-18.643c4.456,0,8.765,1.298,12.464,3.753    c2.372,1.574,5.304,2.063,8.059,1.343c2.755-0.72,5.072-2.58,6.371-5.114c3.891-7.592,11.596-12.309,20.108-12.309    c7.118,0,13.676,3.259,17.994,8.941c1.891,2.489,4.837,3.95,7.962,3.95c3.126,0,6.071-1.462,7.962-3.95    c4.317-5.683,10.876-8.941,17.994-8.941c7.059,0,13.585,3.219,17.905,8.83c1.893,2.459,4.821,3.9,7.924,3.9s6.031-1.441,7.924-3.9    c4.32-5.611,10.846-8.83,17.905-8.83c8.513,0,16.218,4.717,20.108,12.309c1.299,2.534,3.616,4.395,6.371,5.114    c2.755,0.72,5.687,0.231,8.059-1.343c3.699-2.455,8.008-3.753,12.464-3.753c10.986,0,20.336,7.841,22.233,18.643    c0.52,2.964,2.348,5.535,4.975,7.002c2.627,1.466,5.774,1.674,8.571,0.56c2.66-1.058,5.464-1.595,8.333-1.595    c11.754,0,21.419,8.813,22.482,20.501c0.272,2.986,1.87,5.694,4.354,7.375c2.484,1.682,5.592,2.159,8.465,1.301    c2.103-0.627,4.281-0.945,6.474-0.945c12.453,0,22.584,10.131,22.584,22.584c0,1.023-0.076,2.087-0.226,3.162    c-0.375,2.681,0.354,5.399,2.019,7.533c1.665,2.135,4.124,3.503,6.816,3.792C483.345,254.534,492,264.186,492,275.749    c0,12.453-10.131,22.584-22.584,22.584h-0.001l-426.813,0.001c-0.006,0-0.012-0.001-0.018-0.001    C30.131,298.333,20,288.202,20,275.749C20,264.186,28.655,254.534,40.131,253.3z"/>
		<path id="XMLID_1727_" d="M207.883,265.254c0,5.522,4.477,10,10,10c17.279,0,31.987-12.343,34.974-29.348    c0.956-5.439-2.68-10.623-8.12-11.579c-5.437-0.955-10.624,2.681-11.579,8.12c-1.303,7.421-7.728,12.807-15.275,12.807    C212.36,255.254,207.883,259.731,207.883,265.254z"/>
		<path id="XMLID_1730_" d="M288.839,231.532c0.585,0.103,1.167,0.152,1.742,0.152c4.764,0,8.985-3.418,9.837-8.272    c1.303-7.42,7.728-12.806,15.275-12.806c5.523,0,10-4.478,10-10s-4.477-10-10-10c-17.279,0-31.987,12.342-34.974,29.347    C279.765,225.393,283.4,230.576,288.839,231.532z"/>
		<path id="XMLID_1731_" d="M87.737,273.079c0.585,0.103,1.167,0.152,1.741,0.152c4.765,0,8.985-3.418,9.837-8.272    c1.303-7.42,7.727-12.806,15.275-12.806c5.523,0,10-4.478,10-10s-4.477-10-10-10c-17.279,0-31.988,12.342-34.974,29.347    C78.662,266.939,82.297,272.124,87.737,273.079z"/>
		<path id="XMLID_1732_" d="M182.165,211.782c6.169-4.324,14.52-3.591,19.857,1.746c1.953,1.952,4.512,2.929,7.071,2.929    s5.119-0.977,7.071-2.929c3.905-3.905,3.905-10.237,0-14.143c-12.219-12.218-31.346-13.891-45.482-3.979    c-4.522,3.171-5.617,9.407-2.446,13.929C171.406,213.858,177.643,214.953,182.165,211.782z"/>
		<path id="XMLID_1733_" d="M371.732,252.003c7.42,1.303,12.806,7.727,12.806,15.274c0,5.522,4.477,10,10,10s10-4.478,10-10    c0-17.279-12.342-31.987-29.347-34.974c-5.44-0.955-10.624,2.68-11.579,8.12C362.657,245.863,366.292,251.048,371.732,252.003z"/>
		<path id="XMLID_1734_" d="M365.95,360.939c-2.63,0-5.21,1.07-7.07,2.931c-1.87,1.859-2.93,4.439-2.93,7.069s1.06,5.21,2.93,7.07    c1.86,1.86,4.44,2.93,7.07,2.93s5.21-1.069,7.07-2.93c1.86-1.86,2.93-4.44,2.93-7.07s-1.07-5.21-2.93-7.069    C371.16,362.01,368.58,360.939,365.95,360.939z"/>
	</g>
</g>















</svg>
