<?xml version="1.0" encoding="iso-8859-1"?>
<!-- Generator: Adobe Illustrator 19.0.0, SVG Export Plug-In . SVG Version: 6.00 Build 0)  -->
<svg xmlns="http://www.w3.org/2000/svg" xmlns:xlink="http://www.w3.org/1999/xlink" version="1.1" id="Layer_1" x="0px" y="0px" viewBox="0 0 512 512" style="enable-background:new 0 0 512 512;" xml:space="preserve" width="512" height="512">
<g id="XMLID_1668_">
	<path id="XMLID_2389_" style="fill:#FFB9B7;" d="M104.515,131.42h102.53c8.346,0,15.769,5.308,18.467,13.206l14.072,41.191   c3.18,9.309,3.053,19.431-0.361,28.657l-14.708,39.749c-5.34,14.432-6.395,30.099-3.038,45.117l6.557,29.331   c3.219,14.398,4.842,29.106,4.842,43.859v24.351c0,22.825-15.371,42.788-37.437,48.623l0,0c-6.234,1.648-12.727,2.083-19.125,1.279   l-37.98-4.771L123.667,502h-42v-50.333l0,0C70.029,426.636,64,399.365,64,371.761v-20.543c0-7.318,3.255-14.257,8.882-18.936   l9.425-7.837c6.992-5.814,10.211-15.007,8.374-23.913l-5.173-25.07C85.17,273.825,85,272.158,85,270.486V150.935   C85,140.157,93.737,131.42,104.515,131.42z"/>
	<path id="XMLID_2388_" style="fill:#FFDFE0;" d="M463.775,131.42h-102.53c-8.346,0-15.769,5.308-18.467,13.206l-14.072,41.191   c-3.18,9.309-3.053,19.431,0.361,28.657l14.708,39.749c5.34,14.432,6.395,30.099,3.038,45.117l-6.557,29.331   c-3.219,14.398-4.842,29.106-4.842,43.859v24.351c0,22.825,15.371,42.788,37.437,48.623l0,0c6.234,1.648,12.727,2.083,19.125,1.279   l37.98-4.771L444.623,502h42v-50.333L486.033,413v-65.392c0-5.7-0.934-11.362-2.766-16.76l-4.157-12.252   c-3.723-10.973-3.686-22.873,0.104-33.823l1.206-3.483c1.9-5.488,2.87-11.255,2.87-17.063V150.935   C483.289,140.157,474.552,131.42,463.775,131.42z"/>
	<polygon id="XMLID_2348_" style="fill:#C9F3FF;" points="213.5,50 502,50 502,10 293.367,10 317,10 10,10 10,50 244.5,50  "/>
	<g id="XMLID_1843_">
		<path id="XMLID_1844_" d="M502,0H324.333c-5.522,0-10,4.478-10,10s4.478,10,10,10H492v20H244.5h-31H20V20h224.333    c5.522,0,10-4.478,10-10s-4.478-10-10-10H10C4.478,0,0,4.478,0,10v40c0,5.522,4.478,10,10,10h139.667v11.333    c0,5.522,4.478,10,10,10s10-4.478,10-10V60H213.5h31h154.123v11.333c0,5.522,4.478,10,10,10s10-4.478,10-10V60H502    c5.522,0,10-4.478,10-10V10C512,4.478,507.522,0,502,0z"/>
		<path id="XMLID_1896_" d="M234.975,141.393c-4.081-11.945-15.306-19.972-27.93-19.972h-37.378v-14.754c0-5.522-4.478-10-10-10    s-10,4.478-10,10v14.754h-45.152C88.24,121.421,75,134.661,75,150.935v119.551c0,2.347,0.24,4.701,0.714,6.999l5.174,25.068    c1.094,5.301-0.813,10.742-4.974,14.202l-9.427,7.838C58.552,331.192,54,340.897,54,351.218v20.543    c0,28.115,6.104,56.448,17.667,82.087V502c0,5.522,4.478,10,10,10h42c4.608,0,8.619-3.148,9.714-7.625l12.55-51.329l29.137,3.659    c7.702,0.968,15.418,0.452,22.927-1.533c26.426-6.986,44.882-30.957,44.882-58.291V372.53c0-15.461-1.71-30.951-5.084-46.041    l-6.557-29.331c-2.943-13.166-2.024-26.813,2.658-39.465l14.707-39.748c4.199-11.352,4.358-23.909,0.445-35.36L234.975,141.393z     M229.843,211.005l-14.706,39.748c-6.023,16.276-7.206,33.832-3.419,50.769l6.557,29.331c3.054,13.659,4.602,27.682,4.602,41.678    v24.351c0,18.268-12.334,34.286-29.994,38.955c-5.019,1.327-10.175,1.672-15.322,1.025l-37.98-4.771    c-5.028-0.632-9.753,2.613-10.96,7.547L115.817,492h-24.15v-40.333c0-1.456-0.318-2.896-0.933-4.216    C79.787,423.903,74,397.729,74,371.761v-20.543c0-4.359,1.923-8.459,5.275-11.247l9.426-7.837    c9.851-8.19,14.362-21.073,11.774-33.623l-5.174-25.068c-0.2-0.97-0.302-1.965-0.302-2.957V150.935    c0-5.246,4.269-9.514,9.515-9.514h102.53c4.069,0,7.688,2.587,9.004,6.438l14.071,41.192    C232.549,196.16,232.451,203.957,229.843,211.005z"/>
		<path id="XMLID_1897_" d="M123.667,263.71c5.522,0,10-4.478,10-10V181c0-5.522-4.478-10-10-10s-10,4.478-10,10v72.71    C113.667,259.232,118.145,263.71,123.667,263.71z"/>
		<path id="XMLID_1898_" d="M123.67,283.7c-2.63,0-5.21,1.069-7.07,2.93c-1.859,1.86-2.93,4.43-2.93,7.07    c0,2.63,1.07,5.21,2.93,7.069c1.86,1.86,4.431,2.931,7.07,2.931c2.63,0,5.21-1.07,7.07-2.931c1.859-1.859,2.93-4.439,2.93-7.069    c0-2.631-1.07-5.21-2.93-7.07C128.87,284.77,126.3,283.7,123.67,283.7z"/>
		<path id="XMLID_1901_" d="M496.033,412.927v-65.318c0-6.81-1.109-13.53-3.296-19.973l-4.157-12.253    c-2.994-8.825-2.964-18.533,0.085-27.34l1.205-3.482c2.269-6.556,3.419-13.396,3.419-20.333V150.935    c0-16.273-13.24-29.514-29.515-29.514h-45.151v-14.754c0-5.522-4.478-10-10-10s-10,4.478-10,10v14.754h-37.378    c-12.624,0-23.849,8.026-27.93,19.973l-14.072,41.191c-3.912,11.453-3.754,24.011,0.445,35.36l14.708,39.748    c4.682,12.652,5.601,26.299,2.658,39.465l-6.558,29.331c-3.373,15.087-5.083,30.577-5.083,46.041v24.351    c0,27.335,18.456,51.305,44.881,58.291c7.509,1.985,15.22,2.502,22.927,1.533l29.138-3.659l12.55,51.329    c1.095,4.477,5.105,7.625,9.714,7.625h42c5.522,0,10-4.478,10-10v-50.333c0-0.051,0-0.102-0.001-0.152L496.033,412.927z     M476.623,492h-24.15l-12.803-52.362c-1.207-4.935-5.931-8.176-10.96-7.547l-37.98,4.771c-5.153,0.646-10.305,0.301-15.322-1.025    c-17.659-4.669-29.993-20.688-29.993-38.955V372.53c0-13.999,1.548-28.021,4.601-41.678l6.558-29.331    c3.786-16.938,2.604-34.492-3.418-50.769l-14.708-39.749c-2.607-7.046-2.706-14.843-0.277-21.954l14.072-41.19    c1.315-3.852,4.934-6.438,9.004-6.438h102.529c5.246,0,9.515,4.268,9.515,9.514V180h-42.458c-5.522,0-10,4.478-10,10    s4.478,10,10,10h42.458v33H414c-5.522,0-10,4.478-10,10s4.478,10,10,10h59.289v11.228c0,4.705-0.78,9.346-2.319,13.793    l-1.204,3.481c-0.513,1.483-0.961,2.984-1.359,4.498h-61.89c-5.522,0-10,4.478-10,10s4.478,10,10,10h59.994    c0.356,5.364,1.392,10.688,3.13,15.809l4.157,12.254c0.551,1.622,1,3.27,1.348,4.938h-44.314c-5.522,0-10,4.478-10,10    s4.478,10,10,10h45.202v54c0,0.051,0,0.102,0.001,0.152l0.589,38.592V492z"/>
		<path id="XMLID_1902_" d="M284.33,20c2.64,0,5.21-1.07,7.069-2.931c1.87-1.859,2.931-4.439,2.931-7.069s-1.061-5.21-2.931-7.07    C289.54,1.069,286.97,0,284.33,0c-2.63,0-5.21,1.069-7.07,2.93s-2.93,4.44-2.93,7.07s1.069,5.21,2.93,7.069    C279.12,18.93,281.7,20,284.33,20z"/>
	</g>
</g>















</svg>
