<?xml version="1.0" encoding="iso-8859-1"?>
<!-- Generator: Adobe Illustrator 19.0.0, SVG Export Plug-In . SVG Version: 6.00 Build 0)  -->
<svg xmlns="http://www.w3.org/2000/svg" xmlns:xlink="http://www.w3.org/1999/xlink" version="1.1" id="Layer_1" x="0px" y="0px" viewBox="0 0 512.021 512.021" style="enable-background:new 0 0 512.021 512.021;" xml:space="preserve" width="512" height="512">
<g id="XMLID_962_">
	<g id="XMLID_906_">
		<path id="XMLID_2500_" style="fill:#FF5D5D;" d="M315.988,54.877V14.262c0,0-32.795-12.996-59.978,20.461l29.774,32.289    L315.988,54.877z"/>
		<path id="XMLID_2499_" style="fill:#FF5D5D;" d="M199.438,53.12V12.506c0,0,32.795-12.996,59.978,20.461l-29.774,32.289    L199.438,53.12z"/>
		<path id="XMLID_2472_" style="fill:#FE8F8D;" d="M215.942,59.057c22.825,9.643,34.776,34.881,27.774,58.649l-56.542,191.906    c-6.456,21.915-2.31,44.978,11.378,63.271c13.576,18.144,34.797,28.77,57.458,28.769c22.842,0,43.787-10.491,57.467-28.783    c13.679-18.291,17.823-41.348,11.368-63.256l-53.793-192.955c-6.508-23.342,5.129-47.919,27.31-57.678l0,0    c26.888-11.83,58.053,2.647,66.355,30.825l56.405,191.442c15.485,52.554,5.546,107.86-27.267,151.735    c-32.813,43.877-83.056,69.04-137.844,69.04c-54.789,0-105.032-25.164-137.845-69.04C85.351,389.105,75.413,333.8,90.898,281.246    L147.534,89.02c8.221-27.902,38.9-42.43,65.694-31.11L215.942,59.057z"/>
	</g>
	<g id="XMLID_1862_">
		<path id="XMLID_1918_" d="M430.712,278.42L374.308,86.978c-4.77-16.187-16.282-29.549-31.586-36.658    c-5.356-2.489-11.001-4.108-16.734-4.897V14.262c0-4.101-2.504-7.786-6.316-9.297c-11.865-4.702-37.867-6.878-60.963,12.723    C235.133-3.791,207.962-1.628,195.753,3.209c-3.812,1.511-6.315,5.196-6.315,9.297v31.78c-6.97,0.574-13.854,2.381-20.303,5.434    c-15.102,7.152-26.472,20.446-31.194,36.475L81.305,278.42c-16.383,55.607-5.867,114.126,28.852,160.551    c34.72,46.425,87.881,73.051,145.854,73.051c37.396,0,73.162-11.079,103.43-32.041c4.54-3.144,5.672-9.374,2.527-13.914    s-9.374-5.673-13.914-2.527c-26.906,18.633-58.734,28.482-92.043,28.482c-51.606,0-98.931-23.702-129.838-65.029    c-30.906-41.326-40.267-93.419-25.682-142.92l56.635-192.226c3.114-10.569,10.611-19.335,20.57-24.051s21.49-4.961,31.642-0.674    l2.714,1.146c18.153,7.67,27.643,27.708,22.072,46.611l-56.542,191.905c-7.356,24.972-2.631,51.246,12.964,72.088    c15.356,20.525,39.829,32.779,65.464,32.779c26.024,0,49.889-11.953,65.475-32.794c15.571-20.82,20.299-47.059,12.974-72    l-53.773-192.887c-5.138-18.428,4.192-38.135,21.704-45.839c10.187-4.48,21.816-4.361,31.907,0.325    c10.092,4.688,17.683,13.499,20.828,24.173l56.405,191.441c12.293,41.721,7.666,85.498-13.028,123.267    c-2.654,4.844-0.879,10.922,3.964,13.575c4.842,2.654,10.92,0.88,13.575-3.964C439.31,374.479,444.521,325.282,430.712,278.42z     M209.438,46.084V20.352c7.993-1.073,22.399-0.523,36.376,12.613L226.94,53.434c-2.259-1.337-4.627-2.542-7.106-3.589    l-2.714-1.146C214.61,47.638,212.04,46.779,209.438,46.084z M315.211,312.299c0.014,0.047,0.026,0.094,0.04,0.141    c5.556,18.856,1.989,38.699-9.783,54.44c-11.773,15.743-29.801,24.772-49.459,24.772c-19.653,0-37.677-9.024-49.45-24.761    c-11.78-15.743-15.35-35.592-9.792-54.454l56.542-191.905c5.702-19.353,0.984-39.482-11.146-54.104l14.74-15.985l15.254,16.542    c-11.397,14.373-15.915,33.789-10.738,52.357L315.211,312.299z M294.333,49.826c-2.537,1.116-4.958,2.401-7.261,3.832    l-17.461-18.935c13.971-13.13,28.376-13.681,36.376-12.609V46.1C302.016,46.928,298.109,48.165,294.333,49.826z"/>
		<path id="XMLID_1922_" d="M384.009,435.451c-2.641,0-5.21,1.07-7.07,2.93c-1.86,1.86-2.93,4.44-2.93,7.07s1.069,5.21,2.93,7.07    c1.86,1.859,4.44,2.93,7.07,2.93s5.21-1.07,7.069-2.93c1.86-1.86,2.931-4.44,2.931-7.07s-1.07-5.21-2.931-7.07    C389.219,436.521,386.639,435.451,384.009,435.451z"/>
		<path id="XMLID_1923_" d="M137.069,275.43c-5.299-1.563-10.858,1.469-12.418,6.766c-9.281,31.497-8.192,64.169,3.148,94.484    c1.504,4.019,5.315,6.499,9.367,6.499c1.164,0,2.349-0.205,3.503-0.637c5.173-1.936,7.797-7.697,5.862-12.87    c-9.811-26.224-10.743-54.518-2.697-81.824C145.396,282.55,142.367,276.99,137.069,275.43z"/>
		<path id="XMLID_1924_" d="M148.446,414.338c1.968,2.574,4.94,3.925,7.947,3.925c2.119,0,4.255-0.671,6.068-2.057    c4.357-3.332,5.212-9.548,1.937-13.931c-3.221-4.367-9.357-5.374-13.813-2.231c-4.513,3.186-5.588,9.425-2.403,13.937    C148.255,414.085,148.369,414.237,148.446,414.338z"/>
	</g>
</g>















</svg>
