<?xml version="1.0" encoding="iso-8859-1"?>
<!-- Generator: Adobe Illustrator 19.0.0, SVG Export Plug-In . SVG Version: 6.00 Build 0)  -->
<svg xmlns="http://www.w3.org/2000/svg" xmlns:xlink="http://www.w3.org/1999/xlink" version="1.1" id="Layer_1" x="0px" y="0px" viewBox="0 0 511.999 511.999" style="enable-background:new 0 0 511.999 511.999;" xml:space="preserve" width="512" height="512">
<g id="XMLID_1115_">
	<g id="XMLID_1328_">
		<g id="XMLID_1374_">
			<path id="XMLID_1705_" style="fill:#FF5D5D;" d="M114.525,233.731c33.089,65.73,97.637,130.279,163.367,163.367     c15.282,7.693,18.414,28.192,6.316,40.29l-51.999,51.999c-7.191,7.191-18.022,9.431-27.404,5.508     c-76.978-32.182-155.895-111.1-188.077-188.077c-3.922-9.382-1.682-20.214,5.508-27.404l51.999-51.999     C86.333,215.317,106.832,218.448,114.525,233.731z"/>
			<path id="XMLID_1699_" style="fill:#D8D8E4;" d="M316.5,459.024l-36.131-17.797l-38.837,38.837l42.085,20.729     c3.75,1.847,8.259,1.101,11.215-1.854l24.257-24.257C323.818,469.954,322.499,461.979,316.5,459.024z"/>
			<path id="XMLID_1698_" style="fill:#D8D8E4;" d="M53.11,196.159l17.286,35.095l-38.837,38.837l-20.467-41.554     c-2.003-4.068-1.195-8.959,2.012-12.165l23.021-23.021C41.253,188.222,49.904,189.652,53.11,196.159z"/>
		</g>
		<g id="XMLID_1367_">
			<path id="XMLID_66_" style="fill:#FE8F8D;" d="M367.893,307.097c15.282,7.693,18.414,28.192,6.316,40.29l-51.999,51.999     c-7.191,7.191-18.022,9.431-27.404,5.508c-76.978-32.182-155.895-111.1-188.077-188.077c-3.922-9.382-1.682-20.214,5.508-27.404     l51.999-51.999c12.098-12.098,32.597-8.967,40.29,6.316"/>
			<path id="XMLID_1372_" style="fill:#D8D8E4;" d="M406.501,369.023l-36.131-17.797l-38.837,38.837l42.085,20.729     c3.75,1.847,8.259,1.101,11.215-1.854l24.257-24.257C413.818,379.953,412.5,371.978,406.501,369.023z"/>
			<path id="XMLID_1371_" style="fill:#D8D8E4;" d="M143.11,106.158l17.286,35.095L121.56,180.09l-20.467-41.554     c-2.003-4.068-1.195-8.959,2.012-12.165l23.021-23.021C131.254,98.221,139.905,99.651,143.11,106.158z"/>
		</g>
		<g id="XMLID_1329_">
			<path id="XMLID_1366_" style="fill:#FF5D5D;" d="M294.577,53.679c33.089,65.73,97.637,130.279,163.367,163.367     c15.282,7.693,18.414,28.192,6.316,40.29l-51.999,51.999c-7.191,7.191-18.022,9.431-27.404,5.508     c-76.978-32.182-155.895-111.1-188.077-188.077c-3.922-9.382-1.682-20.214,5.508-27.404l51.999-51.999     C266.385,35.265,286.884,38.396,294.577,53.679z"/>
			<path id="XMLID_1365_" style="fill:#D8D8E4;" d="M496.552,278.972l-36.131-17.797l-38.837,38.837l42.085,20.729     c3.75,1.847,8.259,1.101,11.215-1.854l24.257-24.257C503.869,289.902,502.551,281.927,496.552,278.972z"/>
			<path id="XMLID_1333_" style="fill:#D8D8E4;" d="M233.161,16.107l17.286,35.095l-38.837,38.837l-20.467-41.554     c-2.003-4.068-1.195-8.959,2.012-12.165l23.021-23.021C221.305,8.17,229.956,9.6,233.161,16.107z"/>
		</g>
	</g>
	<g id="XMLID_69_">
		<path id="XMLID_1144_" d="M511.736,284.505c-1.037-6.272-5.062-11.694-10.765-14.504h0l-24.53-12.082    c4.368-7.129,6.135-15.692,4.782-24.103c-1.808-11.236-8.653-20.604-18.781-25.702c-64.22-32.328-126.604-94.712-158.932-158.932    v0c-5.098-10.128-14.466-16.974-25.702-18.781c-8.412-1.354-16.974,0.413-24.103,4.781l-11.572-23.494    c-2.927-5.942-8.575-10.135-15.11-11.215c-6.537-1.082-13.233,1.071-17.917,5.754l-23.021,23.021    c-6.236,6.237-7.809,15.743-3.911,23.655l17.303,35.129l-4.259,4.259c-7.516,7.515-11.104,17.718-10.234,27.842    c-7.499-0.601-14.982,1.213-21.329,5.102l-11.572-23.495c0,0,0,0,0,0c-2.927-5.942-8.577-10.135-15.112-11.215    c-6.536-1.081-13.232,1.071-17.916,5.754l-23.021,23.021c-6.236,6.237-7.809,15.743-3.911,23.655l17.302,35.128l-4.259,4.259    c-7.502,7.502-11.088,17.681-10.236,27.788c-7.484-0.589-14.946,1.226-21.277,5.105L62.08,191.741    c-2.927-5.942-8.575-10.135-15.11-11.215c-6.536-1.08-13.233,1.07-17.917,5.754L6.032,209.3    c-6.236,6.237-7.809,15.743-3.911,23.655l17.303,35.129l-4.258,4.258c-10.148,10.148-13.157,25.194-7.664,38.333    c11.588,27.717,29.584,56.754,52.043,83.973c1.978,2.396,4.837,3.636,7.719,3.636c2.241,0,4.495-0.75,6.358-2.287    c4.26-3.515,4.864-9.818,1.349-14.078c-21.227-25.725-38.177-53.028-49.018-78.959c-2.35-5.622-1.034-12.088,3.354-16.476    l51.999-52c3.516-3.516,8.354-5.076,13.272-4.287c4.822,0.776,8.837,3.702,11.015,8.027c0.044,0.088,0.098,0.168,0.145,0.254    c16.643,32.905,41.411,66.496,71.16,96.245c29.749,29.749,63.339,54.518,96.245,71.16c0.086,0.047,0.166,0.1,0.254,0.145    c4.326,2.178,7.251,6.192,8.027,11.015c0.792,4.919-0.771,9.756-4.287,13.272l-51.999,52c-4.387,4.388-10.854,5.703-16.476,3.354    c-25.757-10.769-52.888-27.577-78.461-48.607c-4.265-3.507-10.567-2.893-14.075,1.372c-3.508,4.266-2.894,10.568,1.372,14.076    c27.06,22.254,55.917,40.101,83.45,51.612c4.361,1.823,8.931,2.71,13.463,2.709c9.123,0,18.09-3.593,24.87-10.373l4.259-4.259    l35.66,17.565c2.781,1.369,5.766,2.035,8.728,2.035c5.127,0,10.182-1.996,13.977-5.79l24.257-24.257    c4.495-4.496,6.56-10.924,5.523-17.196c-1.037-6.272-5.062-11.694-10.765-14.504h0l-24.531-12.082    c3.879-6.33,5.693-13.79,5.106-21.271c0.973,0.082,1.946,0.131,2.917,0.131c9.123,0,18.09-3.593,24.87-10.373l4.259-4.259    l35.659,17.564c2.781,1.37,5.767,2.036,8.729,2.036c5.126,0,10.182-1.996,13.976-5.789l24.257-24.257    c4.496-4.496,6.56-10.924,5.523-17.197s-5.061-11.694-10.765-14.503l-24.531-12.083c3.887-6.345,5.701-13.826,5.102-21.325    c0.99,0.085,1.982,0.135,2.971,0.135c9.123,0,18.09-3.593,24.87-10.373l4.259-4.259l35.66,17.565    c2.781,1.369,5.766,2.035,8.728,2.035c5.127,0,10.182-1.996,13.977-5.79l24.257-24.257    C510.708,297.206,512.772,290.778,511.736,284.505z M20.175,223.443l23.021-23.021c0.063-0.064,0.174-0.175,0.392-0.175    c0.037,0,0.077,0.003,0.12,0.01c0.298,0.049,0.385,0.226,0.432,0.32l14.121,28.67l-23.899,23.899l-14.298-29.028    C19.951,223.893,19.996,223.621,20.175,223.443z M214.412,73.095l-14.298-29.028c-0.111-0.226-0.066-0.498,0.112-0.676    l23.021-23.021c0.063-0.064,0.174-0.175,0.392-0.175c0.037,0,0.077,0.003,0.12,0.01c0.298,0.049,0.385,0.226,0.432,0.32    l14.121,28.67l-13.57,13.57L214.412,73.095z M110.063,134.118c-0.111-0.226-0.066-0.498,0.112-0.676l23.021-23.021    c0.063-0.064,0.175-0.175,0.392-0.175c0.037,0,0.077,0.003,0.12,0.011c0.298,0.049,0.385,0.225,0.432,0.32l14.121,28.67    l-23.899,23.899L110.063,134.118z M316.5,459.024l-4.414,8.974c-0.001-0.001-0.003-0.002-0.005-0.003L316.5,459.024z     M287.883,491.747l-29.406-14.484l23.899-23.899l29.407,14.484L287.883,491.747z M298.663,395.669    c-74.656-31.212-151.496-108.052-182.709-182.708c-2.35-5.622-1.034-12.089,3.354-16.477l27.569-27.569l20.591-20.591    c0.002-0.002,0.004-0.004,0.005-0.006l3.833-3.833c3.516-3.516,8.356-5.078,13.273-4.287c4.822,0.776,8.837,3.702,11.015,8.028    c0.191,0.38,0.41,0.736,0.641,1.081c16.637,32.625,41.228,65.882,70.713,95.368c29.485,29.485,62.742,54.075,95.367,70.713    c0.344,0.231,0.701,0.45,1.081,0.642c4.326,2.178,7.252,6.192,8.028,11.015c0.792,4.919-0.771,9.757-4.287,13.272l-3.839,3.839    l0,0l-11.329,11.329l-36.831,36.831C310.751,396.703,304.283,398.019,298.663,395.669z M377.884,401.746l-29.406-14.484    l23.899-23.899l29.406,14.484L377.884,401.746z M388.714,305.618c-74.657-31.212-151.497-108.052-182.709-182.709    c-2.35-5.622-1.034-12.088,3.354-16.476l9.322-9.322c0,0,0.001-0.001,0.001-0.001l38.836-38.836    c0.002-0.002,0.003-0.004,0.005-0.006l3.834-3.834c2.916-2.916,6.741-4.488,10.768-4.488c0.828,0,1.665,0.066,2.504,0.201    c4.822,0.776,8.837,3.702,11.015,8.027v0c34.133,67.804,100,133.67,167.804,167.803c4.326,2.178,7.251,6.192,8.027,11.015    c0.792,4.919-0.771,9.756-4.287,13.272l-3.839,3.839l0,0l-38.836,38.836c-0.001,0.001-0.002,0.002-0.003,0.004l-9.32,9.32    C400.803,306.652,394.336,307.969,388.714,305.618z M467.934,311.695l-29.406-14.485l10.329-10.329l13.57-13.57l29.407,14.484    L467.934,311.695z M492.138,287.946c-0.001-0.001-0.003-0.002-0.005-0.003l4.418-8.971L492.138,287.946z"/>
		<path id="XMLID_1480_" d="M87.14,410.821l-0.029,0.029c-3.905,3.905-3.891,10.223,0.015,14.128    c1.949,1.949,4.506,2.922,7.064,2.922c2.567,0,5.136-0.98,7.093-2.936c3.905-3.905,3.905-10.237,0-14.143    C97.378,406.916,91.046,406.916,87.14,410.821z"/>
		<path id="XMLID_2827_" d="M386.119,213.96c-23.924-12.043-48.486-32.489-67.389-56.094c-3.452-4.311-9.745-5.007-14.057-1.555    c-4.311,3.452-5.007,9.746-1.555,14.057c20.635,25.768,47.609,48.168,74.007,61.457c1.443,0.726,2.977,1.07,4.489,1.07    c3.658,0,7.183-2.015,8.94-5.505C393.038,222.456,391.052,216.443,386.119,213.96z"/>
		<path id="XMLID_2828_" d="M288.732,119.997c-2.63,0-5.21,1.07-7.07,2.93c-1.86,1.86-2.93,4.44-2.93,7.07    c0,2.64,1.07,5.21,2.93,7.07c1.86,1.87,4.44,2.93,7.07,2.93c2.63,0,5.21-1.06,7.07-2.93c1.86-1.86,2.93-4.43,2.93-7.07    c0-2.63-1.07-5.21-2.93-7.07C293.942,121.067,291.362,119.997,288.732,119.997z"/>
	</g>
</g>















</svg>
