<?xml version="1.0" encoding="iso-8859-1"?>
<!-- Generator: Adobe Illustrator 19.0.0, SVG Export Plug-In . SVG Version: 6.00 Build 0)  -->
<svg xmlns="http://www.w3.org/2000/svg" xmlns:xlink="http://www.w3.org/1999/xlink" version="1.1" id="Layer_1" x="0px" y="0px" viewBox="0 0 512.016 512.016" style="enable-background:new 0 0 512.016 512.016;" xml:space="preserve" width="512" height="512">
<g id="XMLID_1152_">
	<g id="XMLID_1451_">
		<path id="XMLID_858_" style="fill:#FF5D5D;" d="M10,291.881v32.471c0,8.911,4.86,17.14,12.712,21.354    c88.097,47.287,204.082,57.542,204.082,57.542l26.301,10.915c52.318,21.712,128.651,19.513,179.833-4.755l0,0    c47.136-22.35,74.608-72.425,68.134-124.188l0,0c-2.254-18.018-16.648-66.468-26.052-81.282L10,291.881z"/>
		<path id="XMLID_2515_" style="fill:#FFDFE0;" d="M19.494,271.314c34.776-3.059,157.166-20.939,233.855-123.173    c4.406-14.997,1.316-33.812-1.284-44.841c-1.289-5.466,1.494-11.072,6.615-13.377l15.695-7.063l47.369,16.996l5.78,30.651    l34.219-11.555l46.484,18.669c40.754,16.368,69.42,53.559,74.871,97.138l0,0c6.475,51.763-20.998,101.837-68.134,124.187l0,0    c-51.182,24.269-110.247,25.728-162.565,4.016l-26.301-10.915c0,0-128.786-4.309-216.096-57.925v-12.444    C10,276.281,14.119,271.787,19.494,271.314z"/>
		<path id="XMLID_1622_" style="fill:#FFB9B7;" d="M252.397,362.961c52.318,21.712,111.383,20.253,162.565-4.016l0,0    c47.136-22.35,74.608-72.425,68.134-124.187l0,0c-1.269-10.147-3.812-19.94-7.458-29.212c-3.551,0.523-5.751,0.892-5.751,0.892    l-25.918,6.272l0,0c-29.622-30.308-71.621-45.172-113.713-40.245l-0.286,0.033c-9.036-7.718-21.543-9.934-32.681-5.791    l-5.144,1.914c0,0-136.64,159.251-282.146,125.5c87.31,53.615,216.096,57.925,216.096,57.925L252.397,362.961z"/>
		<path id="XMLID_940_" style="fill:#FF5D5D;" d="M247.127,303.901c-1.298-5.488-2.238-11.632-2.236-17.914    c0.003-10.276-10.846-16.932-20.04-12.341c-11.008,5.498-21.486,10.24-30.978,14.253c-12.629,5.338-10.613,23.83,2.863,26.356    l34.369,6.442C240.951,322.543,249.433,313.65,247.127,303.901z"/>
		<path id="XMLID_938_" style="fill:#FF5D5D;" d="M414.228,239.365l-14.847-8.275c-23.336-13.005-48.929-21.461-75.42-24.916l0,0    c-12.321-1.607-24.689,2.6-33.475,11.386l0,0c-12.13,12.13-15.18,30.643-7.583,46.023l3.943,7.982    c3.006,6.086,4.156,12.922,3.305,19.656v0c-2.611,20.661,13.494,38.928,34.319,38.928h0c30.054,0,59.621-7.591,85.958-22.068    l3.605-1.982c9.755-5.362,16.68-14.718,18.959-25.613l0,0C436.409,264.15,428.806,247.49,414.228,239.365z"/>
	</g>
	<g id="XMLID_1769_">
		<path id="XMLID_1929_" d="M510.984,283.978c-2.312-18.476-16.671-67.446-27.047-84.597c-13.328-31.924-39.01-57.798-71.985-71.041    l-46.483-18.669c-2.212-0.889-4.668-0.957-6.926-0.195l-23.324,7.877l-3.648-19.352c-0.657-3.485-3.111-6.361-6.45-7.559    l-47.369-16.995c-2.438-0.875-5.119-0.77-7.481,0.293l-15.693,7.063c-9.476,4.265-14.625,14.689-12.245,24.79    c2.086,8.849,5,25.231,1.869,38.067c-8.014,10.524-16.873,20.54-26.357,29.795c-3.952,3.857-4.029,10.188-0.173,14.142    c3.857,3.95,10.188,4.029,14.142,0.173c10.672-10.415,20.609-21.729,29.536-33.629c0.718-0.957,1.259-2.035,1.596-3.183    c4.874-16.593,2.067-36.323-1.146-49.953c-0.188-0.797,0.227-1.622,0.986-1.964l12.013-5.407l38.181,13.699l4.719,25.025    c0.537,2.844,2.279,5.316,4.777,6.777c2.497,1.461,5.505,1.769,8.249,0.844l30.72-10.374l43.057,17.292    c24.815,9.967,44.748,28.381,56.808,51.327l-14.291,3.458c-14.833-14.013-32.663-24.933-51.89-31.736    c-19.844-7.023-41.29-9.703-62.252-7.807c-11.383-7.801-25.967-9.681-39.071-4.806l-5.144,1.914    c-1.588,0.591-2.999,1.575-4.102,2.86c-0.333,0.388-33.88,39.201-84.542,73.648C155.566,265.98,88.914,298.549,20,285.976v-4.298    c0-0.211,0.159-0.383,0.369-0.401c23.185-2.039,83.716-10.44,144.902-44.325c4.831-2.676,6.579-8.761,3.903-13.593    c-2.675-4.832-8.76-6.576-13.593-3.903c-57.837,32.029-115.051,39.971-136.965,41.897C8.004,262.286,0,271.024,0,281.677v42.674    c0,12.653,6.891,24.213,17.982,30.165c84.379,45.292,191.602,57.102,206.372,58.546l24.907,10.336    c25.093,10.414,55.676,15.758,86.947,15.758c20.903,0,42.114-2.388,62.198-7.245c5.368-1.298,8.667-6.702,7.369-12.07    s-6.704-8.672-12.07-7.369c-45.519,11.008-99.206,8.048-136.778-7.546l-26.302-10.914c-0.94-0.391-1.937-0.635-2.95-0.725    c-1.141-0.102-115.035-10.66-200.235-56.393c-4.589-2.463-7.44-7.27-7.44-12.543v-13.026    c82.297,43.625,188.051,49.929,203.91,50.641l24.654,10.231c25.782,10.699,53.187,16.028,80.573,16.027    c30.857-0.002,61.691-6.77,90.109-20.244c36.358-17.24,61.834-49.533,71.016-86.939c0.379,2.005,0.678,3.831,0.876,5.418    c4.246,33.948-7.117,67.375-31.176,91.71c-3.883,3.927-3.847,10.259,0.081,14.142c1.949,1.927,4.49,2.889,7.03,2.889    c2.578,0,5.155-0.991,7.111-2.97C502.583,363.507,515.996,324.051,510.984,283.978z M410.679,349.91    c-48.538,23.015-104.833,24.405-154.448,3.815l-26.302-10.915c-1.109-0.46-2.296-0.717-3.496-0.758    c-1.043-0.035-87.116-3.345-164.363-33.535c18.379-0.952,37.197-4.349,56.328-10.205c30.396-9.304,61.641-24.785,92.863-46.016    c46.823-31.837,79.013-66.532,86.732-75.182l2.783-1.035c7.731-2.876,16.431-1.333,22.701,4.021    c2.115,1.807,4.885,2.652,7.65,2.329l0.291-0.033c38.734-4.533,78.14,9.41,105.399,37.301c2.466,2.523,6.076,3.558,9.503,2.73    l22.726-5.499c1.912,6.164,3.31,12.537,4.126,19.069C479.126,283.586,454.012,329.363,410.679,349.91z"/>
		<path id="XMLID_1933_" d="M254.891,285.99c0.002-8.3-4.215-15.863-11.28-20.233c-7.087-4.386-15.771-4.78-23.227-1.056    c-9.831,4.909-20.061,9.615-30.404,13.988c-9.752,4.122-15.543,13.968-14.408,24.498c1.136,10.546,8.9,18.943,19.321,20.897    l34.369,6.442c1.479,0.276,2.96,0.412,4.43,0.412c6.45,0,12.663-2.615,17.216-7.388c5.592-5.861,7.816-14.067,5.951-21.952    C255.552,296.075,254.89,290.822,254.891,285.99z M236.437,309.746c-0.537,0.563-1.708,1.461-3.489,1.123l-34.369-6.442    c-2.449-0.459-3.008-2.314-3.122-3.381c-0.114-1.057,0.035-2.973,2.311-3.935c10.73-4.536,21.347-9.421,31.554-14.518    c0.623-0.312,1.208-0.427,1.732-0.427c0.89,0,1.605,0.332,2.037,0.599c0.673,0.416,1.802,1.388,1.801,3.22    c-0.001,6.383,0.842,13.185,2.505,20.218c0,0,0,0,0,0.001C237.814,307.972,236.975,309.182,236.437,309.746z"/>
		<path id="XMLID_1936_" d="M419.096,230.629l-14.847-8.274c-24.549-13.682-51.127-22.462-78.994-26.097    c-15.289-1.991-30.935,3.324-41.841,14.23c-15.17,15.171-18.979,38.287-9.477,57.523l3.942,7.982    c2.144,4.338,2.956,9.17,2.35,13.973c-1.604,12.695,2.329,25.481,10.791,35.079c8.462,9.599,20.654,15.104,33.449,15.104    c31.65,0,63.04-8.059,90.774-23.305l3.606-1.982c12.328-6.777,21.05-18.561,23.929-32.329    C447.116,261.8,437.599,240.941,419.096,230.629z M423.203,278.44c-1.683,8.048-6.781,14.936-13.986,18.896l-3.606,1.981    c-24.792,13.629-52.85,20.832-81.141,20.832c-7.057,0-13.78-3.036-18.446-8.329c-4.667-5.294-6.836-12.345-5.952-19.347    c1.101-8.709-0.373-17.471-4.26-25.338l-3.942-7.981c-5.703-11.545-3.417-25.419,5.688-34.523    c5.638-5.639,13.384-8.789,21.289-8.789c1.272,0,2.55,0.082,3.822,0.248c25.346,3.306,49.518,11.291,71.845,23.735l14.847,8.274    C420.175,254.127,425.738,266.32,423.203,278.44z"/>
		<path id="XMLID_1937_" d="M434.069,398.863c-2.63,0-5.21,1.06-7.069,2.92c-1.87,1.87-2.931,4.439-2.931,7.08    c0,2.63,1.061,5.21,2.931,7.069c1.859,1.86,4.439,2.931,7.069,2.931c2.631,0,5.21-1.07,7.07-2.931    c1.86-1.859,2.93-4.439,2.93-7.069c0-2.641-1.069-5.21-2.93-7.08C439.279,399.922,436.7,398.863,434.069,398.863z"/>
		<path id="XMLID_1939_" d="M194.27,216.523c2.63,0,5.21-1.07,7.07-2.931c1.86-1.87,2.93-4.439,2.93-7.069    c0-2.631-1.069-5.211-2.93-7.07c-1.86-1.86-4.43-2.93-7.07-2.93c-2.63,0-5.21,1.069-7.069,2.93    c-1.86,1.859-2.931,4.439-2.931,7.07c0,2.63,1.07,5.21,2.931,7.069C189.069,215.453,191.64,216.523,194.27,216.523z"/>
	</g>
</g>















</svg>
