<?xml version="1.0" encoding="iso-8859-1"?>
<!-- Generator: Adobe Illustrator 19.0.0, SVG Export Plug-In . SVG Version: 6.00 Build 0)  -->
<svg xmlns="http://www.w3.org/2000/svg" xmlns:xlink="http://www.w3.org/1999/xlink" version="1.1" id="Layer_1" x="0px" y="0px" viewBox="0 0 512 512" style="enable-background:new 0 0 512 512;" xml:space="preserve" width="512" height="512">
<g id="XMLID_1195_">
	<path id="XMLID_805_" style="fill:#FFB954;" d="M256,502h164V276.361c-56.239-27.06-92-83.951-92-146.361l0,0h-72h-72l0,0   c0,62.411-35.761,119.302-92,146.361V502H256z"/>
	<path id="XMLID_806_" style="fill:#FF5D5D;" d="M292.658,453.5H219.33c-24.162,0-43.75-19.588-43.75-43.75v-80.083h160.828v80.083   C336.408,433.912,316.82,453.5,292.658,453.5z"/>
	<g id="XMLID_80_">
		<path id="XMLID_81_" d="M215.994,339.667c5.522,0,10-4.477,10-10s-4.478-10-10-10H175.58c-5.522,0-10,4.477-10,10v80.083    c0,29.638,24.112,53.75,53.75,53.75h73.328c29.638,0,53.75-24.112,53.75-53.75v-80.083c0-5.523-4.478-10-10-10h-40.414    c-5.522,0-10,4.477-10,10s4.478,10,10,10h30.414v70.083c0,18.61-15.141,33.75-33.75,33.75H219.33    c-18.609,0-33.75-15.14-33.75-33.75v-70.083H215.994z"/>
		<path id="XMLID_91_" d="M471.13,407.345c-7.189-14.092-6.447-31.18,1.938-44.596c6.493-10.391,9.925-22.358,9.925-34.608    c0-33.656-27.056-61.093-60.559-61.748C371.079,240.777,338,187.49,338,130V82c0-45.215-36.785-82-82-82s-82,36.785-82,82v48    c0,57.491-33.079,110.777-84.434,136.392c-33.503,0.654-60.56,28.092-60.56,61.748c0,12.251,3.433,24.219,9.926,34.609    c8.385,13.416,9.127,30.504,1.937,44.596l-4.729,9.27c-4.667,9.146-7.134,19.409-7.134,29.677V502c0,5.523,4.478,10,10,10    s10-4.477,10-10v-55.708c0-7.123,1.711-14.242,4.949-20.587l4.729-9.27c10.365-20.314,9.295-44.947-2.792-64.285    c-4.505-7.208-6.886-15.51-6.886-24.009c0-20.023,14.162-36.794,32.994-40.842V422c0,5.523,4.478,10,10,10s10-4.477,10-10V282.518    c26.807-14.129,49.383-35.029,65.556-60.759c15.521-24.691,24.478-52.771,26.155-81.759H318.29    c1.678,28.988,10.634,57.067,26.155,81.759c16.173,25.729,38.749,46.63,65.556,60.759V492H92c-5.522,0-10,4.477-10,10    s4.478,10,10,10h328c5.522,0,10-4.477,10-10V287.299c18.832,4.047,32.993,20.818,32.993,40.841c0,8.499-2.381,16.801-6.885,24.009    c-12.088,19.338-13.158,43.971-2.794,64.285l4.73,9.271c3.237,6.345,4.948,13.464,4.948,20.587V502c0,5.523,4.478,10,10,10    s10-4.477,10-10v-55.708c0-10.268-2.467-20.53-7.133-29.676L471.13,407.345z M256,20c34.187,0,62,27.813,62,62v38H194V82    C194,47.813,221.814,20,256,20z"/>
		<path id="XMLID_92_" d="M263.063,336.74c1.86-1.86,2.931-4.44,2.931-7.07c0-2.64-1.07-5.21-2.931-7.07    c-1.859-1.87-4.439-2.93-7.069-2.93s-5.21,1.06-7.07,2.93c-1.86,1.86-2.93,4.43-2.93,7.07c0,2.63,1.069,5.2,2.93,7.07    c1.86,1.86,4.44,2.93,7.07,2.93S261.204,338.6,263.063,336.74z"/>
		<path id="XMLID_93_" d="M92.003,472c2.63,0,5.21-1.07,7.07-2.93c1.859-1.86,2.93-4.44,2.93-7.07c0-2.63-1.07-5.21-2.93-7.07    c-1.86-1.86-4.44-2.93-7.07-2.93c-2.64,0-5.21,1.07-7.07,2.93c-1.87,1.86-2.93,4.44-2.93,7.07c0,2.63,1.06,5.21,2.93,7.07    C86.793,470.93,89.364,472,92.003,472z"/>
	</g>
</g>















</svg>
