<?xml version="1.0" encoding="iso-8859-1"?>
<!-- Generator: Adobe Illustrator 19.0.0, SVG Export Plug-In . SVG Version: 6.00 Build 0)  -->
<svg xmlns="http://www.w3.org/2000/svg" xmlns:xlink="http://www.w3.org/1999/xlink" version="1.1" id="Layer_1" x="0px" y="0px" viewBox="0 0 512 512" style="enable-background:new 0 0 512 512;" xml:space="preserve" width="512" height="512">
<g id="XMLID_1465_">
	<path id="XMLID_1430_" style="fill:#72D8FF;" d="M48.332,292.016l113.312-66.202h188.712l113.312,66.202   C487.407,305.885,502,331.312,502,358.805V502H10V358.805C10,331.312,24.593,305.885,48.332,292.016z"/>
	<path id="XMLID_1111_" style="fill:#FF5D5D;" d="M420.5,10h-329C76.312,10,64,22.312,64,37.5v46.792   c0,15.188,12.312,27.5,27.5,27.5h329c15.188,0,27.5-12.312,27.5-27.5V37.5C448,22.312,435.688,10,420.5,10z"/>
	<polygon id="XMLID_1107_" style="fill:#C9F3FF;" points="142.523,163.792 487,163.792 487,111.792 25,111.792 25,163.792    44.776,163.792  "/>
	<circle id="XMLID_1101_" style="fill:#FFFFFF;" cx="256" cy="363.907" r="89.373"/>
	<g id="XMLID_993_">
		<path id="XMLID_1049_" d="M468.713,283.381L358,218.698v-44.906h129c5.522,0,10-4.477,10-10v-52c0-5.523-4.478-10-10-10h-33.348    c2.771-5.228,4.348-11.182,4.348-17.5V37.5C458,16.822,441.178,0,420.5,0h-329C70.822,0,54,16.822,54,37.5v46.792    c0,6.318,1.577,12.272,4.348,17.5H25c-5.522,0-10,4.477-10,10v52c0,5.523,4.478,10,10,10h23c5.522,0,10-4.477,10-10    s-4.478-10-10-10H35v-32h442v32H128c-5.522,0-10,4.477-10,10s4.478,10,10,10h26v44.906L43.287,283.381    C16.587,298.98,0,327.881,0,358.805V502c0,5.523,4.478,10,10,10h492c5.522,0,10-4.477,10-10V358.805    C512,327.881,495.413,298.98,468.713,283.381z M91.5,101.792c-9.649,0-17.5-7.851-17.5-17.5V37.5C74,27.851,81.851,20,91.5,20h329    c9.649,0,17.5,7.851,17.5,17.5v46.792c0,9.649-7.851,17.5-17.5,17.5H91.5z M338,215.814H174v-42h164V215.814z M20,492V358.805    c0-23.844,12.789-46.127,33.377-58.155l110.974-64.836h183.299l110.974,64.836C479.211,312.678,492,334.961,492,358.805V452    h-58.521c-5.522,0-10,4.477-10,10s4.478,10,10,10H492v20H20z"/>
		<path id="XMLID_1054_" d="M391.93,452c-2.63,0-5.21,1.07-7.07,2.93c-1.859,1.86-2.93,4.44-2.93,7.07c0,2.63,1.07,5.21,2.93,7.07    c1.86,1.86,4.44,2.93,7.07,2.93s5.21-1.07,7.07-2.93c1.87-1.86,2.93-4.44,2.93-7.07c0-2.63-1.06-5.21-2.93-7.07    C397.14,453.07,394.56,452,391.93,452z"/>
		<path id="XMLID_1114_" d="M256,264.534c-54.795,0-99.373,44.578-99.373,99.373S201.205,463.28,256,463.28    s99.373-44.579,99.373-99.373S310.795,264.534,256,264.534z M256,443.28c-43.767,0-79.373-35.606-79.373-79.373    c0-43.766,35.606-79.373,79.373-79.373s79.373,35.606,79.373,79.373C335.373,407.673,299.767,443.28,256,443.28z"/>
		<path id="XMLID_1126_" d="M282.971,322.794l-34.042,34.042c-3.905,3.905-3.905,10.237,0,14.142    c1.953,1.953,4.512,2.929,7.071,2.929c2.559,0,5.118-0.977,7.071-2.929l34.042-34.042c3.905-3.905,3.905-10.237,0-14.142    S286.878,318.889,282.971,322.794z"/>
		<path id="XMLID_1240_" d="M245,43.667h-81.333c-5.522,0-10,4.477-10,10s4.478,10,10,10H245c5.522,0,10-4.477,10-10    S250.522,43.667,245,43.667z"/>
		<path id="XMLID_1255_" d="M379,65.168h-36.667c-5.522,0-10,4.477-10,10s4.478,10,10,10H379c5.522,0,10-4.477,10-10    S384.522,65.168,379,65.168z"/>
		<path id="XMLID_1330_" d="M95.069,170.86C96.93,169,98,166.42,98,163.79c0-2.63-1.07-5.21-2.931-7.07    c-1.859-1.86-4.439-2.93-7.069-2.93s-5.21,1.07-7.07,2.93c-1.86,1.86-2.93,4.44-2.93,7.07c0,2.63,1.069,5.21,2.93,7.07    s4.44,2.93,7.07,2.93S93.21,172.72,95.069,170.86z"/>
	</g>
</g>















</svg>
