<?xml version="1.0" encoding="iso-8859-1"?>
<!-- Generator: Adobe Illustrator 19.0.0, SVG Export Plug-In . SVG Version: 6.00 Build 0)  -->
<svg xmlns="http://www.w3.org/2000/svg" xmlns:xlink="http://www.w3.org/1999/xlink" version="1.1" id="Layer_1" x="0px" y="0px" viewBox="0 0 512 512" style="enable-background:new 0 0 512 512;" xml:space="preserve" width="512" height="512">
<g id="XMLID_1687_">
	<g id="XMLID_1498_">
		<path id="XMLID_1501_" style="fill:#72D8FF;" d="M176.102,417.235L94.76,335.893c-7.81-7.81-7.81-20.474,0-28.284l3.492-3.492    c7.81-7.81,20.474-7.81,28.284,0l81.342,81.342c7.81,7.81,7.81,20.474,0,28.284l-3.492,3.492    C196.576,425.045,183.913,425.045,176.102,417.235z"/>
		<path id="XMLID_1500_" style="fill:#C9F3FF;" d="M183.095,360.676L151.319,328.9L418.215,62.004    c19.023-19.023,41.548-34.182,66.333-44.642L501.995,10l-7.362,17.446c-10.46,24.785-25.619,47.311-44.642,66.334L183.095,360.676    z"/>
		<path id="XMLID_1499_" style="fill:#FFB954;" d="M149.326,394.445l1.993-1.993l-31.776-31.776l-1.994,1.994    c-22.654,22.654-49.505,40.801-79.272,52.647c-6.291,2.504-12.13,6.485-16.985,11.948c-14.862,16.722-15.029,42.287-0.364,59.182    c17.279,19.908,47.467,20.705,65.78,2.392c4.2-4.2,7.393-9.024,9.58-14.173C108.951,444.86,126.428,417.343,149.326,394.445z"/>
	</g>
	<g id="XMLID_129_">
		<path id="XMLID_145_" d="M509.066,2.929c-2.877-2.877-7.21-3.724-10.959-2.143l-17.446,7.362    c-26.098,11.013-49.486,26.754-69.517,46.784L151.319,314.757l-17.712-17.712c-11.698-11.697-30.73-11.696-42.427,0l-3.491,3.491    c-5.666,5.667-8.786,13.2-8.786,21.213s3.12,15.547,8.786,21.213l17.629,17.629c-21.042,19.837-44.803,35.112-70.738,45.432    c-7.996,3.183-14.981,8.093-20.762,14.596c-18.247,20.53-18.438,51.646-0.441,72.379c10.143,11.686,24.209,18.421,39.608,18.965    c0.64,0.023,1.279,0.034,1.919,0.034c14.513,0,28.589-5.803,38.875-16.09c5.018-5.017,8.959-10.849,11.714-17.334    c11.786-27.742,27.223-51.883,45.922-71.885l17.616,17.616v0c5.666,5.666,13.2,8.787,21.214,8.787s15.547-3.121,21.212-8.786    l3.493-3.492c11.696-11.697,11.696-30.729,0-42.427l-17.712-17.712l73.776-73.776c3.905-3.905,3.905-10.237,0-14.143    c-3.906-3.905-10.236-3.905-14.143,0l-73.775,73.776L165.461,328.9L425.287,69.075c16.808-16.808,36.221-30.292,57.769-40.136    c-9.844,21.548-23.327,40.961-40.136,57.77L313.44,216.189c-3.905,3.905-3.905,10.237,0,14.143c3.906,3.905,10.236,3.905,14.143,0    l129.479-129.48c20.03-20.031,35.771-43.419,46.783-69.516l7.362-17.446C512.789,10.139,511.943,5.806,509.066,2.929z     M87.084,470.755c-1.747,4.112-4.252,7.817-7.447,11.011c-6.931,6.931-16.141,10.553-25.947,10.211    c-9.791-0.346-18.744-4.638-25.21-12.087c-11.431-13.17-11.308-32.939,0.286-45.983c3.691-4.152,8.135-7.281,13.209-9.3    c28.472-11.33,54.511-28.086,77.499-49.858l8.89,8.89l8.892,8.891C116.746,414.342,99.886,440.623,87.084,470.755z     M200.808,406.671l-3.493,3.493c-1.889,1.889-4.399,2.929-7.07,2.929c-2.672,0-5.183-1.04-7.071-2.929v0l-81.342-81.343    c-3.899-3.899-3.899-10.243,0-14.142l3.491-3.491c3.897-3.898,10.242-3.9,14.142,0l81.343,81.342    C204.706,396.429,204.706,402.773,200.808,406.671z"/>
		<path id="XMLID_150_" d="M143.683,121.792h6.858c5.522,0,10-4.477,10-10s-4.478-10-10-10h-6.858c-5.522,0-10,4.477-10,10    S138.161,121.792,143.683,121.792z"/>
		<path id="XMLID_1099_" d="M192.204,121.792h6.858c5.522,0,10-4.477,10-10s-4.478-10-10-10h-6.858c-5.522,0-10,4.477-10,10    S186.681,121.792,192.204,121.792z"/>
		<path id="XMLID_1100_" d="M171.372,149.481c5.522,0,10-4.477,10-10v-6.859c0-5.523-4.478-10-10-10s-10,4.477-10,10v6.859    C161.372,145.004,165.85,149.481,171.372,149.481z"/>
		<path id="XMLID_1103_" d="M171.372,100.961c5.522,0,10-4.477,10-10v-6.859c0-5.523-4.478-10-10-10s-10,4.477-10,10v6.859    C161.372,96.484,165.85,100.961,171.372,100.961z"/>
		<path id="XMLID_1104_" d="M399.496,350.676h-6.859c-5.522,0-10,4.477-10,10s4.478,10,10,10h6.859c5.522,0,10-4.477,10-10    S405.018,350.676,399.496,350.676z"/>
		<path id="XMLID_1105_" d="M448.016,350.676h-6.859c-5.522,0-10,4.477-10,10s4.478,10,10,10h6.859c5.522,0,10-4.477,10-10    S453.538,350.676,448.016,350.676z"/>
		<path id="XMLID_1106_" d="M420.327,371.507c-5.522,0-10,4.477-10,10v6.859c0,5.523,4.478,10,10,10s10-4.477,10-10v-6.859    C430.327,375.984,425.849,371.507,420.327,371.507z"/>
		<path id="XMLID_1108_" d="M420.327,322.986c-5.522,0-10,4.477-10,10v6.859c0,5.523,4.478,10,10,10s10-4.477,10-10v-6.859    C430.327,327.463,425.849,322.986,420.327,322.986z"/>
		<path id="XMLID_1109_" d="M292.226,241.54c-2.63,0-5.21,1.07-7.07,2.93c-1.86,1.86-2.93,4.44-2.93,7.07    c0,2.64,1.069,5.22,2.93,7.08c1.86,1.86,4.44,2.92,7.07,2.92s5.21-1.06,7.069-2.92c1.86-1.87,2.931-4.44,2.931-7.08    c0-2.63-1.07-5.2-2.931-7.07C297.436,242.61,294.856,241.54,292.226,241.54z"/>
	</g>
</g>















</svg>
