<svg id="Capa_1" enable-background="new 0 0 512 512" height="512" viewBox="0 0 512 512" width="512" xmlns="http://www.w3.org/2000/svg"><g><path d="m434.8 281.41c-3.73-13.32-9.2-26.14-16.27-38.11-6.19-10.49-13.55-20.42-22.51-30.34-7.12-7.89-15.03-15.56-24.89-24.13-23.59-20.49-37.11-49.5-37.1-79.59 0-5.64 2.74-26.93 2.74-31.78.05-9.26-1.59-18.3-4.88-26.85-3.71-9.69-9.49-18.56-17.16-26.39-7.73-7.95-16.88-14.09-27.19-18.25-9.81-3.96-20.43-5.97-31.2-5.97-10.76.04-21.52 2.08-31.44 6.04-10.36 4.15-19.62 10.23-27.53 18.08-17.38 17.27-34.07 38.43-49.59 62.88-15.01 23.65-28.47 49.61-40 77.18-11.56 27.71-20.61 55.69-26.88 83.16-6.56 28.67-9.89 55.92-9.9 81.01 0 12.46 1.26 24.91 3.76 37.02 2.43 11.8 6.07 23.4 10.79 34.49 4.64 10.89 10.39 21.39 17.07 31.21 6.62 9.73 14.22 18.87 22.59 27.17s17.58 15.84 27.37 22.41c9.89 6.63 20.47 12.32 31.43 16.92 22.81 9.58 47.03 14.43 71.98 14.43h.03c35.83 0 70.59-10.19 100.52-29.46 2.25-1.45 3.79-3.68 4.36-6.29s.08-5.29-1.37-7.53c-1.84-2.88-4.99-4.59-8.41-4.59-1.92 0-3.79.55-5.41 1.59-26.7 17.19-57.73 26.28-89.71 26.28-44.08 0-85.52-17.04-116.7-47.96-31.14-30.92-48.29-72-48.3-115.69-.03-46.48 12.48-102.05 35.24-156.46 22.51-53.99 52.78-101.42 85.22-133.58 11.83-11.74 27.826-18.24 44.857-18.31 16.95.02 32.683 6.47 44.083 18.17 11.06 11.47 16.27 23.96 16.37 39.29 0 3.72-2.74 25.01-2.74 31.78 0 8.92 1.01 17.89 2.98 26.65 1.95 8.64 4.85 17.12 8.63 25.22 3.76 8.07 8.41 15.79 13.82 22.95 5.45 7.22 11.69 13.9 18.56 19.87 19.96 17.33 33.31 32.61 43.28 49.53 13.23 22.5 19.67 47 19.7 74.89 0 26.66-6.26 52.07-18.59 75.54-2.56 4.88-.68 10.93 4.2 13.5 1.43.75 3.04 1.15 4.65 1.15 3.73 0 7.12-2.05 8.86-5.35 0 0 0 0 0-.01 6.74-12.82 11.94-26.43 15.44-40.46 3.61-14.44 5.44-29.37 5.44-44.37.01-16.37-2.07-32.16-6.2-46.94z"/><path d="m289.415 101.881c2.431-12.293 5.457-27.592-6.772-42.892-7.663-9.587-19.073-12.989-26.517-12.989-17.732 0-25.249 8.741-35.295 20.427-49.536 57.592-102.831 172.129-102.831 250.397 0 40.313 14.005 77.81 39.435 105.58 25.743 28.113 60.748 43.596 98.565 43.596 35.23 0 70.561-15.007 96.932-41.173 26.099-25.897 41.068-60.16 41.068-94.003 0-54.921-30.762-85.173-53.223-107.263-1.077-1.059-10.147-10.234-14.93-15.906-16.455-19.516-40.049-54.75-38.135-94.579.164-3.419.912-7.196 1.703-11.195zm-53.42-22.413c9.527-11.081 11.841-13.468 20.131-13.468 2.62 0 7.682 1.458 10.893 5.476 6.131 7.67 5.109 14.722 2.775 26.524-.897 4.534-1.824 9.223-2.059 14.116-.613 12.766.908 25.757 4.497 38.867-15.652 8.178-32.077 25.045-42.254 44.046-11.199-30.212-25.423-50.344-32.833-59.579 11.974-20.836 25.324-40.257 38.85-55.982zm-49.39 75.318c4.372 6.191 9.868 14.862 15.329 25.866 10.308 20.77 22.473 54.103 23.921 97.532-39.696 6.518-70.268 21.246-87.677 31.44 2.006-43.092 21.358-102.489 48.427-154.838zm187.395 176.038c0 60.279-56.243 115.176-118 115.176-61.23 0-110.178-48.59-117.143-113.241 12.385-8.378 47.934-29.602 98.412-36.05 45.535-5.824 91.332 1.854 136.199 22.82.34 3.622.532 7.374.532 11.295zm-47.247-93.003c15.735 15.474 32.952 32.425 41.607 57.629-40.395-16.57-81.503-23.187-122.584-19.74-.656-16.842-2.77-32.311-5.809-46.364.688-20.941 21.006-48.486 38.939-59.247 2.169 5.109 4.63 10.229 7.419 15.353 7.303 13.419 15.701 24.894 23.126 33.811 5.508 6.616 16.213 17.486 17.302 18.558z"/><path d="m226 375c0 16.542 13.458 30 30 30s30-13.458 30-30-13.458-30-30-30-30 13.458-30 30zm40 0c0 5.514-4.486 10-10 10s-10-4.486-10-10 4.486-10 10-10 10 4.486 10 10z"/><circle cx="385.438" cy="445.22" r="10"/></g></svg>