<svg id="Capa_1" enable-background="new 0 0 512 512" height="512" viewBox="0 0 512 512" width="512" xmlns="http://www.w3.org/2000/svg"><g><path d="m356 368c5.523 0 10-4.477 10-10v-40c0-2.796-1.15-5.32-2.999-7.135-.008-.009-.011-.017-.02-.025l-33.511-32.673c-3.993-3.893-7.46-8.286-10.309-13.081-3.223-5.423-7.384-12.804-10.241-19.256-1.61-3.6-5.2-5.93-9.14-5.93-1.41 0-2.77.29-4.07.87-2.44 1.08-4.31 3.06-5.27 5.55-.95 2.49-.88 5.21.21 7.65 2 4.47 4.58 9.52 7.67 15.03l-84.55-.15c2.84-5.08 5.24-9.74 7.13-13.87 1.87-4.15 3.93-9.07 4.92-14.09 1.29-6.81 2.6-18.82 2.62-30.31 0-4.49-.21-8.35-.62-11.8-.44-3.44-4.604-14.747-6.123-17.712-5.051-9.854-13.378-25.457-15.577-30.238-6.99-15.13-10.11-27.72-10.12-40.83-.02-24.34 6.79-48.02 18.7-64.98 5.54-7.93 12.19-14.36 19.22-18.6 7.06-4.25 14.48-6.41 22.08-6.42 7.6.01 15.02 2.17 22.08 6.42 10.67 6.42 20.23 17.77 26.92 31.94 7.2 15.21 11.01 33.07 11 51.64 0 19.09-7 35.23-14.56 49.84-1.22 2.37-1.45 5.08-.65 7.62.81 2.55 2.57 4.63 4.94 5.85 1.44.75 2.98 1.12 4.59 1.12 3.75 0 7.16-2.07 8.89-5.4 3.61-6.97 8.18-16.32 11.55-26.8 3.53-10.97 5.24-21.51 5.24-32.23-.02-28.73-7.94-55.87-22.31-76.44-7.23-10.33-15.73-18.49-25.27-24.26-10.05-6.08-21.24-9.3-32.37-9.3h-.11c-11.12 0-22.31 3.22-32.36 9.3-14.2 8.6-26.18 22.61-34.67 40.51-8.44 17.87-12.9 38.68-12.91 60.19-.01 15.96 3.8 31.6 11.97 49.23 2.529 5.445 13.03 22.437 18.105 36.496 1.315 3.643 2.082 7.461 2.266 11.33.058 1.231.659 16.111-2.161 30.054-.399 1.971-1.75 5.83-3.48 9.57-1.797 3.946-6.392 12.068-9.932 18.183-2.927 5.056-6.527 9.687-10.71 13.765l-33.039 32.213c-.008.008-.01.015-.018.023-1.85 1.815-3.001 4.34-3.001 7.137v40c0 5.523 4.477 10 10 10h10v50h-10c-5.523 0-10 4.477-10 10v40c0 5.523 4.477 10 10 10h10v23.658c0 5.326 4.019 9.977 9.335 10.321 5.824.375 10.665-4.237 10.665-9.98v-24h20v23.658c0 5.326 4.019 9.977 9.335 10.321 5.824.376 10.665-4.236 10.665-9.979v-24h20v23.658c0 5.326 4.019 9.977 9.335 10.321 5.824.376 10.665-4.236 10.665-9.979v-24h20v23.658c0 5.326 4.019 9.977 9.335 10.321 5.824.376 10.665-4.236 10.665-9.979v-24h20v23.658c0 5.326 4.019 9.977 9.335 10.321 5.824.376 10.665-4.236 10.665-9.979v-24h10c5.523 0 10-4.477 10-10v-40c0-5.523-4.477-10-10-10h-10v-50zm-10-20h-180v-20h180zm-80 70v-50h20v50zm-40 0v-50h20v50zm-25.932-129h111.863l19.487 19h-150.837zm-14.068 79h20v50h-20zm160 90h-180v-20h180zm-20-40h-20v-50h20z"/><circle cx="293.66" cy="205.67" r="10"/></g></svg>