<svg id="Capa_1" enable-background="new 0 0 512 512" height="512" viewBox="0 0 512 512" width="512" xmlns="http://www.w3.org/2000/svg"><g><path d="m511.993 398.898c-3.194-17.148-9.508-33.602-18.32-48.908-1.78-3.09-5.11-5.02-8.68-5.02-1.74 0-3.46.47-4.98 1.34-2.31 1.33-3.97 3.49-4.67 6.07-.69 2.57-.34 5.27.99 7.59 5.69 9.88 10.09 20.32 13.09 31.03h-245.506l26.199-148.45c20.48 3.93 91.359 19.6 146.978 56.98 1.65 1.1 3.57 1.69 5.55 1.69 3.35 0 6.46-1.66 8.32-4.44 1.49-2.22 2.02-4.88 1.5-7.5-.51-2.62-2.02-4.88-4.24-6.37-16.62-11.13-35.61-21.28-56.429-30.19-16.54-7.08-34.39-13.44-53.059-18.9-30.679-8.95-54.989-12.82-56.749-12.82-4.86 0-8.99 3.47-9.84 8.26l-5.602 31.74h-11.549v-80h194.997c16.542 0 30-13.458 30-30v-20c0-5.523-4.477-10-10-10h-36.392c-1.854-23.401-10.308-43.016-24.736-57.145-15.936-15.606-38.368-23.855-64.869-23.855-1.954 0-3.329-1.042-7.38-4.888-5.919-5.62-14.863-14.112-32.62-14.112-16.822 0-26.446 7.535-33.474 13.036-5.006 3.919-7.792 5.964-11.525 5.964-3.81 0-6.199-1.477-10.819-4.548-5.999-3.989-14.214-9.452-28.181-9.452-19.91 0-35.075 12.158-42.701 34.235-2.609 7.552-3.933 15.056-4.605 20.765h-57.692c-5.523 0-10 4.477-10 10v40c0 27.57 22.429 50 49.999 50h30v80h-20v-30c0-5.523-4.477-10-10-10h-39.999c-5.523 0-10 4.477-10 10v34.892c-43.168 31.995-63.939 71.425-73.8 99.269-11.072 31.261-11.199 54.85-11.199 55.839v40c0 16.542 13.458 30 30 30h141.998c16.542 0 30-13.458 30-30v-40c0-5.523-4.477-10-10-10h-36.381c-4.996-11.091-12.882-21.198-23.48-30h2.863c5.523 0 10-4.477 10-10v-30h87.43l-10.431 58.26c-.004.021 0 81.74 0 81.74 0 5.523 4.477 10 10 10h49.999c4.589 0 8.588-3.123 9.701-7.575l8.105-32.425h134.383l8.106 32.425c1.113 4.452 5.112 7.575 9.701 7.575h49.999c5.523 0 10-4.477 10-10 0 0 .015-82.032 0-82.102zm-311.996-352.898c7.924 0 11.976 2.695 17.107 6.106 5.29 3.517 11.872 7.894 21.893 7.894 10.805 0 17.737-5.427 23.854-10.215 6.021-4.714 11.221-8.785 21.145-8.785 9.774 0 13.779 3.802 18.849 8.616 4.873 4.627 10.938 10.384 21.151 10.384 40.439 0 65.842 22.589 69.532 61h-37.99l-22.062-35.3c-1.828-2.924-5.032-4.7-8.48-4.7h-152.135c1.892-13.266 7.924-35 27.136-35zm-94.998 85v-30h214.455l12.5 20h-31.957c-5.523 0-10 4.477-10 10s4.477 10 10 10h139.998v10c0 5.514-4.486 10-10 10h-294.997c-16.542 0-29.999-13.458-29.999-30zm79.999 50h30v80h-30zm-79.999 60h20v120h-20zm56.999 190h20v30c0 5.514-4.486 10-10 10h-141.998c-5.514 0-10-4.486-10-10v-30h20v10c0 5.523 4.477 10 10 10h101.999c5.377 0 9.749-4.246 9.978-9.567.013-.109.021-10.433.021-10.433zm-20.928 0h-81.071v-10c0-5.523-4.477-10-10-10h-29.225c2.621-22.006 14.106-76.099 64.225-119.487v79.487c0 4.367 2.804 8.071 6.706 9.433.047.018.079.036.131.053.462.154 42.44 14.575 49.234 50.514zm3.928-110v-40h98.018l-7.059 40zm346.996 150h-32.192l-8.106-32.425c-1.113-4.452-5.112-7.575-9.701-7.575h-149.999c-4.589 0-8.588 3.123-9.701 7.575l-8.106 32.425h-32.192v-60h249.997z"/><path d="m273.996 341c0 16.542 13.458 30 30 30s30-13.458 30-30-13.458-30-30-30-30 13.458-30 30zm40 0c0 5.514-4.486 10-10 10s-10-4.486-10-10 4.486-10 10-10 10 4.486 10 10z"/><path d="m353.995 341c0 16.542 13.458 30 30 30s30-13.458 30-30-13.458-30-30-30-30 13.458-30 30zm40 0c0 5.514-4.486 10-10 10s-10-4.486-10-10 4.486-10 10-10 10 4.486 10 10z"/><circle cx="457.546" cy="319.56" r="10"/></g></svg>