<svg id="Capa_1" enable-background="new 0 0 512 512" height="512" viewBox="0 0 512 512" width="512" xmlns="http://www.w3.org/2000/svg"><g><path d="m482 33.5h-80c-16.542 0-30 13.458-30 30v83.43c0 6.6 1.28 13.04 3.81 19.13 2.521 6.1 6.17 11.56 10.84 16.23l30.35 30.35v23.86h-20v-11.5c0-3.788-2.14-7.25-5.528-8.944l-34.472-17.236v-14.82c0-5.523-4.478-10-10-10h-40c-5.522 0-10 4.477-10 10h-157c0-5.523-4.477-10-10-10h-40c-5.523 0-10 4.477-10 10v14.82l-34.472 17.236c-3.388 1.694-5.528 5.156-5.528 8.944v11.5h-10c-16.542 0-30 13.458-30 30s13.458 30 30 30h10v11.5c0 3.788 2.14 7.25 5.528 8.944l34.472 17.236v14.82c0 5.523 4.477 10 10 10h40c5.523 0 10-4.477 10-10h20v69.5h-30c-5.523 0-10 4.477-10 10v40c0 5.523 4.477 10 10 10h177c5.522 0 10-4.477 10-10v-40c0-5.523-4.478-10-10-10h-30v-69.5h20c0 5.523 4.478 10 10 10h40c5.522 0 10-4.477 10-10v-14.82l34.472-17.236c3.388-1.694 5.528-5.156 5.528-8.944v-11.5h50c8.01 0 15.55-3.12 21.21-8.79 5.67-5.66 8.79-13.19 8.79-21.21v-13.65c0-5.52-4.49-10-10-10s-10 4.48-10 10v13.65c-.01 5.5-4.5 9.99-10 10h-10v-68c0-2.67-1.04-5.18-2.931-7.07l-33.279-33.29c-5.67-5.66-8.79-13.2-8.79-21.21v-53.43h20v53c0 2.63 1.069 5.21 2.93 7.07l23.521 23.53c1.89 1.88 4.399 2.92 7.069 2.92s5.19-1.04 7.08-2.92c3.891-3.9 3.891-10.25 0-14.15l-20.6-20.59v-48.86h50c16.542 0 30-13.458 30-30s-13.458-30-30-30zm-452 243c-5.514 0-10-4.486-10-10s4.486-10 10-10h10v20zm30 25.32v-70.64l20-10v90.64zm40 37.18v-145h20v145zm197 119.5h-157v-20h157zm-40-40h-77v-69.5h77zm-117-89.5v-125h157v125zm197 10h-20v-145h20zm40-37.18-20 10v-90.64l20 10zm20-45.32h20v20h-20zm85-183h-90v-10c0-5.514 4.486-10 10-10h80c5.514 0 10 4.486 10 10s-4.486 10-10 10z"/><circle cx="467" cy="207.85" r="10"/></g></svg>