<svg id="Capa_1" enable-background="new 0 0 512 512" height="512" viewBox="0 0 512 512" width="512" xmlns="http://www.w3.org/2000/svg"><g><circle cx="382" cy="402" r="10"/><path d="m502 172h-30v-162c0-5.523-4.478-10-10-10h-452c-5.522 0-10 4.477-10 10v492c0 5.523 4.478 10 10 10h372c2.63 0 5.21-1.07 7.069-2.93 1.86-1.86 2.931-4.44 2.931-7.07v-55c0-5.51-4.49-10-10-10s-10 4.49-10 10v45h-247v-180h247v45c0 5.51 4.49 10 10 10 5.52 0 10-4.49 10-10v-45h110c5.522 0 10-4.477 10-10v-120c0-5.523-4.478-10-10-10zm-397 320h-85v-472h85zm178.517-209.095c-5.7 5.865-13.341 9.095-21.517 9.095h-59.521c-5.586 0-10.284-4.318-10.473-9.625-.098-2.749.895-5.348 2.796-7.317 1.902-1.971 4.967-3.083 7.706-3.083 13.855-1.416 26.273-9.958 32.365-22.806 4.994-10.535 16.41-17.15 28.007-17.15 15.635.657 28.66 13.443 29.107 29.095.235 8.191-2.774 15.93-8.47 21.791zm48.483 9.095h-30.007c6.793-9.011 10.315-19.965 9.987-31.458-.746-26.098-21.757-47.4-47.831-48.497-20.167-.839-38.722 10.362-47.348 28.555-3.008 6.344-8.748 10.583-15.412 11.406-7.983.158-15.413 3.397-20.977 9.163-5.705 5.911-8.686 13.694-8.394 21.917.111 3.125.702 6.117 1.695 8.915h-48.713v-126.001h207zm-69.12-205.981c15.635.657 28.66 13.443 29.107 29.095.234 8.191-2.774 15.93-8.471 21.792-5.699 5.864-13.34 9.094-21.516 9.094h-59.521c-5.586 0-10.284-4.318-10.473-9.625-.098-2.749.895-5.348 2.796-7.317 1.902-1.971 4.967-3.083 7.706-3.083 13.855-1.416 26.273-9.958 32.365-22.806 4.994-10.536 16.41-17.15 28.007-17.15zm69.12 59.981h-30.007c6.793-9.011 10.315-19.965 9.987-31.458-.746-26.098-21.757-47.4-47.831-48.497-20.167-.841-38.722 10.362-47.348 28.555-3.008 6.344-8.748 10.583-15.412 11.406-7.983.158-15.413 3.397-20.977 9.163-5.705 5.911-8.686 13.694-8.394 21.917.111 3.125.702 6.117 1.695 8.915h-48.713v-126.001h207zm40 146h-20v-272h20zm20-232h20v20h-20zm0 172h20v20h-20zm60 60h-60v-20h30c5.522 0 10-4.477 10-10v-40c0-5.523-4.478-10-10-10h-30v-112h30c5.522 0 10-4.477 10-10v-40c0-5.523-4.478-10-10-10h-30v-20h60zm40 0h-20v-100h20z"/><path d="m70 172h-20c-5.522 0-10 4.477-10 10s4.478 10 10 10h10v100h-10c-5.522 0-10 4.477-10 10s4.478 10 10 10h20c5.522 0 10-4.477 10-10v-120c0-5.523-4.478-10-10-10z"/><path d="m155 432c-5.522 0-10 4.477-10 10v20c0 5.523 4.478 10 10 10h187c5.522 0 10-4.477 10-10v-20c0-5.523-4.478-10-10-10s-10 4.477-10 10v10h-167v-10c0-5.523-4.478-10-10-10z"/><circle cx="248.5" cy="422" r="10"/><path d="m352 362c0-5.523-4.478-10-10-10s-10 4.477-10 10v10h-167v-10c0-5.523-4.478-10-10-10s-10 4.477-10 10v20c0 5.523 4.478 10 10 10h187c5.522 0 10-4.477 10-10z"/><circle cx="248.5" cy="342" r="10"/><circle cx="262" cy="262" r="10"/><circle cx="262" cy="116" r="10"/></g></svg>