<svg id="Capa_1" enable-background="new 0 0 512 512" height="512" viewBox="0 0 512 512" width="512" xmlns="http://www.w3.org/2000/svg"><g><circle cx="408.5" cy="373.71" r="10"/><path d="m409.71 8.79c-5.66-5.67-13.2-8.79-21.21-8.79h-50c-8.01 0-15.55 3.12-21.21 8.79-5.67 5.66-8.79 13.19-8.79 21.21v50h-80c-5.52 0-10 4.48-10 10v10h-115c-5.52 0-10 4.48-10 10v40c0 5.52 4.48 10 10 10h64.29l-63.03 63.03c-1.88 1.88-2.93 4.42-2.93 7.07 0 2.66 1.05 5.2 2.93 7.08l28.28 28.28c1.95 1.95 4.51 2.93 7.07 2.93s5.12-.98 7.07-2.93l85.46-85.46h75.86v232c0 13.5 2.65 26.6 7.86 38.93 5.04 11.9 12.25 22.6 21.43 31.78s19.88 16.39 31.78 21.43c12.33 5.21 25.43 7.86 38.93 7.86 2.63 0 5.21-1.07 7.07-2.93s2.93-4.44 2.93-7.07v-83.29c0-5.51-4.49-10-10-10s-10 4.49-10 10v72.67c-17.74-2.21-33.84-10.09-46.57-22.81-15.1-15.12-23.43-35.21-23.43-56.57v-232h70v148.71c0 5.52 4.49 10 10 10s10-4.48 10-10v-298.71c0-8.02-3.12-15.55-8.79-21.21zm-81.21 21.21c.01-5.5 4.5-9.99 10-10h50c5.5.01 9.99 4.5 10 10v50h-70zm-215 110v-20h105v20zm26.61 104.25-14.14-14.15 70.1-70.1h22.43v5.86zm98.39-84.25v-60h160v60z"/><circle cx="268.5" cy="130" r="10"/></g></svg>