<svg id="Capa_1" enable-background="new 0 0 512 512" height="512" viewBox="0 0 512 512" width="512" xmlns="http://www.w3.org/2000/svg"><g><circle cx="456.961" cy="345.68" r="10"/><path d="m467.88 383.14c-2.08-1.88-4.87-2.8-7.68-2.52-2.66.26-5.051 1.54-6.75 3.6-1.69 2.06-2.471 4.66-2.221 7.31v.02c2.351 23.78 4.771 47.54 4.771 48.92-.01 13.71-5.38 26.64-15.15 36.41-9.77 9.75-22.689 15.11-36.39 15.12-1.61 0-3.26-.08-4.891-.23-1.1-.14-27.439-3.47-57.81-6.779-18.18-1.98-34.18-3.561-47.55-4.69-17.17-1.45-29.67-2.15-38.21-2.15s-21.04.7-38.21 2.15c-42.75 3.62-99.08 10.68-105.36 11.47-1.63.15-3.28.23-4.899.23-13.7 0-26.62-5.37-36.391-15.12-9.76-9.771-15.14-22.7-15.149-36.41 0-1.37 4.159-41.41 7.47-76.99 4.85-52.35 7.32-88.52 7.33-107.48-.01-18.96-2.48-55.12-7.33-107.48-3.2-34.381-7.46-75.621-7.46-76.991 0-13.72 5.38-26.65 15.14-36.42 9.77-9.74 22.7-15.11 36.39-15.11 1.63 0 31.64 3.63 62.71 7.01 18.199 1.98 34.199 3.56 47.55 4.69 17.13 1.44 29.63 2.15 38.21 2.15s21.08-.71 38.21-2.15c29.625-2.508 65.792-6.672 87.146-9.236 10.483-1.259 21.494-2.464 23.114-2.464 13.69 0 26.61 5.37 36.38 15.11 9.76 9.77 15.141 22.7 15.15 36.42 0 5.762-1 11.93-1.825 19.863-1.422 13.694-3.527 34.478-5.635 57.127-4.851 52.36-7.32 88.52-7.33 107.48 0 10.23.7 25.1 2.14 45.45.37 5.21 4.692 9.342 10.32 9.28 3.291-.188 5.46-1.42 7.21-3.43 1.75-2.02 2.61-4.6 2.42-7.26-1.37-19.3-2.1-34.52-2.09-44.04-.021-24.03 4.53-76.49 7.25-105.63 1.5-16.15 3.18-33.32 5-51.02 1.14-11.05 2.54-22.1 2.54-27.82 0-9.65-1.91-19.02-5.65-27.84-3.62-8.51-8.78-16.16-15.359-22.73-6.58-6.56-14.221-11.72-22.74-15.33-8.812-3.73-18.161-5.62-27.781-5.63-2.28 0-14.74 1.31-24.39 2.48-16.2 1.95-40.49 4.77-64.25 7.13-19.42 1.94-45.54 4.24-59.7 4.24h-.22c-7.761 0-20.351-.72-36.431-2.08-23.16-1.96-50.399-4.96-69.18-7.13-11.099-1.28-40.459-4.64-42.769-4.64-9.631.01-18.98 1.9-27.79 5.63-8.511 3.61-16.16 8.77-22.73 15.33-6.58 6.57-11.75 14.22-15.36 22.73-3.74 8.82-5.64 18.19-5.65 27.84 0 1.95 1.399 16.75 2.54 27.82 2.1 20.47 5.14 51.12 7.67 80.97 2.1 24.63 4.59 57.75 4.58 75.68.02 24.06-4.53 76.51-7.25 105.63-1.5 16.19-7.11 71.14-7.271 72.62l-.029.29c-.16 1.95-.24 3.95-.24 5.93 0 9.65 1.91 19.01 5.649 27.83 3.61 8.51 8.78 16.16 15.36 22.73 6.57 6.569 14.22 11.729 22.73 15.329 8.81 3.74 18.159 5.631 27.79 5.641 2.279 0 7.239-.37 7.239-.37.7-.09 57.71-6.89 81.4-9.24 19.41-1.939 45.62-4.24 59.81-4.24 7.78 0 20.471.721 36.54 2.08 23.181 1.96 50.41 4.96 69.181 7.13 10.859 1.25 35.859 4.311 35.859 4.311 2.29.22 4.61.33 6.9.33 9.63-.01 18.979-1.91 27.79-5.641 8.51-3.6 16.16-8.76 22.74-15.329 6.569-6.57 11.739-14.221 15.359-22.73 3.74-8.82 5.641-18.18 5.65-27.83 0-1.97-3.53-37.42-4.86-50.89-.247-2.481-1.408-4.771-3.257-6.441z"/><path d="m425.907 49.801c-6.45-6.363-15.484-9.504-24.502-8.644-1.091.139-109.665 13.885-145.405 13.885s-144.314-13.746-145.405-13.885c-9.026-.858-18.052 2.281-24.502 8.644-6.448 6.359-9.712 15.318-8.978 24.343.148 1.364 14.823 137.069 14.823 181.856s-14.675 180.492-14.823 181.856c-.734 9.025 2.53 17.984 8.978 24.344 6.451 6.362 15.479 9.5 24.503 8.643 1.091-.139 109.664-13.885 145.404-13.885 29.713 0 109.765 9.501 136.547 12.785 5.433.666 10.963 1.256 11.933 1.256 7.993 0 15.674-3.124 21.428-8.799 6.447-6.36 9.712-15.319 8.978-24.344-.147-1.364-14.822-137.069-14.822-181.856s14.675-180.492 14.822-181.856c.733-9.025-2.531-17.984-8.979-24.343zm-14.045 398.16c-2.228 2.197-5.155 3.259-8.273 3.001-6.6-.837-110.985-14.004-147.589-14.004s-140.989 13.167-147.589 14.004c-3.122.256-6.046-.805-8.273-3.001-2.229-2.199-3.332-5.12-3.11-8.235.815-7.522 14.91-138.219 14.91-183.726s-14.095-176.203-14.911-183.725c-.221-3.116.881-6.036 3.11-8.235 2.229-2.198 5.16-3.266 8.274-3.001 6.612.838 110.988 14.003 147.589 14.003s140.977-13.165 147.588-14.004c3.108-.264 6.046.803 8.274 3.001 2.229 2.199 3.331 5.12 3.11 8.235-.815 7.522-14.91 138.218-14.91 183.725s14.095 176.203 14.91 183.726c.222 3.116-.88 6.037-3.11 8.236z"/><path d="m256 288c-16.542 0-30 13.458-30 30s13.458 30 30 30 30-13.458 30-30-13.458-30-30-30zm0 40c-5.514 0-10-4.486-10-10s4.486-10 10-10 10 4.486 10 10-4.486 10-10 10z"/><path d="m366.855 306.425-1.059.635c.13-2.298.203-4.611.203-6.943 0-44.012-21.996-70.044-41.159-87.806-8.608-7.979-14.639-16.327-18.304-25.572l58.608-35.165c4.736-2.841 6.271-8.984 3.431-13.72-2.842-4.736-8.985-6.273-13.72-3.43l-52.599 31.559c-.144-3.235.388-12.772.517-14.159 1.026-11.014 2.433-26.099-9.921-39.641-9.706-10.64-22.104-16.267-35.955-16.185-16.185.06-30.532 12.704-37.644 20.236-20.071 21.256-38.521 51.251-51.948 84.459-.608 1.504-1.189 3.014-1.774 4.523l-28.677 17.206c-4.736 2.841-6.271 8.984-3.431 13.72 1.875 3.125 5.188 4.856 8.585 4.856 1.751 0 3.524-.46 5.135-1.427l8.689-5.213c-6.404 22.942-9.832 45.519-9.832 65.76 0 21.844 5.77 42.293 15.783 59.751l-30.928 18.557c-4.736 2.841-6.271 8.984-3.431 13.72 1.875 3.125 5.188 4.857 8.585 4.857 1.751 0 3.524-.461 5.135-1.427l32.067-19.241c4.794 5.771 10.122 11.036 15.901 15.714l-19.362 11.94c-4.701 2.898-6.161 9.06-3.263 13.761 1.891 3.065 5.166 4.752 8.521 4.752 1.79 0 3.604-.48 5.239-1.489l27.337-16.858c14.62 7.579 31.053 11.845 48.416 11.845 49.827 0 92.015-35.085 105.491-83.033l15.653-9.392c4.736-2.841 6.271-8.984 3.431-13.72-2.842-4.736-8.986-6.273-13.72-3.43zm-22.832 13.7-42.168 25.301c-4.736 2.841-6.271 8.984-3.431 13.72 1.875 3.125 5.188 4.856 8.585 4.856 1.751 0 3.524-.46 5.135-1.427l20.543-12.326c-15.854 27.426-44.298 45.751-76.687 45.751-9.649 0-18.945-1.633-27.666-4.641l11.915-7.347c4.701-2.899 6.161-9.06 3.263-13.761-2.898-4.699-9.058-6.161-13.761-3.263l-22.361 13.79c-6.153-4.224-11.792-9.225-16.798-14.871l15.553-9.332c4.736-2.841 6.271-8.984 3.431-13.72-2.842-4.736-8.985-6.273-13.72-3.43l-16.928 10.157c-8.202-14.451-12.928-31.38-12.928-49.464 0-25.169 5.887-53.776 15.856-81.37l30.288-18.173c4.736-2.841 6.271-8.984 3.431-13.72-2.842-4.736-8.986-6.272-13.72-3.43l-6.709 4.026c10.825-21.984 24.058-42.031 38.649-57.484 8.113-8.592 16.994-13.944 23.177-13.967h.113c8.08 0 15.143 3.251 20.992 9.664 6.086 6.672 5.782 13.583 4.783 24.307-.143 1.525-.281 3.028-.389 4.503-2.099 28.898 7.313 52.615 28.773 72.506 17.187 15.929 34.756 37.076 34.756 73.138 0 6.86-.685 13.551-1.977 20.007z"/><path d="m276.075 228.355c-2.842-4.736-8.985-6.273-13.72-3.43l-65 39c-4.736 2.841-6.271 8.984-3.431 13.72 1.875 3.125 5.188 4.856 8.585 4.856 1.751 0 3.524-.46 5.135-1.427l65-39c4.737-2.841 6.272-8.983 3.431-13.719z"/></g></svg>