<svg id="Capa_1" enable-background="new 0 0 512 512" height="512" viewBox="0 0 512 512" width="512" xmlns="http://www.w3.org/2000/svg"><g><circle cx="451.191" cy="389.76" r="10"/><path d="m460.43 343.08c-.28-1.431-.59-2.86-.91-4.261-3.58-15.39-9.95-30-18.95-43.42-8.56-12.77-19.25-24.1-31.76-33.689-25-19.141-55.21-29.69-85.05-29.71-9.26 0-18.4 1.03-27.18 3.05-13.08 2.98-25.221 7.69-36.11 13.98-9.52 5.51-18.34 12.39-26.2 20.439-13.12 13.41-22.1 27.98-30.02 40.84-.93 1.5-1.79 2.91-2.67 4.311-5.65 9.13-17.82 26.819-35.85 42.72-18.35 16.22-37.75 26.25-57.65 29.82-2.94.569-6.49.689-10.6.819-3.75.12-8.01.261-12.5.801-5.58.71-10.38 2.069-14.66 4.159-5.23 2.53-10.02 6.431-13.85 11.271-6.14 7.8-7.45 16.149-7.47 21.77 0 2.44.26 4.78.76 6.96.96 4.13 2.26 7.641 3.97 10.721 2.42 4.399 6.01 8.26 10.69 11.46 3.68 2.55 13.03 7.439 13.57 7.729 13.7 7.13 29.35 13.82 46.52 19.88 16.84 5.94 34.8 11.16 53.39 15.511 18.66 4.369 37.54 7.77 56.12 10.109 19.07 2.4 37.47 3.62 54.69 3.65 21.229-.01 40.189-1.891 56.35-5.601 10.76-2.47 21.2-5.949 31.061-10.35 9.64-4.31 18.81-9.54 27.239-15.54 8.33-5.92 16.021-12.65 22.86-19.99 6.811-7.319 12.82-15.3 17.86-23.729 1.37-2.3 1.77-4.98 1.12-7.58-.65-2.59-2.271-4.771-4.57-6.141-1.55-.93-3.32-1.42-5.12-1.42-3.51 0-6.8 1.87-8.59 4.87-15.345 25.65-40.724 45.495-71.017 55.982-10.962-10.153-39.676-39.933-57.332-87.518-15.935-42.922-18.757-89.121-8.414-137.397 3.502-1.153 7.127-2.171 10.902-3.046 7.32-1.69 14.96-2.54 22.7-2.54h.08c25.44 0 51.3 9.08 72.81 25.59 22.07 16.92 37.48 40.27 43.381 65.74.279 1.22.55 2.45.789 3.649.921 4.66 6.097 8.479 10.77 7.956 2.702-.31 5.861-2.125 7.35-4.345 1.481-2.22 2.011-4.89 1.491-7.51zm-347.66 113.846c-9.07-3.726-17.633-7.67-25.51-11.806-6.91-3.57-11.33-6.03-13.5-8.04-1.14-1.03-1.836-1.918-2.55-3.141-1.897-3.252-2.21-7.06-2.21-7.96-.03-3.3 1.2-6.97 3.12-9.33 2.11-2.63 4.26-4.399 6.96-5.729 3.23-1.601 7.439-2.48 13.65-2.74 4.688-.196 13.81-.45 18.89-1.34 23.57-4.26 46.23-15.87 67.35-34.51 8.2-7.24 16.05-15.45 23.34-24.4 5.96-7.32 17.59-24.91 18.26-25.99 8.08-13.13 16.43-26.71 27.98-38.47 6.019-6.105 12.398-11.241 19.292-15.53-7.398 45-3.977 88.312 10.213 129.08-7.315 9.651-30.564 34.665-69.955 26.203-33.982-7.294-59.232 3.758-74.429 14.314-9.864 6.852-16.838 14.372-20.901 19.389zm173.609-39.031c14.932 33.088 34.206 56.857 47.106 70.475-13.086 2.409-28.081 3.63-44.705 3.63h-.561c-48.951 0-107.249-10.688-155.537-27.535 11.086-11.608 34.838-29.498 71.219-21.688 32.47 6.972 56.282-4.03 70.544-14.486 4.688-3.436 8.662-7.037 11.934-10.396z"/><path d="m462 0h-412c-27.57 0-50 22.43-50 50v86c0 27.57 22.43 50 50 50h157.198l42.158 37.474c1.895 1.685 4.269 2.526 6.644 2.526s4.749-.842 6.644-2.526l42.158-37.474h157.198c27.57 0 50-22.43 50-50v-86c0-27.57-22.43-50-50-50zm30 136c0 16.542-13.458 30-30 30h-161c-2.449 0-4.813.898-6.644 2.526l-38.356 34.094-38.356-34.094c-1.831-1.628-4.195-2.526-6.644-2.526h-161c-16.542 0-30-13.458-30-30v-86c0-16.542 13.458-30 30-30h412c16.542 0 30 13.458 30 30z"/><path d="m281 55h-50c-5.523 0-10 4.478-10 10v50c0 5.522 4.477 10 10 10h50c5.522 0 10-4.478 10-10v-50c0-5.522-4.478-10-10-10zm-10 50h-30v-30h30z"/><path d="m371 55h-50c-5.522 0-10 4.478-10 10v50c0 5.522 4.478 10 10 10h50c5.522 0 10-4.478 10-10v-50c0-5.522-4.478-10-10-10zm-10 50h-30v-30h30z"/><path d="m461 55h-50c-5.522 0-10 4.478-10 10v50c0 5.522 4.478 10 10 10h50c5.522 0 10-4.478 10-10v-50c0-5.522-4.478-10-10-10zm-10 50h-30v-30h30z"/><path d="m101 55h-50c-5.523 0-10 4.478-10 10v50c0 5.522 4.477 10 10 10h50c5.523 0 10-4.478 10-10v-50c0-5.522-4.477-10-10-10zm-10 50h-30v-30h30z"/><path d="m191 55h-50c-5.523 0-10 4.478-10 10v50c0 5.522 4.477 10 10 10h50c5.523 0 10-4.478 10-10v-50c0-5.522-4.477-10-10-10zm-10 50h-30v-30h30z"/><path d="m332.323 336.455c-4.953 7.928-6.523 17.309-4.421 26.416 2.103 9.108 7.626 16.853 15.553 21.806 5.632 3.52 11.997 5.331 18.478 5.33 2.641 0 5.302-.301 7.938-.909 9.108-2.103 16.853-7.626 21.806-15.553 4.953-7.928 6.523-17.309 4.421-26.416-2.103-9.108-7.626-16.853-15.553-21.806s-17.309-6.521-26.416-4.421c-9.108 2.103-16.853 7.626-21.806 15.553zm16.961 10.599c2.122-3.396 5.44-5.763 9.343-6.663h.001c1.13-.262 2.27-.391 3.401-.391 2.776 0 5.504.776 7.917 2.284 3.396 2.122 5.763 5.44 6.663 9.344.901 3.902.229 7.922-1.894 11.318s-5.44 5.763-9.344 6.663c-3.901.904-7.921.229-11.318-1.894-3.396-2.122-5.763-5.44-6.663-9.344-.901-3.901-.228-7.921 1.894-11.317z"/></g></svg>