<svg id="Capa_1" enable-background="new 0 0 512 512" height="512" viewBox="0 0 512 512" width="512" xmlns="http://www.w3.org/2000/svg"><g><path d="m448.07 2.93c-1.86-1.86-4.44-2.93-7.07-2.93h-370c-2.63 0-5.21 1.07-7.07 2.93s-2.93 4.44-2.93 7.07v492c0 2.63 1.07 5.21 2.93 7.07s4.44 2.93 7.07 2.93h370c2.63 0 5.21-1.07 7.07-2.93s2.93-4.44 2.93-7.07v-77c0-5.51-4.49-10-10-10s-10 4.49-10 10v67h-350v-472h350v315c0 5.51 4.49 10 10 10s10-4.49 10-10v-325c0-2.63-1.07-5.21-2.93-7.07z"/><circle cx="441" cy="380" r="10"/><path d="m316 370c-27.57 0-50 22.43-50 50s22.43 50 50 50 50-22.43 50-50-22.43-50-50-50zm0 80c-16.542 0-30-13.458-30-30s13.458-30 30-30 30 13.458 30 30-13.458 30-30 30z"/><path d="m231.128 219.624c6.466 6.695 15.24 10.376 24.718 10.376h.128c9.4-.033 18.202-3.677 24.782-10.26 25.794-25.799 45.244-72.976 45.244-109.74 0-38.598-31.402-70-70-70s-70 31.402-70 70c0 26.767 13.995 42.452 26.188 53.125 7.912 6.927 11.777 17.394 10.087 27.317-1.897 11.13 1.165 21.221 8.853 29.182zm-25.128-109.624c0-27.57 22.43-50 50-50s50 22.43 50 50c0 31.516-17.301 73.509-39.387 95.6-2.822 2.823-6.625 4.386-10.708 4.4-.019 0-.037 0-.056 0-4.005 0-7.674-1.516-10.335-4.271-3.222-3.335-4.341-7.125-3.523-11.928 2.85-16.729-3.522-34.25-16.629-45.724-10.056-8.804-19.362-19.509-19.362-38.077z"/><path d="m256 140c16.542 0 30-13.458 30-30s-13.458-30-30-30-30 13.458-30 30 13.458 30 30 30zm0-40c5.514 0 10 4.486 10 10s-4.486 10-10 10-10-4.486-10-10 4.486-10 10-10z"/><path d="m356 290h-78c-5.51 0-10 4.49-10 10s4.49 10 10 10h78c5.51 0 10-4.49 10-10s-4.49-10-10-10z"/><path d="m233 290h-77c-5.51 0-10 4.49-10 10s4.49 10 10 10h77c5.51 0 10-4.49 10-10s-4.49-10-10-10z"/><path d="m301 260c0-5.523-4.477-10-10-10h-70c-5.523 0-10 4.477-10 10s4.477 10 10 10h70c5.523 0 10-4.477 10-10z"/><path d="m356 330h-77c-5.523 0-10 4.477-10 10s4.477 10 10 10h77c5.523 0 10-4.477 10-10s-4.477-10-10-10z"/><path d="m240.888 333.854c-3.395-4.357-9.679-5.135-14.035-1.742l-32.353 25.211-32.354-25.211c-4.356-3.394-10.64-2.615-14.035 1.742s-2.615 10.64 1.742 14.035l38.5 30c1.807 1.408 3.977 2.112 6.146 2.112s4.339-.704 6.146-2.112l38.5-30c4.358-3.396 5.138-9.679 1.743-14.035z"/><path d="m174.5 450c-5.523 0-10 4.477-10 10s4.477 10 10 10h40c5.523 0 10-4.477 10-10s-4.477-10-10-10z"/><circle cx="316" cy="420" r="10"/></g></svg>