<svg id="Capa_1" enable-background="new 0 0 512 512" height="512" viewBox="0 0 512 512" width="512" xmlns="http://www.w3.org/2000/svg"><g><circle cx="436" cy="275.859" r="10"/><path d="m443.07 102.93c-1.86-1.86-4.44-2.93-7.07-2.93-13.34 0-25.9-5.21-35.36-14.641-9.44-9.46-14.64-22.019-14.64-35.359 0-2.63-1.07-5.21-2.93-7.07s-4.44-2.93-7.07-2.93h-80c0-22.056-17.944-40-40-40s-40 17.944-40 40h-80c-2.63 0-5.21 1.069-7.07 2.93-1.86 1.86-2.93 4.44-2.93 7.07 0 13.34-5.21 25.899-14.64 35.359-9.46 9.431-22.02 14.641-35.36 14.641-2.63 0-5.21 1.069-7.07 2.93-1.86 1.86-2.93 4.44-2.93 7.07v332c0 2.63 1.07 5.21 2.93 7.069 1.86 1.861 4.44 2.931 7.07 2.931 13.34 0 25.9 5.21 35.36 14.64 9.43 9.46 14.64 22.02 14.64 35.36 0 2.63 1.07 5.21 2.93 7.069 1.86 1.86 4.44 2.931 7.07 2.931h240c2.63 0 5.21-1.07 7.07-2.931 1.86-1.859 2.93-4.439 2.93-7.069 0-13.34 5.2-25.9 14.64-35.36 9.46-9.43 22.02-14.64 35.36-14.64 2.63 0 5.21-1.07 7.07-2.931 1.86-1.859 2.93-4.439 2.93-7.069v-121.141c0-5.52-4.49-10-10-10s-10 4.48-10 10v111.851c-7.53 1.08-14.78 3.359-21.56 6.79-6.63 3.359-12.67 7.729-17.94 13-5.27 5.27-9.64 11.31-13 17.939-3.43 6.78-5.71 14.03-6.79 21.561h-221.42c-1.08-7.53-3.36-14.78-6.8-21.561-3.35-6.63-7.72-12.67-12.99-17.939-5.28-5.271-11.31-9.641-17.94-13-6.78-3.431-14.03-5.71-21.56-6.79v-313.42c7.53-1.08 14.78-3.36 21.56-6.79 6.63-3.36 12.66-7.73 17.94-13 5.27-5.271 9.64-11.311 12.99-17.94 3.44-6.779 5.72-14.029 6.8-21.56h221.42c1.08 7.53 3.36 14.78 6.79 21.56 3.36 6.63 7.73 12.66 13 17.931 5.28 5.279 11.31 9.649 17.94 13 6.78 3.439 14.03 5.72 21.56 6.8v111.569c0 5.511 4.49 10 10 10s10-4.489 10-10v-120.86c0-2.63-1.07-5.21-2.93-7.07zm-207.07-62.93c0-11.028 8.972-20 20-20s20 8.972 20 20z"/><path d="m366 316.118c0-30.147-7.399-63.219-21.396-95.638-12.992-30.089-31.408-58.587-51.858-80.244-7.112-7.532-21.459-20.176-37.644-20.236-.062 0-.123 0-.186 0-13.742 0-26.108 5.595-35.769 16.186-12.354 13.543-10.77 30.675-9.744 41.689 1.701 23.419-5.349 34.775-22.244 50.437-19.162 17.761-41.159 43.793-41.159 87.806 0 63.898 49.346 115.882 110 115.882s110-51.984 110-115.882zm-136.666-139.896c-1-10.724-1.498-19.886 4.589-26.558 5.85-6.414 12.913-9.664 20.995-9.664h.11c6.183.023 15.063 5.375 23.177 13.967 19.473 20.624 35.865 46.376 47.657 73.555-26.213 5.319-47.787 20.311-62.91 43.914-1.707 2.664-3.252 5.316-4.649 7.914-.994-2.807-2.112-5.671-3.367-8.538-9.446-21.571-23.238-35.707-40.48-41.774 10.553-12.499 16.609-28.973 14.878-52.816zm36.666 157.778c0 5.514-4.486 10-10 10s-10-4.486-10-10 4.486-10 10-10 10 4.486 10 10zm-10 78c-49.626 0-90-43.013-90-95.882 0-33.965 15.585-54.696 31.756-70.302 32.698 2.864 43.692 42.494 46.999 60.379-10.985 4.459-18.755 15.239-18.755 27.805 0 16.542 13.458 30 30 30s30-13.458 30-30c0-12.154-7.27-22.636-17.686-27.345 2.121-6.511 5.81-15.719 11.834-24.982 12.889-19.816 30.735-31.624 53.12-35.184 8.166 23.55 12.731 47.52 12.731 69.629.001 52.869-40.373 95.882-89.999 95.882z"/><path d="m396 221c-5.523 0-10 4.478-10 10v100c0 5.522 4.477 10 10 10s10-4.478 10-10v-100c0-5.522-4.477-10-10-10z"/><path d="m116 221c-5.523 0-10 4.478-10 10v100c0 5.522 4.477 10 10 10s10-4.478 10-10v-100c0-5.522-4.477-10-10-10z"/><path d="m286 100c5.523 0 10-4.478 10-10s-4.477-10-10-10h-60c-5.523 0-10 4.478-10 10s4.477 10 10 10z"/><path d="m226 452c-5.523 0-10 4.478-10 10s4.477 10 10 10h60c5.523 0 10-4.478 10-10s-4.477-10-10-10z"/></g></svg>