<svg id="Capa_1" enable-background="new 0 0 512 512" height="512" viewBox="0 0 512 512" width="512" xmlns="http://www.w3.org/2000/svg"><g><path d="m485.599 216.939c-1.12-1.01-2.31-1.989-3.53-2.89 3.64-3.4 6.83-7.46 9.49-12.05 4.52-7.891 6.92-16.48 6.94-24.83-.06-14.68-2.28-24.7-7.21-32.47-2.66-4.16-6.26-7.46-10.4-9.551-3.87-1.97-8.26-2.97-13.07-2.97h-.05c-10.11.07-19.81 4.13-27.13 7.66-8.2 4.01-17.29 9.49-28.6 17.24-2.2 1.51-3.69 3.779-4.18 6.41-.49 2.619.08 5.279 1.59 7.489 1.86 2.721 4.95 4.34 8.25 4.34 2.02 0 3.97-.6 5.64-1.739 0 0 0 0 .01-.011 10.34-7.09 18.87-12.25 26.06-15.75 7.15-3.529 14.03-5.64 18.26-5.64 1.69.01 3.08.26 4.16.8 1.18.65 2.57 1.66 4.13 5.53 1.65 4.22 2.55 10.85 2.54 18.66.06 6.28-2.83 13.87-7.36 19.35-2.25 2.74-4.85 4.98-7.54 6.45-2.67 1.47-19.77 3.66-31.81 8.021-7.48 2.72-14.58 6.09-21.1 10.029-8.23 4.971-15.62 10.9-21.96 17.62-3.79 4.01-3.6 10.351.41 14.13 1.86 1.761 4.3 2.73 6.86 2.73 2.78 0 5.36-1.11 7.27-3.141 11.56-12.27 25.59-19.04 35.34-22.569 5.55-2.01 17.395-4.6 17.538-4.609 5.698-.339 11.512 2.478 16.012 6.569 4.14 3.67 6.48 8.67 6.34 11.399-.01 5.101-1.33 9.641-3.91 13.5-2.13 3.21-5.03 5.42-6.96 6.181v.01c-2.465 1.013-5.036 2.143-7.816 3.427-7.33 1.418-33.753 6.947-58.864 17.233-2.47 1.01-4.4 2.93-5.43 5.399-1.03 2.46-1.04 5.181-.02 7.65 1.55 3.77 5.18 6.2 9.25 6.2h.01c1.3 0 2.57-.25 3.79-.75 13.94-5.73 28.48-9.86 38.23-12.311 2.13-.54 4.261-1.056 6.381-1.55-.619 3.883-2.052 8.423-5.101 12.9-5.9 8.58-15.77 14.8-30.18 19.029-3.08.891-5.56 3.23-6.64 6.261v.01s0 0-.01.05c-.03.061-2.54 6.811-8.23 13.03-3.15 3.47-6.71 6.21-10.57 8.14-4.83 2.41-10.04 3.58-15.91 3.59-4.45 0-9.25-.71-14.28-2.1.94-6.99 1.41-14.1 1.41-21.11 0-14.979-2.15-30.04-6.38-44.75-3.37-11.729-8.07-23.279-13.97-34.34-2.84-5.319-5.95-10.5-9.24-15.399.2-.08 9.68-4.24 15.12-7.4 2.31-1.34 3.96-3.5 4.64-6.08.69-2.58.32-5.28-1.02-7.59-1.78-3.07-5.1-4.98-8.65-4.98-1.76 0-3.49.471-5.02 1.36-4.45 2.59-8.37 4.54-11.65 5.8-1.677.654-3.158 1.09-4.373 1.36-1.147.255-3.808.241-3.837.23-.011-.005-117.419-50.749-120.722-52.177-2.906-12.957-12.087-46.34-34.148-73.972 7.576-7.146 12.1-17.206 12.1-28 0-19.084-13.405-36.144-30.264-40.454-3.751-10.546-13.672-21.543-32.235-21.543-10.184 0-18.309 4.366-22.89 7.561-4.398-.473-11.396-1.003-17.835-.534-16.143 1.173-29.275 15.517-29.275 31.973 0 6.709 2.224 12.951 6.004 17.985-4.753 3.631-8.575 8.278-11.14 13.608l-16.124 1.226c-5.5.421-9.63 5.24-9.21 10.73.19 2.53 1.32 4.87 3.19 6.59 1.85 1.71 4.26 2.66 6.77 2.66.25 0 11.991-.891 11.991-.891 1.571 13.892 10.646 25.531 23.056 30.719-6.891 15.448-18.262 44.733-24.001 80.573-3.381 21.152-4.314 41.727-2.775 61.152v.002.003.003.002c3.026 38.46 15.674 72.85 37.591 102.214 7.702 10.326 76.302 79.646 76.302 79.646l-20.711 38.584-42.365 3.144c-2.66.199-5.09 1.42-6.83 3.449-1.75 2.021-2.6 4.601-2.4 7.271.39 5.189 4.76 9.25 9.96 9.25.25 0 46.65-3.43 46.65-3.43l25.12 8.029c.99.32 2.02.48 3.05.48 4.36 0 8.19-2.79 9.52-6.95.82-2.55.59-5.26-.63-7.63-1.23-2.37-3.3-4.13-5.84-4.94 0 0 0 0-.01-.01l-15.516-4.959 19.36-36.068c9.634-4.025 34.433-16.362 44.109-39.887l34.663 27.31 11.741 39.364-35.437 2.63c-2.66.2-5.09 1.431-6.84 3.45-1.74 2.021-2.59 4.601-2.39 7.271.19 2.529 1.32 4.87 3.18 6.6 2.04 1.88 4.76 2.83 7.53 2.63l45.9-3.41 25.12 8.04c.99.32 2.01.48 3.05.48 4.36 0 8.19-2.8 9.52-6.96.81-2.54.59-5.25-.64-7.63-1.22-2.37-3.29-4.13-5.84-4.94l-21.936-7.019-11.454-38.4c12.959-2.821 34.408-9.493 54.511-24.89.007-.005.013-.011.02-.017 7.884-6.022 14.954-12.96 21.013-20.62 0 0 .001-.001.001-.002 6.469-8.182 11.85-17.282 16.082-27.134 6.789 1.873 13.403 2.842 19.638 2.842 9.04 0 17.885-2.09 25.485-6.04 8.61-4.47 15.93-11.189 21.76-19.949 1.57-2.38 2.99-4.841 4.2-7.301 8.58-2.88 16.15-6.67 22.49-11.25 5.75-4.17 10.49-8.979 14.1-14.31 5.786-8.504 8.013-17.063 8.715-23.9.202-1.966.275-6.05.265-6.369.58-.25 1.74-.721 1.74-.721 6.15-2.6 11.63-7.26 15.87-13.479 3.35-4.95 7.33-13.25 7.32-24.681-.06-4.909-1.3-9.75-3.68-14.359-2.179-4.241-5.288-8.231-9.219-11.852zm-185.943 12.524c-8.597 10.619-24.284 27.916-44.611 41.347-6.622 4.379-13.309 8.046-19.953 10.957-15.352-16.42-29.701-25.799-42.124-30.97 18.571-16.749 27.052-39.527 30.779-54.146 23.06 9.971 75.909 32.812 75.909 32.812zm-50.168 101.326c-8.703 2.53-25.14 5.217-54.243 3.822-19.481-.926-40.365-11.286-51.975-25.79-4.862-6.06-12.081-18.036-5.792-30.169.679-1.31 1.838-2.806 3.267-4.215 2.286-2.257 11.349-9.426 25.571-9.426 17.709.544 37.719 11.997 56.667 33.146.529.584 19.112 23.238 26.505 32.632zm-174.763-303.815c7.883-.574 17.663.896 17.753.91 3.059.471 6.166-.503 8.411-2.636.056-.053 5.848-5.248 13.111-5.248 11.671 0 13.696 7.708 14.018 11.124.175 5.388 4.583 9.376 9.982 9.376 9.509 0 18.5 10.448 18.5 21.5 0 5.156-2.145 9.962-5.742 13.391-21.722-19.78-48.258-28.742-78.604-26.649-.065.004-.034.002-.002 0-4.587-.943-8.152-4.977-8.152-9.742 0-5.886 5.112-11.618 10.725-12.026zm-19.495 59.635c0-9.663 7.771-17.205 18.485-17.933 2.334-.16 4.636-.24 6.912-.24 21.198 0 39.817 6.95 55.514 20.716-10.854 13.029-23.31 19.962-37.114 20.632-4.89.234-9.269-.369-12.763-1.176-5.22-1.206-16.225-4.27-17.633-4.632-7.695-1.976-13.401-9.013-13.401-17.367zm22.796 40.529c7.349 2.612 20.099 2.69 20.761 2.669 13.819-.411 33.126-5.506 51.064-25.936 18.047 23.347 26.176 51.784 28.928 63.468-27.045 22.417-56.704 33.949-88.244 34.298-15.238.175-27.528-2.46-34.797-4.545 6.088-31.858 16.647-57.63 22.288-69.954zm-25.321 89.873c8.566 2.269 21.439 4.634 36.698 4.634 25.452-.096 63.634-7.072 102.128-38.916 3.336 1.442 7.989 3.453 13.559 5.859-3.197 14.035-12.78 43.256-38.704 56.436-13.159-.14-25.658 3.901-35.258 11.322-32.79-7.917-63.536-6.676-79.967-5.046-.324-11.091.192-22.557 1.544-34.289zm25.355 125.942c-13.523-21.33-22.047-45.354-25.389-71.687 13.146-1.302 38.042-2.517 65.052 2.642-4.511 11.803-3.378 24.742 3.122 37.09-20.735 10.754-34.632 23.185-42.785 31.955zm82.273 88.671-30.262-30.751c10.59-7.086 32.175-16.097 61.994-1.39-4.423 17.259-22.437 27.767-31.732 32.141zm94.996-9.124-27.77-21.88c17.05-8.135 48.34-17.785 71.476 5.509-18.09 11.217-36.149 15.143-43.706 16.371zm59.756-28.574c-17.743-19.332-41.695-26.349-69.893-20.312-14.927 3.194-27.595 9.399-34.81 13.473 0 0-1.958-1.5-2.367-1.737-30.936-17.936-56.178-15.131-71.904-9.62-8.693 3.047-15.486 7.195-20.235 10.726 0 0-19.962-19.673-25.837-26.872 6.4-7.434 20.214-21.102 42.935-32.309 15.554 15.74 38.787 26.245 61.316 27.315 5.875.282 11.322.411 16.372.411 45.397 0 58.634-10.438 61.776-13.935 3.235-3.601 3.428-9 .457-12.821-.704-.906-13.652-17.554-24.334-30.696 4.281-2.099 8.552-4.453 12.794-7.058 6.308 3.107 18.433 9.907 30.204 21.128 21.186 20.196 31.779 45.062 31.516 73.95-2.485 2.927-5.154 5.719-7.99 8.357zm26.249-40.715c-.432 1.244-.878 2.48-1.351 3.698-5.255-22.825-17.149-43.312-35.223-60.335-8.924-8.406-17.922-14.615-25.176-18.928 16.073-12.807 28.418-26.635 35.891-35.912 3.129 4.432 6.893 10.284 10.605 17.335 8.02 15.23 17.58 39.54 17.57 68.87 0 8.398-.78 16.888-2.316 25.272z"/><circle cx="381.259" cy="191.859" r="10"/></g></svg>