<svg id="Capa_1" enable-background="new 0 0 512 512" height="512" viewBox="0 0 512 512" width="512" xmlns="http://www.w3.org/2000/svg"><g><path d="m509.071 311.429-37.071-37.071v-35.858c0-1.96-1.504-5.359-1.51-5.37-.73-1.45-3.29-6.6-5.75-12.311-2.44-5.55-5.11-15.46-5.221-16.3-.63-4.979-5.53-8.689-10.54-8.689-6.063.253-9.99 5.76-9.291 11.229.141 1.13 2.351 10.58 3.49 13.721.87 2.369 1.91 4.97 3.09 7.72h-42.938c1.27-2.72 2.33-5.17 3.25-7.49 1.31-3.36 2.62-7 3.279-10.87.78-4.76 1.69-13.6 1.71-22.84-.01-3.41-.14-6.34-.409-8.94-.351-3.18-.79-5.71-1.851-8.5-2.12-5.38-10.96-23.34-12.66-27.329-4.649-10.86-6.64-19.54-6.649-29.03-.021-17.76 4-33.73 11.319-44.96 3.2-4.931 7.021-8.87 11.061-11.41 3.89-2.43 7.86-3.61 12.12-3.63 4.26.02 8.22 1.2 12.12 3.63 6.199 3.87 11.77 11.02 15.66 20.12 4.399 10.229 6.72 22.77 6.72 36.25 0 1.729-.07 3.49-.2 5.22-.43 5.5 3.7 10.32 9.2 10.74 2.79.22 5.5-.73 7.55-2.62 1.86-1.71 2.99-4.05 3.19-6.58v-.01c.17-2.21.26-4.48.26-6.75-.021-21.83-5.05-41.141-14.54-55.84-4.83-7.44-10.61-13.32-17.2-17.471-6.94-4.38-14.78-6.689-22.68-6.689h-.16c-7.9 0-15.74 2.31-22.68 6.689-4.971 3.141-9.511 7.28-13.5 12.301-3.841 4.84-7.171 10.52-9.9 16.869-2.71 6.311-4.79 13.23-6.19 20.561-1.42 7.47-2.149 15.399-2.149 23.58-.01 15.83 4.71 28.649 8.27 36.91 2.08 4.84 4.24 9.239 6.34 13.489 2.311 4.7 6.266 11.226 6.66 16.53.139 1.865.3 4.24.3 6.87.011 7.5-.85 16.11-1.439 19.57-.16 1.09-.9 3.68-2.15 6.779-1.96 4.98-9.439 19.515-9.432 19.524-.975 1.543-1.548 3.366-1.548 5.327v36.307c-6.007 7.008-21.742 25.264-28.086 31.637-17.854 17.928-41.228 37.056-92.916 37.056s-75.062-19.128-92.913-37.056c-6.345-6.373-22.08-24.629-28.086-31.637v-36.307c0-1.631-.399-3.166-1.091-4.526-.006-.015-.007-.029-.014-.044-3.731-7.262-10.025-21.033-11.03-27.072-1.5-9.009-2.039-25.897-.551-29.715 1.599-4.087 3.571-8.28 5.658-12.72 6.574-13.984 14.027-29.833 14.027-50.923 0-21.547-5.164-41.378-14.54-55.839-10.101-15.58-24.293-24.161-39.96-24.161s-29.859 8.581-39.96 24.161c-9.376 14.461-14.54 34.292-14.54 55.839 0 20.7 7.672 36.296 14.44 50.056 2.34 4.757 4.55 9.25 6.247 13.587 1.487 3.817.949 20.706-.551 29.715-.927 5.566-7.487 18.985-11.849 26.736-.003.005 0 .009-.003.013-.814 1.447-1.284 3.114-1.284 4.893v35.857l-37.071 37.072c-2.843 2.844-3.707 7.113-2.192 10.839.655 1.609 16.488 39.872 55.899 78.385 23.137 22.608 49.658 40.627 78.829 53.553 36.379 16.12 76.933 24.294 120.535 24.294 43.603 0 84.156-8.174 120.536-24.295 29.17-12.926 55.691-30.944 78.828-53.553 39.411-38.513 55.244-76.775 55.899-78.385 1.515-3.725.65-7.995-2.192-10.838zm-112.071-62.929h55v20h-55zm-344-135c0-33.645 15.154-60 34.5-60s34.5 26.355 34.5 60c0 16.622-6.166 29.733-12.127 42.412-2.136 4.541-4.344 9.236-6.186 13.945-4.712 12.047-.597 40.013-.551 40.285.854 5.131 3.467 12.12 6.135 18.357h-42.917c2.883-6.228 5.643-13.147 6.51-18.357.045-.272 4.161-28.238-.551-40.285-2.003-5.122-4.506-10.21-6.927-15.13-6.089-12.379-12.386-25.18-12.386-41.227zm62 135v20h-55v-20zm-60.858 40h66.251c6.528 7.611 21.841 25.348 28.52 32.056 22.209 22.304 50.553 42.944 107.087 42.944s84.878-20.64 107.087-42.944c6.679-6.708 21.992-24.444 28.52-32.056h66.251l5.625 5.625c-22.765 41.989-83.294 124.375-207.483 124.375s-184.719-82.387-207.483-124.375zm387.243 97.848c-48.993 47.877-111.366 72.152-185.385 72.152-73.693 0-135.859-24.074-184.772-71.555-27.94-27.122-43.371-54.593-49.21-66.32l11.812-11.812c11.335 19.727 31 48.095 61.068 73.143 45.038 37.519 99.24 56.544 161.102 56.544 61.861 0 116.064-19.024 161.103-56.544 30.067-25.048 49.731-53.416 61.067-73.143l11.821 11.822c-5.761 11.615-20.924 38.663-48.606 65.713z"/><circle cx="455.039" cy="162.04" r="10"/></g></svg>