<svg id="Capa_1" enable-background="new 0 0 512 512" height="512" viewBox="0 0 512 512" width="512" xmlns="http://www.w3.org/2000/svg"><g><path d="m501.93 256c-8.429 0-14.666-2.756-19.014-8.393 7.16-.097 14.852-1.727 20.168-7.042 11.89-11.892 11.89-29.826 0-41.718-5.993-5.993-14.883-8.917-23.779-7.849-8.716 1.058-16.157 5.702-20.417 12.744-5.379 8.893-5.129 18.603-3.73 25.722-3.428.672-7.042.81-10.241.687.014-1.097.022-2.178.022-3.241 0-5.521-4.49-10-9.999-10-5.51 0-9.999 4.479-9.999 10 0 1.199-.01 2.479-.03 3.779l-86.235 15.79-7.232-33.398 64.671-58.961c-.023-.025-.045-.05 0 0 1.909 1.99 4.609 3.23 7.369 3.23 2.589 0 5.039-.979 6.909-2.77 1.93-1.84 3.03-4.33 3.09-7s-.93-5.21-2.77-7.141c-2.58-2.689-5.309-5.29-8.109-7.699-.013-.011-.027-.02-.04-.031-24.41-21.04-56.929-31.709-96.657-31.709-12.928 0-25.653.3-37.821.892-.002 0-.004 0-.006 0-38.146 1.838-72.837 6.562-103.109 14.04-.004.001-.007.001-.011.002-36.511 9.014-57.637 19.876-66.933 25.509-15.549-6.736-46.217-10.327-71.341-10.327-4.193 0-7.941 2.617-9.386 6.555-1.445 3.937-.28 8.357 2.918 11.07l31.155 26.437c-6.601 7.061-10.529 16.762-11.859 21.739-1.06 3.966-2.14 8.75-3.283 13.815-2.883 12.775-7.671 33.996-12.997 39.935-2.076 1.109-8.791 2.727-14.523 3.478-4.982.647-8.711 4.891-8.711 9.917l.017 27.103c.099 6.256.193 12.164 2.36 17.354 1.811 4.337 6.678 11.613 18.921 11.613 35.859 0 51.216-6.16 62.429-10.658 3.984-1.599 7.131-2.861 10.464-3.53 8.242-1.652 19.97-1.396 24.296 1.615.865.602.989 1.009 1.069 1.518.002.01-10.337 90.791-10.337 90.791-.323 2.831.577 5.666 2.474 7.792s4.611 3.342 7.46 3.342h38.435c4.797 0 8.917-3.406 9.82-8.118l15.368-80.212c38.424-.263 71.566-2.372 98.605-6.28h.001c20.46-2.959 33.525-6.407 41.335-9.02 8.726 14.776 21.76 24.575 38.339 28.794l-.337 64.784c-.014 2.661 1.034 5.218 2.91 7.104 1.877 1.887 4.428 2.947 7.088 2.947h38.425c4.643 0 8.675-3.196 9.734-7.717.077-.331 7.842-33.573 14.791-73.553 5.365-30.923 8.856-57.686 10.375-79.578 4.854.199 10.72-.033 16.624-1.404 5.283 12.944 17.51 27.251 41.264 27.251 5.522 0 9.999-4.478 9.999-10s-4.477-10-9.999-10zm-244.029-133.504-3.701 60.108-63.289 3.529-11.666-52.998c23.691-5.224 50.061-8.79 78.656-10.639zm-138.543 164.026c-12.779-3.246-27.087-.594-29.1-.189-5.139 1.032-9.432 2.754-13.976 4.577-8.774 3.519-19.385 7.776-42.365 8.924-3.844.192-13.127.287-13.318.273-.473-1.995-.592-14.691-.592-14.691l-.01-12.916c6.737-1.453 13.451-3.749 17.068-7.364 8.841-8.838 13.5-27.076 18.673-50.001 1.099-4.868 2.136-9.466 3.095-13.055 1.486-5.565 5.515-12.01 8.257-14.393l37.377 24.738c1.677 1.11 3.599 1.661 5.517 1.661 2.155 0 4.305-.695 6.095-2.072l25.996-19.991c4.378-3.366 5.198-9.645 1.832-14.023s-9.644-5.198-14.021-1.832l-20.338 15.64-34.85-23.066-18.976-16.102c19.6 2.088 33.388 5.832 36.277 8.081 3.613 3.078 8.845 3.229 12.589.312.172-.132 16.432-12.274 55.24-23.078l12.214 55.487-18.378 18.668c-19.961 20.277-31.929 46.582-34.306 74.412zm29.965 104.478h-18.966l8.098-70.961 24.118 1.798zm20.811-88.655-31.157-2.323c-.865-27.499 9.483-54.119 28.938-73.879l15.226-15.466 35.192 34.104zm25.954.154 40.251-48.073 26.794 2.01 5.574 41.462c-20.895 2.54-45.216 4.08-72.619 4.601zm72.795-65.688-32.558-2.441-29.992-29.065 56.068-3.127 36.679 11.292zm47.499 51.584c-5.266 1.76-14.158 4.231-27.886 6.617l-5.856-43.558 31.396-24.269 6.532 30.163c-1.891 5.573-5.287 17.8-4.186 31.047zm1.542-90.051-43.828-13.492 3.902-63.36c9.089-.326 18.44-.491 27.909-.491 30.002 0 55.044 6.716 74.628 19.99zm83.23 192.656h-20.385l.276-53.087h30.846c-4.236 23.141-8.451 42.788-10.737 53.087zm14.245-73.087h-43.629c-16.541-2.323-27.92-10.963-34.752-26.389-2.056-9.185-.085-18.982 1.534-24.686l85.372-15.634c-1.403 18.735-4.259 41.088-8.525 66.709zm60.597-103.818c1.041-1.723 3.178-2.934 5.714-3.241 2.806-.346 5.575.478 7.232 2.136 3.954 3.954 3.954 9.479 0 13.433-1.315 1.285-7.398 1.586-13.829.535-.9-3.667-1.5-8.924.883-12.863z"/><circle cx="81.75" cy="235.875" r="10"/><circle cx="427.196" cy="185.275" r="10"/></g></svg>