<svg id="Capa_1" enable-background="new 0 0 512 512" height="512" viewBox="0 0 512 512" width="512" xmlns="http://www.w3.org/2000/svg"><g><path d="m506.378 411.8c-3.96-7.5-9.611-13.7-16.35-17.91-5.61-3.53-12.071-5.85-19.201-6.89-.63-.101-3.23-.51-3.851-.51-4.8 0-8.93 3.43-9.82 8.159-1.011 5.41 2.569 10.65 7.99 11.67.881.171 1.811.32 2.781.471 4.37.64 8.22 2 11.46 4.029 3.91 2.49 6.88 5.78 9.321 10.351 2.18 4.12 3.28 8.57 3.29 13.24 0 3.159-.51 6.33-1.53 9.419-2.54 7.729-7.85 13.989-14.93 17.609-26.932 13.812-66.043 22.062-104.634 22.062h-122.3c3.112-1.358 6.126-2.774 9.02-4.252 11.83-6.041 20.655-16.407 24.847-29.188 4.235-12.917 3.136-26.503-3.097-38.256-7.367-13.895-19.662-22.472-35.551-24.804-17.946-2.636-33.71-15.07-41.141-32.452-6.792-15.887-16.714-34.201-35.228-48.046h134.258l-25.383 44.003c-2.76 4.783-1.118 10.898 3.666 13.658 1.573.908 3.291 1.34 4.987 1.34 3.458 0 6.821-1.796 8.672-5.006l31.147-53.996s9.852.399 16.772 1.109c5.81.58 13.54 1.7 17.791 3.131 17.121 5.63 29.811 14.949 39.941 29.319 1.87 2.681 4.931 4.28 8.2 4.28 2.05 0 4.03-.63 5.72-1.8 2.19-1.53 3.65-3.82 4.12-6.45s-.12-5.29-1.649-7.48c-12.261-17.689-29.132-30.109-50.132-36.89-2.52-.805-5.238-1.454-8.03-2.004l17.914-31.051 36.235-12.71c2.257-.792 4.156-2.367 5.352-4.439l71.34-123.667 8.621 4.981c1.576.911 3.296 1.344 4.993 1.344 3.455 0 6.815-1.793 8.668-4.999 2.764-4.782 1.127-10.898-3.656-13.661l-49.686-28.707 14.948-25.913 23.747 13.72c1.575.911 3.296 1.344 4.993 1.344 3.455 0 6.815-1.793 8.668-4.999 2.764-4.782 1.127-10.898-3.655-13.661l-64.825-37.454c-4.782-2.766-10.899-1.125-13.661 3.655-2.764 4.782-1.127 10.898 3.655 13.661l23.76 13.728-14.948 25.913-49.679-28.703c-4.784-2.766-10.899-1.126-13.662 3.655-2.764 4.782-1.127 10.898 3.656 13.661l8.634 4.989-71.348 123.679c-1.194 2.07-1.607 4.501-1.165 6.85l7.119 37.762-18.123 31.411c-4.823 8.359-5.136 18.103-1.726 26.396h-195.68c-17.214-.377-34.36 3.503-50.138 11.542-25.237 12.858-43.952 34.802-52.698 61.789-18.027 55.623 12.453 115.581 67.945 133.656 19.85 6.467 43.758 9.879 69.074 10 .094.003 228.348.013 228.348.013 42.291-.061 83.863-8.891 114.074-24.25 6-3.07 11.23-7.24 15.56-12.42 4.15-4.96 7.271-10.601 9.29-16.771 1.67-5.109 2.521-10.37 2.521-15.649-.001-7.861-1.941-15.67-5.621-22.611zm-59.056-317.669 23.734 13.713-19.456 33.725-23.733-13.712zm-41.058-23.722 23.74 13.716-19.455 33.726-23.741-13.717zm-29.448 51.052 64.79 37.432-11.509 19.95-39.472-6.433-25.314-31.005zm-22.197 38.472 22.911 28.061c1.544 1.892 3.728 3.152 6.138 3.546l35.745 5.826-17.851 30.944-31.898 11.189-26.621-15.38-6.269-33.253zm-31.866 110.166 14.973-25.952 17.255 9.969-14.968 25.945c-1.328 2.301-3.472 3.946-6.037 4.633-2.554.686-5.227.337-7.522-.98-.023-.015-.048-.028-.062-.036-4.744-2.743-6.377-8.834-3.639-13.579zm-243.427 204.373c-45.021-14.665-69.745-63.327-55.113-108.474 7.098-21.899 22.281-39.704 42.753-50.134 20.403-10.396 43.627-12.216 65.395-5.126 30.55 9.952 43.395 31.705 51.931 51.671 10.147 23.734 31.844 40.739 56.626 44.378 9.601 1.41 16.401 6.115 20.786 14.386 3.662 6.906 4.288 14.952 1.763 22.654-2.536 7.731-7.842 13.985-14.94 17.609-45.69 23.333-120.011 29.058-169.201 13.036z"/><path d="m84.5 356.5c-16.542 0-30 13.458-30 30s13.458 30 30 30 30-13.458 30-30-13.458-30-30-30zm0 40c-5.514 0-10-4.486-10-10s4.486-10 10-10 10 4.486 10 10-4.486 10-10 10z"/><circle cx="429.421" cy="373.5" r="10"/></g></svg>