<svg id="Capa_1" enable-background="new 0 0 512 512" height="512" viewBox="0 0 512 512" width="512" xmlns="http://www.w3.org/2000/svg"><g><circle cx="502" cy="346" r="10"/><path d="m502 78.5h-282v-50c0-5.522-4.478-10-10-10h-160c-5.522 0-10 4.478-10 10v50h-30c-5.522 0-10 4.478-10 10v395c0 5.522 4.478 10 10 10h492c2.63 0 5.21-1.07 7.069-2.931 1.86-1.859 2.931-4.439 2.931-7.069v-92.5c0-5.51-4.49-10-10-10s-10 4.49-10 10v82.5h-170v-315h170v142.5c0 5.51 4.49 10 10 10s10-4.49 10-10v-212.5c0-5.522-4.478-10-10-10zm-442-40h140v100h-140zm-40 415h282v20h-282zm292-315c-2.641 0-5.21 1.069-7.07 2.93s-2.93 4.44-2.93 7.07v285h-282v-335h20v50c0 5.522 4.478 10 10 10h160c5.522 0 10-4.478 10-10v-50h272v40z"/><path d="m103.5 196h-15c-5.522 0-10 4.478-10 10s4.478 10 10 10h5v90c0 5.522 4.478 10 10 10s10-4.478 10-10v-100c0-5.522-4.478-10-10-10z"/><path d="m197.479 244.006c3.778-5.019 6.021-11.255 6.021-18.006 0-16.542-13.458-30-30-30s-30 13.458-30 30c0 6.751 2.243 12.987 6.021 18.006-9.721 7.304-16.021 18.927-16.021 31.994 0 22.056 17.944 40 40 40s40-17.944 40-40c0-13.067-6.3-24.69-16.021-31.994zm-33.979-18.006c0-5.514 4.486-10 10-10s10 4.486 10 10-4.486 10-10 10-10-4.486-10-10zm10 70c-11.028 0-20-8.972-20-20s8.972-20 20-20 20 8.972 20 20-8.972 20-20 20z"/><path d="m252 178.5c-16.542 0-30 13.458-30 30s13.458 30 30 30 30-13.458 30-30-13.458-30-30-30zm0 40c-5.514 0-10-4.486-10-10s4.486-10 10-10 10 4.486 10 10-4.486 10-10 10z"/><path d="m63.5 246h-13.5c-5.522 0-10 4.478-10 10s4.478 10 10 10h13.5c5.522 0 10-4.478 10-10s-4.478-10-10-10z"/><path d="m412 261v110c0 16.542 13.458 30 30 30s30-13.458 30-30v-110c0-16.542-13.458-30-30-30s-30 13.458-30 30zm40 0v110c0 5.514-4.486 10-10 10s-10-4.486-10-10v-110c0-5.514 4.486-10 10-10s10 4.486 10 10z"/><path d="m90 118.5h80c5.522 0 10-4.478 10-10s-4.478-10-10-10h-80c-5.522 0-10 4.478-10 10s4.478 10 10 10z"/><path d="m110 78.5h40c5.522 0 10-4.478 10-10s-4.478-10-10-10h-40c-5.522 0-10 4.478-10 10s4.478 10 10 10z"/><circle cx="140" cy="363.5" r="10"/><circle cx="50" cy="363.5" r="10"/><circle cx="95" cy="363.5" r="10"/><circle cx="50" cy="403.5" r="10"/><circle cx="95" cy="403.5" r="10"/><circle cx="140" cy="403.5" r="10"/></g></svg>