<svg id="Capa_1" enable-background="new 0 0 512 512" height="512" viewBox="0 0 512 512" width="512" xmlns="http://www.w3.org/2000/svg"><g><circle cx="383.5" cy="236" r="10"/><circle cx="303.5" cy="236" r="10"/><path d="m502 106h-492c-5.523 0-10 4.478-10 10v40c0 5.522 4.477 10 10 10h18.5v230c0 5.522 4.477 10 10 10h40c5.523 0 10-4.478 10-10v-30h335v30c0 2.63 1.07 5.21 2.93 7.069 1.86 1.86 4.44 2.931 7.07 2.931h40c2.63 0 5.21-1.07 7.07-2.931 1.86-1.859 2.93-4.439 2.93-7.069v-35c0-5.521-4.49-10-10-10s-10 4.479-10 10v25h-20v-220h20v105c0 5.51 4.49 10 10 10 5.52 0 10-4.49 10-10v-105h18.5c5.523 0 10-4.478 10-10v-40c0-5.522-4.477-10-10-10zm-279.271 60-12 30h-129.458l-12-30zm110.771 140h-70v-140h70zm-245 0v-90h129c4.089 0 7.766-2.489 9.285-6.286l16.715-41.788v138.074zm-20 80h-20v-218.074l16.715 41.788c.696 1.741 1.849 3.202 3.285 4.279zm20-40v-20h335v20zm335-40h-70v-140h70zm68.5-160h-472v-20h472z"/><circle cx="473.5" cy="316" r="10"/></g></svg>