<svg id="Capa_1" enable-background="new 0 0 512 512" height="512" viewBox="0 0 512 512" width="512" xmlns="http://www.w3.org/2000/svg"><g><path d="m471.14 389.58c-.25-2.49-1.399-4.78-3.26-6.45-2.08-1.88-4.87-2.79-7.68-2.521-2.65.261-5.051 1.54-6.75 3.61-1.69 2.06-2.48 4.66-2.221 7.32 1.091 11.048 2.093 20.852 2.883 28.448 1.012 9.745 1.888 19.081 1.888 20.481-.01 13.71-5.38 26.64-15.15 36.41-9.77 9.75-22.689 15.11-36.38 15.12-1.63 0-12.749-1.223-23.843-2.555-10.383-1.246-24.123-2.851-38.877-4.455-18.11-1.98-34.11-3.551-47.54-4.69-17.15-1.44-29.65-2.15-38.21-2.15-8.57 0-21.061.71-38.21 2.15-26.459 2.243-57.93 5.776-79.655 8.344-13.532 1.6-28.975 3.358-30.605 3.358-13.69 0-26.62-5.37-36.391-15.12-9.759-9.771-15.139-22.7-15.139-36.41 0-1.36 4.03-40.11 7.46-76.99 4.85-52.34 7.32-88.5 7.33-107.479-.01-18.98-2.48-55.141-7.33-107.48-3.32-35.681-7.46-75.641-7.46-76.992 0-13.72 5.38-26.649 15.14-36.42 9.78-9.739 22.7-15.109 36.39-15.119 1.6 0 32.329 3.71 62.71 7.02 18.189 1.98 34.189 3.56 47.55 4.69 17.189 1.449 29.689 2.149 38.21 2.149 8.52 0 21.02-.7 38.21-2.149 29.819-2.526 65.848-6.671 87.285-9.246 9.54-1.146 21.364-2.454 22.975-2.454 13.69 0 26.61 5.37 36.38 15.109 9.76 9.771 15.141 22.7 15.15 36.42 0 1.37-4.101 40.931-7.46 76.99-4.851 52.37-7.32 88.53-7.33 107.48 0 10.279.7 25.14 2.14 45.45.38 5.449 5.19 9.659 10.681 9.27 2.659-.19 5.1-1.41 6.85-3.43 1.75-2.011 2.61-4.59 2.42-7.261-1.37-19.3-2.1-34.52-2.09-44.029-.021-24.04 4.53-76.5 7.25-105.63 1.5-16.15 7.54-76.88 7.54-78.841-.01-9.649-1.91-19.02-5.65-27.84-3.62-8.51-8.79-16.16-15.359-22.729-6.58-6.561-14.221-11.72-22.74-15.33-8.813-3.73-18.152-5.629-27.782-5.629-2.28 0-13.78 1.2-24.39 2.479-16.23 1.95-40.55 4.771-64.25 7.13-19.42 1.94-45.54 4.24-59.69 4.24h-.229c-7.75 0-20.351-.72-36.431-2.08-23.15-1.959-50.4-4.959-69.19-7.129-10.641-1.23-40.45-4.64-42.76-4.64-9.631 0-18.98 1.899-27.79 5.63-8.511 3.61-16.16 8.77-22.73 15.33-6.58 6.569-11.75 14.22-15.36 22.729-3.74 8.821-5.64 18.191-5.65 27.84 0 1.931.08 3.921.24 5.91 0 0 7.449 73.141 9.97 102.88 2.1 24.62 4.59 57.73 4.58 75.681.02 24.069-4.53 76.51-7.25 105.63-1.49 16.09-7.54 76.88-7.54 78.84 0 9.65 1.91 19.01 5.649 27.83 3.61 8.51 8.78 16.16 15.36 22.729 6.57 6.57 14.22 11.73 22.73 15.33 8.81 3.74 18.159 5.631 27.79 5.641 2.279 0 13.72-1.19 24.39-2.48 16.149-1.939 40.41-4.76 64.25-7.13 19.42-1.939 45.55-4.24 59.689-4.24h.23c7.77 0 20.37.721 36.43 2.08 23.141 1.96 88.94 9.46 94.681 10.16 5.13.63 14.989 1.61 17.27 1.61 9.62-.01 18.97-1.91 27.78-5.641 8.51-3.6 16.16-8.76 22.74-15.33 6.569-6.569 11.739-14.22 15.35-22.729 3.75-8.82 5.65-18.18 5.66-27.83 0-1.96-.996-13.132-1.929-22.144-1.013-9.793-2.238-21.7-2.93-28.746z"/><circle cx="276" cy="158.5" r="10"/><circle cx="236" cy="158.5" r="10"/><circle cx="256" cy="118.5" r="10"/><path d="m397.575 286.855c-2.842-4.738-8.986-6.271-13.72-3.431l-44.499 26.699c1.071-5.379 1.643-10.935 1.643-16.624 0-13.043-3.004-25.907-8.727-37.534 5.58-11.309 8.728-24.024 8.728-37.465 0-13.043-3.004-25.907-8.727-37.534 5.579-11.31 8.727-24.025 8.727-37.466 0-46.869-38.131-85-85-85s-85 38.131-85 85c0 13.177 3.014 25.663 8.389 36.805l-58.533 35.12c-4.736 2.842-6.271 8.984-3.431 13.72 1.875 3.126 5.188 4.857 8.585 4.857 1.751 0 3.524-.461 5.135-1.427l40.481-24.289c-.409 3.38-.625 6.79-.625 10.213 0 13.441 3.148 26.156 8.727 37.466-.482.979-.938 1.969-1.382 2.964l-39.99 23.994c-4.736 2.842-6.271 8.984-3.431 13.72 1.875 3.126 5.188 4.857 8.585 4.857 1.751 0 3.524-.461 5.135-1.427l22.657-13.594c-.193 2.33-.302 4.671-.302 7.019 0 13.441 3.148 26.156 8.727 37.466-5.723 11.629-8.727 24.493-8.727 37.536 0 18.333 5.854 35.314 15.763 49.214l-28.012 17.274c-4.701 2.898-6.161 9.06-3.263 13.761 1.891 3.065 5.166 4.752 8.521 4.752 1.79 0 3.604-.48 5.239-1.489l31.212-19.248c14.91 12.903 34.322 20.736 55.54 20.736 46.869 0 85-38.131 85-85 0-11.09-2.176-22.05-6.344-32.231l59.489-35.693c4.736-2.843 6.271-8.985 3.43-13.721zm-141.575 146.645c-13.928 0-26.835-4.418-37.426-11.905l10.675-6.583c4.701-2.898 6.161-9.06 3.263-13.761-2.899-4.7-9.058-6.162-13.761-3.263l-14.938 9.212c-8.045-10.819-12.813-24.212-12.813-38.7 0-5.959.826-11.867 2.417-17.553 15.548 16.924 37.845 27.553 62.583 27.553s47.035-10.629 62.583-27.553c1.591 5.686 2.417 11.593 2.417 17.553 0 35.841-29.159 65-65 65zm0-75c-35.841 0-65-29.159-65-65 0-5.959.826-11.867 2.417-17.553 15.548 16.924 37.845 27.553 62.583 27.553s47.035-10.629 62.583-27.553c1.591 5.686 2.417 11.593 2.417 17.553 0 35.841-29.159 65-65 65zm0-75c-18.303 0-34.852-7.616-46.677-19.832l4.321-2.593c4.736-2.842 6.271-8.984 3.431-13.72-2.842-4.737-8.985-6.271-13.72-3.431l-5.61 3.366c-4.31-8.684-6.746-18.456-6.746-28.791 0-5.959.826-11.867 2.417-17.553 15.549 16.925 37.846 27.554 62.584 27.554s47.035-10.629 62.583-27.553c1.591 5.686 2.417 11.593 2.417 17.553 0 35.841-29.159 65-65 65zm0-75c-35.841 0-65-29.159-65-65s29.159-65 65-65 65 29.159 65 65-29.159 65-65 65z"/><path d="m426.202 62.574c-2.722-4.809-8.824-6.497-13.628-3.776l-53 30c-4.807 2.72-6.497 8.822-3.776 13.628 1.84 3.251 5.226 5.076 8.711 5.076 1.669 0 3.361-.419 4.917-1.3l53-30c4.806-2.72 6.497-8.822 3.776-13.628z"/><circle cx="456.961" cy="345.675" r="10"/></g></svg>