<svg id="Capa_1" enable-background="new 0 0 512 512" height="512" viewBox="0 0 512 512" width="512" xmlns="http://www.w3.org/2000/svg"><g><path d="m269.5 235c0 7.136-5.16 13.57-5.167 13.58-3.546 4.234-2.987 10.541 1.247 14.087 1.873 1.568 4.149 2.333 6.415 2.333 2.857 0 5.695-1.218 7.672-3.58 1.006-1.202 9.833-12.155 9.833-26.42s-8.827-25.218-9.833-26.42c-.052-.062-5.167-6.489-5.167-13.58 0-7.045 5.03-13.406 5.208-13.629 3.5-4.234 2.93-10.506-1.288-14.038-4.234-3.546-10.542-2.987-14.087 1.247-1.006 1.202-9.833 12.155-9.833 26.42s8.827 25.218 9.833 26.42c.052.061 5.167 6.489 5.167 13.58z"/><path d="m219.5 135c0 7.136-5.16 13.57-5.167 13.58-3.546 4.234-2.987 10.541 1.247 14.087 1.873 1.568 4.149 2.333 6.415 2.333 2.857 0 5.695-1.218 7.672-3.58 1.006-1.202 9.833-12.155 9.833-26.42s-8.827-25.218-9.833-26.42c-.052-.062-5.167-6.489-5.167-13.58 0-7.045 5.03-13.406 5.208-13.629 3.5-4.234 2.93-10.506-1.288-14.038-4.234-3.546-10.541-2.987-14.087 1.247-1.006 1.202-9.833 12.155-9.833 26.42s8.827 25.218 9.833 26.42c.052.061 5.167 6.489 5.167 13.58z"/><path d="m69.5 235c0 7.136-5.16 13.57-5.167 13.58-3.546 4.234-2.987 10.541 1.247 14.087 1.873 1.568 4.149 2.333 6.415 2.333 2.857 0 5.695-1.218 7.672-3.58 1.006-1.202 9.833-12.155 9.833-26.42s-8.827-25.218-9.833-26.42c-.052-.062-5.167-6.49-5.167-13.58 0-7.045 5.03-13.406 5.208-13.629 3.5-4.234 2.93-10.506-1.288-14.038-4.234-3.546-10.542-2.987-14.087 1.247-1.006 1.202-9.833 12.155-9.833 26.42s8.827 25.218 9.833 26.42c.052.061 5.167 6.489 5.167 13.58z"/><path d="m119.5 135c0 7.136-5.16 13.57-5.167 13.58-3.546 4.234-2.987 10.541 1.247 14.087 1.873 1.568 4.149 2.333 6.415 2.333 2.857 0 5.695-1.218 7.672-3.58 1.006-1.202 9.833-12.155 9.833-26.42s-8.827-25.218-9.833-26.42c-.052-.062-5.167-6.489-5.167-13.58 0-7.045 5.03-13.406 5.208-13.629 3.5-4.234 2.93-10.506-1.288-14.038-4.234-3.546-10.542-2.987-14.087 1.247-1.006 1.202-9.833 12.155-9.833 26.42s8.827 25.218 9.833 26.42c.052.061 5.167 6.489 5.167 13.58z"/><path d="m169.5 235c0 7.136-5.16 13.57-5.167 13.58-3.546 4.234-2.987 10.541 1.247 14.087 1.873 1.568 4.149 2.333 6.415 2.333 2.857 0 5.695-1.218 7.672-3.58 1.006-1.202 9.833-12.155 9.833-26.42s-8.827-25.218-9.833-26.42c-.052-.062-5.167-6.489-5.167-13.58 0-7.045 5.03-13.406 5.208-13.629 3.5-4.234 2.93-10.506-1.288-14.038-4.234-3.546-10.542-2.987-14.087 1.247-1.006 1.202-9.833 12.155-9.833 26.42s8.827 25.218 9.833 26.42c.052.061 5.167 6.489 5.167 13.58z"/><path d="m122 402.003c0 16.54 13.46 30 30 30s30-13.46 30-30c0-16.55-13.46-30-30-30s-30 13.45-30 30zm40 0c0 5.51-4.49 10-10 10s-10-4.49-10-10c0-5.52 4.49-10 10-10s10 4.48 10 10z"/><path d="m418.508 456.74c-1.83-2.95-5.04-4.74-8.51-4.74h-79.57c5.4-4.29 10.52-8.71 15.33-13.26 5.48-5.18 10.01-10.68 13.45-16.32 4.5-7.46 6.72-14.525 6.79-21.415.04-6.66-1.33-13.245-4.08-19.375-2.78-6.21-6.86-11.76-12.11-16.49-4.27-3.91-9.32-6.86-14.61-8.54-4.28-1.37-8.93-2.03-14.2-2.03-3.9 0-11.35.7-11.69.73-2.66.25-5.06 1.51-6.77 3.57-1.7 2.05-2.51 4.65-2.26 7.31.23 2.5 1.38 4.8 3.24 6.48 2.07 1.89 4.85 2.81 7.64 2.55 0 0 6.96-.64 9.82-.64 3.22 0 5.82.34 8.14 1.09 2.71.88 4.93 2.19 7.22 4.26 6.58 6.13 9.57 12.68 9.66 21.07.02 2.89-1.43 7.061-3.88 11.041-2.43 4.01-6.01 8.33-10.09 12.17-10.5 9.93-22.77 19.34-36.12 27.8h-210.259c-1.98-3.47-3.73-7.16-5.27-11.1-5.9-15.18-6.5-29.49-6.49-34.94 0-.89.11-3.96.11-3.96.01-23.91 9.91-46.44 27.88-63.44 18.14-17.13 42.29-26.56 68-26.56 22.88.07 40.93 6.48 58.52 20.78 1.78 1.46 4.03 2.27 6.34 2.27 3.01 0 5.83-1.34 7.73-3.66 1.7-2.07 2.49-4.67 2.22-7.33-.26-2.65-1.54-5.05-3.61-6.74-9.24-7.65-19.31-13.65-29.94-17.83-12.66-4.97-26.42-7.49-40.91-7.49h-.35c-15.57 0-30.68 2.88-44.92 8.57-13.79 5.51-26.17 13.39-36.81 23.44-10.64 10.03-19.01 21.75-24.89 34.83-6.1 13.58-9.22 27.979-9.26 42.82-.04.69-.11 2.16-.11 4.3.04 8.37.95 16.76 2.71 24.95 1.59 7.4 3.84 14.45 6.74 21.09h-53.341c-3.47 0-6.68 1.79-8.51 4.74-1.82 2.95-1.98 6.63-.43 9.73l20 40c1.69 3.39 5.15 5.53 8.94 5.53h360c3.79 0 7.25-2.14 8.94-5.53l20-40c1.55-3.101 1.39-6.781-.43-9.731zm-34.69 35.26h-347.64l-10-20h367.64z"/><path d="m508.15 2.11c-2.43-1.89-5.59-2.56-8.58-1.81-33.99 8.51-65.58 29.24-88.95 58.35-22.5 28.04-36.42 62.61-39.37 97.66l-45.19 59.64c-3.26 4.3-5.06 9.66-5.06 15.07 0 6.67 2.6 12.94 7.32 17.66s11 7.32 17.68 7.32h20v62c0 16.54 13.46 30 30 30h45v40c0 5.52 4.48 10 10 10h51c5.52 0 10-4.48 10-10v-378c0-3.079-1.42-5.989-3.85-7.89zm-16.15 375.891h-31v-40c0-5.52-4.48-10-10-10h-55c-5.51 0-10-4.49-10-10v-22.003h17c5.523 0 10-4.478 10-10s-4.477-10-10-10h-17v-29.997c0-5.53-4.48-10-10-10h-30c-1.81 0-2.99-.92-3.54-1.46-.54-.55-1.46-1.73-1.46-3.52 0-1.08.35-2.14 1-2.99l46.97-61.99c1.18-1.56 1.88-3.43 2.01-5.39 4.07-61.75 45.74-117.41 101.02-137.18z"/><path d="m413.5 145c0 5.522 4.477 10 10 10h32c5.523 0 10-4.478 10-10s-4.477-10-10-10h-32c-5.523 0-10 4.477-10 10z"/><circle cx="267.373" cy="355.943" r="10"/></g></svg>