<svg id="Capa_1" enable-background="new 0 0 512 512" height="512" viewBox="0 0 512 512" width="512" xmlns="http://www.w3.org/2000/svg"><g><circle cx="356" cy="202.5" r="10"/><circle cx="176" cy="175.5" r="10"/><path d="m502 238.503h-26v-17c0-22.73-8.819-44.23-24.833-60.538-16.122-16.418-37.49-25.46-60.167-25.46-8.661 0-17.274 1.332-25.483 3.905-4.554-42.612-40.72-75.91-84.517-75.91-20.437 0-40.191 7.361-55.624 20.728-12.113 10.492-20.964 24.13-25.625 39.241-8.267-2.635-16.886-3.965-25.75-3.965-32.319 0-61.217 17.902-75.668 46.23-1.772-.153-3.552-.229-5.332-.229-16.551 0-32.153 6.66-43.933 18.751-11.651 11.959-18.068 27.673-18.068 44.247 0 3.574.399 6.889 1.057 10h-22.057c-5.523 0-10 4.478-10 10 0 5.523 4.477 10 10 10h26.509l7.511 142.635c1.4 26.551 23.33 47.361 49.93 47.361h32.05c8.01 0 15.55-3.121 21.21-8.781 5.67-5.67 8.79-13.199 8.79-21.21.01-5.51 4.5-9.99 10-10 5.5.011 9.99 4.49 10 10 0 8.011 3.12 15.54 8.79 21.21 5.66 5.66 13.2 8.781 21.21 8.781h100c8.01 0 15.55-3.121 21.21-8.781 5.67-5.67 8.79-13.199 8.79-21.21.01-5.51 4.5-9.99 10-10 5.5.011 9.99 4.49 10 10 0 8.011 3.12 15.54 8.79 21.21 5.66 5.66 13.2 8.781 21.21 8.781h32.05c26.6 0 48.53-20.81 49.93-47.361l1.09-20.63c.28-5.51-4.23-10.234-9.73-10.524-5.31 0-9.97 4.154-10.25 9.465l-1.08 20.63c-.84 15.941-13.99 28.43-29.96 28.43h-32.05c-5.5-.01-9.99-4.5-10-10 0-8.02-3.12-15.55-8.79-21.22-5.66-5.66-13.2-8.781-21.21-8.781-8.02 0-15.55 3.121-21.21 8.781-5.67 5.67-8.79 13.2-8.79 21.22-.01 5.5-4.5 9.99-10 10h-100c-5.5-.01-9.99-4.5-10-10 0-8.02-3.12-15.55-8.79-21.22-5.66-5.66-13.2-8.781-21.21-8.781-8.02 0-15.55 3.121-21.21 8.781-5.67 5.67-8.79 13.2-8.79 21.22-.01 5.5-4.5 9.99-10 10h-32.06c-15.96 0-29.12-12.489-29.95-28.43l-7.45-141.573h79.46v64.998c0 16.542 13.458 30 30 30s30-13.458 30-30v-64.998h120v64.998c0 16.542 13.458 30 30 30s30-13.458 30-30v-64.998h79.46l-1.64 31.071c-.14 2.67.77 5.23 2.56 7.21 1.78 1.99 4.24 3.16 6.9 3.3 5.54.311 10.23-3.97 10.52-9.46l1.684-32.124h26.516c5.523 0 10-4.478 10-10 0-5.523-4.477-10-10-10zm-326 85.001c0 5.514-4.486 10-10 10s-10-4.486-10-10v-64.998h20zm180 0c0 5.514-4.486 10-10 10s-10-4.486-10-10v-64.998h20zm100-85.001h-49.998c2.441-3.246 4.472-6.77 6.067-10.537 2.61-6.16 3.93-12.71 3.93-19.46 0-5.52-4.49-10-10-10s-10 4.48-10 10c-.03 16.475-13.432 29.91-29.892 29.998h-.107-252.26c4.146-11.619 15.254-19.974 28.26-19.998 5.51 0 10-4.489 10-10 0-5.52-4.49-10-10-10-6.75 0-13.3 1.32-19.46 3.931-5.96 2.52-11.3 6.12-15.89 10.71s-8.2 9.939-10.72 15.89c-1.298 3.069-2.276 6.232-2.932 9.467h-40.225c-1.129-3.337-1.773-6.507-1.773-10 0-23.307 19.233-42.998 42-42.998 3.076 0 6.15.337 9.139 1.002 4.787 1.059 9.644-1.502 11.46-6.06 9.911-24.873 33.619-40.943 60.4-40.943 9.994 0 19.572 2.206 28.468 6.555 2.857 1.396 6.209 1.351 9.028-.124s4.768-4.203 5.249-7.348c4.808-31.406 32.431-55.088 64.256-55.088 35.841 0 65 29.161 65 65.004 0 1.718-.063 3.399-.189 4.998-.286 3.643 1.438 7.151 4.496 9.151s6.963 2.171 10.187.451c9.305-4.973 19.854-7.601 30.507-7.601 35.841 0 65 29.607 65 65.998v17.002z"/><path d="m303.39 200.763c-1.29-1.41-6.09-6.42-13.42-11.49-5.02-3.44-9.84-6.04-14.76-7.97-6.37-2.49-12.83-3.771-19.21-3.801-6.38.03-12.84 1.311-19.21 3.801-4.92 1.93-9.74 4.529-14.76 7.97-7.37 5.109-12.15 10.1-13.43 11.5l-.05.06c-1.78 1.99-2.68 4.55-2.53 7.221.14 2.659 1.32 5.109 3.31 6.899 1.84 1.641 4.2 2.55 6.67 2.55 2.83 0 5.535-1.215 7.435-3.314.03-.04 4.205-4.595 10.555-8.865 4.3-2.92 13.035-7.825 22.015-7.825 9.24 0 18.195 5.155 22.595 8.226 3.25 2.25 5.85 4.5 7.46 5.989.7.641 2.51 2.48 2.51 2.48 1.9 2.1 4.6 3.31 7.43 3.31 2.46 0 4.83-.909 6.67-2.55 1.99-1.79 3.17-4.24 3.31-6.899.15-2.671-.75-5.23-2.53-7.23z"/><path d="m308.7 122.123c-7.11-8.66-17.17-13.62-27.59-13.62h-.22c-10.42 0-20.48 4.96-27.59 13.62-3.52 4.24-2.93 10.561 1.32 14.08 1.79 1.48 4.05 2.3 6.38 2.3 2.99 0 5.795-1.324 7.705-3.625 3.52-4.189 7.665-6.345 12.295-6.385 4.63.04 8.77 2.19 12.3 6.39 1.9 2.301 4.71 3.62 7.7 3.62 2.32 0 4.59-.819 6.38-2.3 2.06-1.71 3.33-4.109 3.58-6.77s-.55-5.25-2.26-7.31z"/><circle cx="461.445" cy="335.033" r="10"/></g></svg>