<svg id="Capa_1" enable-background="new 0 0 512 512" height="512" viewBox="0 0 512 512" width="512" xmlns="http://www.w3.org/2000/svg"><g><circle cx="494.217" cy="171.43" r="10"/><path d="m508.66 215.42c-.19-2.53-1.32-4.88-3.18-6.6-2.04-1.89-4.76-2.85-7.53-2.64-5.5.41-9.64 5.22-9.24 10.72 1.35 18.248 2.3 38.106 2.81 59.003l-39.52-72.453v-138.49c.33.41 3.803 5.304 5.359 7.977 6.025 10.351 13.3 27.684 19.571 56.343.49 2.24 1.75 4.26 3.54 5.69 2.33 1.85 5.45 2.58 8.37 1.94 5.38-1.18 8.8-6.52 7.63-11.91-4.23-19.22-9.31-35.64-15.1-48.8-4.83-10.96-10.27-19.94-16.19-26.68-5.8-6.57-11.12-9.81-14.57-11.36-4.41-2-7.66-2.16-8.55-2.16h-.06-372c-3.59 0-22.349 1.914-39.138 39.688-20.479 46.077-30.862 126.93-30.862 240.312v50c0 5.523 4.477 10 10 10h26v30c0 5.523 4.477 10 10 10h30v50c0 5.523 4.477 10 10 10h340c5.523 0 10-4.477 10-10v-90h66c5.523 0 10-4.477 10-10v-50c0-36.77-1.13-70.61-3.34-100.58zm-353.678 90.58 16.364-90h74.654v90zm-79.045-90h75.081l-16.364 90h-107.809zm190.063 0h74.654l16.364 90h-91.018zm111.346 90-16.364-90h75.079l49.091 90zm54.654-110h-352v-140h352zm-386.038-104.477c4.991-13.055 9.91-21.345 14.038-26.598v138.525l-39.516 72.446c2.572-102.906 14.928-156.772 25.478-184.373zm10.038 304.477v-20h20v20zm360 60h-320v-80h20v30c0 5.523 4.477 10 10 10h70c5.523 0 10-4.477 10-10v-30h210zm-280-80h50v20h-50zm356-20h-472v-30h472z"/><path d="m346 416h40c5.523 0 10-4.477 10-10s-4.477-10-10-10h-40c-5.523 0-10 4.477-10 10s4.477 10 10 10z"/><path d="m122.994 135.994 20 .013h.006c5.52 0 9.997-4.473 10-9.994.003-5.523-4.471-10.003-9.994-10.006l-20-.013c-.002 0-.004 0-.006 0-5.52 0-9.997 4.473-10 9.994-.003 5.522 4.471 10.002 9.994 10.006z"/><path d="m163.997 96 21.086.008-22.493 66.801c-1.763 5.234 1.052 10.906 6.286 12.668 1.058.356 2.134.526 3.192.526 4.175 0 8.07-2.636 9.476-6.812l26.933-79.987c1.027-3.051.523-6.41-1.354-9.024-1.878-2.615-4.9-4.166-8.119-4.167l-35-.013c-.001 0-.002 0-.003 0-5.521 0-9.998 4.475-10 9.997-.003 5.522 4.473 10.001 9.996 10.003z"/></g></svg>