<svg id="Capa_1" enable-background="new 0 0 512 512" height="512" viewBox="0 0 512 512" width="512" xmlns="http://www.w3.org/2000/svg"><g><circle cx="332.23" cy="56" r="10"/><path d="m493.371 86.675c-13.115-26.23-31.359-40.675-51.371-40.675h-64.77c-5.51 0-10 4.49-10 10s4.49 10 10 10h26.776c-4.874 5.741-9.366 12.654-13.376 20.675-11.145 22.291-17.635 51.21-18.516 82.084-3.077-1.38-6.438-2.322-10.059-2.79-5.558-.719-13.688-3.334-20.105-17.687-5.137-11.49-17.952-32.056-46.062-40.695-17.806-5.474-36.674-3.667-53.13 5.083-16.542 8.796-28.665 23.542-34.133 41.521-6.111 20.093-2.749 40.859 7.485 57.461-18.578-4.455-39.804-6.132-63.394-4.981-5.169-11.51-17.989-31.973-46.011-40.584-17.806-5.473-36.674-3.667-53.13 5.083-14.371 7.641-25.399 19.776-31.634 34.617-1.287-9.619-1.946-19.617-1.941-29.787-.03-30.11 5.99-59.41 16.52-80.38 4.83-9.68 10.56-17.48 16.58-22.55 5.65-4.74 11.18-7.05 16.9-7.07h126.505c-4.874 5.741-9.367 12.655-13.377 20.677-12.012 24.026-18.628 55.748-18.628 89.323 0 5.523 4.477 10 10 10s10-4.477 10-10c0-30.53 5.866-59.076 16.517-80.379 9.411-18.825 21.616-29.621 33.483-29.621h52.73c5.51 0 10-4.49 10-10s-4.49-10-10-10h-217.23-.07c-10.39 0-20.68 4.08-29.74 11.8-12.26 10.44-22.16 26.56-29.42 47.91-7.04 20.87-10.76 45.18-10.77 70.29.01 16.97 1.67 33.38 4.93 48.77 3.18 15.06 7.79 28.7 13.7 40.55 6.13 12.23 13.38 21.95 21.56 28.88 5.462 4.654 11.372 7.975 17.48 9.887l-7.67 29.488v122.425c0 5.523 4.477 10 10 10h392c5.523 0 10-4.477 10-10v-122.425l-7.665-29.467c15.108-4.698 28.674-18.058 39.036-38.782 12.013-24.028 18.629-55.75 18.629-89.326s-6.616-65.298-18.629-89.325zm-295.217 154.847c-3.833-6.951-9.411-11.936-16.373-14.746 16.516 1.059 31.257 3.932 44.039 8.614 14.86 5.442 30.333 8.877 45.993 10.217 8.131 1.284 16.703 1.932 25.436 1.932 26.863 0 55.107-5.936 75.721-16.95 1.622-.866 3.155-1.854 4.599-2.943 3.126 13.814 7.509 26.576 13.06 37.68 4.01 8.021 8.503 14.934 13.376 20.675h-215.433c5.765-4.41 10.031-10.519 12.23-17.66 2.805-9.11 1.865-18.634-2.648-26.819zm29.604-81.511c3.911-12.858 12.572-23.399 24.388-29.682 11.729-6.237 25.177-7.523 37.865-3.625 20.559 6.319 29.925 21.346 33.678 29.741 7.787 17.416 19.831 27.293 35.798 29.359 4.808.622 8.092 2.806 10.335 6.875 1.87 3.392 2.243 7.396 1.048 11.275-1.208 3.921-3.81 7.116-7.327 8.995-27.511 14.699-72.607 18.977-102.666 9.741-26.314-8.087-41.171-36.205-33.119-62.679zm-189.183 58.5c3.911-12.858 12.572-23.399 24.388-29.682 11.729-6.237 25.177-7.523 37.865-3.625 20.559 6.319 29.925 21.346 33.678 29.741 7.787 17.416 19.831 27.293 35.798 29.359 4.808.622 8.092 2.807 10.335 6.875 1.87 3.392 2.243 7.396 1.048 11.274-1.208 3.922-3.81 7.117-7.327 8.996-16.732 8.94-39.967 14.016-62.369 14.551h-7.895c-11.627-.29-22.785-1.855-32.401-4.81-26.315-8.087-41.172-36.205-33.12-62.679zm403.425 227.489h-372v-108.769l7.808-31.231h356.385l7.807 31.231zm33.482-189.619c-9.412 18.823-21.615 29.619-33.482 29.619s-24.07-10.796-33.482-29.619c-10.652-21.304-16.518-49.85-16.518-80.381s5.866-59.077 16.518-80.381c9.412-18.823 21.615-29.619 33.482-29.619s24.07 10.796 33.482 29.619c10.652 21.304 16.518 49.85 16.518 80.381s-5.866 59.077-16.518 80.381z"/><path d="m442 86c-28.554 0-30 74.971-30 90s1.446 90 30 90 30-74.971 30-90-1.446-90-30-90zm0 157.276c-4.297-8.621-10-31.854-10-67.276s5.703-58.656 10-67.276c4.297 8.621 10 31.854 10 67.276s-5.703 58.656-10 67.276z"/><path d="m203 326h-93c-5.523 0-10 4.477-10 10v80c0 5.523 4.477 10 10 10h93c5.523 0 10-4.477 10-10v-80c0-5.523-4.477-10-10-10zm-10 80h-73v-60h73z"/><path d="m263 326c-16.542 0-30 13.458-30 30 0 7.678 2.902 14.688 7.663 20-4.761 5.312-7.663 12.322-7.663 20 0 16.542 13.458 30 30 30s30-13.458 30-30c0-7.678-2.902-14.688-7.663-20 4.761-5.312 7.663-12.322 7.663-20 0-16.542-13.458-30-30-30zm0 20c5.514 0 10 4.486 10 10s-4.486 10-10 10-10-4.486-10-10 4.486-10 10-10zm0 60c-5.514 0-10-4.486-10-10s4.486-10 10-10 10 4.486 10 10-4.486 10-10 10z"/><path d="m362 326c-27.57 0-50 22.43-50 50s22.43 50 50 50 50-22.43 50-50-22.43-50-50-50zm0 80c-16.542 0-30-13.458-30-30s13.458-30 30-30 30 13.458 30 30-13.458 30-30 30z"/><path d="m87 263c16.542 0 30-13.458 30-30s-13.458-30-30-30-30 13.458-30 30 13.458 30 30 30zm0-40c5.514 0 10 4.486 10 10s-4.486 10-10 10-10-4.486-10-10 4.486-10 10-10z"/><path d="m276.183 204.5c16.542 0 30-13.458 30-30s-13.458-30-30-30-30 13.458-30 30 13.458 30 30 30zm0-40c5.514 0 10 4.486 10 10s-4.486 10-10 10-10-4.486-10-10 4.486-10 10-10z"/></g></svg>