<svg id="Capa_1" enable-background="new 0 0 512 512" height="512" viewBox="0 0 512 512" width="512" xmlns="http://www.w3.org/2000/svg"><g><path d="m161.07 226c-5.523 0-10 4.477-10 10s4.477 10 10 10h189.86c5.523 0 10-4.477 10-10s-4.477-10-10-10z"/><path d="m443.8 330.21c-.82-10.41-2.92-36.04-2.92-36.04-.21-2.52-1.35-4.84-3.21-6.55-2.05-1.88-4.8-2.82-7.58-2.6-2.66.22-5.08 1.46-6.81 3.5-1.72 2.03-2.55 4.62-2.34 7.27v.02s1.5 18.213 2.061 25.19h-17.111v-10c0-8.01-3.12-15.55-8.78-21.21-5.66-5.67-13.19-8.79-21.2-8.79s-15.54 3.12-21.21 8.79c-5.66 5.66-8.78 13.19-8.78 21.21v10h-19.97v-10c0-8.01-3.12-15.55-8.78-21.21-5.66-5.67-13.19-8.79-21.21-8.79-8.01 0-15.54 3.12-21.2 8.79-5.66 5.66-8.78 13.19-8.78 21.21v10h-19.97v-10c0-8.01-3.12-15.55-8.78-21.21-5.66-5.67-13.19-8.79-21.2-8.79-8.02 0-15.55 3.12-21.21 8.79-5.66 5.66-8.78 13.19-8.78 21.21v10h-19.97v-10c0-8.01-3.12-15.55-8.78-21.21-5.66-5.67-13.19-8.79-21.21-8.79-8.01 0-15.54 3.12-21.2 8.79-5.66 5.66-8.78 13.19-8.78 21.21v10h-17.113c.534-6.599 3.613-44.07 4.473-55.27 1.31-17.25 2.65-36.65 2.66-49.73-.01-20.47-11.89-136.62-11.88-161.77 0-5.13.11-10.01.35-14.51.56-11.06 9.66-19.72 20.74-19.72 4.63 0 9.01 1.5 12.67 4.32 3.57 2.76 6.18 6.64 7.35 10.93 2.2 8.06 7.35 16.15 13.03 21.61 4.05 3.9 9.72 7.88 14.94 9.98 5.21 2.1 10.71 3.16 16.33 3.16h172.7c5.62 0 11.12-1.06 16.33-3.16 5.22-2.1 10.895-6.085 14.945-9.985 5.68-5.46 10.825-13.555 13.025-21.615 0-.01 0-.01 0-.01 2.49-8.97 10.7-15.23 19.98-15.23h.04c5.33 0 10.4 2.03 14.3 5.7 3.88 3.71 6.17 8.68 6.44 14.01.24 4.52.35 9.4.35 14.51.01 24.47-10.94 132.2-11.66 150.52-.21 5.51 4.1 10.17 9.61 10.38 2.74.12 5.34-.89 7.31-2.78 1.88-1.8 2.97-4.22 3.07-6.82.68-17.54 11.67-125.94 11.67-151.3 0-5.46-.12-10.68-.37-15.53-.54-10.49-5.02-20.24-12.63-27.47l-.01-.02c-7.61-7.22-17.57-11.2-28.06-11.2h-.02c-9.11.01-17.73 2.95-24.91 8.5-3.45 2.67-6.45 5.86-8.89 9.48-2.48 3.67-4.33 7.7-5.51 11.97v.01c-1.26 4.6-4.525 9.53-7.595 12.48-4.441 4.27-11.255 7.56-17.415 7.56h-172.7c-6.16 0-12.985-3.29-17.415-7.56-3.07-2.95-6.335-7.88-7.595-12.48-1.17-4.27-3.03-8.31-5.51-11.99-2.44-3.61-5.43-6.79-8.89-9.47-7.07-5.48-15.91-8.5-24.9-8.5h-.01c-21.72 0-39.6 17-40.72 38.69-.25 4.83-.37 10.06-.37 15.54 0 26.06 11.89 142.39 11.88 161.77.01 9.63-.82 24.94-2.6 48.2-.85 11.08-4.52 55.74-5.33 66.01-.164 2.071-4.607 63.306-4.69 85.646 0 3.43.33 12.073.94 21.753.32 5.17.68 9.76 1.06 13.64.37 3.77.82 7.69 1.5 10.94 3.19 14.86 8.84 29.09 17.8 44.77 1.78 3.11 5.1 5.04 8.68 5.04s6.91-1.93 8.69-5.04c15.85-27.8 23.9-54.81 23.93-80.27v-95.689-20c.01-5.5 4.49-9.99 9.98-10 5.5.01 9.98 4.5 9.99 10v115.69c0 28.09 7.37 55.85 21.3 80.27 1.77 3.11 5.1 5.04 8.69 5.04 3.58 0 6.9-1.93 8.68-5.04 13.93-24.4 21.3-52.16 21.3-80.27v-115.69c.01-5.5 4.49-9.99 9.99-10 5.49.01 9.97 4.5 9.98 10v115.69c0 28.09 7.37 55.85 21.3 80.27 1.77 3.11 5.1 5.04 8.69 5.04 3.58 0 6.9-1.93 8.68-5.04 13.93-24.4 21.3-52.16 21.3-80.27v-115.69c.01-5.5 4.49-9.99 9.98-10 5.5.01 9.98 4.5 9.99 10v115.69c0 28.09 7.37 55.85 21.3 80.27 1.78 3.11 5.1 5.04 8.69 5.04 3.58 0 6.9-1.93 8.68-5.04 13.93-24.4 21.3-52.16 21.3-80.27v-115.69c.01-5.5 4.49-9.99 9.99-10 5.49.01 9.97 4.5 9.98 10v115.69c.03 25.45 8.08 52.46 23.94 80.27 1.77 3.11 5.1 5.04 8.68 5.04h.01c3.58 0 6.9-1.93 8.68-5.04 8.96-15.69 14.62-29.91 17.8-44.78.68-3.24 1.12-7.17 1.49-10.93.69-7.06 1.18-15.02 1.46-20.46.34-6.46.55-12.095.55-14.915-.09-24.12-2.43-56.885-4.7-85.665zm-337.7 96.48c.02 16.66-4.2 34.55-12.54 53.18-3.13-7.35-5.42-14.51-7-21.89-.34-1.52-.8-4.93-1.15-8.67-.69-7.03-1.17-15.28-1.39-19.57-.33-6.21-.53-11.93-.52-13.83.05-16.93 1.29-40.77 3.91-74.91h18.69zm79.94 0c0 17.99-3.36 35.58-9.98 52.29-6.63-16.72-9.99-34.31-9.99-52.29v-85.69h19.97zm79.94 0c0 17.99-3.36 35.58-9.98 52.29-6.63-16.72-9.99-34.31-9.99-52.29v-85.69h19.97zm79.94 0c0 17.99-3.36 35.58-9.98 52.29-6.63-16.72-9.99-34.31-9.99-52.29v-85.69h19.97zm81.68 9.65c-.31 4.91-.66 9.4-1.01 12.97-.35 3.69-.81 7.17-1.15 8.68-1.58 7.37-3.87 14.53-7 21.88-8.35-18.63-12.57-36.52-12.55-53.18v-85.69h18.69v.002c1.917 24.935 3.849 53.911 3.92 74.913.01 2.54-.33 11.575-.9 20.425z"/><path d="m382.92 121.35c-1.82-8.56-5.99-16.02-12.08-21.58-6.43-5.91-15.2-9.295-24.12-9.515-5.04.01-10.38 1.565-15.23 4.635-3.6 2.29-7.03 5.31-10.5 9.24-1.3 1.46-3.01 2.25-4.96 2.27-1.96-.03-3.6-.78-4.88-2.24-3.46-3.99-6.76-6.93-10.36-9.24-4.81-3.1-9.8-4.66-14.82-4.67-4.98.01-9.93 1.56-14.72 4.61-3.59 2.3-6.87 5.21-10.32 9.15-1.3 1.49-2.96 2.25-4.93 2.27-1.97-.02-3.63-.78-4.94-2.27-3.39-3.89-6.77-6.88-10.31-9.15-4.79-3.05-9.74-4.6-14.73-4.61-5.02.01-10.01 1.58-14.81 4.67-3.6 2.31-6.89 5.25-10.36 9.23-1.28 1.47-2.92 2.22-4.88 2.25-1.95-.02-3.66-.8-4.95-2.27-3.52-3.99-6.86-6.92-10.51-9.24-4.85-3.07-10.235-4.62-15.275-4.63-8.89.23-17.665 3.62-24.075 9.51-6.09 5.56-10.26 13.03-12.08 21.6-.59 2.77-.82 11.82-.68 13.37.01 0 .01.01.01.01l3.18 34.49c1.68 10.18 6.93 19.47 14.79 26.15s17.88 10.36 28.2 10.36h162.84c10.32 0 20.34-3.68 28.2-10.36s13.11-15.97 14.79-26.15c0 0 3.4-37.62 3.4-39.12 0-3.05-.3-6-.89-8.77zm-19.24 11.55-3.06 33.41c-2.01 11.26-11.76 19.44-23.2 19.44h-162.85c-11.42 0-21.17-8.17-23.19-19.42l-3.06-33.43c-.09-.95.02-5.96.32-7.36v-.03c.94-4.4 3.07-8.3 6.01-10.97 3.09-2.78 6.6-4.14 10.92-4.29.8 0 2.23.27 4.25 1.55 1.89 1.18 4.08 3.15 6.17 5.53 5.04 5.76 12.3 9.07 19.92 9.07h.06.07c7.65 0 14.91-3.34 19.93-9.16 2.05-2.37 4.19-4.32 6.03-5.49 1.94-1.24 3.265-1.5 4.015-1.5s2.065.26 3.985 1.48c1.83 1.15 3.95 3.07 5.98 5.42 5.05 5.8 12.32 9.13 19.96 9.13h.06.06c7.64 0 14.91-3.33 19.95-9.13 2.03-2.34 4.16-4.27 5.99-5.42 1.92-1.22 3.24-1.48 3.97-1.48.75 0 2.08.26 4.03 1.5 1.85 1.17 3.99 3.12 6.03 5.5 5.02 5.81 12.28 9.15 19.93 9.15h.07.06c7.62 0 14.88-3.31 19.93-9.07 2.08-2.39 4.27-4.35 6.16-5.53 2.02-1.28 3.45-1.55 4.25-1.55 4.32.15 7.83 1.51 10.92 4.29 2.94 2.67 5.07 6.57 6 10.97.31 1.42.42 6.43.33 7.39z"/><circle cx="427.426" cy="250.11" r="10"/></g></svg>