<svg id="Capa_1" enable-background="new 0 0 512 512" height="512" viewBox="0 0 512 512" width="512" xmlns="http://www.w3.org/2000/svg"><g><path d="m306.75 347.85c-1.72-1.25-3.75-1.91-5.87-1.91-3.19 0-6.22 1.54-8.1 4.13-3.24 4.46-2.25 10.72 2.21 13.97h.01c1.72 1.25 3.75 1.91 5.859 1.91 3.2 0 6.23-1.55 8.101-4.13 3.24-4.46 2.25-10.72-2.2-13.96 0 0-.01 0-.01-.01z"/><path d="m379.633 263.981c1.108.404 2.267.604 3.424.604 1.446 0 2.89-.314 4.227-.937 2.404-1.122 4.265-3.153 5.172-5.646 2.74-7.538 8.247-13.556 15.507-16.945 7.256-3.388 15.396-3.744 22.921-1.002 2.494.908 5.243.789 7.65-.333 2.404-1.121 4.265-3.152 5.172-5.646l34.19-94.044c1.886-5.188-.788-10.923-5.975-12.812-15.542-5.664-23.583-22.934-17.924-38.498 1.886-5.188-.788-10.923-5.975-12.812l-206.659-75.306c-2.493-.908-5.245-.789-7.65.333-2.405 1.121-4.266 3.152-5.172 5.646-2.741 7.538-8.248 13.556-15.508 16.945-7.257 3.388-15.396 3.743-22.921 1.002-2.492-.909-5.245-.789-7.649.333-2.405 1.121-4.266 3.152-5.172 5.646l-34.19 94.044c-1.886 5.188.788 10.922 5.974 12.812 15.542 5.664 23.582 22.933 17.924 38.497-1.886 5.188.788 10.923 5.974 12.812l93.941 34.231-27.194 74.802c-11.279-3.792-23.358-5.709-35.992-5.709h-.35c-15.57 0-30.68 2.88-44.92 8.57-13.79 5.51-26.17 13.4-36.81 23.45-10.64 10.03-19.01 21.74-24.89 34.83-6.1 13.57-9.22 27.98-9.26 42.81-.04.7.84 21.07 2.6 29.25 1.593 7.408 3.87 14.449 6.758 21.09h-53.356c-3.466 0-6.685 1.794-8.506 4.743-1.822 2.948-1.988 6.629-.438 9.729l20 40c1.693 3.39 5.156 5.53 8.944 5.53h359.998c3.788 0 7.25-2.14 8.944-5.528l20-40c1.55-3.1 1.384-6.781-.438-9.729s-5.041-4.743-8.507-4.743h-79.585c5.395-4.288 10.531-8.707 15.345-13.25 5.49-5.19 10.01-10.68 13.45-16.32 4.51-7.47 6.729-14.584 6.79-21.465.03-6.65-1.35-13.255-4.09-19.365-2.79-6.2-6.86-11.73-12.091-16.45-4.279-3.92-9.329-6.87-14.619-8.54-4.29-1.37-8.94-2.04-14.21-2.04-3.86.01-11.31.7-11.681.74-2.66.24-5.06 1.51-6.77 3.56-1.71 2.06-2.51 4.65-2.26 7.31.229 2.5 1.38 4.8 3.229 6.49 2.08 1.88 4.86 2.81 7.65 2.55l9.83-.65c3.22 0 5.81.35 8.13 1.09 2.699.88 4.93 2.19 7.22 4.26 6.58 6.13 9.56 12.793 9.66 21.183-.021 2.88-1.47 7.016-3.88 10.927-2.431 4.01-6.011 8.34-10.09 12.17-10.5 9.928-22.785 19.343-36.138 27.8h-210.242c-1.969-3.465-3.724-7.161-5.266-11.1-5.9-15.18-6.38-38.9-6.38-38.9.01-23.91 9.91-46.44 27.88-63.44 18.14-17.13 42.29-26.56 68-26.56 22.88.07 40.93 6.48 58.519 20.78 1.78 1.46 4.03 2.27 6.341 2.27 3.01 0 5.819-1.34 7.729-3.66 1.69-2.06 2.48-4.67 2.22-7.32-.26-2.66-1.54-5.05-3.599-6.75-5.269-4.357-10.814-8.159-16.568-11.412l27.685-76.153zm47.684 208.019-10 20h-347.637l-10-20zm-239.048-299.037c2.948-19.762-6.283-39.577-23.3-50.023l28.04-77.128c9.621 1.454 19.465.051 28.486-4.161s16.418-10.856 21.49-19.169l189.744 69.141c-2.948 19.762 6.283 39.578 23.3 50.023l-28.04 77.128c-9.624-1.453-19.464-.051-28.485 4.161-9.021 4.211-16.418 10.856-21.49 19.169z"/><path d="m395.73 186.48c6.953-12.543 3.606-27.311-8.327-36.747-6.333-5.007-13.239-10.775-16.447-15.586-.682-1.022-.239-2.759.502-4.028.551-.943 2.656-3.993 6.94-3.679 2.822.21 5.094.678 6.885 1.238 2.629.822 4.765 2.749 5.99 5.216 1.736 3.495 5.456 5.83 9.687 5.531 6.084-.43 10.096-6.357 9.068-12.369-.893-5.224-4.705-10.461-11.265-14.23l.203-.558c1.887-5.19-.792-10.928-5.982-12.814-5.195-1.887-10.929.792-12.814 5.982l-.742 2.042c-10.353-.604-19.984 4.555-25.24 13.556-4.805 8.226-4.755 17.886.129 25.209 3.832 5.747 9.824 11.593 20.683 20.179 5.48 4.333 4.786 8.571 3.239 11.362-2.359 4.258-8.251 7.642-15.611 5.011-7.711-2.755-9.79-3.879-14.287-9.533-3.557-4.473-10.168-5.086-14.494-1.229-4.011 3.576-4.279 9.794-.914 13.984 4.671 5.816 8.645 9.115 13.68 11.726l-.632 1.738c-1.887 5.19.791 10.928 5.982 12.815 1.127.41 2.281.604 3.415.604 4.087 0 7.923-2.524 9.399-6.586l.963-2.649c.653.038 1.303.065 1.946.065 12.543-.002 23.029-7.2 28.044-16.25z"/><path d="m342.257 95.051c-.87-3.099-3.179-5.589-6.203-6.691l-32.877-11.98c-5.188-1.892-10.929.782-12.819 5.972-1.891 5.189.782 10.929 5.972 12.819l19.809 7.218-44.004 55.136c-3.444 4.316-2.738 10.609 1.578 14.054 1.843 1.47 4.045 2.185 6.231 2.185 2.938 0 5.848-1.289 7.823-3.763l52.68-66.007c2.006-2.517 2.681-5.845 1.81-8.943z"/><path d="m265.602 62.688-14.09-5.135c-5.191-1.893-10.929.783-12.819 5.972-1.891 5.189.783 10.928 5.972 12.819l4.702 1.713-23.938 65.845c-1.887 5.19.791 10.928 5.982 12.815 1.128.41 2.281.604 3.416.604 4.086 0 7.922-2.524 9.399-6.586l27.35-75.235c1.886-5.188-.788-10.923-5.974-12.812z"/><path d="m155.5 402c0 16.542 13.458 30 30 30s30-13.458 30-30-13.458-30-30-30-30 13.458-30 30zm40 0c0 5.514-4.486 10-10 10s-10-4.486-10-10 4.486-10 10-10 10 4.486 10 10z"/></g></svg>