<svg id="Capa_1" enable-background="new 0 0 512 512" height="512" viewBox="0 0 512 512" width="512" xmlns="http://www.w3.org/2000/svg"><g><path d="m482 276h-452v-123.248c0-16.191 9.76-30.785 24.724-36.968l195.265-80.688c14.532-6.006 30.103-9.096 45.828-9.096h146.183c22.091 0 40 17.909 40 40z" fill="#fff"/><path d="m211.5 216v-165l-115 47.521v117.479z" fill="#c5d3de"/><path d="m50 276h412v40h-412z" fill="#e2e9ee"/><circle cx="357" cy="151" fill="#c5d3de" r="85"/><g fill="#e2e9ee"><circle cx="357" cy="151" r="35"/><path d="m462 276h40v210h-40z"/><path d="m10 276h40v210h-40z"/></g><path d="m50 376h412v110h-412z" fill="#dd9366"/><path d="m76.5 216 40 40v60c0 11.046 8.954 20 20 20h105c11.046 0 20-8.954 20-20v-60l40-40z" fill="#33d6f5"/><g><path d="m402 151c0-24.813-20.187-45-45-45s-45 20.187-45 45 20.187 45 45 45 45-20.187 45-45zm-70 0c0-13.785 11.215-25 25-25s25 11.215 25 25-11.215 25-25 25-25-11.215-25-25z"/><path d="m509.069 268.93c-1.859-1.86-4.439-2.93-7.069-2.93h-10v-200c0-27.57-22.43-50-50-50h-146.184c-17.12 0-33.824 3.315-49.647 9.854l-195.265 80.688c-18.773 7.758-30.904 25.896-30.904 46.209v113.249h-10c-5.522 0-10 4.477-10 10v210c0 5.523 4.478 10 10 10h492c2.63 0 5.21-1.07 7.069-2.93 1.86-1.86 2.931-4.44 2.931-7.07v-65c0-5.51-4.49-10-10-10s-9.99 4.48-10 9.99v.01 55h-20v-190h20v45c0 5.51 4.49 10 10 10 5.52 0 10-4.49 10-10v-55c0-2.63-1.07-5.21-2.931-7.07zm-255.261-224.592c13.388-5.533 27.522-8.338 42.008-8.338h146.184c16.542 0 30 13.458 30 30v200h-200.5v-5.858l31.222-31.221c15.397 10.758 34.112 17.079 54.278 17.079 52.383 0 95-42.617 95-95s-42.617-95-95-95-95 42.617-95 95c0 20.481 6.515 39.468 17.581 55h-58.081v-148.312zm-147.308 60.871 37.053-15.311c-2.908 4.668-7.053 13.069-7.053 23.067 0 14.51 8.742 25.687 9.696 26.86.053.067 5.304 6.809 5.304 14.354s-5.251 14.287-5.261 14.3c-.997 1.227-9.739 12.404-9.739 26.914 0 3.806.604 7.379 1.51 10.607h-31.51zm52.959 100.791c-1.416-2.678-2.959-6.527-2.959-10.607 0-7.546 5.251-14.287 5.261-14.301.997-1.227 9.739-12.404 9.739-26.914s-8.742-25.687-9.739-26.914c-.053-.065-5.261-6.81-5.261-14.3 0-7.545 5.251-14.288 5.29-14.337.828-1.028 7.007-9.003 9.052-20.006l30.658-12.668v140.047zm117.898 20-22.929 22.929c-1.875 1.875-2.929 4.419-2.929 7.071v60c0 5.514-4.486 10-10 10h-105c-5.514 0-10-4.486-10-10v-60c0-2.652-1.054-5.196-2.929-7.071l-22.927-22.929zm174.643 80h-180.5v-20h180.5zm-345.5 0h-46.5v-20h46.5zm-46.5 20h48.22c4.128 11.639 15.243 20 28.28 20h105c13.036 0 24.152-8.361 28.28-20h182.22v40h-392zm222-175c0-41.355 33.645-75 75-75s75 33.645 75 75-33.645 75-75 75-75-33.645-75-75zm-242 1.751c0-12.188 7.278-23.071 18.543-27.726l27.957-11.552v92.527h-10c-4.045 0-7.691 2.437-9.239 6.173s-.691 8.038 2.168 10.898l37.071 37.071v5.858h-66.5zm-20 133.249h20v190h-20zm40 100h392v90h-392z"/><circle cx="502" cy="376" r="10"/><path d="m156.5 306c5.522 0 10-4.477 10-10h45c0 5.523 4.478 10 10 10s10-4.477 10-10v-10c0-5.523-4.478-10-10-10h-65c-5.522 0-10 4.477-10 10v10c0 5.523 4.478 10 10 10z"/></g></g></svg>