<svg id="Capa_1" enable-background="new 0 0 512 512" height="512" viewBox="0 0 512 512" width="512" xmlns="http://www.w3.org/2000/svg"><g><g fill="#ffbe90"><path d="m256 438c-63.513 0-115-51.487-115-115v-134c0-63.513 51.487-115 115-115 63.513 0 115 51.487 115 115v134c0 63.513-51.487 115-115 115z"/><path d="m278.5 438 30 64-38-19-18 19-12-19-37 19 30-64z"/><path d="m233.5 74-30-64 38 19 18-19 12 19 37-19-30 64z"/></g><path d="m371 189v134c0 1-.01 2-.04 3h-39.96c-22.09 0-40-17.91-40-40v-70c0-5.52 4.48-10 10-10h30c0-16.57 13.43-30 30-30h9.27c.48 4.27.73 8.6.73 13z" fill="#ffe6b4"/><g><path d="m371.17 140.34c-6.29-14.88-15.3-28.25-26.78-39.73s-24.85-20.49-39.73-26.78c-4.22-1.785-8.514-3.321-12.869-4.623l25.764-54.963c1.815-3.873.966-8.472-2.112-11.441-3.078-2.969-7.705-3.652-11.51-1.698l-28.863 14.821-7.115-11.266c-1.648-2.61-4.409-4.312-7.481-4.613-3.069-.301-6.11.834-8.233 3.075l-12.9 13.617-31.369-15.683c-3.81-1.904-8.405-1.187-11.453 1.784-3.049 2.973-3.881 7.549-2.074 11.404l25.764 54.963c-4.355 1.302-8.649 2.838-12.869 4.623-14.88 6.29-28.25 15.3-39.73 26.78s-20.49 24.85-26.78 39.73c-6.52 15.41-9.83 31.78-9.83 48.66v134c0 16.88 3.31 33.25 9.83 48.66 6.29 14.88 15.3 28.25 26.78 39.73s24.85 20.49 39.73 26.78c4.22 1.786 8.514 3.321 12.869 4.623l-25.764 54.963c-1.815 3.873-.966 8.472 2.112 11.441 3.079 2.97 7.706 3.652 11.51 1.698l28.862-14.821 7.115 11.265c1.648 2.61 4.409 4.312 7.481 4.613 3.067.295 6.11-.834 8.233-3.075l12.9-13.617 31.368 15.684c1.421.71 2.951 1.056 4.469 1.056 2.553 0 5.073-.977 6.984-2.84 3.049-2.973 3.881-7.549 2.074-11.404l-25.769-54.973c7.796-2.328 15.369-5.403 22.564-9.213 2.36-1.25 4.09-3.34 4.88-5.89s.53-5.26-.72-7.62c-1.73-3.29-5.12-5.33-8.84-5.33-1.62 0-3.23.4-4.66 1.16-.01 0-.01 0-.01 0-15.2 8.03-31.69 12.11-49 12.11-28.03 0-54.4-10.93-74.25-30.75-19.818-19.85-30.738-46.21-30.748-74.25v-134c.01-28.04 10.93-54.4 30.75-74.25 19.85-19.82 46.22-30.75 74.25-30.75 28.04 0 54.4 10.93 74.25 30.75 14.304 14.326 23.976 32.044 28.252 51.336-17.497 1.084-31.986 13.459-36.236 29.914h-21.266c-11.028 0-20 8.972-20 20v70c0 27.57 22.43 50 50 50h29.189c-.768 6.227-2.075 12.363-3.939 18.34-1.65 5.26 1.3 10.88 6.56 12.53.97.3 1.98.45 2.98.45 4.4 0 8.24-2.82 9.55-7.02 3.75-12.03 5.66-24.58 5.66-37.3v-134c0-16.88-3.31-33.25-9.83-48.66zm-96.198 333.715c-3.939-1.969-8.703-1.129-11.732 2.067l-9.154 9.663-5.131-8.125c-1.891-2.994-5.129-4.662-8.462-4.662-1.542 0-3.104.357-4.561 1.106l-10.947 5.621 14.871-31.725h32.287l15.086 32.185zm-35.116-410.055-15.086-32.184 12.258 6.129c3.94 1.97 8.703 1.129 11.732-2.067l9.154-9.663 5.131 8.125c2.766 4.379 8.417 5.922 13.023 3.556l10.947-5.621-14.871 31.725zm61.144 222v-70h30c5.523 0 10-4.477 10-10 0-11.012 8.993-19.973 20-19.998.028.998 0 49.998 0 49.998h-30c-5.523 0-10 4.477-10 10s4.477 10 10 10h30v20h-30c-5.523 0-10 4.477-10 10s4.477 10 10 10h30v20h-30c-16.542 0-30-13.458-30-30z"/><circle cx="344.388" cy="396.57" r="10"/></g></g></svg>