<svg id="Capa_1" enable-background="new 0 0 512 512" height="512" viewBox="0 0 512 512" width="512" xmlns="http://www.w3.org/2000/svg"><g><g fill="#e2e9ee"><path d="m301 326h-90v-15c0-13.807 11.193-25 25-25h40c13.807 0 25 11.193 25 25z"/><path d="m276 502h-40c-13.807 0-25-11.193-25-25v-15h90v15c0 13.807-11.193 25-25 25z"/><path d="m276 286h-40v-256c0-11.046 8.954-20 20-20 11.046 0 20 8.954 20 20z"/><path d="m141 150-20-20 20-20-20-20 20-20-20-20 20-20h40v120z"/><path d="m371 30 20 20-20 20 20 20-20 20 20 20-20 20h-40v-120z"/></g><path d="m301 462h-90c0-11.05 20-30.44 20-68s-20-57-20-68h90c0 11.05-20 30.44-20 68s20 57.062 20 68z" fill="#dd9366"/><path d="m331 30v120h-24.703c-7.369 0-14.304-3.969-17.624-10.548-6.327-12.535-23.945-14.452-32.673-14.452s-26.346 1.917-32.672 14.452c-3.32 6.579-10.255 10.548-17.624 10.548h-24.704v-120h24.703c7.369 0 14.304 3.969 17.624 10.548 6.327 12.535 23.945 14.452 32.673 14.452s26.346-1.917 32.672-14.452c3.321-6.579 10.255-10.548 17.625-10.548z" fill="#fff"/><g><circle cx="276" cy="216.14" r="10"/><path d="m398.071 82.929-12.929-12.929 12.929-12.929c3.905-3.905 3.905-10.237 0-14.143l-20-20c-1.875-1.874-4.419-2.928-7.071-2.928h-64.704c-7.783 0-14.997 2.876-20.38 7.856-.506-7.204-3.545-13.914-8.706-19.066-5.66-5.67-13.19-8.79-21.21-8.79s-15.55 3.12-21.21 8.79c-5.161 5.151-8.2 11.862-8.706 19.066-5.383-4.98-12.598-7.856-20.38-7.856h-64.704c-2.652 0-5.196 1.054-7.071 2.929l-20 20c-3.905 3.905-3.905 10.237 0 14.143l12.929 12.928-12.929 12.929c-3.905 3.905-3.905 10.237 0 14.143l12.929 12.928-12.929 12.929c-3.905 3.905-3.905 10.237 0 14.143l20 20c1.875 1.875 4.419 2.929 7.071 2.929h64.704c7.743 0 14.922-2.85 20.296-7.783v125.246c-14.44 4.314-25 17.712-25 33.537v15c0 6.236 2.971 12.143 6.732 19.622 5.6 11.132 13.268 26.379 13.268 48.377 0 21.979-7.66 37.208-13.253 48.328-3.77 7.494-6.747 13.413-6.747 19.672v15c0 19.299 15.701 35 35 35h40c19.299 0 35-15.701 35-35v-15c0-6.207-2.963-12.099-6.714-19.559-5.607-11.149-13.286-26.419-13.286-48.441 0-21.979 7.66-37.208 13.253-48.328 3.77-7.494 6.747-13.413 6.747-19.672v-15c0-15.824-10.56-29.223-25-33.537v-16.323c0-5.51-4.49-10-10-10s-10 4.49-10 10v14.86h-20v-140.048c3.284-.656 16.716-.656 20 0v35.188c0 5.52 4.49 10 10 10s10-4.48 10-10v-18.922c5.374 4.933 12.553 7.783 20.296 7.783h64.704c2.652 0 5.196-1.054 7.071-2.929l20-20c3.905-3.905 3.905-10.237 0-14.143l-12.929-12.929 12.929-12.929c3.905-3.905 3.905-10.237 0-14.142zm-152.071-52.929c.01-5.5 4.5-9.99 10-10 5.5.01 9.99 4.5 10 10v14.048c-3.284.656-16.716.656-20 0zm-75 110h-25.858l-10-10 12.929-12.929c3.905-3.905 3.905-10.237 0-14.143l-12.929-12.928 12.929-12.929c3.905-3.905 3.905-10.237 0-14.143l-12.929-12.928 10-10h25.858zm120 337c0 8.271-6.729 15-15 15h-40c-8.271 0-15-6.729-15-15v-5h70zm-65.72-141c-.052-.104 61.507-.112 61.451 0-6.127 12.181-15.731 31.275-15.731 58 0 26.769 9.566 45.792 15.706 58 0 0-61.492.112-61.437 0 6.127-12.181 15.731-31.275 15.731-58 0-26.744-9.587-45.807-15.72-58zm50.72-40c8.271 0 15 6.729 15 15v5h-70v-5c0-8.271 6.729-15 15-15zm45-156h-14.704c-3.734 0-7.147-1.983-8.696-5.053-9.085-18.003-32.119-19.947-41.6-19.947s-32.515 1.944-41.6 19.947c-1.549 3.07-4.962 5.053-8.696 5.053h-14.704v-100h14.704c3.734 0 7.147 1.983 8.696 5.053 9.086 18.003 32.119 19.947 41.6 19.947s32.514-1.944 41.6-19.947c1.549-3.07 4.962-5.053 8.696-5.053h14.704zm42.929-62.929 12.929 12.929-12.929 12.929c-3.905 3.905-3.905 10.237 0 14.143l12.929 12.928-10 10h-25.858v-100h25.858l10 10-12.929 12.929c-3.905 3.905-3.905 10.237 0 14.142z"/></g></g></svg>