<svg id="Capa_1" enable-background="new 0 0 512 512" height="512" viewBox="0 0 512 512" width="512" xmlns="http://www.w3.org/2000/svg"><g><path d="m316 300h-100c-11.046 0-20-8.954-20-20 0-11.046 8.954-20 20-20h100c11.046 0 20 8.954 20 20 0 11.046-8.954 20-20 20z" fill="#ffbe90"/><path d="m236 300h60v40h-60z" fill="#ffe6b4"/><path d="m266 470s-30-96.646-30-130h60c0 33.354-30 130-30 130z" fill="#ffe6b4"/><path d="m216 50h100v210h-100z" fill="#ffbe90"/><path d="m316 50h-100c-11.046 0-20-8.954-20-20 0-11.046 8.954-20 20-20h100c11.046 0 20 8.954 20 20 0 11.046-8.954 20-20 20z" fill="#ffbe90"/><path d="m176 180h40v40h-40z" fill="#ffe6b4"/><g><path d="m326 251.72v-26.72c0-5.51-4.49-10-10-10s-10 4.49-10 10v25h-80v-190h80v75c0 5.51 4.49 10 10 10s10-4.49 10-10v-76.72c11.639-4.128 20-15.243 20-28.28 0-16.542-13.458-30-30-30h-100c-16.542 0-30 13.458-30 30 0 13.036 8.361 24.152 20 28.28v111.72h-30c-5.523 0-10 4.477-10 10v40c0 5.523 4.477 10 10 10h30v21.72c-11.639 4.128-20 15.243-20 28.28 0 16.542 13.458 30 30 30h10v30c0 32.59 26.096 118.796 30 131.506v30.494c0 5.523 4.477 10 10 10s10-4.477 10-10v-30.494c3.904-12.71 30-98.916 30-131.506v-30h10c16.542 0 30-13.458 30-30 0-13.036-8.361-24.152-20-28.28zm-110-231.72h100c5.514 0 10 4.486 10 10s-4.486 10-10 10h-100c-5.514 0-10-4.486-10-10s4.486-10 10-10zm-30 190v-20h20v20zm80 224.466c-7.378-26.241-16.75-62.295-19.322-84.466h38.644c-2.572 22.171-11.944 58.226-19.322 84.466zm20-104.466h-40v-20h40zm30-40h-100c-5.514 0-10-4.486-10-10s4.486-10 10-10h100c5.514 0 10 4.486 10 10s-4.486 10-10 10z"/><circle cx="316" cy="180" r="10"/></g></g></svg>