<svg id="Capa_1" enable-background="new 0 0 512 512" height="512" viewBox="0 0 512 512" width="512" xmlns="http://www.w3.org/2000/svg"><g><path d="m10 10v145c0 22.091 17.909 40 40 40h412c22.091 0 40-17.909 40-40v-145z" fill="#d0f2d2"/><path d="m106 10h300v120h-300z" fill="#ffe6b4"/><path d="m56 195s3.133 28.297 0 37c-2.438 6.773-10 12.092-10 27s10 27 10 27 10 12.092 10 27-10 27-10 27-10 12.092-10 27 10 27 10 27 10 12.092 10 27-10 27-10 27-10 12.092-10 27 10 27 10 27h400s10-12.092 10-27-10-27-10-27-10-12.092-10-27 10-27 10-27 10-12.092 10-27-10-27-10-27-10-12.092-10-27 10-27 10-27 10-12.092 10-27-7.562-20.227-10-27c-3.133-8.703 0-37 0-37z" fill="#fff"/><path d="m296.355 408.043c16.083-17.351 27.937-27.668 56.448-25.597 11.393.827 24.547 3.716 36.273-6.98 8.772-8.002 12.964-17.832 12.924-28.531s-8.477-22.266-17.102-30.41c-41.474-39.161-108.434-70.525-169.016-70.525-58.477 0-105.882 44.772-105.882 100s47.405 100 105.882 100c39.872 0 63.34-19.474 80.473-37.957z" fill="#ff7b79"/><circle cx="256" cy="70" fill="#fff" r="20"/><circle cx="198" cy="346" fill="#fff" r="20"/><g><circle cx="502" cy="90.21" r="10"/><path d="m509.07 2.93c-1.86-1.86-4.44-2.93-7.07-2.93h-492c-2.63 0-5.21 1.07-7.07 2.93s-2.93 4.44-2.93 7.07v145c0 6.75 1.32 13.3 3.93 19.46 2.52 5.96 6.12 11.3 10.72 15.89 4.59 4.6 9.93 8.2 15.89 10.72 5.197 2.202 10.674 3.474 16.312 3.822.775 10.931.724 20.985-.262 23.722-.375 1.042-1.297 2.497-2.365 4.18-3.274 5.166-8.225 12.974-8.225 26.206 0 17.988 11.035 31.851 12.294 33.373.077.093 7.706 9.626 7.706 20.627 0 10.977-7.662 20.571-7.706 20.627-1.259 1.522-12.294 15.385-12.294 33.373s11.035 31.851 12.294 33.373c.077.093 7.706 9.626 7.706 20.627 0 10.977-7.662 20.571-7.706 20.627-1.259 1.522-12.294 15.385-12.294 33.373s11.035 31.851 12.294 33.373c1.899 2.297 4.725 3.627 7.706 3.627h400c2.981 0 5.807-1.33 7.706-3.627 1.259-1.522 12.294-15.385 12.294-33.373s-11.035-31.851-12.294-33.373c-.077-.093-7.706-9.626-7.706-20.627 0-10.977 7.662-20.571 7.706-20.627 1.259-1.522 12.294-15.385 12.294-33.373s-11.035-31.851-12.294-33.373c-.077-.093-7.706-9.626-7.706-20.627 0-10.977 7.662-20.571 7.706-20.627 1.259-1.522 12.294-15.385 12.294-33.373 0-13.232-4.951-21.04-8.226-26.206-1.067-1.684-1.99-3.138-2.365-4.181-.985-2.737-1.037-12.79-.262-23.721 5.638-.348 11.115-1.62 16.312-3.822 5.96-2.52 11.3-6.12 15.89-10.72 4.6-4.59 8.2-9.93 10.72-15.89 2.61-6.16 3.93-12.71 3.93-19.46v-19.79c0-5.51-4.49-10-10-10s-10 4.49-10 10v19.79c-.03 16.51-13.49 29.97-30 30h-411.999c-16.51-.03-29.97-13.49-30-30v-135h76v110c0 5.523 4.477 10 10 10h300c5.523 0 10-4.477 10-10v-110h76v25.21c0 5.52 4.49 10 10 10s10-4.48 10-10c0 0 0 0 0-.01v-35.2c0-2.63-1.07-5.21-2.93-7.07zm-447.953 240.573c1.559-2.458 3.17-5 4.292-8.117 2.472-6.869 2.195-20.262 1.514-30.387h378.153c-.681 10.125-.958 23.518 1.514 30.386 1.122 3.118 2.733 5.659 4.292 8.117 2.746 4.331 5.117 8.07 5.117 15.497 0 10.977-7.662 20.571-7.706 20.627-1.258 1.523-12.293 15.386-12.293 33.374s11.035 31.851 12.294 33.373c.077.093 7.706 9.626 7.706 20.627 0 10.977-7.662 20.571-7.706 20.627-1.259 1.522-12.294 15.385-12.294 33.373s11.035 31.851 12.294 33.373c.077.093 7.706 9.626 7.706 20.627 0 6.878-3.008 13.214-5.266 17h-389.476c-2.257-3.778-5.258-10.1-5.258-17 0-10.977 7.662-20.571 7.706-20.627 1.259-1.522 12.294-15.385 12.294-33.373s-11.035-31.851-12.294-33.373c-.077-.093-7.706-9.626-7.706-20.627 0-10.977 7.662-20.571 7.706-20.627 1.259-1.522 12.294-15.385 12.294-33.373s-11.035-31.851-12.294-33.373c-.077-.093-7.706-9.626-7.706-20.627 0-7.426 2.371-11.166 5.117-15.497zm334.883-123.503h-280v-100h280z"/><path d="m215.882 456c44.011 0 70.044-21.997 87.806-41.16 15.661-16.896 27.015-23.943 50.436-22.244 11.015 1.026 28.148 2.61 41.69-9.744 10.64-9.706 16.236-22.139 16.185-35.955-.06-16.185-12.704-30.532-20.236-37.644-21.657-20.449-50.155-38.866-80.244-51.857-32.418-13.997-65.489-21.396-95.637-21.396-63.898 0-115.882 49.346-115.882 110s51.984 110 115.882 110zm0-200c54.041 0 119.204 27.245 162.15 67.795 8.592 8.113 13.944 16.994 13.967 23.177.03 8.127-3.221 15.228-9.663 21.105-6.672 6.086-15.833 5.589-26.559 4.589-32.908-2.39-49.743 10.223-66.757 28.578-15.93 17.187-37.077 34.756-73.138 34.756-52.869 0-95.882-40.374-95.882-90s43.013-90 95.882-90z"/><path d="m256 100c16.542 0 30-13.458 30-30s-13.458-30-30-30-30 13.458-30 30 13.458 30 30 30zm0-40c5.514 0 10 4.486 10 10s-4.486 10-10 10-10-4.486-10-10 4.486-10 10-10z"/><circle cx="321" cy="70" r="10"/><circle cx="366" cy="70" r="10"/><circle cx="191" cy="70" r="10"/><circle cx="146" cy="70" r="10"/><path d="m101.997 261c2.712 0 5.415-1.097 7.387-3.257 4.526-4.956 9.804-9.64 16.612-14.74 4.42-3.312 5.318-9.579 2.007-13.999-3.311-4.419-9.579-5.318-13.999-2.007-7.835 5.871-13.996 11.355-19.388 17.26-3.724 4.078-3.437 10.403.641 14.127 1.918 1.752 4.332 2.616 6.74 2.616z"/><path d="m132.564 453.048c-5.181-3.951-10.146-8.632-15.625-14.731-3.691-4.109-10.013-4.448-14.122-.757-4.108 3.691-4.447 10.014-.757 14.122 6.336 7.053 12.175 12.541 18.375 17.269 1.811 1.381 3.942 2.049 6.057 2.049 3.013 0 5.991-1.356 7.959-3.937 3.35-4.391 2.505-10.666-1.887-14.015z"/><path d="m198 376c16.542 0 30-13.458 30-30s-13.458-30-30-30-30 13.458-30 30 13.458 30 30 30zm0-40c5.514 0 10 4.486 10 10s-4.486 10-10 10-10-4.486-10-10 4.486-10 10-10z"/><path d="m366.586 417.278c-1.616-.834-16.202-8.006-30.355-3.042-14.291 5.016-20.773 19.761-21.465 21.426-2.12 5.1.282 10.984 5.382 13.104 1.262.525 2.569.773 3.854.773 3.908 0 7.609-2.3 9.205-6.137.98-2.266 4.623-8.531 9.646-10.294 5.121-1.797 12.45.888 14.56 1.943 4.908 2.534 10.939.608 13.473-4.3 2.533-4.909.608-10.94-4.3-13.473z"/><path d="m328.917 241.128c24.716 11.056 47.691 25.7 66.443 42.35 1.905 1.691 4.275 2.522 6.636 2.522 2.759 0 5.505-1.135 7.481-3.36 3.667-4.13 3.292-10.451-.838-14.118-20.258-17.987-45.002-33.772-71.557-45.65-5.042-2.255-10.957.004-13.211 5.045s.004 10.957 5.046 13.211z"/></g></g></svg>