<svg id="Capa_1" enable-background="new 0 0 512 512" height="512" viewBox="0 0 512 512" width="512" xmlns="http://www.w3.org/2000/svg"><g><path d="m378.5 456h-265l-20-40h305z" fill="#ccf5fc"/><path d="m398.5 416h-305s-83.503-50-83.5-90h472c.003 40-83.5 90-83.5 90z" fill="#ccf5fc"/><path d="m446 326h-400v-70c0-11.046 8.954-20 20-20h360c11.046 0 20 8.954 20 20z" fill="#dd9366"/><path d="m426 146h-360c-11.046 0-20-8.954-20-20v-50c0-11.046 8.954-20 20-20h360c11.046 0 20 8.954 20 20v50c0 11.046-8.954 20-20 20z" fill="#dd9366"/><path d="m482 236h-360c-11.046 0-20-8.954-20-20v-50c0-11.046 8.954-20 20-20h360c11.046 0 20 8.954 20 20v50c0 11.046-8.954 20-20 20z" fill="#ffbe90"/><g><path d="m482 136h-27.72c1.11-3.13 1.72-6.494 1.72-10v-50c0-16.542-13.458-30-30-30h-360c-16.542 0-30 13.458-30 30v50c0 16.542 13.458 30 30 30h27.72c-1.11 3.13-1.72 6.494-1.72 10v50c0 3.506.61 6.87 1.72 10h-27.72c-16.542 0-30 13.458-30 30v60h-26c-2.63 0-5.21 1.07-7.07 2.93s-2.93 4.44-2.93 7.07c.01 6.26 1.46 12.6 4.43 19.37 4.19 9.48 11.1 19.24 21.13 29.86 21.24 22.369 49.353 40.936 60.259 47.77l18.736 37.473c1.694 3.388 5.157 5.528 8.944 5.528h265c3.788 0 7.25-2.14 8.944-5.528l18.726-37.453c2.629-1.645 7.151-4.54 12.849-8.449 2.2-1.51 3.681-3.79 4.17-6.42.49-2.63-.08-5.28-1.59-7.49-1.859-2.71-4.95-4.34-8.25-4.34-2.02 0-3.97.61-5.64 1.76-.01 0-11.58 7.63-12.04 7.92h-299.338c-5.41-3.39-24.36-15.58-41.93-30.88-10.41-9.05-18.95-18.04-24.69-25.98-3.31-4.53-5.84-8.95-7.52-13.14h447.629c-.449 1.11-.96 2.25-1.529 3.4-2.46 4.94-.44 10.95 4.5 13.41 1.39.69 2.89 1.04 4.439 1.04 3.83 0 7.261-2.12 8.96-5.54 3.9-7.86 5.801-15.15 5.811-22.31 0-2.63-1.07-5.21-2.931-7.07-1.859-1.861-4.439-2.931-7.069-2.931h-26v-60c0-3.506-.61-6.87-1.72-10h27.72c16.542 0 30-13.458 30-30v-50c0-16.542-13.458-30-30-30zm-99.681 290-10 20h-252.639l-10-20zm-326.279-299.203 28.927-22.965c4.325-3.434 5.048-9.724 1.614-14.05-3.434-4.325-9.724-5.048-14.05-1.614l-16.531 13.125v-25.293c0-5.514 4.486-10 10-10h85.694l16.998 21.247c1.975 2.469 4.881 3.753 7.815 3.753 2.19 0 4.397-.717 6.241-2.192 4.312-3.45 5.012-9.743 1.562-14.056l-7.004-8.752h158.387l16.998 21.247c1.976 2.469 4.881 3.753 7.815 3.753 2.19 0 4.396-.717 6.24-2.192 4.312-3.45 5.012-9.743 1.562-14.056l-7.002-8.752h64.694c5.245 0 9.551 4.061 9.96 9.203l-28.927 22.965c-4.325 3.434-5.048 9.724-1.614 14.05 1.975 2.487 4.893 3.783 7.839 3.783 2.178 0 4.372-.709 6.211-2.168l16.531-13.126v25.293c0 5.514-4.486 10-10 10h-99.492l2.739-2.191c4.312-3.45 5.012-9.743 1.562-14.056-3.45-4.311-9.741-5.012-14.056-1.562l-22.261 17.809h-151.984l2.739-2.191c4.312-3.45 5.012-9.743 1.562-14.056-3.45-4.312-9.742-5.012-14.056-1.562l-22.261 17.809h-44.492c-5.245 0-9.551-4.061-9.96-9.203zm379.92 128.406-28.927 22.965c-4.325 3.434-5.048 9.724-1.614 14.05 1.975 2.487 4.893 3.783 7.839 3.783 2.178 0 4.372-.709 6.211-2.168l16.531-13.126v35.293h-109.492l2.739-2.191c4.312-3.45 5.012-9.743 1.562-14.056-3.45-4.312-9.741-5.012-14.056-1.562l-22.261 17.809h-151.984l2.739-2.191c4.312-3.45 5.012-9.743 1.562-14.056-3.45-4.312-9.742-5.012-14.056-1.562l-22.261 17.809h-54.492v-9.171l28.968-22.997c4.325-3.434 5.048-9.724 1.614-14.05-3.434-4.325-9.724-5.047-14.05-1.614l-16.532 13.125v-25.293c0-5.514 4.486-10 10-10h85.694l16.998 21.247c1.975 2.469 4.881 3.753 7.815 3.753 2.19 0 4.397-.717 6.241-2.192 4.312-3.45 5.012-9.743 1.562-14.056l-7.004-8.752h158.387l16.998 21.247c1.976 2.469 4.881 3.753 7.815 3.753 2.19 0 4.396-.717 6.24-2.192 4.312-3.45 5.012-9.743 1.562-14.056l-7.002-8.752h64.694c5.245 0 9.551 4.061 9.96 9.203zm46.04-29.203h-99.492l2.739-2.191c4.312-3.45 5.012-9.743 1.562-14.056-3.449-4.311-9.74-5.012-14.056-1.562l-22.261 17.809h-151.984l2.739-2.191c4.312-3.45 5.012-9.743 1.562-14.056-3.451-4.312-9.742-5.012-14.056-1.562l-22.261 17.809h-44.492c-5.245 0-9.551-4.061-9.96-9.203l28.927-22.965c4.325-3.434 5.048-9.724 1.614-14.05-3.434-4.325-9.724-5.048-14.05-1.614l-16.531 13.125v-25.293c0-5.514 4.486-10 10-10h90.694l16.998 21.247c1.975 2.469 4.881 3.753 7.815 3.753 2.19 0 4.397-.717 6.241-2.192 4.312-3.45 5.012-9.743 1.562-14.056l-7.004-8.752h153.387l16.998 21.247c1.976 2.469 4.881 3.753 7.815 3.753 2.19 0 4.396-.717 6.24-2.192 4.312-3.45 5.012-9.743 1.562-14.056l-7.002-8.752h64.694c5.245 0 9.551 4.061 9.959 9.203l-28.927 22.965c-4.325 3.434-5.048 9.724-1.614 14.05 1.975 2.487 4.893 3.783 7.839 3.783 2.178 0 4.372-.709 6.211-2.168l16.532-13.126v25.293c0 5.514-4.486 10-10 10z"/><path d="m239.256 116c2.19 0 4.397-.717 6.241-2.192l12.5-10c4.312-3.45 5.012-9.743 1.562-14.056-3.451-4.312-9.742-5.012-14.056-1.562l-12.5 10c-4.312 3.45-5.012 9.743-1.562 14.056 1.976 2.47 4.882 3.754 7.815 3.754z"/><path d="m312.503 178.191-12.5 10c-4.312 3.45-5.012 9.743-1.562 14.056 1.976 2.469 4.881 3.753 7.815 3.753 2.19 0 4.396-.717 6.24-2.192l12.5-10c4.312-3.45 5.012-9.743 1.562-14.056-3.45-4.311-9.741-5.011-14.055-1.561z"/><path d="m245.503 268.191-12.5 10c-4.312 3.45-5.012 9.743-1.562 14.056 1.975 2.469 4.881 3.753 7.815 3.753 2.19 0 4.397-.717 6.241-2.192l12.5-10c4.312-3.45 5.012-9.743 1.562-14.056-3.451-4.312-9.743-5.011-14.056-1.561z"/><circle cx="448.808" cy="378.51" r="10"/></g></g></svg>