<svg id="Capa_1" enable-background="new 0 0 512 512" height="512" viewBox="0 0 512 512" width="512" xmlns="http://www.w3.org/2000/svg"><g><path d="m382.117 489-237.12-199.064 102.701-122.454 206.54 173.392c16.891 14.18 19.094 39.368 4.922 56.266z" fill="#e2e9ee"/><path d="m160.784 128.112h49.944v39.948h-49.944z" fill="#fff" transform="matrix(.643 -.766 .766 .643 -47.098 195.14)"/><path d="m199.584 149.971h39.955v39.948h-39.955z" fill="#e2e9ee" transform="matrix(.643 -.766 .766 .643 -51.77 228.836)"/><path d="m90.031 16.282h49.944v144.813h-49.944z" fill="#dd9366" transform="matrix(.643 -.766 .766 .643 -26.866 119.744)"/><path d="m10 449h492v40h-492z" fill="#ffe6b4"/><ellipse cx="400.411" cy="373.937" fill="#fff" rx="19.998" ry="19.998" transform="matrix(.612 -.791 .791 .612 -140.314 462.113)"/><g><path d="m375.74 288.029c1.8 1.51 4.08 2.34 6.43 2.34 2.96 0 5.76-1.3 7.66-3.57 1.72-2.04 2.54-4.63 2.3-7.3-.23-2.66-1.48-5.07-3.53-6.79-1.8-1.5-4.08-2.34-6.42-2.34-2.97 0-5.76 1.31-7.67 3.57-3.54 4.231-2.99 10.55 1.23 14.09z"/><path d="m502 439h-64.894l29.714-35.43c7.54-8.99 11.69-20.38 11.68-32.08.01-14.81-6.49-28.76-17.83-38.27l-37.6-31.57c-1.8-1.51-4.08-2.34-6.43-2.34-2.96 0-5.76 1.3-7.66 3.57-3.55 4.22-3 10.54 1.23 14.09h.01l37.59 31.56c6.78 5.7 10.68 14.07 10.69 22.96-.01 7.12-2.43 13.76-7 19.23l-40.498 48.28h-10.75l-192.554-161.651c-4.23-3.552-10.538-3.001-14.088 1.229-3.551 4.23-3.001 10.538 1.229 14.088l174.308 146.334h-31.04l-179.027-150.3 89.852-107.128 92.348 77.528c1.8 1.51 4.08 2.34 6.42 2.34 2.97 0 5.76-1.3 7.67-3.57 3.54-4.22 2.99-10.54-1.23-14.09l-272.116-228.439c-2.032-1.706-4.659-2.532-7.301-2.303-2.643.231-5.085 1.503-6.791 3.536l-32.094 38.266c-3.548 4.23-2.996 10.535 1.232 14.085l141.507 118.796c1.808 1.518 4.523 2.322 6.865 2.322 2.651.019 5.511-1.518 7.216-3.543l15.281 12.829-70.61 84.18c-3.54 4.22-2.99 10.54 1.24 14.09l168.437 141.401h-297.006c-5.523 0-10 4.477-10 10v40c0 5.523 4.477 10 10 10h492c5.523 0 10-4.477 10-10v-40c0-5.523-4.477-10-10-10zm-444.415-378.966 19.242-22.943 95.593 80.251-19.242 22.943zm126.189 105.937-15.278-12.826 19.242-22.943 15.278 12.826zm21.737 5.206 12.823-15.289 15.278 12.826-12.823 15.289zm286.489 307.823h-472v-20h472z"/><path d="m383.205 398.51c5.226 3.659 11.222 5.415 17.164 5.415 9.464 0 18.787-4.458 24.615-12.782 4.596-6.564 6.361-14.524 4.969-22.416-1.391-7.891-5.772-14.768-12.336-19.364-13.549-9.487-32.292-6.183-41.78 7.367-4.596 6.563-6.361 14.524-4.969 22.416s5.773 14.769 12.337 19.364zm9.015-30.307c1.943-2.774 5.05-4.26 8.205-4.26 1.98 0 3.979.585 5.721 1.805 4.516 3.162 5.618 9.409 2.456 13.925-3.163 4.517-9.41 5.617-13.925 2.456-2.188-1.532-3.648-3.824-4.112-6.455s.123-5.284 1.655-7.471z"/></g></g></svg>