<svg id="Capa_1" enable-background="new 0 0 512 512" height="512" viewBox="0 0 512 512" width="512" xmlns="http://www.w3.org/2000/svg"><g><path d="m236 282h40v400h-40z" fill="#e0c9ed" transform="matrix(0 1 -1 0 738 226)"/><path d="m236-64h40v400h-40z" fill="#e0c9ed" transform="matrix(0 1 -1 0 392 -120)"/><path d="m103 129h306v360h-306z" fill="#fff" transform="matrix(0 1 -1 0 565 53)"/><g fill="#ff7b79"><path d="m376 422c-11.046 0-20-8.954-20-20v-186c0-11.046 8.954-20 20-20 11.046 0 20 8.954 20 20v186c0 11.046-8.954 20-20 20z"/><path d="m296 422c-11.046 0-20-8.954-20-20v-186c0-11.046 8.954-20 20-20 11.046 0 20 8.954 20 20v186c0 11.046-8.954 20-20 20z"/><path d="m216 422c-11.046 0-20-8.954-20-20v-186c0-11.046 8.954-20 20-20 11.046 0 20 8.954 20 20v186c0 11.046-8.954 20-20 20z"/><path d="m136 422c-11.046 0-20-8.954-20-20v-186c0-11.046 8.954-20 20-20 11.046 0 20 8.954 20 20v186c0 11.046-8.954 20-20 20z"/></g><g><path d="m446 166h10c5.523 0 10-4.477 10-10v-40c0-5.523-4.477-10-10-10h-30v-96c0-5.523-4.477-10-10-10s-10 4.477-10 10v96h-60v-96c0-5.523-4.477-10-10-10s-10 4.477-10 10v96h-60v-96c0-5.523-4.477-10-10-10s-10 4.477-10 10v96h-60v-96c0-5.523-4.477-10-10-10s-10 4.477-10 10v96h-60v-96c0-5.523-4.477-10-10-10s-10 4.477-10 10v96h-30c-5.523 0-10 4.477-10 10v40c0 5.523 4.477 10 10 10h10v286h-10c-5.523 0-10 4.478-10 10v40c0 5.522 4.477 10 10 10h400c5.523 0 10-4.478 10-10v-40c0-5.522-4.477-10-10-10h-10v-53c0-5.51-4.49-10-10-10s-10 4.49-10 10v53h-340v-286h340v143c0 5.51 4.49 10 10 10s10-4.49 10-10zm0 306v20h-380v-20zm-380-326v-20h380v20z"/><circle cx="436" cy="354" r="10"/><path d="m346 216v186c0 16.542 13.458 30 30 30s30-13.458 30-30v-186c0-16.542-13.458-30-30-30s-30 13.458-30 30zm40 0v186c0 5.514-4.486 10-10 10s-10-4.486-10-10v-186c0-5.514 4.486-10 10-10s10 4.486 10 10z"/><path d="m266 216v186c0 16.542 13.458 30 30 30s30-13.458 30-30v-186c0-16.542-13.458-30-30-30s-30 13.458-30 30zm40 0v186c0 5.514-4.486 10-10 10s-10-4.486-10-10v-186c0-5.514 4.486-10 10-10s10 4.486 10 10z"/><path d="m186 216v186c0 16.542 13.458 30 30 30s30-13.458 30-30v-186c0-16.542-13.458-30-30-30s-30 13.458-30 30zm40 0v186c0 5.514-4.486 10-10 10s-10-4.486-10-10v-186c0-5.514 4.486-10 10-10s10 4.486 10 10z"/><path d="m106 216v186c0 16.542 13.458 30 30 30s30-13.458 30-30v-186c0-16.542-13.458-30-30-30s-30 13.458-30 30zm40 0v186c0 5.514-4.486 10-10 10s-10-4.486-10-10v-186c0-5.514 4.486-10 10-10s10 4.486 10 10z"/></g></g></svg>