<svg id="Capa_1" enable-background="new 0 0 512 512" height="512" viewBox="0 0 512 512" width="512" xmlns="http://www.w3.org/2000/svg"><g><path d="m406 502h-300v-247l70-83h160l70 83z" fill="#ffe6b4"/><path d="m223.86 324.828c-10.278-13.33-10.818-30.793-3.055-44.331 5.244-9.145 5.521-20.281.353-29.468-6.555-9.286-4.086-22.162 5.585-28.383 9.212-5.926 21.569-3.185 27.866 5.736l34.563 48.964c13.054 18.494 8.214 44.106-10.926 56.608-17.599 11.495-41.585 7.477-54.386-9.126z" fill="#ff7b79"/><g><circle cx="406" cy="375.85" r="10"/><path d="m215.941 330.935c9.849 12.773 24.907 19.58 40.163 19.58 9.536 0 19.149-2.661 27.612-8.188 11.546-7.542 19.322-19.112 21.895-32.58 2.565-13.426-.371-26.98-8.268-38.167l-34.563-48.964c-9.539-13.512-27.743-17.193-41.446-8.379-6.987 4.495-11.706 11.438-13.285 19.552-1.536 7.892.095 15.858 4.592 22.504 3.184 5.95 3.002 13.107-.509 19.23-10.084 17.582-8.589 39.332 3.809 55.412zm13.66-85.241c-1.586-2.247-2.444-5.396-1.921-8.084.527-2.709 2.116-5.037 4.474-6.553 4.589-2.952 10.999-1.565 14.287 3.093l34.563 48.964c4.737 6.71 6.499 14.836 4.962 22.88-1.545 8.086-6.228 15.043-13.187 19.588-13.317 8.698-31.327 5.686-40.999-6.859-7.444-9.654-8.346-22.706-2.299-33.251 7.121-12.418 6.995-27.559.12-39.778z"/><path d="m261.735 308.191c4.524-3.167 5.623-9.403 2.456-13.926-3.167-4.524-9.402-5.623-13.926-2.456s-5.623 9.403-2.456 13.926c3.168 4.524 9.403 5.623 13.926 2.456z"/><path d="m196 402c-5.523 0-10 4.478-10 10v20c0 16.542 13.458 30 30 30h80c16.542 0 30-13.458 30-30v-20c0-5.522-4.477-10-10-10s-10 4.478-10 10v20c0 5.514-4.486 10-10 10h-80c-5.514 0-10-4.486-10-10v-20c0-5.522-4.477-10-10-10z"/><path d="m336.5 290c-5.523 0-10 4.477-10 10s4.477 10 10 10h29.5c5.523 0 10-4.477 10-10s-4.477-10-10-10z"/><path d="m146 290c-5.523 0-10 4.477-10 10s4.477 10 10 10h29.5c5.523 0 10-4.477 10-10s-4.477-10-10-10z"/><path d="m511.12 374.569c-2.261-5.038-8.179-7.291-13.218-5.027-.036.015-3.974 1.435-8.828-.737-5.009-2.241-12.205-8.773-18.045-27.169-8.605-27.106-25.739-39.728-38.598-45.544-6.143-2.778-11.864-4.293-16.431-5.119v-35.973c0-2.35-.84-4.64-2.35-6.45l-70.01-83c-1.87-2.22-4.73-3.55-7.64-3.55h-12.5v-94.5c0-37.22-30.28-67.5-67.5-67.5s-67.5 30.28-67.5 67.5v94.5h-12.5c-2.91 0-5.77 1.33-7.64 3.55l-70.01 83c-1.51 1.8-2.35 4.09-2.35 6.45v35.973c-4.568.826-10.288 2.341-16.431 5.119-12.858 5.816-29.993 18.438-38.598 45.544-5.84 18.396-13.036 24.928-18.045 27.169-4.854 2.172-8.792.752-8.828.737-5.04-2.264-10.957-.011-13.218 5.027-2.262 5.039-.012 10.957 5.027 13.218.745.335 5.216 2.213 11.608 2.213 3.938 0 8.605-.712 13.58-2.938 12.715-5.688 22.452-18.936 28.939-39.373 7.953-25.054 25.08-33.46 35.966-36.277v190.588c0 2.63 1.07 5.21 2.93 7.069 1.86 1.86 4.44 2.931 7.07 2.931h300c2.63 0 5.21-1.07 7.07-2.931 1.86-1.859 2.93-4.439 2.93-7.069v-81.16c0-5.51-4.49-9.99-10-9.99s-10 4.48-10 9.99v71.16h-280v-233.35l64.65-76.65h150.7l64.65 76.65v72.2c0 5.51 4.49 9.99 10 9.99s10-4.48 10-9.99v-19.438c10.887 2.816 28.013 11.223 35.966 36.277 6.488 20.438 16.225 33.685 28.939 39.373 4.974 2.226 9.642 2.938 13.58 2.938 6.392 0 10.863-1.878 11.608-2.212 5.039-2.263 7.289-8.181 5.027-13.219zm-207.62-212.569h-95v-94.5c0-26.191 21.309-47.5 47.5-47.5s47.5 21.309 47.5 47.5z"/></g></g></svg>