<svg id="Capa_1" enable-background="new 0 0 512 512" height="512" viewBox="0 0 512 512" width="512" xmlns="http://www.w3.org/2000/svg"><g><path d="m10 166v280h452v-280l-70-100h-312z" fill="#fff"/><path d="m51 405v-223l50.5-75h268l51.5 75v223z" fill="#e0c9ed"/><path d="m148 181h111v150h-111z" fill="#fff"/><path d="m275.061 224.83c7.861-7.843 31.281-18.493 39.142-10.65s-2.814 31.209-10.675 39.052-22.773 19.171-35.227 6.745c-11.922-11.894-1.101-27.305 6.76-35.147z" fill="#a0e5a5"/><ellipse cx="345.871" cy="182.583" fill="#a0e5a5" rx="20.129" ry="20.083"/><path d="m314.202 214.179c-3.197 7.035-4.947 14.583-5.028 19.664-.128 7.949 2.405 19.61 8.942 26.133 2.731 2.725 5.966 4.17 10.98 4.09 17.861-.285 20.723-19.627 20.903-30.875.134-8.344-4.54-23.94-11.723-31.204-2.395-2.421-5.643-3.343-8.418-3.428-.086-2.768-1.009-6.009-3.436-8.398-7.281-7.167-22.913-11.83-31.276-11.696-11.274.18-30.66 3.035-30.946 20.855-.08 5.002 1.369 8.23 4.1 10.955 6.538 6.523 18.225 9.049 26.193 8.922 5.093-.083 12.658-1.829 19.709-5.018z" fill="#33d6f5"/><g><path d="m502 325h-30v-24c0-5.51-4.49-10-10-10s-10 4.49-10 10v135h-432v-266.85l65.21-93.15h301.58l65.21 93.15v41.85c0 5.52 4.49 10 10 10 5.52 0 10-4.48 10-10v-.01-44.99c0-2.03-.641-4.07-1.811-5.73l-70-100c-1.87-2.67-4.929-4.27-8.189-4.27h-312c-3.26 0-6.32 1.6-8.19 4.27l-70 100c-1.17 1.66-1.81 3.7-1.81 5.73v280c0 2.63 1.07 5.21 2.93 7.069 1.86 1.861 4.44 2.931 7.07 2.931h452c2.63 0 5.21-1.07 7.069-2.931 1.861-1.859 2.931-4.439 2.931-7.069v-31h30c5.522 0 10-4.478 10-10v-70c0-5.523-4.478-10-10-10zm-10 70h-20v-50h20z"/><circle cx="462" cy="256" r="10"/><path d="m429.243 176.339-51.5-75c-1.864-2.716-4.948-4.339-8.243-4.339h-268c-3.327 0-6.437 1.655-8.295 4.415l-50.5 75c-1.111 1.65-1.705 3.595-1.705 5.585v223c0 5.522 4.477 10 10 10h370c5.522 0 10-4.478 10-10v-223c0-2.021-.612-3.995-1.757-5.661zm-333.243 218.661h-35v-76.5h35zm0-96.5h-35v-85h35zm0-105h-35v-8.447l35-51.98zm150-76.5h45v51.633c-9.625.632-17.616 2.992-23.668 6.842-1.791-2.696-4.853-4.475-8.332-4.475h-13zm3 74v130h-91v-130zm-68-74h45v54h-45zm-65 0h45v54h-13c-5.523 0-10 4.477-10 10v12.5h-22zm0 96.5h22v85h-22zm45 181.5h-45v-76.5h22v12.5c0 5.523 4.477 10 10 10h13zm65 0h-45v-54h45zm65 0h-45v-54h13c5.522 0 10-4.477 10-10v-12.5h22zm0-96.5h-22v-25.744c3.641 1.836 7.518 2.751 11.548 2.751 3.393 0 6.895-.66 10.452-1.946zm5.469-52.35c-13.937 13.897-19.334 8.521-21.104 6.753-2.097-2.093-2.365-3.804-2.365-5.061.001-4.215 3.496-10.32 9.113-15.923.983-.979 2.493-2.127 4.267-3.271 2.953.419 5.769.588 8.272.547 1.547-.024 3.192-.155 4.903-.383-.227 1.7-.356 3.334-.381 4.871-.04 2.494.13 5.305.551 8.255-1.139 1.752-2.282 3.242-3.256 4.212zm-2.137-36.953c-6.163.1-14.929-1.972-18.969-6.002-.646-.645-1.205-1.202-1.164-3.716.113-7.088 7.215-10.795 21.107-11.017 6.043-.079 17.249 3.407 22.791 7.704l-9.605 9.583c-5.6 2.306-11.04 3.398-14.16 3.448zm61.668 185.803h-45v-76.5h45zm0-96.5h-45v-31.502c.018.018.034.039.053.057 4.728 4.717 10.509 7.015 17.662 7.015.18 0 .36-.001.542-.004 12.538-.2 21.815-7.01 26.743-18.958zm-36.827-64.497c.049-3.104 1.142-8.519 3.448-14.096l9.641-9.619c4.317 5.51 7.836 16.707 7.739 22.744-.221 13.845-3.943 20.922-11.063 21.036-2.552.03-3.105-.521-3.758-1.171-2.427-2.422-4.212-6.874-5.173-11.112-.538-2.589-.871-5.524-.834-7.782zm33.869-44.299c-3.955 3.945-10.388 3.945-14.341 0-1.908-1.903-2.959-4.433-2.959-7.121 0-2.689 1.051-5.218 2.958-7.122 1.978-1.973 4.574-2.958 7.171-2.958s5.193.986 7.17 2.958c1.908 1.903 2.959 4.433 2.959 7.122 0 2.688-1.051 5.217-2.958 7.121zm2.958-35.445c-10.615-3.764-22.941-1.419-31.426 7.045-3.394 3.386-5.871 7.442-7.325 11.865-2.077-.819-4.176-1.531-6.249-2.139v-54.03h45zm55 240.741h-35v-76.5h35zm0-96.5h-35v-85h35zm0-105h-35v-59.368l35 50.971z"/><path d="m219 246h-13.34l11.92-19.86c2.83-4.72 1.29-10.88-3.43-13.71-1.56-.94-3.34-1.43-5.14-1.43-3.49 0-6.78 1.86-8.58 4.84v.01l-21 35c-1.86 3.09-1.9 6.95-.13 10.08s5.1 5.07 8.7 5.07h13.77l-11.45 20.04c-1.33 2.32-1.67 5.01-.97 7.59.71 2.58 2.37 4.73 4.69 6.05 1.51.87 3.22 1.32 4.95 1.32 3.59 0 6.92-1.93 8.69-5.04l20-35c1.76-3.08 1.75-6.91-.03-9.98-1.79-3.07-5.1-4.98-8.65-4.98z"/></g></g></svg>