<svg id="Capa_1" enable-background="new 0 0 512 512" height="512" viewBox="0 0 512 512" width="512" xmlns="http://www.w3.org/2000/svg"><g><g fill="#ffd0c7"><path d="m480.55 192.328-37.264-17.372 19.551-41.916c4.798-10.285 17.022-14.735 27.307-9.941l.009.004c10.29 4.797 14.742 17.031 9.942 27.322z"/><path d="m384.065 158.804-39.808-10.644 12.014-44.745c2.942-10.955 14.2-17.456 25.156-14.527l.099.027c10.974 2.934 17.487 14.217 14.541 25.19z"/><path d="m127.935 158.804 39.808-10.644-12.014-44.745c-2.942-10.955-14.2-17.456-25.156-14.527l-.099.027c-10.974 2.934-17.487 14.217-14.541 25.19z"/><path d="m31.45 192.328 37.264-17.372-19.551-41.916c-4.798-10.285-17.022-14.735-27.307-9.941l-.009.004c-10.29 4.797-14.742 17.031-9.942 27.322z"/><path d="m276.552 139.085h-41.104v-47.53c0-11.352 9.201-20.555 20.552-20.555 11.35 0 20.552 9.203 20.552 20.556z"/><path d="m381.438 404.807-20.456 29.03c-3.523 5-9.737 7.164-15.068 7.163-2.086-.001-4.193-.766-6.229-1.542-10.109-3.849-14.631-14.742-9.694-24.368l14.187-27.664c3.288 6.424 8.652 11.819 15.65 15.078 4.573 2.128 9.392 3.145 14.15 3.145 2.517.001 5.025-.287 7.46-.842z"/><path d="m323.204 385.454-12.021 29.63c-3.215 7.925-11.791 12.253-20.074 10.131-8.543-2.188-14.018-10.518-12.639-19.23l4.936-31.189c4.347 5.766 10.584 10.144 18.065 12.148 2.898.771 5.826 1.151 8.704 1.151 4.531 0 8.96-.925 13.029-2.641z"/><path d="m220.89 425.215c-8.283 2.122-16.859-2.207-20.074-10.131l-12.021-29.63c6.659 2.806 14.263 3.484 21.734 1.49 4.706-1.254 8.919-3.463 12.485-6.362 2.096-1.706 3.977-3.649 5.58-5.786l4.936 31.189c1.378 8.712-4.097 17.042-12.64 19.23z"/><path d="m172.315 439.319c-2.427.924-3.596 1.681-7.427 1.681-5.432 0-10.588-2.505-13.871-7.163l-20.456-29.03c7.029 1.603 14.612.956 21.61-2.302s12.362-8.654 15.65-15.078l14.187 27.664c4.938 9.626.416 20.379-9.693 24.228z"/></g><path d="m47.91 178.985c25.075-11.689 54.788.543 64.358 26.495l1.901 4.736c-9.38-26.052 5.55-54.539 32.337-61.701 26.204-7.007 52.807 9.321 58.567 35.538.216.983 1.192 1.603 2.18 1.415.934-.177 1.572-1.022 1.526-1.972-1.308-26.849 20.121-49.55 47.222-49.55 27.101 0 48.531 22.7 47.222 49.55-.046.949.592 1.795 1.526 1.972.988.188 1.964-.433 2.18-1.415 5.76-26.217 32.362-42.545 58.567-35.538 26.787 7.162 41.716 35.649 32.337 61.701l1.901-4.736c9.57-25.952 39.283-38.184 64.358-26.495 25.075 11.689 34.801 42.307 21.066 66.318l-82.07 143.471c-8.653 15.127-27.46 21.097-43.257 13.733-9.147-4.264-15.514-12.175-18.084-21.253-1.058-3.739-5.663-5.012-8.489-2.346-8.231 7.766-20.16 11.142-31.783 8.035-9.413-2.517-16.867-8.819-21.083-16.878-6.132 6.512-14.82 10.549-24.391 10.549s-18.259-4.037-24.391-10.549c-4.216 8.058-11.67 14.361-21.083 16.878-11.623 3.108-23.552-.269-31.783-8.035-2.826-2.666-7.43-1.393-8.489 2.346-2.57 9.078-8.937 16.989-18.084 21.253-15.797 7.364-34.604 1.393-43.257-13.733l-82.07-143.471c-13.735-24.011-4.009-54.629 21.066-66.318z" fill="#dd9366"/><path d="m276.552 373.563-3.503 32.832c-.93 8.717-8.284 15.33-17.049 15.33-8.765 0-16.119-6.612-17.049-15.33l-3.503-32.832c5.693 4.43 12.845 7.05 20.552 7.05s14.859-2.621 20.552-7.05z" fill="#ffd0c7"/><g><path d="m494.233 113.967c-15.202-6.893-33.382-.322-40.459 14.846l-16.879 36.187c-10.488 1.34-20.521 5.579-28.819 12.28-2.536-8.169-6.92-15.705-12.718-21.973l10.364-38.611c2.121-7.885 1.042-16.123-3.039-23.195-4.082-7.076-10.864-12.183-18.759-14.296-16.173-4.173-32.973 5.449-37.314 21.614l-10.378 38.672c-2.734.846-5.412 1.876-7.986 3.119-7.631 3.681-14.451 9.101-19.752 15.671-4.4-10.04-11.541-18.57-20.652-24.681-.426-.285-.858-.557-1.29-.83v-41.21c0-8.165-3.178-15.84-8.95-21.611-5.77-5.771-13.442-8.949-21.602-8.949-16.847 0-30.553 13.709-30.553 30.56v41.21c-.432.273-.865.545-1.291.83-9.111 6.11-16.262 14.641-20.652 24.681-5.3-6.57-12.131-11.99-19.752-15.671-2.573-1.247-5.252-2.277-7.987-3.124l-10.377-38.669c-4.34-16.162-21.142-25.784-37.313-21.612-7.895 2.113-14.676 7.22-18.759 14.296-4.081 7.072-5.16 15.311-3.04 23.191l10.364 38.609c-5.797 6.275-10.18 13.811-12.716 21.979-8.298-6.7-18.331-10.94-28.819-12.28l-16.88-36.188c-7.075-15.165-25.254-21.739-40.457-14.846-15.268 7.123-22.056 25.414-14.935 40.69l16.877 36.185c-.148.23-.302.457-.446.689-5.681 9.14-8.681 19.63-8.671 30.359-.01 9.9 2.611 19.72 7.571 28.38l82.069 143.471c3.86 6.75 9.461 12.34 16.192 16.18 2.549 1.455 5.234 2.635 8.004 3.545l18.414 26.132c5.107 7.247 13.142 11.403 22.046 11.403 4.782 0 7.847-1.075 10.546-2.162.051-.021.067-.027.069-.029 7.589-2.912 13.972-8.905 16.755-16.153 1.141-2.97 1.719-6.055 1.76-9.151 5.019 7.625 13.614 12.238 22.688 12.238 2.209 0 4.446-.272 6.665-.841h.001c6.149-1.575 11.272-5.115 14.846-9.797 4.778 4.139 11.003 6.619 17.781 6.619s13.003-2.481 17.781-6.619c3.574 4.682 8.697 8.222 14.847 9.797 2.219.568 4.456.841 6.665.841 9.072 0 17.667-4.613 22.686-12.235.038 3.129.623 6.25 1.778 9.257 2.803 7.3 8.77 13.146 16.37 16.039 2.295.874 5.764 2.194 9.786 2.196h.006c9.52 0 18.208-4.263 23.24-11.403l18.414-26.132c2.769-.91 5.455-2.09 8.004-3.544 6.731-3.84 12.331-9.43 16.192-16.18l19.512-34.11c2.741-4.79 1.07-10.91-3.72-13.65-1.51-.859-3.221-1.319-4.951-1.319-3.59 0-6.911 1.93-8.691 5.04l-19.512 34.109c-4.17 7.29-12.001 11.83-20.432 11.84-3.44 0-6.771-.739-9.921-2.21-6.181-2.88-10.811-8.319-12.682-14.909-.9-3.23-2.971-6.2-5.661-8.141-2.61-1.89-5.7-2.899-8.921-2.899h-.1c-3.79 0-7.551 1.51-10.311 4.159-4.35 4.091-10.251 6.44-16.191 6.44-2.051 0-4.12-.28-6.131-.81-6.431-1.721-11.691-5.931-14.801-11.851-1.5-2.86-4.301-4.83-7.501-5.27-3.17-.44-6.441.72-8.641 3.05-4.511 4.77-10.591 7.399-17.112 7.399s-12.602-2.63-17.112-7.399c-2.2-2.33-5.47-3.49-8.641-3.05-3.201.439-6.001 2.409-7.501 5.27-3.111 5.92-8.371 10.13-14.802 11.851-2 .529-4.061.81-6.12.81h-.02c-5.951 0-11.851-2.36-16.202-6.46-2.76-2.63-6.51-4.14-10.291-4.14h-.09c-3.23 0-6.321 1-8.931 2.899-2.7 1.94-4.76 4.91-5.661 8.15-1.88 6.58-6.501 12.02-12.681 14.899-3.15 1.471-6.481 2.21-9.921 2.21-8.441-.01-16.262-4.55-20.432-11.84l-82.072-143.469c-3.27-5.72-4.931-11.93-4.931-18.45.02-14.479 8.471-27.76 21.542-33.84 4.991-2.33 10.291-3.51 15.722-3.51 15.592.02 29.663 9.819 35.024 24.399l2 5c1.53 3.82 5.17 6.28 9.281 6.28 1.21 0 2.41-.22 3.56-.66 2.47-.939 4.431-2.77 5.531-5.16 1.1-2.399 1.22-5.09.32-7.569-1.47-4.101-2.22-8.34-2.22-12.63.01-16.87 11.422-31.69 27.734-36.021 0 0 0-.01.01-.01 3.201-.851 6.471-1.28 9.721-1.28 17.442 0 32.783 12.32 36.484 29.311.58 2.649 2.13 5.13 4.28 6.779 2.11 1.65 4.641 2.521 7.311 2.521.69 0 1.45-.075 2.13-.195 2.761-.521 5.34-2.035 7.101-4.215 1.73-2.14 2.67-4.8 2.65-7.5 0-.23-.05-1.79-.05-2.43 0-9.86 3.851-19.181 10.861-26.24 7.051-7.07 16.432-10.97 26.413-10.97s19.362 3.899 26.413 10.97c7.001 7.06 10.862 16.37 10.862 26.24 0 .6-.06 2.17-.06 2.43-.01 2.7.93 5.36 2.66 7.5 1.76 2.18 4.241 3.67 6.981 4.2h.02c.73.14 1.47.21 2.23.21 2.671 0 5.201-.87 7.311-2.521 2.14-1.649 3.695-4.119 4.276-6.77 3.7-16.99 19.047-29.32 36.489-29.32 3.27 0 6.616.45 9.796 1.3 16.232 4.39 27.648 19.209 27.668 36.01-.01 4.29-.75 8.54-2.23 12.63-.89 2.489-.78 5.17.32 7.569 1.11 2.391 3.071 4.221 5.541 5.16 1.15.44 2.35.66 3.56.66 4.101 0 7.741-2.47 9.281-6.28l2-5c5.361-14.58 19.432-24.38 35.024-24.399 5.441 0 10.731 1.18 15.722 3.51 13.071 6.08 21.522 19.36 21.542 33.84 0 6.521-1.66 12.73-4.931 18.45l-17.872 31.24c-1.32 2.31-1.671 5.01-.97 7.59.71 2.57 2.37 4.72 4.69 6.05 1.51.86 3.23 1.32 4.961 1.32 3.58 0 6.911-1.931 8.691-5.04l17.862-31.23c4.961-8.67 7.58-18.479 7.571-28.38.01-10.729-3.437-21.909-9.117-31.049-.145-.233 16.878-36.186 16.878-36.186 7.119-15.274.333-33.565-14.935-40.687zm-155.343 305.686 7.223-14.083c.094.078.193.145.294.202 2.795 2.294 5.877 4.252 9.194 5.797 2.285 1.066 4.627 1.917 7.014 2.566.004.001.007.005.011.006l-9.819 13.936c-1.423 2.02-4.486 2.923-6.815 2.925-.541-.049-2.087-.638-2.747-.89-2.326-.886-4.036-2.489-4.814-4.516-.726-1.887-.567-3.942.459-5.943zm-50.542-12.105 2.229-14.086c.038.019.083.017.122.032 2.608 1.299 5.349 2.347 8.194 3.105 2.754.739 5.57 1.204 8.396 1.392.011.001.02.008.031.009l-5.405 13.323c-1.327 3.272-4.905 5.081-8.325 4.203-3.563-.912-5.817-4.341-5.242-7.978zm-32.338-16.939c2.956 0 5.891-.302 8.76-.891l-1.666 15.616c-.388 3.644-3.443 6.391-7.104 6.391s-6.716-2.747-7.105-6.391l-1.666-15.617c2.875.591 5.816.892 8.781.892zm-42.905 5.991c2.851-.76 5.598-1.81 8.211-3.114.034-.014.072-.012.106-.029l2.23 14.091c.575 3.636-1.678 7.065-5.242 7.979-3.419.872-6.998-.933-8.326-4.203l-5.407-13.329c2.84-.187 5.662-.653 8.428-1.395zm-63.608 17.492c2.366-.647 4.68-1.488 6.901-2.523 3.328-1.55 6.42-3.515 9.224-5.819.091-.051.18-.109.265-.18l7.222 14.083c1.016 1.981 1.181 3.999.476 5.835-.767 1.998-2.482 3.591-4.83 4.484 0 .001-.001.001-.002.001-.442.169-.849.332-1.237.488-1.335.539-1.335.539-2.628.539-2.345 0-4.367-1.038-5.695-2.923l-9.817-13.932c.042-.011.081-.034.121-.053zm-105.811-244.172c-3.238 1.51-6.302 3.305-9.167 5.352l-13.557-29.067c-2.433-5.221-.225-11.436 4.922-13.956.064-.028.128-.058.191-.087 5.272-2.459 11.562-.168 14.022 5.104l13.567 29.086c-3.397.877-6.731 2.054-9.978 3.568zm100.411-31.11c-.06.01-.12.03-.17.04-3.455.926-6.801 2.172-10 3.703l-8.335-31.05c-.732-2.723-.359-5.566 1.049-8.009 1.379-2.39 3.589-4.114 6.237-4.873.095-.022.188-.046.282-.071 5.612-1.501 11.403 1.843 12.909 7.452l8.336 31.064c-3.462.267-6.917.844-10.308 1.744zm122.454-13.887c-3.454-.642-6.983-.97-10.551-.973-3.568.003-7.097.331-10.551.973v-33.363c0-5.822 4.733-10.56 10.551-10.56 2.817 0 5.466 1.098 7.459 3.09 1.993 1.994 3.092 4.646 3.092 7.47zm119.855-13.416-8.335 31.05c-3.192-1.529-6.531-2.773-9.979-3.698l-.01-.01c-3.442-.918-6.953-1.51-10.489-1.783l8.336-31.063c1.507-5.611 7.297-8.96 12.91-7.454.094.025.188.049.282.071 2.648.759 4.858 2.483 6.237 4.873 1.409 2.444 1.781 5.287 1.048 8.014zm104.633 34.696-13.559 29.071c-2.866-2.048-5.929-3.844-9.166-5.354-3.245-1.514-6.579-2.692-9.977-3.569l13.566-29.083c2.46-5.273 8.748-7.563 14.022-5.105.063.029.126.059.19.087 5.147 2.519 7.357 8.734 4.924 13.953z"/><path d="m385.907 248.451c-5.16-1.972-10.94.618-12.909 5.777l-25.495 66.806c-1.969 5.16.618 10.939 5.778 12.908 1.173.448 2.378.66 3.563.66 4.028 0 7.825-2.451 9.346-6.438l25.495-66.806c1.97-5.159-.617-10.938-5.778-12.907z"/><path d="m139.001 254.229c-1.969-5.159-7.748-7.746-12.909-5.777s-7.748 7.748-5.778 12.908l25.495 66.806c1.521 3.986 5.317 6.438 9.346 6.438 1.185 0 2.39-.213 3.563-.66 5.161-1.969 7.748-7.748 5.778-12.908z"/><path d="m222.289 241.104c-.703-5.478-5.716-9.35-11.193-8.646-5.478.703-9.35 5.713-8.647 11.191l8.57 66.806c.648 5.046 5.593 8.688 10.55 8.688 5.478-.703 9.993-5.754 9.29-11.232z"/><path d="m300.904 232.458c-5.482-.707-10.49 3.169-11.193 8.646l-8.57 66.806c-.703 5.479 3.812 10.529 9.29 11.232 4.957 0 9.902-3.642 10.55-8.688l8.57-66.806c.703-5.477-3.169-10.487-8.647-11.19z"/><circle cx="444.942" cy="315.6" r="10.001"/></g></g></svg>