<svg id="Capa_1" enable-background="new 0 0 512 512" height="512" viewBox="0 0 512 512" width="512" xmlns="http://www.w3.org/2000/svg"><g><path d="m106 382h300v120h-300z" fill="#e0c9ed"/><path d="m186 50h260v120h-260z" fill="#fff"/><path d="m106 282c0-33.137 26.863-60 60-60 22.594 0 35.893 11.684 45.601 22.775 9.113 10.41 22.881 15.682 36.52 13.358 6.391-1.089 13.91-.229 20.555 6.188 4.971 4.801 7.346 11.199 7.324 17.618s-2.443 12.86-7.33 17.746c-23.502 23.497-68.34 42.315-102.67 42.315-33.137 0-60-26.863-60-60z" fill="#ff7b79"/><path d="m326 50h-40v-20c0-11.046 8.954-20 20-20 11.046 0 20 8.954 20 20z" fill="#e2e9ee"/><path d="m406 50h-40v-20c0-11.046 8.954-20 20-20 11.046 0 20 8.954 20 20z" fill="#e2e9ee"/><path d="m326 170h40v172h-40z" fill="#fff"/><path d="m226 90h180v40h-180z" fill="#ffe6b4"/><path d="m146 422h60v40h-60z" fill="#ffe6b4"/><path d="m66 342h380v40h-380z" fill="#e2e9ee"/><circle cx="346" cy="442" fill="#33d6f5" r="20"/><circle cx="166" cy="282" fill="#fff" r="20"/><g><circle cx="366" cy="256" r="10"/><path d="m376 180h70c5.523 0 10-4.478 10-10v-120c0-5.522-4.477-10-10-10h-30v-10c0-16.542-13.458-30-30-30s-30 13.458-30 30v10h-20v-10c0-16.542-13.458-30-30-30s-30 13.458-30 30v10h-90c-5.523 0-10 4.478-10 10v120c0 5.522 4.477 10 10 10h130v152h-75.855c13.703-7.121 26.099-15.75 35.595-25.243 6.583-6.581 10.227-15.383 10.26-24.782.033-9.528-3.652-18.353-10.376-24.846-7.96-7.688-18.051-10.748-29.181-8.854-9.924 1.692-20.39-2.174-27.317-10.087-10.674-12.193-26.359-26.188-53.126-26.188-38.598 0-70 31.402-70 70 0 19.572 8.084 37.284 21.077 50h-51.077c-5.523 0-10 4.478-10 10v40c0 5.522 4.477 10 10 10h30v110c0 5.522 4.477 10 10 10h300c5.523 0 10-4.478 10-10v-110h30c5.523 0 10-4.478 10-10v-40c0-5.522-4.477-10-10-10h-70v-31c0-5.521-4.49-10-10-10s-9.99 4.479-10 9.979v.021 31h-20v-152h20v31c0 5.51 4.49 10 10 10 5.52 0 10-4.49 10-10zm-260 102c0-27.57 22.43-50 50-50 18.568 0 29.273 9.306 38.077 19.361 11.475 13.106 28.993 19.476 45.724 16.63 4.801-.822 8.593.301 11.928 3.523 2.768 2.673 4.285 6.363 4.271 10.39-.014 4.083-1.577 7.887-4.4 10.709-22.092 22.086-64.084 39.387-95.6 39.387-27.57 0-50-22.43-50-50zm280 210h-280v-100h280zm40-140v20h-360v-20zm-60-322c0-5.514 4.486-10 10-10s10 4.486 10 10v10h-20zm-80 0c0-5.514 4.486-10 10-10s10 4.486 10 10v10h-20zm-100 130v-100h240v100z"/><path d="m416 130v-40c0-5.522-4.477-10-10-10h-180c-5.523 0-10 4.478-10 10v40c0 5.522 4.477 10 10 10h180c5.523 0 10-4.478 10-10zm-20-10h-160v-20h160z"/><path d="m146 472h60c5.523 0 10-4.478 10-10v-40c0-5.522-4.477-10-10-10h-60c-5.523 0-10 4.478-10 10v40c0 5.522 4.477 10 10 10zm10-40h40v20h-40z"/><path d="m346 472c16.542 0 30-13.458 30-30s-13.458-30-30-30-30 13.458-30 30 13.458 30 30 30zm0-40c5.514 0 10 4.486 10 10s-4.486 10-10 10-10-4.486-10-10 4.486-10 10-10z"/><path d="m166 252c-16.542 0-30 13.458-30 30s13.458 30 30 30 30-13.458 30-30-13.458-30-30-30zm0 40c-5.514 0-10-4.486-10-10s4.486-10 10-10 10 4.486 10 10-4.486 10-10 10z"/></g></g></svg>