<svg id="Capa_1" enable-background="new 0 0 512 512" height="512" viewBox="0 0 512 512" width="512" xmlns="http://www.w3.org/2000/svg"><g><path d="m393.78 219.07c-2.72 30.94-10.73 66.1-28.24 103.08 0 0-3.924-8.15-7.058-24.45-2.955-15.367-14.554-27.633-29.752-31.365l-40.33-9.905c6.27-19.71 8.52-40.02 8.57-58.93z" fill="#e0c9ed"/><path d="m459.89 308.21-12.69 140.29h-60.98c0-17.167 7.06-25.95 10.49-29.36 3.39-3.38 9.08-5.47 14.25-5.47l-1.81-58.29c-22.15-2.88-35.93-15.25-43.61-33.23 0 0 51.71-1.9 75.72-39.04 8.83 16.44 18.25 24.76 18.63 25.1z" fill="#a0e5a5"/><path d="m473 162.33-13.11 145.88c-.38-.34-9.8-8.66-18.63-25.1-2.52-4.69-4.993-10.042-7.194-16.06-4.056-11.089-14.069-18.874-25.837-19.835-6.224-.508-12.703-1.695-17.549-4.185 1.41-8.23 2.42-16.23 3.1-23.96 2.55-28.89.48-54.1-2.81-73.68-4.59-27.37-11.54-43.72-11.54-43.72 8.59-.9 16.28-1.48 22.16-1.48 42.41 0 71.41 18.14 71.41 62.14z" fill="#ffcd69"/><path d="m441.26 283.11c-24.01 37.14-75.72 39.04-75.72 39.04 13.13-27.73 20.92-54.45 25.14-79.12 4.846 2.49 11.325 3.677 17.549 4.185 11.769.961 21.781 8.746 25.837 19.835 2.201 6.017 4.674 11.37 7.194 16.06z" fill="#fff"/><path d="m390.97 145.39-96.85 12.95c-3.83-26.68-10.17-44.97-10.17-44.97 8.35-.62 15.82-1.31 22-2 17.68-1.97 49.16-7.14 73.48-9.7 0 0 6.95 16.35 11.54 43.72z" fill="#33d6f5"/><path d="m365.54 322.15-77.14-15.87v-49.85l40.33 9.905c15.197 3.732 26.797 15.998 29.752 31.365 3.134 16.3 7.058 24.45 7.058 24.45z" fill="#ffd0c7"/><path d="m288.4 256.43v49.85l-58.87-12.12-8.03-54.16z" fill="#ccf5fc"/><path d="m296.97 197.5c-.05 18.91-2.3 39.22-8.57 58.93l-66.9-16.43-3.99-124.78c23.56.54 47.32-.44 66.44-1.85 0 0 6.34 18.29 10.17 44.97 1.68 11.71 2.88 25.04 2.85 39.16z" fill="#d0f2d2"/><path d="m221.5 240-75.24 4.46c-.52-11.74-2.2-24.71-5.76-38.46-12.9-49.83 18.48-96.5 18.48-96.5 17.15 3.58 37.76 5.24 58.53 5.72z" fill="#ff7b79"/><path d="m229.53 294.16-62.24 28.1c-2.29-1.95-4.76-3.7-7.41-5.23-6.95-4.03-14.33-7.88-21.5-11.92 0 0 9.46-24.54 7.88-60.65l75.24-4.46z" fill="#fff"/><path d="m146.26 244.46c1.58 36.11-7.88 60.65-7.88 60.65-21.79-12.26-41.63-26.23-41.4-52.3.14-16.16 1.59-34.43-2.78-45.28-3.14-7.77-12.32-18.48-19.96-21.94-9.78-4.42-13.407 14-42.94 14-11.44 0-21.3-24.673-21.3-41.49 0-11.683 10.75-20.593 19.831-20.593 12.502 0 22.929-10.087 30.348-18.597 6.49-7.44 15.4-12.76 25.51-14.76l-13-40.65c17.01 0 44.54 25.8 51.81 32 7.52 6.41 19.72 10.92 34.48 14 0 0-31.38 46.67-18.48 96.5 3.561 13.75 5.241 26.72 5.761 38.46z" fill="#ffd0c7"/><path d="m229.53 294.16-6.92 154.34h-62.98c0-17.125 7.06-25.95 10.49-29.36 3.39-3.38 9.06-5.47 14.24-5.47l.27-55.86c-.43-13.92-6.89-26.7-17.34-35.55z" fill="#ffe6b4"/><path d="m393.78 219.07-96.81-21.57c.03-14.12-1.17-27.45-2.85-39.16l96.85-12.95c3.29 19.58 5.36 44.79 2.81 73.68z" fill="#fff"/><g><path d="m506.413 186.36c-6.029-19.213-16.286-27.586-23.679-31.223-1.443-20.76-9.246-36.958-23.29-48.188-13.909-11.121-33.374-16.76-57.853-16.76-5.758 0-13.347.502-23.198 1.535-.003 0-.006 0-.009 0-13.855 1.459-30.11 3.769-44.451 5.807-11.057 1.571-42.848 5.281-50.723 5.866-.002 0-.005.001-.007.001-15.695 1.157-39.787 2.413-65.46 1.824 0 0 0 0-.001 0-22.618-.522-41.7-2.377-56.718-5.512 0 0-.001 0-.002 0-17.694-3.692-27.407-9.607-31.341-12.959-18.094-15.878-40.167-33.251-56.991-33.251-3.193 0-6.194 1.524-8.077 4.104-1.882 2.579-2.421 5.901-1.448 8.942l9.931 31.053c-7.81 3.277-14.855 8.322-20.453 14.739-5.678 6.512-14.22 15.169-22.812 15.169-14.081 0-29.831 13.083-29.831 30.593 0 17.97 10.75 51.49 31.3 51.49 20.307 0 30.948-7.761 37.306-12.397.835-.609 1.875-1.367 2.665-1.883 4.808 2.867 11.467 10.546 13.654 15.957 2.804 6.961 2.495 20.429 2.223 32.312-.071 3.08-.141 6.148-.167 9.144-.283 32.076 23.843 48.355 46.484 61.095.002.001.004.003.006.004 3.1 1.747 25.493 14.483 27.338 16.054.005.004.01.007.015.011.002.001.003.003.005.004 8.397 7.112 13.421 17.331 13.801 28.061l-.23 47.348c-4.361 1.438-8.342 3.769-11.33 6.748-5.02 4.989-13.441 16.358-13.441 36.452 0 5.522 4.477 10 10 10h62.98c5.349 0 9.75-4.209 9.99-9.552l6.395-142.629 119.638 24.62c4.403 8.635 10.116 15.798 17.067 21.321 6.73 5.37 14.71 9.22 23.7 11.46l1.3 41.68c-4.783 1.601-8.33 3.96-11.05 6.66-2.39 2.36-5.81 6.44-8.56 12.42-3.19 6.92-4.88 15.23-4.87 24.021 0 2.63 1.07 5.21 2.93 7.069 1.86 1.86 4.44 2.931 7.07 2.931h60.98c2.5 0 4.89-.931 6.74-2.62 1.85-1.7 3-4 3.22-6.48l2.51-27.75c.5-5.489-3.57-10.359-9.06-10.859-2.79-.25-5.56.68-7.63 2.56-1.86 1.69-3 4-3.23 6.5l-1.69 18.65h-40.73c.48-2.021 1.12-3.87 1.93-5.66 1.22-2.64 2.69-4.8 4.5-6.61.46-.479 1.58-1.239 2.95-1.739 1.31-.511 2.92-.82 4.2-.82h.05c2.69 0 5.31-1.11 7.18-3.04s2.9-4.58 2.81-7.271l-1.81-58.29c-.15-4.93-3.81-8.97-8.7-9.609-8.96-1.18-16.25-4.08-22.3-8.86-2.35-1.87-4.52-4.05-6.46-6.49 5.35-1.04 10.66-2.39 15.78-4.029 10.1-3.25 19.29-7.57 27.33-12.84 5.72-3.761 10.91-8.051 15.43-12.771 1.88 2.69 8.15 10.311 9.29 11.521l-1.65 18.229c-.24 2.65.57 5.25 2.28 7.3s4.12 3.311 6.78 3.561c2.79.25 5.55-.681 7.62-2.57 1.86-1.68 3.01-3.99 3.24-6.49l13.674-152.034c2.08 2.913 4.162 6.899 5.876 12.364 3.619 11.532 4.671 19.055 4.67 46.651 0 6.319-.867 15.879-1.785 26-1.089 12.014-2.215 24.437-2.215 34.5 0 5.522 4.477 10 10 10s10-4.478 10-10c0-9.158 1.085-21.123 2.134-32.694.96-10.589 1.867-20.586 1.867-27.811.001-28.319-1.043-38.158-5.587-52.64zm-375.594 22.147c3.072 11.866 4.906 24.109 5.451 36.391.839 19.184-1.652 34.966-3.934 44.95-16.331-10.538-25.497-21.021-25.356-36.95.025-2.903.094-5.876.162-8.86.332-14.486.675-29.466-3.67-40.254-3.79-9.379-14.466-22.484-25.113-27.306-2.495-1.128-4.838-1.587-7.025-1.587-6.09 0-10.968 3.558-14.512 6.143-5.456 3.979-11.634 8.485-25.196 8.556-3.841-1.81-11.626-17.429-11.626-31.49 0-6.225 6.378-10.593 9.832-10.593 16.745 0 29.642-12.57 37.885-22.023 5.155-5.91 12.227-10.002 19.915-11.523 2.796-.553 5.224-2.273 6.672-4.729 1.449-2.455 1.78-5.412.912-8.127l-6.787-21.223c7.222 4.531 28.835 22.589 29.585 23.229 6.181 5.269 14.685 9.521 25.799 12.878-9.127 18.083-22.935 54.116-12.994 92.518zm33.196-87.878c12.567 2.168 27.232 3.605 43.8 4.286l3.379 105.678-55.656 3.299c-.988-10.262-2.781-20.449-5.357-30.398-9.147-35.333 6.658-69.762 13.834-82.865zm4.578 190.07c-1.207-.82-17.573-10.033-18.24-10.398 2.521-9.248 5.944-25.582 6.079-46.427l56.52-3.35 5.579 37.63zm44.455 127.801h-42.31c1.57-6.5 4.468-10.316 6.443-12.278 1.257-1.255 4.287-2.552 7.178-2.552 5.504 0 9.973-4.447 10-9.952l.27-55.858c0-.119-.001-.238-.005-.357-.353-11.438-4.14-22.479-10.707-31.777l34.893-15.753zm171.54-231.723-77.739-17.321c-.214-7.381-.732-14.906-1.566-22.52l77.252-10.329c2.18 16.517 2.865 33.317 2.053 50.17zm-106.188 87.235-40.003-8.236-4.821-32.512 44.824 11.007zm3.027-49.592-50.174-12.322-3.413-106.733c18.467.081 35.594-.638 48.866-1.476 2.097 7.439 5.257 20.139 7.516 35.871 1.849 12.889 2.774 25.577 2.749 37.714-.045 16.813-1.908 32.56-5.544 46.946zm91.308-131.933c1.772 5.337 4.219 13.63 6.461 24.388l-76.742 10.261c-1.77-10.045-3.769-18.515-5.439-24.814 3.562-.327 64.076-8.449 75.72-9.835zm-74.335 185.641v-28.945l27.946 6.864c11.342 2.784 20.102 12.025 22.316 23.54.66 3.433 1.354 6.531 2.044 9.303zm82.424-56.787c0 .001 0 .002-.001.003-2.92 17.071-7.434 33.972-13.457 50.51-4.816-17.301-18.667-30.913-36.251-35.23l-30.27-7.435c3.104-12.318 5.04-25.463 5.781-39.293l76.277 16.995c-.576 4.844-1.262 9.679-2.079 14.45zm32.986 55.179c-11.073 7.292-23.259 11.126-31.854 13.095 7.11-17.51 12.614-35.465 16.433-53.655 2.789.549 5.799.958 9.026 1.222 7.76.634 14.535 5.855 17.26 13.304 1.46 3.991 3.123 7.901 4.935 11.704-4.274 5.414-9.564 10.227-15.8 14.33zm38.382-14.378c-.705-1.195-6.866-13.418-8.735-18.528-5.396-14.75-18.905-25.1-34.416-26.366-2.865-.233-5.231-.58-7.181-.979.759-5.325 1.386-10.793 1.861-16.13 2.261-25.625 1.302-51.457-2.89-76.402-2.358-14.062-5.322-25.353-7.738-33.229 3.277-.213 6.095-.318 8.496-.318 19.826 0 35.089 4.165 45.364 12.381 10.56 8.443 15.957 21.673 16.045 39.323z"/><circle cx="453.76" cy="375.93" r="10"/></g></g></svg>