<svg id="Capa_1" enable-background="new 0 0 512 512" height="512" viewBox="0 0 512 512" width="512" xmlns="http://www.w3.org/2000/svg"><g><path d="m81 382h350v120h-350z" fill="#ccf5fc"/><path d="m81 10h350v372h-350z" fill="#33d6f5"/><path d="m361 90v40h30v132h-30v40h30v40h-270v-292h270v40z" fill="#ccf5fc"/><path d="m308.5 134.587c0-24.625-19.028-44.587-42.5-44.587s-42.5 19.962-42.5 44.587c0 44.587-12.5 95.905-12.5 109.786 0 31.827 24.624 57.627 55 57.627s55-25.8 55-57.627c0-14.722-12.5-65.198-12.5-109.786z" fill="#ffd0c7"/><path d="m351 422h40v40h-40z" fill="#ffcd69"/><path d="m258.5 134.587c0-24.625-19.028-44.587-42.5-44.587s-42.5 19.962-42.5 44.587c0 44.587-12.5 95.905-12.5 109.786 0 31.827 24.624 57.627 55 57.627s55-25.8 55-57.627c0-14.722-12.5-65.198-12.5-109.786z" fill="#ff7b79"/><g><path d="m438.069 2.93c-1.859-1.861-4.439-2.93-7.069-2.93h-350c-2.63 0-5.21 1.069-7.07 2.93s-2.93 4.44-2.93 7.07v492c0 5.522 4.478 10 10 10h350c5.522 0 10-4.478 10-10v-175c0-5.51-4.49-10-10-10s-9.99 4.479-10 9.979v.021 45h-330v-352h330v217c0 5.51 4.49 10 10 10s10-4.49 10-10v-227c0-2.63-1.07-5.21-2.931-7.07zm-17.069 389.07v100h-330v-100z"/><circle cx="431" cy="282" r="10"/><path d="m391 100c5.522 0 10-4.478 10-10v-40c0-5.522-4.478-10-10-10h-270c-5.522 0-10 4.478-10 10v292c0 5.522 4.478 10 10 10h270c5.522 0 10-4.478 10-10v-40c0-5.522-4.478-10-10-10h-20v-20h20c5.522 0 10-4.478 10-10v-132c0-5.522-4.478-10-10-10h-20v-20zm-125 0c17.921 0 32.5 15.517 32.5 34.59 0 29.128 5.117 60.278 8.854 83.024 1.956 11.912 3.646 22.2 3.646 26.756 0 26.263-20.187 47.63-45 47.63-1.258 0-2.502-.073-3.74-.179 11.578-12.217 18.74-28.976 18.74-47.448 0-6.188-1.641-16.176-3.911-29.999-3.625-22.066-8.589-52.286-8.589-79.787 0-12.562-4.113-24.138-10.998-33.373 2.743-.787 5.589-1.214 8.498-1.214zm-40-40h30v20.989c-5.259 1.049-10.306 2.933-15.016 5.599-4.621-2.611-9.662-4.51-14.984-5.582zm22.5 74.587c0 29.133 5.117 60.283 8.854 83.028 1.956 11.913 3.646 22.201 3.646 26.758 0 26.262-20.187 47.627-45 47.627s-45-21.365-45-47.627c0-4.156 1.636-14.126 3.529-25.671 3.786-23.076 8.971-54.681 8.971-84.115 0-19.071 14.579-34.587 32.5-34.587s32.5 15.516 32.5 34.587zm112.5 5.413h20v112h-20c-5.522 0-10 4.478-10 10v40c0 5.522 4.478 10 10 10h20v20h-250v-272h75v21.005c-24.18 4.87-42.5 27.038-42.5 53.582 0 27.805-5.032 58.479-8.707 80.878-2.202 13.424-3.793 23.122-3.793 28.908 0 37.29 29.159 67.627 65 67.627 8.849 0 17.287-1.856 24.983-5.202 7.889 3.411 16.439 5.202 25.017 5.202 35.841 0 65-30.339 65-67.63 0-6.188-1.641-16.175-3.911-29.998-3.625-22.066-8.589-52.286-8.589-79.782 0-26.545-18.32-48.714-42.5-53.584v-21.006h105v20h-20c-5.522 0-10 4.478-10 10v40c0 5.522 4.478 10 10 10z"/><path d="m351 472h40c5.522 0 10-4.478 10-10v-40c0-5.522-4.478-10-10-10h-40c-5.522 0-10 4.478-10 10v40c0 5.522 4.478 10 10 10zm10-40h20v20h-20z"/><path d="m121 432h60c5.522 0 10-4.478 10-10s-4.478-10-10-10h-60c-5.522 0-10 4.478-10 10s4.478 10 10 10z"/><path d="m121 472h60c5.522 0 10-4.478 10-10s-4.478-10-10-10h-60c-5.522 0-10 4.478-10 10s4.478 10 10 10z"/></g></g></svg>