<svg id="Capa_1" enable-background="new 0 0 512 512" height="512" viewBox="0 0 512 512" width="512" xmlns="http://www.w3.org/2000/svg"><g><path d="m402.887 243.276 28.318-28.276-92.034-91.897c-15.64-15.616-40.996-15.616-56.636 0l-230.805 230.448c-15.64 15.616-15.64 40.935 0 56.552l92.033 91.897 28.318-28.276-92.034-91.897 230.806-230.447z" fill="#e2e9ee"/><path d="m129.604 431.31 230.806-230.448 28.318 28.276 4.064 24.211-29.203.884-.885 29.159-29.203.884-.885 29.16-29.203.883-.885 29.16-29.203.883-.885 29.16-29.203.883-.885 29.16-29.203.884-.884 29.159-29.203.884-.885 29.159-24.255-4.065z" fill="#c5d3de"/><path d="m395.807 10-56.636 56.552c-15.64 15.616-15.64 40.935 0 56.552l49.557 49.483c15.64 15.616 40.996 15.616 56.636 0l56.636-56.552zm21.239 134.311-49.556-49.483 28.318-28.276 49.557 49.483z" fill="#a0e5a5"/><path d="m102.195 201.235-7.78-50.287-77.091-77.2c-9.765-9.779-9.765-25.634 0-35.413 9.765-9.779 25.598-9.779 35.363 0l106.088 106.24z" fill="#33d6f5"/><path d="m102.195 201.235 53.044 53.12h28.29v28.331h28.29v28.331h28.29v28.331h28.29v28.331h28.29v28.331h28.29v28.331h28.29v28.331h28.29v28.328h28.29l28.29-28.331c7.812-7.823 7.812-20.507 0-28.331l-279.364-279.764z" fill="#fff"/><g><path d="m509.066 123.111c1.878-1.876 2.934-4.422 2.934-7.076s-1.056-5.2-2.934-7.076l-106.196-106.035c-3.904-3.897-10.228-3.899-14.132 0l-56.638 56.552c-9.456 9.441-14.664 21.997-14.664 35.352 0 2.396.174 4.763.504 7.094-15.059-2.134-30.913 2.565-42.473 14.102l-65.638 65.537-150.082-150.293c-6.612-6.622-15.405-10.268-24.758-10.268s-18.146 3.646-24.759 10.268c-13.641 13.66-13.641 35.887 0 49.547l74.786 74.89 7.281 47.061c.324 2.092 1.31 3.967 2.732 5.429.028.034.044.075.076.106l43.902 43.967-94.36 94.208c-9.459 9.445-14.667 22.005-14.664 35.362.002 13.354 5.211 25.904 14.665 35.339l92.033 91.9c1.952 1.949 4.509 2.924 7.066 2.924s5.114-.975 7.066-2.924l28.321-28.28c1.878-1.876 2.934-4.422 2.934-7.076 0-.025-.003-.049-.004-.074.035 0 .069.004.104.004 2.297 0 4.544-.792 6.345-2.271 2.232-1.832 3.563-4.54 3.651-7.427l.596-19.75 19.79-.597c5.285-.159 9.533-4.405 9.694-9.69l.604-19.756 19.797-.604c5.284-.161 9.53-4.406 9.691-9.689l.603-19.746 19.797-.604c3.91-.119 7.246-2.477 8.785-5.835h5.161v18.33c0 2.63 1.07 5.21 2.93 7.07 1.86 1.859 4.441 2.93 7.071 2.93h18.291v18.33c0 2.63 1.07 5.21 2.93 7.07 1.86 1.859 4.44 2.93 7.071 2.93h18.291v18.33c0 2.63 1.07 5.21 2.93 7.07 1.86 1.859 4.44 2.93 7.071 2.93h18.291v18.328c0 2.63 1.07 5.21 2.93 7.069 1.86 1.86 4.44 2.931 7.071 2.931h28.291c2.671 0 5.191-1.04 7.08-2.931l28.291-28.34c2.85-2.85 5.07-6.199 6.58-9.93 1.47-3.62 2.2-7.42 2.2-11.3.01-3.88-.73-7.681-2.2-11.29-1.51-3.74-3.73-7.08-6.58-9.94l-22.741-22.76c-1.89-1.9-4.4-2.94-7.071-2.94-2.67 0-5.18 1.04-7.07 2.931-3.9 3.89-3.9 10.24-.01 14.14l22.731 22.76c1.91 1.92 2.93 4.381 2.94 7.101-.01 2.729-1.03 5.189-2.94 7.109l-25.354 25.39h-14.15v-18.33c0-2.63-1.07-5.21-2.93-7.07-1.86-1.859-4.44-2.93-7.07-2.93h-18.291v-18.33c0-2.64-1.07-5.21-2.93-7.07-1.86-1.87-4.44-2.93-7.07-2.93h-18.291v-18.33c0-2.64-1.07-5.21-2.93-7.07-1.86-1.87-4.44-2.93-7.07-2.93h-18.291v-18.33c0-2.63-1.07-5.21-2.93-7.07-1.86-1.869-4.44-2.93-7.07-2.93h-18.291v-18.33c0-2.64-1.07-5.21-2.93-7.08-1.86-1.859-4.44-2.92-7.07-2.92h-18.291v-18.33c0-2.64-1.07-5.21-2.93-7.069-1.86-1.87-4.44-2.931-7.07-2.931h-18.291v-18.33c0-2.64-1.07-5.21-2.93-7.08-1.86-1.859-4.44-2.92-7.07-2.92h-18.291v-18.33c0-2.64-1.07-5.22-2.93-7.079-1.86-1.86-4.441-2.921-7.071-2.921h-24.141l-43.06-43.128 42.45-42.501 185.967 186.219c1.89 1.899 4.4 2.939 7.071 2.939 2.67 0 5.18-1.04 7.07-2.93 1.89-1.88 2.93-4.391 2.93-7.061.01-2.67-1.03-5.18-2.91-7.069l-.01-.011-16.331-16.354c.025-.24.05-.479.057-.723l.596-19.754 19.793-.602c5.284-.161 9.53-4.406 9.691-9.69l.603-19.752 19.794-.598c2.887-.087 5.596-1.418 7.428-3.651 1.494-1.82 2.273-4.096 2.256-6.418.038 0 .076.005.115.005 2.558 0 5.115-.976 7.068-2.925l28.311-28.28c1.878-1.876 2.933-4.422 2.933-7.076s-1.056-5.199-2.934-7.075l-14.167-14.147c10.373-1.462 20.371-6.165 28.332-14.114zm-484.683-56.429c-5.859-5.867-5.859-15.414 0-21.281 2.834-2.838 6.6-4.4 10.606-4.4s7.772 1.562 10.605 4.4l99.036 99.174-35.584 35.634-4.763-30.789c-.324-2.097-1.307-4.035-2.806-5.537zm234.008 282.668v14.593l-15.465.472c-5.284.161-9.53 4.406-9.691 9.689l-.603 19.746-19.798.604c-5.284.161-9.53 4.406-9.691 9.69l-.603 19.753-19.794.597c-5.286.159-9.535 4.407-9.695 9.693l-.534 17.708-9.797-1.64-18.979-18.949 87.494-87.357c.468.903 1.069 1.74 1.794 2.469 1.86 1.86 4.44 2.93 7.07 2.93h18.292zm-56.582-56.661v18.33c0 2.63 1.07 5.21 2.93 7.07s4.43 2.93 7.07 2.93h14.088l-96.308 96.157-35.401-35.346 89.284-89.143c.016 0 .031.002.047.002zm-28.291-18.325-100.549 100.39c-1.879 1.875-2.935 4.421-2.935 7.076 0 2.654 1.056 5.2 2.934 7.076l84.947 84.813-14.168 14.148-84.969-84.847c-5.67-5.658-8.793-13.183-8.794-21.188-.001-8.01 3.123-15.542 8.796-21.208l96.434-96.277c.005 0 .009.001.014.001h18.291v10.016zm78.719-50.338 58.606-58.515 35.406 35.351-58.658 58.567zm111.046 20.209c-5.285.159-9.533 4.405-9.694 9.69l-.603 19.755-19.797.604c-5.285.161-9.532 4.408-9.691 9.693l-.334 11.072-21.44-21.469 58.678-58.587 18.991 18.961 1.634 9.745zm39.602-15.088-84.976-84.844c-3.904-3.898-10.228-3.898-14.132 0l-65.673 65.571-14.143-14.163 65.635-65.534c11.71-11.688 30.758-11.696 42.478-.024.009.009.017.018.025.026l84.947 84.821zm-7.095-63.636-12.867-12.848-36.694-36.641c-.007-.007-.015-.014-.023-.022-5.655-5.661-8.769-13.177-8.769-21.173 0-8.007 3.124-15.535 8.796-21.199l49.572-49.496 92.043 91.903-49.551 49.476c-11.719 11.701-30.787 11.701-42.507 0z"/><path d="m452.43 108.959-49.556-49.483c-3.904-3.898-10.229-3.898-14.132 0l-28.318 28.276c-1.878 1.876-2.934 4.422-2.934 7.076 0 2.655 1.056 5.2 2.934 7.076l49.557 49.482c1.952 1.949 4.509 2.924 7.066 2.924s5.114-.975 7.066-2.924l28.318-28.275c1.878-1.876 2.934-4.421 2.934-7.076-.001-2.654-1.057-5.2-2.935-7.076zm-35.384 21.22-35.404-35.351 14.166-14.145 35.403 35.352z"/><circle cx="383.61" cy="369.729" r="10"/></g></g></svg>