<svg id="Capa_1" enable-background="new 0 0 512 512" height="512" viewBox="0 0 512 512" width="512" xmlns="http://www.w3.org/2000/svg"><g><path d="m41 10c36.163 40.07 86.318 42.042 86.318 42.042l263.855 292.366-44.625 40.088-26.787-29.682-29.75 26.726s-87.247-52.404-158.412-154.638c-68.953-99.052-90.599-216.902-90.599-216.902z" fill="#fff"/><path d="m319.76 354.815-29.75 26.726s-87.247-52.4-158.412-154.638c-68.952-99.055-90.598-216.903-90.598-216.903 14.144 15.672 30.422 25.517 45.007 31.695 13.543 43.165 37.207 103.694 75.34 158.482 71.165 102.238 158.413 154.638 158.413 154.638z" fill="#e2e9ee"/><path d="m486.728 31.272c-6.753-6.753-17.603-7.057-24.724-.693l-293.831 262.616 56.632 56.632 262.616-293.831c6.364-7.12 6.06-17.971-.693-24.724z" fill="#e2e9ee"/><path d="m486.072 494.295-.011.01c-12.325 11.072-31.318 10.079-42.414-2.217l-97.099-107.591 44.625-40.088 97.121 107.615c11.087 12.286 10.093 31.207-2.222 42.271z" fill="#ffcd69"/><path d="m162.309 285.051h40.045v101.237h-40.045z" fill="#c5d3de" transform="matrix(.707 -.707 .707 .707 -183.95 227.243)"/><path d="m37.212 395.84c-29.068 29.068-26.553 64.058-2.832 87.779s58.712 26.236 87.779-2.832c17.884-17.884 17.583-42.813 23.385-61.563 2.376-7.678 18.142-20.575 24.776-24.776 8.52-5.396 33.645-8.829 33.645-8.829l-71.585-71.585s-4.388 24.171-9.783 32.691c-4.201 6.634-17.098 22.401-24.776 24.776-18.751 5.802-42.725 6.455-60.609 24.339z" fill="#a0e5a5"/><g><path d="m495.72 445.317-18.13-20.08c-1.89-2.101-4.6-3.301-7.43-3.301-2.471 0-4.851.92-6.69 2.58-1.99 1.79-3.15 4.24-3.29 6.91-.14 2.66.771 5.22 2.561 7.2v.01l18.13 20.081c3.34 3.72 5.12 8.33 5.13 13.321-.021 5.729-2.36 10.99-6.62 14.82l-.05.04c0 .011 0 .011-.011.021-3.72 3.31-8.34 5.071-13.35 5.08-5.77-.01-11.06-2.361-14.9-6.611l-90.38-100.153 29.745-26.727 12.016 13.316c1.89 2.09 4.59 3.3 7.42 3.29 2.479 0 4.859-.91 6.699-2.57 4.091-3.691 4.421-10.031.721-14.121l-93.832-103.979 171.418-191.801c9.893-11.07 9.419-27.963-1.078-38.46-10.497-10.498-27.39-10.971-38.459-1.078l-188.558 168.532-132.038-146.314c-1.793-1.987-4.333-3.174-7.006-3.292-.461-.021-46.374-2.457-79.11-38.506-2.235-2.624-5.768-4.026-9.405-3.361-5.433.986-9.038 6.188-8.053 11.621.217 1.194 22.464 120.595 92.222 220.818 10.389 14.927 21.683 29.594 33.695 43.79-1.285.498-2.468 1.252-3.461 2.245l-28.315 28.318c-1.492 1.492-2.41 3.34-2.762 5.27-.001.005-.005.007-.006.013-1.683 9.25-5.399 24.403-8.393 29.129-5.006 7.905-15.658 19.256-19.285 20.575-4.374 1.354-9.205 2.435-14.319 3.58-16.406 3.675-35.002 7.84-50.404 23.241-15.745 15.746-24.093 34.052-24.142 52.942-.046 17.8 7.521 35.196 21.309 48.984 13.746 13.746 31.077 21.31 48.821 21.31h.161c18.89-.049 37.195-8.397 52.94-24.142 15.139-15.141 18.91-33.769 22.237-50.204 1.129-5.576 2.195-10.844 3.617-15.444 1.33-3.66 12.681-14.312 20.584-19.318 4.114-2.605 18.609-5.861 29.665-7.377 2.08-.29 4.103-1.23 5.703-2.83l28.316-28.317c1.401-1.401 2.343-3.177 2.73-5.091 24.995 20.078 41.943 30.328 42.777 30.83 3.766 2.262 8.565 1.804 11.833-1.134l22.327-20.062 117.2 129.879c7.58 8.39 18.41 13.21 29.72 13.21h.07c9.88 0 19.37-3.641 26.73-10.26l.06-.051c8.4-7.57 13.21-18.371 13.2-29.65.01-9.881-3.64-19.371-10.28-26.722zm-48.545-388.089 21.493-19.211c3.162-2.827 7.99-2.691 10.988.309 3 2.999 3.135 7.826.309 10.989l-32.79 36.689zm-42.474 37.963 22.474-20.087v33.278l-22.474 25.146zm-42.474 37.963 22.475-20.088v42.839l-22.475 25.147zm-42.474 37.963 22.474-20.087v52.4l-22.474 25.146zm-42.474 37.963 22.474-20.087v61.96l-22.474 25.147zm-154.73-147.417 129.321 143.303-43.595 38.965c-13.954-15.961-26.954-32.565-38.718-49.477-32.344-46.466-54.056-97.318-67.726-136.757 9.007 2.417 16.341 3.496 20.718 3.966zm92.256 203.257v60.756l-32.081-32.082zm-74.998-43.744c-46.57-66.909-71.21-142.787-82.022-183.464 6.751 4.576 13.528 8.297 20.066 11.314 13.56 42.244 37.339 102.331 75.29 156.852 12.223 17.571 25.728 34.817 40.221 51.382l-14.9 13.317c-13.901-15.904-26.88-32.483-38.655-49.401zm25.163 164.819c-4.84 3.065-25.209 18.086-28.979 30.271-1.729 5.592-2.947 11.605-4.124 17.421-2.901 14.333-5.901 29.152-16.777 40.029-12.126 12.126-25.796 18.225-39.157 18.224-12.23-.002-24.202-5.114-34.48-15.392-21.506-21.507-20.395-50.413 2.832-73.64 11.296-11.296 26.21-14.636 40.633-17.867 5.272-1.181 10.724-2.401 15.859-3.99 12.183-3.769 27.205-24.139 30.271-28.98 2.793-4.41 5.197-11.429 7.062-18.173l45.378 45.38c-6.934 1.668-14.08 3.907-18.518 6.717zm38.996-14.523-57.443-57.446 14.173-14.174 57.037 57.041c.003.003.007.006.01.009zm30.839-47.847v-76.581l22.475-20.088v71.521zm54.189 45.378c-7.809-5.179-22.467-15.404-40.695-30.464l13.047-14.598c17.819 14.981 32.604 25.682 42.046 32.125zm35.921-22.767c-.002-.001-.002-.003-.004-.004-.001-.001-.015-.009-.019-.011-.017-.01-.034-.021-.052-.031-1.242-.756-21.787-13.379-50.159-37.168l35.371-39.577 66.979 74.219-29.746 26.72c.001-.001-21.546-23.652-22.37-24.148z"/><path d="m433.32 391.11c-4.1 3.69-4.42 10.03-.72 14.12 1.891 2.101 4.59 3.301 7.42 3.301 2.48 0 4.86-.91 6.7-2.58 4.09-3.69 4.42-10.021.72-14.12-1.89-2.101-4.6-3.3-7.43-3.3-2.47-.001-4.85.919-6.69 2.579z"/></g></g></svg>