<svg id="Capa_1" enable-background="new 0 0 512 512" height="512" viewBox="0 0 512 512" width="512" xmlns="http://www.w3.org/2000/svg"><g><path d="m188.868 207.808-42.51 42.35c.001.001.002.002.002.002l-.006-.003 1.002 28.277 28.36.135 1.994 27.144h28.35l2.004 26.281h28.35l4.008 24.285h28.35l5.011 22.289h28.35l9.019 19.294h28.35l6.013 11.309s26.485 7.578 59.739 2.322c8.583-1.356 16.745-6.767 16.745-6.767s-155.285-119.381-233.131-196.918z" fill="#c5d3de"/><path d="m118.01 221.926 28.344 28.231 42.516-42.347-28.344-28.231z" fill="#e2e9ee"/><path d="m18.805 123.117 99.204 98.809 42.516-42.347-99.204-98.809c-11.74-11.694-30.776-11.694-42.516 0-11.74 11.694-11.74 30.653 0 42.347z" fill="#ffcd69"/><path d="m393.99 221.771-28.344 28.202-42.516-42.303 28.344-28.202z" fill="#fff"/><path d="m493.195 80.761c-11.741-11.682-30.776-11.682-42.516 0l-99.204 98.707 42.516 42.303 99.204-98.707c11.74-11.681 11.74-30.621 0-42.303z" fill="#33d6f5"/><path d="m323.13 207.67c-78.537 78.143-233.13 196.708-233.13 196.708s60.585 59.577 275.646-154.406z" fill="#e2e9ee"/><path d="m273.5 165h-35c-11.046 0-20-8.954-20-20 0-11.046 8.954-20 20-20h35c11.046 0 20 8.954 20 20 0 11.046-8.954 20-20 20z" fill="#a0e5a5"/><path d="m276 332v-167h-40v167c-24.816 14.889-40 41.708-40 70.648v24.093c0 30.175 14.99 58.378 40 75.26v-102.001c0-11.046 8.954-20 20-20 11.046 0 20 8.954 20 20v102c25.01-16.882 40-45.085 40-75.26v-24.093c0-28.939-15.184-55.757-40-70.647z" fill="#fff"/><path d="m273.5 50h-35c-11.046 0-20-8.954-20-20 0-11.046 8.954-20 20-20h35c11.046 0 20 8.954 20 20 0 11.046-8.954 20-20 20z" fill="#a0e5a5"/><path d="m231 125s11.25-33 0-75h50s-11.25 33 0 75z" fill="#a0e5a5"/><g><path d="m509.06 86.88c-2.03-4.97-4.99-9.41-8.81-13.21-3.81-3.79-8.26-6.73-13.23-8.74-4.81-1.95-9.86-2.93-15.04-2.93h-.09c-5.18 0-10.23.979-15.04 2.93-4.97 2.01-9.42 4.95-13.23 8.75 0 0-146.323 145.139-157.62 155.494v-56.912c10.317-4.75 17.5-15.179 17.5-27.261 0-10.43-5.353-19.63-13.453-25.007-7.894-31.833-2.026-57.918-.123-64.906 8.168-5.368 13.576-14.606 13.576-25.088 0-16.542-13.458-30-30-30h-35c-16.542 0-30 13.458-30 30 0 10.43 5.353 19.63 13.453 25.007 7.887 31.806 2.036 57.875.122 64.907-8.167 5.366-13.575 14.604-13.575 25.086 0 12.082 7.183 22.511 17.5 27.261v57.076c-11.318-10.379-157.622-155.651-157.622-155.651-15.613-15.552-41.018-15.552-56.63 0-7.576 7.544-11.748 17.581-11.748 28.256 0 10.677 4.172 20.713 11.748 28.26l124.749 124.251.869 24.333c.191 5.361 4.58 9.616 9.944 9.643l19.113.095 1.313 17.917c.383 5.225 4.734 9.269 9.973 9.269h7.606c-54.36 44.613-100.816 80.286-101.401 80.735-2.297 1.762-3.718 4.433-3.896 7.321-.178 2.89.906 5.715 2.97 7.744 1.788 1.758 11.861 10.544 34.406 10.544 16.047 0 38.418-4.461 68.605-19.072v23.758c0 33.547 16.6 64.78 44.405 83.548 3.065 2.069 7.022 2.277 10.288.542s5.307-5.132 5.307-8.83v-102c0-5.514 4.486-10 10-10s10 4.486 10 10v102c0 3.698 2.041 7.095 5.307 8.83 1.472.782 3.084 1.17 4.693 1.17 1.959 0 3.912-.575 5.595-1.712 27.806-18.767 44.406-50.001 44.406-83.548v-18.88h7.495l3.198 6.009c1.274 2.395 3.467 4.168 6.075 4.915.863.247 16.299 4.568 38.439 4.568 7.812-.001 16.461-.539 25.596-1.983 10.442-1.643 19.701-7.627 20.722-8.304 2.691-1.784 4.356-4.758 4.469-7.984.113-3.228-1.339-6.311-3.898-8.278-.542-.417-52.216-40.186-110.125-88.057 17.624-15.699 118.44-115.076 118.44-115.076 3.9-3.89 3.92-10.23.03-14.14-1.89-1.9-4.41-2.95-7.09-2.95-2.66 0-5.16 1.04-7.05 2.92l-28.31 28.16-28.338-28.192 92.077-91.618c3.79-3.76 8.83-5.84 14.2-5.85 5.38.01 10.43 2.09 14.21 5.85 3.77 3.75 5.85 8.75 5.86 14.061-.01 5.319-2.09 10.31-5.86 14.069l-.04.04c-1.89 1.88-2.94 4.391-2.95 7.061 0 2.67 1.03 5.18 2.91 7.08 1.9 1.899 4.41 2.939 7.09 2.939 2.67 0 5.17-1.03 7.06-2.91l.04-.04c3.82-3.79 6.78-8.239 8.81-13.21 1.96-4.8 2.94-9.859 2.94-15.029s-.98-10.231-2.94-15.031zm-185.975 134.852 28.361 28.218c-22.751 22.346-44.67 42.471-65.446 60.105v-53.905c13.901-12.446 26.341-23.989 37.085-34.418zm-94.585-76.732c0-5.514 4.486-10 10-10h35c5.514 0 10 4.486 10 10s-4.486 10-10 10h-35c-5.514 0-10-4.486-10-10zm14.981-85h24.858c-2.196 12.182-4.024 31.823.179 55h-24.858c2.196-12.182 4.025-31.823-.179-55zm-4.981-40h35c5.514 0 10 4.486 10 10s-4.486 10-10 10h-35c-5.514 0-10-4.486-10-10s4.486-10 10-10zm-92.146 216.043-14.174-14.117 28.346-28.232 14.174 14.117zm-126.354-134.1c0-5.319 2.082-10.322 5.862-14.088 7.83-7.798 20.572-7.799 28.402 0l92.091 91.724-28.346 28.232-92.147-91.779c-3.78-3.765-5.862-8.769-5.862-14.089zm167.003 193.767-1.31-17.871c-.382-5.206-4.704-9.242-9.923-9.269l-18.759-.093-.511-14.304 32.415-32.294c10.719 10.417 23.16 21.967 37.085 34.44v25.491c-5.679 4.812-11.372 9.598-17.04 14.33-.92-.278-21.957-.43-21.957-.43zm-76.935 105.769c22.394-17.454 68.608-53.867 115.932-93.517v18.59c-18.185 12.545-31.192 31.29-36.847 52.349-40.748 22.011-65.573 24.362-79.085 22.578zm195.932 25.261c0 19.843-7.247 38.677-20 53.231v-79.971c0-16.542-13.458-30-30-30s-30 13.458-30 30v79.972c-12.753-14.555-20-33.389-20-53.231v-24.093c0-25.28 13.467-49.065 35.145-62.072 3.012-1.808 4.855-5.062 4.855-8.575v-157.001h20v157c0 3.513 1.843 6.768 4.855 8.575 21.678 13.007 35.145 36.792 35.145 62.072zm96.01-24.873c-22.605 3.286-41.814.264-49.79-1.393l-3.893-7.313c-1.736-3.262-5.131-5.301-8.827-5.301h-14.717c-3.643-22.179-15.345-42.485-32.746-56.751 3.527-2.937 7.088-5.946 10.68-9.026 41.171 34.095 79.547 64.365 99.293 79.784zm-36.361-166.004-28.341-28.194 14.164-14.093 28.34 28.195z"/><circle cx="461.25" cy="154.84" r="10"/></g></g></svg>