<svg id="Capa_1" enable-background="new 0 0 512 512" height="512" viewBox="0 0 512 512" width="512" xmlns="http://www.w3.org/2000/svg"><g><path d="m30 376h452c11.046 0 20 8.954 20 20 0 11.046-8.954 20-20 20h-452c-11.046 0-20-8.954-20-20 0-11.046 8.954-20 20-20z" fill="#ffe6b4"/><path d="m30 376s-5-71 92.5-89.5c0 0 30.835-11.412 83-7.5 40 3 55.742 26.996 119.5 47 39.303 12.331 157-29 157 50z" fill="#ffd0c7"/><path d="m482 316v60c0-79-117.7-37.67-157-50-63.76-20-79.5-44-119.5-47-52.17-3.91-83 7.5-83 7.5-18.16 3.45-32.76 8.71-44.5 15 0 0 12.33-97.5 60.33-90.83 48 6.66 47 22.66 96.34 31.33 49.33 8.67 52.83-25.5 137.66 30.67 24.58 16.27 95.34-13.34 109.67 43.33z" fill="#ff7b79"/><path d="m482 316c-14.33-56.67-85.09-27.06-109.67-43.33-84.83-56.17-88.33-22-137.66-30.67-49.34-8.67-48.34-24.67-96.34-31.33-7.65-1.06-14.39.52-20.33 3.93 0 0 9.76-43.89 91.67-46.6 0 0 56.66-28 133.33 39.33 33.14 29.11 139-16.66 139 108.67z" fill="#ffd0c7"/><path d="m482 222v94c0-125.33-105.86-79.56-139-108.67-76.67-67.33-133.33-39.33-133.33-39.33s34-70 130-22.67c96 47.34 142.33-42 142.33 76.67z" fill="#ff7b79"/><path d="m452.33 156.73h-.01c-23.39-.15-60.77 14.18-112.65-11.4-29.2-14.39-52.66-17.94-71.17-15.89l-.83-.54s33.371-32.9 79.33-32.9c25.256 0 68.768 14.986 105.33 60.73z" fill="#ffd0c7"/><g><circle cx="356.859" cy="416" r="10"/><path d="m503.21 374.79c-3.216-3.222-7.039-5.617-11.21-7.088v-145.702c0-37.851-4.627-57.388-15.97-67.434-5.485-4.857-11.789-6.956-18.777-7.597-37.495-44.905-82.551-60.969-110.253-60.969-44.065 0-76.919 27.187-84.644 34.183-4.894.817-9.662 2.01-14.294 3.599-24.696 8.467-38.531 25.693-44.249 34.474-69.748 3.967-89.317 37.574-94.154 49.807-.633.44-1.261.897-1.884 1.374-26.295 20.134-36.339 69.829-38.956 85.835-19.824 11.718-31.304 26.008-37.911 38.128-7.339 13.461-9.805 26.085-10.595 34.197-4.293 1.46-8.227 3.89-11.523 7.192-5.67 5.661-8.79 13.201-8.79 21.211 0 8.02 3.12 15.55 8.79 21.21 5.66 5.66 13.19 8.79 21.21 8.79h281.859c5.511 0 9.99-4.49 9.99-10s-4.47-9.99-9.979-10h-.011-281.859c-5.5-.01-9.99-4.5-10-10 .01-5.5 4.5-9.99 10-10h452c5.5.01 9.99 4.5 10 10-.01 5.5-4.5 9.99-10 10h-80.141c-5.52 0-10 4.49-10 10s4.48 10 10 10h80.141c8.01 0 15.55-3.13 21.21-8.79 5.67-5.66 8.79-13.19 8.79-21.21 0-8.01-3.12-15.55-8.79-21.21zm-284.805-199.379c5.481-1.679 15.887-3.954 29.923-2.923 28.437 2.083 58.892 16.729 88.072 42.355 12.723 11.176 31.961 13.167 52.328 15.276 20.396 2.112 41.484 4.295 57.143 15.403 10.458 7.418 17.718 18.581 21.885 33.763-3.317-2.041-6.919-3.787-10.841-5.196-14.719-5.288-31.563-5.418-46.425-5.533-13.062-.101-26.568-.206-32.641-4.225-60.347-39.959-82.819-36.475-106.608-32.79-10.468 1.622-20.355 3.154-34.842.608-22.744-3.997-33.664-9.421-45.226-15.164-12.471-6.194-25.367-12.6-51.468-16.222-.34-.047-.677-.077-1.015-.117 10.309-9.682 29.912-20.45 66.681-22.452 7.067-.382 10.22-1.921 13.034-2.783zm213.267-26.945c-22.7 2.762-50.897 5.985-87.58-12.105-16.724-8.245-32.629-13.574-47.628-15.987 12.831-7.289 30.465-14.374 50.536-14.374 20.984 0 54.181 11.429 84.672 42.466zm-177.124-5.765c22.378-7.673 49.529-3.771 80.699 11.598 42.378 20.897 75.391 16.878 99.493 13.941 14.914-1.816 23.567-2.652 28.03 1.299 6.21 5.5 9.229 22.66 9.229 52.461v21.019c-4.186-5.287-9.029-9.888-14.557-13.809-19.944-14.148-44.76-16.717-66.655-18.984-17.104-1.771-33.259-3.444-41.189-10.41-46.904-41.19-87.151-48.719-113.156-47.545 4.895-3.659 10.891-7.096 18.106-9.57zm-134.601 82.606c5.283-4.041 10.848-5.59 17.009-4.732 22.875 3.174 33.277 8.341 45.322 14.324 11.751 5.837 25.071 12.454 50.662 16.95 17.742 3.119 30.292 1.174 41.367-.542 20.717-3.21 38.611-5.983 92.505 29.702 11.022 7.296 26.812 7.418 43.526 7.547 32.462.251 54.403 2.41 61.663 28.74v13.411c-23.384-17.84-61.854-15.496-96.028-13.402-19.481 1.193-37.885 2.32-47.979-.847-28.75-9.021-47.128-18.711-63.342-27.261-18.732-9.877-34.909-18.408-58.403-20.17-30.75-2.306-54.434.517-69.318 3.446-9.1 1.791-36.68 8.359-45.676 12.233 4.673-20.37 13.889-48.077 28.692-59.399zm-79.368 140.693c2.51-16.832 14.592-51.667 70.67-66.693 4.129-1.106 19.02-4.956 26.827-6.62 13.023-2.776 36.042-6.013 66.676-3.714 19.344 1.451 32.442 8.357 50.57 17.917 16.128 8.504 36.2 19.088 66.685 28.653 13.617 4.272 32.883 3.093 55.188 1.726 32.127-1.967 68.54-4.198 85.056 11.337 4.626 4.352 7.576 10.09 8.913 17.396h-430.585z"/></g></g></svg>