<svg id="Capa_1" enable-background="new 0 0 512 512" height="512" viewBox="0 0 512 512" width="512" xmlns="http://www.w3.org/2000/svg"><g><path d="m23.854 256c0 35.788-13.569 142.506-13.569 142.506-3.636 38.192 28.117 70.395 66.349 67.286 0 0 134.377-14.585 179.367-14.585s179.367 14.585 179.367 14.585c38.232 3.109 69.985-29.093 66.348-67.286 0 0-13.569-106.718-13.569-142.506s13.569-142.506 13.569-142.506c3.637-38.192-28.117-70.395-66.348-67.286 0 0-134.377 14.585-179.367 14.585s-179.368-14.585-179.368-14.585c-38.232-3.109-69.985 29.093-66.349 67.286 0 0 13.57 106.718 13.57 142.506z" fill="#ccf5fc"/><path d="m176 216h-80v-80h60l20 40z" fill="#ff7b79"/><path d="m256 216h-80v-40l20-40h60z" fill="#ffd0c7"/><path d="m256 136h80v80h-80z" fill="#ff7b79"/><path d="m336 136h80v80h-80z" fill="#ffd0c7"/><path d="m96 216h80v80h-80z" fill="#ffd0c7"/><path d="m176 216h80v80h-80z" fill="#ff7b79"/><path d="m256 216h80v80h-80z" fill="#ffd0c7"/><path d="m336 216h80v80h-80z" fill="#ff7b79"/><path d="m156 376h-60v-80h80v40z" fill="#ff7b79"/><path d="m256 376h-60l-20-40v-40h80z" fill="#ffd0c7"/><path d="m256 296h80v80h-80z" fill="#ff7b79"/><path d="m336 296h80v80h-80z" fill="#ffd0c7"/><g><path d="m496.85 283.939c-2.05-1.88-4.8-2.83-7.58-2.59-5.49.45-9.59 5.29-9.14 10.79.21 2.51 1.35 4.84 3.21 6.54 1.85 1.7 4.24 2.63 6.74 2.63.27 0 .56-.01.84-.03 5.5-.46 9.6-5.3 9.14-10.789 0-.011 0-.011 0-.011-.21-2.509-1.35-4.83-3.21-6.54z"/><path d="m504.39 335.12c-.55-5.091-5.056-9.37-10.47-8.9-2.66.279-5.58 1.61-7.26 3.69s-2.44 4.689-2.16 7.34c3.37 31.43 6.88 59.24 7.27 62.3.15 1.61.23 3.27.23 4.92-.01 13.69-5.37 26.61-15.12 36.38-9.76 9.76-22.7 15.141-36.41 15.15-1.39 0-41.05-4.12-76.99-7.46-52.35-4.851-88.51-7.32-107.48-7.33-18.97.01-55.13 2.479-107.48 7.33-35.9 3.34-75.62 7.46-76.99 7.46-13.72-.01-26.65-5.391-36.42-15.15-9.74-9.77-15.11-22.69-15.11-36.38 0-1.64 3.77-32.96 7.01-62.71 1.98-18.23 3.56-34.23 4.69-47.55 1.44-17.15 2.15-29.65 2.15-38.21 0-8.561-.71-21.061-2.15-38.21-3.64-42.95-10.68-99.061-11.47-105.311-.15-1.62-.23-3.279-.23-4.95 0-13.699 5.37-26.619 15.11-36.39 9.77-9.759 22.71-15.139 36.42-15.139 1.36 0 38.02 3.83 76.99 7.46 52.35 4.85 88.52 7.319 107.48 7.33 18.96-.011 55.13-2.48 107.48-7.33 39.1-3.641 75.61-7.46 76.99-7.46 13.71 0 26.65 5.38 36.41 15.14 9.75 9.771 15.12 22.7 15.12 36.39 0 1.601-3.14 27.87-6.21 55.4-4.13 37.25-6.62 65.15-7.39 82.92-.12 2.67.81 5.22 2.62 7.19 1.8 1.97 4.56 3.116 7.23 3.236 5.36 0 9.9-4.207 10.13-9.566.92-21.54 4.47-56.25 7.29-81.57 1.61-14.47 6-50.7 6-50.7.22-2.29.33-4.609.33-6.91-.01-9.63-1.9-18.979-5.63-27.789-3.61-8.511-8.77-16.16-15.34-22.73-6.57-6.58-14.21-11.75-22.73-15.36-8.82-3.739-18.18-5.64-27.83-5.649-1.99 0-16.32 1.35-27.82 2.54-20.5 2.1-51.18 5.149-80.97 7.67-24.56 2.09-57.715 4.58-75.705 4.58-24.08 0-76.545-4.54-105.605-7.25-20.38-1.893-76.86-7.542-78.84-7.542-9.65.01-19.01 1.91-27.83 5.649-8.52 3.61-16.16 8.78-22.74 15.36-6.56 6.571-11.72 14.22-15.33 22.731-3.73 8.81-5.63 18.159-5.63 27.789 0 2.28.11 4.61.33 6.921 0 0 6.93 58.04 9.28 81.72 1.94 19.49 4.26 45.689 4.24 59.83.01 7.77-.71 20.399-2.08 36.52-1.97 23.26-4.96 50.46-7.13 69.181-.97 8.439-4.64 40.459-4.64 42.769.01 9.62 1.9 18.97 5.63 27.78 3.61 8.51 8.77 16.16 15.33 22.74 6.58 6.569 14.22 11.739 22.74 15.35 8.82 3.75 18.18 5.65 27.83 5.66 1.98 0 14.23-1.141 27.82-2.54 20.49-2.101 51.17-5.15 80.97-7.681 24.55-2.079 57.59-4.569 75.59-4.569h.23c24.09 0 76.43 4.54 105.49 7.25 20.38 1.89 38.99 3.76 51.02 5 13.46 1.39 25.85 2.54 27.82 2.54 9.65-.01 19.01-1.91 27.83-5.65 8.52-3.62 16.16-8.78 22.73-15.359 6.57-6.58 11.73-14.23 15.33-22.74 3.74-8.811 5.63-18.16 5.64-27.78 0-2.3-.11-4.62-.33-6.91 0-.001-5.45-45.351-7.28-62.441z"/><path d="m196 126c-3.788 0-7.25 2.14-8.944 5.528l-11.056 22.112-11.056-22.111c-1.694-3.389-5.156-5.529-8.944-5.529h-60c-5.523 0-10 4.478-10 10v240c0 5.522 4.477 10 10 10h60c3.788 0 7.25-2.14 8.944-5.528l11.056-22.112 11.056 22.111c1.694 3.389 5.156 5.529 8.944 5.529h220c5.523 0 10-4.478 10-10v-240c0-5.522-4.477-10-10-10zm-90 100h60v60h-60zm80 0h60v60h-60zm80 0h60v60h-60zm80 0h60v60h-60zm60-20h-60v-60h60zm-80 0h-60v-60h60zm-123.82-60h43.82v60h-60v-27.64zm-96.18 0h43.82l16.18 32.36v27.64h-60zm43.82 220h-43.82v-60h60v27.64zm36.18-32.36v-27.64h60v60h-43.82zm80-27.64h60v60h-60zm140 60h-60v-60h60z"/></g></g></svg>