<svg id="Capa_1" enable-background="new 0 0 512 512" height="512" viewBox="0 0 512 512" width="512" xmlns="http://www.w3.org/2000/svg"><g><path d="m216 50v113.497c0 11.927-3.554 23.582-10.209 33.48l-65.751 97.783c-16.322 24.275-25.04 52.863-25.04 82.115 0 26.27 7.032 52.062 20.366 74.696l23.806 40.41c3.657 6.208 10.325 10.019 17.53 10.019 15.733 0 25.513-17.093 17.54-30.656l-23.218-39.501c-9.837-16.736-15.024-35.797-15.024-55.211 0-21.702 6.481-42.909 18.612-60.903l67.723-100.458c8.906-13.212 13.665-28.784 13.665-44.718v-120.553z" fill="#ffe6b4"/><path d="m371.96 294.76-65.751-97.784c-6.655-9.896-10.209-21.553-10.209-33.479v-113.497h-40v120.553c0 15.935 4.759 31.506 13.666 44.719l67.723 100.458c12.13 17.994 18.611 39.201 18.611 60.902 0 19.414-5.187 38.475-15.025 55.211l-23.218 39.5c-7.972 13.563 1.807 30.656 17.54 30.656 7.205 0 13.873-3.811 17.53-10.019l23.806-40.41c13.335-22.633 20.367-48.424 20.367-74.695 0-29.251-8.718-57.84-25.04-82.115z" fill="#ffe6b4"/><circle cx="256" cy="50" fill="#fff" r="40"/><g><path d="m389.029 429.39c-1.332-.62-2.733-.93-4.185-.93-3.905 0-7.469 2.29-9.102 5.819-1.922 4.171-30.237 52.631-30.237 52.631-1.852 3.14-5.277 5.09-8.921 5.09-2.964-.021-5.397-1.04-7.439-3.13-1.862-1.92-2.964-4.641-2.953-7.25.01-1.841.49-3.54 1.462-5.21l23.248-39.5c10.743-18.261 16.421-39.101 16.421-60.28 0-11.79-1.752-23.49-5.196-34.76-3.454-11.28-8.551-21.96-15.149-31.73l-67.803-100.46c-7.84-11.6-11.975-25.13-11.975-39.13v-71.556c7.395-1.505 14.201-4.644 20.025-9.021v73.527c0 13.97 4.125 27.47 11.924 39.06l65.831 97.78c10.633 15.79 17.752 33.29 21.156 52.02.871 4.75 5.006 8.21 9.842 8.21.601 0 1.202-.06 1.803-.17 5.427-.979 9.041-6.199 8.06-11.62 0-.01 0-.01 0-.01-1.932-10.58-4.956-21-9.011-30.97-4.065-10.021-9.191-19.65-15.229-28.62l-65.831-97.78c-5.577-8.279-8.52-17.93-8.52-27.899v-113.501c0-27.57-22.457-50-50.062-50-27.604 0-50.062 22.43-50.062 50v113.497c0 9.975-2.946 19.622-8.518 27.899l-65.832 97.784c-17.518 26.018-26.776 56.342-26.776 87.695 0 28.033 7.531 55.618 21.777 79.772l23.835 40.41c5.437 9.217 15.468 14.943 26.179 14.943 11.034 0 20.892-5.711 26.372-15.275 5.479-9.565 5.413-20.948-.178-30.448l-23.246-39.5c-8.938-15.188-13.663-32.527-13.663-50.144 0-19.783 5.852-38.91 16.925-55.313l67.806-100.458c1.983-2.938 3.774-5.974 5.384-9.09 1.612 3.125 3.399 6.161 5.372 9.088l67.814 100.46c11.074 16.4 16.921 35.53 16.921 55.311 0 17.62-4.726 34.96-13.657 50.14l-23.249 39.5c-2.773 4.7-4.235 10.01-4.225 15.351.01 7.87 3.034 15.359 8.52 21.09 5.617 5.899 13.567 9.29 21.817 9.29h.08c5.277 0 10.493-1.38 15.068-4 4.586-2.62 8.431-6.4 11.104-10.94 0 0 28.965-49.64 31.168-54.41 1.121-2.42 1.231-5.14.3-7.649-.92-2.503-2.773-4.503-5.195-5.613zm-131.843-409.39c16.562 0 30.037 13.458 30.037 30s-13.475 30-30.037 30-30.037-13.458-30.037-30 13.475-30 30.037-30zm-10.012 150.553c0 13.994-4.14 27.525-11.972 39.129l-67.806 100.458c-13.31 19.719-20.345 42.712-20.345 66.493 0 21.177 5.679 42.021 16.424 60.278l23.246 39.5c2.748 4.669.958 8.815.061 10.381s-3.569 5.208-8.991 5.208c-3.652 0-7.072-1.952-8.925-5.095l-23.835-40.41c-12.434-21.08-19.006-45.154-19.006-69.62 0-27.362 8.08-53.827 23.367-76.534l65.832-97.784c7.802-11.589 11.926-25.095 11.926-39.06v-73.524c5.824 4.377 12.63 7.516 20.025 9.021v71.556.003z"/><circle cx="256" cy="50" r="10"/><circle cx="395.83" cy="395.375" r="10"/></g></g></svg>