<svg id="Capa_1" enable-background="new 0 0 512 512" height="512" viewBox="0 0 512 512" width="512" xmlns="http://www.w3.org/2000/svg"><g><path d="m256 410c-11.046 0-20-8.954-20-20v-22h40v22c0 11.046-8.954 20-20 20z" fill="#c5d3de"/><path d="m326 50v10c0 38.66-31.34 70-70 70-38.66 0-70-31.34-70-70v-10h40v10c0 16.569 13.431 30 30 30 16.569 0 30-13.431 30-30v-10z" fill="#ffe6b4"/><circle cx="256" cy="270" fill="#fff" r="100"/><path d="m10 10h492v40h-492z" fill="#e2e9ee"/><circle cx="256" cy="270" fill="#a0e5a5" r="20"/><g><circle cx="413" cy="50" r="10"/><path d="m509.069 2.93c-1.859-1.861-4.439-2.93-7.069-2.93h-492c-2.63 0-5.21 1.069-7.07 2.93-1.86 1.86-2.93 4.44-2.93 7.07v40c0 2.64 1.07 5.21 2.93 7.069 1.86 1.861 4.44 2.931 7.07 2.931h166c0 40.724 30.594 74.414 70 79.353v21.107c-55.985 5.069-100 52.257-100 109.54 0 50.258 33.88 92.751 80 105.841v14.159c0 13.036 8.361 24.152 20 28.28v11.72c0 5.522 4.477 10 10 10 7.285 0 14.037 2.935 19.012 8.265 4.97 5.323 7.429 12.285 6.924 19.601-.885 12.837-11.233 23.185-24.069 24.07-7.318.501-14.278-1.954-19.602-6.924-5.33-4.975-8.265-11.727-8.265-19.012 0-5.522-4.477-10-10-10s-10 4.478-10 10c0 12.702 5.328 24.961 14.617 33.632 8.616 8.043 19.637 12.369 31.332 12.368 1.092 0 2.191-.035 3.293-.111 22.743-1.569 41.077-19.903 42.646-42.647.89-12.907-3.463-25.203-12.257-34.624-6.36-6.814-14.651-11.496-23.632-13.508v-2.83c11.639-4.128 20-15.244 20-28.28v-14.159c46.12-13.09 80-55.583 80-105.841 0-57.283-44.015-104.471-100-109.541v-21.107c39.406-4.939 70-38.629 70-79.353h32c5.51 0 10-4.49 10-10s-4.49-10-10-10h-347.999v-19.999h472v20h-34c-5.521 0-10 4.49-10 10s4.479 10 10 10h.01 43.99c2.63 0 5.21-1.07 7.069-2.931 1.861-1.859 2.931-4.439 2.931-7.069v-40c0-2.63-1.07-5.21-2.931-7.07zm-243.069 387.07c0 5.514-4.486 10-10 10s-10-4.486-10-10v-10.459c3.295.298 6.629.459 10 .459s6.705-.161 10-.459zm80-120c0 49.626-40.374 90-90 90s-90-40.374-90-90 40.374-90 90-90 90 40.374 90 90zm-70-210c0 11.028-8.972 20-20 20s-20-8.972-20-20zm-60 0c0 22.056 17.944 40 40 40s40-17.944 40-40h20c0 33.084-26.916 60-60 60s-60-26.916-60-60z"/><path d="m256 240c-16.542 0-30 13.458-30 30s13.458 30 30 30 30-13.458 30-30c0-4.563-1.029-8.889-2.859-12.765l23.479-20.74c4.14-3.656 4.531-9.977.875-14.115-3.655-4.14-9.976-4.53-14.115-.875l-24.326 21.488c-3.949-1.916-8.378-2.993-13.054-2.993zm0 40c-5.514 0-10-4.486-10-10s4.486-10 10-10 10 4.486 10 10-4.486 10-10 10z"/><path d="m186.02 268.34c0-.001 0-.002 0-.002 0-.002 0-.005 0-.007 0-.001 0-.001 0 .009z"/><path d="m206.01 268.8c.13-5.521-4.24-10.1-9.76-10.23-5.519-.119-10.098 4.249-10.23 9.768-.126 5.526 4.242 10.102 9.76 10.232h.25c5.41 0 9.86-4.329 9.99-9.77z"/><path d="m247.15 209.819c-.11 5.53 4.29 10.08 9.81 10.19h.189c5.44 0 9.891-4.35 9.99-9.81.11-5.521-4.29-10.091-9.81-10.19-5.519-.099-10.079 4.291-10.179 9.81z"/><path d="m207.58 219.45c-.01 0-.01 0-.01 0-3.98 3.819-4.12 10.159-.3 14.14 1.97 2.05 4.59 3.08 7.22 3.08 2.49 0 4.98-.92 6.92-2.78 3.99-3.82 4.12-10.149.3-14.14-3.82-3.98-10.15-4.12-14.13-.3z"/><circle cx="316" cy="270" r="10"/><path d="m290.85 305.859c-3.97 3.851-4.06 10.181-.21 14.141 1.96 2.01 4.57 3.029 7.17 3.029 2.521 0 5.03-.939 6.971-2.829 3.97-3.851 4.06-10.181.21-14.141-3.851-3.959-10.181-4.049-14.141-.2z"/><path d="m255.4 319.99c-5.52-.061-10.05 4.369-10.11 9.89-.07 5.52 4.36 10.05 9.88 10.12h.12c5.47 0 9.93-4.41 9.99-9.891.07-5.519-4.36-10.049-9.88-10.119z"/><path d="m206.17 304.88c-3.94 3.87-4 10.2-.14 14.14 1.96 2 4.55 3 7.14 3 2.53 0 5.06-.95 7-2.859 3.95-3.87 4.01-10.2.14-14.141-3.87-3.951-10.2-4.01-14.14-.14z"/></g></g></svg>