<svg id="Capa_1" enable-background="new 0 0 512 512" height="512" viewBox="0 0 512 512" width="512" xmlns="http://www.w3.org/2000/svg"><g><path d="m464 313.525c0 43.453-44.781 73.475-94.492 73.475h-165.514s50.871-45.144 67.312-109.333c0 0 81.862 43.924 192.334 24.219.24 3.863.36 7.745.36 11.639z" fill="#a0e5a5"/><path d="m502 286c0 16.569-13.431 30-30 30s-30-13.431-30-30 25.431-30 42-30c18 0 18 13.432 18 30z" fill="#fff"/><path d="m253.005 151.321c-1.25 20.115-33.121 31.124-58.711 45.104l-26.291 12.44c20 32.925-6.99 56.923-17 65.55-48.291 41.592 12 72.055 12 72.055h-21c-34.341 0-48.241-18.714-53.751-36.067-5.41-17.033-21.081-28.681-38.941-28.391l-14.311.41c-6.4 0-12.8-2.442-17.68-7.336-4.88-4.884-7.32-11.288-7.32-17.683 0-6.405 3.61-16.873 7.32-22.697 18.28-28.661 54.901-72.034 102.012-72.034 7.54 0 13.28 3.893 17.12 7.735 3.65 3.653 9.47 3.953 13.45.661 28.311-23.398 56.351-46.415 85.102-41.762 13.571 2.19 18.691 10.977 18.001 22.015z" fill="#fff"/><path d="m271.306 277.667c-16.441 64.189-67.312 109.333-67.312 109.333h-140.993c-2.76 0-5.64-1.121-7.82-2.932s-3.68-4.313-3.68-7.075c0-16.582 13.96-30.023 30.531-30.023l80.972-.5s-60.291-30.463-12-72.055c10.01-8.627 37.001-32.625 17-65.55l26.291-12.44c21.13-5.874 44.091-13.82 67.991-20.315 16.87 36.288 16.83 71.074 9.02 101.557z" fill="#ffe6b4"/><path d="m463.64 301.886c-110.472 19.705-192.334-24.219-192.334-24.219 7.81-30.483 7.85-65.269-9.02-101.557 34.651-9.407 71.292-15.752 107.222-8.276 54.291 11.298 90.242 69.723 94.132 134.052z" fill="#ffd0c7"/><path d="m212.125 130.975c-20.85 5.985-41.461 22.938-62.221 40.091-4.01 3.313-9.83 2.952-13.5-.711-3.84-3.833-9.57-7.686-17.07-7.686-3.44 0-6.88.23-10.31.68 0 0 39.981-52.35 70.312-52.35 28.178.001 32.459 13.172 32.789 19.976z" fill="#e2e9ee"/><path d="m388.156 252.012c-39.219.691-71.525 32.249-73.095 71.443-.544 13.586 2.572 26.391 8.413 37.545h-19.974c-16.569 0-30 13.431-30 30 0 5.523 4.477 10 10 10h105c40.891 0 74.914-32.534 75.492-73.421.596-42.087-33.715-76.309-75.836-75.567z" fill="#ccf5fc"/><g><path d="m512 286c0-9.141 0-17.774-3.012-25.042-2.828-6.823-9.459-14.958-24.988-14.958-6.257 0-13.39 1.495-20.285 4.149-1.767-5.234-3.748-10.348-5.935-15.305-1.6-3.62-5.19-5.961-9.15-5.961-1.4 0-2.76.29-4.04.86-2.45 1.08-4.32 3.04-5.29 5.53-.96 2.5-.89 5.21.19 7.66 3.132 7.079 5.766 14.444 7.898 22.044-16.133-15.207-37.12-23.376-59.407-22.964-30.55.539-57.223 17.34-71.626 42.174-1.644-.479-32.774-11.765-33.494-12.084 2.33-11.2 3.5-22.471 3.5-33.48.01-18.939-3.47-37.7-10.36-55.74 22.83-5.609 42.53-8.34 60.21-8.34h.06c10.9 0 21.4 1.04 31.2 3.08 5.93 1.23 11.77 3.141 17.36 5.681 1.31.59 2.7.89 4.12.89 3.92 0 7.5-2.311 9.12-5.88 2.28-5.021.04-10.96-4.98-13.23-6.92-3.14-14.17-5.51-21.55-7.04-11.15-2.319-23.01-3.5-35.27-3.5-12.35 0-25.12 1.141-39.03 3.48-11.385 1.906-38.773 8.775-39.375 8.941 2.928-4.461 4.772-9.411 5.121-15.019 1.079-17.252-9.032-29.71-26.383-32.512-5.909-.958-11.721-.944-17.451-.165-4.306-8.616-14.729-18.269-39.819-18.269-30.711 0-65.66 40.529-75.777 53.122-47.359 8.701-81.399 54.4-94.671 75.21-4.368 6.857-8.886 19.231-8.886 28.069 0 9.35 3.639 18.14 10.239 24.745 6.607 6.625 15.401 10.274 24.761 10.274.096 0 14.821-.415 14.966-.415 13.151 0 24.667 8.556 28.754 21.423 2.937 9.249 7.399 17.104 13.216 23.48l-9.905.061c-22.349 0-40.531 17.954-40.531 40.023 0 5.535 2.657 10.917 7.292 14.769 4.009 3.33 9.188 5.239 14.209 5.239h201.421c2.555 8.105 10.14 14 19.078 14h105c46.49 0 84.841-37.359 85.491-83.279.008-.593-.015-1.18-.019-1.771 21.144-1.032 38.028-18.556 38.028-39.95zm-332.666-165c5.856 0 14.53.677 19.318 4.241-19.049 8.315-37.273 23.356-55.125 38.096-4.17-4.173-8.84-7.159-13.813-8.894 15.284-16.403 35.649-33.443 49.62-33.443zm-129.356 151.005c-.275 0-15.103.415-15.103.415-3.961-.032-7.676-1.59-10.481-4.403-2.833-2.836-4.394-6.606-4.394-10.616 0-4.184 2.851-12.766 5.751-17.32 12.927-20.269 47.925-67.411 93.581-67.411 3.481 0 6.861 1.616 10.046 4.803 7.343 7.351 18.907 7.907 26.895 1.302 25.908-21.412 52.698-43.55 77.137-39.598 7.362 1.188 10.058 4.419 9.614 11.521v.004c-.642 10.33-20.147 20.056-37.357 28.635-5.261 2.623-41.941 20.49-41.941 20.49-2.561 1.212-4.487 3.452-5.301 6.165-.814 2.714-.439 5.645 1.031 8.065 14.091 23.196-.604 40.394-14.979 52.781-16.447 14.165-23.825 29.21-21.931 44.718 1.176 9.627 5.897 17.868 11.553 24.521-18.913-1.976-30.829-11.418-36.317-28.702-6.748-21.246-25.891-35.37-47.804-35.37zm11.535 104.321c.376-10.56 9.621-19.356 20.581-19.356l104.911-.503c5.523 0 10-4.478 10-10s-4.477-10-10-10h-21.452c-7.409-4.303-21.673-14.969-23.158-27.382-1.012-8.456 4.08-17.571 15.138-27.095 4.682-4.035 15.645-13.483 22.201-26.829 6.635-13.506 7.195-27.713 1.745-41.608l16.354-7.738c9.654-2.703 48.932-14.9 58.727-17.711 6.495 16.377 9.793 33.336 9.802 50.52 0 11.967-1.589 24.262-4.737 36.548-.001.005-.003.009-.004.014-13.342 52.094-51.207 91.705-61.595 101.814h-137.025c-.907 0-1.47-.657-1.488-.674zm204.521.674h-38.438c15.533-17.703 37.859-47.766 50.056-85.356 7.205 3.085 17.622 7.113 30.752 11.048-1.904 6.495-3.053 13.315-3.335 20.362-.379 9.486.84 18.941 3.564 27.945h-5.133c-17.132.001-31.778 10.831-37.466 26.001zm122.466 14h-105c0-11.028 8.972-20 20-20h19.974c3.499 0 6.744-1.829 8.556-4.822 1.812-2.994 1.926-6.717.303-9.817-5.215-9.958-7.732-21.198-7.28-32.505 1.365-34.078 29.16-61.244 63.279-61.846 17.651-.288 34.218 6.368 46.697 18.803 12.479 12.437 19.213 28.994 18.964 46.625-.496 35.048-29.876 63.562-65.493 63.562zm85.2-85.086c.005-1.334-.02-2.858-.081-4.631-.37-10.745-2.123-21.402-4.485-31.762 5.143-2.22 10.512-3.521 14.866-3.521 6.464 0 8 0 8 20 0 10.454-8.066 19.046-18.3 19.914z"/><circle cx="94" cy="209" r="10"/><circle cx="424.659" cy="201.014" r="10"/></g></g></svg>