<svg id="Capa_1" enable-background="new 0 0 512 512" height="512" viewBox="0 0 512 512" width="512" xmlns="http://www.w3.org/2000/svg"><g><path d="m155 373c127.5 0 279-.666 347 59.998 0 0-62 37.999-312 37.999v-23.999c0-11.045-8.954-19.999-20-19.999l-15 .001z" fill="#fff"/><path d="m107 81v171c0 22.091 17.909 40 40 40h112.5l45 40 45-40h112.5c22.091 0 40-17.909 40-40v-171c0-22.091-17.909-40-40-40h-315c-22.091 0-40 17.909-40 40z" fill="#ffe6b4"/><path d="m415.5 157c0 27.61-50 76-111 76s-111-48.39-111-76 22.39-50 50-50c16.646 0 32.711 8.136 42.292 20.65 4.474 5.844 11.348 9.35 18.708 9.35 7.36 0 14.234-3.506 18.708-9.35 9.58-12.514 25.646-20.65 42.292-20.65 27.61 0 50 22.39 50 50z" fill="#a0e5a5"/><path d="m155 427h-118c-14.912 0-27-12.088-27-27 0-14.912 12.088-27 27-27h118z" fill="#33d6f5"/><path d="m190 471v-23.999c0-6.54-3.14-12.35-8-15.999h8c146.21 0 228.12-13 270.93-23.789 15.72 7.05 29.59 15.54 41.07 25.789 0-.001-62 37.998-312 37.998z" fill="#e2e9ee"/><path d="m415.5 157.003c-71.83 9.56-92.29-29.35-92.29-29.35 9.58-12.52 25.64-20.65 42.29-20.65 27.61 0 50 22.39 50 50z" fill="#33d6f5"/><g><path d="m159.109 363.001-122.109-.001c-20.402 0-37 16.598-37 37.001s16.598 37.001 37 37.001l133-.001c5.514 0 10 4.485 10 9.999v24c0 5.523 4.477 10 10 10 249.946 0 314.596-37.861 317.226-39.473 2.696-1.653 4.452-4.484 4.734-7.635.282-3.15-.942-6.248-3.303-8.354-70.116-62.553-218.566-62.495-349.548-62.537zm-139.109 37c0-9.374 7.626-17 17-17h108v34.001h-108c-9.374-.001-17-7.627-17-17.001zm150 16.999h-5v-33.999c60.225.004 127.65.228 186.604 7.418 27.869 3.399 52.187 8.137 73.15 14.275-47.343 8.517-121.588 16.309-234.753 16.309h-5.058c-4.404-2.541-9.505-4.003-14.943-4.003zm264.965 25.761c-40.943 8.098-114.644 17.71-234.965 18.218v-13.979c0-2.06-.209-4.072-.607-6.017 137.388-.531 217.062-12.658 260.545-23.224 8.273 3.877 15.775 8.097 22.505 12.675-9.759 3.415-25.036 7.887-47.478 12.327z"/><path d="m508.069 61.53c-2.52-5.95-6.13-11.3-10.72-15.89s-9.93-8.19-15.89-10.71c-6.159-2.61-12.709-3.93-19.459-3.93h-315c-6.75 0-13.3 1.32-19.46 3.931-5.96 2.52-11.3 6.12-15.89 10.71-4.6 4.59-8.2 9.939-10.72 15.89-2.61 6.169-3.93 12.719-3.93 19.469v171c0 6.75 1.32 13.301 3.93 19.46 2.52 5.95 6.12 11.301 10.72 15.891 4.59 4.59 9.93 8.2 15.89 10.71 6.16 2.609 12.71 3.93 19.46 3.939h108.7l42.15 37.471c1.84 1.63 4.19 2.529 6.65 2.529 2.45 0 4.81-.899 6.64-2.529l42.16-37.471h108.7c6.75-.01 13.3-1.33 19.46-3.939 5.96-2.51 11.3-6.12 15.89-10.71s8.2-9.94 10.72-15.891c2.6-6.159 3.93-12.71 3.93-19.46v-47.87c0-5.52-4.49-10-10-10s-10 4.48-10 10v47.87c-.03 16.511-13.49 29.971-30 30h-112.5c-2.45 0-4.811.891-6.65 2.521l-38.35 34.09-38.36-34.09c-1.83-1.63-4.189-2.521-6.64-2.521h-112.5c-16.51-.029-29.97-13.489-30-30v-171c.03-16.52 13.49-29.97 30-30h315c16.51.03 29.97 13.48 30 30v33.13c0 5.511 4.49 10 10 10s10-4.489 10-10c0-.01 0-.01 0-.02v-33.11c0-6.75-1.33-13.3-3.931-19.47z"/><path d="m502 149.132c-5.51 0-10 4.48-10 10 0 5.511 4.49 9.99 10 9.99s10-4.479 10-9.99c0-5.519-4.49-10-10-10z"/><path d="m418.735 180h14.265c5.522 0 10-4.478 10-10s-4.478-10-10-10h-7.641c.09-1.012.141-2.014.141-3 0-13.452-4.45-25.884-11.955-35.901l7.598-7.598c3.905-3.905 3.905-10.236 0-14.143-3.904-3.903-10.234-3.904-14.143 0l-7.934 7.933c-6.957-4.713-14.955-7.991-23.566-9.442v-11.349c0-5.522-4.478-10-10-10s-10 4.478-10 10v11.344c-15.805 2.602-30.635 11.191-40.232 23.727-2.641 3.45-6.565 5.429-10.768 5.429s-8.127-1.979-10.768-5.429c-9.598-12.536-24.427-21.125-40.232-23.727v-11.344c0-5.522-4.477-10-10-10s-10 4.478-10 10v11.349c-8.611 1.452-16.61 4.73-23.567 9.443l-7.933-7.934c-3.905-3.904-10.237-3.904-14.142 0-3.905 3.906-3.905 10.237 0 14.143l7.598 7.597c-7.506 10.018-11.956 22.45-11.956 35.902 0 .986.051 1.988.141 3h-7.641c-5.523 0-10 4.478-10 10s4.477 10 10 10h14.265c6.235 11.388 16.516 23.045 29.746 33.268.806.623 1.668 1.271 2.572 1.937l-5.725 5.725c-3.905 3.905-3.906 10.236 0 14.143 1.953 1.952 4.512 2.929 7.071 2.929s5.118-.977 7.071-2.929l8.898-8.897c14.021 7.587 32.589 14.712 54.603 16.427v10.397c0 5.522 4.478 10 10 10s10-4.478 10-10v-10.399c19.33-1.506 36.004-7.182 49.275-13.683l9.225 9.224c1.953 1.952 4.512 2.929 7.071 2.929s5.119-.977 7.071-2.929c3.905-3.906 3.905-10.237 0-14.143l-5.458-5.458c2.756-1.864 5.203-3.651 7.305-5.274 13.229-10.222 23.51-21.88 29.745-33.267zm-53.235-63c18.995 0 34.93 13.314 38.989 31.098-40.945 3.066-60.582-11.483-68.32-19.792 7.871-7.092 18.559-11.306 29.331-11.306zm-61 106c-58.35 0-101-46.314-101-66 0-22.056 17.944-40 40-40 13.288 0 26.451 6.41 34.352 16.729 6.456 8.434 16.169 13.271 26.648 13.271 6.215 0 12.154-1.713 17.311-4.858 10.162 10.741 31.829 26.378 71.84 26.378 2.788 0 5.668-.079 8.636-.237-10.94 22.123-48.836 54.717-97.787 54.717z"/><circle cx="304" cy="180" r="10"/><circle cx="243" cy="156" r="10"/></g></g></svg>