<svg id="Capa_1" enable-background="new 0 0 512 512" height="512" viewBox="0 0 512 512" width="512" xmlns="http://www.w3.org/2000/svg"><g><path d="m111 74-30-64 38 19 18-19 12 19 37-19-30 64z" fill="#ffbdbc"/><path d="m357 74-31-64 38 19 18-19 12 19 37-19-30 64z" fill="#ffbdbc"/><path d="m431 327h-105v-205.5c0-28.995 23.505-52.5 52.5-52.5 28.995 0 52.5 23.505 52.5 52.5z" fill="#ff7b79"/><path d="m256 152c-24.89 0-48.57 4.63-70 14v-44.5c0-14.5-5.88-27.62-15.38-37.12s-22.62-15.38-37.12-15.38c-28.99 0-52.5 23.51-52.5 52.5v205.5c0 96.65 78.35 175 175 175s175-78.35 175-175-78.35-175-175-175zm0 245c-38.66 0-70-31.34-70-70s31.34-70 70-70 70 31.34 70 70-31.34 70-70 70z" fill="#ff7b79"/><g><path d="m422.691 77.309c-2.727-2.727-5.669-5.157-8.775-7.303l26.138-55.762c1.815-3.873.967-8.472-2.112-11.441-3.077-2.969-7.705-3.652-11.511-1.698l-28.861 14.821-7.115-11.266c-1.648-2.61-4.409-4.312-7.481-4.613-3.066-.298-6.109.834-8.233 3.075l-12.9 13.617-31.369-15.683c-3.829-1.914-8.453-1.18-11.498 1.829-3.047 3.008-3.84 7.622-1.974 11.475l26.75 55.219c-16.722 11.228-27.75 30.31-27.75 51.921v30.454c-19.237-6.605-39.358-9.954-60-9.954h-.021c-21.1 0-41.279 3.18-59.979 9.45v-29.95c0-8.42-1.65-16.61-4.92-24.33-3.15-7.46-7.66-14.14-13.391-19.86-2.713-2.718-5.649-5.15-8.774-7.302l26.139-55.764c1.815-3.873.967-8.472-2.112-11.441-3.077-2.969-7.705-3.652-11.511-1.698l-28.861 14.821-7.115-11.266c-1.648-2.61-4.409-4.312-7.481-4.613-3.067-.298-6.109.834-8.233 3.075l-12.9 13.617-31.369-15.683c-3.807-1.904-8.403-1.188-11.453 1.784-3.048 2.973-3.88 7.549-2.073 11.404l26.139 55.763c-3.121 2.153-6.056 4.585-8.774 7.303-5.74 5.74-10.25 12.42-13.399 19.86-3.252 7.71-4.912 15.89-4.912 24.33v205.5c0 24.98 4.89 49.2 14.54 72.01 4.64 10.96 10.37 21.54 17.06 31.43 6.61 9.79 14.21 19 22.59 27.37 8.37 8.38 17.58 15.98 27.37 22.59 9.891 6.68 20.471 12.42 31.431 17.06 22.809 9.65 47.029 14.54 72.009 14.54l.02-.05v.05c16.681 0 33.221-2.23 49.17-6.61 15.471-4.26 30.341-10.54 44.21-18.66 4.75-2.79 6.351-8.93 3.57-13.69-1.79-3.05-5.1-4.94-8.64-4.94-1.771 0-3.511.47-5.05 1.37-25.16 14.74-53.95 22.53-83.28 22.53-44.06-.01-85.5-17.17-116.67-48.33-31.16-31.18-48.33-72.61-48.33-116.67v-205.5c0-11.34 4.42-22.01 12.45-30.05 8.04-8.02 18.71-12.45 30.05-12.45s22.01 4.43 30.05 12.45c8.02 8.04 12.44 18.71 12.45 30.05v205.5c0 10.8 2.12 21.28 6.29 31.14 4.029 9.53 9.8 18.08 17.14 25.43 7.351 7.34 15.9 13.11 25.43 17.14 9.86 4.17 20.34 6.29 31.14 6.29s21.28-2.12 31.14-6.29c9.53-4.03 18.08-9.8 25.43-17.14 7.341-7.35 13.11-15.9 17.141-25.43 4.17-9.86 6.29-20.34 6.29-31.14s-2.12-21.28-6.29-31.14c-4.03-9.53-9.8-18.08-17.141-25.43-7.35-7.34-15.899-13.11-25.43-17.14-9.86-4.17-20.34-6.29-31.14-6.29s-21.28 2.12-31.141 6.29c-9.529 4.03-18.079 9.8-25.43 17.14-1.19 1.192-2.323 2.426-3.43 3.68v-101.399c18.388-7.1 38.533-10.71 60-10.71 44.059.01 85.5 17.17 116.67 48.33 31.161 31.169 48.331 72.609 48.331 116.669 0 29.24-7.75 57.97-22.41 83.08-2.78 4.76-1.17 10.9 3.59 13.68 1.53.89 3.271 1.36 5.04 1.36 3.54 0 6.86-1.9 8.64-4.96 8.091-13.83 14.33-28.67 18.561-44.11 4.37-15.91 6.58-32.41 6.58-49.05v-205.5c-.001-16.69-6.503-32.385-18.31-44.191zm-289.191-18.309c-5.933 0-11.733.838-17.336 2.454l-13.893-29.639 12.258 6.129c3.937 1.968 8.701 1.131 11.731-2.067l9.153-9.663 5.132 8.125c2.766 4.379 8.415 5.922 13.023 3.556l10.946-5.621-13.679 29.182c-5.603-1.618-11.398-2.456-17.315-2.456zm80.069 225.57c11.351-11.32 26.41-17.57 42.431-17.57 16.02 0 31.08 6.25 42.43 17.57 11.32 11.35 17.57 26.42 17.57 42.43s-6.25 31.08-17.57 42.43c-11.35 11.32-26.411 17.57-42.43 17.57-16.02 0-31.08-6.25-42.431-17.57-11.329-11.35-17.569-26.42-17.569-42.43s6.24-31.08 17.569-42.43zm134.242-252.484 11.717 5.858c3.936 1.968 8.701 1.131 11.731-2.067l9.153-9.663 5.132 8.125c2.766 4.379 8.416 5.922 13.023 3.556l10.946-5.621-13.672 29.167c-5.567-1.599-11.389-2.441-17.341-2.441-5.734 0-11.284.792-16.563 2.245zm61.588 191.474c-6.619-9.79-14.21-19-22.59-27.37-8.37-8.38-17.58-15.98-27.37-22.59-7.464-5.042-15.322-9.546-23.439-13.448v-38.652c0-23.435 19.065-42.5 42.5-42.5 11.349 0 22.019 4.422 30.049 12.451 8.029 8.029 12.451 18.701 12.451 30.049v121.771c-3.458-6.797-7.335-13.396-11.601-19.711z"/><path d="m379.83 440.65c-2.67 0-5.181 1.04-7.07 2.93 0 .01-.01.01-.01.01-3.891 3.91-3.88 10.24.02 14.14 1.891 1.88 4.4 2.92 7.061 2.92 2.68 0 5.189-1.04 7.08-2.93 3.899-3.9 3.89-10.25-.011-14.15-1.89-1.88-4.4-2.92-7.07-2.92z"/></g></g></svg>