<svg id="Capa_1" enable-background="new 0 0 512 512" height="512" viewBox="0 0 512 512" width="512" xmlns="http://www.w3.org/2000/svg"><g><path d="m224.273 176.037c16.696-.702 31.246 8.834 37.891 22.848 4.488 9.466 13.414 16.051 23.837 17.116 11.288 0 20.392 9.351 19.987 20.729-.386 10.838-9.623 19.27-20.467 19.27h-59.521c-22.481 0-40.63-18.545-39.983-41.172.594-20.804 17.461-37.916 38.256-38.791z" fill="#ff7b79"/><path d="m361 256h-230v166h230v-40h40v-40h-40z" fill="#ffe6b4"/><path d="m226 307h40v350h-40z" fill="#e2e9ee" transform="matrix(0 1 -1 0 728 236)"/><path d="m361 45h-95v40h95v257h40v-257c0-22.091-17.909-40-40-40z" fill="#ffbe90"/><path d="m401 382v80h-310v-377c0-22.091 17.909-40 40-40h95v40h-95v337h230v-40z" fill="#ffbe90"/><path d="m401 422h40v-123l-40-43z" fill="#e2e9ee"/><g><circle cx="401" cy="158.003" r="10"/><path d="m246 389c5.522 0 10-4.478 10-10v-80c0-5.522-4.478-10-10-10s-10 4.478-10 10v80c0 5.522 4.478 10 10 10z"/><circle cx="226" cy="216" r="10"/><path d="m448.322 292.188-37.322-40.121v-49.064c0-5.52-4.49-10-10-10s-10 4.48-10 10v129h-20v-247c0-2.63-1.07-5.21-2.931-7.069-1.859-1.87-4.439-2.931-7.069-2.931h-85v-20h85c16.51.03 29.97 13.48 30 30v28c0 5.511 4.479 10 10 10 5.51 0 10-4.489 10-10v-28c0-6.75-1.32-13.3-3.931-19.47-2.52-5.95-6.119-11.3-10.71-15.89-4.6-4.59-9.939-8.19-15.899-10.71-6.16-2.61-12.71-3.931-19.46-3.931h-85v-25.002c0-5.522-4.478-10-10-10s-10 4.478-10 10v110c0 5.522 4.478 10 10 10s10-4.478 10-10v-24.997h75v150.997h-36.714c.993-2.798 1.584-5.79 1.695-8.915.292-8.223-2.688-16.006-8.394-21.916-5.564-5.766-12.993-9.006-20.978-9.163-6.663-.823-12.403-5.062-15.411-11.405-8.626-18.193-27.206-29.406-47.348-28.555h.001c-26.076 1.098-47.086 22.399-47.832 48.498-.328 11.492 3.194 22.446 9.987 31.456h-45.006v-151h75v25c0 5.522 4.478 10 10 10s10-4.478 10-10v-110c0-5.522-4.478-10-10-10s-10 4.478-10 10v25h-85c-27.57 0-50 22.43-50 50v367h-10c-5.522 0-10 4.478-10 10v40c0 5.522 4.478 10 10 10h350c5.522 0 10-4.478 10-10v-40c0-5.522-4.478-10-10-10h-10v-20h30c5.522 0 10-4.478 10-10v-123c0-2.527-.957-4.961-2.678-6.812zm-252.309-77.073c.447-15.652 13.473-28.438 29.108-29.096 11.596 0 23.012 6.616 28.007 17.15 6.093 12.849 18.51 21.39 32.365 22.805 2.738 0 5.803 1.112 7.705 3.083 1.901 1.97 2.894 4.568 2.796 7.316-.188 5.308-4.887 9.626-10.473 9.626h-59.521c-8.176 0-15.817-3.229-21.517-9.095-5.696-5.86-8.705-13.599-8.47-21.789zm154.987 50.885v76.003c0 2.63 1.069 5.21 2.93 7.07s4.44 2.93 7.07 2.93h30v19.997h-30c-5.522 0-10 4.478-10 10v30h-210v-146zm-250-181c0-16.542 13.458-30 30-30h85v20h-85c-5.522 0-10 4.478-10 10v337c0 5.522 4.478 10 10 10h230c5.522 0 10-4.478 10-10v-30h20v60h-290zm310 407h-330v-20h330zm20-80h-20v-130.568l20 21.5z"/><path d="m285.492 225.974c-.339 0 .337.034 0 0z"/><path d="m195.5 359c0 7.136-5.16 13.57-5.167 13.58-3.546 4.234-2.987 10.541 1.247 14.087 1.872 1.568 4.149 2.333 6.415 2.333 2.856 0 5.694-1.218 7.672-3.58 1.007-1.202 9.833-12.155 9.833-26.42s-8.826-25.218-9.833-26.42c-.052-.062-5.167-6.489-5.167-13.58 0-7.045 5.029-13.406 5.208-13.629 3.501-4.234 2.93-10.506-1.288-14.038-4.232-3.545-10.54-2.988-14.087 1.247-1.007 1.202-9.833 12.155-9.833 26.42s8.826 25.218 9.833 26.42c.052.061 5.167 6.489 5.167 13.58z"/><path d="m291.5 359c0 7.136-5.16 13.57-5.167 13.58-3.546 4.234-2.987 10.541 1.247 14.087 1.872 1.568 4.149 2.333 6.415 2.333 2.856 0 5.694-1.218 7.672-3.58 1.007-1.202 9.833-12.155 9.833-26.42s-8.826-25.218-9.833-26.42c-.052-.062-5.167-6.489-5.167-13.58 0-7.045 5.029-13.406 5.208-13.629 3.501-4.234 2.93-10.506-1.288-14.038-4.231-3.545-10.541-2.988-14.087 1.247-1.007 1.202-9.833 12.155-9.833 26.42s8.826 25.218 9.833 26.42c.052.061 5.167 6.489 5.167 13.58z"/></g></g></svg>