<svg height="512" viewBox="0 0 60 60" width="512" xmlns="http://www.w3.org/2000/svg"><g id="Page-1" fill="none" fill-rule="evenodd"><g id="001---Tractor" fill="rgb(0,0,0)" fill-rule="nonzero"><path id="Shape" d="m13 23c-4.97056275 0-9 4.0294373-9 9s4.02943725 9 9 9c4.9705627 0 9-4.0294373 9-9-.006061-4.9680501-4.0319499-8.993939-9-9zm0 16c-3.86599325 0-7-3.1340068-7-7s3.13400675-7 7-7c3.8659932 0 7 3.1340068 7 7-.0044086 3.8641657-3.1358343 6.9955914-7 7z"/><path id="Shape" d="m13 29c-1.6568542 0-3 1.3431458-3 3s1.3431458 3 3 3 3-1.3431458 3-3-1.3431458-3-3-3zm0 4c-.5522847 0-1-.4477153-1-1s.4477153-1 1-1 1 .4477153 1 1-.4477153 1-1 1z"/><path id="Shape" d="m50 29c-3.3137085 0-6 2.6862915-6 6s2.6862915 6 6 6 6-2.6862915 6-6c-.0033074-3.3123376-2.6876624-5.9966926-6-6zm0 10c-2.209139 0-4-1.790861-4-4s1.790861-4 4-4 4 1.790861 4 4-1.790861 4-4 4z"/><circle id="Oval" cx="50" cy="35" r="1"/><path id="Shape" d="m39 22h1c.5522847 0 1-.4477153 1-1s-.4477153-1-1-1h-1c-.5522847 0-1 .4477153-1 1s.4477153 1 1 1z"/><path id="Shape" d="m27 13c.2163702 0 .4269038-.0701779.6-.2l4-3c.2858125-.21435935.4355548-.5649147.3928203-.91961525-.0427344-.35470054-.2714531-.65965883-.6-.80000001-.3285469-.14034119-.7070078-.09474411-.9928203.11961526l-4 3c-.3443443.2582582-.4847973.7078856-.3486833 1.1162278.136114.4083421.5182529.6837722.9486833.6837722z"/><path id="Shape" d="m27 19c.2163702 0 .4269038-.0701779.6-.2l4-3c.2858125-.2143594.4355548-.5649147.3928203-.9196152-.0427344-.3547006-.2714531-.6596589-.6-.8000001-.3285469-.1403411-.7070078-.0947441-.9928203.1196153l-4 3c-.3443443.2582582-.4847973.7078856-.3486833 1.1162278.136114.4083421.5182529.6837722.9486833.6837722z"/><path id="Shape" d="m19.707 9.293c-.3904999-.39038194-1.0235001-.39038194-1.414 0l-2 2c-.2599566.2510745-.3642126.6228779-.2726972.9725073.0915155.3496295.3645604.6226744.7141899.7141899.3496294.0915154.7214328-.0127406.9725073-.2726972l2-2c.3903819-.3904999.3903819-1.02350015 0-1.414z"/><path id="Shape" d="m0 44c0 .5522847.44771525 1 1 1h11.523l-5.452 13.628c-.09854514.2462521-.09522227.5215667.00923748.7653686.10445976.243802.30149818.4361169.54776252.5346314.1183814.0471373.24457988.0715628.372.072.40894499.0003137.77687254-.2484037.929-.628l5.748-14.372h8.323c.5522847 0 1-.4477153 1-1s-.4477153-1-1-1h-3.1c3.1861376-2.0008374 5.3499225-5.2831675 5.933-9h2.167v3c0 1.6568542 1.3431458 3 3 3h2c1.6568542 0 3-1.3431458 3-3v-2h4c.0030485 3.1526562 1.4952773 6.1185767 4.025 8h-17.025c-.5522847 0-1 .4477153-1 1s.4477153 1 1 1h2v14c0 .5522847.4477153 1 1 1s1-.4477153 1-1v-14h14.323l5.748 14.372c.1521275.3795963.520055.6283137.929.628.1273562-.0001189.2535525-.0242047.372-.071.2462643-.0985145.4433028-.2908294.5477625-.5346314.1044598-.2438019.1077826-.5191165.0092375-.7653686l-5.452-13.629h11.523c.5522847 0 1-.4477153 1-1s-.4477153-1-1-1h-3.025c3.8453314-2.8457086 5.1166702-8.0277277 3.025-12.33v-11.67c0-2.209139-1.790861-4-4-4h-19v-9c1.6568542 0 3-1.34314575 3-3s-1.3431458-3-3-3h-21c-1.413186.00521403-2.631109.99597881-2.923857 2.37852009-.2927479 1.38254127.4190709 2.78192168 1.708857 3.35947991l-2.33 9.339c-2.87161952.2658686-5.62974114 1.2519685-8.019 2.867-.29581591.2014978-.46166329.5455053-.43506903.9024383.02659425.356933.24158983.6725648.564.828.32241016.1554352.70325312.1270595.99906903-.0744383.2-.135.4-.255.6-.379l1.036 1.722c-3.83338653 2.3446124-6.17924257 6.507108-6.19961484 11.0006194s2.28764503 8.6771064 6.09961484 11.0563806h-5.1c-.55228475 0-1 .4477153-1 1zm34-7c0 .5522847-.4477153 1-1 1h-2c-.5522847 0-1-.4477153-1-1v-2h4zm16 6c-4.418278 0-8-3.581722-8-8s3.581722-8 8-8 8 3.581722 8 8c-.0049599 4.4162219-3.5837781 7.9950401-8 8zm-1-21v3.051c-.6790448.0671787-1.3492947.2045799-2 .41v-3.461zm4 0v3.461c-.6507053-.2054201-1.3209552-.3428213-2-.41v-3.051zm4 0v5.871c-.6006162-.5875843-1.2725211-1.0975601-2-1.518v-4.353zm-2-5c1.1045695 0 2 .8954305 2 2v1h-13c-.5522847 0-1 .4477153-1 1s.4477153 1 1 1h1v4.353c-2.4746673 1.4298015-4.2210813 3.8482211-4.8 6.647h-10.2v-1c-.0065962-1.3484991-.174455-2.6913695-.5-4h4.5c1.1045695 0 2-.8954305 2-2v-9zm-21 9h-5.114c-1.0177805-2.6875625-2.6985259-5.0741796-4.886-6.938v-13.062h10zm-20.471-10.973 2.252-9.027h6.219v11.6c-2.5443376-1.5963177-5.4686573-2.484557-8.471-2.573zm1.471-13.027h21c.5522847 0 1 .44771525 1 1s-.4477153 1-1 1h-21c-.5522847 0-1-.44771525-1-1s.4477153-1 1-1zm-8.061 16.284c4.6381331-2.0539311 10.0003407-1.6230276 14.2509684 1.1451985s6.8130362 7.4982378 6.8100342 12.5708015h-2.0000026c-.0004335-4.3517385-2.1782666-8.4146254-5.8020671-10.8241271-3.6238004-2.4095017-8.2128618-2.8459915-12.2259329-1.1628729zm-4.939 13.716c0-6.0751322 4.92486775-11 11-11 6.0751322 0 11 4.9248678 11 11s-4.9248678 11-11 11c-6.07216255-.0071635-10.9928365-4.9278374-11-11z"/></g></g></svg>