<svg height="60" viewBox="0 0 60 60" width="60" xmlns="http://www.w3.org/2000/svg"><g id="Page-1" fill="none" fill-rule="evenodd"><g id="002---Corn-Farm" fill="rgb(0,0,0)" fill-rule="nonzero"><path id="Shape" d="m2 60h56c1.1045695 0 2-.8954305 2-2v-14.947c.0021973-.564201-.234845-1.1028968-.6523145-1.4824318-.4174695-.3795351-.9762437-.5643419-1.5376855-.5085682-3.793.409-4.427 2.674-7.81 2.913v-8.055c3.4409267-.4966526 5.9959255-3.4434178 6-6.92v-2.4c-.0021324-1.4639925.5585255-2.8727976 1.566-3.935.4285838-.4617026.5432815-1.133291.2922256-1.7110663-.2510558-.5777754-.820265-.9521915-1.4502256-.9539337h-1.408v-5.5c0-4.136-2.691-7.5-6-7.5s-6 3.364-6 7.5v5.5h-1.408c-.6324105-.0009055-1.2049173.3739829-1.4569173.9540172-.2519999.5800344-.135324 1.254343.2969173 1.7159828 1.83 1.936 1.568 3.866 1.568 6.33.0040745 3.4765822 2.5590733 6.4233474 6 6.92v7.98c-3.144-.5-3.719-2.9-8.34-2.9-4.812 0-5.172 2.549-8.669 2.941l.009-15.021c3.4409267-.4966526 5.9959255-3.4434178 6-6.92v-2.4c-.0021324-1.4639925.5585255-2.8727976 1.566-3.935.4285838-.4617026.5432815-1.133291.2922256-1.7110663-.2510558-.5777754-.820265-.9521915-1.4502256-.9539337h-1.408v-5.5c0-4.136-2.691-7.5-6-7.5s-6 3.364-6 7.5v5.5h-1.408c-.6324105-.0009055-1.2049173.3739829-1.4569173.9540172-.2519999.5800344-.135324 1.254343.2969173 1.7159828 1.83 1.936 1.568 3.866 1.568 6.33.0040745 3.4765822 2.5590733 6.4233474 6 6.92l-.008 15.021c-3.463-.39-3.906-2.941-8.662-2.941-4.67 0-5.178 2.4-8.33 2.9v-7.98c3.4409267-.4966526 5.9959255-3.4434178 6-6.92v-2.4c-.0021324-1.4639925.5585255-2.8727976 1.566-3.935.4285838-.4617026.5432815-1.133291.2922256-1.7110663-.2510558-.5777754-.820265-.9521915-1.4502256-.9539337h-1.408v-5.5c0-4.136-2.691-7.5-6-7.5s-6 3.364-6 7.5v5.5h-1.408c-.63241045-.0009055-1.20491733.3739829-1.45691727.9540172-.25199994.5800344-.13532401 1.254343.29691727 1.7159828 1.83 1.936 1.568 3.866 1.568 6.33.00407452 3.4765822 2.55907331 6.4233474 6 6.92v8.055c-3.414-.237-3.978-2.5-7.809-2.913-.56153362-.0557535-1.12039741.1290285-1.53801925.5085288s-.6548928.9181798-.65298075 1.4824712v14.947c0 1.1045695.8954305 2 2 2zm52-31c-.0026123 2.3752386-1.6733709 4.421918-4 4.9v-7.9c0-2.209139 1.790861-4 4-4h1.523c-1.746 2.349-1.523 4.378-1.523 7zm-5-20c2.206 0 4 2.467 4 5.5v5.59c-1.6350304.2774565-3.0826548 1.2184124-4 2.6-.9173452-1.3815876-2.3649696-2.3225435-4-2.6v-5.59c0-3.033 1.794-5.5 4-5.5zm-5 20c0-2.651.23-4.64-1.523-7h1.523c2.209139 0 4 1.790861 4 4v7.9c-2.3266291-.478082-3.9973877-2.5247614-4-4.9zm-9-7c-.0026123 2.3752386-1.6733709 4.421918-4 4.9v-7.9c0-2.209139 1.790861-4 4-4h1.523c-1.746 2.349-1.523 4.378-1.523 7zm-5-20c2.206 0 4 2.467 4 5.5v5.59c-1.6350304.2774565-3.0826548 1.2184124-4 2.6-.9173452-1.3815876-2.3649696-2.3225435-4-2.6v-5.59c0-3.033 1.794-5.5 4-5.5zm-5 20c0-2.651.23-4.64-1.523-7h1.523c2.209139 0 4 1.790861 4 4v7.9c-2.3266291-.478082-3.9973877-2.5247614-4-4.9zm-9 7c-.0026123 2.3752386-1.6733709 4.421918-4 4.9v-7.9c0-2.209139 1.790861-4 4-4h1.523c-1.746 2.349-1.523 4.378-1.523 7zm-5-20c2.206 0 4 2.467 4 5.5v5.59c-1.6350304.2774565-3.0826548 1.2184124-4 2.6-.9173452-1.3815876-2.36496965-2.3225435-4-2.6v-5.59c0-3.033 1.794-5.5 4-5.5zm-5 20c0-2.651.23-4.64-1.523-7h1.523c2.209139 0 4 1.790861 4 4v7.9c-2.32662911-.478082-3.99738774-2.5247614-4-4.9zm5 17c.0292979-.0044574.0583387-.0104659.087-.018 1.7676308-.048948 3.4819383-.6160951 4.93-1.631 1.2498692-.9125961 2.7658493-1.3874603 4.313-1.351 4.332 0 4.583 3 9.66 3s5.33-3 9.67-3c4.244 0 4.5 2.812 9.256 2.983.0276677.0071998.05571.0128751.084.017 5.407 0 5.382-2.543 9-2.956.0011676.0028864.0011676.0061136 0 .009v14.947h-56l-.025-14.95c3.617.393 3.625 2.95 9.025 2.95z"/><path id="Shape" d="m10 14h1c.5522847 0 1-.4477153 1-1s-.4477153-1-1-1h-1c-.55228475 0-1 .4477153-1 1s.44771525 1 1 1z"/><path id="Shape" d="m11 16c-.5522847 0-1 .4477153-1 1s.4477153 1 1 1h1c.5522847 0 1-.4477153 1-1s-.4477153-1-1-1z"/><path id="Shape" d="m48 14h1c.5522847 0 1-.4477153 1-1s-.4477153-1-1-1h-1c-.5522847 0-1 .4477153-1 1s.4477153 1 1 1z"/><path id="Shape" d="m49 16c-.5522847 0-1 .4477153-1 1s.4477153 1 1 1h1c.5522847 0 1-.4477153 1-1s-.4477153-1-1-1z"/><path id="Shape" d="m30 7h1c.5522847 0 1-.44771525 1-1s-.4477153-1-1-1h-1c-.5522847 0-1 .44771525-1 1s.4477153 1 1 1z"/><path id="Shape" d="m29 11h1c.5522847 0 1-.4477153 1-1 0-.55228475-.4477153-1-1-1h-1c-.5522847 0-1 .44771525-1 1 0 .5522847.4477153 1 1 1z"/><path id="Shape" d="m18.27 48.255c.6716441-.1794752 1.3648659-.2652867 2.06-.255.4994396-.0038643.9981852.0379768 1.49.125.3515493.0643078.7107021-.0638187.942169-.3361154.2314669-.2722968.3000825-.6473955.18-.984-.1200825-.3366046-.4106197-.5835768-.762169-.6478846-.6105759-.108737-1.2298321-.1612901-1.85-.157-.877699-.0108862-1.7526771.0998322-2.6.329-.5318502.1491169-.8421169.7011498-.693 1.233s.7011498.8421169 1.233.693z"/><path id="Shape" d="m32.27 51.255c.6716441-.1794752 1.3648659-.2652867 2.06-.255.4994396-.0038643.9981852.0379768 1.49.125.3515493.0643078.7107021-.0638187.942169-.3361154.2314669-.2722968.3000825-.6473955.18-.984-.1200825-.3366046-.4106197-.5835768-.762169-.6478846-.6105759-.108737-1.2298321-.1612901-1.85-.157-.877699-.0108862-1.7526771.0998322-2.6.329-.5318502.1491169-.8421169.7011498-.693 1.233s.7011498.8421169 1.233.693z"/><path id="Shape" d="m43.27 50.255c.6716564-.1794123 1.3648694-.2652227 2.06-.255.4994396-.0038643.9981852.0379768 1.49.125.3515493.0643078.7107021-.0638187.942169-.3361154.2314669-.2722968.3000825-.6473955.18-.984-.1200825-.3366046-.4106197-.5835768-.762169-.6478846-.6105759-.108737-1.2298321-.1612901-1.85-.157-.8776917-.0107577-1.7526522.0999584-2.6.329-.3440468.0964617-.6104974.3691428-.6989825.7153269s.0144383.7132776.27.963.6249357.3441348.9689825.2476731z"/><path id="Shape" d="m7.27 51.255c.67164413-.1794752 1.36486593-.2652867 2.06-.255.49943957-.0038643.9981852.0379768 1.49.125.5434482.0994112 1.0645887-.2605518 1.164-.804.0994112-.5434482-.2605518-1.0645887-.804-1.164-.6105759-.108737-1.22983209-.1612901-1.85-.157-.87769898-.0108862-1.75267708.0998322-2.6.329-.34404676.0964617-.61049737.3691428-.69898246.7153269s.01443832.7132776.27.963c.25556167.2497223.6249357.3441348.96898246.2476731z"/><path id="Shape" d="m40.27 55.255c.6716441-.1794752 1.3648659-.2652867 2.06-.255.4994396-.0038643.9981852.0379768 1.49.125.3515493.0643078.7107021-.0638187.942169-.3361154.2314669-.2722968.3000825-.6473955.18-.984-.1200825-.3366046-.4106197-.5835768-.762169-.6478846-.6105759-.108737-1.2298321-.1612901-1.85-.157-.877699-.0108862-1.7526771.0998322-2.6.329-.5318502.1491169-.8421169.7011498-.693 1.233s.7011498.8421169 1.233.693z"/><path id="Shape" d="m50.27 53.963c.6717511-.1789248 1.3648964-.2647267 2.06-.255.4994347-.003736.9981687.0381041 1.49.125.3515493.0643078.7107021-.0638187.942169-.3361154.2314669-.2722968.3000825-.6473955.18-.984-.1200825-.3366046-.4106197-.5835768-.762169-.6478846-.6105984-.1085649-1.2298389-.1611166-1.85-.157-.8776917-.0107577-1.7526522.0999584-2.6.329-.5318502.1491169-.8421169.7011498-.693 1.233s.7011498.8421169 1.233.693z"/><path id="Shape" d="m22.037 53.562c.0715771.2554236.2417058.4719432.4729477.6019112.2312419.1299681.5046479.1627346.7600523.0910888.6716441-.1794752 1.3648659-.2652867 2.06-.255.4994396-.0038643.9981852.0379768 1.49.125.3515493.0643078.7107021-.0638187.942169-.3361154.2314669-.2722968.3000825-.6473955.18-.984-.1200825-.3366046-.4106197-.5835768-.762169-.6478846-.6105759-.108737-1.2298321-.1612901-1.85-.157-.877699-.0108862-1.7526771.0998322-2.6.329-.2554236.0715771-.4719432.2417058-.6019112.4729477-.1299681.2312419-.1627346.5046479-.0910888.7600523z"/><path id="Shape" d="m11.037 54.562c.0715771.2554236.2417058.4719432.4729477.6019112.2312419.1299681.5046479.1627346.7600523.0910888.6716441-.1794752 1.3648659-.2652867 2.06-.255.4994396-.0038643.9981852.0379768 1.49.125.3515493.0643078.7107021-.0638187.942169-.3361154.2314669-.2722968.3000825-.6473955.18-.984-.1200825-.3366046-.4106197-.5835768-.762169-.6478846-.6105759-.108737-1.2298321-.1612901-1.85-.157-.877699-.0108862-1.7526771.0998322-2.6.329-.2554236.0715771-.4719432.2417058-.6019112.4729477-.1299681.2312419-.1627346.5046479-.0910888.7600523z"/></g></g></svg>