<svg height="512" viewBox="0 0 60 44" width="512" xmlns="http://www.w3.org/2000/svg"><g id="Page-1" fill="none" fill-rule="evenodd"><g id="003---Horse-Box" fill="rgb(0,0,0)" fill-rule="nonzero"><path id="Shape" d="m59 40c.5522847 0 1-.4477153 1-1s-.4477153-1-1-1h-3v-1.279c.0012125-.8616854-.5496106-1.6272771-1.367-1.9l-4.633-1.542v-27.279c-.0033074-3.31233757-2.6876624-5.99669262-6-6h-38c-3.31233757.00330738-5.99669262 2.68766243-6 6v30c0 2.209139 1.790861 4 4 4h4.1c.15427584.7276558.47042921 1.4112306.925 2h-8.025c-.55228475 0-1 .4477153-1 1s.44771525 1 1 1h34c.5522847 0 1-.4477153 1-1s-.4477153-1-1-1h-6.026c.4545708-.5887694.7707242-1.2723442.925-2h26.101v2h-17c-.5522847 0-1 .4477153-1 1s.4477153 1 1 1h20c.5522847 0 1-.4477153 1-1s-.4477153-1-1-1h-1v-2zm-5-3.279v1.279h-4.556c.3599241-.6053465.5518554-1.2957468.556-2v-.612zm-14 1.279v-23c0-1.6568542-1.3431458-3-3-3h-12c-1.6568542 0-3 1.3431458-3 3v15h-8v-20h34v2h-3c-1.6568542 0-3 1.3431458-3 3v1c0 1.6568542 1.3431458 3 3 3h3v17c0 1.1045695-.8954305 2-2 2zm-15-4c-2.3751008.0029983-4.4215673 1.6735832-4.9 4h-2.2c-.4731925-2.330324-2.5221184-4.0050126-4.9-4.0050126s-4.42680753 1.6746886-4.9 4.0050126h-2.02c.49665255-3.4409267 3.44341782-5.9959255 6.92-6h12c3.4765822.0040745 6.4233474 2.5590733 6.92 6h-2.02c-.4784327-2.3264168-2.5248992-3.9970017-4.9-4zm-7.1 6h2.2c.1542758.7276558.4704292 1.4112306.925 2h-4.051c.4549277-.5886774.7714259-1.2722589.926-2zm20.1-19h-14v-6c0-.5522847.4477153-1 1-1h12c.5522847 0 1 .4477153 1 1zm-14-13v-6h16v6zm-2 0h-8v-6h8zm26 9h-3c-.5522847 0-1-.4477153-1-1v-1c0-.5522847.4477153-1 1-1h3zm0-11v2h-6v-6h2c2.209139 0 4 1.790861 4 4zm-42-4h6v6h-10v-2c0-2.209139 1.790861-4 4-4zm-4 34v-26h10v20.059c-4.17415038.47294-7.46806002 3.7668496-7.941 7.941h-.059c-1.1045695 0-2-.8954305-2-2zm8 3c0-1.2133867.7309265-2.3072956 1.8519497-2.7716386s2.4113767-.2076757 3.2693706.6503183c.857994.8579939 1.1146613 2.1483474.6503183 3.2693706s-1.5582519 1.8519497-2.7716386 1.8519497c-1.6568542 0-3-1.3431458-3-3zm12 0c0-1.2133867.7309265-2.3072956 1.8519497-2.7716386s2.4113767-.2076757 3.2693706.6503183c.857994.8579939 1.1146613 2.1483474.6503183 3.2693706s-1.5582519 1.8519497-2.7716386 1.8519497c-1.6568542 0-3-1.3431458-3-3zm11.941-1c-.5139027-4.5515157-4.3605692-7.9933379-8.941-8h-1v-7h14v15z"/><path id="Shape" d="m35 26c-.5522847 0-1 .4477153-1 1v2c0 .5522847.4477153 1 1 1s1-.4477153 1-1v-2c0-.5522847-.4477153-1-1-1z"/></g></g></svg>