<svg height="512" viewBox="0 0 42 60" width="512" xmlns="http://www.w3.org/2000/svg"><g id="Page-1" fill="none" fill-rule="evenodd"><g id="006---Farmer-Male" fill="rgb(0,0,0)" fill-rule="nonzero"><path id="Shape" d="m7.7 20.759c-.80834728 1.1733647-.92795927 2.689278-.31363628 3.9748975.61432298 1.2856195 1.86889704 2.1448889 3.28963628 2.2531025l.4 3.268c.4892918 3.1548826 2.8175292 5.7114943 5.913 6.493-.1785449.8885469-.664286 1.6858421-1.372 2.252h-3.617c-4.41622192.0049599-7.99504012 3.5837781-8 8v10c0 1.6568542 1.34314575 3 3 3h28c1.6568542 0 3-1.3431458 3-3v-10c-.0049599-4.4162219-3.5837781-7.9950401-8-8h-3.617c-.7076676-.5660321-1.1931212-1.3634366-1.371-2.252 3.1054869-.7895985 5.4368172-3.3611909 5.919-6.529l.39-3.232c1.4212793-.107228 2.6767869-.9661133 3.2918142-2.2519104.6150272-1.2857971.4957189-2.8022894-.3128142-3.9760896 3.885-.84 7.7-2.291 7.7-4.759 0-2.432-3.789-4.082-8.971-5.026l-4.758-8.735c-.3995602-.71460105-1.0687385-1.23935498-1.858-1.457-1.7642113-.48753485-3.5829383-.75028093-5.413-.782-1.8370038.03225861-3.6625272.29703174-5.433.788-.785676.22175085-1.4500173.74854293-1.845 1.463l-4.751 8.723c-5.182.944-8.971 2.594-8.971 5.026 0 2.468 3.815 3.919 7.7 4.759zm15.323 16.241c.191822 1.1196015.7081817 2.1582319 1.485 2.987-.99.876-2.627 2.312-3.5 3.014h-.008c-.878-.7-2.514-2.137-3.5-3.014.7744451-.8293883 1.2880599-1.8680935 1.477-2.987zm-5.023 11c-.5522847 0-1-.4477153-1-1v-4.78c.94.824 2.06 1.793 2.754 2.348.0785345.0516291.1607558.097419.246.137v3.295zm4-3.3c.085028-.0396262.1672228-.0850672.246-.136.694-.555 1.814-1.524 2.754-2.348v4.784c0 .5522847-.4477153 1-1 1h-2zm-16 12.3v-10c.00290243-2.540182 1.6050913-4.8032738 4-5.65v16.65h-3c-.55228475 0-1-.4477153-1-1zm10 1v-4h10v4zm20-11v10c0 .5522847-.4477153 1-1 1h-3v-16.65c2.3949087.8467262 3.9970976 3.109818 4 5.65zm-6 11h-2v-4c0-1.1045695-.8954305-2-2-2h-10c-1.1045695 0-2 .8954305-2 2v4h-2v-17h3v6c0 1.6568542 1.3431458 3 3 3h6c1.6568542 0 3-1.3431458 3-3v-6h3zm-6.976-23h-4.048c-2.941695.0157187-5.4553235-2.1161949-5.92-5.021l-.239-1.979c.9624351.5904236 2.055828.9339338 3.183 1 1.1155177-.0598172 2.1841011-.4683623 3.055-1.168.5508667-.4650734 1.2282086-.7548156 1.945-.832.7167914.0771844 1.3941333.3669266 1.945.832.8708989.6996377 1.9394823 1.1081828 3.055 1.168 1.1274549-.066231 2.2211325-.4097228 3.184-1l-.234 1.941c-.4521198 2.9199597-2.9712676 5.0705451-5.926 5.059zm7.976-10c-.238 0-.787-.173-1.2.175-.608.508-2.467 1.825-3.8 1.825-.7167914-.0771844-1.3941333-.3669266-1.945-.832-.8708989-.6996377-1.9394823-1.1081828-3.055-1.168-1.1155177.0598172-2.1841011.4683623-3.055 1.168-.5508667.4650734-1.2282086.7548156-1.945.832-1.333 0-3.192-1.317-3.8-1.825-.437-.375-.873-.175-1.2-.175-1.1045695 0-2-.8954305-2-2s.8954305-2 2-2c.5522847 0 1-.4477153 1-1v-2.569c-.0032162-.5113473.3798588-.9427381.888-1 2.693775-.295713 5.4020562-.4396071 8.112-.431 2.710332-.0075809 5.4189445.1373147 8.113.434.5077443.0577344.8902719.4889943.887 1v2.566c0 .5522847.4477153 1 1 1 1.1045695 0 2 .8954305 2 2s-.8954305 2-2 2zm-15.529-21.779c.1336993-.24182136.3570943-.42139936.622-.5 1.5987611-.44609415 3.2474908-.68834687 4.907-.721 1.6527604.03121921 3.2950119.27043425 4.888.712.2690715.07639915.4969906.25614612.634.5l4.019 7.379c-3.1644591-.4004415-6.3513123-.59784536-9.541-.591-3.1896022-.00817205-6.3764551.1878957-9.541.587zm5.529 8.779c12.294 0 19 2.643 19 4 0 .592-1.95 2.128-7.928 3.152-.025-.007-.047-.019-.072-.026v-1.7c.0016363-1.5269137-1.1438653-2.8114595-2.661-2.984-2.7691584-.3038434-5.5532379-.4514106-8.339-.442-2.7855244-.0077805-5.569273.1414562-8.338.447-1.5175313.17207-2.66357882 1.4567453-2.662 2.984v1.7c-.025.007-.047.019-.072.026-5.978-1.029-7.928-2.565-7.928-3.157 0-1.357 6.706-4 19-4z"/></g></g></svg>