<svg height="512" viewBox="0 0 42 60" width="512" xmlns="http://www.w3.org/2000/svg"><g id="Page-1" fill="none" fill-rule="evenodd"><g id="007---Farmer-Female" fill="rgb(0,0,0)" fill-rule="nonzero"><path id="Shape" d="m3.333 19.433c-.79402995 3.0004598-.84243529 6.1495531-.141 9.173.33 1.985.591 3.553.034 4.707-.30632389.6069063-.28868248 1.3268259.047 1.918.32644891.5716604.91722762.9421169 1.574.987.179.011.368.017.564.017 2.853 0 7.309-1.247 9.537-4.726.6629236.4613657 1.356532.8769962 2.076 1.244.3117218 1.8792618-.2238732 3.8001551-1.463 5.247h-2.561c-4.41622192.0049599-7.99504012 3.5837781-8 8v11c0 1.6568542 1.34314575 3 3 3h26c1.6568542 0 3-1.3431458 3-3v-11c-.0049599-4.4162219-3.5837781-7.9950401-8-8h-2.561c-1.2391268-1.4468449-1.7747218-3.3677382-1.463-5.247.719468-.3670038 1.4130764-.7826343 2.076-1.244 2.228 3.479 6.682 4.726 9.542 4.726.2 0 .386-.006.566-.017.6543408-.0468035 1.2421678-.4170557 1.567-.987.3340365-.5868455.3539088-1.3014986.053-1.906-.563-1.166-.3-2.734.028-4.719.7005815-3.0235844.6518349-6.1725495-.142-9.173 2.21-.947 3.334-2.099 3.334-3.433 0-2.432-3.789-4.082-8.971-5.026l-4.758-8.735c-.3995602-.71460105-1.0687385-1.23935498-1.858-1.457-1.7642113-.48753485-3.5829383-.75028093-5.413-.782-1.8370038.03225861-3.6625272.29703174-5.433.788-.785676.22175085-1.4500173.74854293-1.845 1.463l-4.751 8.723c-5.182.944-8.971 2.594-8.971 5.026 0 1.334 1.124 2.486 3.333 3.433zm1.688 14.767c.839-1.738.517-3.675.144-5.918-.511-3.065-1.089-6.538 1.068-10.669.18849302-.3342118.53751664-.5460513.921-.559.828.022 1.8.024 2.846-.011v2.117c-1.93236137.4984317-3.20173405 2.3448911-2.97505423 4.3275839.22667982 1.9826929 1.8800574 3.4949964 3.87505423 3.5444161.602628 1.2295543 1.444371 2.3266079 2.476 3.227-1.933 3.257-6.417 4.087-8.355 3.941zm15.979-20.5c.1075939.1398364.2231168.2733889.346.4 1.854 1.812 5.368 2.551 8.654 2.824v3.109c0 .5522847.4477153 1 1 1 1.1045695 0 2 .8954305 2 2s-.8954305 2-2 2c-.1148606.0014648-.2295385-.0096006-.342-.033-.5012807-.1117514-1.0057133.1743964-1.167.662-1.234 3.729-6.949 6.374-8.491 6.374s-7.257-2.645-8.491-6.374c-.1612867-.4876036-.6657193-.7737514-1.167-.662-.1123507.0244074-.2270297.0364788-.342.036-1.1045695 0-2-.8954305-2-2s.8954305-2 2-2c.5522847 0 1-.4477153 1-1v-3.112c3.284-.273 6.8-1.012 8.654-2.818.1230631-.1285505.2385893-.2641102.346-.406zm-4 28.778c2.2805445 2.0294425 5.7194555 2.0294425 8 0v3.522c0 .5522847-.4477153 1-1 1h-6c-.5522847 0-1-.4477153-1-1zm-10 14.522v-11c.00290977-2.1406804 1.14611355-4.1176608 3-5.188v17.188h-2c-.55228475 0-1-.4477153-1-1zm9 1v-5h10v5zm19-12v11c0 .5522847-.4477153 1-1 1h-2v-17.188c1.8538865 1.0703392 2.9970902 3.0473196 3 5.188zm-5-5.91v17.91h-2v-5c0-1.1045695-.8954305-2-2-2h-10c-1.1045695 0-2 .8954305-2 2v5h-2v-17.91c.3302334-.0578863.6647376-.0879917 1-.09h2v6c0 1.6568542 1.3431458 3 3 3h6c1.6568542 0 3-1.3431458 3-3v-6h2c.3352624.0020083.6697666.0321137 1 .09zm-5.138-.856c-.5627148 1.6536689-2.1157119 2.7656584-3.8625 2.7656584s-3.2997852-1.1119895-3.8625-2.7656584c1.32704-1.5596214 2.0179072-3.5618865 1.935-5.608.6186498.2314818 1.2685737.3686805 1.928.407.6593748-.0379985 1.3092971-.1748597 1.928-.406-.0829302 2.0456409.6075588 4.0474879 1.934 5.607zm11.973-10.957c-.373 2.243-.7 4.18.191 5.945-1.989.129-6.47-.708-8.405-3.963 1.0324745-.9003285 1.8752135-1.9973509 2.479-3.227 1.9949968-.0494197 3.6483744-1.5617232 3.8750542-3.5444161.2266798-1.9826928-1.0426928-3.8291522-2.9750542-4.3275839v-2.122c1.042.035 2.017.032 2.847.011.3810182.013277.7279929.2228996.917.554 2.16 4.136 1.582 7.609 1.071 10.674zm3.165-12.277c0 .256-.456.868-2.035 1.558-.1333333-.2926667-.277-.588-.431-.886-.5264322-1.0187597-1.5875662-1.6482985-2.734-1.622-2.191.055-9.564.052-12.054-2.376-.196952-.191321-.3617371-.4131732-.488-.657 11.481.174 17.742 2.673 17.742 3.983zm-24.529-12.779c.1336993-.24182136.3570943-.42139936.622-.5 1.5987611-.44609415 3.2474908-.68834687 4.907-.721 1.6527604.03121921 3.2950119.27043425 4.888.712.2690715.07639915.4969906.25614612.634.5l4.019 7.379c-3.1644591-.4004415-6.3513123-.59784536-9.541-.591-3.1896022-.00817205-6.3764551.1878957-9.541.587zm4.276 8.8c-.1262629.2438268-.291048.465679-.488.657-2.489 2.422-9.859 2.43-12.053 2.372-1.14981047-.0252213-2.21381694.6058901-2.743 1.627-.15466667.2973333-.29733333.5906667-.428.88-1.579-.69-2.035-1.301-2.035-1.557 0-1.31 6.261-3.809 17.747-3.983z"/></g></g></svg>