<svg height="36" viewBox="0 0 60 36" width="60" xmlns="http://www.w3.org/2000/svg"><g id="Page-1" fill="none" fill-rule="evenodd"><g id="008---Farm-Warehouse" fill="rgb(0,0,0)" fill-rule="nonzero"><path id="Shape" d="m58 13.508.617.256c.3301134.1368327.7081502.087158.9917075-.1303123.2835573-.2174702.4295561-.569697.383-.924-.0465561-.3543029-.2785941-.656855-.6087075-.7936877l-28.236-11.685c-.7359595-.29632036-1.5580405-.29632036-2.294 0l-28.236 11.685c-.51031111.2115251-.75252506.7966889-.541 1.307s.79668889.7525251 1.307.541l.617-.256v20.492h-1c-.55228475 0-1 .4477153-1 1s.44771525 1 1 1h58c.5522847 0 1-.4477153 1-1s-.4477153-1-1-1h-1zm-52-1.655v12.147c0 .5522847.44771525 1 1 1s1-.4477153 1-1v-12.975l2-.827v13.802c0 .5522847.4477153 1 1 1s1-.4477153 1-1v-14.63l2-.828v1.458c0 .5522847.4477153 1 1 1s1-.4477153 1-1v-2.285l3-1.242v3.527c0 .5522847.4477153 1 1 1s1-.4477153 1-1v-4.354l3-1.246v5.6c0 .5522847.4477153 1 1 1s1-.4477153 1-1v-6.424l3-1.241v7.665c0 .5522847.4477153 1 1 1s1-.4477153 1-1v-7.665l3 1.241v6.424c0 .5522847.4477153 1 1 1s1-.4477153 1-1v-5.6l3 1.242v4.358c0 .5522847.4477153 1 1 1s1-.4477153 1-1v-3.527l3 1.242v2.285c0 .5522847.4477153 1 1 1s1-.4477153 1-1v-1.458l2 .828v14.63c0 .5522847.4477153 1 1 1s1-.4477153 1-1v-13.8l2 .827v12.973c0 .5522847.4477153 1 1 1s1-.4477153 1-1v-12.147l2 .828v14.319h-14v-12h1c.5522847 0 1-.4477153 1-1s-.4477153-1-1-1h-26c-.5522847 0-1 .4477153-1 1s.4477153 1 1 1h1v12h-14v-14.319zm4 17.147v5h-2v-5zm2 0h2v5h-2zm4 0h2v5h-2zm4-14h20v6h-20zm22 14h2v5h-2zm4 0h2v5h-2zm4 0h2v5h-2zm-46 0h2v5h-2zm16 5v-11h20v11zm34 0v-5h2v5z"/><path id="Shape" d="m36 17h-12c-.5522847 0-1 .4477153-1 1s.4477153 1 1 1h12c.5522847 0 1-.4477153 1-1s-.4477153-1-1-1z"/><path id="Shape" d="m15 25c.5522847 0 1-.4477153 1-1v-6c0-.5522847-.4477153-1-1-1s-1 .4477153-1 1v6c0 .5522847.4477153 1 1 1z"/><path id="Shape" d="m44 24c0 .5522847.4477153 1 1 1s1-.4477153 1-1v-6c0-.5522847-.4477153-1-1-1s-1 .4477153-1 1z"/></g></g></svg>