<svg height="512" viewBox="0 0 60 60" width="512" xmlns="http://www.w3.org/2000/svg"><g id="Page-1" fill="none" fill-rule="evenodd"><g id="010---Cow" fill="rgb(0,0,0)" fill-rule="nonzero"><path id="Shape" d="m52 49c0-.5522847-.4477153-1-1-1h-44c-.55228475 0-1 .4477153-1 1s.44771525 1 1 1h44c.5522847 0 1-.4477153 1-1z"/><path id="Shape" d="m39 54c0-.5522847-.4477153-1-1-1h-24c-.5522847 0-1 .4477153-1 1s.4477153 1 1 1h24c.5522847 0 1-.4477153 1-1z"/><path id="Shape" d="m18 58c-.5522847 0-1 .4477153-1 1s.4477153 1 1 1h10c.5522847 0 1-.4477153 1-1s-.4477153-1-1-1z"/><path id="Shape" d="m0 45c0 .5522847.44771525 1 1 1h58c.5522847 0 1-.4477153 1-1s-.4477153-1-1-1h-16.143c-.2895516-1.6376346-1.3542583-3.0336415-2.857-3.746v-7.254h1.03c1.6274941.00971 2.9623826-1.2869118 3-2.914.0019928-3.3033131.3167305-6.5990184.94-9.843.4322756-1.8388456 1.2364542-3.5697185 2.363-5.086 2.9148791 1.1140743 5.9984291 1.7228032 9.118 1.8 1.2616849.0552627 2.424363-.6808873 2.914-1.845l.4-.969c.5267273-1.2665232.1273491-2.7289886-.97-3.552-1.372-1.034-4.744-3.784-6.414-6.975-.0536438-.10004564-.1130781-.19687678-.178-.29.9338984-.36480153 1.784303-.91484324 2.5-1.617.3639761-.3937337.3526366-1.00446605-.0257045-1.38441714-.3783411-.37995108-.9890198-.39388378-1.3842955-.03158286-1.1897608 1.04960176-2.7073512 1.65303219-4.293 1.707h-.79c-1.0738489.00589439-2.0637948.58158604-2.6 1.512-2.4454444 4.06868241-6.8632192 6.5374613-11.61 6.488-3.956 0-9.221-.382-14.361-.892-.0271505-.00448035-.0545241-.00748476-.082-.009-5.112-.509-10.093-1.144-13.53-1.655-.97168556-.14545766-1.95301572.19410424-2.627.909-.25790278.28376148-.45827488.61488486-.59.975-2.805 3.282-2.81 8.135-2.81 19.672 0 .5522847.44771525 1 1 1s1-.4477153 1-1c0-8.428 0-13.115 1.045-16.076.9979126 4.9911779 1.65112271 10.0451197 1.955 15.126.061 1.216.02 4.517.006 5.5-.00728565.4118097.0717436.8205817.232 1.2 1.12915716 2.9545186 1.72080505 6.0871706 1.747 9.25h-5.985c-.55228475 0-1 .4477153-1 1zm12.936-4.717-.528-5.326c.2.017.4.043.592.043.2840135-.0038146.5675341-.0248532.849-.063l.258.513c.2507784.4889357.8490836.6839257 1.3397978.4366453.4907141-.2472803.6899718-.8441778.4462022-1.3366453l-.076-.149c.4849471-.2137602.9439164-.4821632 1.368-.8l.108.108c.3923789.3789722 1.0160848.3735524 1.4018186-.0121814s.3911536-1.0094397.0121814-1.4018186l-.112-.112c.1754668-.2328038.335797-.4766392.48-.73 1.6134353.3812339 3.2672329.5649145 4.925.547 2.9437522-.0118106 5.8463933-.6919087 8.489-1.989.2189154 1.0121101.6041399 1.980916 1.14 2.867.2323787.3404602.3612314.7409108.371 1.153v9.969h-18.109c-.3199991-1.6467108-1.4228464-3.0339471-2.955-3.717zm-.886-8.943c.7267238-.8571056 1.3047234-1.8299025 1.71-2.878.9425343 1.0103077 2.0855766 1.8127534 3.356 2.356-1.1003809 1.5813896-3.0064079 2.3965947-4.91 2.1zm6.087-2.255c.363-1.43 1.495-3.085 3.363-3.085.7392744.0003024 1.4399026.3302686 1.911.9.2800377.3372101.7470387.4527442 1.152.285.2971955-.1224627.6155623-.1853206.937-.185 1.3807119 0 2.5 1.1192881 2.5 2.5v.014c-1.309244.320592-2.6520779.4837463-4 .486-1.9942379.0623958-3.9826072-.247916-5.863-.915zm21.375-18.049-.663 2.326c-.1859344.6412257-.7713737 1.083865-1.439 1.088-1.7138034-.0054913-3.1781464 1.2338615-3.456 2.925l-.161.963c-.2295518 1.3581005-1.3058379 2.4149134-2.6679029 2.6196326s-2.7014595-.4890155-3.3200971-1.7196326c-.5019974-1.0120307-1.5353105-1.6510176-2.665-1.648-.1108969-.0018954-.2217993.0034493-.332.016l-4.254.48c-1.4997861.1569596-2.9075227-.7482811-3.387-2.178-.1108393-.3245-.1672668-.6650925-.167-1.008-.004594-.9732727.437746-1.8948144 1.2-2.5l1.585-1.27c5.092.5 10.281.87 14.21.87 1.8819009.0117717 3.750601-.3147512 5.517-.964zm-33.78-1.613c1.394.207 3.046.434 4.851.666l-.623 1.858c-.40255941 1.2268719-1.5487747 2.0554564-2.84 2.053h-1.835c-.243-1.323-.476-2.477-.67-3.394-.06937655-.3166044.0227761-.6470053.246-.882.2230905-.23758307.54882074-.35014886.871-.301zm1.35 24.546c-.05281999-.123074-.07840453-.2561136-.075-.39.014-1 .056-4.353-.008-5.629-.22646634-4.0060331-.68154065-7.9958628-1.363-11.95h1.484c2.15330879.0043928 4.0652293-1.3764835 4.738-3.422l.751-2.237c1.395.169 2.853.337 4.347.5-1.2400788.9813545-1.9611077 2.4776-1.956 4.059-.0005443.5588358.0910159 1.113941.271 1.643.7778418 2.3216185 3.0652959 3.790164 5.5 3.531l4.26-.48h.108c.3725335.0037153.7114398.2162563.877.55.8767849 1.7549291 2.6722412 2.8614943 4.634 2.856.2858935.0000055.5712647-.0244167.853-.073 2.1882908-.3591633 3.9038101-2.0738779 4.264-4.262l.16-.961c.0558508-.3510063.235742-.6703398.507-.9.2733801-.2296899.6189369-.3557332.976-.356 1.558088-.0074788 2.9256518-1.0389499 3.361-2.535l1.15-4.03c2.2184187-1.31978501 4.0778005-3.1654292 5.414-5.374.1773838-.31472454.5107294-.50930355.872-.509h1.523c.3719156.00259034.7116675.21137215.882.542 1.0982091 1.95457732 2.5007854 3.72172218 4.155 5.235l-1.025 1.708c-.2844266.4735842-.1310842 1.0880734.3425 1.3725s1.0880734.1310842 1.3725-.3425l.826-1.377c.515.433.974.8 1.312 1.049.3676925.2738598.5020558.7626782.326 1.186l-.4.969c-.1608067.3877209-.5466301.6337532-.966.616-5.668-.287-9.752-1.592-10.658-3.4-.2468713-.4942948-.8477051-.6948712-1.342-.4479999-.4942948.2468712-.6948712.8477051-.448 1.3419999.3555174.6749535.8619899 1.2587658 1.48 1.706-1.207502 1.6828864-2.0753546 3.5850291-2.555 5.6-.6488862 3.3869192-.9836406 6.826521-1 10.275-.0172807.5397491-.4599745.9682766-1 .968h-1.032v-4.001c0-.5522847-.4477153-1-1-1s-1 .4477153-1 1v5.007 8.867c.0451578.4951582.3786029.9168682.85 1.075.9478769.3250887 1.6792541 1.0896426 1.962 2.051h-4.812v-9.969c-.0092643-.7983234-.2499992-1.5768039-.693-2.241-1.286-1.99-1.307-5.753-1.307-5.79 0-.5522847-.4477153-1-1-1s-1 .4477153-1 1c.0092756.6534852.052668 1.3060403.13 1.955-.7067796.3711247-1.4377695.6941902-2.188.967-.159937-1.2615582-.848011-2.3958767-1.8929452-3.1205983-1.0449342-.7247217-2.3484432-.9716801-3.5860548-.6794017-.8174998-.7233038-1.8714533-1.1224047-2.963-1.122-2.4413311.0904759-4.5374777 1.7642283-5.166 4.125-.7358794-.5257667-1.3670428-1.1844015-1.861-1.942.3216881-1.3720271.4983245-2.7740574.527-4.183 0-.5522847-.4477153-1-1-1s-1 .4477153-1 1c0 .052-.037 5.264-2.453 8.022-.3693215.4135433-.55039827.9618439-.5 1.514l.233 2.318v.024l.709 7.049c.043897.4952125.3779757.9169377.85 1.073.9446361.3141679 1.6858321 1.0553639 2 2h-4.853c-.02077441-3.4314958-.66595546-6.8305562-1.904-10.031z"/></g></g></svg>