<svg height="512" viewBox="0 0 49 60" width="512" xmlns="http://www.w3.org/2000/svg"><g id="Page-1" fill="none" fill-rule="evenodd"><g id="013---Chicken" fill="rgb(0,0,0)" fill-rule="nonzero" transform="translate(-1)"><path id="Shape" d="m28.657 20.708c-.1018463.0469884-.1995289.1025203-.292.166-.491-.085-.984-.188-1.5-.3-2.9322565-.8797579-6.0766023-.7355186-8.916.409-1.2299664-1.1585085-2.0720215-2.6686895-2.411-4.324-.1526155-.7471774-.7156958-1.3431976-1.453-1.538-.7210238-.1940698-1.4896699.0386182-1.982.6-.4086528.456266-.7723373.9508902-1.086 1.477-.1675859-.3920859-.304334-.7966462-.409-1.21-.1920572-.7891228-.83452202-1.3887567-1.635-1.526-.76919418-.1366767-1.54462912.2055897-1.962.866-.62884864.9788599-1.11948454 2.0398852-1.458 3.153-.35558258-.6273404-1.03254717-1.0027024-1.753-.972-.7972253.0320093-1.49968944.5334328-1.789 1.277-.65700979 1.6603864-.99982661 3.4283853-1.011 5.214-.11294103 4.8113439 2.20304504 9.3564947 6.162 12.093.884 6.183 5.665 10.6 12.307 11.195 1.0200453 2.1171042 2.5835783 3.9256402 4.531 5.241v4.626c-.8479735.2275904-1.6687703.5464538-2.448.951-.3193954.1607695-.5287595.4797221-.5492267.8367114-.0204673.3569894.1510718.6977802.45.8940001.2989282.1962198.6798313.218058.9992267.0572885.7885631-.4490164 1.6517581-.75188 2.548-.894 1.5991165.0923849 3.1769417.4119231 4.686.949.3394023.1128959.7132523.0361471.9807242-.201336.2674719-.237483.3879304-.599621.316-.95-.0719305-.350379-.3253219-.6357681-.6647242-.748664-1.4010315-.4757708-2.8483918-.8022481-4.318-.974v-4.546c1.9918346-1.3426123 3.5767819-3.2063609 4.582-5.388 7.9631153-2.4555949 13.4012375-9.8078811 13.418-18.141 0-.343-.015-.7-.036-1.068.2136895-.1664794.3904299-.3755711.519-.614.2605729-.4745561.3148039-1.035305.15-1.551-.9320383-3.1202323-1.4656073-6.3458388-1.588-9.6.8870256-.5249657 1.6221264-1.271784 2.133-2.167h2.822c.6938986-.0007135 1.3378417-.3610455 1.7014214-.9520663s.3948335-1.3282623.0825786-1.9479337l-.171-.342c-.8376215-1.67862439-2.5470446-2.74455-4.423-2.758-.2386017-.41926823-.5266616-.80838417-.858-1.159.9974318-.60717716 1.6238582-1.67412988 1.668-2.841-.0021537-.91816582-.4236793-1.78503451-1.1445283-2.35372589-.7208489-.56869139-1.6620199-.77687978-2.5554717-.56527411-.5674699-.68483763-1.4106043-1.08117498-2.3-1.08117498s-1.7325301.39633735-2.3 1.08117498c-.8934518-.21160567-1.8346228-.00341728-2.5554717.56527411-.720849.56869138-1.1423746 1.43556007-1.1445283 2.35372589-.0089889 1.19577692.5470382 2.32562399 1.5 3.048-.9652472 1.09030922-1.4987135 2.49581502-1.5 3.952 0 .074-.061 7.442-5.343 9.708zm2.324 24.2c-.0406975-.5349161-.4992769-.9405632-1.0351614-.9156761-.5358844.0248871-.9548936.4712905-.9458386 1.0076761 0 2.581-2.811 4.913-4 5.788-1.468-1.066-4-3.4-4-5.788 0-.5522847-.4477153-1-1-1s-1 .4477153-1 1c0 .082.014.161.018.242-6.043-.79-10.018-5.179-10.018-11.242 0-.5522847-.44771525-1-1-1-.35921152.0036634-.68812982.2020099-.859.518-2.73838601-2.3907306-4.25852847-5.8847455-4.141-9.518.01667774-1.5441068.30298153-3.0734292.846-4.519.33132184.672853.72682276 1.3121513 1.181 1.909-.01.2-.027.4-.027.61 0 .5522847.44771525 1 1 1s1-.4477153 1-1c-.00207903-.2761229.01027114-.5521659.037-.827.14689144-1.6815779.70680179-3.3008523 1.63-4.714.2846403 1.1462336.76868187 2.2334654 1.43 3.212-.0611981.3430295-.0936442.6905704-.097 1.039 0 .5522847.4477153 1 1 1s1-.4477153 1-1c.0715428-1.3671551.6323288-2.6629966 1.58-3.651.3688152 1.7900424 1.2122738 3.4479461 2.442 4.8-.168.087-.332.167-.5.262-.319599.1687079-.5233047.4967298-.5328278.8579987s.1766182.6995672.4868852.8848785.6963787.1887991 1.0099426.0091228c.592-.326 1.152-.6 1.685-.828h.006c2.5946689-1.176618 5.5301523-1.3633536 8.253-.525.338.076.682.153 1.03.224.0304391.3343011.1468813.6550337.338.931 1.4895855 1.9549533 3.5170471 3.4329777 5.834 4.253 1.6517588.6475491 3.4118856.9740516 5.186.962 1.0660603-.0034092 2.12931-.1095668 3.175-.317 0 .142.011.288.011.426-.0133674 7.0770497-4.4012169 13.4086414-11.023 15.906zm10.655-30.262-.046.021c-.5005651.2219509-1.0424402.3354379-1.59.333-.5522847 0-1 .4477153-1 1s.4477153 1 1 1c.3629345-.0008439.7250585-.0343119 1.082-.1.1652772 3.2065228.717961 6.3812647 1.646 9.455-2.7452125.796228-5.6728798.6956847-8.357-.287-1.9481347-.6737596-3.6589524-1.8982535-4.925-3.525 6.479-2.777 6.554-11.187 6.554-11.543-.0013684-1.20253705.5398316-2.34151866 1.473-3.1.7091885-.58427901 1.6001292-.90259846 2.519-.9.2882311.00041544.5756855.02989795.858.088 1.6883192.36700492 2.9501858 1.77653502 3.1288771 3.495018.1786913 1.718483-.7661839 3.3574745-2.3428771 4.063982zm6.19-2.988.174.342h-2.1c.1061218-.6266758.1132081-1.2661264.021-1.895.8276461.2218569 1.5209246.7870336 1.905 1.553zm-10.826-8.658c.197144-.0025808.3903937.05497551.554.165.2576209.17652967.5829215.22256732.8794104.12445716s.5301187-.32910158.6315896-.62445716c.1375278-.39893543.5130244-.66667098.935-.66667098s.7974722.26773555.935.66667098c.1014709.29535558.3351007.526347.6315896.62445716s.6217895.05207251.8794104-.12445716c.1637693-.10967846.3569089-.16720197.554-.165.5522847 0 1 .44771525 1 1 0 .659-.7 1.216-1.456 1.573-.4123482-.19974852-.8471005-.34947788-1.295-.446-1.400885-.28885284-2.8588054-.07202483-4.115.612-.6801458-.31430936-1.1206715-.98985984-1.134-1.739 0-.55228475.4477153-1 1-1z"/><path id="Shape" d="m36.016 33.035c-.5320425-.1448651-1.0809459.1682827-1.227.7-.5189033 1.9245489-1.9585301 3.4664444-3.843 4.116-11.516 3.939-16.429-3.246-18.012-6.518l12.818-4.39c.3415273-.1130195.5960288-.4007733.6664722-.7535509s-.0540288-.7162056-.3259597-.9517218-.6494079-.3068206-.9885125-.1867273l-12.811 4.39c-.5431573.1819861-.9814153.5894228-1.2024567 1.1178918s-.2033805 1.1266018.0484567 1.6411082c1.138 2.361 5.027 8.8 13.519 8.8 2.3673589-.0319102 4.7130919-.4556424 6.942-1.254 2.5118196-.8650443 4.4312353-2.9193135 5.124-5.484.0692955-.2566134.0335755-.5302568-.0992694-.7604839-.132845-.2302271-.3518833-.3980926-.6087306-.4665161z"/><path id="Shape" d="m20.479 34.012c-.484906-.2645444-1.0924556-.085906-1.357.399s-.085906 1.0924556.399 1.357c1.5745644.8379209 3.3355487 1.2638046 5.119 1.238 1.9283054-.0359152 3.8376587-.3879226 5.652-1.042.3381519-.1155754.5889584-.4027734.6579431-.7534092.0689847-.3506359-.0543328-.7114396-.3235-.9465-.2691672-.2350605-.6432912-.3086662-.9814431-.1930908-3.676 1.258-6.781 1.241-9.166-.059z"/><circle id="Oval" cx="40" cy="10" r="1"/></g></g></svg>