<svg height="512" viewBox="0 0 44 60" width="512" xmlns="http://www.w3.org/2000/svg"><g id="Page-1" fill="none" fill-rule="evenodd"><g id="014---Windmill" fill="rgb(0,0,0)" fill-rule="nonzero"><path id="Shape" d="m1 58c-.55228475 0-1 .4477153-1 1s.44771525 1 1 1h42c.5522847 0 1-.4477153 1-1s-.4477153-1-1-1h-4v-10c.4761209-.0000904.886153-.3358558.980135-.8026089s-.1541516-.9350419-.593135-1.1193911l-1-.419-1.379-.58-5.008-2.105v-5.219l1.043.83c.007.006.01.015.018.021.0096552.0062547.0196728.0119313.03.017l3.333 2.651c.8643565.6874868 2.1223512.5442276 2.81-.32l2.49-3.13c.3304602-.4151441.4824056-.9445919.4223892-1.4717983s-.3270749-1.0089554-.7423892-1.3392017l-3.324-2.645c-.009-.007-.013-.018-.022-.025s-.021-.009-.03-.016l-6.028-4.795v-8.17c.1732911-.1117136.3278602-.2500833.458-.41l7.274-9.143c.006-.007.014-.009.02-.016s.007-.018.013-.026l2.655-3.336c.6874868-.86435653.5442276-2.12235116-.32-2.81l-3.13-2.49c-.4150196-.33057212-.9443875-.48268444-1.4715874-.42285635-.5271999.0598281-1.0090211.32669294-1.3394126.74185635l-2.645 3.325c-.008.009-.019.012-.026.021s-.008.021-.015.03l-1.754 2.206-8.337-6.553c-.8104908-.63481802-1.9495092-.63481802-2.76 0l-6.539 5.14-3.112-2.478c-.013-.012-.018-.028-.032-.039s-.031-.013-.046-.023l-3.311-2.635c-.41357798-.3348506-.94398928-.49020733-1.47286876-.43140119-.52887949.05880614-1.01220943.32688081-1.34213124.74440119l-2.482 3.121c-.33431023.41377015-.48914133.9441144-.42996448 1.47276095.05917686.52864654.3274401 1.01162949.74496448 1.34123905l3.31 2.636c.013.011.019.027.032.038s.035.016.051.028l6.007 4.779v8.173c-.1733145.112083-.327878.2507852-.458.411l-7.272 9.143c-.006.008-.016.011-.022.019s-.007.017-.013.025l-2.655 3.334c-.68748678.8643565-.54422761 2.1223512.32 2.81l3.13 2.49c.41501957.3305721.94438746.4826844 1.4715874.4228563.52719993-.0598281 1.00902114-.3266929 1.3394126-.7418563l2.648-3.328c.006-.008.016-.01.023-.018s.008-.021.015-.03l1.473-1.852v7.943l-5.008 2.1-1.379.58-1 .419c-.44586841.1802953-.70024096.6524454-.60554408 1.1239723.09469687.4715268.51163757.8088568.99254408.8030277v10zm12.378-13.436.021-.009 8.322-3.5c.1779607-.0773385.3800393-.0773385.558 0l8.322 3.5.021.009 1.038.436h-19.32zm4.105-19.636-3.13-2.49c-.1097013-.0865356-.2279865-.1615948-.353-.224v-6.45l1.108.882h.008l4.056 3.226c-.3068005.850298-.2007342 1.7949162.287 2.556zm-9.507-16.509 2.492-3.119 4.548 3.619-2.493 3.119zm10.869 3.541-2.482 3.127-2.275-1.808 2.494-3.119zm15.59-5.129 3.126 2.494-3.618 4.549-3.124-2.5zm-8.227 7.128-.011.009-3.222 4.06c-.8495613-.307391-1.7938503-.2012786-2.554.287l-2.5-1.985 2.485-3.124c.2769668-.3415892.4312102-.7662868.438-1.206h6.922zm-4.831 7.678c-.3164503-.2519036-.4499936-.6696308-.3383568-1.0583896.1116368-.3887589.4464679-.6719867.8483568-.7176104.0374794-.0047346.0752228-.0070727.113-.007.3837931.0004687.7334582.2205484.8998769.566384.1664187.3458355.1202267.7564046-.1188769 1.056616-.3438244.4321138-.9728217.5037434-1.405.16zm3.6-1.122c-.0528363-.4413256-.2034981-.8652969-.441-1.241l1.978-2.493 3.13 2.49c.1104638.0764153.2284022.1414154.352.194v6.475l-1.117-.889c-.011-.009-.024-.014-.036-.022l-4.018-3.205c.1491303-.4191994.2021032-.8665644.155-1.309zm2.656 6.107c.007 0 .016.007.023.012l2.255 1.794-2.5 3.124-2.268-1.8 2.487-3.127zm3.843 3.051 4.545 3.616-2.495 3.127-4.545-3.616zm6.194 10.037-2.575-2.048 2.495-3.127 2.57 2.045zm-6.776-22-3.131-2.491 1.81-2.275 3.125 2.5zm6.83-15.01 3.131 2.489-2.048 2.571-3.127-2.495zm-15.862-.655c.0829258-.06233356.1970742-.06233356.28 0l8.332 6.555-1.117 1.4h-9.764l-2.535-2.017-.008-.01-.012-.006-1.346-1.067zm-15.534-.045 2.572 2.051-2.489 3.123-2.568-2.042zm6.778 22 3.131 2.491-1.81 2.275-3.127-2.496zm-3.541 10.878-3.126-2.494 3.618-4.549 3.124 2.5zm-3.289 4.135-3.131-2.489 2.048-2.574 3.126 2.5zm7.724-1.013h4c.5522847 0 1-.4477153 1-1s-.4477153-1-1-1h-4v-3.483l1.35-1.7c.006-.007.015-.009.021-.017s.008-.019.014-.028l2.406-3.024.012-.009 3.215-4.052c.3137419.1094855.6437035.165268.976.165.1152835-.0002111.2304644-.0068882.345-.02.4432595-.0524992.8688904-.2046323 1.245-.445l2.488 1.984-2.489 3.129c-.6877171.8640936-.5449097 2.1220519.319 2.81l5.892 4.69h-3.794c-.5522847 0-1 .4477153-1 1s.4477153 1 1 1h4v4.133l-6.947-2.919c-.6730602-.2850665-1.4329398-.2850665-2.106 0l-6.947 2.919zm-7 9.244.581-.244h28.838l.581.244v10.756h-30z"/><path id="Shape" d="m34 49h-3c-.5522847 0-1 .4477153-1 1s.4477153 1 1 1h3c.5522847 0 1-.4477153 1-1s-.4477153-1-1-1z"/><path id="Shape" d="m27 49h-3c-.5522847 0-1 .4477153-1 1s.4477153 1 1 1h3c.5522847 0 1-.4477153 1-1s-.4477153-1-1-1z"/><path id="Shape" d="m20 49h-3c-.5522847 0-1 .4477153-1 1s.4477153 1 1 1h3c.5522847 0 1-.4477153 1-1s-.4477153-1-1-1z"/><path id="Shape" d="m13 49h-3c-.55228475 0-1 .4477153-1 1s.44771525 1 1 1h3c.5522847 0 1-.4477153 1-1s-.4477153-1-1-1z"/><path id="Shape" d="m34 53h-3c-.5522847 0-1 .4477153-1 1s.4477153 1 1 1h3c.5522847 0 1-.4477153 1-1s-.4477153-1-1-1z"/><path id="Shape" d="m27 53h-3c-.5522847 0-1 .4477153-1 1s.4477153 1 1 1h3c.5522847 0 1-.4477153 1-1s-.4477153-1-1-1z"/><path id="Shape" d="m20 53h-3c-.5522847 0-1 .4477153-1 1s.4477153 1 1 1h3c.5522847 0 1-.4477153 1-1s-.4477153-1-1-1z"/><path id="Shape" d="m13 53h-3c-.55228475 0-1 .4477153-1 1s.44771525 1 1 1h3c.5522847 0 1-.4477153 1-1s-.4477153-1-1-1z"/></g></g></svg>