<svg height="512" viewBox="0 0 60 60" width="512" xmlns="http://www.w3.org/2000/svg"><g id="Page-1" fill="none" fill-rule="evenodd"><g id="017---Silos" fill="rgb(0,0,0)" fill-rule="nonzero"><path id="Shape" d="m59 58h-1v-12.333l.8-1.067c.1091783-.1832263.1774068-.387912.2-.6v-28c-.018787-.3100221-.1632545-.5989571-.4-.8l-7.6-5.7v-7.5h6c.5522847 0 1-.44771525 1-1s-.4477153-1-1-1h-54c-.55228475 0-1 .44771525-1 1s.44771525 1 1 1h6v7.5l-7.6 5.7c-.23419982.2030294-.37809636.4908225-.4.8v28c.02108235.2124134.08941781.4174198.2.6l.8 1.067v12.333h-1c-.55228475 0-1 .4477153-1 1s.44771525 1 1 1h58c.5522847 0 1-.4477153 1-1s-.4477153-1-1-1zm-3 0h-3v-5.667l3-4zm-6-46.75 5 3.75h-10zm-7 29.75h8c.5522847 0 1-.4477153 1-1s-.4477153-1-1-1h-8v-2h8c.5522847 0 1-.4477153 1-1s-.4477153-1-1-1h-8v-2h8c.5522847 0 1-.4477153 1-1s-.4477153-1-1-1h-8v-2h8c.5522847 0 1-.4477153 1-1s-.4477153-1-1-1h-8v-2h8c.5522847 0 1-.4477153 1-1s-.4477153-1-1-1h-8v-2h8c.5522847 0 1-.4477153 1-1s-.4477153-1-1-1h-8v-2h14v2h-2c-.5522847 0-1 .4477153-1 1s.4477153 1 1 1h2v2h-2c-.5522847 0-1 .4477153-1 1s.4477153 1 1 1h2v2h-2c-.5522847 0-1 .4477153-1 1s.4477153 1 1 1h2v2h-2c-.5522847 0-1 .4477153-1 1s.4477153 1 1 1h2v2h-2c-.5522847 0-1 .4477153-1 1s.4477153 1 1 1h2v2h-2c-.5522847 0-1 .4477153-1 1s.4477153 1 1 1h2v2h-14zm4 11.333v5.667h-3v-9.667zm-3-7.333h12l-4.5 6h-3zm5-35.5-7.6 5.7c-.2341998.2030294-.3780964.4908225-.4.8v28c.0210824.2124134.0894178.4174198.2.6l.8 1.067v12.333h-4v-12.333l.8-1.067c.1091783-.1832263.1774068-.387912.2-.6v-28c-.018787-.3100221-.1632545-.5989571-.4-.8l-7.6-5.7v-7.5h18zm-19 1.75 5 3.75h-10zm-7 29.75h8c.5522847 0 1-.4477153 1-1s-.4477153-1-1-1h-8v-2h8c.5522847 0 1-.4477153 1-1s-.4477153-1-1-1h-8v-2h8c.5522847 0 1-.4477153 1-1s-.4477153-1-1-1h-8v-2h8c.5522847 0 1-.4477153 1-1s-.4477153-1-1-1h-8v-2h8c.5522847 0 1-.4477153 1-1s-.4477153-1-1-1h-8v-2h8c.5522847 0 1-.4477153 1-1s-.4477153-1-1-1h-8v-2h14v2h-2c-.5522847 0-1 .4477153-1 1s.4477153 1 1 1h2v2h-2c-.5522847 0-1 .4477153-1 1s.4477153 1 1 1h2v2h-2c-.5522847 0-1 .4477153-1 1s.4477153 1 1 1h2v2h-2c-.5522847 0-1 .4477153-1 1s.4477153 1 1 1h2v2h-2c-.5522847 0-1 .4477153-1 1s.4477153 1 1 1h2v2h-2c-.5522847 0-1 .4477153-1 1s.4477153 1 1 1h2v2h-14zm4 11.333v5.667h-3v-9.667zm-3-7.333h12l-4.5 6h-3zm9 7.333 3-4v9.667h-3zm-4-50.333v7.5l-7.6 5.7c-.2293999.2067188-.3722649.4924489-.4.8v28c.0210824.2124134.0894178.4174198.2.6l.8 1.067v12.333h-4v-12.333l.8-1.067c.1107371-.1825085.1790846-.387551.2-.6v-28c-.025257-.3082496-.1685545-.5948446-.4-.8l-7.6-5.7v-7.5zm-25 43h12l-4.5 6h-3zm6-33.75 5 3.75h-10zm-7 29.75h8c.5522847 0 1-.4477153 1-1s-.4477153-1-1-1h-8v-2h8c.5522847 0 1-.4477153 1-1s-.4477153-1-1-1h-8v-2h8c.5522847 0 1-.4477153 1-1s-.4477153-1-1-1h-8v-2h8c.5522847 0 1-.4477153 1-1s-.4477153-1-1-1h-8v-2h8c.5522847 0 1-.4477153 1-1s-.4477153-1-1-1h-8v-2h8c.5522847 0 1-.4477153 1-1s-.4477153-1-1-1h-8v-2h14v2h-2c-.5522847 0-1 .4477153-1 1s.4477153 1 1 1h2v2h-2c-.5522847 0-1 .4477153-1 1s.4477153 1 1 1h2v2h-2c-.5522847 0-1 .4477153-1 1s.4477153 1 1 1h2v2h-2c-.5522847 0-1 .4477153-1 1s.4477153 1 1 1h2v2h-2c-.5522847 0-1 .4477153-1 1s.4477153 1 1 1h2v2h-2c-.5522847 0-1 .4477153-1 1s.4477153 1 1 1h2v2h-14zm10 11.333 3-4v9.667h-3zm-9-4 3 4v5.667h-3zm5 9.667v-5h2v5zm20 0v-5h2v5zm20 0v-5h2v5z"/></g></g></svg>