<svg height="60" viewBox="0 0 60 60" width="60" xmlns="http://www.w3.org/2000/svg"><g id="Page-1" fill="none" fill-rule="evenodd"><g id="018---Horse" fill="rgb(0,0,0)" fill-rule="nonzero"><path id="Shape" d="m10.37 21.857c.228856.1343082.5017102.1721493.7584792.1051906.256769-.0669588.4763968-.2332265.6105208-.4621906.6446424-1.1489916 1.7239128-1.9907848 2.9952961-2.3362265s2.6282484-.1655595 3.7657039.4992265c.4793832.2744855 1.0905145.1083832 1.365-.371s.1083832-1.0905145-.371-1.365c-1.5952976-.9270707-3.4950044-1.1779313-5.2762658-.6967428s-3.296246 1.654491-4.2077342 3.2587428c-.13373827.2291308-.17094305.5020155-.10342466.7585854.0675184.2565699.23422546.4757937.46342466.6094146z"/><path id="Shape" d="m59 50h-16c0-1.155.117-2.212-1-3.22v-12.24c.0118818-1.0266827.4458883-2.0031973 1.2-2.7 1.8166019-1.8097454 2.8261445-4.275914 2.8-6.84v-3.541l3.42-6.159c5.115 2.453 5.312 2.691 6.53 2.691 1.5111305-.0039742 2.894757-.8476876 3.590236-2.1892688.6954791-1.3415812.5874801-2.958557-.280236-4.1957312-5.466-7.797-5.26-7.368-5.26-7.815v-1.641c-.0044091-1.18948599-.9705064-2.15111058-2.16-2.15-.6258663.03359638-1.2223633.27620939-1.694.689-1.1150592.76438494-2.325329 1.37960541-3.6 1.83-5.4587296 2.59603945-10.1299818 6.59538505-13.536 11.589-.3723017.5515512-.9935579.8829628-1.659.885-9.072 0-8.835.1-9.442-.282-4.2294046-2.7193875-9.773191-2.1759359-13.394 1.313-4.76755368.2648124-8.50169199 4.2011161-8.515 8.976v9c0 1.1045695.8954305 2 2 2h1c0 14.077-.079 13.261.184 14h-2.184c-.55228475 0-1 .4477153-1 1s.44771525 1 1 1h58c.5522847 0 1-.4477153 1-1s-.4477153-1-1-1zm-38.161-33.6c.6494108.3988562 1.3989715.6045431 2.161.593h8.355c1.3277195-.0015533 2.5684569-.6606833 3.313-1.76 3.1951433-4.6890768 7.5777047-8.4460017 12.7-10.887 1.5891538-.57785603 3.0933184-1.366937 4.472-2.346 0 0 .16.006.16.15 0 1.515-.13 2.412.536 3.353.509.76 5.008 7.143 5.087 7.256.5269326.7480757.4963673 1.754287-.075 2.469-.6134682.746075-1.6601323.9710705-2.526.543l-5.436-2.606-2.879-2.88c-.3907415-.3904653-1.0240347-.39024144-1.4145.0005-.3904653.3907415-.3902414 1.0240347.0005 1.4145l2.469 2.47c-3.457 6.222-3.762 6.666-3.762 7.03v3.8c.0286665 2.0202313-.7578906 3.9667978-2.182 5.4-1.1493581 1.0714014-1.8068929 2.5687579-1.818 4.14v11.46h-2v-9.932c-.0342091-2.0133887-1.1058805-3.8663138-2.834-4.9-2.0348596-1.3844516-3.2273154-3.7075935-3.166-6.168 0-.5522847-.4477153-1-1-1s-1 .4477153-1 1c-.0091204 2.1745024.7156257 4.2884922 2.057 6-17.167 0-17.583.156-19.543-.475.320346-.9901904.4843161-2.0242811.486-3.065 0-.5522847-.4477153-1-1-1s-1 .4477153-1 1c.0286665 2.0202313-.7578906 3.9667978-2.182 5.4-1.14935813 1.0714014-1.80689293 2.5687579-1.818 4.14v9h-2c0-10.89-.17-11.158.46-12.467.69-1.433 1.519-4.209 1.54-9.341-.04549732-3.3102137 1.72125222-6.380762 4.6059522-8.0049821 2.8846999-1.6242201 6.4263092-1.5425245 9.2330478.2129821zm10.078 16.6h3.375c1.0367968.6818146 1.6746465 1.827554 1.708 3.068v9.932h-2v-7.93c0-2.406-1.343-3.844-3.083-5.07zm-19.917 6v7h-2v-9c.01317377-1.0274367.44903985-2.0040661 1.205-2.7.5881793-.5745323 1.0930743-1.2285396 1.5-1.943.8119668.2764897 1.652673.4599958 2.506.547-.3458846.7274259-.8159192 1.3889938-1.389 1.955-1.151087 1.070947-1.8101313 2.5688079-1.822 4.141zm-9-14c.00832984-2.9358313 1.84371095-5.5560373 4.6-6.567-1.03837159 1.7392772-1.59092456 3.7253598-1.6 5.751-.03 6.91-1.4 8.075-1.81 9.816h-1.19zm4 25c-.55228475 0-1-.4477153-1-1v-1h2c.55228475 0 1 .4477153 1 1v1zm4 0c.070334-.6722828.0078153-1.3518349-.184-2h1.184c.5522847 0 1 .4477153 1 1v1zm3-3.22v-7.78c.0136462-1.0273329.4494326-2.0037838 1.205-2.7.9445047-.9299875 1.6724365-2.0567111 2.132-3.3h11.706c.5764695.7335123 1.2717607 1.3652573 2.057 1.869 1.1452321.6651808 1.8642087 1.8760887 1.9 3.2 0 11.729-.077 11.2.184 11.93h-18.184c0-1.154.117-2.211-1-3.219zm21 2.22v-1h2c-.0704911.6722818-.0079695 1.3518645.184 2h-1.184c-.5522847 0-1-.4477153-1-1zm5 1c-.5522847 0-1-.4477153-1-1v-1h2c.5522847 0 1 .4477153 1 1v1z"/><path id="Shape" d="m50 54h-40c-.55228475 0-1 .4477153-1 1s.44771525 1 1 1h40c.5522847 0 1-.4477153 1-1s-.4477153-1-1-1z"/><path id="Shape" d="m42 59c0-.5522847-.4477153-1-1-1h-22c-.5522847 0-1 .4477153-1 1s.4477153 1 1 1h22c.5522847 0 1-.4477153 1-1z"/></g></g></svg>