<svg height="512" viewBox="0 0 60 52" width="512" xmlns="http://www.w3.org/2000/svg"><g id="Page-1" fill="none" fill-rule="evenodd"><g id="023---Eggs" fill="rgb(0,0,0)" fill-rule="nonzero"><path id="Shape" d="m58 29h-1.06c1.4079183-2.7879919 2.1149954-5.8771634 2.06-9 0-10.841-6.411-20-14-20s-14 9.159-14 20c-.0549954 3.1228366.6520817 6.2120081 2.06 9h-6.127c1.4033574-2.7898996 2.1124439-5.877359 2.067-9 0-10.841-6.411-20-14-20s-14 9.159-14 20c-.05436342 3.1220792.65051352 6.2106345 2.054 9h-1.054c-1.1045695 0-2 .8954305-2 2v4c0 1.1045695.8954305 2 2 2h1.232l3.01 11.289c.58605036 2.1870066 2.56683412 3.7085733 4.831 3.711h7.854c2.2641659-.0024267 4.2449496-1.5239934 4.831-3.711l3.01-11.289h6.464l3.01 11.289c.5860504 2.1870066 2.5668341 3.7085733 4.831 3.711h7.854c2.2641659-.0024267 4.2449496-1.5239934 4.831-3.711l3.01-11.289h1.232c1.1045695 0 2-.8954305 2-2v-4c0-1.1045695-.8954305-2-2-2zm-25-9c0-9.589 5.607-18 12-18s12 8.411 12 18c.0466594 3.1520975-.7501814 6.259362-2.308 9h-19.384c-1.5578186-2.740638-2.3546594-5.8479025-2.308-9zm-30 0c0-9.589 5.607-18 12-18s12 8.411 12 18c.0492586 3.1535606-.7510596 6.2622634-2.317 9h-19.383c-1.5522685-2.7425316-2.34614023-5.8489862-2.3-9zm18.826 27.773c-.3502356 1.3133615-1.5397416 2.2271352-2.899 2.227h-7.854c-1.3596302.0005884-2.54966871-.9132791-2.9-2.227l-2.873-10.773h1.93l1.67 6.258c.11683968.4375352.513133.7419344.966.742.0874389-.0001078.1744959-.0115361.259-.034.5334562-.1425559.8504065-.6905039.708-1.224l-1.533-5.742h15.4zm30 0c-.3502356 1.3133615-1.5397416 2.2271352-2.899 2.227h-7.854c-1.3596302.0005884-2.5496687-.9132791-2.9-2.227l-2.873-10.773h1.93l1.67 6.258c.1168397.4375352.513133.7419344.966.742.0874389-.0001078.1744959-.0115361.259-.034.5334562-.1425559.8504065-.6905039.708-1.224l-1.533-5.742h15.4zm-49.826-12.773v-4h56v4z"/><path id="Shape" d="m15 4c-5.285 0-9.253 7.217-9.9 13.9-.02789028.2654886.05152738.531108.22056993.7377155.16904255.2066076.41367584.3370505.67943007.3622845h.1c.51356533.0000065.94364347-.389009.995-.9.63-6.56 4.252-12.1 7.905-12.1.5522847 0 1-.44771525 1-1s-.4477153-1-1-1z"/><circle id="Oval" cx="6.24" cy="22" r="1"/><path id="Shape" d="m44.9 4c-5.285 0-9.254 7.217-9.9 13.9-.0278903.2654886.0515274.531108.2205699.7377155.1690426.2066076.4136759.3370505.6794301.3622845h.1c.5131825-.0005068.942682-.3893896.994-.9.626-6.56 4.247-12.1 7.906-12.1.5522847 0 1-.44771525 1-1s-.4477153-1-1-1z"/><circle id="Oval" cx="36.135" cy="22" r="1"/></g></g></svg>