<svg height="512" viewBox="0 0 60 60" width="512" xmlns="http://www.w3.org/2000/svg"><g id="Page-1" fill="none" fill-rule="evenodd"><g id="024---Smart-Tractor" fill="rgb(0,0,0)" fill-rule="nonzero" transform="translate(0 -1)"><path id="Shape" d="m13 31c-4.97056275 0-9 4.0294373-9 9s4.02943725 9 9 9c4.9705627 0 9-4.0294373 9-9-.006061-4.9680501-4.0319499-8.993939-9-9zm0 16c-3.86599325 0-7-3.1340068-7-7s3.13400675-7 7-7c3.8659932 0 7 3.1340068 7 7-.0044086 3.8641657-3.1358343 6.9955914-7 7z"/><path id="Shape" d="m13 37c-1.6568542 0-3 1.3431458-3 3s1.3431458 3 3 3 3-1.3431458 3-3-1.3431458-3-3-3zm0 4c-.5522847 0-1-.4477153-1-1s.4477153-1 1-1 1 .4477153 1 1-.4477153 1-1 1z"/><path id="Shape" d="m60 43c-.0015909-1.5003851-.3435028-2.9808635-1-4.33v-11.67c-.0049599-4.4162219-3.5837781-7.9950401-8-8h-27c0-2.209139-1.790861-4-4-4s-4 1.790861-4 4c-2.209139 0-4 1.790861-4 4v.037c-2.4405531.1403229-4.82132182.8101594-6.977 1.963h-.016l-.007.008c-.53790307.2834395-1.06000616.5959002-1.564.936-.45729177.3114886-.5754886.9347082-.264 1.392s.93470823.5754886 1.392.264c.2-.135.4-.255.6-.379l1.036 1.722c-3.83338653 2.3446124-6.17924257 6.507108-6.19961484 11.0006194s2.28764503 8.6771064 6.09961484 11.0563806h-5.1c-.55228475 0-1 .4477153-1 1s.44771525 1 1 1h11.2l-4.048 6.47c-.29271089.469442-.14944201 1.0872891.32000002 1.38.46944202.2927109 1.08728905.149442 1.37999998-.32l4.702-7.53h8.446c.5522847 0 1-.4477153 1-1s-.4477153-1-1-1h-3.1c3.1861376-2.0008374 5.3499225-5.2831675 5.933-9h2.448c.3538758.6158265 1.0087465.9967868 1.719 1h10c.0030485 3.1526562 1.4952773 6.1185767 4.025 8h-17.025c-.5522847 0-1 .4477153-1 1s.4477153 1 1 1h2v7c0 .5522847.4477153 1 1 1s1-.4477153 1-1v-7h14.446l4.706 7.53c.1893508.3036758.5263272.4832663.8839935.4711216s.6816844-.2141796.85-.53c.1683155-.3158205.1553573-.6974458-.0339935-1.0011216l-4.052-6.47h11.2c.5522847 0 1-.4477153 1-1s-.4477153-1-1-1h-3.025c2.5297227-1.8814233 4.0219515-4.8473438 4.025-8zm-11-13h8v5.871c-2.1126564-2.0860431-5.0462197-3.1201241-8-2.82zm8-3v1h-3v-2c0-.5522847-.4477153-1-1-1s-1 .4477153-1 1v2h-3v-7h2c3.3123376.0033074 5.9966926 2.6876624 6 6zm-37-10c1.1045695 0 2 .8954305 2 2h-4c0-1.1045695.8954305-2 2-2zm-7 34c-6.07513225 0-11-4.9248678-11-11s4.92486775-11 11-11c6.0751322 0 11 4.9248678 11 11-.0071635 6.0721626-4.9278374 10.9928365-11 11zm0-24c-1.7268157-.0013362-3.43641931.3431006-5.028 1.013l-1.033-1.729c4.6381331-2.0539311 10.0003407-1.6230276 14.2509684 1.1451985s6.8130362 7.4982378 6.8100342 12.5708015h-2.0000026c-.008266-7.1762751-5.8237249-12.991734-13-13zm17 14v-1c0-.338-.031-.667-.051-1h3.051c.5522847 0 1-.4477153 1-1s-.4477153-1-1-1h-3.281c-.1164167-.675665-.2740443-1.3435782-.472-2h2.753c.5522847 0 1-.4477153 1-1s-.4477153-1-1-1h-3.526c-.3128582-.6899408-.6716643-1.3581086-1.074-2h2.6c.5522847 0 1-.4477153 1-1s-.4477153-1-1-1h-4.062c-2.9992466-3.530968-7.312941-5.6805884-11.938-5.949v-.051c0-1.1045695.8954305-2 2-2h31v3h-19c-.5522847 0-1 .4477153-1 1s.4477153 1 1 1h19v7.461c-3.4647144 1.0960754-6.065913 3.9799631-6.8 7.539zm12 2c0-4.418278 3.581722-8 8-8s8 3.581722 8 8-3.581722 8-8 8c-4.4162219-.0049599-7.9950401-3.5837781-8-8z"/><path id="Shape" d="m50 37c-3.3137085 0-6 2.6862915-6 6s2.6862915 6 6 6 6-2.6862915 6-6c-.0033074-3.3123376-2.6876624-5.9966926-6-6zm0 10c-2.209139 0-4-1.790861-4-4s1.790861-4 4-4 4 1.790861 4 4-1.790861 4-4 4z"/><circle id="Oval" cx="50" cy="43" r="1"/><path id="Shape" d="m29.781 5.625c.1658359-.20710411.2425711-.47162221.2133128-.73532205-.0292583-.26369983-.1621115-.50496345-.3693128-.67067795-2.7528952-2.12888929-6.1452547-3.26343531-9.625-3.219-3.4801731-.04521455-6.8730987 1.08940291-9.626 3.219-.2815774.22229438-.42250329.57838898-.3693066.9331716.0531967.35478262.292364.6538854.6267553.78382041.3343912.12993502.7127633.07079068.9915513-.15499201 2.3981356-1.84644163 5.3507288-2.82664476 8.377-2.781 3.0261619-.0449345 5.9785273.93519302 8.377 2.781.4309667.34398809 1.0590543.27420057 1.404-.156z"/><path id="Shape" d="m26 10c.424813.0001993.8033866-.26802335.9440546-.6688708.1406679-.40084745.0127245-.84682031-.3190546-1.1121292-1.8944045-1.46654699-4.2294523-2.24865584-6.625-2.219-2.3958893-.02988241-4.731326.75223864-6.626 2.219-.4272994.34605791-.4950446.97217923-.1516534 1.40162454.3433913.42944536.9690788.50108686 1.4006534.16037546 1.5397951-1.18381752 3.4349754-1.81154973 5.377-1.781 1.9420246-.03054973 3.8372049.59718248 5.377 1.781.1768763.14144068.3965258.21865293.623.219z"/><path id="Shape" d="m16.373 12.219c-.4313344.345178-.5011779.9746656-.156 1.406.345178.4313344.9746656.5011779 1.406.156 1.4235421-1.0071422 3.3274579-1.0071422 4.751 0 .4315746.3407114 1.0572621.2690699 1.4006534-.1603755.3433912-.4294453.275646-1.0555666-.1516534-1.4016245-2.1434528-1.6251362-5.1065472-1.6251362-7.25 0z"/></g></g></svg>