<svg height="512" viewBox="0 0 46 60" width="512" xmlns="http://www.w3.org/2000/svg"><g id="Page-1" fill="none" fill-rule="evenodd"><g id="026---Goose" fill="rgb(0,0,0)" fill-rule="nonzero"><path id="Shape" d="m36 10h8.024c.8599721.0037672 1.6224824-.55211175 1.882-1.372.2701296-.81585167-.0305184-1.71209243-.738-2.2l-4.526-3.2c-.486-.466-3.486-3.228-6.642-3.228-3.3123376.00330738-5.9966926 2.68766243-6 6v17.347c.0012232.8954757-.2992705 1.7652516-.853 2.469-2.428 3.062-8.96 10.184-17.147 10.184-2.63301626.0705941-5.25151447-.4124959-7.686-1.418-.52912789-.2387081-1.14502351-.1799215-1.61943976.1545738-.47441625.3344953-.73666566.8948599-.68956024 1.4734262.659 8.515 8.266 15.459 18.128 16.607.8544538.5911334 1.8370826.9708867 2.867 1.108v3.075c0 1.6568542 1.3431458 3 3 3h2c.5522847 0 1-.4477153 1-1s-.4477153-1-1-1h-2c-.5522847 0-1-.4477153-1-1v-3.075c1.2544-.1631524 2.4325004-.69375 3.386-1.525 9.206-2.095 15.614-9.212 15.614-17.4-.0220788-4.0772855-1.5762189-7.9972593-4.354-10.982-1.6675458-1.7984687-2.6101371-4.150672-2.646-6.603v-6.415c0-.5522847.4477153-1 1-1zm4.034-4.761 3.99 2.761h-5.189c-.0575104-1.05781055.3867726-2.08088434 1.199-2.761zm-3.874 20.116c2.4440077 2.6198305 3.8145544 6.0622583 3.84 9.645 0 6.66-4.88 12.53-12.1 14.9.0655021-.2955474.0990282-.5972825.1-.9 0-.5522847-.4477153-1-1-1s-1 .4477153-1 1c0 1.654-1.794 3-4 3s-4-1.346-4-3c0-.5522847-.4477153-1-1-1s-1 .4477153-1 1c.0002588.5050517.0910269 1.0059696.268 1.479-7.649-1.642-13.4-7.142-14.21-13.835 2.05069312.7720134 4.21086981 1.2138371 6.4 1.309 1.017 1.299 4.713 5.047 13.542 5.047 10.679 0 12.954-9.685 12.977-9.783.1203981-.5393061-.2191939-1.0741019-.7585-1.1945s-1.0741019.2191939-1.1945.7585c-1.2779018 4.9957205-5.8713604 8.4203971-11.024 8.219-5.851 0-9.113-1.742-10.751-3.065 8.451-.655 14.978-7.735 17.465-10.876.8330651-1.0579673 1.2860224-2.3654146 1.286-3.712v-17.347c0-2.209139 1.790861-4 4-4 1.652827.18171565 3.2084487.87217127 4.452 1.976-1.0746836 1.0582601-1.6598982 2.51640476-1.615 4.024h-.837c-1.6568542 0-3 1.34314575-3 3v6.415c.0354172 2.9463328 1.1612081 5.7750606 3.16 7.94z"/><path id="Shape" d="m12.921 45.11c-1.7977951-.8986702-3.38310157-2.1706655-4.65-3.731-.34296883-.4338197-.97268033-.5074688-1.4065-.1645s-.50746883.9726803-.1645 1.4065c1.44567703 1.7852808 3.2560809 3.2411046 5.31 4.27.4887846.2310528 1.0727022.031783 1.3182642-.4498757.2455621-.4816586.0638379-1.0712725-.4102642-1.3311243z"/><path id="Shape" d="m30.282 28.3c-1.7478638 2.2030684-3.7294437 4.2101305-5.91 5.986-.2915981.2198894-.4401317.5812558-.387461.9426511s.2981677.6653346.6403972.7928484c.3422295.1275137.7267551.058319 1.0030638-.1804995 2.2955266-1.8687025 4.3814119-3.9810763 6.221-6.3.3205841-.4337085.2394823-1.0435056-.1833173-1.3783456-.4227995-.33484-1.0349578-.2740766-1.3836827.1373456z"/><path id="Shape" d="m30.453 44.306c-.3049447.1928666-.4823439.5350524-.4642085.8954132.0181355.3603608.2289929.6830074.5517602.8442838.3227672.1612765.7073856.1361701 1.0064483-.065697 3.1932519-1.9567056 5.4490296-5.1324939 6.245-8.792.1038295-.5426198-.2518802-1.0666705-.7945-1.1705s-1.0666705.2518802-1.1705.7945c-.6955022 3.1258464-2.636468 5.8325076-5.374 7.494z"/><circle id="Oval" cx="34" cy="5" r="1"/></g></g></svg>