<svg height="512" viewBox="0 0 60 60" width="512" xmlns="http://www.w3.org/2000/svg"><g id="Page-1" fill="none" fill-rule="evenodd"><g id="028---Wireless-Farm-House" fill="rgb(0,0,0)" fill-rule="nonzero" transform="translate(0 -1)"><path id="Shape" d="m28 41h-14c-.5522847 0-1 .4477153-1 1s.4477153 1 1 1h14c.5522847 0 1-.4477153 1-1s-.4477153-1-1-1z"/><path id="Shape" d="m3 59h-2c-.55228475 0-1 .4477153-1 1s.44771525 1 1 1h40c.5522847 0 1-.4477153 1-1s-.4477153-1-1-1h-2v-21.336c.7897184-.0020838 1.5470505-.3141377 2.109-.869 1.0234636-1.002931 1.1822179-2.5946846.377-3.78l-6.674-9.845c-.2429532-.3572004-.5601847-.6577176-.93-.881l-11.329-6.855c-.9541229-.5799306-2.1518771-.5799306-3.106 0l-11.328 6.854c-.37059178.223832-.68849867.5250249-.932.883l-6.672 9.844c-.80600099 1.1844286-.64805791 2.7760736.375 3.779.56415434.5500722 1.32207069.8561123 2.11.852zm9 0v-12h2v12zm4 0v-12h10v12zm12 0v-12h2v12zm4 0v-12c0-1.1045695-.8954305-2-2-2h-18c-1.1045695 0-2 .8954305-2 2v12h-5v-3h2c.55228475 0 1-.4477153 1-1s-.44771525-1-1-1h-2v-2h2c.55228475 0 1-.4477153 1-1s-.44771525-1-1-1h-2v-2h2c.55228475 0 1-.4477153 1-1s-.44771525-1-1-1h-2v-3h5c.5522847 0 1-.4477153 1-1s-.4477153-1-1-1h-5v-3h5c.5522847 0 1-.4477153 1-1s-.4477153-1-1-1h-4.257l1.957-3h2.3c.5522847 0 1-.4477153 1-1s-.4477153-1-1-1h-1l1.769-2.714c.0777032-.1200547.1799453-.2222968.3-.3l9.389-5.98c.3276257-.208557.7463743-.208557 1.074 0l9.39 5.981c.1203063.0773916.2226084.1796937.3.3l1.778 2.713h-1c-.5522847 0-1 .4477153-1 1s.4477153 1 1 1h2.3l1.956 3h-4.256c-.5522847 0-1 .4477153-1 1s.4477153 1 1 1h5v3h-5c-.5522847 0-1 .4477153-1 1s.4477153 1 1 1h5v3h-2c-.5522847 0-1 .4477153-1 1s.4477153 1 1 1h2v2h-2c-.5522847 0-1 .4477153-1 1s.4477153 1 1 1h2v2h-2c-.5522847 0-1 .4477153-1 1s.4477153 1 1 1h2v3zm-29.83-24.863 6.673-9.837c.08007535-.1215297.18591092-.2239512.31-.3l11.329-6.855c.318416-.1928258.717584-.1928258 1.036 0l11.33 6.855c.1224793.0744637.227519.1743879.308.293l6.675 9.845c.2620074.3861055.2102232.9043692-.123 1.231-.221796.2146583-.5268735.3207405-.834.29-.3082911-.0327418-.5853407-.2028665-.754-.463l-5.219-8c-.2327109-.35777-.5396523-.661301-.9-.89l-9.389-5.98c-.9833789-.6239456-2.2386211-.6239456-3.222 0l-9.39 5.974c-.36056215.2296884-.66750336.5342423-.9.893l-5.218 8c-.16865925.2601335-.44570894.4302582-.754.463-.30768161.0313406-.61344149-.0752176-.835-.291-.33159945-.3261932-.3833161-.8425188-.123-1.228z"/><path id="Shape" d="m28.127 28.876-6-4.1c-.3292749-.2257358-.7187809-.3473258-1.118-.349h-.009-.009c-.3992191.0016742-.7887251.1232642-1.118.349l-6 4.1c-.5461523.3725346-.8729233.9908916-.873 1.652v6.472c0 1.1045695.8954305 2 2 2h12c1.1045695 0 2-.8954305 2-2v-6.472c-.0000767-.6611084-.3268477-1.2794654-.873-1.652zm-1.127 1.652v1.472h-5v-4.884zm-7-3.412v4.884h-5v-1.472zm-5 6.884h5v3h-5zm7 3v-3h5v3z"/><path id="Shape" d="m19 52c-.5522847 0-1 .4477153-1 1v1c0 .5522847.4477153 1 1 1s1-.4477153 1-1v-1c0-.5522847-.4477153-1-1-1z"/><path id="Shape" d="m59 19.81h.078c.2653384-.0199059.5118025-.1447392.6848441-.3468712.1730415-.202132.25839-.4648934.2371559-.7301288-.4081341-4.5665573-2.4346385-8.83697013-5.714-12.041-3.2185295-3.27217214-7.4978433-5.29022138-12.07-5.692-.5522847-.04224977-1.0342502.37121526-1.0765.9235-.0422498.55228475.3712153 1.03425021.9235 1.0765 4.0962794.36466119 7.9286848 2.1766338 10.81 5.111 2.9386425 2.8661854 4.756873 6.6877675 5.127 10.776.040312.5220085.4764396.9245542 1 .923z"/><path id="Shape" d="m51.872 19.921c.0087375.5460263.4539038.9840699 1 .984h.017c.5519221-.0093121.9919106-.4640713.983-1.016-.1285486-7.0836336-5.8403564-12.79499949-12.924-12.923-.5472075.00337006-.9946637.43716017-1.015.984-.0042776.26522635.0969984.52128553.2815414.71182996.1845431.19054444.4372312.29996036.7024586.30417004 6.0035401.11137789 10.8436221 4.9514599 10.955 10.955z"/><path id="Shape" d="m45.85 19.917c.0065716.5475928.4523678.9880394 1 .988h.011c.2652216-.0029014.518426-.1110511.7039029-.3006539s.2880306-.4451249.2850971-.7103461c-.0490946-3.7925743-3.1133845-6.8542019-6.906-6.9-.2667296-.0081706-.5252775.0926725-.7160363.2792803-.1907589.1866079-.297265.4428749-.2949637.7097197-.0061107.5519122.4360933 1.0044105.988 1.011 2.7083001.0323735 4.896077 2.2197065 4.929 4.928z"/><path id="Shape" d="m40 24c1.6568542 0 3-1.3431458 3-3s-1.3431458-3-3-3-3 1.3431458-3 3 1.3431458 3 3 3zm0-4c.5522847 0 1 .4477153 1 1s-.4477153 1-1 1-1-.4477153-1-1 .4477153-1 1-1z"/></g></g></svg>