<svg height="512" viewBox="0 0 60 60" width="512" xmlns="http://www.w3.org/2000/svg"><g id="Page-1" fill="none" fill-rule="evenodd"><g id="030---Axe" fill="rgb(0,0,0)" fill-rule="nonzero"><path id="Shape" d="m32.412 1.44-.875 1.437c-.4943834-.16948569-1.0252315-.20298748-1.537-.097-.256706.07780885-.5331259.05786102-.776-.056l-3.289-1.995c-1.557552-.94512698-3.5860883-.45341477-4.538 1.1l-2.378 3.92c-.9456549 1.55523606-.453495 3.58248761 1.1 4.531l3.235 1.969c.2099665.1258823.3648938.3261455.434.561.141951.5434577.4232104 1.040487.816 1.442l-24.167 39.692c-.85787768 1.4151812-.40774751 3.2577617 1.006 4.118l2.48 1.5c1.41541441.8576472 3.25777819.4107969 4.123-1l24.176-39.7c.2949801.1029074.6046157.1576086.917.162.2317781.0033977.4630244-.0231553.688-.079.2485846-.0618838.5117835-.0133998.722.133 1.347.962 8.211 6.176 11.045 14.392.2086906.6400071.8048293 1.0735992 1.478 1.075.240602.000626.4778659-.0562899.692-.166 3.5776764-2.055808 6.6253895-4.9192886 8.9-8.362 2.0091117-3.5926554 3.1514464-7.6048664 3.336-11.717v-.009c-.012957-.4502448-.2183088-.8733333-.564026-1.1620682-.3457171-.288735-.798626-.4154108-1.243974-.3479318-7.829 1.166-15.045-1.941-17.8-3.339-.2223134-.11607469-.382712-.32360637-.439-.568-.1297808-.52969278-.4071899-1.01169097-.8-1.39l.867-1.423c.4139367-.67933086.5405024-1.49546767.3517598-2.26826145-.1887425-.77279378-.6772743-1.43870284-1.3577598-1.85073855l-2.48-1.5c-1.4145897-.85791179-3.2564966-.41195764-4.122.998zm-26.074 56.08c-.13796054.2275682-.36093851.3907598-.61957087.4534471-.25863236.0626874-.53158417.0196995-.75842913-.1194471l-2.48-1.5c-.22647749-.1364225-.38912525-.3576095-.45183508-.6144569-.06270984-.2568475-.02029256-.5281015.11783508-.7535431l24.13-39.626 4.19 2.54zm48.616-32.546c-1.9862457 2.977809-4.591929 5.4917357-7.639 7.37-.293-.8-.63-1.56-.984-2.3 2.5459924-1.6768239 4.7219528-3.8568681 6.394-6.406 1.4972994-2.6537643 2.4339607-5.586617 2.752-8.617.825-.027 1.661-.084 2.509-.194-.267966 3.5612465-1.30223 7.0225516-3.032 10.147zm-1.485-9.958c-.3086992 2.6639474-1.1424356 5.240271-2.453 7.58-1.4800675 2.2394046-3.3887433 4.1637142-5.616 5.662-2.4623253-4.2273914-5.7633106-7.9064587-9.7-10.811-.4856152-.3444298-1.0666419-.5286664-1.662-.527-.2406243.0003183-.4803399.0295274-.714.087-.2243749.0352581-.454136-.002977-.655-.109l-6.559-3.975c-.2081183-.1658116-.3500101-.4006425-.4-.662-.2087619-.7188552-.6803313-1.3328593-1.321-1.72l-3.237-1.97c-.6065989-.37451128-.7984237-1.16768462-.43-1.778l2.378-3.919c.1807674-.2966363.4720302-.50925597.809643-.5910333.3376129-.08177733.6938861-.02600529.990357.1550333l3.3 2c.6744896.37888459 1.468116.48617973 2.219.3.2408153-.05218533.4924969-.00688264.7.126l3.636 2.2 2.545 1.545c.007 0 .015.005.023.01l.294.178c.2014176.12257524.3454463.3206147.4.55.191272.8159782.7343792 1.505208 1.483 1.882 4.3401554 2.2256051 9.0990224 3.5157353 13.969 3.787zm-19.348-12.537c.1381293-.22767772.361366-.39085655.6202277-.4533663.2588617-.06250974.5319644-.01918664.7587723.1203663l2.48 1.5c.2262272.13663149.3887289.35773025.4515906.61443104.0628616.25670079.0209073.52786737-.1165906.75356896l-.83 1.363-1.909-1.15-2.285-1.385z"/><path id="Shape" d="m41.635 17.117c2.4198182 1.1146534 4.9989104 1.8444515 7.644 2.163.0483463.0071053.0971348.0107812.146.011.5252219.001022.9617289-.4044516.999374-.9283236.0376451-.5238721-.3364024-.9875916-.856374-1.0616764-2.4341976-.2893493-4.80877-.954594-7.039-1.972-.3209465-.1730717-.7106556-.1577303-1.0170036.0400355-.306348.1977659-.4807663.5466024-.4551702.9103403s.2471486.6847101.5781738.8376242z"/><path id="Shape" d="m30.143 7.09c-.2265901-.13819184-.4988214-.18063906-.756727-.11799144-.2579057.06264763-.4803283.2252508-.618273.45199144l-1.387 2.276c-.1857781.3052834-.1945774.6864884-.0230832 1.0000187s.4972277.5117532.8545.52.6918051-.1747353.8775832-.4800187l1.387-2.277c.2864229-.47145088.1369755-1.08579607-.334-1.373z"/><path id="Shape" d="m36.042 10.667c-.2264688-.1382796-.498611-.1808811-.7565035-.1184243-.2578924.0624569-.4803884.2248508-.6184965.4514243l-1.387 2.277c-.287188.4719273-.1374273 1.0873119.3345 1.3744999.4719273.2871881 1.0873119.1374274 1.3745-.3344999l1.387-2.276c.2871042-.4716642.1375827-1.0867619-.334-1.374z"/></g></g></svg>