<svg height="512" viewBox="0 0 60 60" width="512" xmlns="http://www.w3.org/2000/svg"><g id="Page-1" fill="none" fill-rule="evenodd"><g id="033---Boundaries" fill="rgb(0,0,0)" fill-rule="nonzero"><circle id="Oval" cx="23" cy="13" r="1"/><circle id="Oval" cx="23" cy="33" r="1"/><circle id="Oval" cx="23" cy="53" r="1"/><circle id="Oval" cx="9" cy="13" r="1"/><circle id="Oval" cx="9" cy="33" r="1"/><circle id="Oval" cx="9" cy="53" r="1"/><circle id="Oval" cx="37" cy="13" r="1"/><circle id="Oval" cx="37" cy="33" r="1"/><circle id="Oval" cx="37" cy="53" r="1"/><circle id="Oval" cx="51" cy="13" r="1"/><circle id="Oval" cx="51" cy="33" r="1"/><circle id="Oval" cx="51" cy="53" r="1"/><path id="Shape" d="m58 10h-2v-2.219c-.0009316-.6948575-.1825411-1.37753013-.527-1.981l-2.737-4.792c-.356217-.6226715-1.0186365-1.00687161-1.736-1.00687161s-1.379783.38420011-1.736 1.00687161l-2.737 4.792c-.3444589.60346987-.5260684 1.2861425-.527 1.981v2.219h-4v-2.219c-.0010691-.69483942-.1826694-1.37747749-.527-1.981l-2.737-4.792c-.356217-.6226715-1.0186365-1.00687161-1.736-1.00687161s-1.379783.38420011-1.736 1.00687161l-2.737 4.792c-.3444589.60346987-.5260684 1.2861425-.527 1.981v2.219h-4v-2.219c-.0009316-.6948575-.1825411-1.37753013-.527-1.981l-2.737-4.792c-.356217-.6226715-1.0186365-1.00687161-1.736-1.00687161s-1.379783.38420011-1.736 1.00687161l-2.737 4.792c-.3444589.60346987-.5260684 1.2861425-.527 1.981v2.219h-4v-2.219c-.0009316-.6948575-.1825411-1.37753013-.527-1.981l-2.737-4.792c-.356217-.6226715-1.01863652-1.00687161-1.736-1.00687161s-1.37978298.38420011-1.736 1.00687161l-2.737 4.792c-.34445889.60346987-.52606842 1.2861425-.527 1.981v2.219h-2c-1.1045695 0-2 .8954305-2 2v2c0 1.1045695.8954305 2 2 2h2v14h-2c-1.1045695 0-2 .8954305-2 2v2c0 1.1045695.8954305 2 2 2h2v14h-2c-1.1045695 0-2 .8954305-2 2v2c0 1.1045695.8954305 2 2 2h2v2h-3c-.55228475 0-1 .4477153-1 1s.44771525 1 1 1h58c.5522847 0 1-.4477153 1-1s-.4477153-1-1-1h-3v-2h2c1.1045695 0 2-.8954305 2-2v-2c0-1.1045695-.8954305-2-2-2h-2v-14h2c1.1045695 0 2-.8954305 2-2v-2c0-1.1045695-.8954305-2-2-2h-2v-14h2c1.1045695 0 2-.8954305 2-2v-2c0-1.1045695-.8954305-2-2-2zm-16 24v-2h4v2zm4 2v14h-4v-14zm-4 16h4v2h-4zm4-22h-4v-14h4zm-4 26h4v2h-4zm4-44v2h-4v-2zm-18 22v-2h4v2zm4 2v14h-4v-14zm-4 16h4v2h-4zm4-22h-4v-14h4zm-4 26h4v2h-4zm4-44v2h-4v-2zm-18 22v-2h4v2zm4 2v14h-4v-14zm-4 16h4v2h-4zm4-22h-4v-14h4zm-4 26h4v2h-4zm4-44v2h-4v-2zm-16 2v-2h2v2zm0 20v-2h2v2zm0 20v-2h2v2zm4 4v-50.219c.00019644-.34800345.09119382-.68993301.264-.992l2.736-4.789 2.736 4.789c.1728062.30206699.2638036.64399655.264.992v50.219zm14 0v-50.219c.0001964-.34800345.0911938-.68993301.264-.992l2.736-4.789 2.736 4.789c.1728062.30206699.2638036.64399655.264.992v50.219zm14 0v-50.219c.0001964-.34800345.0911938-.68993301.264-.992l2.736-4.789 2.736 4.788c.1729744.30236128.2639776.64465751.264.993v50.219zm14 0v-50.219c.0001964-.34800345.0911938-.68993301.264-.992l2.736-4.789 2.736 4.789c.1728062.30206699.2638036.64399655.264.992v50.219zm10-6v2h-2v-2zm0-20v2h-2v-2zm0-18h-2v-2h2z"/></g></g></svg>