<svg height="61" viewBox="0 0 61 61" width="61" xmlns="http://www.w3.org/2000/svg"><g id="Page-1" fill="none" fill-rule="evenodd"><g id="034---Farm-Hoe" fill="rgb(0,0,0)" fill-rule="nonzero"><path id="Shape" d="m2 61h24c1.1045695 0 2-.8954305 2-2v-11c-.0249664-2.751016-2.248984-4.9750336-5-5h-8v-3.04c.0004927-.303077.13841-.589577.375-.779l2.405-1.925c1.4656463 1.1547378 3.5369301 1.1356093 4.981-.046l35.764-29.11c1.1572806-.88627246 1.7408234-2.33191922 1.5230823-3.7732263-.2177412-1.44130709-1.2022893-2.65005923-2.5697307-3.15491688-1.3674415-.50485766-2.9012568-.22588212-4.0033516.72814318l-35.765 29.106c-1.3875163 1.1175229-1.8549375 3.0257157-1.141 4.658l-2.447 1.958c-.7089195.5690823-1.1215547 1.4289228-1.122 2.338v3.04h-8c-2.76005315.0033061-4.99669388 2.2399468-5 5v11c0 1.1045695.8954305 2 2 2zm52.737-57.551c.5510474-.47701265 1.3179551-.61650042 2.0016758-.36407159.6837207.25242882 1.1759948.8568049 1.2848653 1.57745844.1088706.72065354-.1829008 1.44347692-.7615411 1.88661315l-28.85 23.484-2.532-3.1zm-35.764 29.108 5.356-4.357 2.531 3.1-5.36 4.36c-.858418.6573965-2.083885.5135359-2.7667163-.3247916s-.5757674-2.0675559.2417163-2.7752084zm7.027 15.443v7h-2c-.5522847 0-1 .4477153-1 1s.4477153 1 1 1h2v2h-24v-2h18c.5522847 0 1-.4477153 1-1s-.4477153-1-1-1h-5.586l1.293-1.293c.3789722-.3923789.3735524-1.0160848-.0121814-1.4018186s-1.0094397-.3911536-1.4018186-.0121814l-2.707 2.707h-5.172l10-10h5.172l-4.293 4.293c-.3789722.3923789-.3735524 1.0160848.0121814 1.4018186s1.0094397.3911536 1.4018186.0121814l5.467-5.467c1.1069476.4707263 1.8257005 1.5571217 1.826 2.76zm-21-3h8.586l-10 10h-1.586v-7c0-1.6568542 1.34314575-3 3-3z"/></g></g></svg>