<svg height="512" viewBox="0 0 44 60" width="512" xmlns="http://www.w3.org/2000/svg"><g id="Page-1" fill="none" fill-rule="evenodd"><g id="035---Beehive" fill="rgb(0,0,0)" fill-rule="nonzero"><path id="Shape" d="m0 20v2c0 1.1045695.8954305 2 2 2v34c0 1.1045695.8954305 2 2 2h3.382c.75701866.0034625 1.45043824-.4228994 1.789-1.1l1.447-2.9h22.764l1.447 2.9c.3385618.6771006 1.0319813 1.1034625 1.789 1.1h3.382c1.1045695 0 2-.8954305 2-2v-34c1.1045695 0 2-.8954305 2-2v-2c0-1.1045695-.8954305-2-2-2h-40c-1.1045695 0-2 .8954305-2 2zm10 34h-6v-6h36v6zm-6-14h36v6h-36zm36-2h-36v-6h36zm-32.618 20h-3.382v-2h4.382zm32.618 0h-3.382l-1-2h4.382zm0-28h-36v-6h36zm2-8h-40v-2h40z"/><circle id="Oval" cx="7" cy="27" r="1"/><circle id="Oval" cx="37" cy="27" r="1"/><path id="Shape" d="m16 28h12c.5522847 0 1-.4477153 1-1s-.4477153-1-1-1h-12c-.5522847 0-1 .4477153-1 1s.4477153 1 1 1z"/><circle id="Oval" cx="7" cy="35" r="1"/><circle id="Oval" cx="37" cy="35" r="1"/><path id="Shape" d="m16 36h12c.5522847 0 1-.4477153 1-1s-.4477153-1-1-1h-12c-.5522847 0-1 .4477153-1 1s.4477153 1 1 1z"/><circle id="Oval" cx="7" cy="43" r="1"/><circle id="Oval" cx="37" cy="43" r="1"/><path id="Shape" d="m28 42h-12c-.5522847 0-1 .4477153-1 1s.4477153 1 1 1h12c.5522847 0 1-.4477153 1-1s-.4477153-1-1-1z"/><circle id="Oval" cx="7" cy="51" r="1"/><circle id="Oval" cx="37" cy="51" r="1"/><path id="Shape" d="m28 50h-12c-.5522847 0-1 .4477153-1 1s.4477153 1 1 1h12c.5522847 0 1-.4477153 1-1s-.4477153-1-1-1z"/><path id="Shape" d="m19.427 5.121c1.1711458-1.17149955 1.1711458-3.07050045 0-4.242-1.1869844-1.13410253-3.0560156-1.13410253-4.243 0-.079853.08661796-.1546438.17776931-.224.273-1.2927982-.62063814-2.6982376-.97208303-4.131-1.033-2.345 0-4.2 1.569-4.218 3.586.04472316 1.26985583.77111034 2.41678295 1.9 3-.68452895 1.20475986-.78317074 2.65567761-.268 3.942l-.649.649c-.25995658.2510745-.3642126.6228779-.27269716.9725073.09151544.3496295.3645604.6226744.71418984.7141899.34962943.0915154.72143285-.0127406.97250732-.2726972l.647-.647c.4804537.2307333 1.0070198.3493816 1.54.347.8378977-.0219584 1.6600165-.2328721 2.405-.617.5864073 1.1306031 1.7370964 1.8569516 3.01 1.9 2-.02 3.572-1.872 3.572-4.217-.0608062-1.43277844-.4122566-2.83823974-1.033-4.131.0950363-.06960719.1861738-.1443867.273-.224zm-2.827-2.828c.2525868-.25276541.6208353-.35157685.96603-.25921299.3451946.09236386.6148921.36187074.7075.70700001s-.0059432.71344758-.25853.96621298c-.395481.37816251-1.018519.37816251-1.414 0-.3903819-.39049985-.3903819-1.02350015 0-1.414zm-5.769-.174c1.2140417.06886066 2.4003418.39038443 3.483.944.0062318.3778326.0839331.75107035.229 1.1-1.1383736.63699517-2.4000315 1.02265331-3.7 1.131-1.2.039-2.223-.726-2.228-1.585.005-.876 1-1.59 2.214-1.59zm-.594 7.952c-.522-.522-.41-1.67.232-2.8.113.007.222.029.337.029h.041c.916528-.04037067 1.8220212-.21627965 2.687-.522-.3107935.8742954-.4868061 1.79077486-.522 2.718 0 .119.022.231.03.347-1.142.637-2.286.749-2.807.228zm6.375 1.623c-.867 0-1.6-1.013-1.6-2.213.1045691-1.30587712.4907566-2.57360924 1.132-3.716.3489225.14509006.7221647.2227923 1.1.229.5543491 1.08243245.876237 2.26881938.945 3.483-.002 1.214-.716 2.209-1.579 2.217z"/><path id="Shape" d="m37 5.69c-.02-2-1.873-3.571-4.217-3.571-1.4331541.060422-2.8390184.41188807-4.132 1.033-.0684923-.09589563-.1433262-.18709946-.224-.273-1.1869844-1.13410253-3.0560156-1.13410253-4.243 0-1.1711458 1.17149955-1.1711458 3.07050045 0 4.242.0865626.08022732.1777164.15535408.273.225-.6203713 1.29284324-.9714793 2.6982957-1.032 4.131 0 2.345 1.568 4.2 3.585 4.217 1.2699853-.0443043 2.4171063-.7708142 3-1.9.7437007.3826669 1.5639351.5931937 2.4.616.5329802.0023816 1.0595463-.1162667 1.54-.347l.648.647c.3923789.3789722 1.0160848.3735524 1.4018186-.0121814s.3911536-1.0094397.0121814-1.4018186l-.65-.649c.518762-1.28684.4223007-2.74001872-.262-3.947 1.1307513-.586246 1.857161-1.73703196 1.9-3.01zm-2 0c0 .873-1.008 1.6-2.238 1.6-1.2968422-.10982238-2.5552587-.49542765-3.691-1.131.1452134-.34884573.2225946-.72217589.228-1.1 1.0830588-.55350172 2.2696601-.87501482 3.484-.944 1.217.004 2.208.718 2.217 1.585zm-9.4-1.4c.2510745-.25995658.6228779-.3642126.9725073-.27269716.3496295.09151544.6226744.3645604.7141899.71418984.0915154.34962943-.0127406.72143285-.2726972.97250732-.395481.37816251-1.018519.37816251-1.414 0-.3903819-.39049985-.3903819-1.02350015 0-1.414zm1.417 9.4c-.877-.008-1.59-1-1.59-2.217.0688607-1.2140417.3903844-2.40034179.944-3.483.3778487-.00608706.7511133-.08379397 1.1-.229.6419491 1.14692895 1.0271595 2.4195904 1.129 3.73 0 1.19-.732 2.199-1.585 2.203zm6.362-1.623c-.522.522-1.67.409-2.806-.233.008-.113.03-.221.03-.337-.0347225-.9306236-.2110808-1.85051933-.523-2.728.8619991.30526197 1.7644573.48117055 2.678.522h.042c.118 0 .23-.022.346-.03.64 1.139.754 2.288.231 2.81z"/></g></g></svg>