<svg height="512" viewBox="0 0 60 60" width="512" xmlns="http://www.w3.org/2000/svg"><g id="Page-1" fill="none" fill-rule="evenodd"><g id="036---Rake" fill="rgb(0,0,0)" fill-rule="nonzero" transform="translate(-1)"><path id="Shape" d="m57.574.586c-.7950672-.75669863-2.0439328-.75669863-2.839 0l-10.407 10.414c-.5249622.5012287-.7273504 1.2529563-.525 1.95l-25.534 25.538c-.858801.8595996-1.1142703 2.1523454-.647 3.274-.84.433-2.4.752-4.306-1.152l-2.829-2.829c-.75019204-.750496-1.76785327-1.1721459-2.829-1.1721459s-2.07880796.4216499-2.829 1.1721459l-.707.707-2.829 2.829c-.25995658.2510745-.3642126.6228779-.27269716.9725073.09151544.3496295.3645604.6226744.71418984.7141899.34962943.0915154.72143285-.0127406.97250732-.2726972l2.122-2.122 1.415 1.415-2.122 2.122c-.25276541.2525868-.35157685.6208353-.25921299.96603.09236386.3451946.36187074.6148921.70700001.7075s.71344758-.0059432.96621298-.25853l2.122-2.123 1.416 1.416-2.123 2.122c-.25995658.2510745-.3642126.6228779-.27269716.9725073.09151544.3496295.3645604.6226744.71418984.7141899.34962943.0915154.72143285-.0127406.97250732-.2726972l2.123-2.122 1.412 1.415-2.119 2.122c-.39046532.391846-.38934603 1.0260347.0025 1.4165.391846.3904653 1.0260347.389346 1.4165-.0025l2.117-2.119 1.415 1.415-2.122 2.119c-.2599566.2510745-.3642126.6228779-.2726972.9725073.0915155.3496295.3645604.6226744.7141899.7141899.3496294.0915154.7214328-.0127406.9725073-.2726972l2.122-2.121 1.415 1.415-2.122 2.122c-.3904653.3907415-.3902414 1.0240347.0005 1.4145.3907415.3904653 1.0240347.3902414 1.4145-.0005l2.121-2.122 1.416 1.415-2.122 2.122c-.2599566.2510745-.3642126.6228779-.2726972.9725073.0915155.3496295.3645604.6226744.7141899.7141899.3496294.0915154.7214328-.0127406.9725073-.2726972l2.829-2.829.707-.707c.750496-.750192 1.1721459-1.7678533 1.1721459-2.829s-.4216499-2.078808-1.1721459-2.829l-2.829-2.83c-1.906-1.906-1.585-3.468-1.154-4.306 1.1218144.4686799 2.4155789.2139552 3.276-.645l25.534-25.532c.169412.0491137.3446323.0753463.521.078.534255.0025305 1.0466735-.2118192 1.42-.594l10.426-10.418c.7825773-.78454382.7825773-2.05445618 0-2.839zm-38.598 48.514 2.829 2.83c.375248.375096.5860729.8839266.5860729 1.4145s-.2108249 1.039404-.5860729 1.4145l-2.122-2.122-2.828-2.828-2.828-2.828-2.827-2.832-4.957-4.949c.37513651-.3755541.8841815-.5865733 1.415-.5865733s1.03986349.2110192 1.415.5865733l2.827 2.824c1.2480843 1.4590833 3.1286571 2.218775 5.04 2.036-.1836382 1.9114682.5762086 3.7924251 2.036 5.04zm2.122-7.78c-.1875683.187777-.4420908.2932867-.7075.2932867s-.5199317-.1055097-.7075-.2932867c-.187777-.1875683-.2932867-.4420908-.2932867-.7075s.1055097-.5199317.2932867-.7075l4.4-4.4 1.417 1.41zm5.817-5.82-1.415-1.415 19.521-19.521 1.415 1.415zm32.085-30.649-10.437 10.416-2.83-2.841 10.427-10.426 2.84 2.84z"/></g></g></svg>