<svg height="512" viewBox="0 0 60 60" width="512" xmlns="http://www.w3.org/2000/svg"><g id="Page-1" fill="none" fill-rule="evenodd"><g id="037---Sprinkler" fill="rgb(0,0,0)" fill-rule="nonzero" transform="translate(-1 -1)"><path id="Shape" d="m60 51h-.432c.6508132-.7088214 1.1199016-1.5649849 1.367-2.495.1573814-.5954277.027543-1.2301932-.351-1.716-.3835272-.4994955-.9782512-.7913097-1.608-.789h-.884c-1.5109397-.0011782-2.9687471.5574342-4.092 1.568v-3.568h1.037c2.7591581.0151091 5.1820864-1.8308337 5.9-4.495.1573814-.5954277.027543-1.2301932-.351-1.716-.3839538-.5000564-.9795491-.7919351-1.61-.789h-.884c-1.5109397-.0011782-2.9687471.5574342-4.092 1.568v-5.568c0-.5522847-.4477153-1-1-1s-1 .4477153-1 1v5.568c-1.1232529-1.0105658-2.5810603-1.5691782-4.092-1.568h-.884c-.6297488-.0023097-1.2244728.2895045-1.608.789-.378714.486115-.5085539 1.1212577-.351 1.717.7181033 2.6630467 3.1398693 4.508319 5.898 4.494h1.037v3.568c-1.1232529-1.0105658-2.5810603-1.5691782-4.092-1.568h-.884c-.6297488-.0023097-1.2244728.2895045-1.608.789-.378714.486115-.5085539 1.1212577-.351 1.717.2473593.9296146.7164252 1.785394 1.367 2.494h-12.432v-19.764l1.684-3.367c.2074549-.4166075.3156137-.8755978.316-1.341v-6.528c1.6568542 0 3-1.3431458 3-3s-1.3431458-3-3-3h-10c-1.6568542 0-3 1.3431458-3 3s1.3431458 3 3 3v6.528c.0005215.4657063.108669.924991.316 1.342l1.684 3.366v19.764h-12.432c.6508132-.7088214 1.1199016-1.5649849 1.367-2.495.1573814-.5954277.027543-1.2301932-.351-1.716-.3835272-.4994955-.9782512-.7913097-1.608-.789h-.884c-1.5109397-.0011782-2.9687471.5574342-4.092 1.568v-3.568h1.037c2.7591581.0151091 5.1820864-1.8308337 5.9-4.495.1573814-.5954277.027543-1.2301932-.351-1.716-.3839538-.5000564-.9795491-.7919351-1.61-.789h-.884c-1.5109397-.0011782-2.9687471.5574342-4.092 1.568v-5.568c0-.5522847-.44771525-1-1-1s-1 .4477153-1 1v5.568c-1.12325291-1.0105658-2.58106026-1.5691782-4.092-1.568h-.884c-.6297488-.0023097-1.22447278.2895045-1.608.789-.37871404.486115-.50855394 1.1212577-.351 1.717.71810332 2.6630467 3.13986929 4.508319 5.898 4.494h1.037v3.568c-1.12325291-1.0105658-2.58106026-1.5691782-4.092-1.568h-.884c-.6297488-.0023097-1.22447278.2895045-1.608.789-.37871404.486115-.50855394 1.1212577-.351 1.717.2473593.9296146.71642524 1.785394 1.367 2.494h-.432c-.55228475 0-1 .4477153-1 1s.44771525 1 1 1h16.2l-4.044 6.47c-.2927109.469442-.149442 1.0872891.32 1.38s1.0872891.149442 1.38-.32l4.698-7.53h20.892l4.706 7.53c.1893508.3036758.5263272.4832663.8839935.4711216s.6816844-.2141796.85-.53c.1683155-.3158205.1553573-.6974458-.0339935-1.0011216l-4.052-6.47h16.2c.5522847 0 1-.4477153 1-1s-.4477153-1-1-1zm-1.908-12h.884.024c-.4877068 1.7835026-2.1150784 3.0151158-3.964 3h-.906c.4896476-1.781336 2.1146304-3.0117622 3.962-3zm-7.129 3c-1.845526.0213815-3.4691136-1.2151666-3.939-3h.884c1.8473696-.0117622 3.4723524 1.218664 3.962 3zm-17.063-15.025-1.518 3.025h-2.764l-1.513-3.024c-.0689019-.1393019-.1048286-.2925894-.105-.448v-1.528h6v1.528c.0016999.1547301-.0325313.3077438-.1.447zm-8.9-9.975c0-.5522847.4477153-1 1-1h10c.5522847 0 1 .4477153 1 1s-.4477153 1-1 1h-10c-.5522847 0-1-.4477153-1-1zm9 3v3h-6v-3zm-19.908 19h.884.024c-.4877068 1.7835026-2.1150784 3.0151158-3.964 3h-.906c.4896476-1.781336 2.1146304-3.0117622 3.962-3zm-7.129 3c-1.84552603.0213815-3.46911364-1.2151666-3.939-3h.884c1.84736961-.0117622 3.47235238 1.218664 3.962 3zm0 9c-1.84552603.0213815-3.46911364-1.2151666-3.939-3h.884c1.84736961-.0117622 3.47235238 1.218664 3.962 3zm3.167 0c.4896476-1.781336 2.1146304-3.0117622 3.962-3h.884.024c-.4877068 1.7835026-2.1150784 3.0151158-3.964 3zm19.87 0v-19h2v19zm20.963 0c-1.845526.0213815-3.4691136-1.2151666-3.939-3h.884c1.8473696-.0117622 3.4723524 1.218664 3.962 3zm3.167 0c.4896476-1.781336 2.1146304-3.0117622 3.962-3h.884.024c-.4877068 1.7835026-2.1150784 3.0151158-3.964 3z"/><path id="Shape" d="m27.5 8.067c-.5028793.22722583-.7266433.81885788-.5 1.322.138.306.2623333.6193333.373.94.1817017.5216329.7518671.7972016 1.2735.6155.5216329-.1817017.7972017-.7518671.6155-1.2735-.1333333-.376-.2793333-.74266667-.438-1.1-.108373-.24272777-.3089286-.43231842-.5573601-.52688748-.2484314-.09456906-.5242925-.08633343-.7666399.02288748z"/><path id="Shape" d="m23.582 9.091c-.2409967.11093986-.4280306.31310035-.5199307.56198076-.0919001.2488804-.0811331.52407964.0299307.76501924.088.191.166.387.237.587.1924973.5086142.7561611.7701598 1.2688353.588752s.7863975-.7392596.6161647-1.255752c-.091-.258-.193-.509-.306-.756-.2306442-.50168022-.8242457-.72148288-1.326-.491z"/><path id="Shape" d="m25.606 4.151c-.324-.292-.662-.56766667-1.014-.827-.4454177-.32695257-1.0715474-.23091765-1.3985.2145s-.2309177 1.07154743.2145 1.3985c.2985389.21877061.585901.45239829.861.7.2632717.25285099.6434006.34216192.9917257.23300504s.6094991-.39943702.6813819-.75731753c.0718828-.35788052-.0569473-.72649576-.3361076-.96168751z"/><path id="Shape" d="m19.745 3.184c.0831885.02211736.1689218.03321226.255.033.5026698.00011246.9273002-.37293845.991925-.87143676.0646249-.49849832-.2508433-.9674949-.736925-1.09556324-.355-.094-.718-.172-1.086-.236-.3522639-.06037788-.7099803.07176119-.938401.34664171-.2284208.27488052-.2928432.65074159-.169.986.1238431.3352584.4171371.57898041.769401.63935829.31.053.614.119.914.198z"/><path id="Shape" d="m18.755 7.22c.0799729.02104527.1623046.0317988.245.032.5041334-.00003061.9294139-.37531808.9921628-.87553113s-.2566575-.9689173-.7451628-1.09346887c-.245-.063-.492-.116-.745-.158-.5448289-.09112698-1.060373.27667109-1.1515.8215s.2766711 1.06037302.8215 1.1515c.2.032.392.073.583.122z"/><path id="Shape" d="m15.169 2.986c.3522639-.06037788.6455579-.30409989.769401-.63935829.1238432-.33525841.0594208-.71111948-.169-.986-.2284207-.27488052-.5861371-.40701959-.938401-.34664171-.368.064-.729.142-1.086.236-.4860817.12806834-.8015499.59706492-.736925 1.09556324.0646248.49849831.4892552.87154922.991925.87143676.0863809-.00020069.1723921-.01128806.256-.033.299-.079.603-.145.913-.198z"/><path id="Shape" d="m9.408 3.324c-.352.25933333-.69.535-1.014.827-.27916025.23519175-.40799045.60380699-.33610762.96168751.07188283.35788051.33305682.64816065.68138193.75731753s.728454.01984595.99172569-.23300504c.275099-.24760171.5624611-.48122939.861-.7.4454177-.32695257.5414526-.95308235.2145-1.3985s-.95308235-.54145257-1.3985-.2145z"/><path id="Shape" d="m11.048 7.249c-.4142136.3656125-.4536125.99778644-.088 1.412s.9977864.4536125 1.412.088c.174-.154.356-.3.544-.436.2981388-.20550448.4618915-.55612558.4281084-.91664953s-.2598234-.67461931-.5909505-.82115812c-.3311272-.1465388-.715603-.10262455-1.0051579.11480765-.2426667.17533333-.476.36166667-.7.559z"/><path id="Shape" d="m5.678 9.891c.50368508.2263901 1.09553128.00164976 1.322-.502.14466667-.322.30333333-.635.476-.939.17595331-.3109997.17262451-.69224524-.00873248-1.00012512-.18135698-.30787988-.51318971-.49561983-.87050001-.49250001-.35731029.00311982-.68581421.19662543-.86176751.50762513-.2.358-.38633333.72466667-.559 1.1-.10997859.24231743-.11883985.5184761-.02462226.76734568.0942176.24886959.28374274.44992269.52662226.55865432z"/><path id="Shape" d="m4.045 12.917c-.03.3566667-.045.7176667-.045 1.083 0 .5522847.44771525 1 1 1s1-.4477153 1-1c0-.309.013-.615.037-.917.04235-.3626961-.11636336-.719639-.41403133-.9311473s-.6869567-.2439491-1.01552718-.0846273c-.32857049.1593218-.54417489.4850715-.56244149.8497746z"/><path id="Shape" d="m8 14c0 .5522847.44771525 1 1 1s1-.4477153 1-1c0-.2.008-.393.023-.585.0416862-.3621409-.11699033-.7182758-.41412092-.9294562-.29713059-.2111805-.68563633-.2439461-1.01393915-.085513-.32830281.1584331-.54438472.4829618-.56393993.8469692-.02066667.248-.031.499-.031.753z"/><path id="Shape" d="m37.4 11.614c.520521.1840463 1.0917083-.0885659 1.276-.609.071-.2.149-.4.237-.587.1616016-.3262303.1331405-.7145101-.0743038-1.0136892-.2074444-.29917911-.5610919-.4619816-.9232742-.42503148-.3621822.03695011-.6756676.26781402-.818422.60272068-.113.247-.215.5-.306.756-.1840463.520521.0885659 1.0917083.609 1.276z"/><path id="Shape" d="m43.245 7.22c.191-.049.383-.09.579-.122.3524425-.05894882.646664-.30144561.7718341-.63614419s.0622724-.71075026-.165-.98650001c-.2272725-.27574975-.5843916-.40930463-.9368341-.3503558-.253.042-.5.095-.745.158-.4892594.12472721-.8087897.59460601-.7449428 1.09546046.0638468.50085446.4910393.87554412.9959428.87353954.0826954-.0002012.1650271-.01095473.245-.032z"/><path id="Shape" d="m50.252 6.69c-.2895549-.2174322-.6740307-.26134645-1.0051579-.11480765-.3311271.14653881-.5571674.46063417-.5909505.82115812s.1299696.71114505.4281084.91664953c.188.137.37.282.544.436.4142136.3656125 1.0463875.32621356 1.412-.088s.3262136-1.0463875-.088-1.412c-.224-.198-.4573333-.38433333-.7-.559z"/><path id="Shape" d="m53.969 13.247c-.0195552-.3640074-.2356371-.6885361-.5639399-.8469692s-.7168086-.1256675-1.0139392.085513c-.2971306.2111804-.4558071.5673153-.4141209.9294562.015.192.023.388.023.585 0 .5522847.4477153 1 1 1s1-.4477153 1-1c0-.254-.0103333-.505-.031-.753z"/><path id="Shape" d="m33.176 8.569c-.1613333.35933333-.3073333.726-.438 1.1-.1817017.5216329.0938671 1.0917983.6155 1.2735s1.0917983-.0938671 1.2735-.6155c.1106667-.3213333.235-.63466667.373-.94.2182034-.50204436-.0078095-1.08622243-.5070893-1.31067938-.4992799-.22445694-1.0862353-.00575805-1.3169107.49067938z"/><path id="Shape" d="m37.731 5.637c.275099-.24760171.5624611-.48122939.861-.7.4454176-.32695258.5414525-.95308233.2145-1.39849997-.3269526-.44541763-.9530823-.54145256-1.3985-.21450003-.352.25933333-.69.535-1.014.827-.2791603.23519175-.4079904.60380699-.3361076.96168751.0718828.35788051.3330568.64816065.6813819.75731753s.728454.01984595.9917257-.23300504z"/><path id="Shape" d="m42 3.217c.0863809-.00020069.1723921-.01128806.256-.033.3-.079.6-.145.914-.2.5286477-.1086713.8756878-.61722303.7841605-1.14910707-.0915272-.53188403-.588596-.89518049-1.1231605-.82089293-.368.064-.729.142-1.086.236-.4860817.12806834-.8015499.59706492-.736925 1.09556324.0646248.49849831.4892552.87154922.991925.87143676z"/><path id="Shape" d="m48 3.217c.5026698.00011246.9273002-.37293845.991925-.87143676.0646249-.49849832-.2508433-.9674949-.736925-1.09556324-.355-.094-.718-.172-1.086-.236-.5445528-.09333611-1.0616639.27244724-1.155.817s.2724472 1.06166387.817 1.155c.31.053.614.119.914.2.0832781.02144275.1690099.03186505.255.031z"/><path id="Shape" d="m52.592 3.324c-.4454177-.32695257-1.0715474-.23091765-1.3985.2145s-.2309177 1.07154743.2145 1.3985c.2985389.21877061.585901.45239829.861.7.2632717.25285099.6434006.34216192.9917257.23300504s.6094991-.39943702.6813819-.75731753c.0718828-.35788052-.0569473-.72649576-.3361076-.96168751-.324-.292-.662-.56766667-1.014-.827z"/><path id="Shape" d="m56.265 7.465c-.2720002-.48076387-.8822361-.65000024-1.363-.378s-.6500002.88223613-.378 1.363c.172.304.3306667.617.476.939.1466575.32582624.4560009.54866125.8115034.58456522.3555026.03590398.703155-.12057775.9120001-.41050001.208845-.28992227.247154-.66923899.1004965-.99506521-.17-.37866667-.3563333-.74633333-.559-1.103z"/><path id="Shape" d="m57.955 12.917c-.0182666-.3647031-.233871-.6904528-.5624415-.8497746s-.7178592-.126881-1.0155272.0846273c-.2976679.2115083-.4563813.5684512-.4140313.9311473.024.3.037.608.037.917 0 .5522847.4477153 1 1 1s1-.4477153 1-1c0-.3646667-.015-.7256667-.045-1.083z"/><path id="Shape" d="m19.906 13.25c.1138833.4410697.5114656.7494324.967.75.0846924.0001354.1690507-.0106194.251-.032.5345261-.1381848.8559304-.6834082.718-1.218-.113082-.437838-.2849796-.8583312-.511-1.25-.2780058-.4742136-.886647-.6351286-1.3626943-.3602745-.4760473.274854-.640996.8824145-.3693057 1.3602745.1353033.2351997.2385514.4874345.307.75z"/><path id="Shape" d="m16 11.126c.084291-.0000146.1682583-.0104266.25-.031.24501-.0630816.4969996-.0950003.75-.095.5522847 0 1-.4477153 1-1 0-.55228475-.4477153-1-1-1-.4212533.0000141-.8408483.05275743-1.249.157-.4888783.12464267-.8083425.59393189-.7450453 1.0944628.0632972.5005309.4895289.8755193.9940453.8745372z"/><path id="Shape" d="m14.1 13.249c.1380712-.5351639-.1838361-1.0809288-.719-1.219-.5351639-.1380711-1.0809288.1838361-1.219.719-.1059809.4086081-.1604039.8288744-.162 1.251 0 .5522847.4477153 1 1 1s1-.4477153 1-1c.0015482-.2535475.035148-.5058818.1-.751z"/><path id="Shape" d="m40.669 11.5c-.2260204.3916688-.397918.812162-.511 1.25-.1379304.5345918.1834739 1.0798152.718 1.218.0819493.0213806.1663076.0321354.251.032.4555344-.0005676.8531167-.3089303.967-.75.0684486-.2625655.1716967-.5148003.307-.75.2716903-.47786.1067416-1.0854205-.3693057-1.3602745-.4760473-.2748541-1.0846885-.1139391-1.3626943.3602745z"/><path id="Shape" d="m45 11c.2535475.0015482.5058818.035148.751.1.0817417.0205734.165709.0309854.25.031.5043244.0004746.9300793-.3746633.9931022-.8750346s-.2564114-.96936747-.7451022-1.0939654c-.407938-.10592892-.8275363-.16035241-1.249-.162-.5522847 0-1 .44771525-1 1 0 .5522847.4477153 1 1 1z"/><path id="Shape" d="m49.843 12.751c-.0893164-.3461904-.3565385-.6184337-.7010064-.7141786-.3444678-.0957449-.7138485-.0004455-.969.25-.2551514.2504454-.35731.6179882-.2679936.9641786.0629982.2446859.0949162.4963343.095.749 0 .5522847.4477153 1 1 1s1-.4477153 1-1c-.0001292-.4212461-.0528707-.8408268-.157-1.249z"/><path id="Shape" d="m4 19c0 .5522847.44771525 1 1 1s1-.4477153 1-1v-1c0-.5522847-.44771525-1-1-1s-1 .4477153-1 1z"/><path id="Shape" d="m8 19c0 .5522847.44771525 1 1 1s1-.4477153 1-1v-1c0-.5522847-.44771525-1-1-1s-1 .4477153-1 1z"/><path id="Shape" d="m14 18c0-.5522847-.4477153-1-1-1s-1 .4477153-1 1v1c0 .5522847.4477153 1 1 1s1-.4477153 1-1z"/><path id="Shape" d="m50 18c0-.5522847-.4477153-1-1-1s-1 .4477153-1 1v1c0 .5522847.4477153 1 1 1s1-.4477153 1-1z"/><path id="Shape" d="m54 18c0-.5522847-.4477153-1-1-1s-1 .4477153-1 1v1c0 .5522847.4477153 1 1 1s1-.4477153 1-1z"/><path id="Shape" d="m58 18c0-.5522847-.4477153-1-1-1s-1 .4477153-1 1v1c0 .5522847.4477153 1 1 1s1-.4477153 1-1z"/><path id="Shape" d="m4 24c0 .5522847.44771525 1 1 1s1-.4477153 1-1v-1c0-.5522847-.44771525-1-1-1s-1 .4477153-1 1z"/><path id="Shape" d="m8 24c0 .5522847.44771525 1 1 1s1-.4477153 1-1v-1c0-.5522847-.44771525-1-1-1s-1 .4477153-1 1z"/><path id="Shape" d="m14 23c0-.5522847-.4477153-1-1-1s-1 .4477153-1 1v1c0 .5522847.4477153 1 1 1s1-.4477153 1-1z"/><path id="Shape" d="m50 23c0-.5522847-.4477153-1-1-1s-1 .4477153-1 1v1c0 .5522847.4477153 1 1 1s1-.4477153 1-1z"/><path id="Shape" d="m54 23c0-.5522847-.4477153-1-1-1s-1 .4477153-1 1v1c0 .5522847.4477153 1 1 1s1-.4477153 1-1z"/><path id="Shape" d="m58 23c0-.5522847-.4477153-1-1-1s-1 .4477153-1 1v1c0 .5522847.4477153 1 1 1s1-.4477153 1-1z"/><path id="Shape" d="m4 29c0 .5522847.44771525 1 1 1s1-.4477153 1-1v-1c0-.5522847-.44771525-1-1-1s-1 .4477153-1 1z"/><path id="Shape" d="m8 29c0 .5522847.44771525 1 1 1s1-.4477153 1-1v-1c0-.5522847-.44771525-1-1-1s-1 .4477153-1 1z"/><path id="Shape" d="m13 27c-.5522847 0-1 .4477153-1 1v1c0 .5522847.4477153 1 1 1s1-.4477153 1-1v-1c0-.5522847-.4477153-1-1-1z"/><path id="Shape" d="m49 27c-.5522847 0-1 .4477153-1 1v1c0 .5522847.4477153 1 1 1s1-.4477153 1-1v-1c0-.5522847-.4477153-1-1-1z"/><path id="Shape" d="m53 27c-.5522847 0-1 .4477153-1 1v1c0 .5522847.4477153 1 1 1s1-.4477153 1-1v-1c0-.5522847-.4477153-1-1-1z"/><path id="Shape" d="m57 27c-.5522847 0-1 .4477153-1 1v1c0 .5522847.4477153 1 1 1s1-.4477153 1-1v-1c0-.5522847-.4477153-1-1-1z"/></g></g></svg>