<svg height="512" viewBox="0 0 60 60" width="512" xmlns="http://www.w3.org/2000/svg"><g id="Page-1" fill="none" fill-rule="evenodd"><g id="038---Sheers" fill="rgb(0,0,0)" fill-rule="nonzero"><path id="Shape" d="m5.549 60c1.47196026.0047222 2.88461574-.5797131 3.923-1.623l14.328-14.332c2.2489697.3083004 4.528987-.2800216 6.348-1.638l1.252-.907h.005l16.381-11.92.02-.01c.005 0 .007-.01.012-.014l11.309-8.226c.9174582-.6796901 1.1451457-1.9571965.519-2.912l-1.94-2.9c-.3229001-.4941579-.8363105-.8322386-1.4178371-.9336456-.5815265-.101407-1.179064.0429458-1.6501629.3986456l-11.258 8.44-.016.007s-.008.011-.013.015l-18.094 13.567c-.6425024.4905261-1.5495405.4266863-2.117-.149l-.008-.006c-.5643269-.5705498-.625185-1.4685254-.143-2.11l22.032-29.384c.3550227-.47214209.499722-1.06975022.4-1.652-.1015563-.57287832-.4337723-1.07897457-.919-1.4l-2.909-1.955-.015-.01c-.9567394-.61836061-2.2294862-.38527927-2.905.532l-8.073 11.095-13.008 17.881c-1.2501068 1.7306104-1.8492993 3.8469071-1.692 5.976.008.122.041.248.055.371l-14.329 14.33c-1.58731513 1.5861929-2.06235019 3.9726066-1.20345334 6.0457379.85889685 2.0731314 2.8824444 3.424384 5.12645334 3.4232621zm38.19-34.346 2.084 2.881-14.811 10.773-1.971-2.633zm3.741-2.8 2.127 2.933-2.167 1.571-2.1-2.9zm8.36-6.269c.030413-.0233791.0691357-.0331502.107-.027.038769.0070699.0722383.0313443.091.066l1.939 2.9c.0427478.0648915.0288607.1516858-.032.2l-6.721 4.889-2.144-2.964zm-29.382 22.026.983-.736 1.953 2.61-.418.3c-1.1584326.8516534-2.5552683 1.3176151-3.993 1.332.3114533-.9313043.2916713-1.9416016-.056-2.86.5542111-.0913259 1.0788847-.3127101 1.531-.646zm5.174-24.655 2.88 2.089-11.184 14.917-2.634-1.972zm2.589-3.556 2.932 2.126-1.441 1.921-2.9-2.105zm6.066-8.338c.0468728-.06265241.1342222-.07837531.2-.036l2.9 1.947.064.087c.0068977.03742586-.0025672.0760137-.026.106l-5.068 6.759-2.957-2.145zm-21.076 28.966.306-.42 2.611 1.954-.738.985c-1.0890241 1.4413409-.9445997 3.4658462.338 4.738l.806.8c.889293.9588829.889293 2.4411171 0 3.4l-14.476 14.478c-1.12663959 1.0870569-2.82250382 1.3311646-4.21.606l15.333-15.332c.7516062-.7581612.8247606-1.956011.171-2.8-.832247-1.0822039-1.3374639-2.379945-1.456-3.74-.1260658-1.6627175.3397064-3.3164747 1.315-4.669zm-16.171 20.917 13.483-13.493c.3123879.7904485.7327118 1.5338396 1.249 2.209.0412798.0470457.0386468.1181368-.006.162l-15.32 15.32c-.7695438-1.3741831-.52643781-3.0931143.594-4.2z"/></g></g></svg>