<svg height="512" viewBox="0 0 60 60" width="512" xmlns="http://www.w3.org/2000/svg"><g id="Page-1" fill="none" fill-rule="evenodd"><g id="039---Greenhouse" fill="rgb(0,0,0)" fill-rule="nonzero"><path id="Shape" d="m12.961 17h10.078c.7630729-.0052607 1.4546205-.4502977 1.7755393-1.1426264s.2136001-1.5076684-.2755393-2.0933736l-5.039-6.057c-.3820371-.42639719-.9274907-.67005208-1.5-.67005208s-1.1179629.24365489-1.5.67005208l-5.039 6.058c-.4885088.5857314-.5954507 1.4006479-.2746118 2.0925905s1.0119251 1.1368305 1.7746118 1.1424095zm5-8.015 5 6.015-9.961.043z"/><path id="Shape" d="m11 26h1c.5522847 0 1-.4477153 1-1s-.4477153-1-1-1h-1c-.5522847 0-1 .4477153-1 1s.4477153 1 1 1z"/><path id="Shape" d="m16 26h9c.5522847 0 1-.4477153 1-1s-.4477153-1-1-1h-9c-.5522847 0-1 .4477153-1 1s.4477153 1 1 1z"/><path id="Shape" d="m59 50.278v-29.913c-.0060865-.4703797-.1722083-.9246577-.471-1.288l-15.466-18.366c-.3791394-.45128613-.9385888-.71160585-1.528-.711h-23.535c-.281384.00158726-.5487412.12308019-.735.334-.009.01-.022.012-.03.022l-15.764 18.721c-.29900281.3632216-.46515272.8175763-.471 1.288v29.913c-.61675126.3544126-.997855 1.0106732-1 1.722v6c0 1.1045695.8954305 2 2 2h56c1.1045695 0 2-.8954305 2-2v-6c-.002145-.7113268-.3832487-1.3675874-1-1.722zm-16.153-.278-.667-4h2.82v4zm-12.847 0v-20h3v20zm-4 0v-16c0-1.1045695-.8954305-2-2-2h-12c-1.1045695 0-2 .8954305-2 2v16h-2v-20h20v20zm-14 0v-3h5v3zm12-16v3h-5v-3zm-12 5h5v6h-5zm7 0h5v6h-5zm-2-2h-5v-3h5zm2 10h5v3h-5zm-16 3v-20h3v20zm26.535-48 14.316 17h-9.386l-14.316-17zm27.465 19v7h-10v-7zm-12 7h-10v-7h10zm-17-7v7h-20v-7zm2 0h3v7h-3zm-12-18.448 13.851 16.448h-27.702zm-12 18.448v7h-3v-7zm29 9h10v2.1c-2.330324.4731925-4.0050126 2.5221184-4.0050126 4.9s1.6746886 4.4268075 4.0050126 4.9v2.1h-5c-.5522847 0-1 .4477153-1 1s.4477153 1 1 1h.153l.667 4h-5.82zm10 9.816c-1.1981296-.4174114-2.0009455-1.5472421-2.0009455-2.816s.8028159-2.3985886 2.0009455-2.816zm2-5.632c1.1981296.4174114 2.0009455 1.5472421 2.0009455 2.816s-.8028159 2.3985886-2.0009455 2.816zm0 11.816h2.82l-.667 4h-2.153zm4.847 0h.153c.5522847 0 1-.4477153 1-1s-.4477153-1-1-1h-5v-2.1c2.330324-.4731925 4.0050126-2.5221184 4.0050126-4.9s-1.6746886-4.4268075-4.0050126-4.9v-2.1h10v20h-5.82zm4-27h-9.382l-14.316-17h9.386zm-53.847 39v-2h24c.5522847 0 1-.4477153 1-1s-.4477153-1-1-1h-24v-2h56v2h-8c-.5522847 0-1 .4477153-1 1s.4477153 1 1 1h8v2z"/><path id="Shape" d="m46 54h-16c-.5522847 0-1 .4477153-1 1s.4477153 1 1 1h16c.5522847 0 1-.4477153 1-1s-.4477153-1-1-1z"/></g></g></svg>