<svg height="512" viewBox="0 0 58 60" width="512" xmlns="http://www.w3.org/2000/svg"><g id="Page-1" fill="none" fill-rule="evenodd"><g id="040---Fruit-Production" fill="rgb(0,0,0)" fill-rule="nonzero"><path id="Shape" d="m9 43c0 1.6568542 1.3431458 3 3 3s3-1.3431458 3-3-1.3431458-3-3-3-3 1.3431458-3 3zm4 0c0 .5522847-.4477153 1-1 1s-1-.4477153-1-1 .4477153-1 1-1 1 .4477153 1 1z"/><path id="Shape" d="m56 2h-11c0-1.1045695-.8954305-2-2-2h-14.107c-1.1045695 0-2 .8954305-2 2h-9.893c0-1.1045695-.8954305-2-2-2h-6c-1.1045695 0-2 .8954305-2 2v6c0 1.1045695.8954305 2 2 2v26.685c-2.439763 1.1572781-3.99631274 3.614681-4 6.315v9c-2.76005315.0033061-4.99669388 2.2399468-5 5v1c0 1.1045695.8954305 2 2 2h20c1.1045695 0 2-.8954305 2-2v-1c-.0033061-2.7600532-2.2399468-4.9966939-5-5v-9c-.0036873-2.700319-1.560237-5.1577219-4-6.315v-26.685c1.1045695 0 2-.8954305 2-2h9.893c0 1.1045695.8954305 2 2 2h1.107v2.333c.0008617.6489705.211307 1.2803066.6 1.8l.559.747-4.959 3.72c-.7535656.5681068-1.1976539 1.4562835-1.2 2.4v14c0 .5522847.4477153 1 1 1s1-.4477153 1-1v-.842c2.3067428 2.516974 5.5867065 3.9171541 9 3.842 3.4132935.0751541 6.6932572-1.325026 9-3.842v.842c0 .5522847.4477153 1 1 1s1-.4477153 1-1v-14c-.0026567-.9436428-.4466798-1.831689-1.2-2.4l-4.96-3.72.559-.747c.388693-.5196934.5991383-1.1510295.6-1.8v-2.333h1c1.1045695 0 2-.8954305 2-2h11.001c1.1045695 0 2-.8954305 2-2v-2c0-1.1045695-.8954305-2-2-2zm-34 55v1h-20v-1c0-1.6568542 1.34314575-3 3-3h14c1.6568542 0 3 1.3431458 3 3zm-5-14v9h-10v-9c0-2.7614237 2.23857625-5 5-5 2.7614237 0 5 2.2385763 5 5zm-4-6.92c-.6624-.1066667-1.3376-.1066667-2 0v-26.08h2zm1-28.08h-5v-6h6v1 5zm3-2v-2h9.893v2zm27.135 25.227c-1.7620871-1.6327217-4.483218-1.6366401-6.25-.009-.4916186.5063184-1.1693097.7889607-1.875.782-.7087479.0036115-1.3890218-.2786644-1.887-.783-1.7704442-1.6265067-4.4927629-1.6221566-6.258.01-.1.08-.192.147-.287.219-.770593-1.5396282-.770593-3.3523718 0-4.892.095.072.188.139.287.219 1.7652371 1.6321566 4.4875558 1.6365067 6.258.01.4979782-.5043356 1.1782521-.7866115 1.887-.783.7056903-.0069607 1.3833814.2756816 1.875.782 1.766782 1.6276401 4.4879129 1.6237217 6.25-.009.1-.08.192-.147.287-.219.770593 1.5396282.770593 3.3523718 0 4.892-.095-.072-.188-.139-.287-.219zm-1.253-6.013c-.4937282.5015891-1.1677215.7846301-1.8715379.7859453-.7038163.0013152-1.3788628-.2792049-1.8744621-.7789453-1.7697707-1.6273383-4.4912293-1.6273383-6.261 0-.4974852.5002786-1.174223.7810694-1.8797504.7799427-.7055273-.0011268-1.3813649-.2840777-1.8772496-.7859427-.126-.1-.26-.206-.4-.31 1.9289075-1.9219341 4.5598513-2.9714935 7.282-2.905 2.7217608-.0680892 5.3530138.979643 7.283 2.9-.141.108-.275.213-.401.314zm-6.882 10.786c-2.7217608.0680892-5.3530138-.979643-7.283-2.9.141-.1.275-.209.4-.31.4958847-.501865 1.1717223-.7848159 1.8772496-.7859427.7055274-.0011267 1.3822652.2796641 1.8797504.7799427 1.7697707 1.6273383 4.4912293 1.6273383 6.261 0 .4955993-.4997404 1.1706458-.7802605 1.8744621-.7789453.7038164.0013152 1.3778097.2843562 1.8715379.7859453.126.1.26.206.4.31-1.9296692 1.9194824-4.5600739 2.9668033-7.281 2.899zm8.6-15.8c.2509435.1895728.3989078.4855015.4.8v2.842c-2.3067428-2.516974-5.5867065-3.9171541-9-3.842-3.4132935-.0751541-6.6932572 1.325026-9 3.842v-2.842c.0009373-.3145353.1489341-.610529.4-.8l4.961-3.72.24.32c.5677923.7534085 1.4555986 1.1974966 2.399 1.2h2c.9439012-.0015673 1.8324054-.4458194 2.4-1.2l.241-.321zm-4.6-7.867c-.0004299.2163002-.0705638.4267019-.2.6l-2 2.668c-.1888544.2518058-.4852427.4-.8.4h-2c-.3147573 0-.6111456-.1481942-.8-.4l-2-2.667c-.1294362-.1732981-.1995701-.3836998-.2-.6v-2.334h8zm1-4.333h-12.107v-6h14.107v1 5zm15-2h-11v-2h11z"/><circle id="Oval" cx="12" cy="5" r="1"/><path id="Shape" d="m53 40h-26c-2.5687655-.0025816-4.7215532 1.9417423-4.9797109 4.4975039-.2581578 2.5557617 1.4623181 4.8913243 3.9797109 5.4024961v2.1c0 1.1045695.8954305 2 2 2v3c0 1.6568542 1.3431458 3 3 3h18c1.6568542 0 3-1.3431458 3-3v-3c1.1045695 0 2-.8954305 2-2v-2.1c2.5173928-.5111718 4.2378687-2.8467344 3.9797109-5.4024961-.2581577-2.5557616-2.4109454-4.5000855-4.9797109-4.4975039zm-16 5c0-1.6568542 1.3431458-3 3-3s3 1.3431458 3 3-1.3431458 3-3 3-3-1.3431458-3-3zm-.974 3h-5.052c1.3676345-1.766197 1.3676345-4.233803 0-6h5.052c-1.3676345 1.766197-1.3676345 4.233803 0 6zm7.948-6h5.052c-1.3676345 1.766197-1.3676345 4.233803 0 6h-5.052c1.3676345-1.766197 1.3676345-4.233803 0-6zm-19.974 3c0-1.6568542 1.3431458-3 3-3s3 1.3431458 3 3-1.3431458 3-3 3-3-1.3431458-3-3zm26 12c0 .5522847-.4477153 1-1 1h-18c-.5522847 0-1-.4477153-1-1v-3h20zm1-5h-23v-2h24v2zm2-4c-1.6568542 0-3-1.3431458-3-3s1.3431458-3 3-3 3 1.3431458 3 3-1.3431458 3-3 3z"/><circle id="Oval" cx="27" cy="45" r="1"/><circle id="Oval" cx="40" cy="45" r="1"/><circle id="Oval" cx="53" cy="45" r="1"/></g></g></svg>