<svg height="512" viewBox="0 0 60 60" width="512" xmlns="http://www.w3.org/2000/svg"><g id="Page-1" fill="none" fill-rule="evenodd"><g id="042---Planting-Seeds" fill="rgb(0,0,0)" fill-rule="nonzero"><path id="Shape" d="m3 22h8c1.4145669-.0008238 2.6363557-.9896726 2.932-2.373 2.2549941.8764565 4.6488718 1.3414812 7.068 1.373.9438273.0018792 1.8322003.4460657 2.4 1.2l3.486 4.654c.6891227.9063378 1.7614342 1.4395354 2.9 1.442 2.000793-.0038614 3.6205554-1.6272033 3.62-3.628.0014495-.3895569-.0596617-.7768194-.181-1.147l-1.581-4.742c-.2798375-.8319572.0178671-1.7490336.733-2.258l2.14-1.521c.9452914-.672631 2.1930774-.7418876 3.207-.178l.011.006h.006l15.665 8.854c1.6823235.9525761 3.8131654.4692553 4.9198694-1.1159324s.8261057-3.7520635-.6478694-5.0030676l-3.127-2.657 1.657.094h.187c1.796578-.0068075 3.3155338-1.3319538 3.566-3.111 0-.015 0-.031.005-.047.2546092-1.95276975-1.1149072-3.74484398-3.066-4.012l-.625-.087c.8238003-1.08641977.9589741-2.54645919.3486332-3.76565512-.610341-1.21919592-1.8602249-1.98586238-3.2236332-1.97734488h-39.584c-.4222546-1.19435086-1.5492146-1.99474861-2.816-2h-8c-1.65685425 0-3 1.34314575-3 3v16c0 1.6568542 1.34314575 3 3 3zm53.649-.532c-.5283509.7010462-1.4937849.9031933-2.259.473l-15.668-8.855-4.081-2.306c-.9016957-.5102844-1.9199285-.7789655-2.956-.78h-.685c-.5522847 0-1 .4477153-1 1s.4477153 1 1 1h.685c.6898235.0000576 1.3678605.1788691 1.968.519l.616.348c-.3221356.1331885-.6289198.3008301-.915.5l-2.139 1.533c-1.4304122 1.0187475-2.0250811 2.8539346-1.464 4.518l1.58 4.74c.0540996.1658997.0807831.3395114.079.514-.0001404.7004373-.4480173 1.3223728-1.1122834 1.5445506-.6642662.2221777-1.3961959-.0051467-1.8177166-.5645506l-3.48-4.652c-.9464354-1.2564342-2.4269914-1.9967122-4-2-.045 0-4.254-.027-7-1.564v-13.436h22.427c1.4236075.00056911 2.80076.50663542 3.886 1.428l16.069 13.659c.7030508.5990255.8199105 1.6411338.267 2.381zm1.022-11.05c.2588783.3401083.3702205.7699826.309 1.193v.045c-.1368067.8032685-.8499277 1.3792508-1.664 1.344l-4.288-.241-5.053-4.293 5.687.794.048.006 3.917.546c.4152947.05350047.7915733.2719151 1.044.606zm-2.671-4.808c-.0045403.8283944-.638795 1.51723651-1.464 1.59l-.706.06-8.7-1.213-2.409-2.047h11.679c.4260847-.00000832.8345738.16993464 1.1349211.47215914s.4677419.71176449.4650789 1.13784086zm-53-2.61c0-.55228475.44771525-1 1-1h8c.5522847 0 1 .44771525 1 1v16c0 .5522847-.4477153 1-1 1h-8c-.55228475 0-1-.4477153-1-1z"/><path id="Shape" d="m7 10c1.65685425 0 3-1.34314575 3-3s-1.34314575-3-3-3-3 1.34314575-3 3 1.34314575 3 3 3zm0-4c.55228475 0 1 .44771525 1 1s-.44771525 1-1 1-1-.44771525-1-1 .44771525-1 1-1z"/><path id="Shape" d="m45 26.581c0-2.025-1.438-4.324-2.645-5.9-.3288225-.4123977-.827557-.6526001-1.355-.6526001s-1.0261775.2402024-1.355.6526001c-1.207 1.576-2.645 3.875-2.645 5.9-.1071547 2.3217813 1.6790525 4.2950936 4 4.419 2.3209475-.1239064 4.1071547-2.0972187 4-4.419zm-6 0c.2393097-1.6169918.9328771-3.1327834 2-4.371 1.0671229 1.2382166 1.7606903 2.7540082 2 4.371.1030381 1.216346-.7859645 2.2915946-2 2.419-1.2140355-.1274054-2.1030381-1.202654-2-2.419z"/><path id="Shape" d="m33.645 31.685c-1.207 1.572-2.645 3.871-2.645 5.896-.1071547 2.3217813 1.6790525 4.2950936 4 4.419 2.3209475-.1239064 4.1071547-2.0972187 4-4.419 0-2.025-1.438-4.324-2.645-5.9-.3294308-.411913-.82852-.6513797-1.3559632-.6506012-.5274433.0007785-1.0258234.2417175-1.3540368.6546012zm1.355 8.315c-1.2140355-.1274054-2.1030381-1.202654-2-2.419.2393097-1.6169918.9328771-3.1327834 2-4.371 1.0671229 1.2382166 1.7606903 2.7540082 2 4.371.1030381 1.216346-.7859645 2.2915946-2 2.419z"/><path id="Shape" d="m45 45c2.3209475-.1239064 4.1071547-2.0972187 4-4.419 0-2.025-1.438-4.324-2.645-5.9-.3288225-.4123977-.827557-.6526001-1.355-.6526001s-1.0261775.2402024-1.355.6526001c-1.207 1.576-2.645 3.875-2.645 5.9-.1071547 2.3217813 1.6790525 4.2950936 4 4.419zm0-8.79c1.0671229 1.2382166 1.7606903 2.7540082 2 4.371.1030381 1.216346-.7859645 2.2915946-2 2.419-1.2140355-.1274054-2.1030381-1.202654-2-2.419.2393097-1.6169918.9328771-3.1327834 2-4.371z"/><path id="Shape" d="m58.249 49.951c-.6933439-.1132165-1.3505497-.3871949-1.919-.8-2.2459592-1.5355508-5.2040408-1.5355508-7.45 0-1.6002239 1.1313735-3.7397761 1.1313735-5.34 0-2.2495436-1.5345856-5.2094564-1.5345856-7.459 0-1.6040401 1.132067-3.7469599 1.132067-5.351 0-1.0875792-.7740447-2.3953591-1.1775983-3.73-1.151h-25c-1.1045695 0-2 .8954305-2 2v8c0 1.1045695.8954305 2 2 2h56c1.1045695 0 2-.8954305 2-2v-6.067c-.0012287-1.0073598-.751477-1.8565844-1.751-1.982zm-.249 8.049h-56v-8h25c.9597073-.0233017 1.8996117.2752148 2.67.848 2.2531415 1.5359398 5.2168585 1.5359398 7.47 0 1.6001018-1.1306028 3.7388982-1.1306028 5.339 0 2.2499571 1.5367939 5.2120429 1.5367939 7.462 0 1.5965964-1.1300844 3.7324036-1.1300844 5.329 0 .8147845.5689921 1.7483443.9451518 2.73 1.1z"/><path id="Shape" d="m9 52h-4c-.55228475 0-1 .4477153-1 1s.44771525 1 1 1h4c.55228475 0 1-.4477153 1-1s-.44771525-1-1-1z"/><path id="Shape" d="m18 54h-5c-.5522847 0-1 .4477153-1 1s.4477153 1 1 1h5c.5522847 0 1-.4477153 1-1s-.4477153-1-1-1z"/><path id="Shape" d="m27 52h-5c-.5522847 0-1 .4477153-1 1s.4477153 1 1 1h5c.5522847 0 1-.4477153 1-1s-.4477153-1-1-1z"/><path id="Shape" d="m37 54h-5c-.5522847 0-1 .4477153-1 1s.4477153 1 1 1h5c.5522847 0 1-.4477153 1-1s-.4477153-1-1-1z"/><path id="Shape" d="m49 54h-5c-.5522847 0-1 .4477153-1 1s.4477153 1 1 1h5c.5522847 0 1-.4477153 1-1s-.4477153-1-1-1z"/></g></g></svg>