<svg height="60" viewBox="0 0 60 60" width="60" xmlns="http://www.w3.org/2000/svg"><g id="Page-1" fill="none" fill-rule="evenodd"><g id="046---Give-Crops" fill="rgb(0,0,0)" fill-rule="nonzero"><path id="Shape" d="m3 60h5c.84849384-.0026614 1.6557601-.3662948 2.22-1h25.08c1.4672638.0005032 2.9064065-.402526 4.16-1.165l18.74-11.409c1.6305932-.9879584 2.258364-3.0434645 1.4579833-4.7738652-.8003808-1.7304007-2.7732674-2.5829969-4.5819833-1.9801348l-1.135.378c-1.8375482-3.2608033-5.698654-4.8009166-9.276-3.7-2.2685695-2.2816238-5.6868633-2.9747504-8.665-1.757v-4.593h4c3.3123376-.0033074 5.9966926-2.6876624 6-6 0-1.1045695-.8954305-2-2-2h-4c-1.4780119.0003999-2.9033147.5491415-4 1.54v-3.54h3c3.3123376-.0033074 5.9966926-2.6876624 6-6 0-1.1045695-.8954305-2-2-2h-3c-1.4780119.0003999-2.9033147.5491415-4 1.54v-3.54h2c3.3123376-.00330738 5.9966926-2.68766243 6-6 0-1.1045695-.8954305-2-2-2-2.263 0-4.047-.213-6 1.54v-2.54c0-.55228475-.4477153-1-1-1s-1 .44771525-1 1v2.54c-2-1.798-3.992-1.54-6-1.54-1.1045695 0-2 .8954305-2 2 .0033074 3.31233757 2.6876624 5.99669262 6 6h2v3.54c-1.0966853-.9908585-2.5219881-1.5396001-4-1.54h-3c-1.1045695 0-2 .8954305-2 2 .0033074 3.3123376 2.6876624 5.9966926 6 6h3v3.54c-1.0966853-.9908585-2.5219881-1.5396001-4-1.54h-4c-1.1045695 0-2 .8954305-2 2 .0033074 3.3123376 2.6876624 5.9966926 6 6h4v3.762c-3.1825934-2.5569094-7.7808448-2.3033436-10.663.588-2.4361288-.7334045-5.0756601-.2697431-7.116 1.25-1.7425882-.5552395-3.5780321-.7591777-5.4-.6-.4228715-1.1960735-1.5523778-1.9968579-2.821-2h-5c-1.65685425 0-3 1.3431458-3 3v21c0 1.6568542 1.34314575 3 3 3zm37-36h4c0 2.209139-1.790861 4-4 4h-4c0-2.209139 1.790861-4 4-4zm0-10h3c0 2.209139-1.790861 4-4 4h-3c0-2.209139 1.790861-4 4-4zm0-10h2c0 2.209139-1.790861 4-4 4h-2c0-2.209139 1.790861-4 4-4zm-12 0h2c2.209139 0 4 1.790861 4 4h-2c-2.209139 0-4-1.790861-4-4zm-1 10h3c2.209139 0 4 1.790861 4 4h-3c-2.209139 0-4-1.790861-4-4zm-1 10h4c2.209139 0 4 1.790861 4 4h-4c-2.209139 0-4-1.790861-4-4zm-2.745 12.438c.819.333.9.561 1.35.561.4071009.0045615.7750587-.2418054.9259179-.6199502.1508591-.3781448.0535293-.810136-.2449179-1.0870498 2.536607-2.0109147 6.2134148-1.6352958 8.291.847-.056.051-.121.094-.176.147-.3848879.3882764-.3866134 1.0136781-.0038738 1.4040724.3827395.3903943 1.0080527.4010521 1.4038738.0239276 1.3887138-1.3511919 3.3432895-1.9506777 5.250774-1.6104591 1.9074844.3402187 3.5342803 1.5784773 4.370226 3.3264591.1536242.3226108.4676896.538758.8238909.5670209.3562013.028263.700423-.1356521.903-.43.2025771-.2943478.2327333-.6744101.0791091-.9970209-.077-.162-.173-.313-.261-.47 2.3510313-.4268097 4.728741.5978953 6.033 2.6-17.16 5.716-15.523 5.3-16.961 5.3 1.25-3.47-1.948-7-5.607-7h-5.232c-3.195 0-4.9-1.723-5.886-2.36 1.5444403-.7625866 3.3394651-.8359716 4.941-.202zm-5.38 2.343c1.7966489 1.4337995 4.0263657 2.2160512 6.325 2.219h5.231c2.659 0 4.952 2.875 3.37 5h-6.08c-2.2725838.0253408-4.4757105.7867336-6.279 2.17-.4583963.3081749-.5801749.9296037-.272 1.388s.9296037.5801749 1.388.272c1.4739176-1.1593786 3.287946-1.8023521 5.163-1.83 9.724 0 9.454.087 10.475-.262l18.504-6.169c.8409623-.2738447 1.753863.1243737 2.1252326.9270524s.0838985 1.7562645-.6692326 2.2199476l-18.736 11.411c-.9402716.5715924-2.0196236.8736034-3.12.873l-24.3.0000009v-20.0000009c2.272 0 4.431-.175 6.875 1.781zm-15.875-2.781c0-.5522847.44771525-1 1-1h5c.55228475 0 1 .4477153 1 1v21c0 .5522847-.44771525 1-1 1h-5c-.55228475 0-1-.4477153-1-1z"/><path id="Shape" d="m37.663 41.941c.5185487.1862241 1.0900356-.0820796 1.278-.6.0698167-.1845162.2154838-.3301833.4-.4.3492378-.1109675.6098102-.4040645.6791245-.7638927s-.0637326-.7287487-.3467574-.96151c-.2830247-.2327613-.6706911-.2920785-1.0103671-.1545973-.743599.2706403-1.3293597.856401-1.6 1.6-.1875381.5191367.0810135 1.0920467.6 1.28z"/></g></g></svg>