<svg height="60" viewBox="0 0 60 60" width="60" xmlns="http://www.w3.org/2000/svg"><g id="Page-1" fill="none" fill-rule="evenodd"><g id="048---Live-Produce-Data" fill="rgb(0,0,0)" fill-rule="nonzero" transform="translate(-1)"><path id="Shape" d="m58 0h-54c-1.70524172.05441563-3.04599736 1.47651044-3 3.182v43.636c-.04599736 1.7054896 1.29475828 3.1275844 3 3.182h17.382l-2 4h-3.382c-1.6568542 0-3 1.3431458-3 3s1.3431458 3 3 3h30c1.6568542 0 3-1.3431458 3-3s-1.3431458-3-3-3h-3.382l-2-4h17.382c1.7052417-.0544156 3.0459974-1.4765104 3-3.182v-43.636c.0459974-1.70548956-1.2947583-3.12758437-3-3.182zm-11 57c0 .5522847-.4477153 1-1 1h-30c-.5522847 0-1-.4477153-1-1s.4477153-1 1-1h30c.5522847 0 1 .4477153 1 1zm-6.618-3h-18.764l2-4h14.764zm17.618-6h-54c-.59661794-.0616152-1.03807599-.5834187-1-1.182v-2.818h43c.5522847 0 1-.4477153 1-1s-.4477153-1-1-1h-4.968c-.0595303-.29256-.1978408-.5633028-.4-.783-.3863739-.3889232-.6120287-.9091431-.632-1.457l.029-3.324c.1017716-.1397379.1952653-.2853209.28-.436h2.691c1.9998264.1318195 3.9929261-.3424957 5.719-1.361.4055321.1149761.8176085.2054726 1.234.271 1.0161047.1395437 1.9750217-.5060467 2.228-1.5l.568-2.3c.2516137-.9549495-.2438429-1.9484297-1.158-2.322-1.4944647-.6300488-2.8643258-1.5220671-4.045-2.634.2895241-.5186206.4455386-1.1010977.454-1.695.0166326-.8526749.2179222-1.6916088.59-2.459.2136324-.4371512.1793754-.9548126-.09-1.36-.2604653-.4139633-.7257799-.6531365-1.214-.624-3.052.125-4.623 1.076-5.435 2.1-.7-.4-1.391-.771-2.074-1.1l3.874-4.169c.5640394.7251003 1.4303577 1.1503302 2.349 1.153h8c1.6568542 0 3-1.3431458 3-3v-8c0-1.65685425-1.3431458-3-3-3h-8c-1.6568542 0-3 1.34314575-3 3v7.607l-5.164 5.557c-3.1282446-1.2866614-6.4565969-2.018926-9.836-2.164-1.6789127.0017479-3.3516598.2031623-4.983.6l-4.017-4.014v-7.586c0-1.65685425-1.3431458-3-3-3h-8c-1.65685425 0-3 1.34314575-3 3v8c0 1.6568542 1.34314575 3 3 3h8c.9395509-.0023592 1.8231592-.446942 2.385-1.2l2.459 2.459c-4.729 1.721-8.225 5.025-8.765 8.742h-1.579c-1.38071187 0-2.5-1.1192881-2.5-2.5s1.11928813-2.5 2.5-2.5h.5c.5522847 0 1-.4477153 1-1s-.4477153-1-1-1h-.5c-2.48528137 0-4.5 2.0147186-4.5 4.5s2.01471863 4.5 4.5 4.5h1.535c.1334485 2.0042476.7016026 3.9554217 1.665 5.718.2026254.3977304.3159327.8349189.332 1.281.0288183 1.682777.2298668 3.3581808.6 5h-11.632v-38.818c-.03807599-.59858134.40338206-1.12038476 1-1.182h54c.5966179.06161524 1.038076.58341866 1 1.182v38.818h-9c-.5522847 0-1 .4477153-1 1s.4477153 1 1 1h9v2.818c.038076.5985813-.4033821 1.1203848-1 1.182zm-41.533-6.806c-.2550068-1.4127047-.4011034-2.8429131-.437-4.278-.0250736-.7410522-.2146506-1.4672516-.555-2.126-.9841898-1.7699346-1.4924086-3.7649086-1.475-5.79 0-4.288 6.1-9 14-9 4.6011462.2627878 9.073238 1.6193281 13.045 3.957-.1817115 1.1538307.2241456 2.3222641 1.082 3.115 1.0895276 1.0153712 2.7076301 1.2169788 4.013.5 1.3579428 1.292543 2.941037 2.3255705 4.671 3.048l-.568 2.311c-1.3203239-.1646639-2.5562228-.7376874-3.535-1.639-.3923789-.3789722-1.0160848-.3735524-1.4018186.0121814s-.3911536 1.0094397-.0121814 1.4018186c.3240427.3208868.6787359.6092635 1.059.861-1.0891856.3138033-2.2198279.4598123-3.353.433h-2.04c.0218904-.1658713.0352414-.3327581.04-.5v-1.5c0-.5522847-.4477153-1-1-1s-1 .4477153-1 1v1.5c.0091675.6167588-.1855813 1.2192848-.554 1.714-.2837755.3557284-.4407316.7959797-.446 1.251v3.295c.0076546.8002109.2534324 1.5800161.706 2.24h-1.256c-.4659183.0008723-.8707031-.3201353-.976-.774-.2933025-1.5836269-.4498793-3.1895429-.468-4.8-.0188633-.4400069-.1755857-.8629474-.448-1.209-.370475-.495025-.5666787-1.0987556-.558-1.717v-1.5c0-.5522847-.4477153-1-1-1s-1 .4477153-1 1v1.5c.0035047.6375486.1312184 1.2683044.376 1.857-1.7595518.430131-3.5646397.6460297-5.376.643-2.4541571.0501866-4.8871513-.462959-7.112-1.5.0706716-.3287506.1081927-.6637605.112-1v-1.5c0-.5522847-.4477153-1-1-1s-1 .4477153-1 1v1.5c.0087722.6156087-.1848064 1.2170725-.551 1.712-.2856132.355683-.4437071.796867-.449 1.253v3.295c.0076546.8002109.2534324 1.5800161.706 2.24h-1.256c-.4782437.0009556-.8902215-.3368411-.983-.806zm29.533-16.753c.0149235.6025151-.3301066 1.1561269-.8775943 1.4081278-.5474876.2520008-1.1924206.1540551-1.6404057-.2491278-.954-.883-.8-3.056 2.918-3.513-.2548125.7591223-.389765 1.5533182-.4 2.354zm-24.968 17.559c-.0595303-.29256-.1978408-.5633028-.4-.783-.3863739-.3889232-.6120287-.9091431-.632-1.457l.031-3.325c.024-.032.041-.069.064-.1 2.4755857 1.1444424 5.1781145 1.7136657 7.905 1.665 2.0340868.0027055 4.0605109-.2492537 6.032-.75.0443928 1.4773311.2072487 2.9487188.487 4.4.0284597.1193013.0648744.2365635.109.351zm23.968-27v-8c0-.55228475.4477153-1 1-1h8c.5522847 0 1 .44771525 1 1v8c0 .5522847-.4477153 1-1 1h-8c-.5522847 0-1-.4477153-1-1zm-28 0c0 .5522847-.4477153 1-1 1h-8c-.55228475 0-1-.4477153-1-1v-8c0-.55228475.44771525-1 1-1h8c.5522847 0 1 .44771525 1 1z"/><path id="Shape" d="m14 8h-4c-.55228475 0-1 .44771525-1 1s.44771525 1 1 1h4c.5522847 0 1-.44771525 1-1s-.4477153-1-1-1z"/><path id="Shape" d="m12 12h-2c-.55228475 0-1 .4477153-1 1s.44771525 1 1 1h2c.5522847 0 1-.4477153 1-1s-.4477153-1-1-1z"/><path id="Shape" d="m48 10h4c.5522847 0 1-.44771525 1-1s-.4477153-1-1-1h-4c-.5522847 0-1 .44771525-1 1s.4477153 1 1 1z"/><path id="Shape" d="m48 14h2c.5522847 0 1-.4477153 1-1s-.4477153-1-1-1h-2c-.5522847 0-1 .4477153-1 1s.4477153 1 1 1z"/><path id="Shape" d="m24.249 24.461c1.2131445-.3085146 2.4602432-.463394 3.712-.461 2.6349663.1570656 5.2261867.7462557 7.67 1.744.3320784.131831.7092624.0764862.9894706-.1451866s.4208702-.5759962.369-.9295c-.0518701-.3535038-.2883922-.6524824-.6204706-.7843134-2.6740424-1.0852335-5.5087327-1.7221097-8.39-1.885-1.4256704-.0033493-2.8461179.1723588-4.228.523-.5351639.1380712-.8570712.6838361-.719 1.219s.6838361.8570712 1.219.719z"/></g></g></svg>