<svg height="512" viewBox="0 0 60 60" width="512" xmlns="http://www.w3.org/2000/svg"><g id="Page-1" fill="none" fill-rule="evenodd"><g id="050---Apple-Bucket" fill="rgb(0,0,0)" fill-rule="nonzero"><path id="Shape" d="m57 22.142v-.142c0-1.6568542-1.3431458-3-3-3 0-4.963-3.141-9-7-9-.92216-.00024238-1.8304434.2245972-2.646.655-.1149897.0530935-.2332263.0988518-.354.137v-.668c.3597919-1.33683471 1.6195638-2.22875329 3-2.124h2c2.209139 0 4-1.790861 4-4v-1c0-.55228475-.4477153-1-1-1h-2c-2.209139 0-4 1.790861-4 4v.086c-.7167799.11257639-1.399771.38235789-2 .79v-1.876c0-.55228475-.4477153-1-1-1s-1 .44771525-1 1v5.792c-.1219405-.0383945-.2412019-.0848296-.357-.139-.9858319-.5066317-2.0971194-.71742904-3.2-.607-1.1318531-1.27042945-2.7418489-2.01183198-4.443-2.046-.9217299.00104784-1.829293.22690885-2.644.658-.1156391.0526111-.2345529.09770481-.356.135v-.669c.3597919-1.33683471 1.6195638-2.22875329 3-2.124h2c2.209139 0 4-1.790861 4-4v-1c0-.55228475-.4477153-1-1-1h-2c-2.209139 0-4 1.790861-4 4v.086c-.7167799.11257639-1.399771.38235789-2 .79v-1.876c0-.55228475-.4477153-1-1-1s-1 .44771525-1 1v5.793c-.1211202-.03729892-.2397011-.08239305-.355-.135-.8151075-.43098382-1.7229664-.65683303-2.645-.658-1.6993991.03554911-3.3073222.77683137-4.438 2.046-1.1057437-.11190664-2.2201928.099658-3.208.609-.1149897.0530935-.2332263.0988518-.354.137v-5.792c0-.55228475-.4477153-1-1-1s-1 .44771525-1 1v1.876c-.600229-.40764211-1.2832201-.67742361-2-.79v-.086c0-2.209139-1.790861-4-4-4h-2c-.55228475 0-1 .44771525-1 1v1c0 2.209139 1.790861 4 4 4h2c1.381651-.10566487 2.6424467.78823926 3 2.127v.665c-.1219405-.0383945-.2412019-.0848296-.357-.139-.8148505-.4291966-1.7220272-.6533307-2.643-.653-3.859 0-7 4.037-7 9-1.65685425 0-3 1.3431458-3 3v.142c-1.76068514.4545933-2.99318518 2.0395884-3 3.858v5c.00962641 5.4100306 3.94901993 10.0111473 9.293 10.854l3.113 14.888c.5132031 1.9771727 2.3316478 3.3319618 4.373 3.258h26.442c2.0413522.0739618 3.8597969-1.2808273 4.373-3.258l3.113-14.888c5.3439801-.8428527 9.2833736-5.4439694 9.293-10.854v-5c-.0068148-1.8184116-1.2393149-3.4034067-3-3.858zm-7-18.142h1c0 1.1045695-.8954305 2-2 2h-1c0-1.1045695.8954305-2 2-2zm-13-2h1c0 1.1045695-.8954305 2-2 2h-1c0-1.1045695.8954305-2 2-2zm-28 2h1c1.1045695 0 2 .8954305 2 2h-1c-1.1045695 0-2-.8954305-2-2zm33.99 9h.01.011c.7923613-.0038331 1.5719741-.1997657 2.272-.571.5288852-.2806188 1.1182804-.4278818 1.717-.429 2.757 0 5 3.141 5 7h-11.181c.11833-.6601412.1788926-1.3293406.181-2 .0096082-1.6914942-.3759652-3.3618559-1.126-4.878.2910541.0658265.5730952.1665554.84.3.7005163.374521 1.4816682.5728979 2.276.578zm-16.99-3c.5999164.0021183 1.1902801.1503956 1.72.432.6971201.3672117 1.4721011.5619857 2.26.568h.02.021c.7874765-.0055143 1.5622684-.1988695 2.26-.564.5289636-.2831022 1.1190509-.4327695 1.719-.436 1.2559015.042551 2.4281219.6403834 3.2 1.632.0247393.0348305.0514496.0682183.08.1 1.1542355 1.5100914 1.7607583 3.3677436 1.72 5.268.0004895.6073891-.0567681 1.2134492-.171 1.81-.0070012.0631398-.0070012.1268602 0 .19h-13.529c.0044851-.1078173-.0090335-.2156281-.04-.319-.1771031-.5425618-.2649129-1.1102858-.26-1.681-.0406985-.9619332.2358171-1.9105893.787-2.7.3410358-.4346481.2651481-1.0634642-.1695-1.4045s-1.0634642-.2651481-1.4045.1695c-.8218764 1.1446656-1.2477675 2.526266-1.213 3.935.0027696.6767272.0993559 1.3498023.287 2h-2.118c.0070012-.0631398.0070012-.1268602 0-.19-.1135608-.596615-.1701487-1.2026745-.169-1.81-.0407215-1.8982172.563912-3.7540718 1.715-5.264.0295985-.0334286.0573083-.0684831.083-.105.7725182-.9917682 1.9455575-1.5892782 3.202-1.631zm-13 2c.5973644.0004134 1.1856435.1462819 1.714.425.7007821.373478 1.4819195.5708216 2.276.575h.01.011c.7923613-.0038331 1.5719741-.1997657 2.272-.571.2679706-.1334019.5509989-.2341238.843-.3-.7489731 1.5140273-1.1345179 3.1818681-1.126 4.871.0021074.6706594.06267 1.3398588.181 2h-11.181c0-3.859 2.243-7 5-7zm-8 10c0-.5522847.44771525-1 1-1h48c.5522847 0 1 .4477153 1 1v2c0 .5522847-.4477153 1-1 1h-48c-.55228475 0-1-.4477153-1-1zm44 18h-33.965l-1.089-5.2c-.0663086-.3565514-.3204627-.6492567-.6641851-.7649316s-.7231329-.0361868-.9915197.2077277c-.2683869.2439144-.3836792.6140203-.3012952.9672039l1 4.8h-1.989c-.018 0-.034 0-.052 0l-2.718-13.01h43.54l-2.718 13c-.018 0-.034 0-.052 0zm-47-9v-5c.00262613-.7219697.39549895-1.3860663 1.027-1.736.13308209 1.5442193 1.42306363 2.7313668 2.973 2.736h.188l2.661 12.729c-4.01666319-.991592-6.841446-4.5917569-6.849-8.729zm43.637 25.332c-.3190897 1.050449-1.3206476 1.7419219-2.416 1.668h-26.442c-1.0953524.0739219-2.0969103-.617551-2.416-1.668l-2.996-14.332h2.043l2.761 13.2c.0948268.4645638.5028588.798674.977.8.0691957-.0001029.138207-.0071381.206-.021.2596782-.0543128.4871317-.2095876.6322952-.4316465.1451636-.222059.1961386-.4927007.1417048-.7523535l-2.675-12.795h33.18zm12.363-25.332c-.007554 4.1372431-2.8323368 7.737408-6.849 8.729l2.661-12.729h.188c1.5499364-.0046332 2.8399179-1.1917807 2.973-2.736.631501.3499337 1.0243739 1.0140303 1.027 1.736z"/><circle id="Oval" cx="12" cy="31" r="1"/></g></g></svg>