<svg height="512" viewBox="0 0 60 46" width="512" xmlns="http://www.w3.org/2000/svg"><g id="Page-1" fill="none" fill-rule="evenodd"><g id="054---Farm-Truck" fill="rgb(0,0,0)" fill-rule="nonzero"><path id="Shape" d="m46 36c-1.6568542 0-3 1.3431458-3 3s1.3431458 3 3 3 3-1.3431458 3-3-1.3431458-3-3-3zm0 4c-.5522847 0-1-.4477153-1-1s.4477153-1 1-1 1 .4477153 1 1-.4477153 1-1 1z"/><path id="Shape" d="m14 36c-1.6568542 0-3 1.3431458-3 3s1.3431458 3 3 3 3-1.3431458 3-3-1.3431458-3-3-3zm0 4c-.5522847 0-1-.4477153-1-1s.4477153-1 1-1 1 .4477153 1 1-.4477153 1-1 1z"/><path id="Shape" d="m39 20h-3c-.5522847 0-1 .4477153-1 1s.4477153 1 1 1h3c.5522847 0 1-.4477153 1-1s-.4477153-1-1-1z"/><path id="Shape" d="m23 24h-17c-1.1045695 0-2 .8954305-2 2v2c0 .5522847.44771525 1 1 1s1-.4477153 1-1v-2h17v2c0 .5522847.4477153 1 1 1s1-.4477153 1-1v-2c0-1.1045695-.8954305-2-2-2z"/><path id="Shape" d="m59.571 20.609c-1.0062992-2.762887-3.6305658-4.6035878-6.571-4.609h-7.3l-4.284-12.009c-.4280019-1.19311762-1.5584381-1.98954315-2.826-1.991h-8.59c-1.2667854.00525139-2.3937454.80564913-2.816 2h-3.184v-2c0-1.1045695-.8954305-2-2-2h-2c-1.1045695 0-2 .8954305-2 2v2h-9v-2c0-1.1045695-.8954305-2-2-2h-2c-1.1045695 0-2 .8954305-2 2v2h-1c-1.1045695 0-2 .8954305-2 2v2c0 1.1045695.8954305 2 2 2h1v2h-1c-1.1045695 0-2 .8954305-2 2v2c0 1.1045695.8954305 2 2 2h1v2h-1c-1.1045695 0-2 .8954305-2 2v14.02c.00165206 1.0928388.88716123 1.9783479 1.98 1.98h1.45c.70351444-.00407 1.35052968-.3860153 1.694-1h2.176c-.74858393 2.4893906-.04836243 5.1884823 1.816 7h-8.116c-.55228475 0-1 .4477153-1 1s.44771525 1 1 1h23c.5522847 0 1-.4477153 1-1s-.4477153-1-1-1h-5.111c1.8643624-1.8115177 2.5645839-4.5106094 1.816-7h2.171c.3434703.6139847.9904856.99593 1.694 1h10.861c.7033988-.0044883 1.3502193-.3863186 1.694-1h2.175c-.7485839 2.4893906-.0483624 5.1884823 1.816 7h-13.116c-.5522847 0-1 .4477153-1 1s.4477153 1 1 1h31c.5522847 0 1-.4477153 1-1s-.4477153-1-1-1h-8.111c1.8643624-1.8115177 2.5645839-4.5106094 1.816-7h2.17c.3437807.6136814.9906012.9955117 1.694 1h1.451c1.0928388-.0016521 1.9783479-.8871612 1.98-1.98v-13.02c-.001696-.8145989-.146567-1.6225592-.428-2.387zm-1.571 2.391.0000025 1h-4.0000025c-.5522847 0-1-.4477153-1-1v-1h4.9c.0668333.3291289.1003359.6641542.1 1zm-16.665-13.29-4.783 2.395c-.3197527.1607695-.5294469.4799127-.5500927.8372114-.0206459.3572988.1508931.6984708.45.895.2991068.1965292.68034.2185581 1.0000927.0577886l4.564-2.287 1.565 4.392h-9.581v-8h6.724zm-32.335 10.29v-2h9v2zm11-2h2v2h-2zm4 0h3v2h-3zm-15-6v-2h9v2zm11-2h2v2h-2zm4 0h3v2h-3zm-4-8h2v2h-2zm-15 0h2v2h-2zm-3 4h25v2h-25zm3 4h2v2h-2zm-3 4h25v2h-25zm3 4h2v2h-2zm9 26c-2.7614237 0-5-2.2385763-5-5s2.2385763-5 5-5 5 2.2385763 5 5c-.0033061 2.7600532-2.2399468 4.9966939-5 5zm0-12c-2.2876831.0012636-4.43001482 1.1217299-5.736 3h-2.322c1.51754791-3.0625906 4.6400455-5.0001708 8.058-5.0001708s6.5404521 1.9375802 8.058 5.0001708h-2.322c-1.3059852-1.8782701-3.4483169-2.9987364-5.736-3zm10.467 3.64c0-.014-.007-.027-.013-.041-1.4955387-4.6073775-5.829011-7.6941502-10.6721555-7.6018757-4.84314451.0922745-9.05589251 3.3418749-10.3748445 8.0028757l-1.407.02v-14.02h25v13.993l-2.421-.015c-.033-.115-.079-.225-.112-.338zm21.533 8.36c-2.7614237 0-5-2.2385763-5-5s2.2385763-5 5-5 5 2.2385763 5 5c-.0033061 2.7600532-2.2399468 4.9966939-5 5zm0-12c-2.2876831.0012636-4.4300148 1.1217299-5.736 3h-2.319c1.5161016-3.0625276 4.6377439-5.0003793 8.055-5.0003793s6.5388984 1.9378517 8.055 5.0003793h-2.319c-1.3059852-1.8782701-3.4483169-2.9987364-5.736-3zm10.578 3.978c-.032-.112-.073-.219-.109-.328-.0049442-.0183349-.0109544-.0363656-.018-.054-1.4850312-4.5179349-5.695295-7.5780405-10.451-7.596-.6711662.0020834-1.3406954.0663582-2 .192v-7.192c0-.5522847-.4477153-1-1-1s-1 .4477153-1 1v7.77c-3.0395996 1.1972271-5.391718 3.6808326-6.422 6.781-.0327802.070511-.0569541.1447113-.072.221-.024.077-.053.151-.075.228h-2.431v-15c0-.5522847-.4477153-1-1-1s-1 .4477153-1 1v15h-2v-31c0-.55228475.4477153-1 1-1h8.59c.4225368-.00020929.7996051.26517957.942.663l.478 1.337h-6.01c-1.1045695 0-2 .8954305-2 2v8c0 1.1045695.8954305 2 2 2h19c1.5654908.0045607 3.037602.7454319 3.974 2h-3.974c-1.1045695 0-2 .8954305-2 2v1c0 1.6568542 1.3431458 3 3 3h4v10z"/></g></g></svg>