<svg height="512" viewBox="0 0 48 60" width="512" xmlns="http://www.w3.org/2000/svg"><g id="Page-1" fill="none" fill-rule="evenodd"><g id="055---Sunflower" fill="rgb(0,0,0)" fill-rule="nonzero" transform="translate(-1 -1)"><path id="Shape" d="m1.308 26.06c1.06954878 1.6400633 2.4343511 3.0672565 4.025 4.209-.81165853 1.7878398-1.28044522 3.7121718-1.382 5.673-.02335268.7641083.39285711 1.4741132 1.071 1.827 1.74416233.8831072 3.63734997 1.4341425 5.583 1.625.1915103 1.9490194.7442644 3.8453389 1.63 5.592.3478768.6613498 1.0367824 1.0722218 1.784 1.064h.056c1.9552472-.1031312 3.8737793-.5722489 5.656-1.383.6623905.9239962 1.4231856 1.7733105 2.269 2.533v8.235c-.545-.242-1.223-.53-2.006-.842.0126058-.7563968-.1232935-1.5079201-.4-2.212-.726941-1.7727865-2.1257409-3.1859662-3.891-3.931-2.479-1.073-6.9.051-9.3.817-.55056393.1722423-1.00045481.5729548-1.235 1.1-.22827254.5187525-.2228098 1.1105498.015 1.625 1.293 2.794 3.329 6.338 5.682 7.36.9611617.4237169 1.9995911.6440001 3.05.647 2.3750287.0943498 4.581848-1.2222119 5.627-3.357.01-.021.012-.043.021-.063 1.077.435 1.923.814 2.437 1.053v1.368c0 1.1045695.8954305 2 2 2h2c1.1045695 0 2-.8954305 2-2v-.369c.514-.239 1.36-.618 2.437-1.053.009.021.012.043.021.064 1.0448609 2.1351776 3.2517421 3.4521684 5.627 3.358 1.0493302-.0030693 2.0866992-.2230038 3.047-.646 2.482-1.078 4.627-5.075 5.684-7.361.2390366-.5141015.2448674-1.1062914.016-1.625-.2344316-.5267524-.6838787-.9273941-1.234-1.1-2.409-.766-6.821-1.89-9.308-.815-1.7644911.74325-3.1630354 2.1547371-3.89 3.926-.2768067.7040515-.4127097 1.4555948-.4 2.212-.783.312-1.461.6-2.006.842v-9.233c.845759-.7593764 1.6065521-1.6083531 2.269-2.532 1.7884338.8122756 3.7134118 1.2817328 5.675 1.384h.062c.7444287.0022431 1.4277936-.4114029 1.771-1.072.8847855-1.7448383 1.4371867-3.6390758 1.629-5.586 1.9485986-.1913881 3.8445525-.7437953 5.591-1.629.6781406-.358956 1.0911439-1.0742328 1.063-1.841-.1035608-1.9548627-.5726621-3.8729883-1.383-5.655 1.5929899-1.1439386 2.9592385-2.5742778 4.029-4.218.4080596-.6447798.40572-1.4675513-.006-2.11-1.0688472-1.6409007-2.433754-3.0685423-4.025-4.21.8122756-1.7884338 1.2817328-3.7134118 1.384-5.675.0221422-.7635554-.3943056-1.4725267-1.072-1.825-1.743486-.8830222-3.6360029-1.4340596-5.581-1.625-.1915103-1.94901936-.7442644-3.84533888-1.63-5.592-.3630454-.67369824-1.0750253-1.08502141-1.84-1.063-1.9552472.10313119-3.8737793.57224892-5.656 1.383-1.1455599-1.5947095-2.5775452-2.96260636-4.223-4.034-.6459549-.40633582-1.4685332-.40282885-2.111.009-1.6400922 1.06951228-3.0672917 2.43432055-4.209 4.025-1.7884338-.81227559-3.7134118-1.28173279-5.675-1.384-.7630596-.02021382-1.4710838.3956777-1.825 1.072-.8835075 1.74442768-1.4348823 3.63795593-1.626 5.584-1.94901936.1915103-3.84533888.7442644-5.592 1.63-.67846495.357989-1.0914077 1.0734454-1.062 1.84.10371452 1.9547289.57245493 3.8727658 1.382 5.655-1.59422734 1.1441894-2.96180386 2.5748379-4.033 4.219-.40547983.6457328-.40236465 1.4673604.008 2.11zm10.356 31.458c-1.347-.585-3.091-2.965-4.667-6.342l.01-.005c1.9680859-.6832217 4.0247887-1.0776532 6.106-1.171.6127631-.0247955 1.2244084.0713688 1.8.283 1.2765202.5306033 2.2915879 1.5442332 2.824 2.82.0890113.2328827.1559715.4736047.2.719-2.2021918-.7937816-4.468069-1.3983055-6.773-1.807-.5374655-.0766956-1.037947.2894592-1.1275532.8249237-.08960607.5354644.2643999 1.0446116.7975532 1.1470763 2.3370958.4212462 4.6321255 1.0493842 6.858 1.877-.912 1.971-3.599 2.714-6.028 1.654zm20.6-3.416c.5315394-1.2745017 1.5451215-2.287365 2.82-2.818.5754814-.2122101 1.1871105-.3090514 1.8-.285 2.079277.0939091 4.1339673.4886791 6.1 1.172l.01-.02c-1.574 3.4-3.318 5.781-4.669 6.368-2.425 1.059-5.114.315-6.026-1.656 2.2258745-.8276158 4.5209042-1.4557538 6.858-1.877.5331533-.1024647.8871593-.6116119.7975532-1.1470763-.0896062-.5354645-.5900877-.9016193-1.1275532-.8249237-2.304931.4086945-4.5708082 1.0132184-6.773 1.807.0481202-.2465087.1194375-.487916.213-.721zm-24.771-23.702c.68187563-1.2787879 1.58093519-2.4292593 2.657-3.4.2134981 1.6008412.6863576 3.1562113 1.4 4.605l-2.642 1.526c-.31195078.1773616-.50495322.5082732-.5057421.8671183-.00078889.3588451.19075673.6906021.50192468.8693336.31116795.1787314.694247.1770325 1.00381742-.0044519l2.632-1.52c.9054817 1.3375809 2.0196306 2.5212797 3.3 3.506-1.3757051.4483129-2.8188014.6543728-4.265.609-1.95581867-.0824627-3.87251816-.5747539-5.626-1.445.10033391-1.9610228.62724989-3.8765535 1.544-5.613zm17.507-18.4c.6700413.0052606 1.3386835.0620951 2 .17v7.83h-4v-7.83c.6613165-.1079049 1.3299587-.1647394 2-.17zm0 26c-.6700413-.0052606-1.3386835-.0620951-2-.17v-7.83h4v7.83c-.6613165.1079049-1.3299587.1647394-2 .17zm-13-13c.0036114-1.0107332.1254392-2.0175747.363-3h2.637v6h-2.637c-.2375608-.9824253-.3593886-1.9892668-.363-3zm26 0c-.0036114 1.0107332-.1254392 2.0175747-.363 3h-2.637v-6h2.637c.2375608.9824253.3593886 1.9892668.363 3zm-5 3h-4v-6h4zm-6 0h-4v-6h4zm-6 0h-4v-6h4zm-8 2h2v3.3c-.8271187-.9943816-1.5012095-2.1066316-2-3.3zm4 5.226v-5.226h4v7.364c-1.448313-.4727726-2.802248-1.1964509-4-2.138zm12-5.226h4v5.226c-1.197752.9415491-2.551687 1.6652274-4 2.138zm6 0h2c-.4987905 1.1933684-1.1728813 2.3056184-2 3.3zm2-10h-2v-3.295c.8266946.9928494 1.5007689 2.1033867 2 3.295zm-4-5.226v5.226h-4v-7.364c1.448313.4727726 2.802248 1.1964509 4 2.138zm-12 5.226h-4v-5.226c1.197752-.9415491 2.551687-1.6652274 4-2.138zm-6 0h-2c.4992311-1.1916133 1.1733054-2.3021506 2-3.295zm-.991 24.062c-.7348287-1.4471826-1.206181-3.0136161-1.392-4.626 1.5753434-.0614677 3.1296638-.3831445 4.6-.952.2459255 1.557692.7451943 3.0646191 1.478 4.461-1.4848561.6429123-3.0707885 1.0209504-4.686 1.117zm9.991 14.938v-10.28c.3021742.1813636.6475822.2780779 1 .28.3524473-.004566.6974282-.1021956 1-.283v10.283zm2.32-12.975c-.0114278.0081094-.0224417.016787-.033.026-.4046046.3418173-.8275672.6612926-1.267.957-1.6486537-1.0726503-3.0470111-2.4877198-4.1-4.149-.7626901-1.2257102-1.3061391-2.574858-1.606-3.987 1.493216.6108802 3.0759098.9746363 4.686 1.077v3.051c0 .5522847.4477153 1 1 1s1-.4477153 1-1v-3.051c1.6111068-.1020412 3.1948394-.4658032 4.689-1.077-.2976294 1.4109292-.8390766 2.7591326-1.6 3.984-.7566932 1.1908367-1.6904072 2.2594318-2.769 3.169zm4.989-3.08c.7330885-1.3962608 1.2323731-2.9032355 1.478-4.461 1.4702047.5694453 3.0245687.891469 4.6.953-.1887427 1.6047981-.6511009 3.1653837-1.367 4.614-1.6239025-.0835221-3.2195869-.4581404-4.711-1.106zm7.114-5.484c-1.44673.0519744-2.8911852-.153554-4.266-.607 1.2805178-.9853368 2.3946735-2.1697181 3.3-3.508l2.632 1.52c.3095704.1814844.6926495.1831833 1.0038174.0044519.311168-.1787315.5027136-.5104885.5019247-.8693336s-.1937913-.6897567-.5057421-.8671183l-2.642-1.526c.714991-1.449543 1.1888735-3.0059585 1.403-4.608 1.0759756.9710741 1.9753124 2.1214672 2.658 3.4.9096427 1.7319738 1.4394273 3.6380391 1.554 5.591-1.7515891.8911177-3.6752882 1.3925962-5.639 1.47zm8.585-12.481c-.8874075 1.3641978-2.0105985 2.5595142-3.317 3.53-.8408541-1.3325945-1.8944943-2.5183198-3.119-3.51 1.2245057-.9916802 2.2781459-2.1774055 3.119-3.51 1.2954395.966971 2.4170821 2.1471135 3.317 3.49zm-4.5-5.379c-.682563 1.2783207-1.581923 2.4284051-2.658 3.399-.2134981-1.6008412-.6863576-3.1562113-1.4-4.605l2.642-1.526c.3119508-.1773616.5049532-.5082732.5057421-.8671183s-.1907567-.6906021-.5019247-.8693336c-.3111679-.1787314-.694247-.1770325-1.0038174.0044519l-2.632 1.52c-.9051974-1.3378085-2.0193863-2.5215497-3.3-3.506 1.3757419-.4481546 2.8188104-.6542106 4.265-.609 1.9558405.0823147 3.8725703.5746138 5.626 1.445-.10078 1.9609509-.62767 3.8763871-1.544 5.613zm-6.517-13.663c.735271 1.44849638 1.2069549 3.01626134 1.393 4.63-1.5754834.0618874-3.1298433.3842481-4.6.954-.2456398-1.55980342-.7452617-3.06880344-1.479-4.467 1.4848561-.64291233 3.0707885-1.02095041 4.686-1.117zm-11.011-2.946c1.6486537 1.07265032 3.0470111 2.48771978 4.1 4.149.7626901 1.2257102 1.3061391 2.57485795 1.606 3.987-1.493216-.6108802-3.0759098-.9746363-4.686-1.077v-3.051c0-.55228475-.4477153-1-1-1s-1 .44771525-1 1v3.051c-1.6111068.1020412-3.1948394.4658032-4.689 1.077.2991776-1.41125219.842324-2.75947347 1.605-3.984 1.0528248-1.65025954 2.4366697-3.06406957 4.064-4.152zm-6.289 4.063c-.7340218 1.39807622-1.2336595 2.90712402-1.479 4.467-1.469904-.5707511-3.0243766-.8934732-4.6-.955.1889399-1.60615927.6516316-3.16808199 1.368-4.618 1.6239025.08352211 3.2195869.45814044 4.711 1.106zm-7.114 5.484c1.4463771-.0514944 2.8904198.1540235 4.265.607-1.2803203.9855549-2.3944438 2.1699019-3.3 3.508l-2.632-1.52c-.30957042-.1814844-.69264947-.1831833-1.00381742-.0044519-.31116795.1787315-.50271357.5104885-.50192468.8693336.00078888.3588451.19379132.6897567.5057421.8671183l2.642 1.526c-.7146449 1.4496033-1.1881889 3.0060163-1.402 4.608-1.07642224-.9706579-1.97582406-2.1211343-2.658-3.4-.91010223-1.7317916-1.4399149-3.6379581-1.554-5.591 1.75164553-.8909691 3.67531155-1.3924391 5.639-1.47zm-5.268 8.951c.84089748 1.3325619 1.8945318 2.5182806 3.119 3.51-1.22451282.9919647-2.27843996 2.1776328-3.12 3.51-1.29437949-.9674539-2.41556599-2.1471342-3.316-3.489.88734705-1.3645293 2.01053828-2.5601845 3.317-3.531z"/></g></g></svg>