<svg height="60" viewBox="0 0 61 60" width="61" xmlns="http://www.w3.org/2000/svg"><g id="Page-1" fill="none" fill-rule="evenodd"><g id="056---Farmers-Market" fill="rgb(0,0,0)" fill-rule="nonzero"><path id="Shape" d="m59.8 8.4-2.8-3.733v-1.667c0-1.65685425-1.3431458-3-3-3h-48c-1.65685425 0-3 1.34314575-3 3v1.667c-2.945 3.927-3 3.883-3 4.333v3.5c.00035617.9136099.35946146 1.790545 1 2.442v23.336c-.61675126.3544126-.997855 1.0106732-1 1.722v2c.002145.7113268.38324874 1.3675874 1 1.722v2.556c-.61675126.3544126-.997855 1.0106732-1 1.722v2c.002145.7113268.38324874 1.3675874 1 1.722v2.556c-.61675126.3544126-.997855 1.0106732-1 1.722v2c0 1.1045695.8954305 2 2 2h56c1.1045695 0 2-.8954305 2-2v-2c-.002145-.7113268-.3832487-1.3675874-1-1.722v-2.556c.6167513-.3544126.997855-1.0106732 1-1.722v-2c-.002145-.7113268-.3832487-1.3675874-1-1.722v-2.556c.6167513-.3544126.997855-1.0106732 1-1.722v-2c-.002145-.7113268-.3832487-1.3675874-1-1.722v-23.336c.6405385-.651455.9996438-1.5283901 1-2.442 0-3.683.067-3.745-.2-4.1zm-1.8 33.6h-56v-2h56zm0 8h-56v-2h56zm-55 4v-2h54v2zm0-8v-2h54v2zm52.5-40 1.5 2h-2.5l-1.5-2zm-14.5 32v-6h12v6zm-4 0v-4c0-1.1045695-.8954305-2-2-2h-.469c.2763852-1.0251856.4337558-2.0787968.469-3.14-.0087615-1.2804122-.6582805-2.4713221-1.73-3.172l1.285-.856c.297245-.1982824.4661283-.5400812.4430332-.8966441s-.2346599-.6737195-.555-.832-.7007882-.1336383-.9980332.0646441l-1.445.964v-2.132c0-.5522847-.4477153-1-1-1s-1 .4477153-1 1v2.132l-1.445-.964c-.4595009-.306518-1.080482-.1825009-1.387.277s-.1825009 1.080482.277 1.387l1.285.856c-1.0717195.7006779-1.7212385 1.8915878-1.73 3.172.0352442 1.0612032.1926148 2.1148144.469 3.14h-.469c-1.1045695 0-2 .8954305-2 2v4h-2v-6c-.0022009-.7220868-.3951916-1.3863826-1.027-1.736.017-.33.027-.684.027-1.064 0-2.161-1.424-4.3-3.552-4.181.1961515-.4772733.548794-.8736435 1-1.124.4942948-.2468713.6948713-.8477051.448-1.342-.2468713-.4942948-.8477052-.6948713-1.342-.448-1.160332.6459063-1.9882139 1.7581223-2.274 3.055-.9639243-.3322693-2.0322699-.1143099-2.789.569-.5708503-.4790515-1.2981327-.7310906-2.043-.708.1955635-.4781457.548301-.8753281 1-1.126.3197527-.1596977.5300187-.4778505.5515928-.8346134.0215741-.3567628-.1488214-.6979349-.447-.895-.2981787-.1970651-.6788401-.2200843-.9985928-.0603866-1.1607132.6456911-1.98898316 1.7579393-2.275 3.055-.75452965-.2723131-1.59156821-.190409-2.279.223v-9.941c1.64114884.9758758 3.745266.6392171 5-.8.7582943.862786 1.8513443 1.3573286 3 1.3573286s2.2417057-.4945426 3-1.3573286c.7582943.862786 1.8513443 1.3573286 3 1.3573286s2.2417057-.4945426 3-1.3573286c.7582943.862786 1.8513443 1.3573286 3 1.3573286s2.2417057-.4945426 3-1.3573286c.7582943.862786 1.8513443 1.3573286 3 1.3573286s2.2417057-.4945426 3-1.3573286c.7582943.862786 1.8513443 1.3573286 3 1.3573286s2.2417057-.4945426 3-1.3573286c.7582943.862786 1.8513443 1.3573286 3 1.3573286s2.2417057-.4945426 3-1.3573286c1.2545261 1.4395919 3.3589317 1.7762968 5 .8v7.981c-.3414509-.1494948-.6987247-.2598638-1.065-.329-.1095325-1.0379714-.538615-2.0163354-1.228-2.8-.3858675-.3860435-1.0108378-.388722-1.4-.006-.3905686.3833676-.4038849 1.0083443-.03 1.408.3281375.4143423.5453008.9054548.631 1.427-.6973583.1576337-1.3529912.4624365-1.923.894-.6045762-.4604995-1.3070497-.7756374-2.053-.921-.1102015-1.0379836-.5395896-2.0162477-1.229-2.8-.3858675-.3860435-1.0108378-.388722-1.4-.006-.3905686.3833676-.4038849 1.0083443-.03 1.408.3290776.415784.5466074.9086679.632 1.432-1.4722991.3273678-2.7177193 1.3027172-3.388423 2.6536394-.6707036 1.3509222-.6948066 2.9326293-.065577 4.3033606-.8552083.2441201-1.4464724 1.0236433-1.451 1.913v6zm-8-9.14c.074278-1.0497934.9475821-1.8634903 2-1.8634903s1.925722.8136969 2 1.8634903c-.050036 1.0648299-.2310662 2.1194398-.539 3.14h-2.922c-.3079338-1.0205602-.488964-2.0751701-.539-3.14zm6 5.14v4h-8v-4zm-25.017-6.6c.4187375-.0069385.830817-.1059468 1.207-.29.4014426-.2020101.8898895-.0884178 1.161.27-.3136676.8354437-.4273688 1.7327242-.332 2.62h-5.019v-.8c0-1.3.738-2.2 1.4-2.2.423 0 .543.338 1.583.4zm7.058 0c.3989083-.018726.7898366-.1184145 1.149-.293.978-.5 1.81.855 1.81 2.093 0 .287-.008.549-.018.8h-5.964c-.01-.251-.018-.513-.018-.8 0-1.3.738-2.2 1.4-2.2.1907438.016791.3757863.0737009.543.167.3485779.1444616.7207939.2234473 1.098.233zm-10.041 4.6h14v6h-14zm6-22h4v2c0 1.1045695-.8954305 2-2 2s-2-.8954305-2-2zm5.382-4-1 2h-3.764l1-2zm5.337 0-.5 2h-3.6l1-2zm5.281 0v2h-3.719l.5-2zm21.5 0 1.5 2h-3.382l-1-2zm-3.5 6c0 1.1045695-.8954305 2-2 2s-2-.8954305-2-2v-2h4zm-28-2h4v2c0 1.1045695-.8954305 2-2 2s-2-.8954305-2-2zm6 0h4v2c0 1.1045695-.8954305 2-2 2s-2-.8954305-2-2zm6 0h4v2c0 1.1045695-.8954305 2-2 2s-2-.8954305-2-2zm6 0h4v2c0 1.1045695-.8954305 2-2 2s-2-.8954305-2-2zm8.382-4 1 2h-3.764l-1-2zm-6 0 1 2h-3.6l-.5-2zm-5.162 0 .5 2h-3.72v-2zm8.572 24c-1.0877496-1.1930156-1.0311161-3.034331.1278954-4.1582428 1.1590115-1.1239117 3.0011977-1.1239117 4.1602092 0 1.1590115 1.1239118 1.215645 2.9652272.1278954 4.1582428zm6.529-4.47c1.1337102-.7946625 2.6693438-.6853024 3.679.262v4.208h-3.423c.6437267-1.4435108.5483189-3.1094198-.256-4.47zm3.679-13.53c0 1.1045695-.8954305 2-2 2s-2-.8954305-2-2v-2h4zm-6-8v-2h3v2zm-2 0h-4v-2h4zm-6 0h-3v-2h3zm-5 0h-3v-2h3zm-5 0h-3v-2h3zm-5 0h-3v-2h3zm-5 0h-4v-2h4zm-6 0h-3v-2h3zm-.618 2-1 2h-3.382l1.5-2zm-1.382 4v2c0 1.1045695-.8954305 2-2 2s-2-.8954305-2-2v-2zm-6 2.5c-.00000001.8284271-.67157288 1.5-1.5 1.5s-1.49999999-.6715729-1.5-1.5v-2.5h3zm0 3.159v22.341h-2v-22.051c.680583.1154143 1.38022711.0139659 2-.29zm50 22.341v-22.341c.6199342.303444 1.3194106.4048681 2 .29v22.051zm3-25.5c0 .8284271-.6715729 1.5-1.5 1.5s-1.5-.6715729-1.5-1.5v-2.5h3zm-3-9.5v1h-3v-2h2c.5522847 0 1 .44771525 1 1zm-50 0c0-.55228475.44771525-1 1-1h2v2h-3zm-.5 3h2.5l-1.5 2h-2.5zm-2.5 52v-2h56v2z"/><path id="Shape" d="m17 34h-6c-.5522847 0-1 .4477153-1 1s.4477153 1 1 1h6c.5522847 0 1-.4477153 1-1s-.4477153-1-1-1z"/><path id="Shape" d="m49 34h-4c-.5522847 0-1 .4477153-1 1s.4477153 1 1 1h4c.5522847 0 1-.4477153 1-1s-.4477153-1-1-1z"/></g></g></svg>