<svg height="60" viewBox="0 0 48 60" width="48" xmlns="http://www.w3.org/2000/svg"><g id="Page-1" fill="none" fill-rule="evenodd"><g id="059---Seed-Bag" fill="rgb(0,0,0)" fill-rule="nonzero" transform="translate(-1)"><path id="Shape" d="m1.151 48.752c.30705692.7567288 1.04335151 1.2507587 1.86 1.248h28.04c.2389671 3.1516615 1.9656543 6.0007511 4.649 7.671l3.238 2.029c.6500151.4039708 1.4729849.4039708 2.123 0l3.239-2.029c2.9321744-1.8194445 4.711176-5.0292175 4.7-8.48v-5.191c0-1.6568542-1.3431458-3-3-3h-3v-2.278c.6167513-.3544126.997855-1.0106732 1-1.722v-12c0-1.1045695-.8954305-2-2-2h-1s.021-11.154 0-11.228c-.0419768-3.12526442 1.1847731-6.13404886 3.4-8.339.5799249-.57156595.7565905-1.43709353.4470512-2.19021095-.3095394-.75311741-1.0438041-1.2442428-1.8580512-1.24278905h-39.978c-.81558238-.00270019-1.55152685.48890015-1.86134341 1.24335068-.30981656.75445054-.13175821 1.6213879.45034341 2.19264932 2.21331769 2.20294499 3.4399183 5.20847724 3.4 8.331-.018.074-.018 26.387 0 26.461.04197676 3.1252644-1.1847731 6.1340489-3.4 8.339-.58115908.5686665-.75882281 1.4332439-.449 2.185zm44.849-5.752c.5522847 0 1 .4477153 1 1v5.191c.0091905 2.7612097-1.4144868 5.3295827-3.761 6.785l-3.239 2.024-3.239-2.024c-2.3465132-1.4554173-3.7701905-4.0237903-3.761-6.785v-5.191c0-.5522847.4477153-1 1-1h3v7c0 1.6568542 1.3431458 3 3 3s3-1.3431458 3-3v-7zm-5 7c0 .5522847-.4477153 1-1 1s-1-.4477153-1-1v-11h2zm1-13h-4v-12h4zm-35 1v-26c.10107882-3.73987843-1.34158916-7.35649409-3.989-10h39.989c-2.657831 2.63742455-4.1057227 6.25715397-4 10v11h-1c-1.1045695 0-2 .8954305-2 2v12c.002145.7113268.3832487 1.3675874 1 1.722v2.278h-3c-1.6568542 0-3 1.3431458-3 3v4h-28c2.65783096-2.6374246 4.10572272-6.257154 4-10z"/><path id="Shape" d="m22 9h2c.5522847 0 1-.44771525 1-1s-.4477153-1-1-1h-2c-.5522847 0-1 .44771525-1 1s.4477153 1 1 1z"/><path id="Shape" d="m16 9h2c.5522847 0 1-.44771525 1-1s-.4477153-1-1-1h-2c-.5522847 0-1 .44771525-1 1s.4477153 1 1 1z"/><path id="Shape" d="m10 9h2c.5522847 0 1-.44771525 1-1s-.4477153-1-1-1h-2c-.55228475 0-1 .44771525-1 1s.44771525 1 1 1z"/><path id="Shape" d="m34 9h2c.5522847 0 1-.44771525 1-1s-.4477153-1-1-1h-2c-.5522847 0-1 .44771525-1 1s.4477153 1 1 1z"/><path id="Shape" d="m28 9h2c.5522847 0 1-.44771525 1-1s-.4477153-1-1-1h-2c-.5522847 0-1 .44771525-1 1s.4477153 1 1 1z"/><path id="Shape" d="m24 41h-2c-.5522847 0-1 .4477153-1 1s.4477153 1 1 1h2c.5522847 0 1-.4477153 1-1s-.4477153-1-1-1z"/><path id="Shape" d="m29 41h-1c-.5522847 0-1 .4477153-1 1s.4477153 1 1 1h1c.5522847 0 1-.4477153 1-1s-.4477153-1-1-1z"/><path id="Shape" d="m18 41h-2c-.5522847 0-1 .4477153-1 1s.4477153 1 1 1h2c.5522847 0 1-.4477153 1-1s-.4477153-1-1-1z"/><path id="Shape" d="m12 41h-2c-.55228475 0-1 .4477153-1 1s.44771525 1 1 1h2c.5522847 0 1-.4477153 1-1s-.4477153-1-1-1z"/><path id="Shape" d="m23.616 25.813c-.3797674-.5112935-.9790979-.812703-1.616-.812703s-1.2362326.3014095-1.616.812703c-1.544 2.102-3.384 5.076-3.384 7.304 0 2.7614237 2.2385763 5 5 5s5-2.2385763 5-5c0-2.228-1.84-5.202-3.384-7.304zm-1.616 10.187c-1.6234768.0295792-2.9650065-1.2596309-3-2.883 0-1.278 1.12-3.565 3-6.12 1.875 2.555 3 4.842 3 6.12-.0349935 1.6233691-1.3765232 2.9125792-3 2.883z"/><path id="Shape" d="m21 32v1c0 .5522847.4477153 1 1 1s1-.4477153 1-1v-1c0-.5522847-.4477153-1-1-1s-1 .4477153-1 1z"/><path id="Shape" d="m10.591 14.318c-.4505494.4505059-.66122134 1.0877142-.568 1.718.395 2.577 1.2 5.981 2.772 7.558 1.2632911 1.2631125 3.1044828 1.7563188 4.8300158 1.2938328 1.7255331-.4624859 3.0732581-1.8104015 3.5355-3.536.462242-1.7255984-.0312247-3.5667203-1.2945158-4.8298328-1.577-1.576-4.98-2.376-7.557-2.771-.6304439-.0972813-1.269311.1135671-1.718.567zm7.778 7.782c-1.1265142 1.1701138-2.9877088 1.2072482-4.16.083-.9-.905-1.73-3.315-2.2-6.452 3.132.479 5.542 1.305 6.446 2.209 1.1217809 1.1737564 1.083332 3.033608-.086 4.16z"/><path id="Shape" d="m15.54 20.683c.3923789.3789722 1.0160848.3735524 1.4018186-.0121814s.3911536-1.0094397.0121814-1.4018186l-.707-.707c-.2510745-.2599566-.6228779-.3642126-.9725073-.2726972-.3496295.0915155-.6226744.3645604-.7141899.7141899-.0915154.3496294.0127406.7214328.2726972.9725073z"/><path id="Shape" d="m26.217 23.511c1.9080279 1.9496467 5.034203 1.9867778 6.988.083 1.576-1.577 2.377-4.981 2.772-7.558.0932213-.6302858-.1174506-1.2674941-.568-1.718-.448866-.4531472-1.0875839-.6639464-1.718-.567-2.577.4-5.98 1.2-7.557 2.771-1.9022354 1.9547998-1.865122 5.0799263.083 6.989zm1.331-5.574c.9-.9 3.314-1.73 6.452-2.2-.479 3.132-1.306 5.542-2.209 6.447-1.1716721 1.171672-3.0713279 1.171672-4.2429999-.0000001-1.1716721-1.171672-1.1716721-3.0713278-.0000001-4.2429999z"/><path id="Shape" d="m29.753 20.976c.2651948-.0000566.5195073-.1054506.707-.293l.707-.707c.2599566-.2510745.3642126-.6228779.2726972-.9725073-.0915155-.3496295-.3645604-.6226744-.7141899-.7141899-.3496294-.0915154-.7214328.0127406-.9725073.2726972l-.707.707c-.2859079.2859943-.3714219.7160366-.216678 1.0896546.1547439.3736179.5192821.6172591.923678.6173454z"/></g></g></svg>