<svg height="512" viewBox="0 0 60 60" width="512" xmlns="http://www.w3.org/2000/svg"><g id="Page-1" fill="none" fill-rule="evenodd"><g id="063---Hay-Baler" fill="rgb(0,0,0)" fill-rule="nonzero"><path id="Shape" d="m0 56c-.00624131 1.8086432 1.20575631 3.3949141 2.95246555 3.8642072 1.74670923.4692932 3.59050012-.2959705 4.49153445-1.8642072h7.912c3.3743226 2.7374191 8.2220273 2.6752877 11.5250839-.147713s4.1195533-7.6018535 1.9411647-11.3613933c-2.1783886-3.7595397-6.7304653-5.4276822-10.8222486-3.9658937v-26.525h29c.6272939-.0003683 1.2180741-.2950271 1.5957383-.7958939s.498454-1.1499083.3262617-1.7531061l-2.807-9.824c-.6185314-2.14272712-2.5767947-3.62028509-4.807-3.627h-17.291c-2.2303521.0069368-4.1887864 1.48431637-4.808 3.627l-1.82 6.373h-6.389c-1.65685425 0-3 1.3431458-3 3v1h-2c-2.76005315.0033061-4.99669388 2.2399468-5 5v28c.002145.7113268.38324874 1.3675874 1 1.722v3.834c-1.23335224.7089761-1.99550441 2.0214021-2 3.444zm4 2c-1.1045695 0-2-.8954305-2-2s.8954305-2 2-2 2 .8954305 2 2-.8954305 2-2 2zm24-7c0 3.8659932-3.1340068 7-7 7s-7-3.1340068-7-7 3.1340068-7 7-7c3.8641657.0044086 6.9955914 3.1358343 7 7zm-12-15h-3v-4h3zm2.9-24h7.1v2h-7.674zm9.1 0h6v2h-6zm-6.868-7.824c.3723153-1.28512466 1.5470387-2.1711552 2.885-2.176h17.291c1.3380381.00395868 2.5129442.89043427 2.884 2.176l2.808 9.824h-11v-2h2c.5522847 0 1-.4477153 1-1s-.4477153-1-1-1h-2c0-.55228475-.4477153-1-1-1s-1 .44771525-1 1h-6c0-.55228475-.4477153-1-1-1s-1 .44771525-1 1h-6.532zm-11.132 8.824c0-.5522847.4477153-1 1-1h5.817l-.571 2h-6.246zm-7 6c0-1.6568542 1.34314575-3 3-3h10v14h-3c-1.1045695 0-2 .8954305-2 2v4c0 1.1045695.8954305 2 2 2h3v2h-10c-.55228475 0-1 .4477153-1 1s.44771525 1 1 1h10v1.522c-1.300799.8755353-2.3518001 2.074021-3.05 3.478h-9.95zm1 30h8.232c-.5614008 2.4112149-.0940363 4.9473014 1.29 7h-5.522c0-2.209139-1.790861-4-4-4z"/><path id="Shape" d="m54.122 34.619.71-1.064c.306518-.4595009.1825009-1.080482-.277-1.387s-1.080482-.1825009-1.387.277l-.751 1.126c-5.6918605-2.9628531-12.6715393-1.6515821-16.9 3.175l-.984-.815c-.2735117-.2403631-.6560553-.3130622-.9986729-.1897889-.3426176.1232732-.5911512.4230328-.6488248.7825559s.0846293.7219795.3714977.946233l1.039.861c-3.9424846 6.0041403-2.6970798 14.0184081 2.8815507 18.5429819s13.6773791 4.0889245 18.7384493-1.0079819l.926.864c.2580823.2593038.6371654.3569756.9884178.2546684.3512523-.1023071.6185992-.3882606.6970779-.7455924.0784786-.3573319-.0444396-.7289969-.3204957-.969076l-.994-.929c2.2534456-3.0091863 3.1952354-6.8013031 2.6114794-10.5151216-.5837561-3.7138185-2.6435133-7.0341376-5.7114794-9.2068784zm-8.122 23.381c-6.627417 0-12-5.372583-12-12s5.372583-12 12-12 12 5.372583 12 12c-.0071648 6.624447-5.375553 11.9928352-12 12z"/><path id="Shape" d="m21 55c2.209139 0 4-1.790861 4-4s-1.790861-4-4-4-4 1.790861-4 4 1.790861 4 4 4zm0-6c1.1045695 0 2 .8954305 2 2s-.8954305 2-2 2-2-.8954305-2-2 .8954305-2 2-2z"/><path id="Shape" d="m46 36c-5.5228475 0-10 4.4771525-10 10s4.4771525 10 10 10c3.8659932-.0000001 6.9999998-3.1340068 6.9999998-7s-3.1340066-6.9999999-6.9999998-7c-2.7614237 0-5 2.2385763-5 5s2.2385763 5 5 5c.5522847 0 1-.4477153 1-1s-.4477153-1-1-1c-1.6568542-.0000001-2.9999999-1.3431458-2.9999999-3s1.3431457-2.9999999 2.9999999-3c2.7614237 0 5 2.2385763 5 5s-2.2385763 5-5 5c-3.9311646.0005712-7.280206-2.8551405-7.900836-6.7370053-.62063-3.8818647 1.6710871-7.6394172 5.4064667-8.8645681s7.80737.4451969 9.6063693 3.9405734c.1639849.3174305.4848603.5232634.8417557.5399636.3568953.0167001.6955896-.1582697.8885-.459.1929104-.3007304.2107292-.6815331.0467443-.9989636-1.7102947-3.3325075-5.143244-5.4261084-8.889-5.421z"/></g></g></svg>