<svg height="60" viewBox="0 0 60 60" width="60" xmlns="http://www.w3.org/2000/svg"><g id="Page-1" fill="none" fill-rule="evenodd"><g id="064---Watering-Can" fill="rgb(0,0,0)" fill-rule="nonzero"><path id="Shape" d="m21.591 31.633c-.735449-3.2528488-3.1331517-5.8759896-6.307-6.9-.3205408-.096306-.6681112-.0160681-.914.211-1.9238173 1.7816754-3.3134018 4.0639458-4.013 6.591-.58097263 2.5387244-.42731923 5.1903727.443 7.645.1019047.3102906.3649035.5403187.686.6 3.0897193.6732051 6.3092299-.2787683 8.536-2.524l11.478 3.244c.4401645.1409534.81338.4383873 1.049.836l3.992 6.71c.4815681.6770169 1.2908227 1.0416975 2.117.954 2.832 0 7.8-2.355 11.484-4.563 1.187-.711 11.543-7.045 9.615-10.3l-9.2-15.451-1.485-12.286c-.2505224-2.08305535-1.3898303-3.95592259-3.1244486-5.13616847-1.7346184-1.18024588-3.8949638-1.55248483-5.9245514-1.02083153l-11.617 3.08c-3.6831535.95546842-5.9895197 4.60896612-5.268 8.345.3949991 1.9946327.960063 3.9517811 1.689 5.85-2.25 1.965-4 4.136-3.1 5.643.122.2-.992-1.664 6.023 10.071zm-9.3.39c.4385527-1.607249 1.2171-3.1015958 2.283-4.382.4061592 1.631642.4253359 3.3356306.056 4.976-.442519 1.6049966-1.2611277 3.0814405-2.388 4.307-.3382008-1.6183585-.3184051-3.2910984.058-4.901zm1.709 5.938c1.2159686-1.4038685 2.096229-3.0662407 2.574-4.861.425301-1.8200909.4382844-3.7122442.038-5.538 2.021 1.443 3.563 4.056 2.969 6.433-.599 2.405-3.114 3.751-5.581 3.966zm35.117 4.76c-5.838 3.5-10.067 4.576-10.893 4.235l-3.96-6.656c-.4951511-.8267355-1.2788559-1.4408751-2.2-1.724l-10.899-3.076c.2593656-.5650527.4281003-1.1674358.5-1.785 6.188 1.6 5.791 1.534 6.15 1.534.6924296-.0018717 1.3321569-.3700624 1.6816156-.9678423.3494587-.59778.3564526-1.3358629.0183844-1.9401577 2.9-.325 7.367-2.459 10.761-4.493.884-.53 6.852-4.176 9.044-7.347l8.68 14.592c-.079.894-3.034 4.12-8.886 7.628zm-4.745-30.511 1.774 2.978c-.069.889-3.024 4.119-8.882 7.629-5.842 3.5-10.075 4.584-10.9 4.229l-1.783-3c2.9-.331 7.357-2.461 10.746-4.491.887-.528 6.853-4.174 9.045-7.345zm3.749 6.295c-.067.888-3.022 4.119-8.882 7.63s-10.081 4.587-10.9 4.228l-.8-1.338c2.9-.329 7.359-2.462 10.748-4.493.884-.529 6.851-4.176 9.043-7.346l.79 1.314zm-23.021-7.22c-.520065-2.7018896 1.1513573-5.34217615 3.816-6.028l11.619-3.08c1.459387-.38578957 3.0142902-.1222034 4.265.723 1.2677341.85780826 2.1026957 2.22182196 2.29 3.741l.943 7.8c-.318-.533 1.149 1.928-3.105-5.2-.275144-.42904228-.7111299-.72954828-1.21-.834-2.561-.641-8.268 2-12.376 4.461-1.6836173 1.0179635-3.3116073 2.1252104-4.877 3.317-.5800985-1.5958753-1.0364475-3.2340512-1.365-4.9zm7.266 3.3c5.634-3.376 9.772-4.5 10.8-4.261-.27 1.019-3.219 4.141-8.862 7.523s-9.777 4.5-10.8 4.26c.27-1.024 3.22-4.146 8.863-7.527z"/><path id="Shape" d="m58 53h-56c-1.1045695 0-2 .8954305-2 2v3c0 1.1045695.8954305 2 2 2h56c1.1045695 0 2-.8954305 2-2v-3c0-1.1045695-.8954305-2-2-2zm0 5h-56v-3h56z"/><path id="Shape" d="m8 28c-.38210448-.0000769-.76373172.0269912-1.142.081-.54703802.0784245-.92692439.585462-.84849996 1.1325.07842444.547038.58546193.9269244 1.13249996.8485.28414819-.0411688.57088495-.0618887.858-.062.55228475 0 1-.4477153 1-1s-.44771525-1-1-1z"/><path id="Shape" d="m2.4 30.286c-.35682974.3497824-.6802324.7321073-.966 1.142-.30225426.4527072-.18689822 1.0640175.25954997 1.3754423.44644819.3114249 1.05998419.2085612 1.38045003-.2314423.21489362-.3078761.45793902-.5951116.726-.858.26112453-.2487903.36804609-.6189172.27981562-.9686286-.08823047-.3497113-.35794075-.6248158-.70583659-.7199533s-.72006718.0044346-.97397903.2605819z"/><path id="Shape" d="m1 38c.55228475 0 1-.4477153 1-1v-1c0-.5522847-.44771525-1-1-1s-1 .4477153-1 1v1c0 .5522847.44771525 1 1 1z"/><path id="Shape" d="m1 43c.55228475 0 1-.4477153 1-1v-1c0-.5522847-.44771525-1-1-1s-1 .4477153-1 1v1c0 .5522847.44771525 1 1 1z"/><path id="Shape" d="m1 48c.55228475 0 1-.4477153 1-1v-1c0-.5522847-.44771525-1-1-1s-1 .4477153-1 1v1c0 .5522847.44771525 1 1 1z"/><path id="Shape" d="m4 39v1c0 .5522847.44771525 1 1 1s1-.4477153 1-1v-1c0-.5522847-.44771525-1-1-1s-1 .4477153-1 1z"/><path id="Shape" d="m6 44c0-.5522847-.44771525-1-1-1s-1 .4477153-1 1v1c0 .5522847.44771525 1 1 1s1-.4477153 1-1z"/><path id="Shape" d="m5 48c-.55228475 0-1 .4477153-1 1v1c0 .5522847.44771525 1 1 1s1-.4477153 1-1v-1c0-.5522847-.44771525-1-1-1z"/><path id="Shape" d="m10 42c0-.5522847-.44771525-1-1-1s-1 .4477153-1 1v1c0 .5522847.44771525 1 1 1s1-.4477153 1-1z"/><path id="Shape" d="m9 46c-.55228475 0-1 .4477153-1 1v1c0 .5522847.44771525 1 1 1s1-.4477153 1-1v-1c0-.5522847-.44771525-1-1-1z"/><path id="Shape" d="m5.2 33.4c-.27884547.371656-.51374147.7743349-.7 1.2-.21743494.505444.01431006 1.0915902.51860161 1.3116847s1.09165041-.0085596 1.31439839-.5116847c.12332884-.2840663.27974342-.5525891.466-.8.33137085-.4418278.2418278-1.0686292-.2-1.4s-1.06862915-.2418278-1.4.2z"/></g></g></svg>