<svg height="512" viewBox="0 0 60 60" width="512" xmlns="http://www.w3.org/2000/svg"><g id="Page-1" fill="none" fill-rule="evenodd"><g id="065---Plant-Data" fill="rgb(0,0,0)" fill-rule="nonzero"><path id="Shape" d="m9.456 55.148c.07316637.4889298.492627.8510174.987.852.0501924-.0002401.1003095-.0039154.15-.011.5458078-.082223.9217779-.5911253.84-1.137l-1.8-12c-.04741524-.3587172-.28491166-.6638389-.62101825-.7978485-.33610659-.1340097-.71838758-.0760004-.99960863.1516856-.28122105.2276861-.41750906.5895278-.35637312.9461629z"/><path id="Shape" d="m2 40h1.139l2.744 18.3c.14393712.9802022.98729875 1.7050327 1.978 1.7h16.278c.9907012.0050327 1.8340629-.7197978 1.978-1.7l2.744-18.3h1.139c1.1045695 0 2-.8954305 2-2v-4c0-1.1045695-.8954305-2-2-2h-3.726c1.7310709-1.51355 2.724701-3.7005569 2.726-6v-1c0-1.1045695-.8954305-2-2-2h-4c-2.2994431.001299-4.48645.9949291-6 2.726v-5.726h3c4.4162219-.0049599 7.9950401-3.5837781 8-8 0-1.1045695-.8954305-2-2-2h-3c-2.2994431.001299-4.48645.9949291-6 2.726v-11.726c0-.55228475-.4477153-1-1-1s-1 .44771525-1 1v4.187c-1.3389478-1.3969055-3.1900255-2.18681904-5.125-2.187h-2c-1.03507697.00110232-1.87389768.83992303-1.875 1.875.0044088 3.93320121 3.19179879 7.1205912 7.125 7.125h1.875v13.726c-1.51355-1.7310709-3.7005569-2.724701-6-2.726h-4c-1.1045695 0-2 .8954305-2 2v1c.00129899 2.2994431.99492913 4.48645 2.726 6h-3.726c-1.1045695 0-2 .8954305-2 2v4c0 1.1045695.8954305 2 2 2zm11.125-30c-2.7810618-.00234555-5.05399744-2.21984378-5.125-5h1.875c2.7810618.00234555 5.0539974 2.21984378 5.125 5zm11.014 48h-16.278l-2.7-18h21.678zm-1.139-33h4v1c-.0033074 3.3123376-2.6876624 5.9966926-6 6h-4v-1c.0033074-3.3123376 2.6876624-5.9966926 6-6zm0-13h3c-.0033074 3.3123376-2.6876624 5.9966926-6 6h-3c.0033074-3.3123376 2.6876624-5.9966926 6-6zm-18 14v-1h4c3.3123376.0033074 5.9966926 2.6876624 6 6v1h-4c-3.31233757-.0033074-5.99669262-2.6876624-6-6zm-3 8h28v4h-28z"/><path id="Shape" d="m57 0h-20c-1.6568542 0-3 1.34314575-3 3v36c0 1.6568542 1.3431458 3 3 3h9v5c0 .5522847-.4477153 1-1 1h-12c-.5522847 0-1 .4477153-1 1s.4477153 1 1 1h12c1.6568542 0 3-1.3431458 3-3v-5h9c1.6568542 0 3-1.3431458 3-3v-36c0-1.65685425-1.3431458-3-3-3zm-4.309 2-1.282 1.368c-.3785181.40264083-.9063743.63129411-1.459.632h-5.9c-.5527743.00000995-1.0809024-.22876112-1.459-.632l-1.282-1.368zm-16.691 1c0-.55228475.4477153-1 1-1h1.567l2.564 2.735c.7571716.80580401 1.8132755 1.26348524 2.919 1.265h5.9c1.1054262-.0015523 2.1612064-.45925001 2.918-1.265l2.565-2.735h1.567c.5522847 0 1 .44771525 1 1v32c0 .5522847-.4477153 1-1 1h-20c-.5522847 0-1-.4477153-1-1zm21 37h-20c-.5522847 0-1-.4477153-1-1v-1.184c.320257.1184378.6585603.1806856 1 .184h20c.3414397-.0033144.679743-.0655622 1-.184v1.184c0 .5522847-.4477153 1-1 1z"/><path id="Shape" d="m47 20c1.5716052.0007433 3.0803529-.6171248 4.2-1.72.015-.014.034-.018.049-.033s.019-.034.033-.049c1.9989439-2.0412371 2.2813353-5.2088305.6749985-7.5714789-1.6063369-2.36264848-4.6558028-3.26495129-7.2891196-2.15676891s-4.1200003 3.91943921-3.5536103 6.71972991 3.0287364 4.8128123 5.8857314 4.8105179zm4-6c-.0034834.7118154-.1993989 1.4094405-.567 2.019l-2.433-2.433v-3.444c1.7606851.4545933 2.9931852 2.0395884 3 3.858zm-5-3.858v3.858c.0000566.2651948.1054506.5195073.293.707l2.726 2.726c-.6095595.3676011-1.3071846.5635166-2.019.567-2.0117689.0025048-3.7110655-1.4923684-3.9650329-3.4880439-.2539673-1.9956756 1.0167587-3.8685104 2.9650329-4.3699561z"/><path id="Shape" d="m41 33h13c.5522847 0 1-.4477153 1-1s-.4477153-1-1-1h-13v-2h5c.5522847 0 1-.4477153 1-1s-.4477153-1-1-1h-5v-2h9c.5522847 0 1-.4477153 1-1s-.4477153-1-1-1h-9v-2c0-.5522847-.4477153-1-1-1s-1 .4477153-1 1v10c0 1.1045695.8954305 2 2 2z"/></g></g></svg>