<svg height="60" viewBox="0 0 60 60" width="60" xmlns="http://www.w3.org/2000/svg"><g id="Page-1" fill="none" fill-rule="evenodd"><g id="067---Picking-Carrots" fill="rgb(0,0,0)" fill-rule="nonzero"><path id="Shape" d="m57 54h-18.365c.3333333-.5033333.6523333-.994.957-1.472.738-.325 1-.71 2.325-2.031.3114629-.3106668.5504861-.6862747.7-1.1 1.616.074 2.2-.8 3.683-2.281.7669547-.7711446 1.0484987-1.9011619.733-2.942.608-.32.715-.506 2.137-1.928.629155-.6328116.9050101-1.5356102.737-2.412.692-.339.874-.631 2.209-1.966.5667329-.5606881.8856332-1.3247815.8856332-2.122s-.3189003-1.5613119-.8856332-2.122l-.631-.635c-1.3811885-4.6192745-3.5239851-8.9755056-6.34-12.889l2.1-2.532c.9937365-1.1930639 1.207252-2.853426.5477015-4.2590956-.6595504-1.4056696-2.0729907-2.3026522-3.6257015-2.3009044-2.156 0-3.083 1.458-3.992 2.551-.987484-.9273983-2.049378-1.7722312-3.175-2.526v-2.033c-.0091861-1.72458399-1.1226798-3.24911137-2.7627177-3.78254379s-3.4373199.04434721-4.4592823 1.43354379l-3.537-5.563c-.4283516-.67919989-1.1760103-1.09024217-1.979-1.088h-16.914c-.83983444.00043399-1.61542991.44958108-2.03381497 1.17778162s-.41578617 1.62445646.00681497 2.35021838l7.758 13.309c.5480738.9340522.69933 2.0486668.42 3.095l-1.985 7.51c-.9967904 3.7455273.4882494 7.7113862 3.7 9.881l6.221 4.185c1.5144999 4.3821716 3.5316148 8.5741196 6.011 12.492h-24.446c-1.65685425 0-3 1.3431458-3 3s1.34314575 3 3 3h54c1.6568542 0 3-1.3431458 3-3s-1.3431458-3-3-3zm-17.917-3.5c-.1875683.187777-.4420908.2932867-.7075.2932867s-.5199317-.1055097-.7075-.2932867l-2.961-2.971c-.5960495-.5945487-.7529723-1.5000772-.3917348-2.2605182.3612376-.760441 1.1623003-1.2108909 1.9997348-1.1244818.328.441 4.331 4.4 4.432 4.49-.099.366-.114.319-1.664 1.866zm5.8-4.8-1.42 1.42c-.1875683.187777-.4420908.2932867-.7075.2932867s-.5199317-.1055097-.7075-.2932867c-4.185-4.2-4.1-4.07-4.252-4.357-.4428985-.7207207-.3756732-1.6438467.1669697-2.2927968.5426428-.6489501 1.4392899-.8785253 2.2270303-.5702032.2028379.4840252.495685.9251622.863 1.3 2.506 2.507 2.806 3.022 3.939 3.265.2613737.3853642.2158311.9013738-.109 1.235zm2.87-4.87-1.41 1.41c-.2030826.2026144-.4837997.3076099-.77.288-.5-.022-.444-.085-3.1-2.738-.5713748-.5620286-.7520543-1.4108754-.459098-2.1568793.2929563-.746004 1.0029649-1.2450769 1.804098-1.2681207.1786266.3483883.4081444.6682302.681.949 1.941 1.943 2.3 2.5 3.41 2.754.0927364.2642781.0328124.5581358-.156.765zm2.947-4.38-1.409 1.41c-.1875683.187777-.4420908.2932867-.7075.2932867s-.5199317-.1055097-.7075-.2932867l-1.959-1.96c-.5069599-.5041017-.7064751-1.2403709-.5233901-1.9314619s.7209551-1.2320108 1.411-1.419c.6900449-.1869893 1.4274302.0083601 1.9343901.5124619l1.961 1.98c.1892782.185952.2958977.4401617.2958977.7055s-.1066195.519548-.2958977.7055zm-2.093-5.72c-.9825389-.3197292-2.0493357-.258698-2.989.171-.6155104-2.5545277-1.9951703-4.860705-3.955-6.611l2.167-2.608c1.972629 2.8004305 3.5780517 5.8422309 4.777 9.051zm-3.148-17.252c.4071565.3391454.6625744.8264075.7098559 1.3541958.0472814.5277883-.1174628 1.0526903-.4578559 1.4588042l-5.645 6.8c-.9538818-.6169042-1.9847099-1.1057574-3.066-1.454v-1.125l5.64-6.783c.7229148-.8209712 1.9624109-.9313342 2.819-.251zm-6.559 1.622-1.9 2.284v-3.9c.6133333.4726667 1.2466667 1.0113333 1.9 1.616zm-5.9-8.1c1.1045695 0 2 .8954305 2 2v12.165c-1.3244165-.2180748-2.6755835-.2180748-4 0v-12.165c0-1.1045695.8954305-2 2-2zm-7.358 16.27-5.8-6.981c-.6883663-.849983-.5662526-2.0952825.2741122-2.7953585.8403647-.7000761 2.0872364-.5952266 2.7988878.2353585l6.085 7.323v.582c-1.1926186.3799254-2.3237523.9310078-3.358 1.636zm-12.195 4.684 1.986-7.512c.4161646-1.5594242.1911067-3.2205321-.625-4.613-8.26-14.17-7.908-13.401-7.76-13.655s-.817-.174 17.214-.174c.271 0-.1-.462 4.738 7.155v8.769l-4.551-5.473c-1.4132967-1.6979994-3.9355005-1.9287966-5.6334999-.5154999-1.6979995 1.4132966-1.9287967 3.9355004-.5155001 5.6334999l5.785 6.958c-1.7044037 1.6024518-2.9405746 3.6385386-3.576 5.89-.4604317-.2375113-1.0260204-.0840381-1.3032398.3536357s-.1742605 1.0146002.2372398 1.3293643c10.211 6.869 9.726 6.383 10.175 7.29l.005.008c.3875298.7886906.3856814 1.7128658-.005 2.5-.2541318.5122833-.7168511.8900796-1.2696153 1.0366023-.5527642.1465228-1.1418658.0475356-1.6163847-.2716023l-10.4-7c-2.5050458-1.6932203-3.662919-4.7871698-2.885-7.709zm15.128 24.046h2.425c.5522847 0 1-.4477153 1-1s-.4477153-1-1-1h-3.584c-1.1937539-2.1307288-2.2508846-4.3351718-3.165-6.6l1.365.918c2.835 1.909 6.775-.378 6.243-4.321.5514563.0389361 1.0300639-.3765437 1.069-.928s-.3765437-1.0300639-.928-1.069h-.882c-.72-1.1-.579-.849-8.841-6.408.1978498-.8992599.507947-1.7700853.923-2.592h7.8c.5522847 0 1-.4477153 1-1s-.4477153-1-1-1h-6.5c2.0934812-2.5334799 5.2084845-4.0003579 8.495-4.0003579s6.4015188 1.466878 8.495 4.0003579h-6.49c-.5522847 0-1 .4477153-1 1s.4477153 1 1 1h7.806c.5520927 1.0929275.9174683 2.2705115 1.081 3.484-.3407975.5855109-.5279361 1.2477202-.544 1.925-1.7733322.2320299-3.1733599 1.6197803-3.421 3.391-.5876102-.0563518-1.1804997.0117964-1.74.2h-2.182c-.5312769-.0005168-.968844.4172249-.9929437.9479551-.0240998.5307303.3738064.9864097.9029437 1.0340449-.3241414.6754826-.45266 1.4282343-.371 2.173-1.4921261.2280688-2.730157 1.2739526-3.2043222 2.7069994s-.1042916 3.0109526.9573222 4.0840006l1.2 1.209c-.389391.2252522-.5777126.6849136-.4582957 1.1186226s.5164845.73219.9662957.7263774h1.354c.2481961.2279824.5332311.4122577.843.545-.322.491-.645.973-.971 1.455h-6.415c-.3966667-.6206667-.8086667-1.2873333-1.236-2zm28.425 6h-54c-.55228475 0-1-.4477153-1-1s.44771525-1 1-1h54c.5522847 0 1 .4477153 1 1s-.4477153 1-1 1z"/></g></g></svg>