<svg height="512" viewBox="0 0 60 60" width="512" xmlns="http://www.w3.org/2000/svg"><g id="Page-1" fill="none" fill-rule="evenodd"><g id="069---Cloud-Farming" fill="rgb(0,0,0)" fill-rule="nonzero" transform="translate(-1)"><circle id="Oval" cx="30" cy="47" r="1"/><path id="Shape" d="m26 33h10c1.1045695 0 2-.8954305 2-2v-5.667c-.0001229-.6687467-.3344799-1.29318-.891-1.664l-5-3.333c-.6708132-.4489546-1.5461868-.4489546-2.217 0l-5 3.333c-.5569008.3705907-.8916543.9950636-.892 1.664v5.667c0 1.1045695.8954305 2 2 2zm0-5h4v3h-4zm6 3v-3h4v3zm4-5.667v.667h-4v-3.333zm-6-2.666v3.333h-4v-.667z"/><path id="Shape" d="m19 36c0 .5522847.4477153 1 1 1h22c.5522847 0 1-.4477153 1-1s-.4477153-1-1-1h-22c-.5522847 0-1 .4477153-1 1z"/><path id="Shape" d="m2 54h3c.55228475 0 1-.4477153 1-1s-.44771525-1-1-1h-3c-.55228475 0-1 .4477153-1 1s.44771525 1 1 1z"/><path id="Shape" d="m51 36.734c5.8044466-1.2953791 9.9481831-6.423471 9.9959506-12.3705145.0477674-5.9470434-4.0130608-11.1410354-9.7959506-12.5294855-1.3587419-6.82343404-7.3129793-11.76123676-14.27-11.834-4.7154571-.00234554-9.1337706 2.30242306-11.83 6.171-.8085553-.1731711-1.6331084-.26065418-2.46-.261-5.5879811.06260871-10.3943945 3.9711617-11.595 9.429-5.65593609.4165891-10.03561651 5.1208948-10.0474174 10.7921399-.01180089 5.671245 4.34826399 10.3937367 10.0024174 10.8338601v4.035h-2.184c-.4870363-1.3775467-1.89566623-2.2038721-3.33573306-1.9567957s-2.49269406 1.4956868-2.49269406 2.9567957 1.05262723 2.7097193 2.49269406 2.9567957 2.84869676-.579249 3.33573306-1.9567957h2.184c1.1045695 0 2-.8954305 2-2v-4h2v15h-6c-.55228475 0-1 .4477153-1 1s.44771525 1 1 1h3.586l-4.293 4.293c-.25995658.2510745-.3642126.6228779-.27269716.9725073.09151544.3496295.3645604.6226744.71418984.7141899.34962943.0915154.72143285-.0127406.97250732-.2726972l5.707-5.707h14.586v5c0 .5522847.4477153 1 1 1s1-.4477153 1-1v-5h14.586l5.707 5.707c.3923789.3789722 1.0160848.3735524 1.4018186-.0121814s.3911536-1.0094397.0121814-1.4018186l-4.293-4.293h10.586c.5522847 0 1-.4477153 1-1s-.4477153-1-1-1h-13v-15h1.45c.186 0 .366-.02.55-.028v4.028c0 1.1045695.8954305 2 2 2h2.184c.4870363 1.3775467 1.8956662 2.2038721 3.3357331 1.9567957 1.4400668-.2470764 2.492694-1.4956868 2.492694-2.9567957s-1.0526272-2.7097193-2.492694-2.9567957c-1.4400669-.2470764-2.8486968.579249-3.3357331 1.9567957h-2.184zm-45 6.266c-.55228475 0-1-.4477153-1-1s.44771525-1 1-1 1 .4477153 1 1-.44771525 1-1 1zm12.64-16h2.36c.5522847 0 1-.4477153 1-1s-.4477153-1-1-1h-.989l1.57-2.291c.080444-.1180235.185098-.2175642.307-.292l8.6-5.272c.3108072-.193008.7041928-.193008 1.015 0l8.606 5.274c.1218441.0741533.226226.1737596.306.292l1.574 2.289h-.989c-.5522847 0-1 .4477153-1 1s.4477153 1 1 1h2.36l1.64 2.393v.607h-4c-.5522847 0-1 .4477153-1 1s.4477153 1 1 1h4v8h-4.278c-.3544126-.6167513-1.0106732-.997855-1.722-1h-16c-.7113268.002145-1.3675874.3832487-1.722 1h-4.278v-8h4c.5522847 0 1-.4477153 1-1s-.4477153-1-1-1h-4v-.607zm22.36 15h4v4h-4zm-14 10v-11h8v11zm-10-10h4v4h-4zm0 6h4v4h-4zm6-7h2v11h-2zm14 11v-11h2v11zm4 0v-4h4v4zm6-17v-2.69l.175.255c.3148744.447905.9313943.5593221 1.3831221.249957.4517277-.3093651.5706873-.9244742.2668779-1.379957l-6.756-9.855c-.23883-.3508834-.549745-.6467982-.912-.868l-8.606-5.274c-.951043-.5832097-2.148957-.5832097-3.1 0l-8.6 5.273c-.3623364.2214544-.6735297.5173097-.913.868l-6.756 9.856c-.3038094.4554828-.1848498 1.0705919.2668779 1.379957.4517278.3093651 1.0682477.197948 1.3831221-.249957l.168-.255v2.69h-3.32c-3.48195278-.0561413-6.60514068-2.1551194-7.97234416-5.3579153-1.36720349-3.2027959-.72261421-6.9101557 1.64539815-9.4635191s6.01638471-3.4749875 9.31294601-2.3525656c.5183608.176875 1.0825557-.0961482 1.2655023-.6123973.1829467-.5162492-.0834359-1.0836096-.5975023-1.2726027-.7276036-.254099-1.4801698-.4300889-2.245-.525 1.1211863-4.3731594 5.0367465-7.45034451 9.551-7.506.8893632.00072423 1.7744888.12250891 2.631.362h.021c1.1221949.30284408 2.1823556.80076757 3.132 1.471.2920646.20578498.6717284.24012352.9959758.09008063.3242473-.15004289.5438173-.46167213.576-.8175s-.1279112-.70179565-.4199758-.90758063c-.7578938-.52886639-1.5747119-.96781387-2.434-1.308 2.3466488-3.02531425 5.9592564-4.79692401 9.788-4.8 5.7373451.06585945 10.7159944 3.97504842 12.141 9.533-1.0890912-.0716345-2.1828712-.0044283-3.255.2-.504025.0996574-.8505165.565045-.8014641 1.0764809s.4776853.9024804.9914641.9045191c.0641396.0000233.128122-.0063415.191-.019 3.9934275-.7840723 8.0873559.7532945 10.5775943 3.9721367 2.4902385 3.2188421 2.9501256 7.5676638 1.1882229 11.2361691s-5.4437221 6.0281562-9.5128172 6.0966942zm9 6c.5522847 0 1 .4477153 1 1s-.4477153 1-1 1-1-.4477153-1-1 .4477153-1 1-1z"/></g></g></svg>