<svg height="512" viewBox="0 0 50 60" width="512" xmlns="http://www.w3.org/2000/svg"><g id="Page-1" fill="none" fill-rule="evenodd"><g id="070---Pesticide" fill="rgb(0,0,0)" fill-rule="nonzero"><path id="Shape" d="m11 10c-1.65685425 0-3 1.3431458-3 3v3.586l-6.535 6.535c-.9408993.9357628-1.4684137 2.2089989-1.465 3.536v29.343c0 2.209139 1.790861 4 4 4h22c2.209139 0 4-1.790861 4-4v-7h2v2.5c0 4.6944204 3.8055796 8.5 8.5 8.5s8.5-3.8055796 8.5-8.5v-25.778c.6167513-.3544126.997855-1.0106732 1-1.722v-6c-.0026508-.6344632-.306188-1.2300345-.818-1.605l.579-2.317c.1588325-.6340957.2391013-1.2853142.239-1.939v-5.139c0-1.1045695-.8954305-2-2-2h-1v-4c0-.55228475-.4477153-1-1-1s-1 .44771525-1 1v4h-1c-1.1045695 0-2 .8954305-2 2v5.139c-.0001013.6536858.0801675 1.3049043.239 1.939l.579 2.317c-.511812.3749655-.8153492.9705368-.818 1.605v6c.002145.7113268.3832487 1.3675874 1 1.722v25.778c0 1.3807119-1.1192881 2.5-2.5 2.5s-2.5-1.1192881-2.5-2.5v-2.684c1.1943509-.4222546 1.9947486-1.5492146 2-2.816v-7c-.0052514-1.2667854-.8056491-2.3937454-2-2.816v-4.184c-.0033061-2.7600532-2.2399468-4.9966939-5-5h-3v-.343c.0034137-1.3270011-.5241007-2.6002372-1.465-3.536l-6.535-6.535v-3.586c0-1.6568542-1.3431458-3-3-3h-1v-2c2.209139 0 4-1.790861 4-4v-3c0-.55228475-.4477153-1-1-1h-12c-.55228475 0-1 .44771525-1 1v3c0 2.209139 1.790861 4 4 4v2zm21 26h-2v-3h2zm12-12v-6h4v6zm0-17h4v5.139c-.0004788.4904621-.0605865.9790467-.179 1.455l-.601 2.406h-2.44l-.6-2.406c-.1187505-.4759118-.1791941-.9644971-.18-1.455zm-3.5 49c2.4841391-.0027556 4.4972444-2.0158609 4.5-4.5v-25.5h2v25.5c0 3.5898509-2.9101491 6.5-6.5 6.5s-6.5-2.9101491-6.5-6.5v-2.5h2v2.5c.0027556 2.4841391 2.0158609 4.4972444 4.5 4.5zm-2.5-10c0 .5522847-.4477153 1-1 1h-7v-9h7c.5522847 0 1 .4477153 1 1zm-5-17c1.6568542 0 3 1.3431458 3 3v4h-2v-3c0-1.1045695-.8954305-2-2-2h-2v-2zm-5-2.343v25.343h-3c-.5522847 0-1 .4477153-1 1s.4477153 1 1 1h3v2c0 1.1045695-.8954305 2-2 2h-22c-1.1045695 0-2-.8954305-2-2v-2h19c.5522847 0 1-.4477153 1-1s-.4477153-1-1-1h-19v-25.343c-.00186541-.7962819.31460706-1.5602803.879-2.122l6.535-6.535h11.172l6.535 6.535c.5647706.5614666.8813114 1.3256299.879 2.122zm-8-13.657v3h-10v-3c0-.5522847.4477153-1 1-1h8c.5522847 0 1 .4477153 1 1zm-10-9v-2h10v2c0 1.1045695-.8954305 2-2 2h-6c-1.1045695 0-2-.8954305-2-2zm4 4h2v2h-2z"/><path id="Shape" d="m22.755 30.208c-4.2931855-4.2931854-11.2538144-4.2931853-15.54699988.0000001-4.29318546 4.2931855-4.29318551 11.2538144-.00000012 15.5469999.006.007.008.016.015.022s.015.009.022.015c4.2931855 4.2931855 11.2538145 4.2931855 15.547 0s4.2931855-11.2538145 0-15.547c-.006-.007-.008-.016-.015-.022s-.015-.009-.022-.015zm-7.755-1.208c2.040832-.0007997 4.0206199.6960602 5.611 1.975l-3.877 3.877c-.232995-.1583189-.4784694-.2974433-.734-.416v-1.436c0-.5522847-.4477153-1-1-1s-1 .4477153-1 1v1.014c-.4377937.0178564-.8677227.1221949-1.265.307l-1.028-1.028c-.3923789-.3789722-1.0160848-.3735524-1.4018186.0121814-.38573377.3857338-.39115361 1.0094397-.0121814 1.4018186l1.034 1.034c-.1866096.3948225-.2929985.8227571-.313 1.259h-1.014c-.55228475 0-1 .4477153-1 1s.44771525 1 1 1h1.444c.1180567.2533587.2568631.4965206.415.727l-3.884 3.884c-2.16333681-2.6989445-2.58615442-6.3997609-1.08732778-9.517107 1.49882665-3.1173461 4.65338148-5.0981542 8.11232778-5.093893zm1.692 10.7c-.5928771.4075844-1.3764596.4043959-1.966-.008l1.964-1.964c.4183903.5905242.4191917 1.3806283.002 1.972zm-3.671-2.262c-.08169-.399316.0236554-.8140676.286-1.126.2317666-.2122478.5379752-.3243805.852-.312.3906345.0133533.7723447.1203556 1.113.312l-1.967 1.967c-.1415439-.2636778-.2375597-.5493584-.284-.845zm1.979 9.562c-2.040832.0007997-4.0206199-.6960602-5.611-1.975l3.877-3.877c.233204.155093.4786869.2908778.734.406v1.446c0 .5522847.4477153 1 1 1s1-.4477153 1-1v-1.022c.7873442-.0109051 1.5408868-.3216922 2.107-.869.5505945-.5659426.8661349-1.3195946.883-2.109h1.01c.5522847 0 1-.4477153 1-1s-.4477153-1-1-1h-1.433c-.1209434-.2544159-.2624112-.4985567-.423-.73l3.881-3.881c2.1633368 2.6989445 2.5861544 6.3997609 1.0873278 9.517107-1.4988267 3.1173461-4.6533815 5.0981542-8.1123278 5.093893z"/><path id="Shape" d="m20 21h-10c-.55228475 0-1 .4477153-1 1s.44771525 1 1 1h10c.5522847 0 1-.4477153 1-1s-.4477153-1-1-1z"/></g></g></svg>