<svg height="512" viewBox="0 0 60 46" width="512" xmlns="http://www.w3.org/2000/svg"><g id="Page-1" fill="none" fill-rule="evenodd"><g id="072---Autonomous-Lawn-Mower" fill="rgb(0,0,0)" fill-rule="nonzero" transform="translate(0 -1)"><path id="Shape" d="m39 6c.424813.00019929.8033866-.26802335.9440546-.6688708.1406679-.40084745.0127245-.84682031-.3190546-1.1121292-2.753008-2.12867801-6.1452917-3.26319866-9.625-3.219-3.4800498-.04442515-6.8727224 1.09010768-9.626 3.219-.2815774.22229438-.4225033.57838898-.3693066.9331716s.292364.6538854.6267553.78382041c.3343912.12993502.7127633.07079068.9915513-.15499201 2.3981356-1.84644163 5.3507288-2.82664476 8.377-2.781 3.0262712-.04564476 5.9788644.93455837 8.377 2.781.1766407.14186503.396444.21913135.623.219z"/><path id="Shape" d="m36 10c.424813.0001993.8033866-.26802335.9440546-.6688708.1406679-.40084745.0127245-.84682031-.3190546-1.1121292-3.921665-2.95941353-9.330335-2.95941353-13.252 0-.4272994.34605791-.4950446.97217923-.1516534 1.40162454.3433913.42944536.9690788.50108686 1.4006534.16037546 3.1913562-2.37477332 7.5626438-2.37477332 10.754 0 .1768285.14222338.3970737.219521.624.219z"/><path id="Shape" d="m26.375 12.219c-.4272994.3460579-.4950446.9721792-.1516534 1.4016245.3433913.4294454.9690788.5010869 1.4006534.1603755 1.4236637-1.0079142 3.3283363-1.0079142 4.752 0 .4315746.3407114 1.0572621.2690699 1.4006534-.1603755.3433912-.4294453.275646-1.0555666-.1516534-1.4016245-2.1434528-1.6251362-5.1065472-1.6251362-7.25 0z"/><path id="Shape" d="m20 26h22c.5522847 0 1-.4477153 1-1s-.4477153-1-1-1h-22c-.5522847 0-1 .4477153-1 1s.4477153 1 1 1z"/><path id="Shape" d="m13 36c-1.6568542 0-3 1.3431458-3 3s1.3431458 3 3 3 3-1.3431458 3-3-1.3431458-3-3-3zm0 4c-.5522847 0-1-.4477153-1-1s.4477153-1 1-1 1 .4477153 1 1-.4477153 1-1 1z"/><path id="Shape" d="m32 37h-4c-.5522847 0-1 .4477153-1 1s.4477153 1 1 1h4c.5522847 0 1-.4477153 1-1s-.4477153-1-1-1z"/><path id="Shape" d="m59 45h-.707c.2909478-.4580568.68909-.8383513 1.16-1.108.4934664-.2485281.6920281-.8500336.4435-1.3435s-.8500336-.6920281-1.3435-.4435c-1.1548023.6130823-2.0235215 1.6541095-2.42 2.9h-2.076c.0850582-1.5716828.6638702-3.0764541 1.654-4.3.3893607-.391846.387346-1.0251393-.0045-1.4145s-1.0251393-.387346-1.4145.0045c-.8781313 1.0118943-1.510277 2.2132108-1.847 3.51-.305465-.2708102-.6409924-.5056793-1-.7-.4934664-.2485281-1.0949719-.0499664-1.3435.4435s-.0499664 1.0949719.4435 1.3435c.4715671.2694859.8703959.6497804 1.162 1.108h-4.263c.6397084-1.074932.7328945-2.3892138.2512543-3.5436524-.4816401-1.1544386-1.4812651-2.0127916-2.6952543-2.3143476v-2.142h6c.7918715.0063514 1.5524793-.3086442 2.108-.873.6376908-.6235185.9611892-1.5007463.881-2.389-.1410292-1.3162834-1.1171334-2.3902406-2.414-2.656l-3.075-6.925c-1.125636-2.5275936-3.633091-4.156264-6.4-4.157h-8.1v-1c0-2.209139-1.790861-4-4-4s-4 1.790861-4 4v1h-9.095c-1.3755676-.000383-2.7409018.2364192-4.036.7l-10.878 3.885c-1.1935592.4262666-1.99048075 1.5566064-1.991 2.824v1.691c-.00051285.855216.36315354 1.6701924 1 2.241l1.537 1.368c.36866904.3255059.84319787.5057203 1.335.507.046 0 .091 0 .137-.005.37703895-.0261417.73835605-.1612881 1.04-.389l1.364 1.639c-2.31004996 3.3347663-1.74465855 7.872969 1.313 10.539h-6.726c-.55228475 0-1 .4477153-1 1s.44771525 1 1 1h58c.5522847 0 1-.4477153 1-1s-.4477153-1-1-1zm-13-2c.0048769.9718345-.6895703 1.8065122-1.6460817 1.9784772-.9565114.1719649-1.8981977-.3685631-2.2321249-1.2812397-.3339271-.9126767.0365697-1.9333019.8782066-2.4192375v.722c0 .5522847.4477153 1 1 1s1-.4477153 1-1v-.722c.6167513.3544126.997855 1.0106732 1 1.722zm5.694-8.287c-.1830903.1854514-.4334037.2889672-.694.287h-10.835c-1.7253017-.0035829-3.257876 1.1010805-3.8 2.739l-.628 1.891c-.2716816.8185751-1.0375179 1.3707833-1.9 1.37h-8.837v-2c.000513-2.1055022-.5511722-4.174322-1.6-6h27.488c.5466723-.0222991 1.0239637.3670023 1.112.907.0280012.3015136-.0849546.5990376-.306.806zm-30.763 5.287c.3024989-2.2799907-.3967352-4.5793047-1.9173479-6.3048771-1.5206128-1.7255724-3.7137205-2.7084518-6.0136521-2.6951229-1.9233492.0000553-3.78159999.6966773-5.231 1.961l-1.278-1.535c2.03452458-1.7565388 4.6915188-2.6182494 7.3697045-2.3901264 2.6781857.2281229 5.1511626 1.5267949 6.8592955 3.6021264 1.4749131 1.7920206 2.2809234 4.0410722 2.28 6.362l.0000008 1zm7.069-21c0-1.1045695.8954305-2 2-2s2 .8954305 2 2v1h-4zm-24.129 12.217-1.535-1.366c-.21392469-.190998-.33616419-.4642179-.336-.751v-1.691c.00036418-.4224284.26613054-.7990642.664-.941l10.878-3.886c1.0793113-.3854902 2.2169129-.5823633 3.363-.582h25.195c1.9757232.0005396 3.7658564 1.1644397 4.568 2.97l2.681 6.03h-27.423c-2.1943917-2.4620469-5.3085326-3.9080142-8.6054013-3.9956858-3.2968688-.0876716-6.48345753 1.1907443-8.8055987 3.5326858-.014.011-.032.013-.045.025-.04645818.0459954-.08770705.0969696-.123.152-.159.167-.326.326-.476.503zm3.129 7.783c0-3.3137085 2.6862915-6 6-6s6 2.6862915 6 6-2.6862915 6-6 6c-3.31233757-.0033074-5.99669262-2.6876624-6-6zm13.411 3h2.867c.3544126.6167513 1.0106732.997855 1.722 1h8.843c1.7246985.0017095 3.2562894-1.1022451 3.8-2.739l.627-1.891c.2716816-.8185751 1.0375179-1.3707833 1.9-1.37l2.83-.0000008v2.1420008c-1.2139892.301556-2.2136142 1.159909-2.6952543 2.3143476-.4816402 1.1544386-.3884541 2.4687204.2512543 3.5436524h-22.282c.9353746-.8207169 1.6669912-1.8477876 2.137-3z"/></g></g></svg>