<svg height="512" viewBox="0 0 60 60" width="512" xmlns="http://www.w3.org/2000/svg"><g id="Page-1" fill="none" fill-rule="evenodd"><g id="073---Free-Range" fill="rgb(0,0,0)" fill-rule="nonzero"><path id="Shape" d="m31 11v-5c-.0000863-.4043959-.2437275-.76893405-.6173454-.92367798-.373618-.15474393-.8036603-.06922994-1.0896546.21667798l-1 1c-.2859079.28599425-.3714219.71603662-.216678 1.08965456s.5192821.61725909.923678.61734544v3c-.5522847 0-1 .4477153-1 1s.4477153 1 1 1h2c.5522847 0 1-.4477153 1-1s-.4477153-1-1-1z"/><path id="Shape" d="m36 5c-1.6568542 0-3 1.34314575-3 3v2c0 1.6568542 1.3431458 3 3 3s3-1.3431458 3-3v-2c0-1.65685425-1.3431458-3-3-3zm1 5c0 .5522847-.4477153 1-1 1s-1-.4477153-1-1v-2c0-.55228475.4477153-1 1-1s1 .44771525 1 1z"/><path id="Shape" d="m44 5c-1.6568542 0-3 1.34314575-3 3v2c0 1.6568542 1.3431458 3 3 3s3-1.3431458 3-3v-2c0-1.65685425-1.3431458-3-3-3zm1 5c0 .5522847-.4477153 1-1 1s-1-.4477153-1-1v-2c0-.55228475.4477153-1 1-1s1 .44771525 1 1z"/><path id="Shape" d="m55.64 5.231c-.4242059-.35329793-1.0544578-.2960023-1.408.128l-5 6c-.3540145.4241547-.2971547 1.0549855.127 1.409s1.0549855.2971547 1.409-.127l5-6c.1702908-.20383087.2524965-.46703445.2284836-.7315517-.0240129-.26451726-.1522715-.50861487-.3564836-.6784483z"/><circle id="Oval" cx="50" cy="6" r="1"/><circle id="Oval" cx="55" cy="12" r="1"/><path id="Shape" d="m54 0h-24c-3.3123376.00330738-5.9966926 2.68766243-6 6v6c.0017308.6817505.1201056 1.3581781.35 2h-20.35c-2.209139 0-4 1.790861-4 4v38c0 2.209139 1.790861 4 4 4h38c2.209139 0 4-1.790861 4-4v-38h8c3.3123376-.0033074 5.9966926-2.6876624 6-6v-6c-.0033074-3.31233757-2.6876624-5.99669262-6-6zm-52 56v-5h6.461l-3.111 7h-1.35c-1.1045695 0-2-.8954305-2-2zm13.666-15.81c-.007-.016-.015-.031-.023-.047-.1907631-.4406862-.3407239-.897933-.448-1.366-.0584057-.2595959-.2178629-.4852105-.4430799-.6269095-.2252169-.141699-.4976202-.1877967-.7569201-.1280905-.2520401.0579414-.4715752.2118312-.612.429-1.3808319-1.44769-1.7657799-3.5791168-.978588-5.4183644.7871919-1.8392477 2.5949624-3.0321982 4.595588-3.0326356.0048772 1.0274089.2745561 2.036208.783 2.929-.1757208.1037019-.3399694.2257152-.49.364-.2796777.2867698-.3598937.7133933-.2034735 1.0821606.1564202.3687672.5189071.6076092.9194735.6058394.2471524.0006152.4861878-.0881796.673-.25.2860681-.1942539.603334-.3380045.938-.425l.018-.005c.7682272-.2160403 1.5641433-.3174673 2.362-.301.6746923-.0086633 1.3481353.0604594 2.007.206.0399834.6950821.4410308 1.3184699 1.057 1.643.6216258.3167056 1.2693477.5793408 1.936.785v.187c.0437241 1.7581958-1.0366316 3.3491773-2.687 3.957-1.9004783.664681-3.998445-.1902844-4.893-1.994l2.857-.825c.5307456-.1529829.8369829-.7072544.684-1.238s-.7072544-.8369829-1.238-.684l-2.858.825c-.5749388.1660642-1.0457787.5800323-1.2840816 1.1289801-.238303.5489478-.219206 1.1756016.0520816 1.7090199 1.0365379 2.0276485 3.1227731 3.30257 5.4 3.3.6546946.0004388 1.3050166-.1066532 1.925-.317 2.3654973-.8509522 3.963529-3.0697562 4.021-5.583.571361.0863738 1.1481623.1318228 1.726.136.094 0 .189-.011.284-.013-.1023213 3.7456637-2.7926301 6.9176203-6.4713628 7.6299351-3.6787326.7123148-7.3585816-1.226185-8.8516372-4.6629351zm11.609-14.827c-.2676958-.3748354-.3469827-.8524067-.2147706-1.2936352.1322121-.4412284.4610579-.7965047.8907706-.9623648.2012924-.0779323.4162725-.1143292.632-.107.7148506.0424171 1.4185698-.192156 1.965-.655.3907376-.3250731.9190865-.4311189 1.405-.282.4657123.1421556.8317932.5041505.9791669.9682379s.0572087.9709659-.2411669 1.3557621c-.6140955-.2971814-1.2955771-.4275458-1.976-.378-1.2162773.0983049-2.3198724.7502114-2.993 1.768-.175314-.10655-.3273436-.2473559-.447-.414zm1.725 2.72c.0013512-1.0641527.8006264-1.9580676 1.858-2.078h.15c.9254992.0042077 1.7272229.6428593 1.9382327 1.5439926.2110098.9011334-.2238183 1.8293366-1.0512327 2.2440074-.8646782.4072076-1.3070564 1.380863-1.045 2.3l.849 3.1c-1.9692994.1759946-3.9498161-.178261-5.736-1.026.2444164-.1618939.4782271-.339256.7-.531 1.5578575-1.4171526 2.4126982-3.4483596 2.337-5.553zm6.35 22.917 3.111 7h-5.661l-1.556-7zm-6.15 0 1.556 7h-6.756v-7zm-7.2 7h-6.754l1.554-7h5.2zm-8.8 0h-5.661l3.111-7h4.1zm28.8 0h-1.35l-3.111-7h6.461v5c0 1.1045695-.8954305 2-2 2zm2-9h-20v-2.053c5.1058564-.5192101 8.9925027-4.8148179 9-9.947v-.31c.5567685-.4837196.789559-1.2422285.6-1.955l-.823-3.177s.023.03.019.017c1.0338669-.5144368 1.7911738-1.455134 2.073-2.575h1.131c.5522847 0 1-.4477153 1-1s-.4477153-1-1-1h-1.143c-.1197868-.4781872-.3269335-.9301128-.611-1.333 1.1134196-1.4044275.984042-3.4234684-.2995232-4.6743002-1.2835653-1.2508317-3.3052742-1.3280202-4.6804768-.1786998-.1562407.136529-.3598709.2062014-.567.194-1.6823384-.1117755-3.2031755.9975074-3.6106554 2.6335748-.4074798 1.6360673.4154155 3.3290816 1.9536554 4.0194252-.0210195.1345149-.0350384.2700308-.042.406.0720575 1.5307427-.5337094 3.0155301-1.656 4.059-.12.1-.236.185-.352.268-.97238-.2784824-1.9806754-.4112592-2.992-.394-.7754047-.005675-1.549278.069735-2.309.225-.4476183-.6558949-.6883135-1.4309263-.691-2.225.0010373-1.0710964-.8419404-1.9528722-1.912-2-.0293137-.0015177-.0586863-.0015177-.088 0-3.2639837-.0047201-6.0965993 2.2503912-6.8235585 5.4323941-.72695914 3.1820028.8453432 6.4434601 3.7875585 7.8566059 1.4910632 3.1728537 4.5460949 5.323085 8.036 5.656v2.055h-20v-31c0-1.1045695.8954305-2 2-2h21.54c1.1341242 1.2712357 2.7563932 1.9987106 4.46 2h14zm14-37c0 2.209139-1.790861 4-4 4h-24c-2.209139 0-4-1.790861-4-4v-6c0-2.209139 1.790861-4 4-4h24c2.209139 0 4 1.790861 4 4z"/><path id="Shape" d="m40.757 26.03-1 .25c-.4897554.1227443-.8111846.5913178-.7493732 1.0924224s.4874708.8775246.9923732.8775776c.0822423-.0001749.1641648-.0102473.244-.03l1-.25c.5320593-.1373346.8536288-.6782442.7200974-1.2112708-.1335314-.5330265-.6721308-.8584506-1.2060974-.7287292z"/><path id="Shape" d="m9.553 42.105-4 2c-.49429485.2468713-.69487128.8477051-.448 1.342s.84770515.6948713 1.342.448l4-2c.3197527-.1596977.5300187-.4778505.5515927-.8346134.0215741-.3567628-.1488213-.6979349-.447-.895-.2981786-.1970651-.67884-.2200843-.9985927-.0603866z"/><path id="Shape" d="m8.316 38.948c.33940232-.1128959.59279374-.398285.66472416-.748664s-.0485281-.712517-.316-.95c-.26747191-.2374831-.64132185-.3142319-.98072416-.201336l-3 1c-.33940232.1128959-.59279374.398285-.66472416.748664s.0485281.712517.316.95c.26747191.2374831.64132185.3142319.98072416.201336z"/><path id="Shape" d="m11.832 19.445c-.1982824-.297245-.5400812-.4661282-.8966441-.4430331s-.6737195.2346599-.832.555c-.15828049.32034-.1336383.7007881.0646441.9980331l2 3c.306518.4595009.9274991.583518 1.387.277s.583518-.9274991.277-1.387z"/><path id="Shape" d="m8.445 28.832c.29724497.1982824.67769306.2229246.99803315.0646441s.5319049-.4754371.55500001-.832c.02309514-.3565629-.14578818-.6983617-.44303316-.8966441l-3-2c-.29724497-.1982824-.67769305-.2229246-.99803314-.0646441-.32034008.1582805-.53190488.4754371-.555.832-.02309511.3565629.14578817.6983617.44303314.8966441z"/><path id="Shape" d="m5 34h2c.55228475 0 1-.4477153 1-1s-.44771525-1-1-1h-2c-.55228475 0-1 .4477153-1 1s.44771525 1 1 1z"/><path id="Shape" d="m40.372 44.071-5-2c-.5130725-.2054499-1.09555.0439275-1.301.557-.2054499.5130725.0439275 1.0955501.557 1.301l5 2c.5130725.2054499 1.09555-.0439275 1.301-.557.2054499-.5130725-.0439275-1.0955501-.557-1.301z"/><path id="Shape" d="m36.03 37.758c-.1335558.5353845.1917847 1.0777678.727 1.212l4 1c.0795104.0196732.1610923.029745.243.03.5047125-.0005564.929899-.377126.9914367-.8780733.0615377-.5009472-.259865-.9692298-.7494367-1.0919267l-4-1c-.5356925-.1334945-1.0782184.1923791-1.212.728z"/><path id="Shape" d="m39 34h2c.5522847 0 1-.4477153 1-1s-.4477153-1-1-1h-2c-.5522847 0-1 .4477153-1 1s.4477153 1 1 1z"/><path id="Shape" d="m19 18c-.5522847 0-1 .4477153-1 1v3c0 .5522847.4477153 1 1 1s1-.4477153 1-1v-3c0-.5522847-.4477153-1-1-1z"/><path id="Shape" d="m39 24c.2651948-.0000566.5195073-.1054506.707-.293l2-2c.3789722-.3923789.3735524-1.0160848-.0121814-1.4018186s-1.0094397-.3911536-1.4018186-.0121814l-2 2c-.2859079.2859943-.3714219.7160366-.216678 1.0896546.1547439.3736179.5192821.6172591.923678.6173454z"/></g></g></svg>