<svg height="512" viewBox="0 0 36 60" width="512" xmlns="http://www.w3.org/2000/svg"><g id="Page-1" fill="none" fill-rule="evenodd"><g id="077---Crop-Data-App" fill="rgb(0,0,0)" fill-rule="nonzero"><path id="Shape" d="m32 60c2.209139 0 4-1.790861 4-4v-52c0-2.209139-1.790861-4-4-4h-28c-2.209139 0-4 1.790861-4 4v52c0 2.209139 1.790861 4 4 4zm-6.309-58-1.283 1.368c-.3778598.40298537-.9055734.63173367-1.458.632h-9.9c-.5526257-.00070589-1.0804819-.22935917-1.459-.632l-1.282-1.368zm-23.691 2c0-1.1045695.8954305-2 2-2h3.567l2.565 2.735c.7567936.80574999 1.8125738 1.2634477 2.918 1.265h9.9c1.1055502-.00095651 2.1615565-.45875227 2.918-1.265l2.565-2.735h3.567c1.1045695 0 2 .8954305 2 2v47c0 1.1045695-.8954305 2-2 2h-1.1c-.4784327-2.3264168-2.5248992-3.9970017-4.9-4h-.021c-1.3802093-1.8573276-3.8620054-2.5123325-5.979-1.578-.3211937-.1399969-.6564312-.2452615-1-.314v-2.108h1c3.3123376-.0033074 5.9966926-2.6876624 6-6 0-1.1045695-.8954305-2-2-2h-1c-1.4782155.0002927-2.9036672.5494479-4 1.541v-2.541h1c3.3123376-.0033074 5.9966926-2.6876624 6-6-.0019274-.3035975-.0737864-.602668-.21-.874l.552-.827c.4260532-.658264.6544115-1.4248955.658-2.209v-3.09h2c1.6568542 0 3-1.3431458 3-3v-8c0-1.6568542-1.3431458-3-3-3h-7c-1.6568542 0-3 1.3431458-3 3v8c0 1.6568542 1.3431458 3 3 3h3v3.09c-.002469.3956633-.1176322.7824312-.332 1.115l-.539.808c-.043 0-.085-.013-.129-.013h-1c-1.4782155.0002927-2.9036672.5494479-4 1.541v-3.541c0-.5522847-.4477153-1-1-1s-1 .4477153-1 1v3.541c-1.0963328-.9915521-2.5217845-1.5407073-4-1.541h-1c-.044 0-.086.01-.129.013l-.529-.792c-.219897-.3364975-.3385962-.7290377-.342-1.131v-3.09h3c1.6568542 0 3-1.3431458 3-3v-8c0-1.6568542-1.3431458-3-3-3h-7c-1.65685425 0-3 1.3431458-3 3v8c0 1.6568542 1.34314575 3 3 3h2v3.09c.00436955.7901154.23628524 1.5622419.668 2.224l.542.812c-.135977.2714184-.2078226.570433-.21.874.0033074 3.3123376 2.6876624 5.9966926 6 6h1v2.54c-1.0964822-.9911889-2.5219173-1.5399814-4-1.54h-1c-1.1045695 0-2 .8954305-2 2 .0033074 3.3123376 2.6876624 5.9966926 6 6h1v2.109c-.3435688.0687385-.6788063.1740031-1 .314-2.1167675-.9345444-4.598512-.2799682-5.979 1.577h-.021c-2.37510083.0029983-4.42156735 1.6735832-4.9 4h-1.1c-1.1045695 0-2-.8954305-2-2zm5 17c-.55228475 0-1-.4477153-1-1v-8c0-.5522847.44771525-1 1-1h7c.5522847 0 1 .4477153 1 1v8c0 .5522847-.4477153 1-1 1zm6 9c2.209139 0 4 1.790861 4 4h-1c-2.209139 0-4-1.790861-4-4zm9-9c-.5522847 0-1-.4477153-1-1v-8c0-.5522847.4477153-1 1-1h7c.5522847 0 1 .4477153 1 1v8c0 .5522847-.4477153 1-1 1zm2 9c0 2.209139-1.790861 4-4 4h-1c0-2.209139 1.790861-4 4-4zm-8 13c-2.209139 0-4-1.790861-4-4h1c2.209139 0 4 1.790861 4 4zm3.5 6.407c.3094011.1786328.6905989.1786328 1 0 1.4460654-.8050865 3.2705629-.3022372 4.1 1.13.1927939.3530433.5803787.5539545.98.508l.167-.02c.0837111-.0137418.1682184-.0220923.253-.025 1.2667854.0052514 2.3937454.8056491 2.816 2h-21.632c.42225455-1.1943509 1.54921457-1.9947486 2.816-2 .085763.0024478.1712764.0104647.256.024l.167.02c.3997252.0465201.7876084-.1545459.98-.508.8297912-1.4317785 2.6538656-1.9345112 4.1-1.13.3094011.1786328.6905989.1786328 1 0 .9268307-.5370181 2.0701693-.5370181 2.997 0zm-.5-6.407c0-2.209139 1.790861-4 4-4h1c0 2.209139-1.790861 4-4 4zm-17 13v-1.556c.60534654.3599241 1.29574677.5518554 2 .556h28c.7042532-.0041446 1.3946535-.1960759 2-.556v1.556c0 1.1045695-.8954305 2-2 2h-28c-1.1045695 0-2-.8954305-2-2z"/><path id="Shape" d="m12 13h-3c-.55228475 0-1 .4477153-1 1s.44771525 1 1 1h3c.5522847 0 1-.4477153 1-1s-.4477153-1-1-1z"/><path id="Shape" d="m11 17h-2c-.55228475 0-1 .4477153-1 1s.44771525 1 1 1h2c.5522847 0 1-.4477153 1-1s-.4477153-1-1-1z"/><path id="Shape" d="m27 13h-3c-.5522847 0-1 .4477153-1 1s.4477153 1 1 1h3c.5522847 0 1-.4477153 1-1s-.4477153-1-1-1z"/><path id="Shape" d="m26 17h-2c-.5522847 0-1 .4477153-1 1s.4477153 1 1 1h2c.5522847 0 1-.4477153 1-1s-.4477153-1-1-1z"/></g></g></svg>