<svg height="512" viewBox="0 0 60 60" width="512" xmlns="http://www.w3.org/2000/svg"><g id="Page-1" fill="none" fill-rule="evenodd"><g id="078---Tomato-Plant" fill="rgb(0,0,0)" fill-rule="nonzero" transform="translate(0 -1)"><path id="Shape" d="m10.248 48.781c-2.33605066-.4464762-4.07947048-2.4086443-4.248-4.781 0-.5522847-.44771525-1-1-1s-1 .4477153-1 1c.16504337 3.2876097 2.52912906 6.0491347 5.752 6.719.0810777.0204904.1643732.0309024.248.031.5041334-.0000306.9294139-.3753181.9921628-.8755311.0627489-.5002131-.2566575-.9689173-.7451628-1.0934689z"/><path id="Shape" d="m54.367 19.686 1.189-1.167c.4295647-.4138621.5634757-1.0477606.338-1.6-.2269777-.5584845-.7711636-.9224632-1.374-.919h-3.52v-2.639c.0690541-6.63335747-5.1578532-12.11480321-11.787-12.361-3.2197411-.05852656-6.32779 1.18003248-8.6248093 3.43699072-2.2970192 2.25695824-3.5900649 5.34273687-3.5881907 8.56300928v4.6c-2.0073573-1.1609771-4.3095559-1.7117672-6.625-1.585-6.4656213.4160822-11.46884872 5.8296842-11.375 12.308v2.677h-3.52c-.60357475-.0029708-1.14797115.3623374-1.374.922-.22361784.5487824-.09232777 1.178342.332 1.592l1.194 1.172c-3.4111402 1.8706911-5.55990936 5.4242486-5.632 9.314 0 6.065 5.383 11 12 11s12-4.935 12-11c-.0720864-3.8900212-2.2213248-7.4437237-5.633-9.314l1.189-1.167c.4295647-.4138621.5634757-1.0477606.338-1.6-.2269777-.5584845-.7711636-.9224632-1.374-.919h-3.52v-2.756c-.0622283-3.0772056 2.1638216-5.7248624 5.206-6.192 1.7194916-.2349457 3.4557078.2941033 4.752 1.448 1.2954482 1.1370525 2.0393121 2.7763216 2.042 4.5v16c0 8.829-3.321 12.563-5.3 14-.5869435.4174841-.8359899 1.1669667-.6156385 1.8527078.2203515.6857411.8593684 1.1498594 1.5796385 1.1472922h14.673c.7202701.0025672 1.359287-.4615511 1.5796385-1.1472922.2203514-.6857411-.028695-1.4352237-.6156385-1.8527078-1.98-1.441-5.3-5.175-5.3-14v-30.756c-.0622283-3.0772056 2.1638216-5.72486243 5.206-6.192 1.7191507-.23450534 3.4548806.29450685 4.751 1.448 1.2954482 1.13705248 2.0393121 2.7763216 2.042 4.5v3h-3.52c-.6035747-.0029708-1.1479712.3623374-1.374.922-.2236178.5487824-.0923278 1.178342.332 1.592l1.2 1.172c-3.4136056 1.8689786-5.5649012 5.4229281-5.638 9.314 0 6.065 5.383 11 12 11s12-4.935 12-11c-.0720864-3.8900212-2.2213248-7.4437237-5.633-9.314zm-32.367 24.314c0 4.963-4.486 9-10 9s-10-4.037-10-9c.08899569-3.3383487 2.03934857-6.3459311 5.051-7.789l-.616 3.009c-.11691275.5726373.11411828 1.1604485.58964657 1.5002351s1.10648526.367905 1.61035343.0717649l3.365-1.979 3.382 1.987c.5011745.2939497 1.1283681.2655934 1.6009723-.0723824s.7021852-.9223287.5860277-1.4916176l-.62-3.029c3.0129085 1.4437207 4.9634874 4.4531964 5.051 7.793zm24-26c.5522847 0 1-.4477153 1-1v-4c-.002393-2.3037961-.9967382-4.49499167-2.7290035-6.01378704s-4.0346676-2.21808366-6.3189965-1.91921296c-4.0396643.59724671-7.0124584 4.09387182-6.952 8.177v30.756c0 8.381 2.746 12.746 5.344 15h-12.688c2.597-2.254 5.344-6.619 5.344-15v-16c-.002393-2.3037961-.9967382-4.4949917-2.7290035-6.013787-1.7322653-1.5187954-4.0346676-2.2180837-6.3189965-1.919213-4.0396643.5972467-7.0124584 4.0938718-6.952 8.177v3.756c0 .5522847.4477153 1 1 1h3.229l-1.25 1.228-.008.008-.651.639c-.3569501.3491645-.511478.8560916-.41 1.345l.462 2.257-2.633-1.549c-.4662602-.2634239-1.0372934-.259617-1.5.01l-2.611 1.539.462-2.255c.10160358-.4898256-.05286877-.9977006-.41-1.348l-.652-.64-.005-.005-1.252-1.229h3.229c.5522847 0 1-.4477153 1-1v-3.677c-.0925967-5.4126147 4.075719-9.9468731 9.477-10.309 2.1978321-.1199026 4.3734765.4916127 6.187 1.739.453317.3140328 1.0440115.3487568 1.531.09.4931277-.2601945.8012445-.7724387.8-1.33v-5.513c-.0026402-2.6848575 1.0753176-5.25781511 2.9909343-7.13900602 1.9156167-1.88119092 4.5076975-2.91231714 7.1920657-2.86099398 5.5401391.22273059 9.895282 4.81686979 9.822 10.361v3.639c0 .5522847.4477153 1 1 1h3.229l-1.251 1.229-.005.005-.658.646c-.3529732.3485766-.5054117.8521881-.405 1.338l.462 2.259-2.633-1.549c-.4662602-.2634239-1.0372934-.259617-1.5.01l-2.615 1.539.462-2.256c.1006484-.4885022-.0529173-.9947419-.408-1.345l-.655-.643-1.252-1.233zm2 20c-5.514 0-10-4.037-10-9 .0903531-3.3371128 2.0393836-6.3434604 5.049-7.788l-.614 3.008c-.1169127.5726373.1141183 1.1604485.5896466 1.5002351s1.1064852.367905 1.6103534.0717649l3.365-1.979 3.362 1.978c.5038682.2961401 1.1348251.2680217 1.6103534-.0717649s.7065593-.9275978.5896466-1.5002351l-.614-3.007c3.0107833 1.4436977 4.9610815 4.4502144 5.052 7.788 0 4.963-4.486 9-10 9z"/><path id="Shape" d="m46.248 33.781c-2.3360507-.4464762-4.0794705-2.4086443-4.248-4.781 0-.5522847-.4477153-1-1-1s-1 .4477153-1 1c.1650434 3.2876097 2.5291291 6.0491347 5.752 6.719.0810777.0204904.1643732.0309024.248.031.5041334-.0000306.9294139-.3753181.9921628-.8755311.0627489-.5002131-.2566575-.9689173-.7451628-1.0934689z"/></g></g></svg>