<svg height="512" viewBox="0 0 60 60" width="512" xmlns="http://www.w3.org/2000/svg"><g id="Page-1" fill="none" fill-rule="evenodd"><g id="081---Autonomous-Tractor-Controls" fill="rgb(0,0,0)" fill-rule="nonzero"><path id="Shape" d="m9 17c.55228475 0 1-.4477153 1-1v-6h2c.5522847 0 1-.44771525 1-1s-.4477153-1-1-1h-2c-1.1045695 0-2 .8954305-2 2v6c0 .5522847.44771525 1 1 1z"/><path id="Shape" d="m22.293 34.293-.293.293v-2.586c0-.5522847-.4477153-1-1-1s-1 .4477153-1 1v2.586l-.293-.293c-.3923789-.3789722-1.0160848-.3735524-1.4018186.0121814s-.3911536 1.0094397-.0121814 1.4018186l2 2c.3904999.3903819 1.0235001.3903819 1.414 0l2-2c.3789722-.3923789.3735524-1.0160848-.0121814-1.4018186s-1.0094397-.3911536-1.4018186-.0121814z"/><path id="Shape" d="m19.707 12.707.293-.293v2.586c0 .5522847.4477153 1 1 1s1-.4477153 1-1v-2.586l.293.293c.3923789.3789722 1.0160848.3735524 1.4018186-.0121814s.3911536-1.0094397.0121814-1.4018186l-2-2c-.3904999-.39038194-1.0235001-.39038194-1.414 0l-2 2c-.3789722.3923789-.3735524 1.0160848.0121814 1.4018186s1.0094397.3911536 1.4018186.0121814z"/><path id="Shape" d="m14 23h-2.586l.293-.293c.3789722-.3923789.3735524-1.0160848-.0121814-1.4018186s-1.0094397-.3911536-1.4018186-.0121814l-2 2c-.39038194.3904999-.39038194 1.0235001 0 1.414l2 2c.3923789.3789722 1.0160848.3735524 1.4018186-.0121814s.3911536-1.0094397.0121814-1.4018186l-.293-.293h2.586c.5522847 0 1-.4477153 1-1s-.4477153-1-1-1z"/><path id="Shape" d="m33.707 24.707c.3903819-.3904999.3903819-1.0235001 0-1.414l-2-2c-.3923789-.3789722-1.0160848-.3735524-1.4018186.0121814s-.3911536 1.0094397-.0121814 1.4018186l.293.293h-2.586c-.5522847 0-1 .4477153-1 1s.4477153 1 1 1h2.586l-.293.293c-.2599566.2510745-.3642126.6228779-.2726972.9725073.0915155.3496295.3645604.6226744.7141899.7141899.3496294.0915154.7214328-.0127406.9725073-.2726972z"/><path id="Shape" d="m21 18c-1.7834191.036014-3.4773211.7881785-4.7 2.087-.2905272.2414258-.4202188.6259575-.3352564.9940253.0849624.3680677.3700771.6568482.7370295.7465056.3669524.0896573.7531095-.0351115.9982269-.3225309.8368586-.9410939 2.036139-1.4795086 3.2955-1.4795086s2.4586414.5384147 3.2955 1.4795086c.3915699.3896369 1.0248631.3880699 1.4145-.0035s.3880699-1.0248631-.0035-1.4145c-1.2231613-1.2993119-2.9178823-2.05152-4.702-2.087z"/><path id="Shape" d="m18.086 23.287c-.367396.3910651-.3606722 1.0023888.0152363 1.3852785s.9870051.4008601 1.3847637.0407215c.3725593-.4489011.9256368-.7086263 1.509-.7086263s1.1364407.2597252 1.509.7086263c.3977586.3601386 1.0088552.3421682 1.3847637-.0407215s.3826323-.9942134.0152363-1.3852785c-.7542008-.803387-1.8070701-1.2590992-2.909-1.2590992s-2.1547992.4557122-2.909 1.2590992z"/><path id="Shape" d="m20.56 28.149c.2588085-.1990894.6191915-.1990894.878 0 .1651521.1131756.3607909.1735063.561.173.4391435.0003507.8271296-.28584.9564531-.7055095.1293234-.4196696-.0302812-.8746033-.3934531-1.1214905-.9406852-.6451274-2.1813148-.6451274-3.122 0-.4578441.3092795-.5782795.9311559-.269 1.389s.9311559.5782795 1.389.269z"/><path id="Shape" d="m28 46c-2.7614237 0-5 2.2385763-5 5s2.2385763 5 5 5 5-2.2385763 5-5c-.0033061-2.7600532-2.2399468-4.9966939-5-5zm0 8c-1.6568542 0-3-1.3431458-3-3s1.3431458-3 3-3 3 1.3431458 3 3-1.3431458 3-3 3z"/><path id="Shape" d="m53 50c-1.6568542 0-3 1.3431458-3 3s1.3431458 3 3 3 3-1.3431458 3-3-1.3431458-3-3-3zm0 4c-.5522847 0-1-.4477153-1-1s.4477153-1 1-1 1 .4477153 1 1-.4477153 1-1 1z"/><path id="Shape" d="m59 41c-.0044086-3.8641657-3.1358343-6.9955914-7-7h-10v-30c0-2.209139-1.790861-4-4-4h-34c-2.209139 0-4 1.790861-4 4v40c0 2.209139 1.790861 4 4 4h15.525c-1.1152924 3.146186-.3959799 6.6512902 1.8682949 9.1039262s5.7008606 3.4491522 8.9259608 2.5882853c3.2251003-.8608668 5.7079325-3.4374363 6.4487443-6.6922115h2.437c.3075269.6109108.9320571.9973775 1.616 1h5.259c.3979416 2.8079803 2.4519602 5.0977921 5.2003658 5.7973471 2.7484057.6995551 5.6472073-.3296092 7.3391883-2.605639 1.6919809-2.2760298 1.8422478-5.3484311.3804459-7.7787081zm-6 3h4v3.264c-1.1714899-.822921-2.568362-1.2643326-4-1.264zm4-3v1h-4v-5.9c2.3264168.4784327 3.9970017 2.5248992 4 4.9zm-53 5c-1.1045695 0-2-.8954305-2-2v-40c0-1.1045695.8954305-2 2-2h34c1.1045695 0 2 .8954305 2 2v30h-2v-28c0-1.1045695-.8954305-2-2-2h-30c-1.1045695 0-2 .8954305-2 2v36c0 1.1045695.8954305 2 2 2h16.356c-.7082705.5708161-1.326537 1.2450434-1.834 2zm28-12c0-1.1045695.8954305-2 2-2s2 .8954305 2 2zm-5 3v1.046c-.9566208.0712327-1.9022146.2496846-2.819.532-.011 0-.021 0-.032 0s-.025.014-.039.018c-.4463371.1388849-.8849586.3014486-1.314.487-.4882913.2313427-.7045065.8087246-.4882756 1.3038933.2162308.4951687.786697.7290216 1.2882756.5281067.03-.013.062-.022.093-.036l.28 1.121h-17.969v-36h30v24.556c-.6053465-.3599241-1.2957468-.5518554-2-.556-2.209139 0-4 1.790861-4 4-.7956495 0-1.5587112.3160705-2.1213203.8786797-.5626092.5626091-.8786797 1.3256708-.8786797 2.1213203zm1 21c-2.8312357 0-5.3836897-1.7054952-6.4671567-4.321216-1.083467-2.6157207-.4845767-5.6265455 1.5174092-7.6285315 2.001986-2.0019859 5.0128108-2.6008762 7.6285315-1.5174092 2.6157208 1.083467 4.321216 3.635921 4.321216 6.4671567-.0044086 3.8641657-3.1358343 6.9955914-7 7zm0-16c-.6450552.0012572-1.2880981.0719986-1.918.211l-.485-1.95c2.0795227-.4503214 4.2431277-.3160263 6.251.388 3.4571729 1.213163 6.0437958 4.1241534 6.842 7.7.006.016.007.034.014.05.1971055.8529486.2964123 1.7255734.2960013 2.601h-2.0000013c-.0055111-4.9682782-4.0317218-8.9944889-9-9zm12.85 7h1.15c.5522847 0 1-.4477153 1-1s-.4477153-1-1-1h-1.6c-.2142739-.6877562-.4848561-1.3566862-.809-2h1.409c.5522847 0 1-.4477153 1-1s-.4477153-1-1-1h-2.665c-1.4788799-1.9692282-3.5157308-3.4482621-5.846-4.245-1.1283842-.3836372-2.3006217-.6235276-3.489-.714v-1.041c0-.5522847.4477153-1 1-1h21v3h-9c-.5522847 0-1 .4477153-1 1s.4477153 1 1 1h9v5.3c-2.6075671.7836334-4.525753 3.0059219-4.92 5.7h-5.08v-1c-.0003077-.669465-.0504462-1.3379785-.15-2zm12.15 9c-2.7614237 0-5-2.2385763-5-5s2.2385763-5 5-5 5 2.2385763 5 5c-.0033061 2.7600532-2.2399468 4.9966939-5 5z"/></g></g></svg>