<svg height="512" viewBox="0 0 60 60" width="512" xmlns="http://www.w3.org/2000/svg"><g id="Page-1" fill="none" fill-rule="evenodd"><g id="083---Crop-Data-Computer-App" fill="rgb(0,0,0)" fill-rule="nonzero" transform="translate(-1)"><path id="Shape" d="m58 0h-54c-1.70524172.05441563-3.04599736 1.47651044-3 3.182v43.636c-.04599736 1.7054896 1.29475828 3.1275844 3 3.182h17.382l-2 4h-3.382c-1.6568542 0-3 1.3431458-3 3s1.3431458 3 3 3h30c1.6568542 0 3-1.3431458 3-3s-1.3431458-3-3-3h-3.382l-2-4h17.382c1.7052417-.0544156 3.0459974-1.4765104 3-3.182v-43.636c.0459974-1.70548956-1.2947583-3.12758437-3-3.182zm-54 2h54c.5966179.06161524 1.038076.58341866 1 1.182v38.818h-5.357c-.8473621-2.3913614-3.1059598-3.9923521-5.643-4-.6949775.0002466-1.3844907.1227816-2.037.362-.4886221.1807844-1.0355612.1017361-1.453-.21-1.0168758-.7491366-2.2469714-1.1528603-3.51-1.152-.2318497.0001279-.4635224.0128131-.694.038-.4163285.0633296-.8390485-.0641107-1.151-.347-1.9141764-1.8741219-4.8478547-2.2304275-7.155-.869v-2.822h1c2.9246159-.0054296 5.4201335-2.1166966 5.91-5h3.09v3c0 1.6568542 1.3431458 3 3 3h9c1.6568542 0 3-1.3431458 3-3v-8c0-1.6568542-1.3431458-3-3-3h-9c-1.6568542 0-3 1.3431458-3 3v3h-3.278c-.3544126-.6167513-1.0106732-.997855-1.722-1h-1c-1.4782155.0002927-2.9036672.5494479-4 1.541v-2.541h1c3.3123376-.0033074 5.9966926-2.6876624 6-6 0-1.1045695-.8954305-2-2-2h-1c-1.4782155.0002927-2.9036672.5494479-4 1.541v-2.541h1.833c2.0093398-.0050896 3.833206-1.175485 4.675-3h3.492v3c0 1.6568542 1.3431458 3 3 3h9c1.6568542 0 3-1.3431458 3-3v-8c0-1.65685425-1.3431458-3-3-3h-9c-1.6568542 0-3 1.34314575-3 3v3h-3.017c0-.057.017-.11.017-.167-.0011023-1.01188102-.821119-1.83189773-1.833-1.833h-2c-1.1510666.00465563-2.2669013.39750555-3.167 1.115v-4.115c0-.55228475-.4477153-1-1-1s-1 .44771525-1 1v4.115c-.9000987-.71749445-2.0159334-1.11034437-3.167-1.115h-2c-1.011881.00110227-1.8318977.82111898-1.833 1.833.0033064 2.8522846 2.3147154 5.1636936 5.167 5.167h1.833v2.541c-1.0963328-.9915521-2.5217845-1.5407073-4-1.541h-1c-1.1045695 0-2 .8954305-2 2h-3v-3c0-1.6568542-1.3431458-3-3-3h-9c-1.65685425 0-3 1.3431458-3 3v8c0 1.6568542 1.34314575 3 3 3h9c1.6568542 0 3-1.3431458 3-3v-3h3.35c.8467262 2.3949087 3.109818 3.9970976 5.65 4h1v2.54c-1.0964822-.9911889-2.5219173-1.5399814-4-1.54h-1c-1.1045695 0-2 .8954305-2 2 .0033074 3.3123376 2.6876624 5.9966926 6 6h1v4.163c-.2167095.0479789-.4412905.0479789-.658 0-.9556864-.2292996-1.9542461-.2093284-2.9.058-.3572167.1046098-.7424202.0456576-1.052-.161-2.3367707-1.6178105-5.4921986-1.3532861-7.527.631-.4296961.4060893-1.0327463.5727708-1.61.445-2.9435999-.6314893-5.8976944 1.0237632-6.896 3.864h-6.357v-38.818c-.03807599-.59858134.40338206-1.12038476 1-1.182zm21 16h1c2.209139 0 4 1.790861 4 4h-1c-2.209139 0-4-1.790861-4-4zm4 13c-2.209139 0-4-1.790861-4-4h1c2.209139 0 4 1.790861 4 4zm3 0c0-2.209139 1.790861-4 4-4h1c0 2.209139-1.790861 4-4 4zm12-8c0-.5522847.4477153-1 1-1h9c.5522847 0 1 .4477153 1 1v8c0 .5522847-.4477153 1-1 1h-9c-.5522847 0-1-.4477153-1-1zm-12-1c0-2.209139 1.790861-4 4-4h1c0 2.209139-1.790861 4-4 4zm1.833-9-1.833.0000001c.0907861-1.6810935 1.479458-2.9982024 3.163-3.0000001h1.837c-.0908703 1.6826354-1.4819127 3.0003263-3.167 3zm10.167-6c0-.55228475.4477153-1 1-1h9c.5522847 0 1 .44771525 1 1v8c0 .5522847-.4477153 1-1 1h-9c-.5522847 0-1-.4477153-1-1zm-14 6.0000001-1.833-.0000001c-1.6850873.0003263-3.0761297-1.3173646-3.167-3.00000342l1.829.00000342c1.686632-.00245408 3.080048 1.3158203 3.171 3.0000001zm-12 9.9999999c0 .5522847-.4477153 1-1 1h-9c-.55228475 0-1-.4477153-1-1v-8c0-.5522847.44771525-1 1-1h9c.5522847 0 1 .4477153 1 1zm29 34c0 .5522847-.4477153 1-1 1h-30c-.5522847 0-1-.4477153-1-1s.4477153-1 1-1h30c.5522847 0 1 .4477153 1 1zm-6.618-3h-18.764l2-4h14.764zm17.618-6h-54c-.59661794-.0616152-1.03807599-.5834187-1-1.182v-2.818h14c.5522847 0 1-.4477153 1-1s-.4477153-1-1-1h-5.458c.7144914-1.2346675 2.0315047-1.9963872 3.458-2 .2762515-.0001198.5517554.0287042.822.086 1.231007.2675116 2.5145742-.0924265 3.427-.961 1.3627096-1.2930557 3.4398432-1.4683658 5-.422.801561.5483104 1.8066144.7086639 2.739.437.6145401-.1755275 1.264206-.1879349 1.885-.036 1.1977419.2813467 2.4558861-.0751527 3.328-.943 1.5516397-1.4869363 3.9954136-1.5001151 5.563-.03.74051.702382 1.7597156 1.0308376 2.771.893.9918352-.1112353 1.9892213.1547105 2.794.745.957869.7033986 2.2045278.8798834 3.32.47.4328092-.1583659.8901275-.2392682 1.351-.239 1.4264953.0036128 2.7435086.7653325 3.458 2h-30.458c-.5522847 0-1 .4477153-1 1s.4477153 1 1 1h38v2.818c.038076.5985813-.4033821 1.1203848-1 1.182z"/><path id="Shape" d="m47 10h5c.5522847 0 1-.44771525 1-1s-.4477153-1-1-1h-5c-.5522847 0-1 .44771525-1 1s.4477153 1 1 1z"/><path id="Shape" d="m47 14h3c.5522847 0 1-.4477153 1-1s-.4477153-1-1-1h-3c-.5522847 0-1 .4477153-1 1s.4477153 1 1 1z"/><path id="Shape" d="m47 26h5c.5522847 0 1-.4477153 1-1s-.4477153-1-1-1h-5c-.5522847 0-1 .4477153-1 1s.4477153 1 1 1z"/><path id="Shape" d="m47 30h3c.5522847 0 1-.4477153 1-1s-.4477153-1-1-1h-3c-.5522847 0-1 .4477153-1 1s.4477153 1 1 1z"/><path id="Shape" d="m15 16h-5c-.55228475 0-1 .4477153-1 1s.44771525 1 1 1h5c.5522847 0 1-.4477153 1-1s-.4477153-1-1-1z"/><path id="Shape" d="m15 20h-3c-.5522847 0-1 .4477153-1 1s.4477153 1 1 1h3c.5522847 0 1-.4477153 1-1s-.4477153-1-1-1z"/></g></g></svg>