<svg height="512" viewBox="0 0 60 60" width="512" xmlns="http://www.w3.org/2000/svg"><g id="Page-1" fill="none" fill-rule="evenodd"><g id="084---Indoor-Farming" fill="rgb(0,0,0)" fill-rule="nonzero"><path id="Shape" d="m57 1h-2.278c-.3544126-.61675126-1.0106732-.997855-1.722-1h-6c-.7113268.002145-1.3675874.38324874-1.722 1h-10.556c-.3544126-.61675126-1.0106732-.997855-1.722-1h-6c-.7113268.002145-1.3675874.38324874-1.722 1h-10.556c-.3544126-.61675126-1.0106732-.997855-1.722-1h-6c-.71132678.002145-1.36758742.38324874-1.722 1h-2.278c-.79208511-.00643329-1.55284344.30898549-2.108.874-.57399851.55792893-.89606134 1.32553608-.892 2.126 0 1.65685425 1.34314575 3 3 3h2.278c.35441258.61675126 1.01067322.997855 1.722 1h6c.7113268-.002145 1.3675874-.38324874 1.722-1h10.556c.3544126.61675126 1.0106732.997855 1.722 1h6c.7113268-.002145 1.3675874-.38324874 1.722-1h10.556c.3544126.61675126 1.0106732.997855 1.722 1h6c.7113268-.002145 1.3675874-.38324874 1.722-1h2.278c.7920851.00643329 1.5528434-.30898549 2.108-.874.5739985-.55792893.8960613-1.32553608.892-2.126 0-1.65685425-1.3431458-3-3-3zm-22 2h10v2h-10zm-20 0h10v2h-10zm-13 1c-.00067119-.26969182.11005477-.52769054.306-.713.18309032-.18545144.4334037-.2889672.694-.287h2v2h-2c-.55228475 0-1-.44771525-1-1zm5 2v-4h6v4zm20 0v-4h6v4zm20 0v-4h6v4zm10.694-1.287c-.1830903.18545144-.4334037.2889672-.694.287h-2v-2h2c.5522847 0 1 .44771525 1 1 .0006712.26969182-.1100548.52769054-.306.713z"/><path id="Shape" d="m30 13c.5522847 0 1-.4477153 1-1v-1c0-.5522847-.4477153-1-1-1s-1 .4477153-1 1v1c0 .5522847.4477153 1 1 1z"/><path id="Shape" d="m29 17c0 .5522847.4477153 1 1 1s1-.4477153 1-1v-1c0-.5522847-.4477153-1-1-1s-1 .4477153-1 1z"/><path id="Shape" d="m29 22c0 .5522847.4477153 1 1 1s1-.4477153 1-1v-1c0-.5522847-.4477153-1-1-1s-1 .4477153-1 1z"/><path id="Shape" d="m29 27c0 .5522847.4477153 1 1 1s1-.4477153 1-1v-1c0-.5522847-.4477153-1-1-1s-1 .4477153-1 1z"/><path id="Shape" d="m22.205 25.815-.188 1c-.0487975.2608552.0080941.5304094.158145.7492961.1500508.2188866.3809538.3691528.641855.4177039.0602959.0117576.1215689.0177845.183.018.4806641-.000355.8930772-.3426327.982-.815l.187-1c.0890405-.5365093-.2670072-1.0458182-.8014629-1.1464536-.5344558-.1006355-1.0513539.2443019-1.1635371.7764536z"/><path id="Shape" d="m23.142 20.815-.187 1c-.0487975.2608552.0080941.5304094.158145.7492961.1500508.2188866.3809538.3691528.641855.4177039.0609518.0118838.1229005.0179113.185.018.4806641-.000355.8930772-.3426327.982-.815l.188-1c.0660941-.3511921-.0601911-.7109677-.3312853-.943803-.2710942-.2328352-.6458117-.3033568-.983-.185-.3371883.1183569-.5856206.4076109-.6517147.758803z"/><path id="Shape" d="m24.08 15.815-.188 1c-.0487975.2608552.0080941.5304094.158145.7492961.1500508.2188866.3809538.3691528.641855.4177039.0609518.0118838.1229005.0179113.185.018.4806641-.000355.8930772-.3426327.982-.815l.187-1c.0890405-.5365093-.2670072-1.0458182-.8014629-1.1464536-.5344558-.1006355-1.0513539.2443019-1.1635371.7764536z"/><path id="Shape" d="m25.813 13c.4806641-.000355.8930772-.3426327.982-.815l.188-1c.1021727-.5428959-.2551041-1.0658273-.798-1.168-.5428959-.10217266-1.0658273.2551041-1.168.798l-.187 1c-.0487975.2608552.0080941.5304094.158145.7492961.1500508.2188866.3809538.3691528.641855.4177039.0602959.0117576.1215689.0177845.183.018z"/><path id="Shape" d="m35.83 26.185.187 1c.0889925.4727374.5019592.8151258.983.815.0620995-.0000887.1240482-.0061162.185-.018.2609012-.0485511.4918042-.1988173.641855-.4177039.1500509-.2188867.2069425-.4884409.158145-.7492961l-.188-1c-.1121832-.5321517-.6290813-.8770891-1.1635371-.7764536-.5344557.1006354-.8905034.6099443-.8014629 1.1464536z"/><path id="Shape" d="m35.691 20.018c-.2609012.0485511-.4918042.1988173-.641855.4177039-.1500509.2188867-.2069425.4884409-.158145.7492961l.188 1c.0889228.4723673.5013359.814645.982.815.0620995-.0000887.1240482-.0061162.185-.018.2609012-.0485511.4918042-.1988173.641855-.4177039.1500509-.2188867.2069425-.4884409.158145-.7492961l-.187-1c-.1025197-.5425734-.6253976-.8993659-1.168-.797z"/><path id="Shape" d="m34.753 15.018c-.2609012.0485511-.4918042.1988173-.641855.4177039-.1500509.2188867-.2069425.4884409-.158145.7492961l.187 1c.0889228.4723673.5013359.814645.982.815.0620995-.0000887.1240482-.0061162.185-.018.2609012-.0485511.4918042-.1988173.641855-.4177039.1500509-.2188867.2069425-.4884409.158145-.7492961l-.188-1c-.1025503-.5416402-.6240932-.8981322-1.166-.797z"/><path id="Shape" d="m33.816 10.018c-.2609012.0485511-.4918042.1988173-.641855.4177039-.1500509.2188867-.2069425.4884409-.158145.7492961l.188 1c.0889228.4723673.5013359.814645.982.815.0620995-.0000887.1240482-.0061162.185-.018.2609012-.0485511.4918042-.1988173.641855-.4177039.1500509-.2188867.2069425-.4884409.158145-.7492961l-.187-1c-.1025197-.5425734-.6253976-.89936589-1.168-.797z"/><path id="Shape" d="m10 13c.5522847 0 1-.4477153 1-1v-1c0-.5522847-.4477153-1-1-1-.55228475 0-1 .4477153-1 1v1c0 .5522847.44771525 1 1 1z"/><path id="Shape" d="m9 17c0 .5522847.44771525 1 1 1 .5522847 0 1-.4477153 1-1v-1c0-.5522847-.4477153-1-1-1-.55228475 0-1 .4477153-1 1z"/><path id="Shape" d="m9 22c0 .5522847.44771525 1 1 1 .5522847 0 1-.4477153 1-1v-1c0-.5522847-.4477153-1-1-1-.55228475 0-1 .4477153-1 1z"/><path id="Shape" d="m9 27c0 .5522847.44771525 1 1 1 .5522847 0 1-.4477153 1-1v-1c0-.5522847-.4477153-1-1-1-.55228475 0-1 .4477153-1 1z"/><path id="Shape" d="m2.205 25.815-.188 1c-.04879747.2608552.00809412.5304094.15814495.7492961.15005083.2188866.3809539.3691528.64185505.4177039.06029586.0117576.12156885.0177845.183.018.48066412-.000355.89307724-.3426327.982-.815l.187-1c.08904054-.5365093-.26700717-1.0458182-.80146293-1.1464536-.53445577-.1006355-1.05135392.2443019-1.16353707.7764536z"/><path id="Shape" d="m3.142 20.815-.187 1c-.04879747.2608552.00809412.5304094.15814495.7492961.15005083.2188866.3809539.3691528.64185505.4177039.06029586.0117576.12156885.0177845.183.018.48066412-.000355.89307724-.3426327.982-.815l.188-1c.10217268-.5428959-.25510409-1.0658273-.798-1.168s-1.06582732.2551041-1.168.798z"/><path id="Shape" d="m4.08 15.815-.188 1c-.04879747.2608552.00809412.5304094.15814495.7492961.15005083.2188866.3809539.3691528.64185505.4177039.06062387.0118205.12223468.0178477.184.018.48066412-.000355.89307724-.3426327.982-.815l.187-1c.08904054-.5365093-.26700717-1.0458182-.80146293-1.1464536-.53445577-.1006355-1.05135392.2443019-1.16353707.7764536z"/><path id="Shape" d="m5.813 13c.48066412-.000355.89307724-.3426327.982-.815l.188-1c.06609413-.3511921-.06019111-.7109677-.3312853-.943803-.27109419-.2328352-.64581167-.30335681-.983-.185-.33718833.1183569-.58562057.4076109-.6517147.758803l-.187 1c-.04879747.2608552.00809412.5304094.15814495.7492961.15005083.2188866.3809539.3691528.64185505.4177039.06029586.0117576.12156885.0177845.183.018z"/><path id="Shape" d="m15.83 26.185.187 1c.0889925.4727374.5019592.8151258.983.815.0620995-.0000887.1240482-.0061162.185-.018.2609012-.0485511.4918042-.1988173.641855-.4177039.1500509-.2188867.2069425-.4884409.158145-.7492961l-.188-1c-.1121832-.5321517-.6290813-.8770891-1.1635371-.7764536-.5344557.1006354-.8905034.6099443-.8014629 1.1464536z"/><path id="Shape" d="m15.691 20.018c-.2609012.0485511-.4918042.1988173-.641855.4177039-.1500509.2188867-.2069425.4884409-.158145.7492961l.188 1c.0889228.4723673.5013359.814645.982.815.0620995-.0000887.1240482-.0061162.185-.018.2609012-.0485511.4918042-.1988173.641855-.4177039.1500509-.2188867.2069425-.4884409.158145-.7492961l-.187-1c-.1025197-.5425734-.6253976-.8993659-1.168-.797z"/><path id="Shape" d="m14.753 15.018c-.2609012.0485511-.4918042.1988173-.641855.4177039-.1500509.2188867-.2069425.4884409-.158145.7492961l.187 1c.0889228.4723673.5013359.814645.982.815.0620995-.0000887.1240482-.0061162.185-.018.2609012-.0485511.4918042-.1988173.641855-.4177039.1500509-.2188867.2069425-.4884409.158145-.7492961l-.188-1c-.1025503-.5416402-.6240932-.8981322-1.166-.797z"/><path id="Shape" d="m13.816 10.018c-.2609012.0485511-.4918042.1988173-.641855.4177039-.1500509.2188867-.2069425.4884409-.158145.7492961l.188 1c.0889228.4723673.5013359.814645.982.815.0620995-.0000887.1240482-.0061162.185-.018.2609012-.0485511.4918042-.1988173.641855-.4177039.1500509-.2188867.2069425-.4884409.158145-.7492961l-.187-1c-.1025197-.5425734-.6253976-.89936589-1.168-.797z"/><path id="Shape" d="m50 13c.5522847 0 1-.4477153 1-1v-1c0-.5522847-.4477153-1-1-1s-1 .4477153-1 1v1c0 .5522847.4477153 1 1 1z"/><path id="Shape" d="m49 17c0 .5522847.4477153 1 1 1s1-.4477153 1-1v-1c0-.5522847-.4477153-1-1-1s-1 .4477153-1 1z"/><path id="Shape" d="m49 22c0 .5522847.4477153 1 1 1s1-.4477153 1-1v-1c0-.5522847-.4477153-1-1-1s-1 .4477153-1 1z"/><path id="Shape" d="m49 27c0 .5522847.4477153 1 1 1s1-.4477153 1-1v-1c0-.5522847-.4477153-1-1-1s-1 .4477153-1 1z"/><path id="Shape" d="m42.205 25.815-.188 1c-.0487975.2608552.0080941.5304094.158145.7492961.1500508.2188866.3809538.3691528.641855.4177039.0602959.0117576.1215689.0177845.183.018.4806641-.000355.8930772-.3426327.982-.815l.187-1c.0890405-.5365093-.2670072-1.0458182-.8014629-1.1464536-.5344558-.1006355-1.0513539.2443019-1.1635371.7764536z"/><path id="Shape" d="m43.142 20.815-.187 1c-.0487975.2608552.0080941.5304094.158145.7492961.1500508.2188866.3809538.3691528.641855.4177039.0609518.0118838.1229005.0179113.185.018.4806641-.000355.8930772-.3426327.982-.815l.188-1c.0660941-.3511921-.0601911-.7109677-.3312853-.943803-.2710942-.2328352-.6458117-.3033568-.983-.185-.3371883.1183569-.5856206.4076109-.6517147.758803z"/><path id="Shape" d="m44.08 15.815-.188 1c-.0487975.2608552.0080941.5304094.158145.7492961.1500508.2188866.3809538.3691528.641855.4177039.0609518.0118838.1229005.0179113.185.018.4806641-.000355.8930772-.3426327.982-.815l.187-1c.0890405-.5365093-.2670072-1.0458182-.8014629-1.1464536-.5344558-.1006355-1.0513539.2443019-1.1635371.7764536z"/><path id="Shape" d="m45.813 13c.4806641-.000355.8930772-.3426327.982-.815l.188-1c.1021727-.5428959-.2551041-1.0658273-.798-1.168-.5428959-.10217266-1.0658273.2551041-1.168.798l-.187 1c-.0487975.2608552.0080941.5304094.158145.7492961.1500508.2188866.3809538.3691528.641855.4177039.0602959.0117576.1215689.0177845.183.018z"/><path id="Shape" d="m55.83 26.185.187 1c.0889925.4727374.5019592.8151258.983.815.0620995-.0000887.1240482-.0061162.185-.018.2609012-.0485511.4918042-.1988173.641855-.4177039.1500509-.2188867.2069425-.4884409.158145-.7492961l-.188-1c-.1121832-.5321517-.6290813-.8770891-1.1635371-.7764536-.5344557.1006354-.8905034.6099443-.8014629 1.1464536z"/><path id="Shape" d="m55.691 20.018c-.2609012.0485511-.4918042.1988173-.641855.4177039-.1500509.2188867-.2069425.4884409-.158145.7492961l.188 1c.0889228.4723673.5013359.814645.982.815.0620995-.0000887.1240482-.0061162.185-.018.2609012-.0485511.4918042-.1988173.641855-.4177039.1500509-.2188867.2069425-.4884409.158145-.7492961l-.187-1c-.1025197-.5425734-.6253976-.8993659-1.168-.797z"/><path id="Shape" d="m54.753 15.018c-.2609012.0485511-.4918042.1988173-.641855.4177039-.1500509.2188867-.2069425.4884409-.158145.7492961l.187 1c.0889228.4723673.5013359.814645.982.815.0620995-.0000887.1240482-.0061162.185-.018.2609012-.0485511.4918042-.1988173.641855-.4177039.1500509-.2188867.2069425-.4884409.158145-.7492961l-.188-1c-.1025503-.5416402-.6240932-.8981322-1.166-.797z"/><path id="Shape" d="m53.816 10.018c-.2609012.0485511-.4918042.1988173-.641855.4177039-.1500509.2188867-.2069425.4884409-.158145.7492961l.188 1c.0889228.4723673.5013359.814645.982.815.0620995-.0000887.1240482-.0061162.185-.018.2609012-.0485511.4918042-.1988173.641855-.4177039.1500509-.2188867.2069425-.4884409.158145-.7492961l-.187-1c-.1025197-.5425734-.6253976-.89936589-1.168-.797z"/><path id="Shape" d="m58 41h-.026c.6618067-.8603889 1.0223232-1.9145307 1.026-3v-1c0-1.1045695-.8954305-2-2-2h-3c-1.0854693.0036768-2.1396111.3641933-3 1.026v-4.026c0-.5522847-.4477153-1-1-1s-1 .4477153-1 1v4.026c-.8603889-.6618067-1.9145307-1.0223232-3-1.026h-3c-1.1045695 0-2 .8954305-2 2v1c.0036768 1.0854693.3641933 2.1396111 1.026 3h-4.052c.6618067-.8603889 1.0223232-1.9145307 1.026-3v-1c0-1.1045695-.8954305-2-2-2h-3c-1.0854693.0036768-2.1396111.3641933-3 1.026v-4.026c0-.5522847-.4477153-1-1-1s-1 .4477153-1 1v4.026c-.8603889-.6618067-1.9145307-1.0223232-3-1.026h-3c-1.1045695 0-2 .8954305-2 2v1c.0036768 1.0854693.3641933 2.1396111 1.026 3h-4.052c.6618067-.8603889 1.0223232-1.9145307 1.026-3v-1c0-1.1045695-.8954305-2-2-2h-3c-1.0854693.0036768-2.1396111.3641933-3 1.026v-4.026c0-.5522847-.4477153-1-1-1-.55228475 0-1 .4477153-1 1v4.026c-.86038886-.6618067-1.91453073-1.0223232-3-1.026h-3c-1.1045695 0-2 .8954305-2 2v1c.00367682 1.0854693.36419333 2.1396111 1.026 3h-.026c-1.1045695 0-2 .8954305-2 2v2c0 1.1045695.8954305 2 2 2h3v11c0 1.1045695.8954305 2 2 2h2c1.1045695 0 2-.8954305 2-2v-5h38v5c0 1.1045695.8954305 2 2 2h2c1.1045695 0 2-.8954305 2-2v-11h3c1.1045695 0 2-.8954305 2-2v-2c0-1.1045695-.8954305-2-2-2zm-4-4h3v1c0 1.6568542-1.3431458 3-3 3h-3v-1c0-1.6568542 1.3431458-3 3-3zm-11 1v-1h3c1.6568542 0 3 1.3431458 3 3v1h-3c-1.6568542 0-3-1.3431458-3-3zm-9-1h3v1c0 1.6568542-1.3431458 3-3 3h-3v-1c0-1.6568542 1.3431458-3 3-3zm-11 1v-1h3c1.6568542 0 3 1.3431458 3 3v1h-3c-1.6568542 0-3-1.3431458-3-3zm-9-1h3v1c0 1.6568542-1.3431458 3-3 3h-3v-1c0-1.6568542 1.3431458-3 3-3zm-11 1v-1h3c1.65685425 0 3 1.3431458 3 3v1h-3c-1.65685425 0-3-1.3431458-3-3zm4 20v-11h2v11zm4-7v-4h38v4zm42 7h-2v-11h2zm1-13h-52v-2h56v2z"/></g></g></svg>