<svg height="512" viewBox="0 0 60 61" width="512" xmlns="http://www.w3.org/2000/svg"><g id="Page-1" fill="none" fill-rule="evenodd"><g id="085---Electric-Fence" fill="rgb(0,0,0)" fill-rule="nonzero"><path id="Shape" d="m25 21h2.683l-1.968 7.23c-.1867699.6741502.146743 1.3836618.785 1.67.1884464.085495.3930671.1294884.6.129.4581362.0046737.8881054-.2206377 1.145-.6l8.355-11.32c.4089096-.6136843.4469396-1.4025952.0989549-2.052766-.3479846-.6501709-1.0255165-1.0560985-1.7629549-1.056234h-1.323l3.087-4.94c.3857192-.61714573.4057578-1.39510506.0523218-2.03128988-.353436-.63618481-1.024554-1.03016829-1.7523218-1.02871012h-6.674c-.8619508-.0010693-1.627624.55021537-1.9 1.368l-3.327 10c-.2033207.6104475-.1005376 1.2814348.2761914 1.8030291.376729.5215944.9813926.8300913 1.6248086.8289709zm3.326-12h6.674l-3.725 5.969c-.2546053.409275-.2676541.9243228-.0341003 1.3459654.2335539.4216426.6770958.6837783 1.1591003.6850346l2.56-.039-6.507 8.813 1.156-4.249c.1633467-.600444.0379073-1.242709-.3393605-1.7375667-.3772678-.4948578-.9633752-.7859205-1.5856395-.7874333h-2.684z"/><path id="Shape" d="m58 17h-2c-1.1045695 0-2 .8954305-2 2v3h-7.495c1.6971037-6.8599821-1.0266814-14.05447231-6.8413822-18.07053625-5.8147008-4.01606393-13.5075348-4.01606393-19.3222356 0-5.8147008 4.01606394-8.5384859 11.21055415-6.8413822 18.07053625h-7.5v-3c0-1.1045695-.8954305-2-2-2h-2c-1.1045695 0-2 .8954305-2 2v40c0 1.1045695.8954305 2 2 2h2c1.1045695 0 2-.8954305 2-2v-3h12v3c0 1.1045695.8954305 2 2 2h2c1.1045695 0 2-.8954305 2-2v-3h12v3c0 1.1045695.8954305 2 2 2h2c1.1045695 0 2-.8954305 2-2v-3h12v3c0 1.1045695.8954305 2 2 2h2c1.1045695 0 2-.8954305 2-2v-40c0-1.1045695-.8954305-2-2-2zm-4 7v14h-12v-7.971c1.7086683-1.7109923 3.0333809-3.76624 3.886-6.029zm-24-21c8.2842712 0 15 6.71572875 15 15 0 8.2842712-6.7157288 15-15 15s-15-6.7157288-15-15c.0093685-8.28038757 6.7196124-14.99063148 15-15zm6 35h-12v-4.114c3.8621117 1.4853323 8.1378883 1.4853323 12 0zm-21.886-14c.8526191 2.26276 2.1773317 4.3180077 3.886 6.029v7.971h-12v-14zm-12.114 35v-40h2v4 36zm4-5v-14h12v14zm16 5h-2v-27.283c.6362762.4708899 1.3045579.8969195 2 1.275zm2-5v-14h12v14zm16 5h-2v-26.008c.6954421-.3780805 1.3637238-.8041101 2-1.275zm2-5v-14h12v14zm14 5v-40h2v40z"/></g></g></svg>