<svg height="512" viewBox="0 0 52 60" width="512" xmlns="http://www.w3.org/2000/svg"><g id="Page-1" fill="none" fill-rule="evenodd"><g id="087---Farmers-Outfit" fill="rgb(0,0,0)" fill-rule="nonzero" transform="translate(-1)"><path id="Shape" d="m18 16c.5522847 0 1-.4477153 1-1s-.4477153-1-1-1-1 .4477153-1 1 .4477153 1 1 1z"/><path id="Shape" d="m36 16c.5522847 0 1-.4477153 1-1s-.4477153-1-1-1-1 .4477153-1 1 .4477153 1 1 1z"/><path id="Shape" d="m31 21h-8c-1.1045695 0-2 .8954305-2 2v4c0 3.3137085 2.6862915 6 6 6s6-2.6862915 6-6v-4c0-1.1045695-.8954305-2-2-2zm0 6c0 2.209139-1.790861 4-4 4s-4-1.790861-4-4v-4h8z"/><path id="Shape" d="m27 27h1c.5522847 0 1-.4477153 1-1s-.4477153-1-1-1h-1c-.5522847 0-1 .4477153-1 1s.4477153 1 1 1z"/><path id="Shape" d="m45.686 4.719c-.6864701-1.02054503-1.7261855-1.75108845-2.919-2.051l-9.827-2.59c-.7802591-.18112206-1.5999347.0264049-2.2.557l-2.822 2.953c-.2438185.24395711-.5745905.38102244-.9195.38102244s-.6756815-.13706533-.9195-.38102244l-2.816-2.953c-.5970321-.53630964-1.4196893-.74459147-2.2-.557l-9.817 2.587c-1.1975448.29829543-2.24210557 1.02970174-2.932 2.053l-6.814 10.088c-.44051654.6529269-.5994023 1.4557964-.44077524 2.2272922.15862707.7714958.6213881 1.4465487 1.28377524 1.8727078l4.629 2.977c1.2733694.8156216 2.95436387.5587198 3.926-.6l2.102-2.518v35.5c-.6197156.3577919-1.0010548 1.0194154-1 1.735v2c0 1.1045695.8954305 2 2 2h10c1.1045695 0 2-.8954305 2-2v-2c-.0003753-.7141557-.3815228-1.3739222-1-1.731v-15.269h4v15.269c-.6184772.3570778-.9996247 1.0168443-1 1.731v2c0 1.1045695.8954305 2 2 2h10c1.1045695 0 2-.8954305 2-2v-2c-.0003753-.7141557-.3815228-1.3739222-1-1.731v-35.5l2.1 2.517c.9701174 1.162176 2.65411 1.4194705 3.927.6l4.627-2.975c.6622716-.4262076 1.1250789-1.1010841 1.2840526-1.8724361.1589738-.771352.0007274-1.5742262-.4390526-2.2275639zm-6.686 10.281c0 1.6568542-1.3431458 3-3 3s-3-1.3431458-3-3v-3.96c.0025006-.0376252.0025006-.0753748 0-.113v-8.765l6 1.581zm-14.368-10.034c1.3077267 1.30518242 3.4252733 1.30518242 4.733 0l1.635-1.713v7.173c-1.2823528.4535739-2.6418454.6486611-4 .574-1.3580615.074373-2.7174335-.120357-4-.573v-7.171zm-9.632-1.223 6-1.581v12.838c0 1.6568542-1.3431458 3-3 3s-3-1.3431458-3-3zm-5.635 16.257c-.32337247.387392-.88470334.4731568-1.309.2l-4.629-2.973c-.20962318-.1354671-.35599822-.3495065-.40621123-.5939893-.05021302-.2444828-.00004934-.4988883.13921123-.7060107l6.813-10.091c.4161819-.61736662 1.0470651-1.05791559 1.77-1.236l1.257-.33v11.37zm30.635 38h-10v-2h4c.5522847 0 1-.4477153 1-1s-.4477153-1-1-1h-3v-15c0-1.1045695-.8954305-2-2-2h-4c-1.1045695 0-2 .8954305-2 2v15h-1c-.5522847 0-1 .4477153-1 1s.4477153 1 1 1h2v2h-10v-2h4c.5522847 0 1-.4477153 1-1s-.4477153-1-1-1h-3v-14h.657c1.8364133.0023363 3.4377607-1.2478782 3.881-3.03l.432-1.728c.0959435-.3498693-.0051249-.72426-.2641012-.9783171-.2589762-.2540571-.635236-.3479281-.9832013-.2452935-.3479652.1026346-.6130526.385675-.6926975.7396106l-.43 1.727c-.2228006.8913451-1.024232 1.5162388-1.943 1.515h-.657v-19.027c.8602612.6621644 1.9144147 1.0230363 3 1.027 2.7600532-.0033061 4.9966939-2.2399468 5-5v-2.458c1.3060725.3351 2.6519853.489207 4 .458 1.3479687.0315335 2.6938807-.122237 4-.457v2.457c.0033061 2.7600532 2.2399468 4.9966939 5 5 1.0854693-.0036768 2.1396111-.3641933 3-1.026v19.026h-.657c-.918768.0012388-1.7201994-.6236549-1.943-1.515l-.431-1.727c-.1436734-.5239217-.6793531-.8373021-1.2064607-.7057969-.5271075.1315052-.8528058.6597861-.7335393 1.1897969l.432 1.728c.4433288 1.7824843 2.045214 3.0327965 3.882 3.03h.657v14h-1c-.5522847 0-1 .4477153-1 1s.4477153 1 1 1h2zm10.98-41.367c-.0479485.247495-.1954616.4644261-.408.6l-4.627 2.967c-.4242967.2731568-.9856275.187392-1.309-.2l-3.636-4.36v-11.37l1.27.334c.7176887.18024465 1.3434417.61937581 1.757 1.233l6.814 10.088c.1399368.2075893.1900637.462912.139.708z"/></g></g></svg>