<svg height="512" viewBox="0 0 46 60" width="512" xmlns="http://www.w3.org/2000/svg"><g id="Page-1" fill="none" fill-rule="evenodd"><g id="089---Water-Tower" fill="rgb(0,0,0)" fill-rule="nonzero" transform="translate(0 -1)"><path id="Shape" d="m36 29.83v-1.83h2c.5522847 0 1-.4477153 1-1s-.4477153-1-1-1h-2v-3h2c.5522847 0 1-.4477153 1-1s-.4477153-1-1-1h-2v-9h.074c.8750458.0049685 1.6417898-.584743 1.8615687-1.4317536.219779-.84701063-.1635042-1.73512666-.9305687-2.1562464l-13.074-7.174c-.5799174-.31806726-1.2820826-.31806726-1.862 0l-13.069 7.174c-.76797673.41958612-1.1528113 1.30721463-.93412294 2.154573.21868836.8473583.98501105 1.4378933 1.86012294 1.433427h.074v9h-2c-.55228475 0-1 .4477153-1 1s.44771525 1 1 1h2v3h-2c-.55228475 0-1 .4477153-1 1s.44771525 1 1 1h2v1.83l-9.884 28.5c-.21836205.6169494-.12365753 1.3015065.254 1.836.36926018.5225812.96912195.8335101 1.609.834h1.821c.83513641-.0038255 1.57700989-.5340787 1.851-1.323l.535-1.493 13.814-5.69v6.506c0 1.1045695.8954305 2 2 2h2c1.1045695 0 2-.8954305 2-2v-6.506l13.815 5.69.532 1.485c.2722751.7922019 1.0153295 1.3259339 1.853 1.331h1.82c.6404268-.001178 1.2403978-.3132822 1.609-.837.3769778-.5327975.4723931-1.2152408.256-1.831zm-2-3.83h-4v-3h4zm-10 0v-3h4v3zm-6 0v-3h4v3zm4.968-23.008 12.772 7.008h-25.48zm-10.968 9.008h2v6c0 .5522847.4477153 1 1 1s1-.4477153 1-1v-6h18v9h-22zm0 11h4v3h-4zm22 5v2c0 1.019-3.883 3-11 3s-11-1.981-11-3v-2zm-8 14h5.392l-5.392 2.448zm0 5.419 7.217 2.581h-7.217zm1.662-1.529 6.671-3.03 2.221 6.209zm-1.662-5.89v-4.512l6.789 3.058.52 1.454zm2.733-5.476c.8158871-.1401444 1.6234419-.3250908 2.419-.554l.7 1.96zm-11.466 0-3.12 1.406.7-1.96c.7958867.2289449 1.6037763.4138915 2.42.554zm-4.056 4.022 6.789-3.058v4.512h-7.31zm6.789 5.902-5.392-2.448h5.392zm-8.333-1.588 6.671 3.03-8.892 3.179zm8.333 4.559v2.581h-7.217zm-18 11.569 9.265-26.712c.5211492.4085109 1.0924614.7486097 1.7 1.012l-9.165 25.712zm6.4-6.988h7.549l-8.854 3.647zm13.6 7v-24.017c.333.01.667.017 1 .017s.667-.007 1-.017v24.017zm8.054-7h7.546l1.3 3.647zm12.178 7-9.2-25.716c.6077349-.2630065 1.1790946-.6031336 1.7-1.012l9.289 26.728z"/></g></g></svg>