<svg height="512" viewBox="0 0 60 60" width="512" xmlns="http://www.w3.org/2000/svg"><g id="Page-1" fill="none" fill-rule="evenodd"><g id="091---Deliver-Produce" fill="rgb(0,0,0)" fill-rule="nonzero"><path id="Shape" d="m16 44c0-1.6568542-1.3431458-3-3-3s-3 1.3431458-3 3 1.3431458 3 3 3 3-1.3431458 3-3zm-4 0c0-.5522847.4477153-1 1-1s1 .4477153 1 1-.4477153 1-1 1-1-.4477153-1-1z"/><path id="Shape" d="m47 47c1.6568542 0 3-1.3431458 3-3s-1.3431458-3-3-3-3 1.3431458-3 3 1.3431458 3 3 3zm0-4c.5522847 0 1 .4477153 1 1s-.4477153 1-1 1-1-.4477153-1-1 .4477153-1 1-1z"/><path id="Shape" d="m56 44c2.0117689.0025048 3.7110655-1.4923684 3.9650329-3.4880439.2539673-1.9956756-1.0167587-3.8685104-2.9650329-4.3699561v-18.142c-.0049599-4.4162219-3.5837781-7.9950401-8-8h-9v-7c0-1.65685425-1.3431458-3-3-3h-34c-1.65685425 0-3 1.34314575-3 3v32c.00382125 1.1622697.6786435 2.2177509 1.732 2.709-.47567324.6692806-.73148083 1.4699024-.732 2.291 0 2.209139 1.790861 4 4 4-.00069858 1.819455.62225014 3.5841823 1.765 5h-4.765c-1.1045695 0-2 .8954305-2 2v7c0 1.1045695.8954305 2 2 2h56c1.1045695 0 2-.8954305 2-2v-7c0-1.1045695-.8954305-2-2-2h-4.765c1.1427499-1.4158177 1.7656986-3.180545 1.765-5zm-1-12h-1c-.5522847 0-1-.4477153-1-1s.4477153-1 1-1h1zm0-14v2h-8c-.5522847 0-1-.4477153-1-1v-7h3c3.3123376.0033074 5.9966926 2.6876624 6 6zm-11-6v7c0 1.6568542 1.3431458 3 3 3h8v6h-1c-1.6568542 0-3 1.3431458-3 3s1.3431458 3 3 3h1v2h-15v-24zm9 32c0 2.4267735-1.4618531 4.6145912-3.7038994 5.5432772s-4.8227533.4153515-6.5387413-1.3006365-2.2293225-4.296695-1.3006365-6.5387413 3.1165037-3.7038994 5.5432772-3.7038994c3.3123376.0033074 5.9966926 2.6876624 6 6zm-46 0c0-2.4267735 1.46185307-4.6145912 3.7038994-5.5432772 2.2420463-.928686 4.8227533-.4153515 6.5387413 1.3006365s2.2293225 4.296695 1.3006365 6.5387413-3.1165037 3.7038994-5.5432772 3.7038994c-3.31233757-.0033074-5.99669262-2.6876624-6-6zm34.726-6c-1.202779 1.0568211-2.0607752 2.4502376-2.463 4h-3.447c-.4222546-1.1943509-1.5492146-1.9947486-2.816-2h-6c-1.2667854.0052514-2.3937454.8056491-2.816 2h-3.447c-.4022248-1.5497624-1.260221-2.9431789-2.463-4zm-7.726 5c0 .5522847-.4477153 1-1 1h-6c-.5522847 0-1-.4477153-1-1s.4477153-1 1-1h6c.5522847 0 1 .4477153 1 1zm-13 1h3.184c.4222546 1.1943509 1.5492146 1.9947486 2.816 2h6c1.2667854-.0052514 2.3937454-.8056491 2.816-2h3.184c-.0006986 1.819455.6222501 3.5841823 1.765 5h-21.53c1.1427499-1.4158177 1.7656986-3.180545 1.765-5zm-19-41c0-.55228475.44771525-1 1-1h34c.5522847 0 1 .44771525 1 1v33h-35c-.55228475 0-1-.4477153-1-1zm3 39c-1.1045695 0-2-.8954305-2-2s.8954305-2 2-2h2.726c-1.20277901 1.0568211-2.06077521 2.4502376-2.463 4zm53 16h-56v-7h7.136c2.4034549 1.3333808 5.3245451 1.3333808 7.728 0h26.272c2.4034549 1.3333808 5.3245451 1.3333808 7.728 0h7.136zm-5.726-20h3.726c1.1045695 0 2 .8954305 2 2s-.8954305 2-2 2h-1.263c-.4022248-1.5497624-1.260221-2.9431789-2.463-4z"/><path id="Shape" d="m46 28h3c.5522847 0 1-.4477153 1-1s-.4477153-1-1-1h-3c-.5522847 0-1 .4477153-1 1s.4477153 1 1 1z"/><path id="Shape" d="m17 54h-12c-.55228475 0-1 .4477153-1 1s.44771525 1 1 1h12c.5522847 0 1-.4477153 1-1s-.4477153-1-1-1z"/><path id="Shape" d="m37 54h-14c-.5522847 0-1 .4477153-1 1s.4477153 1 1 1h14c.5522847 0 1-.4477153 1-1s-.4477153-1-1-1z"/><path id="Shape" d="m43 54c-.5522847 0-1 .4477153-1 1s.4477153 1 1 1h12c.5522847 0 1-.4477153 1-1s-.4477153-1-1-1z"/><path id="Shape" d="m10 32h20c1.1045695 0 2-.8954305 2-2v-3c-.0019998-.3521367-.0979706-.6973555-.278-1 .1800294-.3026445.2760002-.6478633.278-1v-3c-.0019998-.3521367-.0979706-.6973555-.278-1 .1800294-.3026445.2760002-.6478633.278-1v-3c0-1.1045695-.8954305-2-2-2h-1.241c.1564227-.4847686.2376978-.9906301.241-1.5.1270679-2.3433786-1.657885-4.35145063-4-4.5-.3392812.00510379-.6760639.05898902-1 .16v-2.16c0-.55228475-.4477153-1-1-1s-1 .44771525-1 1v2.147c-.8297506-.23173325-1.7145191-.16484475-2.5.189-.7803629-.37545918-1.6747302-.43842264-2.5-.176v-2.16c0-.55228475-.4477153-1-1-1s-1 .44771525-1 1v2.161c-.3239812-.10094738-.6607065-.15516017-1-.161-2.342115.14854937-4.1270679 2.1566214-4 4.5.0033022.5093699.0845773 1.0152314.241 1.5h-.241c-1.1045695 0-2 .8954305-2 2v3c.00199983.3521367.09797065.6973555.278 1-.18002935.3026445-.27600017.6478633-.278 1v3c.00199983.3521367.09797065.6973555.278 1-.18002935.3026445-.27600017.6478633-.278 1v3c0 1.1045695.8954305 2 2 2zm0-2v-3h2c0 .5522847.4477153 1 1 1s1-.4477153 1-1h12c0 .5522847.4477153 1 1 1s1-.4477153 1-1h2v3zm0-8h2v3h-2zm20 3h-2v-3h2zm-4 0h-12v-3h12zm-3.025-13.565c.0083267.0004717.0166733.0004717.025 0h.021c.4543623.000541.9032891-.0988033 1.315-.291.2077544-.0971263.434675-.146338.664-.144 1.2324358.1564335 2.1179166 1.2632846 2 2.5.0042152.5279655-.1369377 1.04691-.408 1.5h-4.833c.1564227-.4847686.2376978-.9906301.241-1.5.0022758-.8618141-.2237182-1.7088601-.655-2.455.1070392.0217549.2113411.0552925.311.1.4131277.1920827.8634025.2910818 1.319.29zm-10.975 2.065c-.1179166-1.2367154.7675642-2.3435665 2-2.5.2321818.0001007.4615351.0509544.672.149.8413796.3945311 1.8146204.3945311 2.656 0 .2106092-.0976193.4398675-.1484519.672-.149 1.2324358.1564335 2.1179166 1.2632846 2 2.5.0040681.5280807-.1374437 1.0470729-.409 1.5h-7.182c-.2715563-.4529271-.4130681-.9719193-.409-1.5zm-2 3.5h20v3h-2c0-.5522847-.4477153-1-1-1s-1 .4477153-1 1h-12c0-.5522847-.4477153-1-1-1s-1 .4477153-1 1h-2z"/></g></g></svg>