<svg height="512" viewBox="0 0 60 60" width="512" xmlns="http://www.w3.org/2000/svg"><g id="Page-1" fill="none" fill-rule="evenodd"><g id="093---Crop-Rotation" fill="rgb(0,0,0)" fill-rule="nonzero"><path id="Shape" d="m30 13c-9.3888407 0-17 7.6111593-17 17s7.6111593 17 17 17 17-7.6111593 17-17c-.010471-9.3845001-7.6154999-16.989529-17-17zm-7.393 30.035c.333467-.022504.6336457-.2101156.8-.5.8287424-1.4330608 2.653744-1.9364942 4.1-1.131.3094011.1786328.6905989.1786328 1 0 .9275912-.5381777 2.0724088-.5381777 3 0 .3094011.1786328.6905989.1786328 1 0 1.4463941-.8043427 3.2705487-.301143 4.1 1.131.1663543.2898844.466533.477496.8.5-4.5804795 2.6199987-10.2055205 2.6199987-14.786 0zm5.393-17.035c-2.209139 0-4-1.790861-4-4h1c2.209139 0 4 1.790861 4 4zm0 9c-2.209139 0-4-1.790861-4-4h1c2.209139 0 4 1.790861 4 4zm11.792 6.339c-.5715553-.2217091-1.1789546-.3366133-1.792-.339h-.021c-1.3802093-1.8573276-3.8620054-2.5123325-5.979-1.578-.3211937-.1399969-.6564312-.2452615-1-.314v-2.108h1c3.3123376-.0033074 5.9966926-2.6876624 6-6 0-1.1045695-.8954305-2-2-2h-1c-1.4782155.0002927-2.9036672.5494479-4 1.541v-2.541h1c3.3123376-.0033074 5.9966926-2.6876624 6-6 0-1.1045695-.8954305-2-2-2h-1c-1.4782155.0002927-2.9036672.5494479-4 1.541v-3.541c0-.5522847-.4477153-1-1-1s-1 .4477153-1 1v3.541c-1.0963328-.9915521-2.5217845-1.5407073-4-1.541h-1c-1.1045695 0-2 .8954305-2 2 .0033074 3.3123376 2.6876624 5.9966926 6 6h1v2.54c-1.0964822-.9911889-2.5219173-1.5399814-4-1.54h-1c-1.1045695 0-2 .8954305-2 2 .0033074 3.3123376 2.6876624 5.9966926 6 6h1v2.109c-.3435688.0687385-.6788063.1740031-1 .314-2.1167675-.9345444-4.598512-.2799682-5.979 1.577h-.021c-.6129831.0020677-1.2203804.1166326-1.792.338-4.7496167-4.0929713-6.4524644-10.7082423-4.2693712-16.5857738 2.1830933-5.8775315 7.791501-9.7771807 14.0613712-9.7771807s11.8782779 3.8996492 14.0613712 9.7771807c2.1830932 5.8775315.4802455 12.4928025-4.2693712 16.5857738zm-8.792-6.339c0-2.209139 1.790861-4 4-4h1c0 2.209139-1.790861 4-4 4zm0-9c0-2.209139 1.790861-4 4-4h1c0 2.209139-1.790861 4-4 4z"/><path id="Shape" d="m47.056 52.207c-10.1574634 7.8010614-24.3132202 7.7158205-34.376-.207h2.32c.5522847 0 1-.4477153 1-1s-.4477153-1-1-1h-5c-.55228475 0-1 .4477153-1 1v5c0 .5522847.44771525 1 1 1 .5522847 0 1-.4477153 1-1v-2.792c10.779789 8.8322294 26.2233593 9.0746033 37.275.585.4379618-.3366176.5201175-.9645382.1835-1.4025-.3366176-.4379618-.9645382-.5201175-1.4025-.1835z"/><path id="Shape" d="m53.792 11.725c-.211287-.3007467-.5705257-.4613482-.935536-.4182415-.3650104.0431067-.6769549.2829731-.8123717.6246646-.1354168.3416914-.0724775.7301292.1639077 1.0115769 7.8007691 10.1576915 7.7151164 24.3134496-.208 34.376v-2.319c0-.5522847-.4477153-1-1-1s-1 .4477153-1 1v5c0 .5522847.4477153 1 1 1h5c.5522847 0 1-.4477153 1-1s-.4477153-1-1-1h-2.792c8.8326653-10.7797545 9.0746329-26.2238356.584-37.275z"/><path id="Shape" d="m10 15v-5c0-.55228475-.44771525-1-1-1h-5c-.55228475 0-1 .44771525-1 1 0 .5522847.44771525 1 1 1h2.792c-8.83266529 10.7797545-9.07463292 26.2238356-.584 37.275.21128697.3007467.57052566.4613482.93553602.4182415s.67695489-.2829731.81237169-.6246646c.1354168-.3416914.07247749-.7301292-.16390771-1.0115769-7.80076907-10.1576915-7.71511636-24.3134496.208-34.376v2.319c.00000002.5522847.44771526 1 1 1s.99999998-.4477153 1-1z"/><path id="Shape" d="m51 9v-5c0-.55228475-.4477153-1-1-1s-1 .44771525-1 1v2.792c-10.779789-8.83222938-26.2233593-9.07460332-37.275-.585-.2833116.21775338-.4289323.57011074-.3820081.92434248.0469241.35423175.2792642.65652164.6095.793.3302357.13647837.7081965.0864109.9915081-.13134248 10.1574634-7.80106142 24.3132202-7.71582051 34.376.207h-2.32c-.5522847 0-1 .44771525-1 1s.4477153 1 1 1h5c.2652165 0 .5195704-.10535684.7071068-.29289322s.2928932-.44189029.2928932-.70710678z"/></g></g></svg>