<svg height="512" viewBox="0 0 60 60" width="512" xmlns="http://www.w3.org/2000/svg"><g id="Page-1" fill="none" fill-rule="evenodd"><g id="094---Bread-Oven" fill="rgb(0,0,0)" fill-rule="nonzero"><path id="Shape" d="m57 0h-40c-1.6568542 0-3 1.34314575-3 3v1h-11c-1.65685425 0-3 1.34314575-3 3v42c0 1.6568542 1.34314575 3 3 3h11v6c0 1.1045695.8954305 2 2 2h3.5c.6292182-.0012528 1.2214668-.2973771 1.6-.8l2.4-3.2h27l2.4 3.2c.3787379.502377.9708556.7984359 1.6.8h3.5c1.1045695 0 2-.8954305 2-2v-55c0-1.65685425-1.3431458-3-3-3zm-55 49v-42c0-.55228475.44771525-1 1-1h15v44h-15c-.55228475 0-1-.4477153-1-1zm18-43h16v13h-3.184c.1184378-.320257.1806856-.6585603.184-1v-4.047c.9886588-1.0062122 1.2766314-2.5075892.7304335-3.8081956-.5461979-1.30060639-1.8197928-2.14619321-3.2304335-2.1448044h-5c-1.4093407-.00020137-2.6813157.84491637-3.2272438 2.1442253-.5459281 1.2993089-.2592947 2.7993041.7272438 3.8057747v4.05c.0033144.3414397.0655622.679743.184 1h-3.184zm34 0v44h-16v-44zm-21.184 44c.1184378-.320257.1806856-.6585603.184-1v-4.046c.9893668-1.0061253 1.2777869-2.5079636.7314988-3.8090032-.546288-1.3010396-1.8204242-2.1467828-3.2314988-2.1449968h-5c-.9291915-.0036775-1.8211966.3647202-2.477 1.023-.6538966.658726-1.0215094 1.5488306-1.023 2.477-.0034812.9167174.3560399 1.7975443 1 2.45v4.05c.0033144.3414397.0655622.679743.184 1h-3.184v-14h16v14zm-7.816-1v-4.5c0-.3147573-.1481942-.6111456-.4-.8-.3788336-.2823414-.6014271-.7275283-.6-1.2-.0016029-.398314.1559176-.7807768.4375704-1.0624296s.6641156-.4391733 1.0624296-.4375704h5c.6071188-.0018981 1.1555125.3623621 1.3891608.9227239.2336484.5603618.1064702 1.2063082-.3221608 1.6362761-.0436462.0450728-.0911616.0862305-.142.123-.2663876.1872178-.42495.4924039-.425.818v4.5c0 .5522847-.4477153 1-1 1h-4c-.5522847 0-1-.4477153-1-1zm0-31v-4.5c0-.3147573-.1481942-.6111456-.4-.8-.3492636-.2602155-.568179-.6593896-.5998512-1.0937789-.0316722-.4343892.1270265-.8610959.4348512-1.1692211.2833691-.2805805.6662231-.43767646 1.065-.437h5c.6081495-.00190238 1.1572631.3635818 1.3902494.9253351.2329863.5617534.103731 1.2085899-.3272494 1.6376649-.0423242.0437398-.0885117.0835682-.138.119-.2663876.1872178-.42495.4924039-.425.818v4.5c0 .5522847-.4477153 1-1 1h-4c-.5522847 0-1-.4477153-1-1zm1 3h10v13h-3.184c.1184378-.320257.1806856-.6585603.184-1v-4.046c.9893668-1.0061253 1.2777869-2.5079636.7314988-3.8090032-.546288-1.3010396-1.8204242-2.1467828-3.2314988-2.1449968h-5c-.9291915-.0036775-1.8211966.3647202-2.477 1.023-.6538966.658726-1.0215094 1.5488306-1.023 2.477-.0034812.9167174.3560399 1.7975443 1 2.45v4.05c.0033144.3414397.0655622.679743.184 1h-3.184v-13zm-1 12v-4.5c0-.3147573-.1481942-.6111456-.4-.8-.3788336-.2823414-.6014271-.7275283-.6-1.2-.0016029-.398314.1559176-.7807768.4375704-1.0624296s.6641156-.4391733 1.0624296-.4375704h5c.6071188-.0018981 1.1555125.3623621 1.3891608.9227239.2336484.5603618.1064702 1.2063082-.3221608 1.6362761-.0436462.0450728-.0911616.0862305-.142.123-.2663876.1872178-.42495.4924039-.425.818v4.5c0 .5522847-.4477153 1-1 1h-4c-.5522847 0-1-.4477153-1-1zm-6 19h35c1.1045695 0 2-.8954305 2-2v-44c0-1.1045695-.8954305-2-2-2h-38v-1c0-.55228475.4477153-1 1-1h40c.5522847 0 1 .44771525 1 1v51h-42v-2zm.5 6h-3.5v-2h5zm38.5 0h-3.5l-1.5-2h5z"/><path id="Shape" d="m43 21h6c1.6568542 0 3-1.3431458 3-3v-3c0-1.6568542-1.3431458-3-3-3h-6c-1.6568542 0-3 1.3431458-3 3v3c0 1.6568542 1.3431458 3 3 3zm-1-6c0-.5522847.4477153-1 1-1h6c.5522847 0 1 .4477153 1 1v3c0 .5522847-.4477153 1-1 1h-6c-.5522847 0-1-.4477153-1-1z"/><path id="Shape" d="m16 18v-3c0-1.6568542-1.3431458-3-3-3h-6c-1.65685425 0-3 1.3431458-3 3v3c0 1.6568542 1.34314575 3 3 3h6c1.6568542 0 3-1.3431458 3-3zm-2 0c0 .5522847-.4477153 1-1 1h-6c-.55228475 0-1-.4477153-1-1v-3c0-.5522847.44771525-1 1-1h6c.5522847 0 1 .4477153 1 1z"/><path id="Shape" d="m43 25h6c.5522847 0 1-.4477153 1-1s-.4477153-1-1-1h-6c-.5522847 0-1 .4477153-1 1s.4477153 1 1 1z"/><path id="Shape" d="m43 29h6c.5522847 0 1-.4477153 1-1s-.4477153-1-1-1h-6c-.5522847 0-1 .4477153-1 1s.4477153 1 1 1z"/><path id="Shape" d="m43 33h6c.5522847 0 1-.4477153 1-1s-.4477153-1-1-1h-6c-.5522847 0-1 .4477153-1 1s.4477153 1 1 1z"/><path id="Shape" d="m49 35h-6c-.5522847 0-1 .4477153-1 1s.4477153 1 1 1h6c.5522847 0 1-.4477153 1-1s-.4477153-1-1-1z"/><circle id="Oval" cx="41" cy="47" r="1"/><circle id="Oval" cx="51" cy="47" r="1"/><circle id="Oval" cx="41" cy="9" r="1"/><circle id="Oval" cx="51" cy="9" r="1"/></g></g></svg>