<svg height="60" viewBox="0 0 60 60" width="60" xmlns="http://www.w3.org/2000/svg"><g id="Page-1" fill="none" fill-rule="evenodd"><g id="095---Hose" fill="rgb(0,0,0)" fill-rule="nonzero"><path id="Shape" d="m13.3 35.4c.0721592.0165837.1459597.0249701.22.025.4673338-.0002336.8721866-.3241159.975-.78.6815624-2.9894329 1.7375677-5.8809319 3.143-8.606.2518418-.4918096.0573096-1.0946582-.4345-1.3465s-1.0946582-.0573096-1.3465.4345c-1.4804886 2.8733115-2.5932429 5.9216267-3.312 9.073-.0597062.2592999-.0136085.5317032.1280905.7569201.141699.225217.3673136.3846742.6269095.4430799z"/><path id="Shape" d="m58 54h-13.6c1.056203-1.8226295 1.6084269-3.8934693 1.6-6-.0000001-6.6274169-5.3725831-11.9999998-12-11.9999998s-11.9999999 5.3725829-12 11.9999998c-.0069084 2.1069897.5470494 4.17786 1.605 6h-10.735c-.6059919.0014484-1.17474-.292248-1.5244017-.7871875-.3496617-.4949394-.4364431-1.1291325-.2325983-1.6998125l2.815-7.967c.5260029-.3380159.9210634-.8452454 1.12-1.438l.751-2.234c.3044135-.0799363.5976747-.1975095.873-.35.952291-.5249159 1.626091-1.4414741 1.843-2.507 1.825363-8.2055843 5.2185131-15.9813412 9.993-22.9.1963692.1024782.359678.2585057.471.45 1.2622119 2.1249868 3.549415 3.4290839 6.021 3.433h2.184c.4848523 1.3765475 1.8918441 2.2026937 3.330178 1.9553873s2.4885874-1.49595 2.485822-2.9553873v-14c.0027654-1.45943726-1.0474881-2.70808095-2.485822-2.95538732-1.4383339-.24730638-2.8453257.57883984-3.330178 1.95538732h-2.184c-2.4717879.00412588-4.759037 1.30862906-6.021 3.434-.1779497.33533844-.5206728.55087321-.9.566h-7.079c-1.1045695 0-2 .8954305-2 2h-2c0-1.07179678-.5717967-2.06217787-1.5-2.59807626-.9282032-.5358984-2.0717968-.5358984-3 0-.9282033.53589839-1.5 1.52627948-1.5 2.59807626h-3c-.55228475 0-1 .44771525-1 1s.44771525 1 1 1h3v.492c-.0026544.6361414-.3163857 1.2307369-.84 1.592-.50907894.3882864-1.16867015.5203522-1.788.358-.48457984-.1646465-1.02060673-.0195714-1.356.367-.34208801.3952979-.41012967.9586196-.172 1.424.1429339.2926149.13442924.6365019-.02279437.9216936-.15722362.2851917-.44347066.4759619-.76720563.5113064-.50254543.0549489-.9350662.3797229-1.128.847-.17974941.4336858-.11171119.9305942.178 1.3.49781867.6598497.55065477 1.5541205.134 2.268l-4.922 10.595c-.7227958 1.4853938-.10876225 3.275621 1.37357075 4.0046734 1.48233301.7290523 3.27513332.1225725 4.01042925-1.3566734l5.483-11.474c.1187632-.2407838.3293592-.4236983.5843983-.5075828.255039-.0838846.5330964-.0616923.7716017.0615828l.6.309c-2.2216747 3.9257022-3.8079686 8.1783198-4.7 12.6-.19899041 1.0106243.00715927 2.0589708.574 2.919l-.871 2.568c-.20748321.622957-.18262022 1.2999408.07 1.906l-2.758 7.808c-.85013427 2.4066062-.47974401 5.0760886.99349425 7.1603272 1.47323826 2.0842385 3.86615805 3.3241016 6.41850575 3.3256728h45.134c1.1045695 0 2-.8954305 2-2v-2c0-1.1045695-.8954305-2-2-2zm-47.962-13.561.6-1.789c.541.259 2.661 1.037 3.068 1.165l-.557 1.659c-.0615707.1929957-.1978326.3533153-.3783816.4451868-.1805489.0918714-.3903601.1076493-.5826184.0438132l-1.662-.563c-.1926505-.0620093-.3525575-.1983908-.4441914-.3788419-.09163386-.1804511-.10740478-.3900256-.0438086-.5821581zm29.962-38.439c.5522847 0 1 .44771525 1 1v14c0 .5522847-.4477153 1-1 1s-1-.4477153-1-1v-14c0-.55228475.4477153-1 1-1zm-19 6h7.079c1.0879726-.01178153 2.0870473-.60299283 2.621-1.551.9018794-1.51678071 2.5353452-2.4470965 4.3-2.449h2v2h-2c-.5522847 0-1 .44771525-1 1s.4477153 1 1 1h2v4h-2c-.5522847 0-1 .4477153-1 1s.4477153 1 1 1h2v2h-2c-1.7646548-.0019035-3.3981206-.9322193-4.3-2.449-.5476893-.9344454-1.538304-1.5206504-2.621-1.551h-7.079zm-1.607 5.179c-.284.294-.627.668-1.007 1.1l-.857-.456c-.3265439-.1743506-.5300604-.5148271-.529-.885l-.0000041-2.938h2.0000041v2c.0011436.4249811.1389263.8383289.393 1.179zm-5.934 6.45c-.7173138-.3714573-1.5541162-.4379451-2.3210876-.1844211-.7669715.2535241-1.39929489.8056346-1.7539124 1.5314211l-5.484 11.477c-.25073728.4929141-.85358586.6892373-1.34649999.4385s-.68923727-.8535859-.43850001-1.3465l4.9-10.563c.60678657-1.1012936.66303533-2.4231395.152-3.572.59303292-.2618718 1.08304745-.7121649 1.394-1.281.27608115-.4910706.40715728-1.0503981.378-1.613.85838292-.0239225 1.6895881-.3062185 2.385-.81 1.0484763-.7346933 1.6737402-1.9337377 1.676-3.214v-2.492c-.0048663-.26494049.0975461-.52060274.283975-.70891475s.441049-.29328868.706025-.29108525c.5575791.00055124 1.0094488.45242089 1.01 1.01v4.928c-.0019293 1.109444.6099977 2.1289374 1.59 2.649l.481.256c-1.0513289 1.3249285-2.0256035 2.7092132-2.918 4.146zm-3.059 15.071c1.6208677-7.8066367 5.4371294-14.9881474 11-20.7h4.754c-4.5829237 6.8751879-7.83895 14.5472-9.6 22.62-.1094274.5006144-.4318369.9285657-.8828416 1.1718431-.4510047.2432773-.9857082.277663-1.4641584.0941569l-2.544-.954c-.9053794-.3406567-1.437179-1.2804642-1.263-2.232zm-2.318 20.821c-1.10330034-1.5517182-1.38060249-3.5439643-.743-5.338l2.448-6.932c.371.141 1.579.551 1.9.64l-2.458 6.951c-.42144666 1.1830584-.24131554 2.4971643.48293944 3.5231756.72425496 1.0260114 1.90217696 1.6357829 3.15806056 1.6348244h21.13c3.8809281.0135993 7.2159077-2.7509782 7.9221041-6.5671379.7061964-3.8161596-1.4186189-7.5910951-5.0474095-8.9672008-3.6287905-1.3761056-7.7224058.0406841-9.7242109 3.3655245-2.0018052 3.3248404-1.3385578 7.6056209 1.5755163 10.1688142h-2.719c-1.3072622-1.7266412-2.0122787-3.8343139-2.007-6 .0000001-5.5228474 4.4771526-9.9999998 10-9.9999998s9.9999999 4.4771524 10 9.9999998c.0023908 2.6528971-1.0504098 5.1978256-2.9262921 7.0737079s-4.4208108 2.9286829-7.0737079 2.9262921h-21.134c-1.9029903.001114-3.68756021-.9236245-4.784-2.479zm19.918-7.521c0-3.3137085 2.6862915-6 6-6s6 2.6862915 6 6-2.6862915 6-6 6c-3.3123376-.0033074-5.9966926-2.6876624-6-6zm30 10h-17.39c.8536556-.5654049 1.6316145-1.2375075 2.315-2h15.075z"/><circle id="Oval" cx="13" cy="16" r="1"/></g></g></svg>