<svg height="512" viewBox="0 0 60 60" width="512" xmlns="http://www.w3.org/2000/svg"><g id="Page-1" fill="none" fill-rule="evenodd"><g id="096---NPK-Balance" fill="rgb(0,0,0)" fill-rule="nonzero" transform="translate(-1)"><path id="Shape" d="m29 13c.5522847 0 1-.4477153 1-1v-2.7l2.168 3.252c.2441763.3661979.6990772.5296901 1.1205023.4027105s.7102786-.5145725.7114977-.9547105v-6c0-.55228475-.4477153-1-1-1s-1 .44771525-1 1v2.7l-2.168-3.255c-.2444851-.36665571-.7001723-.53004275-1.1219349-.40227078-.4217626.12777198-.710164.51657885-.7100651.95727078v6c0 .5522847.4477153 1 1 1z"/><path id="Shape" d="m53 43h-2c-.5522847 0-1 .4477153-1 1v6c0 .5522847.4477153 1 1 1s1-.4477153 1-1v-1h1c1.6568542 0 3-1.3431458 3-3s-1.3431458-3-3-3zm0 4h-1v-2h1c.5522847 0 1 .4477153 1 1s-.4477153 1-1 1z"/><path id="Shape" d="m12.707 43.293c-.3904999-.3903819-1.0235001-.3903819-1.414 0l-1.293 1.293v-.586c0-.5522847-.44771525-1-1-1s-1 .4477153-1 1v6c0 .5522847.44771525 1 1 1s1-.4477153 1-1v-.586l1.293 1.293c.3923789.3789722 1.0160848.3735524 1.4018186-.0121814s.3911536-1.0094397.0121814-1.4018186l-2.293-2.293 2.293-2.293c.3903819-.3904999.3903819-1.0235001 0-1.414z"/><path id="Shape" d="m31 21c-7.1797017 0-13 5.8202983-13 13s5.8202983 13 13 13 13-5.8202983 13-13c-.008266-7.1762751-5.8237249-12.991734-13-13zm0 24c-6.0751322 0-11-4.9248678-11-11s4.9248678-11 11-11 11 4.9248678 11 11c-.0071635 6.0721626-4.9278374 10.9928365-11 11z"/><path id="Shape" d="m35.219 28.375-7.3 9.128-1.21-1.21c-.3923789-.3789722-1.0160848-.3735524-1.4018186.0121814s-.3911536 1.0094397-.0121814 1.4018186l2 2c.1865649.187713.4403444.2931845.705.293h.056c.2836811-.0156962.5472938-.1513204.725-.373l8-10c.223291-.2790244.2807626-.655978.1507659-.9888659s-.4277123-.5711365-.781-.625c-.3532878-.0538634-.7084749.0848415-.9317659.3638659z"/><path id="Shape" d="m56.462 39.2c2.6098353-12.5887118-4.4127202-25.1857108-16.493-29.585.014-.2.031-.407.031-.615 0-4.97056275-4.0294373-9-9-9s-9 4.02943725-9 9c0 .208.017.411.031.615-12.08027984 4.3992892-19.10283533 16.9962882-16.493 29.585-2.86169741 1.6292624-4.60421164 4.6921772-4.54249195 7.9845925s1.91780426 6.2878708 4.83855401 7.8087353 6.43913404 1.3239503 9.17193794-.5133278c9.3903448 7.3665035 22.5976552 7.3665035 31.988 0 2.7328039 1.8372781 6.2511882 2.0341923 9.1719379.5133278 2.9207498-1.5208645 4.7768344-4.51632 4.838554-7.8087353.0617197-3.2924153-1.6807945-6.3553301-4.5424919-7.9845925zm-25.462-37.2c3.8659932 0 7 3.13400675 7 7 0 3.8659932-3.1340068 7-7 7s-7-3.1340068-7-7c.0049584-3.86393756 3.1360624-6.99504164 7-7zm-28 45c0-3.8659932 3.13400675-7 7-7 3.8659932 0 7 3.1340068 7 7s-3.1340068 7-7 7c-3.86393756-.0049584-6.99504164-3.1360624-7-7zm13.558 6.145c2.7875957-2.9646091 3.2355737-7.4322589 1.0920885-10.8913149-2.1434852-3.4590559-6.3435898-5.0464123-10.2390885-3.8696851-2.13526069-11.3708741 4.1709654-22.6407431 14.979-26.769 1.1534237 3.7894836 4.6488673 6.3793321 8.61 6.3793321s7.4565763-2.5898485 8.61-6.3793321c10.8080346 4.1282569 17.1142607 15.3981259 14.979 26.769-3.8959064-1.1786203-8.0975509.4083188-10.2415302 3.8681721s-1.6949422 7.9286963 1.0945302 10.8928279c-8.5399729 6.4731832-20.3440271 6.4731832-28.884 0zm35.442.855c-2.8312357 0-5.3836897-1.7054952-6.4671567-4.321216-1.083467-2.6157207-.4845767-5.6265455 1.5174092-7.6285315 2.001986-2.0019859 5.0128108-2.6008762 7.6285315-1.5174092 2.6157208 1.083467 4.321216 3.635921 4.321216 6.4671567-.0049584 3.8639376-3.1360624 6.9950416-7 7z"/></g></g></svg>