<svg height="512" viewBox="0 0 44 60" width="512" xmlns="http://www.w3.org/2000/svg"><g id="Page-1" fill="none" fill-rule="evenodd"><g id="097---Farm-Location" fill="rgb(0,0,0)" fill-rule="nonzero" transform="translate(-1 -1)"><path id="Shape" d="m24.212 1.032c-10.212116-.55795241-19.46304331 5.99199352-22.32894499 15.8095916-2.86590169 9.8175981 1.40842959 20.3157665 10.31694499 25.3394084l8.644 16.819h-11.844c-.55228475 0-1 .4477153-1 1s.44771525 1 1 1h28c.5522847 0 1-.4477153 1-1s-.4477153-1-1-1h-11.844l8.644-16.819c8.5152673-4.802455 12.8425393-14.6458953 10.6240535-24.1670125-2.2184857-9.52111723-10.4510359-16.43803256-20.2120535-16.9819875zm8.422 39.508c-.0240711.0059581-.0477774.0133037-.071.022-1.2232294.668883-2.5132996 1.2075015-3.849 1.607-.4753265.1422839-.7744453.6115785-.7027327 1.102534s.4925675.8550853.9887327.855466c.0968479-.0002972.1931557-.0144403.286-.042.529-.158 1.049-.343 1.565-.541l-7.851 15.275-7.851-15.275c.516.2 1.036.383 1.565.541.0928443.0275597.1891521.0417028.286.042.4961652-.0003807.9170201-.3645105.9887327-.855466s-.2274062-.9602501-.7027327-1.102534c-1.3357004-.3994985-2.6257706-.938117-3.849-1.607-.0232226-.0086963-.0469289-.0160419-.071-.022-5.59744829-3.0800075-9.38818168-8.6471797-10.20268421-14.9839344-.81450254-6.3367546 1.44510316-12.6816146 6.08168421-17.0770656 3.7021391-3.53165065 8.6265425-5.49489058 13.743-5.479.37 0 .743.01 1.116.03 8.9126605.49658442 16.4183607 6.83686809 18.3977612 15.541125 1.9794004 8.7042568-2.0463316 17.6668577-9.8677612 21.968875z"/><path id="Shape" d="m23 5c-7.5297928-.00856408-14.26736273 4.67571381-16.88182807 11.7370468-2.61446534 7.0613329-.55197524 15.0038416 5.16782807 19.9009532l.022.02c1.2875973 1.1024755 2.7240348 2.0181329 4.267 2.72.02.01.039.02.06.029 4.6802967 2.1239993 10.0497033 2.1239993 14.73 0 .021-.009.04-.02.06-.029 1.5429652-.7018671 2.9794027-1.6175245 4.267-2.72l.022-.02c5.7198033-4.8971116 7.7822934-12.8396203 5.1678281-19.9009532-2.6144654-7.06133299-9.3520353-11.74561088-16.8818281-11.7370468zm-8.313 11.649 8.313-4.649 8.319 4.652 1.681 3.022v15.8c-.6314574.5045587-1.3000144.9608489-2 1.365v-7.839c0-1.1045695-.8954305-2-2-2h-12c-1.1045695 0-2 .8954305-2 2v7.835c-.6999856-.4041511-1.3685426-.8604413-2-1.365v-15.795zm14.313 21.174-4.461-3.823 4.461-3.822v7.644zm-12 0v-7.653l4.466 3.83-4.461 3.824zm1.708-8.823h8.592l-4.3 3.683zm.537 9.536 3.755-3.219 3.754 3.219c-2.4654477.6186683-5.0455523.6186683-7.511 0zm15.755-4.989v-10.287l.127.227c.276477.4661396.873962.6271976 1.3472633.3631681s.6501332-.8570374.3987367-1.3371681l-3.811-6.835c-.1811356-.3247743-.4486948-.5930258-.773-.775l-8.318-4.65c-.6030391-.34002215-1.3399609-.34002215-1.943 0l-8.313 4.647c-.3256722.1816354-.5943646.4503278-.776.776l-3.812 6.836c-.18547841.3127161-.18661132.7014634-.00295871 1.0152553.1836526.3137919.52314962.5031791.88663291.4946051.3634833-.008574.693673-.2137582.8623258-.5358604l.127-.226v10.287c-5.67291322-6.432479-5.26488156-16.1939405.9250628-22.1305489 6.1899443-5.93660844 15.9599301-5.93660844 22.1498744 0 6.1899444 5.9366084 6.597976 15.6980699.9250628 22.1305489z"/><path id="Shape" d="m20 25h6c1.1083689-.0049604 2.0033213-.9066249 2-2.015v-4.448c.0052913-.7603137-.4209924-1.4578689-1.1-1.8l-3-1.521c-.2786959-.1421634-.5871394-.2161898-.9-.216-.3107604.000371-.6170521.0740318-.894.215l-3 1.522c-.6790076.3421311-1.1052913 1.0396863-1.1 1.8v4.448c-.0033341 1.1060473.8879785 2.0067468 1.994 2.015zm5.994-2h-1.994v-5.487l2 1.024zm-5.989-4.479 2-1.015v5.484h-2z"/></g></g></svg>