<svg height="512" viewBox="0 0 44 60" width="512" xmlns="http://www.w3.org/2000/svg"><g id="Page-1" fill="none" fill-rule="evenodd"><g id="099---Udder-Milk" fill="rgb(0,0,0)" fill-rule="nonzero"><path id="Shape" d="m36 39h-28c-.55228475 0-1 .4477153-1 1s.44771525 1 1 1h1.1l1.623 15.42c.2108833 2.0369198 1.9291963 3.5837038 3.977 3.58h14.6c2.0487091.0046298 3.7679992-1.5430771 3.978-3.581l1.622-15.419h1.1c.5522847 0 1-.4477153 1-1s-.4477153-1-1-1zm-4.711 17.209c-.1069704 1.0180357-.9653597 1.7909745-1.989 1.791h-14.6c-1.0236784.0005403-1.8825139-.7719801-1.99-1.79l-1.6-15.21h21.78z"/><path id="Shape" d="m42 0h-40c-1.1045695 0-2 .8954305-2 2 .00708621 4.96972811 1.69487072 9.7909626 4.789 13.68l-3.326 7.22c-.55820633 1.2040328-.61410106 2.5807593-.1553379 3.8260808.45876317 1.2453215 1.39443445 2.2567656 2.6003379 2.8109192 1.20319417.5572073 2.57875572.6123145 3.82266771.1531423 1.243912-.4591722 2.25375201-1.3948161 2.80633229-2.6001423l2.348-5.076c1.3204334.6045404 2.6992882 1.0723123 4.115 1.396v3.59c.0000001 2.7614237 2.2385763 4.9999999 5 4.9999999s4.9999999-2.2385762 5-4.9999999v-3.59c1.4159931-.3245076 2.7948993-.7936373 4.115-1.4l2.346 5.072c.5485972 1.2077113 1.5568645 2.1462676 2.8007203 2.6070801s2.6202474.4057032 3.8232797-.1530801c1.2070702-.5526885 2.1443347-1.5633383 2.6046357-2.8085716s.4057357-2.6225134-.1516357-3.8274284l-3.327-7.22c3.0942689-3.8889603 4.782071-8.71024504 4.789-13.68 0-1.1045695-.8954305-2-2-2zm-33.279 26.254c-.59202597 1.2751004-1.990108 1.9680713-3.36334254 1.6670687-1.37323453-.3010026-2.35327106-1.5152393-2.35765746-2.9210687.00090311-.4357561.09572308-.8661979.278-1.262l2.958-6.419c1.43815508 1.4808945 3.07918062 2.7502147 4.874 3.77zm32.279-1.254c-.0019907 1.1719627-.6862563 2.2354645-1.752 2.723-.7216271.3334307-1.546397.3654589-2.2917081.0889937s-1.3496766-.8386159-1.6792919-1.5619937l-2.386-5.161c1.7944592-1.0198754 3.4351423-2.2891911 4.873-3.77l2.959 6.421c.1816817.395256.2761547.8249887.277 1.26zm-3.713-10.1c-1.7049615 2.0207167-3.7944103 3.6825542-6.147 4.889-1.31523.6806034-2.7043515 1.2077313-4.14 1.571v-4.36c0-.5522847-.4477153-1-1-1s-1 .4477153-1 1v10c0 1.6568542-1.3431458 3-3 3s-3-1.3431458-3-3v-10c0-.5522847-.4477153-1-1-1s-1 .4477153-1 1v4.36c-1.4369783-.3631127-2.8274422-.8902408-4.144-1.571-2.3511868-1.2063938-4.43900665-2.8682875-6.142-4.889-3.04298139-3.6098008-4.71258835-8.17872946-4.714-12.9h40c-.0011318 4.72114502-1.6703794 9.2900594-4.713 12.9z"/><path id="Shape" d="m8.243 13.615c.23061494.2729509.58932951.4021363.9410194.3388934s.64292504-.3093061.764-.6455c.121075-.3361938.0535955-.7114425-.1770194-.9843934-1.8106324-2.1481259-3.02455654-4.73461204-3.52-7.5-.06323601-.35172797-.30931313-.64300201-.6455365-.76410201-.33622336-.1211-.71151264-.05362798-.9845.177-.27298735.23062798-.40219951.58937404-.3389635.94110201.5583506 3.11079264 1.92428974 6.0202672 3.961 8.437z"/><path id="Shape" d="m23 36v-1c0-.5522847-.4477153-1-1-1s-1 .4477153-1 1v1c0 .5522847.4477153 1 1 1s1-.4477153 1-1z"/><path id="Shape" d="m18 49h8c2.209139 0 4-1.790861 4-4v-1c0-.5522847-.4477153-1-1-1s-1 .4477153-1 1v1c0 1.1045695-.8954305 2-2 2h-8c-1.1045695 0-2-.8954305-2-2v-1c0-.5522847-.4477153-1-1-1s-1 .4477153-1 1v1c0 2.209139 1.790861 4 4 4z"/></g></g></svg>