<svg id="expand" height="512" viewBox="0 0 512 512" width="512" xmlns="http://www.w3.org/2000/svg"><path d="m416 152h-75.06l-20.94-41.89a39.78 39.78 0 0 0 -35.78-22.11h-56.44a39.78 39.78 0 0 0 -35.78 22.11l-20.94 41.89h-75.06a40 40 0 0 0 -40 40v192a40 40 0 0 0 40 40h320a40 40 0 0 0 40-40v-192a40 40 0 0 0 -40-40zm24 232a24 24 0 0 1 -24 24h-320a24 24 0 0 1 -24-24v-192a24 24 0 0 1 24-24h80a8 8 0 0 0 7.16-4.42l23.16-46.31a23.85 23.85 0 0 1 21.46-13.27h56.44a23.85 23.85 0 0 1 21.46 13.27l23.16 46.31a8 8 0 0 0 7.16 4.42h80a24 24 0 0 1 24 24z"/><path d="m256 202a86 86 0 1 0 86 86 86.1 86.1 0 0 0 -86-86zm0 156a70 70 0 1 1 70-70 70.08 70.08 0 0 1 -70 70z"/></svg>