<svg id="expand" height="512" viewBox="0 0 512 512" width="512" xmlns="http://www.w3.org/2000/svg"><path d="m318 87h-124c-75.54 0-137 61.46-137 137s61.46 137 137 137h15.17l25.36 50.73a24 24 0 0 0 42.94 0l25.36-50.73h15.17c75.54 0 137-61.46 137-137s-61.46-137-137-137zm0 258h-20.11a8 8 0 0 0 -7.16 4.42l-27.57 55.16a8 8 0 0 1 -14.32 0l-27.57-55.16a8 8 0 0 0 -7.16-4.42h-20.11a121 121 0 0 1 0-242h124a121 121 0 0 1 0 242z"/><path d="m160 184a40 40 0 1 0 40 40 40 40 0 0 0 -40-40zm0 64a24 24 0 1 1 24-24 24 24 0 0 1 -24 24z"/><path d="m256 184a40 40 0 1 0 40 40 40 40 0 0 0 -40-40zm0 64a24 24 0 1 1 24-24 24 24 0 0 1 -24 24z"/><path d="m352 184a40 40 0 1 0 40 40 40 40 0 0 0 -40-40zm0 64a24 24 0 1 1 24-24 24 24 0 0 1 -24 24z"/></svg>