<svg id="expand" height="512" viewBox="0 0 512 512" width="512" xmlns="http://www.w3.org/2000/svg"><path d="m191 65.14h-84.86a41.06 41.06 0 0 0 -41 41v84.86a41 41 0 0 0 41 41h84.86a41 41 0 0 0 41-41v-84.86a41 41 0 0 0 -41-41zm25 125.86a25 25 0 0 1 -25 25h-84.86a25 25 0 0 1 -25-25v-84.86a25 25 0 0 1 25-25h84.86a25 25 0 0 1 25 25z"/><path d="m405.86 65.14h-84.86a41 41 0 0 0 -41 41v84.86a41 41 0 0 0 41 41h84.86a41 41 0 0 0 41-41v-84.86a41.06 41.06 0 0 0 -41-41zm25 125.86a25 25 0 0 1 -25 25h-84.86a25 25 0 0 1 -25-25v-84.86a25 25 0 0 1 25-25h84.86a25 25 0 0 1 25 25z"/><path d="m191 280h-84.86a41 41 0 0 0 -41 41v84.86a41.06 41.06 0 0 0 41 41h84.86a41 41 0 0 0 41-41v-84.86a41 41 0 0 0 -41-41zm25 125.86a25 25 0 0 1 -25 25h-84.86a25 25 0 0 1 -25-25v-84.86a25 25 0 0 1 25-25h84.86a25 25 0 0 1 25 25z"/><path d="m405.86 280h-84.86a41 41 0 0 0 -41 41v84.86a41 41 0 0 0 41 41h84.86a41.06 41.06 0 0 0 41-41v-84.86a41 41 0 0 0 -41-41zm25 125.86a25 25 0 0 1 -25 25h-84.86a25 25 0 0 1 -25-25v-84.86a25 25 0 0 1 25-25h84.86a25 25 0 0 1 25 25z"/></svg>