<svg id="expand" height="512" viewBox="0 0 512 512" width="512" xmlns="http://www.w3.org/2000/svg"><path d="m400.7 101.22h-28.18v-28.22a8 8 0 0 0 -16 0v28.18h-201v-28.18a8 8 0 1 0 -16 0v28.18h-28.22a44.22 44.22 0 0 0 -44.17 44.17v266.48a44.23 44.23 0 0 0 44.17 44.17h289.4a44.23 44.23 0 0 0 44.17-44.17v-266.44a44.22 44.22 0 0 0 -44.17-44.17zm-317.57 44.17a28.21 28.21 0 0 1 28.17-28.17h28.18v28.17a8 8 0 0 0 16 0v-28.17h201v28.17a8 8 0 0 0 16 0v-28.17h28.22a28.21 28.21 0 0 1 28.17 28.17v64.35h-345.74zm317.57 294.61h-289.4a28.21 28.21 0 0 1 -28.17-28.17v-186.09h345.74v186.09a28.21 28.21 0 0 1 -28.17 28.17z"/></svg>