<svg id="expand" height="512" viewBox="0 0 512 512" width="512" xmlns="http://www.w3.org/2000/svg"><path d="m410.273 182.583a8.073 8.073 0 0 0 -2.33-5.383l-109.715-109.714a8.1 8.1 0 0 0 -5.657-2.343h-150.857a40.045 40.045 0 0 0 -40 40v301.714a40.045 40.045 0 0 0 40 40h228.572a40.045 40.045 0 0 0 40-40v-224c0-.092-.01-.182-.013-.274zm-109.7-90.126 41.2 41.2 41.2 41.2h-53.83a28.6 28.6 0 0 1 -28.572-28.571zm69.715 338.4h-228.574a24.027 24.027 0 0 1 -24-24v-301.714a24.027 24.027 0 0 1 24-24h142.857v65.143a44.622 44.622 0 0 0 44.572 44.571h65.143v216a24.027 24.027 0 0 1 -24 24z"/><path d="m329.143 229.714h-146.286a8 8 0 0 0 0 16h146.286a8 8 0 0 0 0-16z"/><path d="m329.143 284.571h-146.286a8 8 0 1 0 0 16h146.286a8 8 0 0 0 0-16z"/><path d="m329.143 339.429h-146.286a8 8 0 1 0 0 16h146.286a8 8 0 0 0 0-16z"/></svg>