<svg id="expand" height="512" viewBox="0 0 512 512" width="512" xmlns="http://www.w3.org/2000/svg"><path d="m446.588 209.979a38.217 38.217 0 0 0 -28.817-13.111h-9.127v-10.374a40.045 40.045 0 0 0 -40-40h-161.986v-10.494a40.045 40.045 0 0 0 -40-40h-70.658a40.045 40.045 0 0 0 -40 40s.088 254.849.088 255.274a38.2 38.2 0 0 0 38.14 40.538h301.664a38.375 38.375 0 0 0 37.864-33l21.88-158.5a38.217 38.217 0 0 0 -9.048-30.333zm-350.588-97.979h70.658a24.027 24.027 0 0 1 24 24v18.5a8 8 0 0 0 8 8h169.986a24.027 24.027 0 0 1 24 24v10.374h-276.536a38.376 38.376 0 0 0 -37.864 33l-6.244 45.226v-139.1a24.027 24.027 0 0 1 24-24zm343.786 126.131-21.88 158.495a22.31 22.31 0 0 1 -22.014 19.184h-301.664a22.223 22.223 0 0 1 -22.014-25.263l21.88-158.494a22.311 22.311 0 0 1 22.014-19.185h301.663a22.225 22.225 0 0 1 22.015 25.263z"/></svg>