<svg id="expand" height="512" viewBox="0 0 512 512" width="512" xmlns="http://www.w3.org/2000/svg"><path d="m255.57 431.43a38.66 38.66 0 0 1 -27.52-11.43l-133.54-133.51c-33.17-33.17-45.43-73.85-34.51-114.49 11.13-41.54 45.16-75.57 86.7-86.7 38.41-10.29 76.8 0 108.88 29.14 25.52-23.19 55-34.84 85.66-33.75 29.25 1 57.36 13.6 79.15 35.39s34.36 49.9 35.4 79.16c1.16 33-12.38 64.53-39.15 91.3l-133.56 133.46a38.65 38.65 0 0 1 -27.51 11.43zm-80.16-334a94.76 94.76 0 0 0 -24.59 3.28c-36.12 9.67-65.71 39.29-75.39 75.38-9.36 34.94 1.44 70.13 30.4 99.09l133.54 133.54a22.94 22.94 0 0 0 32.4 0l133.54-133.54c52.07-52.08 38.45-113.14 3.75-147.84s-95.76-48.34-147.84 3.76a8 8 0 0 1 -5.65 2.34 8 8 0 0 1 -5.66-2.34c-22.16-22.16-47.91-33.68-74.5-33.68z"/></svg>