<svg id="expand" height="512" viewBox="0 0 512 512" width="512" xmlns="http://www.w3.org/2000/svg"><path d="m352 456h-48a8 8 0 0 1 -8-8v-80a40 40 0 0 0 -80 0v80a8 8 0 0 1 -8 8h-48a40 40 0 0 1 -40-40v-120h-24a40 40 0 0 1 -28.29-68.29l160-160a40.08 40.08 0 0 1 56.57 0l160 160a40 40 0 0 1 -28.28 68.29h-24v120a40 40 0 0 1 -40 40zm-40-16h40a24 24 0 0 0 24-24v-128a8 8 0 0 1 8-8h32a24 24 0 0 0 17-41l-160-160a24.05 24.05 0 0 0 -34 0l-160 160a24 24 0 0 0 17 41h32a8 8 0 0 1 8 8v128a24 24 0 0 0 24 24h40v-72a56 56 0 0 1 112 0z"/></svg>