<svg id="expand" height="512" viewBox="0 0 512 512" width="512" xmlns="http://www.w3.org/2000/svg"><path d="m256.5 126a77.5 77.5 0 1 0 77.5 77.5 77.59 77.59 0 0 0 -77.5-77.5zm0 139a61.5 61.5 0 1 1 61.5-61.5 61.57 61.57 0 0 1 -61.5 61.5z"/><path d="m359.8 99.12a146.31 146.31 0 0 0 -103.8-42.77h-1.1a147.35 147.35 0 0 0 -130.2 214.26c.07.13.14.27.22.4l96.59 164.64a39.58 39.58 0 0 0 34.64 20 39.56 39.56 0 0 0 34.61-20l96-164 .2-.36a147.47 147.47 0 0 0 -27.16-172.17zm22.86 139.47a130.65 130.65 0 0 1 -9.85 25.22l-95.81 163.82a23.77 23.77 0 0 1 -20.79 12 23.75 23.75 0 0 1 -20.81-12l-96.5-164.48a131.17 131.17 0 0 1 116.1-190.8h1a131.47 131.47 0 0 1 126.66 166.24z"/></svg>