<svg id="expand" height="512" viewBox="0 0 512 512" width="512" xmlns="http://www.w3.org/2000/svg"><path d="m241.89 124.22a39.78 39.78 0 0 0 -41.89 3.78l-74.67 56h-29.33a40 40 0 0 0 -40 40v64a40 40 0 0 0 40 40h29.33l74.67 56a40 40 0 0 0 64-32v-192a39.78 39.78 0 0 0 -22.11-35.78zm6.11 227.78a24 24 0 0 1 -38.4 19.2l-76.8-57.6a8 8 0 0 0 -4.8-1.6h-32a24 24 0 0 1 -24-24v-64a24 24 0 0 1 24-24h32a8 8 0 0 0 4.8-1.6l76.8-57.6a24 24 0 0 1 38.4 19.2z"/><path d="m444.28 272.12-16.61-16.62 16.61-16.62a40 40 0 0 0 -56.56-56.57l-16.62 16.62-16.62-16.62a40 40 0 0 0 -56.57 56.57l16.62 16.62-16.62 16.62a40 40 0 0 0 56.57 56.57l16.62-16.62 16.62 16.62a40 40 0 1 0 56.56-56.57zm-11.28 45.25a24 24 0 0 1 -33.94 0l-22.3-22.27a8 8 0 0 0 -11.32 0l-22.27 22.27a24 24 0 1 1 -33.94-33.94l22.27-22.27a8 8 0 0 0 0-11.32l-22.27-22.27a24 24 0 0 1 33.94-33.94l22.27 22.27a8 8 0 0 0 11.32 0l22.24-22.27a24 24 0 1 1 34 33.94l-22.3 22.27a8 8 0 0 0 0 11.32l22.3 22.27a24 24 0 0 1 0 33.94z"/></svg>