<svg id="expand" height="512" viewBox="0 0 512 512" width="512" xmlns="http://www.w3.org/2000/svg"><path d="m416 344h-168.8l126-126a40.06 40.06 0 0 0 0-56.57l-22.63-22.63a40.06 40.06 0 0 0 -56.57 0l-126 126v-168.8a40 40 0 0 0 -40-40h-32a40 40 0 0 0 -40 40v320a40 40 0 0 0 40 40h320a40 40 0 0 0 40-40v-32a40 40 0 0 0 -40-40zm-110.7-193.87a24 24 0 0 1 33.94 0l22.63 22.63a24 24 0 0 1 0 33.94l-193.87 193.87v-113.14zm-233.3 265.87v-320a24 24 0 0 1 24-24h32a24 24 0 0 1 24 24v188.11 131.89a24 24 0 0 1 -24 24h-32a24 24 0 0 1 -24-24zm368 0a24 24 0 0 1 -24 24h-256a39.75 39.75 0 0 0 7.21-16l64-64h184.79a24 24 0 0 1 24 24z"/></svg>