<svg id="expand" height="512" viewBox="0 0 512 512" width="512" xmlns="http://www.w3.org/2000/svg"><path d="m397.42 116.52a40 40 0 0 0 -56.57 0l-203.64 203.65a6.06 6.06 0 0 0 -.59.66 1.92 1.92 0 0 0 -.13.17c-.14.18-.27.36-.39.55l-.12.21c-.11.19-.21.37-.3.56a2.56 2.56 0 0 0 -.11.24 6.07 6.07 0 0 0 -.24.59l-.06.14-22.62 67.89a8 8 0 0 0 7.59 10.53 8.22 8.22 0 0 0 2.53-.41l67.88-22.63.15-.06a5.89 5.89 0 0 0 .58-.24l.24-.1.56-.31.21-.12c.19-.12.37-.25.55-.39a1.92 1.92 0 0 0 .17-.13 7.21 7.21 0 0 0 .66-.58l203.65-203.65a40 40 0 0 0 0-56.57zm-251.06 224.11 26.95 26.95-40.43 13.48zm239.75-178.85-198 198-33.94-33.94 198-198a24 24 0 0 1 33.94 34z"/></svg>