<svg id="expand" height="512" viewBox="0 0 512 512" width="512" xmlns="http://www.w3.org/2000/svg"><path d="m256 328a40 40 0 0 0 40-40v-192a40 40 0 0 0 -80 0v192a40 40 0 0 0 40 40zm-24-232a24 24 0 0 1 48 0v192a24 24 0 0 1 -48 0z"/><path d="m422.85 145.69a40 40 0 0 0 -66.74 44.13 120 120 0 0 1 -100.11 186.18h-.83a120 120 0 0 1 -99.17-186.32 40 40 0 0 0 -66.82-44 199.85 199.85 0 0 0 166.82 310.32c110.28 0 200-89.72 200-200a199.07 199.07 0 0 0 -33.15-110.31zm-166.85 294.31a184 184 0 0 1 -153.51-285.48 24 24 0 0 1 17.65-10.66c.81-.08 1.61-.12 2.41-.12a24 24 0 0 1 20.1 37.08 136.18 136.18 0 0 0 112.42 211.18h.93a136 136 0 0 0 113.45-211 24 24 0 0 1 40.06-26.45 183.09 183.09 0 0 1 30.49 101.45c0 101.46-82.54 184-184 184z"/></svg>