<svg id="expand" height="512" viewBox="0 0 512 512" width="512" xmlns="http://www.w3.org/2000/svg"><path d="m256 376a40 40 0 1 0 40 40 40 40 0 0 0 -40-40zm0 64a24 24 0 1 1 24-24 24 24 0 0 1 -24 24z"/><path d="m376 175a120 120 0 0 0 -240 0v1.05s0 .77 0 1.12a40 40 0 0 0 80-1.17 40 40 0 0 1 40.21-40 40.38 40.38 0 0 1 39.79 38.43 40 40 0 0 1 -40 41.57 40 40 0 0 0 -40 40v64.32a40 40 0 0 0 40 40h.93c21.56-.48 39.09-18.71 39.09-40.63v-30.54a121.06 121.06 0 0 0 55.46-40.42 119 119 0 0 0 24.52-71.68c0-.35 0-.7 0-1.05s0-.7 0-1zm-16 1.69v.2a103.11 103.11 0 0 1 -21.26 62.11 104.79 104.79 0 0 1 -53 36.66 8 8 0 0 0 -5.72 7.67v36.33c0 13.29-10.52 24.34-23.44 24.63a24 24 0 0 1 -24.56-24v-64.29a24 24 0 0 1 24-24 56 56 0 0 0 .3-112h-.32a56 56 0 0 0 -56 56 24 24 0 0 1 -48 .64c0-.21 0-.43 0-.64s0-.43 0-.64v-.2a104 104 0 0 1 208 0v.2.64s0 .43 0 .64z"/></svg>