<svg id="expand" height="512" viewBox="0 0 512 512" width="512" xmlns="http://www.w3.org/2000/svg"><path d="m195.56 127.57a68 68 0 1 0 68 68 68.07 68.07 0 0 0 -68-68zm0 120a52 52 0 1 1 52-52 52.05 52.05 0 0 1 -52 51.98z"/><path d="m433.77 377.21-47.86-47.87a40 40 0 0 0 -50.35-5.09l-41.43-41.44a131.13 131.13 0 0 0 33.14-87.25c0-72.63-59.09-131.71-131.71-131.71a131.85 131.85 0 0 0 -131.71 131.71c0 72.62 59.08 131.71 131.71 131.71a131.13 131.13 0 0 0 87.25-33.14l41.45 41.44a40.06 40.06 0 0 0 5.08 50.34l47.87 47.86a40 40 0 1 0 56.56-56.56zm-353.92-181.65a115.71 115.71 0 1 1 115.71 115.71 115.83 115.83 0 0 1 -115.71-115.71zm342.61 226.9a24 24 0 0 1 -33.94 0l-47.86-47.86a24 24 0 0 1 0-33.94 24 24 0 0 1 33.94 0l47.86 47.86a24 24 0 0 1 0 33.94z"/></svg>