<svg id="expand" height="512" viewBox="0 0 512 512" width="512" xmlns="http://www.w3.org/2000/svg"><path d="m341.73 423.43a47 47 0 0 1 -21.9-5.44l-63.83-33.56-63.83 33.57a47 47 0 0 1 -68.17-49.53l12.18-71.07-61.71-60.19a40 40 0 0 1 22.17-68.21l85.36-12.41 38.16-77.33a40 40 0 0 1 71.74 0l38.1 77.33 71.39 10.41a47 47 0 0 1 26 80.11l-51.6 50.29 12.21 71.07a47.05 47.05 0 0 1 -46.24 55zm-85.73-56a8 8 0 0 1 3.72.92l67.55 35.51a31 31 0 0 0 44.94-32.64l-12.91-75.22a8 8 0 0 1 2.31-7.08l54.64-53.27a31 31 0 0 0 -17.16-52.82l-75.52-11a8 8 0 0 1 -6-4.38l-40-81.1a24 24 0 0 0 -43 0l-40 81.1a8 8 0 0 1 -6 4.38l-89.49 13a24 24 0 0 0 -13.3 40.94l64.75 63.12a8 8 0 0 1 2.17 7.11l-12.91 75.22a31 31 0 0 0 44.94 32.64l67.55-35.51a8 8 0 0 1 3.72-.96z"/></svg>