<svg id="expand" height="512" viewBox="0 0 512 512" width="512" xmlns="http://www.w3.org/2000/svg"><path d="m433.88 156.24a39.78 39.78 0 0 0 -41.88 3.76l-32 24v-24a40 40 0 0 0 -40-40h-224a40 40 0 0 0 -40 40v192a40 40 0 0 0 40 40h224a40 40 0 0 0 40-40v-24l32 24a40 40 0 0 0 64-32v-128a39.76 39.76 0 0 0 -22.12-35.76zm6.12 163.76a24 24 0 0 1 -38.4 19.2l-44.8-33.6a8 8 0 0 0 -12.8 6.4v40a24 24 0 0 1 -24 24h-224a24 24 0 0 1 -24-24v-192a24 24 0 0 1 24-24h224a24 24 0 0 1 24 24v40a8 8 0 0 0 12.8 6.4l44.79-33.61a24 24 0 0 1 38.41 19.21z"/></svg>