<svg id="expand" height="512" viewBox="0 0 512 512" width="512" xmlns="http://www.w3.org/2000/svg"><path d="m257.89 124.22a39.78 39.78 0 0 0 -41.89 3.78l-74.67 56h-29.33a40 40 0 0 0 -40 40v64a40 40 0 0 0 40 40h29.33l74.67 56a40 40 0 0 0 64-32v-192a39.78 39.78 0 0 0 -22.11-35.78zm6.11 227.78a24 24 0 0 1 -38.4 19.2l-76.8-57.6a8 8 0 0 0 -4.8-1.6h-32a24 24 0 0 1 -24-24v-64a24 24 0 0 1 24-24h32a8 8 0 0 0 4.8-1.6l76.8-57.6a24 24 0 0 1 38.4 19.2z"/><path d="m386.21 164.9a39.34 39.34 0 0 0 -58.21 34.58v1.46a40 40 0 0 0 20.07 34.31 24 24 0 0 1 0 41.5 40 40 0 0 0 -20.07 34.31v1.46a39.21 39.21 0 0 0 58.21 34.58 104 104 0 0 0 0-182.2zm-7.73 168.19a22.92 22.92 0 0 1 -22.92-.36 23.27 23.27 0 0 1 -11.56-20.21v-1.46a23.67 23.67 0 0 1 12.13-20.49 40 40 0 0 0 0-69.14 23.67 23.67 0 0 1 -12.13-20.49v-1.46a23.48 23.48 0 0 1 23.35-23.48 23 23 0 0 1 11.13 2.89 88 88 0 0 1 0 154.18z"/></svg>