<svg id="expand" height="512" viewBox="0 0 512 512" width="512" xmlns="http://www.w3.org/2000/svg"><path d="m419.48 145.64a8 8 0 0 0 -13.1-2.74l-57.51 57.51-33.94-33.94 57.51-57.47a8 8 0 0 0 -2.74-13.11 88 88 0 0 0 -115.86 109.04l-136.9 136.9a40 40 0 0 0 56.57 56.57l136.9-136.9a88 88 0 0 0 89.37-21.5 88 88 0 0 0 19.7-94.36zm-31 83.05a72 72 0 0 1 -77.22 16.12 8 8 0 0 0 -8.58 1.79l-140.49 140.48a24 24 0 1 1 -33.94-33.94l140.48-140.48a8 8 0 0 0 1.79-8.57 72 72 0 0 1 81.09-96.93l-53.61 53.65a8 8 0 0 0 0 11.31l45.25 45.26a8 8 0 0 0 11.32 0l53.65-53.65a72 72 0 0 1 -19.75 64.96z"/></svg>