<?xml version="1.0" encoding="iso-8859-1"?>
<!-- Generator: Adobe Illustrator 19.0.0, SVG Export Plug-In . SVG Version: 6.00 Build 0)  -->
<svg xmlns="http://www.w3.org/2000/svg" xmlns:xlink="http://www.w3.org/1999/xlink" version="1.1" id="Layer_1" x="0px" y="0px" viewBox="0 0 514.381 514.381" style="enable-background:new 0 0 514.381 514.381;" xml:space="preserve" width="512" height="512">
<g id="XMLID_2166_">
	<g id="XMLID_1058_">
		<path id="XMLID_2458_" style="fill:#D8D8E4;" d="M154.514,345.858l-41.833,50.333l12,77l6.857,9.142    c4.591,6.122,0.223,14.858-7.429,14.858h-20.569c-4.536,0-8.408-3.277-9.158-7.75l-12.701-75.75l-4.294-37.864l38.564-29.97    H154.514z"/>
		<path id="XMLID_2457_" style="fill:#D8D8E4;" d="M228.347,349.691l16.964,116.5l6.13,27.01c0.53,2.334,2.604,3.99,4.997,3.99    h27.98c3.125,0,5.523-2.774,5.07-5.866l-1.535-10.486c-0.399-2.724-1.453-5.311-3.072-7.538l-9.535-13.11V339.835L228.347,349.691    z"/>
		<path id="XMLID_2456_" style="fill:#EDF2FA;" d="M501.729,180.521c-8.916-16.514-23.382-43.33-23.382-43.33l-4.766-18.309    c-4.91-18.864-19.26-33.827-37.901-39.523l0,0h-24.168c-4.595-7.405-15.963-19.245-43.165-25.168    c1.934,24.944,10.369,40.338,17.116,48.882l-10.449,14.118l-25.809,20.188c-26.906,21.045-60.083,32.479-94.242,32.479    c0,0-98.262,0.015-156.108,0.042c-26.073,0.012-50.752,11.766-67.194,32.001l-2.206,2.714    c-20.524,25.262-25.154,59.898-11.987,89.664v0c3.758,8.496,8.787,16.166,14.792,22.846l-21.079,69.652l12.782,101.648    c0.6,4.772,4.658,8.352,9.468,8.352h22.562c8.059,0,12.49-9.372,7.374-15.6l-10.186-12.4v-82    c23.305-7.619,43.545-21.972,58.387-40.919h68.726h22.167c27.11,0,53.676-5.69,78.074-16.47l23.765,56.191    c2.022,4.78,2.837,9.983,2.375,15.153l-5.641,63.122c-0.428,4.794,0.51,9.612,2.706,13.895l9.971,19.444h42.333    c0-11.287-5.484-21.871-14.706-28.38l-7.961-5.62l17.611-66.04c0.701-2.629,1.056-5.337,1.055-8.058l-0.029-110.109    c22.592-20.466,41.721-44.479,56.599-71.136v0c4.191-7.538,12.784-11.49,21.234-9.765l16.862,3.441    c1.088,0.222,2.155,0.535,3.19,0.937l39.757,15.413l10.109-13.199C505.141,197.656,505.89,188.228,501.729,180.521z"/>
	</g>
	<g id="XMLID_1849_">
		<path id="XMLID_1870_" d="M510.528,175.77c-7.861-14.561-20.039-37.134-22.807-42.266l-4.462-17.143    c-4.845-18.611-17.779-34.219-34.795-42.646c-0.939-5.672-2.995-14.629-7.426-24.218c-9.848-21.311-26.679-35.813-48.674-41.94    c-3.978-1.111-8.233,0.344-10.703,3.658c-2.469,3.314-2.645,7.806-0.442,11.303c3.301,5.243,7.049,9.815,10.675,14.238    c5.954,7.263,11.4,13.908,14.656,22.954c-8.055-6.034-19.584-11.701-36.074-15.292c-3.089-0.671-6.314,0.154-8.698,2.233    c-2.384,2.077-3.645,5.159-3.399,8.311c1.722,22.218,8.282,37.747,14.752,47.963l-5.347,7.225l-24.739,19.351    c-25.026,19.575-56.308,30.355-88.083,30.355c0,0-98.264,0.016-156.11,0.042c-29.211,0.015-56.529,13.024-74.95,35.695    l-2.206,2.714C-1.315,226.63-6.438,264.953,8.324,298.325c3.348,7.566,7.64,14.645,12.791,21.105L1.61,383.881    c-0.406,1.342-0.525,2.754-0.351,4.145l12.782,101.646c1.225,9.752,9.561,17.105,19.39,17.105h22.562    c7.636,0,14.405-4.288,17.668-11.19c3.264-6.903,2.279-14.856-2.566-20.757l-7.913-9.633v-71.379    c1.992-0.774,3.955-1.609,5.9-2.475l2.662,23.475c0.021,0.176,0.045,0.352,0.074,0.526l12.7,75.749    c1.563,9.328,9.563,16.098,19.021,16.098h20.569c7.353,0,13.962-4.085,17.25-10.661s2.59-14.314-1.821-20.196l-5.359-7.146    l-10.921-70.076l35.948-43.254h43.257c5.561,0,11.088-0.235,16.578-0.679l16.376,112.454c0.038,0.259,0.086,0.517,0.144,0.771    l6.13,27.009c1.572,6.935,7.638,11.778,14.749,11.778h27.979c4.397,0,8.568-1.908,11.444-5.235    c2.529-2.928,3.824-6.689,3.664-10.513l5.288,10.312c1.712,3.337,5.147,5.437,8.898,5.437h42.334c5.522,0,10-4.478,10-10    c0-14.515-7.079-28.179-18.939-36.551l-2.271-1.603l15.817-59.313c0.925-3.473,1.393-7.05,1.392-10.634l-0.004-15.903    c-0.001-5.522-4.479-9.998-10.003-9.997c-5.522,0.001-9.998,4.479-9.997,10.003l0.004,15.903c0.001,1.846-0.241,3.689-0.717,5.477    l-17.611,66.04c-1.079,4.045,0.476,8.334,3.896,10.747l7.96,5.618c3.707,2.617,6.569,6.169,8.357,10.212h-24.108l-7.183-14.006    c-1.337-2.606-1.905-5.525-1.645-8.443l5.641-63.122c0.605-6.775-0.476-13.669-3.126-19.938l-23.765-56.19    c-0.024-0.057-0.055-0.11-0.081-0.167c-0.025-0.056-0.043-0.114-0.069-0.169l-12.855-27.529c-2.336-5.004-8.286-7.17-13.292-4.829    c-5.004,2.337-7.166,8.287-4.829,13.292l8.414,18.017c-20.65,7.798-42.323,11.75-64.572,11.75h-47.88c-0.021,0-0.041,0-0.062,0    h-26.213c2.948-7.185,5.542-16.33,5.706-26.505c0.089-5.522-4.315-10.071-9.838-10.16c-5.549-0.089-10.07,4.316-10.16,9.838    c-0.263,16.31-9.574,29.615-10.385,30.742c-8.633,11-19.107,20.192-30.938,27.233c-0.159,0.085-0.315,0.175-0.469,0.268    c-6.954,4.094-14.367,7.455-22.149,10c-4.111,1.344-6.893,5.18-6.893,9.505v82c0,2.315,0.804,4.559,2.272,6.348l9.571,11.652    h-21.19l-12.466-99.139l20.463-67.617c1.013-3.348,0.204-6.98-2.134-9.581c-5.415-6.025-9.817-12.824-13.084-20.208    c-11.706-26.463-7.644-56.854,10.603-79.313l2.205-2.713c14.608-17.979,36.273-28.296,59.438-28.308    c57.844-0.026,156.104-0.042,156.103-0.042c36.218,0,71.875-12.288,100.403-34.602l25.809-20.188    c0.71-0.556,1.341-1.204,1.877-1.928l10.449-14.118c2.685-3.628,2.607-8.604-0.189-12.146c-4.46-5.648-9.779-14.826-12.848-28.715    c13.786,5.343,19.93,12.247,22.551,16.472c1.824,2.938,5.038,4.727,8.497,4.727h22.599c14.559,4.954,25.908,17.113,29.794,32.041    l4.766,18.31c0.202,0.775,0.496,1.524,0.877,2.229c0,0,14.467,26.817,23.383,43.334c2.286,4.232,1.854,9.463-1.1,13.321    l-5.549,7.244l-32.761-12.7c-1.329-0.516-2.711-0.918-4.113-1.24c-0.179-0.05-0.358-0.094-0.54-0.134    c-0.052-0.011-0.102-0.028-0.154-0.038l-7.334-1.497c-0.02-0.004-0.041-0.008-0.061-0.012l-9.467-1.932    c-12.791-2.608-25.635,3.3-31.967,14.689c-14.349,25.709-32.712,48.788-54.58,68.599c-2.093,1.896-3.287,4.589-3.286,7.413    l0.003,14.207c0.001,5.523,4.479,9.999,10.002,9.998c5.523-0.001,9.999-4.479,9.998-10.002l-0.002-9.817    c22.042-20.588,40.644-44.337,55.338-70.665c2.081-3.742,6.295-5.683,10.494-4.826l3.071,0.627    c6.756,25.168,22.769,37.202,23.504,37.742c1.763,1.295,3.842,1.941,5.921,1.941c2.122,0,4.243-0.674,6.024-2.019    c3.527-2.662,4.889-7.324,3.349-11.467l-6.012-16.167l22.338,8.66c4.144,1.604,8.851,0.284,11.554-3.244l10.111-13.202    C515.442,200.649,516.548,186.918,510.528,175.77z M260.332,487.191l-5.182-22.83l-16.276-111.769    c8.957-1.627,17.789-3.863,26.472-6.698v114.296c0,2.113,0.67,4.173,1.913,5.882l9.534,13.109    c0.665,0.914,1.103,1.987,1.266,3.104l0.718,4.905H260.332z M296.717,399.84l-5.641,63.121c-0.052,0.576-0.07,1.152-0.093,1.728    l-5.636-7.75v-90.506l9.744,23.039C296.469,392.732,297.031,396.317,296.717,399.84z M116.322,355.857H133.2l-28.21,33.942    c-1.835,2.207-2.632,5.096-2.19,7.932l12,77c0.252,1.618,0.898,3.149,1.881,4.46l6,8h-18.537l-12.557-74.892l-3.552-31.32    C98.562,374.042,108.085,365.611,116.322,355.857z"/>
		<path id="XMLID_1905_" d="M430.083,139.26c1.86-1.859,2.931-4.439,2.931-7.069s-1.07-5.21-2.931-7.07    c-1.859-1.86-4.439-2.93-7.069-2.93s-5.21,1.069-7.07,2.93s-2.93,4.44-2.93,7.07s1.069,5.21,2.93,7.069    c1.86,1.86,4.44,2.931,7.07,2.931S428.224,141.121,430.083,139.26z"/>
		<path id="XMLID_1908_" d="M102.347,199.899c-5.522,0-10,4.478-10,10s4.478,10,10,10h96.667c5.522,0,10-4.478,10-10    s-4.478-10-10-10H102.347z"/>
		<path id="XMLID_1911_" d="M244.943,202.831c-1.86,1.86-2.93,4.44-2.93,7.07s1.069,5.21,2.93,7.07c1.86,1.859,4.44,2.93,7.07,2.93    s5.21-1.07,7.069-2.93c1.86-1.86,2.931-4.44,2.931-7.07s-1.07-5.21-2.931-7.07c-1.859-1.859-4.439-2.93-7.069-2.93    S246.804,200.971,244.943,202.831z"/>
		<path id="XMLID_1912_" d="M352.043,323.191c-2.63,0-5.21,1.069-7.069,2.93c-1.86,1.86-2.93,4.44-2.93,7.07s1.069,5.21,2.93,7.069    c1.859,1.86,4.439,2.931,7.069,2.931c2.631,0,5.211-1.07,7.07-2.931c1.86-1.859,2.93-4.43,2.93-7.069c0-2.63-1.069-5.21-2.93-7.07    C357.254,324.26,354.674,323.191,352.043,323.191z"/>
	</g>
</g>















</svg>
