<svg id="Capa_1" enable-background="new 0 0 505 505" height="512" viewBox="0 0 505 505" width="512" xmlns="http://www.w3.org/2000/svg"><g><g><path d="m497.494 182.313v262.43h-59.96c-30.4 0-59.09-12.09-80.18-32.91-11.89-11.74-18.33-27.94-18.33-44.65v-187.36l47.34 7.52c14.74 2.36 28.79 7.47 41.44 14.97v-11.56c0-15.87-5.63-31.21-15.88-43.33l-30.93-36.54h-66.82c-5.72 0-10.91-2.31-14.66-6.07-3.75-3.74-6.07-8.94-6.07-14.66 0-10.51 7.88-19.36 18.32-20.58l61.33-7.15 16.7-1.94c11.51-1.33 22.91 3.24 30.29 12.15l67.13 81.12c6.65 8.04 10.28 18.13 10.28 28.56z" fill="#ffb09e"/><path d="m464.841 182.309v262.437h-27.307c-30.406 0-59.095-12.093-80.182-32.913-6.175-6.097-10.878-13.397-13.977-21.355-2.865-7.345-4.347-15.258-4.347-23.294v-187.36l39.835 6.331 7.501 1.193c14.735 2.352 28.789 7.468 41.44 14.969v-11.558c0-15.871-5.629-31.219-15.883-43.335l-30.929-36.536h-66.818c-5.718 0-10.912-2.318-14.657-6.074-3.756-3.745-6.074-8.939-6.074-14.656 0-10.51 7.88-19.36 18.324-20.586l61.324-7.145c5.506 2.062 10.466 5.54 14.333 10.21l67.131 81.118c6.653 8.035 10.286 18.133 10.286 28.554z" fill="#ffcebf"/><path d="m378.897 187.291v170.172c0 33.014-35.521 33.014-35.521 33.014-2.865-7.345-4.347-15.258-4.347-23.294v-187.359l39.835 6.331c.022.378.033.757.033 1.136z" fill="#ffb09e"/><path d="m38.095 110.878h310.207c16.9 0 30.593 12.75 30.593 28.477v146.752c0 15.727-13.694 28.477-30.593 28.477h-310.207c-16.9 0-30.593-12.75-30.593-28.477v-146.752c-.001-15.728 13.693-28.477 30.593-28.477z" fill="#5f99d7"/><path d="m330.034 314.586h-273.672v-67.888l95.775 23.763h.012z" fill="#0ab69f"/><path d="m252.571 314.586h-196.209v-48.673l18.313 4.548h.011z" fill="#5de1c4"/><path d="m330.034 197.657v116.929l-25.635-6.364-152.25-37.762 27.062-26.014c13.274-12.762 28.444-23.116 44.817-30.818 22.146-10.432 46.522-15.972 71.444-15.972h34.562z" fill="#d8aa5e"/><path d="m304.399 197.657v110.565l-152.25-37.762 27.062-26.014c13.274-12.762 28.444-23.116 44.817-30.818 22.146-10.432 46.522-15.972 71.444-15.972h8.927z" fill="#e9b665"/><path d="m224.027 213.629c-16.373 7.702-31.542 18.056-44.817 30.818l-27.062 26.014h-.011l-29.67-7.356-66.105-16.406v-33.069h167.665z" fill="#a44f3e"/><path d="m186.689 213.629c-16.373 7.702-31.542 18.056-44.817 30.818l-19.405 18.658-66.105-16.406v-33.069h130.327z" fill="#bb5d4c"/><path d="m330.034 110.887v86.77h-34.563l-98.015-52.162h-35.666l-105.428 52.162v-86.77z" fill="#eaf6ff"/><path d="m281.078 230.603c-10.239 10.239-10.239 26.84 0 37.08l111.052 111.052 49.533-49.533-125.666-100.533c-10.432-8.346-25.472-7.513-34.919 1.934z" fill="#ffcebf"/><path d="m295.471 197.657c-11.402 0-22.693 1.159-33.693 3.422-13.063 2.675-25.735 6.888-37.75 12.55h-167.666v-15.972l103.12-51.014 2.307-1.148h35.666z" fill="#aa9ea9"/><path d="m261.778 201.079c-13.063 2.675-25.735 6.888-37.75 12.55h-167.666v-15.972l103.12-51.014z" fill="#baafb9"/></g><path d="m504.999 182.309c0-12.142-4.264-23.979-12.005-33.335l-67.136-81.118c-9.039-10.92-22.845-16.466-36.923-14.822l-78.043 9.088c-14.224 1.67-24.949 13.722-24.949 28.035 0 4.69 1.136 9.202 3.27 13.22h-251.118c-21.006-.001-38.095 16.139-38.095 35.977v14.922c0 4.143 3.358 7.5 7.5 7.5s7.5-3.357 7.5-7.5v-14.922c0-11.567 10.36-20.978 23.095-20.978h10.768v188.71h-10.768c-12.734 0-23.095-9.41-23.095-20.978v-101.318c0-4.143-3.358-7.5-7.5-7.5s-7.5 3.357-7.5 7.5v101.319c0 19.838 17.089 35.978 38.095 35.978h286.782l6.654 6.654v38.438c0 18.876 7.492 37.099 20.555 49.995 8.396 8.29 17.939 15.304 28.365 20.847 8.602 4.574 15.577-8.706 7.041-13.244-9.141-4.859-17.507-11.009-24.867-18.276-10.228-10.098-16.094-24.43-16.094-39.321v-23.438l32.611 32.611c6.842 6.837 17.446-3.766 10.607-10.607l-103.364-103.365c-9.579-9.579-5.698-26.04 6.844-30.747 10.38-3.896 17.951 2.778 25.487 8.807l80.35 64.286c3.233 2.587 7.954 2.063 10.542-1.171s2.063-7.954-1.171-10.542l-22.04-17.634v-80.415c11.923 2.03 23.304 5.964 33.907 11.717v42.988c0 4.143 3.357 7.5 7.5 7.5s7.5-3.357 7.5-7.5v-58.916c0-17.618-6.27-34.727-17.653-48.173l-30.935-36.54c-1.426-1.684-3.52-2.654-5.725-2.654h-32.241c-.15-.002-.298-.011-.448-.011h-34.349c-7.116-.116-13.01-6.098-13.01-13.22 0-6.707 5.028-12.354 11.69-13.137l78.036-9.088c9.014-1.048 17.849 2.498 23.633 9.488l67.135 81.118c5.521 6.671 8.562 15.112 8.562 23.771l.001 254.942h-52.463c-8.083 0-16.165-.922-24.021-2.738-4.04-.937-8.063 1.582-8.997 5.616-.934 4.036 1.581 8.064 5.616 8.997 8.964 2.074 18.183 3.125 27.402 3.125h59.963c4.143 0 7.5-3.357 7.5-7.5zm-182.465 7.848h-25.19l-44.421-23.642c-3.657-1.944-8.199-.56-10.144 3.098-1.946 3.656-.56 8.198 3.097 10.145l23.25 12.374c-16.304 2.454-32.078 7.17-46.922 14.003h-158.342v-3.822l99.685-49.32h32.041l20.23 10.767c3.656 1.942 8.198.56 10.144-3.098 1.946-3.656.56-8.198-3.097-10.145l-21.882-11.646c-1.084-.577-2.294-.879-3.523-.879h-35.666c-1.154 0-2.292.267-3.326.777l-94.605 46.807v-67.189h258.671zm-258.672 50.674v-19.697h132.066c-7.707 5.331-15.039 11.304-21.913 17.907l-24.088 23.139zm0 15.455 204.797 50.8h-204.797zm235.766-40.862c-18.524 0-33.729 15.316-33.729 33.721 0 9.006 3.509 17.474 9.879 23.844l27.142 27.142-135.784-33.681c22.671-21.778 45.228-41.914 75.592-52.421 26.197-9.065 52.595-8.871 79.805-8.871v19.129l-1.852-1.481c-5.957-4.761-13.433-7.382-21.053-7.382zm37.906 20.863v-38.552c0-.026.004-.051.004-.077s-.004-.051-.004-.077v-79.192h11.234c12.52.227 22.629 9.542 22.629 20.967v124.024zm68.669-84.014c8.909 10.524 13.884 23.856 14.083 37.626-10.382-4.801-21.346-8.143-32.74-9.955l-1.148-.183v-40.408c0-4.983-1.08-9.731-3.027-14.05z"/></g></svg>