<svg id="expand" height="512" viewBox="0 0 512 512" width="512" xmlns="http://www.w3.org/2000/svg"><path d="m369.31 409.54a39.86 39.86 0 0 1 -28.31-11.69l-85-85-85 85a40 40 0 0 1 -56.57-56.57l85-85-85-85a40 40 0 0 1 56.57-56.63l85 85 85-85a40 40 0 0 1 56.57 56.57l-85 85 85 85a40 40 0 0 1 -28.29 68.26zm-113.31-116.04a8 8 0 0 1 5.66 2.35l90.68 90.68a24 24 0 1 0 33.94-33.94l-90.68-90.68a8 8 0 0 1 0-11.32l90.68-90.68a24 24 0 0 0 -33.94-33.91l-90.68 90.68a8 8 0 0 1 -11.32 0l-90.68-90.68a24 24 0 1 0 -33.94 33.94l90.68 90.68a8 8 0 0 1 0 11.32l-90.68 90.68a24 24 0 0 0 33.94 33.94l90.68-90.68a8 8 0 0 1 5.66-2.38z"/></svg>