<?xml version="1.0" encoding="iso-8859-1"?>
<!-- Generator: Adobe Illustrator 19.0.0, SVG Export Plug-In . SVG Version: 6.00 Build 0)  -->
<svg xmlns="http://www.w3.org/2000/svg" xmlns:xlink="http://www.w3.org/1999/xlink" version="1.1" id="Layer_1" x="0px" y="0px" viewBox="0 0 512 512" style="enable-background:new 0 0 512 512;" xml:space="preserve" width="512" height="512">
<g id="XMLID_900_">
	<g id="XMLID_1250_">
		<path id="XMLID_1701_" style="fill:#FFB9B7;" d="M426.583,90.836c8.476-6.231,17.815-7.872,32.626-9.48    c-4.263,19.319,5.406,28.638-0.704,45.789s-30.566,26.62-30.566,26.62l-19.523-11.324L426.583,90.836z"/>
		<path id="XMLID_1262_" style="fill:#FFB9B7;" d="M154.781,352.305l-11.412,62.37c6.26,3.983,15.649,26.016,15.649,26.016h-58.211    c0,0-13.074-103.586-34.591-134.075c-0.308-0.412-0.609-0.829-0.912-1.245c-0.272-0.355-0.544-0.708-0.818-1.039l0.075,0.02    c-13.289-18.657-21.105-41.482-21.105-66.132v0c0-63.027,51.094-114.121,114.121-114.121H357.35h0    c6.23,0,12.391,0.741,18.375,2.149l-0.076-0.035c0,0,2.923-42.451,47.661-54.901c-0.959,17.789,8.996,24.655,6.078,40.788    c-2.918,16.134-23.261,28.128-23.261,28.128l29.332,24.523c18.732,15.452,42.258,23.903,66.541,23.903v41.738l-2.27,3.895    c-15.756,27.04-44.694,43.67-75.989,43.67v0c-5.974,24.257-20.713,44.511-40.344,57.729"/>
		<path id="XMLID_1422_" style="fill:#FE8F8D;" d="M357.019,440.691h-60.298c0,0-13.452-72.91-27.061-88.351h37.738L357.019,440.691    z"/>
		<path id="XMLID_1421_" style="fill:#FE8F8D;" d="M142.232,440.691h60.298c0,0,0-16.955-20.345-25.824l10.434-62.527l-37.838-0.035    L142.232,440.691z"/>
		<path id="XMLID_1420_" style="fill:#FFB9B7;" d="M378.874,338.549l0.002,76.125c6.26,3.983,15.649,26.016,15.649,26.016h-60.298    c0,0-7.437-41.012-16.896-68.032c-6.47-18.482-9.933-37.883-9.933-57.465v-0.498"/>
		<path id="XMLID_1419_" style="fill:#FFB9B7;" d="M154.782,352.305l-11.412,62.37c6.26,3.983,15.649,26.016,15.649,26.016h-58.211    c0,0-13.074-103.586-34.591-134.075c-0.308-0.412-0.609-0.829-0.912-1.245c-0.272-0.355-0.544-0.708-0.818-1.039l0.075,0.02    c-13.289-18.657-21.105-41.482-21.105-66.132v0c0-63.028,51.094-114.121,114.121-114.121H357.35h0    c18.635,0,36.69,6.486,51.065,18.344l27.043,22.308c18.732,15.452,42.258,23.903,66.541,23.903l0,0v41.738l-2.27,3.895    c-15.756,27.04-44.694,43.67-75.989,43.67l0,0v0c-5.975,24.257-20.713,44.511-40.344,57.729"/>
		<path id="XMLID_1263_" style="fill:#FFB9B7;" d="M328.813,352.34H157.578c-63.027,0-114.121-51.094-114.121-114.121v0    c0-63.027,51.094-114.121,114.121-114.121H357.35h0c18.635,0,36.69,6.486,51.065,18.344l27.043,22.308    c18.732,15.452,42.258,23.903,66.541,23.903h0v41.738l-2.27,3.895c-15.756,27.04-44.693,43.67-75.989,43.67h0l0,0    C412.983,321.638,373.802,352.34,328.813,352.34z"/>
	</g>
	<g id="XMLID_486_">
		<path id="XMLID_487_" d="M401.6,203.99c1.86-1.86,2.931-4.44,2.931-7.07s-1.07-5.21-2.931-7.07c-1.87-1.86-4.439-2.93-7.069-2.93    c-2.641,0-5.211,1.07-7.08,2.93c-1.86,1.86-2.931,4.44-2.931,7.07s1.07,5.21,2.931,7.07c1.859,1.86,4.439,2.93,7.08,2.93    C397.16,206.92,399.729,205.85,401.6,203.99z"/>
		<path id="XMLID_502_" d="M502,178.652c-21.595,0-42.661-7.473-59.396-20.999c8.964-5.232,20.711-14.214,25.32-27.152    c4.061-11.396,2.614-20.219,1.339-28.003c-1.024-6.25-1.909-11.647-0.289-18.988c0.693-3.145-0.17-6.432-2.32-8.83    c-2.149-2.398-5.324-3.616-8.524-3.266c-9.423,1.023-17.454,2.099-24.784,4.687c-0.1-1.337-0.129-2.738-0.048-4.253    c0.174-3.216-1.213-6.319-3.724-8.336c-2.51-2.017-5.84-2.702-8.942-1.837c-34.861,9.701-47.585,35.587-52.067,50.154    c-0.505,1.641-1.993,2.734-3.527,2.6c-2.55-0.221-5.136-0.333-7.686-0.333H157.578c-46.611,0-87.295,25.83-108.512,63.922    c-8.535,1.242-17.119-1.572-23.259-7.703c-3.744-3.74-5.807-8.71-5.807-13.997s2.063-10.256,5.808-13.996    c5.412-5.405,14.219-5.405,19.631,0c3.91,3.903,10.24,3.898,14.143-0.01c3.902-3.908,3.897-10.24-0.01-14.142    c-13.206-13.187-34.691-13.187-47.896,0C4.146,135.689,0,145.686,0,156.32s4.146,20.631,11.675,28.148    c7.785,7.774,17.837,12.464,28.457,13.578c-4.323,12.606-6.675,26.119-6.675,40.172c0,13.835,2.264,27.428,6.727,40.4    c1.798,5.222,7.489,7.995,12.71,6.202c5.222-1.797,7.999-7.487,6.202-12.71c-3.741-10.873-5.639-22.276-5.639-33.893    c0-57.413,46.709-104.121,104.122-104.121h199.772c1.977,0,3.982,0.087,5.96,0.258c10.875,0.936,21.112-6.06,24.368-16.644    c3.313-10.766,10.651-24.215,26.881-32.391c0.735,3.255,1.674,6.115,2.549,8.713c0.012,0.035,0.023,0.07,0.035,0.105    c0.063,0.187,0.128,0.384,0.19,0.568c1.905,5.639,3.281,9.713,2.215,15.612c-0.908,5.021-5.151,10.893-11.946,16.535    c-4.127,3.426-6.498,8.46-6.508,13.811c-0.009,5.323,2.329,10.336,6.415,13.752l21.586,18.046    c17.892,14.759,39.92,23.723,62.904,25.749v29.478l-0.91,1.561c-13.911,23.874-39.717,38.705-67.348,38.705    c-4.602,0-8.609,3.141-9.71,7.608c-5.225,21.211-18.087,39.616-36.219,51.825c-0.685,0.461-1.285,1-1.816,1.585    c-4.12,1.236-7.123,5.053-7.123,9.575l0.002,76.125c0,3.349,1.676,6.471,4.455,8.321c1.15,1.011,3.059,3.901,5.181,7.695H357.02    h-14.531c-2.702-13.549-8.599-40.998-15.719-61.336c-6.218-17.763-9.371-35.985-9.371-54.161v-0.497c0-5.522-4.478-10-10-10    s-10,4.478-10,10v0.497c0,9.063,0.698,18.128,2.079,27.146H155.606c-4.966-0.416-9.536,2.928-10.593,7.873    c-0.01,0.047-0.023,0.093-0.033,0.14c-0.01,0.051-0.026,0.1-0.036,0.151l-11.412,62.369c-0.72,3.935,0.975,7.911,4.292,10.121    c1.15,1.011,3.059,3.901,5.181,7.695h-0.773h-32.697c-2.374-16.583-8.204-53.587-16.95-85.177    c-1.474-5.324-6.982-8.44-12.307-6.97c-5.322,1.474-8.442,6.983-6.969,12.306c11.036,39.856,17.514,90.586,17.578,91.094    c0.631,4.998,4.883,8.747,9.921,8.747h41.424h16.787h43.512c5.522,0,10-4.478,10-10c0-0.864-0.244-19.326-19.296-31.287    l7.854-47.063h63.364c7.825,13.944,17.545,53.676,22.436,80.166c0.876,4.742,5.012,8.185,9.834,8.185h37.506h22.792h37.506    c3.357,0,6.491-1.686,8.343-4.486c1.852-2.802,2.173-6.345,0.856-9.434c-3.165-7.428-8.78-19.345-14.849-26.34l-0.002-66.39    c0.036-0.023,0.074-0.038,0.109-0.062c20.151-13.568,35.003-33.374,42.395-56.324c31.783-2.509,60.801-20.547,76.993-48.335    l2.27-3.895c0.891-1.529,1.359-3.266,1.359-5.035v-41.738C512,183.129,507.522,178.652,502,178.652z M449.526,105.733    c1.096,6.686,1.887,11.517-0.442,18.057c-3.402,9.549-16.628,17.078-23.14,19.97l-3.714-3.105    c6.988-6.173,14.946-15.432,16.999-26.776c1.321-7.307,0.598-13.182-0.714-18.316c2.729-1.112,5.822-1.94,9.592-2.62    C448.224,97.789,448.915,102.008,449.526,105.733z M178.188,424.034c4.444,1.938,7.513,4.309,9.63,6.657h-22.316    c-3.027-6.467-7.055-14.055-11.36-19.339l8.969-49.012h17.701l-8.491,50.88C171.566,417.744,173.984,422.201,178.188,424.034z     M286.358,362.34h17.334c1.226,4.565,2.62,9.109,4.2,13.623c6.038,17.247,11.304,40.771,14.179,54.728H304.98    C301.765,414.571,294.882,383.186,286.358,362.34z"/>
		<path id="XMLID_505_" d="M174.069,178.87c1.86-1.86,2.931-4.43,2.931-7.06c0-2.64-1.07-5.21-2.931-7.08    c-1.859-1.86-4.439-2.93-7.069-2.93s-5.21,1.07-7.07,2.93c-1.86,1.87-2.93,4.44-2.93,7.08c0,2.63,1.069,5.2,2.93,7.06    c1.86,1.87,4.44,2.93,7.07,2.93S172.21,180.74,174.069,178.87z"/>
		<path id="XMLID_506_" d="M317,181.805c5.522,0,10-4.477,10-10s-4.478-10-10-10H207c-5.522,0-10,4.477-10,10s4.478,10,10,10H317z"/>
		<path id="XMLID_507_" d="M78.74,310.52c0-2.63-1.061-5.21-2.931-7.069c-1.859-1.86-4.439-2.931-7.069-2.931    c-2.631,0-5.21,1.07-7.07,2.931c-1.86,1.859-2.93,4.439-2.93,7.069s1.069,5.21,2.93,7.07s4.439,2.93,7.07,2.93    c2.64,0,5.21-1.069,7.069-2.93C77.68,315.73,78.74,313.15,78.74,310.52z"/>
	</g>
</g>















</svg>
