<svg id="Capa_1" enable-background="new 0 0 512 512" height="512" viewBox="0 0 512 512" width="512" xmlns="http://www.w3.org/2000/svg"><g><path d="m257.7 250.9s-.59-.19-1.7-.58c-16.28-5.8-144.08-56.86-135.26-227.8l134.48-7.52.78.02 134.91 4.03s20.41 174.09-133.21 231.85z" fill="#e0f4ff"/><path d="m390.91 492.75-134.91 4.03-.78.02-134.48-7.51c-8.82-170.95 118.98-222.01 135.26-227.81 1.11-.39 1.7-.58 1.7-.58 153.62 57.76 133.21 231.85 133.21 231.85z" fill="#e0f4ff"/><path d="m390.91 492.75-134.91 4.03v-235.3c1.11-.39 1.7-.58 1.7-.58 153.62 57.76 133.21 231.85 133.21 231.85z" fill="#bbdcff"/><path d="m257.7 250.9s-.59-.19-1.7-.58v-235.3l134.91 4.03s20.41 174.09-133.21 231.85z" fill="#bbdcff"/><path d="m374.39 139.11c-48.51 88.21-116.69 111.79-116.69 111.79-.57-.16-1.14-.33-1.7-.5-80.71-24.06-119.95-111.29-119.95-111.29z" fill="#ffda2d"/><g><path d="m388.69 464.56v37.44h-263.72v-40.87l46.07-49.1c22.06-23.52 51.97-36.45 84.18-36.45.26 0 .52 0 .78.01 31.94.2 61.55 13.14 83.4 36.44z" fill="#ffda2d"/></g><path d="m257.7 250.9c-.57-.16-1.14-.33-1.7-.5v-111.29h118.39c-48.51 88.21-116.69 111.79-116.69 111.79z" fill="#fdbf00"/><path d="m388.69 464.56v37.44h-132.69v-126.41c31.94.2 61.55 13.14 83.4 36.44z" fill="#fdbf00"/><path d="m106.258 439.085v57.915h30v-57.915c0-44.483 20.841-86.317 61.945-124.34 23.193-21.455 46.73-35.659 57.797-41.788 11.067 6.129 34.604 20.333 57.797 41.788 41.104 38.022 61.945 79.856 61.945 124.34v57.915h30v-57.915c0-52.689-24.972-103.506-72.217-146.956-17.138-15.762-34.197-27.831-47.311-36.129 13.114-8.298 30.173-20.367 47.311-36.129 47.245-43.45 72.217-94.267 72.217-146.956v-53.866h-30v53.866c0 44.483-20.841 86.317-61.945 124.34-23.197 21.458-46.738 35.664-57.797 41.788-11.067-6.129-34.604-20.333-57.797-41.788-41.104-38.022-61.945-79.856-61.945-124.34v-53.866h-30v53.866c0 52.689 24.972 103.506 72.217 146.956 17.138 15.762 34.197 27.831 47.311 36.129-13.114 8.298-30.173 20.367-47.311 36.129-47.245 43.45-72.217 94.267-72.217 146.956z" fill="#979fef"/><g fill="#47568c"><path d="m442.01 15c0 8.28-6.71 15-15 15h-342.02c-8.29 0-15-6.72-15-15s6.71-15 15-15h342.02c8.29 0 15 6.72 15 15z"/><path d="m442.01 497c0 8.28-6.71 15-15 15h-342.02c-8.29 0-15-6.72-15-15s6.71-15 15-15h342.02c8.29 0 15 6.72 15 15z"/></g><g fill="#2c3b73"><path d="m442.01 497c0 8.28-6.71 15-15 15h-171.01v-30h171.01c8.29 0 15 6.72 15 15z"/><path d="m256 30v-30h171.01c8.29 0 15 6.72 15 15s-6.71 15-15 15z"/></g></g></svg>