<svg id="Layer_1" enable-background="new 0 0 512.026 512.026" height="512" viewBox="0 0 512.026 512.026" width="512" xmlns="http://www.w3.org/2000/svg"><g><path d="m507.025 48.767c-30.598-17.666-52.049-29.378-70.682-31.149-20.954-1.991-36.481 8.838-53.354 25.711l-368.837 368.836c-18.87 18.87-18.869 49.573 0 68.443 17.94 18.714 50.503 18.713 68.443 0 11.408-10.923 16.949-31.63 27.151-42.665 16.19-16.029 35.341-24.556 51.892-41.269 9.269-9.269 12.532-18.337 15.411-26.338 2.617-7.272 4.877-13.553 11.71-20.386 6.852-6.852 12.549-7.412 19.762-8.12 8.899-.874 21.086-2.072 30.162-17.792 2.263-3.919 1.611-8.871-1.589-12.071l-2.404-2.404 12.013-11.046 19.94 10.287c5.14 2.802 12.108.077 13.982-5.469 39.583-103.173 160.094-98.221 230.297-241.352 2.432-4.74.717-10.553-3.897-13.216zm-348.794 314.798c-2.586 7.186-4.628 12.861-10.734 18.967-7.604 7.604-15.883 13.404-24.648 19.545-9.064 6.351-18.438 12.917-27.245 21.724-6.496 6.496-11.022 15.311-15.4 23.836-3.673 7.154-7.472 14.551-11.75 18.829-10.496 10.955-29.663 10.955-40.158 0-11.072-11.072-11.072-29.087 0-40.158l111.34-111.341 28.457 28.457c-5.196 7.175-7.639 13.964-9.862 20.141zm48.336-41.639c-6.603.649-15.111 1.484-24.195 7.493l-28.594-28.594 21.946-21.946 40.794 40.795c-2.42 1.512-5.346 1.799-9.951 2.252zm154.885-132.433c-38.394 25.527-74.804 49.735-95.405 96.499l-10.087-5.204c6.373-34.988 34.705-61.406 64.68-84.785 4.355-3.396 5.132-9.681 1.735-14.035-3.398-4.355-9.681-5.132-14.035-1.735-32.701 25.505-66.689 57.41-72.754 101.338l-15.05 13.838-30.671-30.671 207.266-207.267c20.325-20.326 30.426-25.779 57.436-14.019-16.55 35.325-46.487 61.799-73.922 83.179-4.356 3.395-5.136 9.678-1.741 14.035 3.412 4.379 9.713 5.117 14.035 1.741 27.55-21.469 60.976-50.834 79.557-90.095 4.917 2.635 10.282 5.626 16.171 8.98-37.473 68.53-85.05 100.167-127.215 128.201z"/><path d="m350.654 151.331h-.008c-5.523 0-9.996 4.477-9.996 10 .528 13.263 19.479 13.263 20.004 0 0-5.523-4.477-10-10-10z"/></g></svg>