<svg id="Layer_1" enable-background="new 0 0 512.056 512.056" height="512" viewBox="0 0 512.056 512.056" width="512" xmlns="http://www.w3.org/2000/svg"><g><g><path d="m497.165 203.667c-31.582-67.773-121.036-157.228-188.81-188.809-37.789-18.27-65.996-19.717-81.581-4.192-61.649 61.61-73.497 110.373-83.891 153.307-8.053 33.235-15.007 61.938-44.619 91.55-24.463 24.463-36.922 53.054-36.028 82.68.459 15.226 4.553 30.388 11.881 44.621l-11.971 11.97c-16.684-5.719-35.729-1.58-48.469 11.159-18.189 17.453-18.189 48.857 0 66.309 4.497 4.497 9.854 8.024 15.71 10.373 2.349 5.856 5.876 11.213 10.373 15.71 18.281 18.281 48.027 18.281 66.309 0 12.74-12.74 16.879-31.784 11.159-48.469l11.971-11.971c14.233 7.328 29.394 11.421 44.62 11.88 29.928.839 58.156-11.586 82.68-36.028 72.696-69.239 138.159-20.107 244.904-128.557 15.475-15.594 14.012-43.783-4.238-81.533zm-197.515-170.804c32.178 15.556 68.63 42.854 102.642 76.866 34.013 34.012 61.311 70.464 76.866 102.642 13.427 27.771 16.495 50.295 8.009 58.782-8.483 8.485-31.008 5.417-58.78-8.009-32.179-15.556-68.631-42.854-102.643-76.866-34.013-34.012-61.311-70.464-76.867-102.643-13.426-27.771-16.495-50.295-8.008-58.781 12.275-10.836 39.29-1.205 58.781 8.009zm-155.621 192.799c6.764 18.042 16.492 35.865 29.088 53.261 3.045 4.206 2.715 7.533 2.332 8.176-2.27 1.094-18.017-1.716-44.513-39.239 5.253-7.401 9.522-14.791 13.093-22.198zm-45.75 214.878c-3.131 3.131-3.831 7.948-1.719 11.84 5.63 10.378 3.725 23.464-4.634 31.823-10.008 10.431-28.016 10.43-38.023 0-3.343-3.342-5.75-7.506-6.961-12.041-.923-3.457-3.624-6.157-7.081-7.081-19.872-5.262-26.658-30.501-12.041-44.985 8.358-8.359 21.445-10.265 31.823-4.634 3.892 2.11 8.708 1.413 11.839-1.719l13.547-13.546c3.731 4.975 7.89 9.77 12.459 14.338s9.363 8.728 14.339 12.459zm76.143-10.745c-62.943-2.677-115.02-77.378-81.87-133.795 27.258 57.904 74.525 83.46 128.506 112.645 2.178 1.178 4.383 2.37 6.605 3.574-16.695 12.104-34.828 18.136-53.241 17.576zm168.918-80.094c-11.159 2.704-22.119 5.359-32.972 8.838 4.386-38.104-21.166-64.519-45.987-90.178-3.839-3.97-10.17-4.074-14.14-.235-3.97 3.84-4.075 10.17-.235 14.14 29.813 30.82 47.912 51.784 38.265 84.821-14.835 6.911-29.587 16.523-44.498 31.126-4.473-2.44-8.889-4.828-13.204-7.161-56.308-30.444-101.105-54.664-124.607-114.449 3.636-4.315 8.112-8.464 11.917-12.647 25.738 35.023 44.536 43.27 56.527 43.269.707 0 1.391-.029 2.05-.083 7.777-.631 14.04-4.907 17.182-11.73 3.864-8.391 2.208-19.205-4.321-28.221-17.23-23.794-28.534-48.279-33.62-72.813 4.956-17.191 8.364-34.418 13.322-51.823 3.968 24.258 11.688 46.6 23.28 67.539 2.69 4.878 8.852 6.556 13.593 3.905 4.832-2.675 6.58-8.76 3.905-13.592-16.627-30.032-24.456-63.456-23.915-102.125 7.422-14.806 17.297-30.396 31.048-47.15 16.345 89.538 154.309 227.574 243.961 243.961-45.163 37.068-81.869 45.962-117.551 54.608z"/><path d="m391.704 196.181c5.667 0 10.735-1.745 14.741-5.75 14.574-14.576-.78-43.207-21.214-63.64-20.435-20.433-49.064-35.787-63.641-21.213-14.574 14.576.78 43.207 21.214 63.64 14.819 14.817 33.947 26.963 48.9 26.963zm-55.794-76.285c18.412-.252 56.523 37.969 56.216 56.215-18.399.272-56.531-37.983-56.216-56.215z"/><path d="m226.699 232.228h-.007c-5.523 0-9.996 4.477-9.996 10 .528 13.263 19.479 13.263 20.003 0 0-5.523-4.477-10-10-10z"/></g></g></svg>