<svg id="Layer_1" enable-background="new 0 0 512 512" height="512" viewBox="0 0 512 512" width="512" xmlns="http://www.w3.org/2000/svg"><g><g><path d="m501.922 126h-40c-13.534 0-25.003 9.009-28.727 21.345l-50.72 8.655h-31.845l20.652-77.073c12.691-3.496 22.039-15.14 22.039-28.927v-40c0-5.523-4.477-10-10-10h-220c-5.523 0-10 4.477-10 10v40c0 13.787 9.349 25.431 22.039 28.927l20.653 77.073h-12.691c-16.542 0-30 13.458-30 30v34h-20.002v-190c0-16.542-13.458-30-30-30h-73.397c-39.809 1.653-39.778 58.363 0 60h43.397v190c0 16.542 13.458 30 30 30h50.001v66c0 46.292-16.656 87.417-48.167 118.927-1.875 1.875-2.929 4.419-2.929 7.071v30.002c0 5.523 4.477 10 10 10h111.096c5.523 0 10-4.477 10-10v-48.998c2.203-53.078 77.816-53.038 80 0v48.998c0 5.523 4.477 10 10 10h111.096c5.523 0 10-4.477 10-10v-30.001c0-2.652-1.054-5.196-2.929-7.071-28.78-28.779-45.168-65.581-47.792-107.012l39.5 6.74c3.723 12.335 15.192 21.344 28.726 21.344h40c5.523 0 10-4.477 10-10v-240c0-5.523-4.477-10-10-10zm-328.601-106h199.999v30c0 5.475-4.423 9.936-9.884 9.998-.108-.001-.215-.001-.322.001h-179.555c-.125-.003-.251-.004-.376-.002-5.451-.074-9.862-4.53-9.862-9.998zm23.033 60h153.935l-20.364 76h-113.207zm-166.431-40c-13.269-.551-13.26-19.455 0-20h73.397c5.514 0 10 4.486 10 10v10zm73.397 220.001c-5.514 0-10-4.486-10-10v-190.001h20v170c0 5.523 4.477 10 10 10h30.001v20h-50.001zm321.097 216.076v15.923h-91.096v-38.998c-3.305-79.618-116.724-79.556-120 0v38.998h-91.096v-15.923c31.21-32.596 48.667-73.864 50.86-120.08.078.002.157.003.236.003h59.996c13.268-.528 13.258-19.477 0-20h-59.996v-150c0-5.514 4.486-10 10-10h190v160h-50.003c-13.268.528-13.258 19.477 0 20h50.239c2.193 46.215 19.65 87.48 50.86 120.077zm-31.096-138.515v-163.124l38.601-6.587v176.298zm98.601 28.438h-30c-5.498 0-9.973-4.46-9.999-9.952 0-.067 0-.134-.001-.2v-199.696c.001-.067.001-.134.001-.2.026-5.492 4.501-9.953 9.999-9.953h30z"/><path d="m213.321 266h120c13.268-.528 13.258-19.477 0-20h-120c-13.268.528-13.257 19.477 0 20z"/><path d="m213.321 225.999h120c13.268-.528 13.258-19.477 0-20h-120c-13.268.528-13.257 19.476 0 20z"/><path d="m343.321 296.001c0-5.523-4.477-10-10-10h-120c-13.268.528-13.258 19.477 0 20h120c5.523 0 10-4.477 10-10z"/><path d="m278.321 336h-.007c-5.523 0-9.996 4.477-9.996 10 .528 13.263 19.479 13.263 20.003 0 0-5.523-4.477-10-10-10z"/></g></g></svg>