<svg id="Layer_1" enable-background="new 0 0 512.005 512.005" height="512" viewBox="0 0 512.005 512.005" width="512" xmlns="http://www.w3.org/2000/svg"><g><g><path d="m511.45 225c-18.879-54.453-51.754-76.249-85.814-89.682 20.523-40.508 15.132-84.928.813-109.73-6.669-11.549-17.74-17.34-28.905-15.107-10.113 2.022-17.555 10.322-18.958 21.146-1.642 12.668-13.024 34.793-57.267 68.94-5.847-2.2-11.908-4.11-18.172-5.717-12.987-2.789-17.68 15.574-4.971 19.373 5.466 1.402 10.755 3.071 15.858 4.993 3.013 19.392-1.101 34.184-12.259 44.018-14.377 12.669-37.394 14.085-48.485 10.239-15.272-5.299-30.066-5.051-42.782.716-13.923 6.313-24.615 19.072-30.922 36.896-4.321 12.212-14.72 17.419-22.683 19.637-14.412 4.012-31.591 1.123-44.428-7.152 9.601-54.549 46.613-95.301 101.345-109.344 5.35-1.373 8.574-6.822 7.201-12.171-1.372-5.349-6.818-8.574-12.171-7.201-6.261 1.606-12.319 3.517-18.164 5.715-44.256-34.161-55.627-56.286-57.267-68.941-1.402-10.823-8.844-19.124-18.958-21.146-11.158-2.234-22.237 3.557-28.905 15.107-14.363 24.877-19.728 69.254.802 109.734-34.082 13.446-66.944 35.284-85.804 89.677-1.79 5.161.894 10.804 6.027 12.672 1.188.433 20.237 7.194 48.271 7.193 10.683 0 22.672-.983 35.473-3.671-1.542 33.958 2.863 69.292 11.822 98.161-15.382 15.813-23.144 35.939-23.144 60.169 0 37.294 18.387 64.868 54.651 81.954 52.368 27.357 192.33 27.358 244.698 0 36.264-17.086 54.651-44.659 54.651-81.954 0-24.23-7.762-44.357-23.145-60.17 8.959-28.858 13.366-64.213 11.823-98.161 12.801 2.689 24.788 3.671 35.473 3.67 28.031-.001 47.088-6.762 48.27-7.192 5.133-1.868 7.815-7.51 6.026-12.671zm-113.03-190.802c.296-2.281 1.406-3.777 3.046-4.105 2.441-.489 5.453 1.669 7.663 5.496 16.678 31.614 14.239 80.562-19.024 115.783-12.757-16.938-29.051-31.001-48.348-41.482 34.769-28.278 53.813-53.7 56.663-75.692zm-255.14 218.325c6.448 0 12.86-.829 18.988-2.535 17.717-4.933 30.563-16.38 36.172-32.231 11.556-32.659 35.219-29.925 48.295-25.388 18.423 6.392 48.993 2.854 68.263-14.129 10.001-8.814 20.488-24.075 19.966-49.138 69.537 39.352 77.313 123.613 58.02 196.555-58.91-38.8-215.014-38.818-273.964 0-6.439-24.041-9.736-52.844-8.862-80.549 10.293 4.85 21.769 7.415 33.122 7.415zm-40.403-216.934c2.21-3.828 5.217-5.981 7.663-5.496 1.639.328 2.749 1.824 3.045 4.104 2.85 21.992 21.894 47.416 56.663 75.692-19.297 10.481-35.59 24.544-48.347 41.482-33.216-35.045-35.724-84.316-19.024-115.782zm-79.602 185.908c16.277-39.07 41.433-56.582 73.731-68.839 3.997 5.464 8.554 10.784 13.719 15.895-8.64 15.498-14.737 32.813-17.988 51.543-29.988 7.681-55.975 4.316-69.462 1.401zm346.552 241.889c-26.249 12.368-64.546 18.639-113.825 18.639s-87.576-6.271-113.825-18.639c-29.052-13.688-43.175-34.578-43.175-63.861s14.123-50.173 43.175-63.861c26.249-12.368 64.545-18.639 113.825-18.639 49.279 0 87.576 6.271 113.825 18.639 29.053 13.688 43.176 34.578 43.176 63.861s-14.123 50.172-43.176 63.861zm49.443-243.288c-3.251-18.731-9.349-36.047-17.989-51.546 5.164-5.111 9.72-10.431 13.715-15.897 32.3 12.255 57.459 29.749 73.747 68.873-13.432 2.937-39.318 6.311-69.473-1.43z"/><path d="m286.007 357.421h-.007c-5.522 0-9.997 4.477-9.997 10 .528 13.263 19.479 13.263 20.004 0 0-5.523-4.478-10-10-10z"/><path d="m226.005 357.421h-.007c-5.523 0-9.997 4.477-9.997 10 .528 13.263 19.479 13.263 20.004 0 0-5.523-4.477-10-10-10z"/><path d="m316.005 292.024c19.902-.793 19.887-29.215 0-30h-.008c-19.902.794-19.879 29.216.008 30z"/><path d="m196.001 292.024c19.902-.793 19.887-29.215 0-30h-.007c-19.903.794-19.88 29.216.007 30z"/><path d="m256.003 109.025c13.267-.528 13.257-19.477 0-20h-.007c-13.269.53-13.251 19.479.007 20z"/></g></g></svg>