<svg id="Layer_1" enable-background="new 0 0 512 512" height="512" viewBox="0 0 512 512" width="512" xmlns="http://www.w3.org/2000/svg"><g><g><path d="m446 0h-380c-16.542 0-30 13.458-30 30v452c0 16.542 13.458 30 30 30h380c16.542 0 30-13.458 30-30v-452c0-16.542-13.458-30-30-30zm10 482c0 5.514-4.486 10-10 10h-380c-5.514 0-10-4.486-10-10v-452c0-5.514 4.486-10 10-10h380c5.514 0 10 4.486 10 10z"/><path d="m426 40h-340c-5.522 0-10 4.477-10 10v412c0 5.523 4.478 10 10 10h340c5.522 0 10-4.477 10-10v-412c0-5.522-4.478-10-10-10zm-330 156.581 48.071-48.071c3.905-3.905 3.905-10.237 0-14.143-3.906-3.905-10.236-3.905-14.143 0l-33.928 33.929v-108.296h64.733l-20.302 20.301c-3.905 3.905-3.905 10.237 0 14.142 3.905 3.906 10.237 3.905 14.143 0l34.445-34.443h226.981v252h-24.564c.005-.109.011-.218.016-.327.657-14.206-2.848-27.188-6.56-40.932-3.982-14.748-8.1-29.997-8.214-49.64-.07-12.014 5.012-23.896 10.392-36.477 1.165-2.725 2.37-5.542 3.533-8.387 11.279-27.584 4.496-56.971-17.701-76.693-28.462-25.288-72.578-27.389-112.446-5.369-65.779 32.548-129.537 101.627-141.819 172.789-17.072 81.527 42.5 167.028 126.896 166.067.25 0 .505 0 .755-.002 16.543-.1 33.495-2.926 49.712-8.24v27.211h-200zm241.698 71.574c-4.999-19.115-7.27-34.68-7.36-50.467-.108-18.657 5.683-32.498 13.013-50.02 1.052-2.513 2.121-5.068 3.19-7.685 3.166-7.742 3.047-15.451-.343-22.296-3.94-7.958-12.284-14.159-22.891-17.014-25.481-6.861-54.041 9.545-76.071 24.603-8.223 5.621-16.235 11.828-23.813 18.449-4.158 3.634-4.584 9.951-.95 14.11 3.633 4.16 9.952 4.583 14.109.951 6.985-6.104 14.367-11.823 21.94-17 9.824-6.715 39.718-27.148 59.587-21.802 4.917 1.324 8.812 3.844 10.167 6.577.504 1.019 1.027 2.733-.247 5.851-1.05 2.566-2.098 5.071-3.129 7.535-18.152 38.742-18.04 69.159-6.551 113.266 3.731 14.271 4.639 27.282 2.717 38.785h-15.067c-5.522 0-10 4.477-10 10v28.09c-13.37 8.437-31.251 12.778-53.229 12.91-.146.001-.287.001-.433.001-24.131-.001-39.41-12.18-47.99-22.431-21.286-25.168-23.01-63.403-8.993-93.999 2.153-5.086-.225-10.955-5.311-13.107-5.088-2.155-10.955.225-13.107 5.31-4.177 9.867-7.217 19.848-9.033 29.665-11.107 55.121 26.369 115.817 84.989 114.563 20.551-.124 38.337-3.568 53.107-10.262v30.849c-16.107 6.088-33.221 9.341-49.833 9.44-32.002.2-61.238-13.494-82.192-38.542-76.948-94.454 18.713-221.433 105.646-262.534.119-.06.237-.123.354-.187 56.774-32.742 122.161 2.277 102.118 56.901-1.103 2.697-2.276 5.44-3.411 8.093-5.946 13.906-12.096 28.286-12.002 44.457.129 22.237 4.792 39.503 8.905 54.738 3.436 12.722 6.402 23.709 5.89 34.795-.019.416-.042.833-.066 1.25h-30.128c1.725-13.424.53-28.117-3.582-43.843zm78.302 183.845h-100.001v-120h100.001z"/><path d="m204.003 294.001c0 19.851 16.149 36 36 36 47.759-1.977 47.745-70.03 0-72-19.851 0-36 16.15-36 36zm36-16c8.822 0 16 7.178 16 16-.879 21.226-31.124 21.22-32 0 0-8.822 7.178-16 16-16z"/><path d="m344 382h44c13.268-.529 13.258-19.476 0-20h-44c-13.268.528-13.258 19.476 0 20z"/><path d="m344 422.001h44c13.268-.529 13.258-19.476 0-20h-44c-13.268.529-13.258 19.476 0 20z"/><path d="m209.099 203.96c0-5.523-4.478-10-10-10h-.007c-5.522 0-9.996 4.477-9.996 10 .528 13.264 19.478 13.262 20.003 0z"/></g></g></svg>