<svg id="Layer_1" enable-background="new 0 0 512.001 512.001" height="512" viewBox="0 0 512.001 512.001" width="512" xmlns="http://www.w3.org/2000/svg"><g><g><path d="m511.822 285.666c-.501-2.608-2.019-4.909-4.219-6.396-13.032-8.813-25.995-17.915-38.786-27.233l3.195-3.195c19.009-19.009 19.009-49.939 0-68.948l-139.903-139.903c-18.073-18.852-50.875-18.85-68.948 0l-3.194 3.194c-9.317-12.791-18.419-25.754-27.233-38.787-1.488-2.199-3.789-3.717-6.396-4.218-2.608-.501-5.309.055-7.505 1.547l-40.688 27.625c-4.563 3.098-5.756 9.306-2.667 13.875 11.257 16.647 22.97 33.192 35.001 49.447l-35.904 35.904c-9.318-12.792-18.419-25.754-27.232-38.785-1.488-2.2-3.789-3.718-6.396-4.219-2.608-.502-5.309.056-7.505 1.547l-40.689 27.625c-4.563 3.098-5.757 9.306-2.667 13.875 11.259 16.649 22.971 33.193 35.001 49.446l-38.878 38.878c-9.317-12.791-18.419-25.753-27.233-38.786-1.487-2.2-3.788-3.717-6.396-4.218-2.608-.502-5.308.055-7.505 1.547l-40.691 27.624c-4.563 3.098-5.757 9.306-2.667 13.875 11.261 16.652 22.975 33.197 35.002 49.446l-.715.715c-18.853 18.072-18.851 50.876-.001 68.949l139.903 139.902c9.178 9.179 21.421 14.233 34.474 14.233 13.05.001 25.297-5.055 34.475-14.233l.715-.715c16.25 12.027 32.794 23.74 49.446 35 4.511 3.066 10.758 1.93 13.875-2.667l27.625-40.689c1.491-2.197 2.048-4.897 1.547-7.504-.501-2.608-2.019-4.909-4.219-6.396-13.031-8.813-25.993-17.915-38.785-27.233l38.878-38.878c16.248 12.026 32.792 23.739 49.446 35 4.511 3.066 10.758 1.93 13.875-2.667l27.625-40.689c1.491-2.197 2.048-4.897 1.547-7.504-.501-2.608-2.019-4.909-4.219-6.396-13.032-8.813-25.994-17.915-38.785-27.232l35.904-35.904c16.251 12.029 32.796 23.741 49.446 35 4.511 3.066 10.758 1.93 13.875-2.667l27.625-40.689c1.49-2.196 2.047-4.896 1.546-7.503zm-234.519-231.533c10.628-11.093 30.036-11.091 40.663 0l139.904 139.903c11.211 11.21 11.211 29.452 0 40.664l-5.309 5.309c-5.831-4.381-11.616-8.801-17.345-13.254-14.018-10.895-33.844-7.208-46.113 8.576-5.966 7.673-8.656 16.233-8.177 24.253-15.938-3.845-34.446-10.076-44.616-18.64-7.023-5.914-10.803-13.344-15.179-21.948-7.302-14.356-15.578-30.627-40.191-42.421-24.905-11.933-32.333-23.755-32.794-46.065 10.022 1.93 19.494-.746 28.527-7.608 15.783-12.271 19.47-32.096 8.575-46.114-4.453-5.729-8.873-11.514-13.254-17.345zm-55.494-30.252c15.217 22.149 31.216 44.037 47.647 65.179 5.409 6.961-.944 14.852-5.06 18.052-1.141.886-11.319 8.418-17.736.167-16.914-21.749-33.366-44.25-48.994-67.006zm-85.393 85.393c15.216 22.147 31.215 44.034 47.646 65.178 5.41 6.961-.944 14.852-5.06 18.051-1.14.886-11.319 8.418-17.735.167-16.911-21.745-33.363-44.247-48.994-67.006zm-88.366 88.367c15.218 22.149 31.217 44.037 47.646 65.178 5.409 6.961-.944 14.852-5.06 18.051-1.14.886-11.319 8.418-17.736.167-16.906-21.738-33.357-44.238-48.994-67.006zm-6.279 103.981c0-7.089 2.514-13.764 7.116-18.99 2.729 3.58 5.472 7.142 8.226 10.684 4.882 6.276 11.419 10.031 18.55 11.188 8.172 15.873 23.053 45.93 25.961 68.929l-51.479-51.479c-5.399-5.4-8.374-12.621-8.374-20.332zm256.2 186.474c-22.767-15.636-45.268-32.087-67.006-48.994-8.251-6.417-.719-16.597.167-17.736 3.191-4.104 11.048-10.434 17.996-5.101.049.039.099.077.15.115 21.116 16.407 42.971 32.381 65.084 47.574zm88.366-88.367c-22.77-15.638-45.271-32.09-67.005-48.995-8.251-6.417-.72-16.596.166-17.735 3.425-4.639 11.862-10.238 18.052-5.06 21.144 16.431 43.03 32.43 65.179 47.647zm-19.169-74.328c-5.831-4.381-11.616-8.801-17.345-13.254-14.017-10.894-33.843-7.208-46.113 8.577-12.127 15.598-10.721 34.859 3.344 45.798 3.557 2.767 7.136 5.521 10.732 8.263l-38.983 38.983c-4.61-3.464-9.191-6.952-13.739-10.462-1.326-23.318-4.14-46.213-17.269-69.215-2.737-4.796-8.846-6.467-13.642-3.728-4.797 2.738-6.466 8.846-3.728 13.642 9.294 16.284 12.47 32.706 13.969 50.285-10.45-.354-21.268 4.79-29.05 14.799-12.127 15.598-10.722 34.859 3.343 45.799 3.542 2.755 7.105 5.497 10.685 8.227-5.227 4.602-11.901 7.117-18.99 7.116-7.71 0-14.931-2.974-20.331-8.375l-69.124-69.123c5.334-25.14-8.52-59.577-24.665-91.815 2.267-1.162 4.495-2.581 6.654-4.259 15.782-12.271 19.469-32.095 8.575-46.113-4.452-5.729-8.872-11.514-13.253-17.345l38.984-38.983c2.116 2.776 4.24 5.542 6.373 8.296 2.458 35.82 9.661 56.958 26.199 77.323 3.497 4.307 9.807 4.925 14.066 1.459 4.287-3.481 4.94-9.78 1.459-14.067-11.433-14.08-17.377-28.482-20.31-50.95 9.193 1.07 17.908-1.603 26.273-7.986 15.783-12.271 19.471-32.096 8.576-46.114-4.452-5.729-8.872-11.515-13.253-17.345l36.009-36.009c1.965 2.578 3.938 5.147 5.917 7.705-2.212 36.009 4.678 59.349 43.769 78.079 18.502 8.866 24.297 20.259 31.008 33.452 4.913 9.661 9.995 19.651 20.122 28.179 20.324 17.115 59.064 24.53 71.071 26.48 2.881 2.232 5.775 4.455 8.68 6.67zm104.562-11.065c-22.762-15.632-45.265-32.085-67.007-48.995h.001c-8.25-6.417-.719-16.596.167-17.736 3.2-4.116 11.091-10.47 18.052-5.06 21.144 16.431 43.03 32.43 65.179 47.647z"/><path d="m332.671 179.71c13.053 13.052 27.144 25.301 41.88 36.406 4.372 3.304 10.662 2.468 14.005-1.968 3.324-4.411 2.442-10.681-1.968-14.004-13.996-10.547-27.378-22.18-39.774-34.576-12.394-12.394-24.026-25.775-34.575-39.773-3.324-4.411-9.593-5.293-14.005-1.968-4.41 3.324-5.292 9.594-1.968 14.004 11.108 14.739 23.356 28.829 36.405 41.879z"/><path d="m301.196 285.536c-13.997-10.548-27.379-22.181-39.773-34.576-12.393-12.391-24.025-25.773-34.576-39.774-3.324-4.41-9.593-5.293-14.005-1.968-4.41 3.324-5.292 9.594-1.968 14.004 22.266 29.557 48.732 56.022 78.285 78.286 4.371 3.304 10.662 2.468 14.005-1.968 3.324-4.41 2.442-10.68-1.968-14.004z"/><path d="m212.83 373.903c-13.999-10.549-27.381-22.182-39.774-34.576-12.394-12.394-24.026-25.775-34.575-39.773-3.324-4.41-9.593-5.293-14.005-1.968-4.41 3.324-5.292 9.594-1.968 14.004 11.107 14.74 23.355 28.83 36.405 41.879 13.05 13.05 27.141 25.299 41.88 36.406 4.372 3.304 10.662 2.468 14.005-1.968 3.324-4.41 2.442-10.68-1.968-14.004z"/><path d="m209.874 294.842h-.007c-5.522 0-9.996 4.477-9.996 10 .528 13.263 19.478 13.262 20.003 0 0-5.523-4.477-10-10-10z"/></g></g></svg>