<svg id="Layer_1" enable-background="new 0 0 512.001 512.001" height="512" viewBox="0 0 512.001 512.001" width="512" xmlns="http://www.w3.org/2000/svg"><g><g><path d="m181.998 201.001v159.998c0 5.523 4.478 10 10 10h240.001c5.522 0 10-4.477 10-10v-159.998c0-5.523-4.478-10-10-10h-240.001c-5.522 0-10 4.477-10 10zm20 10h220.001v139.998h-220.001z"/><path d="m510.702 106.074c-1.775-3.135-5.1-5.073-8.702-5.073h-66v-20c0-16.542-13.458-30-30-30-22.799 0-46.252-2.513-68.934-4.943-23.204-2.486-47.198-5.057-71.066-5.057-13.042 0-24.167 8.366-28.291 20.013-73.104.254-148.369 4.526-160.128 39.986h-67.581c-3.603 0-6.927 1.938-8.702 5.073-1.775 3.135-1.727 6.982.127 10.072l30.001 50c1.808 3.012 5.062 4.855 8.575 4.855h21.995v72.108c-5.166-11.125-16.444-18.858-29.496-18.858h-22.5c-5.522 0-10 4.477-10 10v100c0 5.523 4.478 10 10 10h22.5c14.433 0 26.699-9.457 30.926-22.5h78.573v139.249c0 5.523 4.478 10 10 10h39.999c5.522 0 10-4.477 10-10v-50h220.001v50c0 5.523 4.478 10 10 10h40c5.522 0 10-4.477 10-10v-297.228l28.576-47.625c1.854-3.09 1.903-6.937.127-10.072zm-244.702-45.073c46.931.089 92.798 10.014 140 10 5.514 0 10 4.486 10 10v20h-140v-10c0-11.914-6.982-22.228-17.068-27.067 1.811-1.811 4.311-2.933 7.068-2.933zm-117.908 24.762c32.183-4.742 71.228-4.762 97.195-4.762h.713c5.514 0 10 4.486 10 10v10h-154.577c7.767-6.594 23.704-11.854 46.669-15.238zm-46.095 85.238v75.75h-20.001v-75.75zm40.002 75.75h-20.002v-75.75h20.002zm-96.999 65c0 6.893-5.607 12.5-12.5 12.5h-12.5v-80h12.5c6.893 0 12.5 5.607 12.5 12.5zm20-10v-35h76.999v35zm116.998 149.248h-19.999l-.002-40h20.001zm280.001 0h-20v-40h20zm4.338-299.998h-165.34c-13.268.529-13.258 19.476 0 20h161.002l.001 219.998h-300.003l.002-219.998h48.998c13.268-.529 13.258-19.476 0-20h-165.334l-18.001-30h456.676z"/><path d="m252 251c-16.542 0-30 13.458-30 30 1.648 39.799 58.358 39.788 60 0 0-16.542-13.458-30-30-30zm0 40c-5.514 0-10-4.486-10-10 .549-13.266 19.453-13.262 20 0 0 5.514-4.486 10-10 10z"/><path d="m256 171.001c13.268-.529 13.258-19.476 0-20h-.008c-13.268.53-13.249 19.478.008 20z"/></g></g></svg>