<svg id="Layer_1" enable-background="new 0 0 512 512" height="512" viewBox="0 0 512 512" width="512" xmlns="http://www.w3.org/2000/svg"><g><g><path d="m331.445 251.849c-.585-5.043-4.856-8.849-9.934-8.849h-131.021c-5.077 0-9.349 3.805-9.934 8.849l-24.222 209c-.328 2.834.569 5.673 2.467 7.803 1.897 2.13 4.614 3.348 7.467 3.348h179.463c2.853 0 5.569-1.218 7.467-3.348 1.897-2.13 2.795-4.969 2.467-7.803zm-153.951 200.151 21.904-189h113.204l21.903 189z"/><path d="m395.933 460.849-33.912-292.627c29.771-9.877 32.307-51.425 3.98-64.842v-33.38c0-38.598-31.401-70-70-70h-80c-38.599 0-70 31.402-70 70v33.38c-28.343 13.429-25.774 54.976 3.98 64.842l-33.913 292.627c-1.408 12.146 2.543 24.141 11.126 33.776 9.691 10.88 24.199 17.375 38.808 17.375h179.998c14.607 0 29.115-6.496 38.807-17.375 8.583-9.635 12.534-21.63 11.126-33.776zm-179.933-440.849h80c27.57 0 50 22.43 50 50v30h-180v-30c0-27.57 22.43-50 50-50zm153.872 461.322c-5.956 6.686-14.88 10.678-23.872 10.678h-179.999c-14.807-.016-31.66-11.545-30.066-28.849l33.973-293.151h41.089c13.268-.529 13.258-19.476 0-20h-49.997c-19.904-.826-19.889-29.181 0-30h190c19.904.826 19.89 29.181 0 30h-50.003c-13.268.529-13.258 19.476 0 20h41.095l33.973 293.152c.952 8.203-2.842 14.409-6.193 18.17z"/><path d="m256.004 70.002c13.268-.529 13.258-19.476 0-20h-.008c-13.268.531-13.25 19.479.008 20z"/><path d="m216.003 60.002c13.268-.529 13.258-19.476 0-20h-.008c-13.268.53-13.25 19.478.008 20z"/><path d="m296.005 60.002c13.268-.529 13.258-19.476 0-20h-.007c-13.269.53-13.251 19.478.007 20z"/><path d="m238.49 296.619h-.007c-5.522 0-9.997 4.477-9.997 10 .528 13.263 19.479 13.263 20.004 0 0-5.523-4.478-10-10-10z"/><path d="m227.49 396.62h-.007c-5.522 0-9.997 4.477-9.997 10 .528 13.263 19.479 13.263 20.004 0 0-5.523-4.478-10-10-10z"/><path d="m280.483 349.62h-.008c-5.522 0-9.996 4.477-9.996 10 .528 13.263 19.479 13.263 20.004 0 0-5.523-4.478-10-10-10z"/><path d="m256 170c13.268-.529 13.258-19.476 0-20h-.007c-13.267.53-13.25 19.478.007 20z"/></g></g></svg>