<svg id="Layer_1" enable-background="new 0 0 512 512" height="512" viewBox="0 0 512 512" width="512" xmlns="http://www.w3.org/2000/svg"><g><g><path d="m411.162 346.588c-7.844-7.817-17.831-10.804-27.409-8.188-9.011 2.459-16.042 9.542-18.35 18.483-2.408 9.33.671 19.019 8.43 26.564 25.623 24.678 7.527 68.671-27.966 68.552h-50c-5.42 0-10-4.579-10-9.999v-146.91c36.665-12.754 60-49.337 60-95.09 0-9.947-4.165-16.139-7.658-19.581-15.199-14.639-42.256-5.563-42.342 19.581 0 9.96-3.762 19.414-10.188 26.633-4.895-35.323-54.743-35.296-59.624 0-22.917-25.42-4.557-66.721 29.813-66.633 16.542 0 30-13.458 30-30.001v-31.713c11.64-4.128 20-15.249 20-28.286v-60c0-5.522-4.477-10-10-10h-80c-5.523 0-10 4.478-10 10v60c0 13.037 8.36 24.159 20 28.286v6.3c-92.929 30.086-92.879 161.089 0 190.829v31.214c.529 13.268 19.476 13.258 20 0v-96.63c.551-13.271 19.454-13.261 20 0v212.001c0 16.542 13.458 29.999 30 29.999h50c53.368.109 80.268-65.733 41.928-102.87-1.786-1.737-3.76-4.404-3.026-7.248.503-1.948 2.211-3.631 4.25-4.188 3.226-.88 6.154 1.19 8.045 3.081.026.026.053.053.081.08 25.816 25.236 33.998 55.963 22.448 84.302-11.6 28.456-40.539 46.844-73.727 46.844h-50c-12.291 0-24.125-4.544-33.322-12.795-3.799-3.408-9.557-3.408-13.355 0-9.198 8.251-21.032 12.795-33.323 12.795h-50c-72.066-.443-106.59-79.738-51.278-131.146.027-.027.054-.054.081-.08 1.891-1.891 4.821-3.961 8.045-3.081 2.04.557 3.748 2.239 4.25 4.188.734 2.844-1.241 5.511-3.044 7.266-38.329 37.146-11.388 102.972 41.947 102.853h50c16.542 0 30-13.457 30-29.999v-25.371c-.529-13.268-19.476-13.258-20 0v25.37c0 5.42-4.58 9.999-10 9.999h-50c-35.499.118-53.575-43.873-27.984-68.533 7.776-7.563 10.855-17.253 8.448-26.583-2.308-8.941-9.339-16.024-18.35-18.483-9.576-2.611-19.564.372-27.409 8.188-67.878 63.864-24.595 165.058 65.294 165.412h50c14.379 0 28.304-4.43 40-12.608 11.696 8.179 25.621 12.608 40 12.608h50c41.356 0 77.565-23.274 92.247-59.296 14.552-35.704 4.478-75.369-26.952-106.116zm-185.295-326.588h60v50c0 5.514-4.486 10-10 10h-40c-5.514 0-10-4.486-10-10zm-50 180c0-37.621 25.583-69.703 62.213-78.017 4.554-1.033 7.787-5.082 7.787-9.752v-12.231h20v29.999c0 5.515-4.486 10.001-10 10.001-61.32.635-82.582 80.893-30 111.964v22.234c-29.938-12.026-50-41.079-50-74.198zm140 0c-.103-6.963 5.457-7.88 8.304-5.336 1.402 1.382 1.696 3.664 1.696 5.336 0 33.989-15.356 61.537-40 73.466v-21.502c18.375-10.641 30-30.521 30-51.964z"/><path d="m235.867 381.632c5.523 0 10-4.478 10-10v-.007c0-5.522-4.477-9.996-10-9.996-13.264.528-13.262 19.478 0 20.003z"/></g></g></svg>