<svg id="Layer_1" enable-background="new 0 0 512.191 512.191" height="512" viewBox="0 0 512.191 512.191" width="512" xmlns="http://www.w3.org/2000/svg"><g><g><path d="m441.372 30.378c-20.101-16.36-46.723-26.221-79.125-29.308-35.269-3.359-78.729 1.199-129.171 13.554-.102.024-.202.051-.303.079-145.065 38.347-300.837 153.844-150.256 293.036 55.334 51.422 85.531 94.044 109.796 128.292 35.781 52.711 63.095 82.508 124.52 75.017 111.964-13.827 169.046-192.309 172.993-287.46.12-4.053.271-8.259.425-12.59 2.061-57.759 4.886-136.861-48.879-180.62zm28.891 179.906c-.156 4.373-.308 8.618-.429 12.71-2.548 85.918-59.578 258.443-155.027 268.157-5.458.555-10.526.832-15.274.832-43.062-.003-59.232-22.816-90.901-67.515-23.487-33.151-55.654-78.554-112.501-131.381-135.699-122.84 7.609-222.51 141.857-259.075 183.5-44.531 244.135 16.274 232.275 176.272z"/><path d="m370.137 46.388c-89.165-20.551-281.042 42.433-305.431 133.828-8.097 38.066 22.221 72.085 49.538 97.471 9.295 8.638 18.123 17.494 26.987 27.074 3.751 4.055 10.078 4.301 14.132.549 4.054-3.75 4.299-10.077.549-14.131-26.58-30.667-79.161-64.476-71.642-106.8 19.241-63.739 133.84-107.605 202.036-118.321 63.78-10.118 109.928.621 126.609 29.465 32.032 55.389 14.564 184.857-11.534 249.654-19.35 48.04-51.688 86.996-82.386 99.245-13.156 5.251-24.407 4.579-36.479-2.179-21.965-10.779-50.643-54.267-69.368-80.166-3.256-4.461-9.511-5.438-13.973-2.182-4.461 3.256-5.438 9.512-2.181 13.973 7.364 10.089 14.624 20.272 22.67 31.584 36.99 50.628 65.217 73.168 106.743 57.546 35.523-14.175 72.234-57.489 93.525-110.349 25.658-68.786 48.47-194.456 10.296-267.139-11.412-19.733-31.63-32.895-60.091-39.122z"/><path d="m242.212 259.715c19.889 29.798 32.173 69.941 40.652 101.586 5.24 18.408 19.269 25.352 33.642 21.961 12.717-3.381 23.668-16.699 18.904-34.759-25.119-93.759-35.602-153.11 30.451-186.677 13.986-7.044 16.832-21.385 12.413-31.911-4.394-10.467-16.844-19.103-33.792-13.33-12.504 4.259-26.007 10.501-42.496 19.645-17.103 9.484-25.832 16.629-32.206 21.846-5.329 4.361-8.003 6.551-12.821 8.068-3.824 1.205-8.193.415-16.225-1.207-9.877-1.994-23.404-4.729-43.165-3.242-13.707 1.027-25.116 2.382-39.379 4.677-18.266 2.937-24.858 16.549-23.255 27.953 1.708 12.144 12.645 23.602 28.035 21.854 32.008-2.631 57.938 11.619 79.242 43.536zm-81.066-63.454c-.122.01-.243.022-.364.037-3.836.465-5.746-2.673-6.04-4.759-.397-2.827 1.832-4.651 6.625-5.422 13.669-2.199 24.591-3.497 37.699-4.479 17.012-1.273 28.489 1.041 37.711 2.903 9.271 1.872 17.277 3.486 26.194.679 8.493-2.677 13.583-6.844 19.478-11.668 6.108-4.999 13.709-11.221 29.238-19.832 15.212-8.436 28.049-14.39 39.245-18.203 4.451-1.515 7.694-.736 8.901 2.14.391.932 1.333 4.142-3 6.323-85.309 43.351-62.652 127.917-40.752 209.662 1.645 6.234-1.512 9.44-4.714 10.292-4.145 1.102-7.579-1.817-9.185-7.809-17.226-68.26-54.692-168.655-141.036-159.864z"/><path d="m177.852 322.143h-.007c-5.523 0-9.996 4.478-9.996 10 .528 13.263 19.478 13.263 20.003 0 0-5.522-4.477-10-10-10z"/></g></g></svg>