<svg id="Layer_1" enable-background="new 0 0 512.024 512.024" height="512" viewBox="0 0 512.024 512.024" width="512" xmlns="http://www.w3.org/2000/svg"><g><g><path d="m221.25 241.964c.231-11.89-4.789-22.684-12.923-30.162.629-.535 1.245-1.092 1.845-1.67 7.685-7.393 12.031-17.335 12.238-28.015.466-26.691 11.403-52.071 30.798-71.465 19.395-19.396 44.775-30.333 71.485-30.799 22.008-.428 39.564-18.68 39.138-40.687.045-21.448-19.272-40.001-40.666-39.139-30.943.539-61.663 9.196-88.838 25.034-4.771 2.781-6.385 8.903-3.604 13.675 2.781 4.771 8.903 6.385 13.675 3.604 24.227-14.12 51.584-21.837 79.135-22.316 5.357-.077 10.36 1.871 14.195 5.56s6.003 8.65 6.106 13.971c.213 10.98-8.549 20.088-19.511 20.302-64.12-.249-122.153 57.781-121.911 121.891-.213 10.982-9.303 19.722-20.302 19.53-10.72.008-19.96-9.6-19.53-20.321.48-27.53 8.197-54.887 22.314-79.111 2.781-4.771 1.167-10.895-3.605-13.675-4.773-2.78-10.895-1.167-13.675 3.604-15.835 27.173-24.491 57.891-25.031 88.813-.207 10.661 3.75 20.765 11.143 28.449.573.596 1.162 1.172 1.765 1.727-.624.531-1.234 1.084-1.83 1.657-7.685 7.392-12.031 17.335-12.238 28.015-.466 26.69-11.404 52.07-30.798 71.465-19.395 19.396-44.775 30.333-71.465 30.798-.006.001-.013.001-.02.001-10.661.207-20.603 4.553-27.996 12.237-24.587 25.351-5.698 68.367 29.524 67.587 46.874-.817 92.99-20.52 126.525-54.054 33.538-33.535 53.24-79.652 54.057-126.506zm-180.947 160.564c-.131.002-.261.004-.392.004-10.805-.001-19.7-8.684-19.911-19.534-.103-5.319 1.872-10.36 5.561-14.195 3.688-3.835 8.65-6.003 13.969-6.106 31.894-.561 62.164-13.577 85.239-36.652 23.079-23.079 36.096-53.357 36.652-85.238-.011-10.724 9.591-19.931 20.302-19.53 10.981.213 19.743 9.32 19.529 20.321-.154 85.454-75.49 160.779-160.949 160.93z"/><path d="m511.99 128.66c-.403-22.019-18.762-39.593-40.667-39.139-95.954.174-180.399 84.623-180.578 180.56-.231 11.89 4.789 22.683 12.923 30.162-.629.536-1.245 1.092-1.846 1.67-7.685 7.393-12.03 17.335-12.238 28.015-.465 26.69-11.402 52.071-30.798 71.466-19.394 19.395-44.773 30.332-71.464 30.797-.007.001-.013.001-.02.001-22.007.428-39.564 18.68-39.138 40.687.207 10.661 4.553 20.604 12.237 27.995 7.678 7.395 17.82 11.353 28.429 11.144 95.956-.175 180.399-84.623 180.579-180.56.231-11.89-4.789-22.684-12.923-30.163.629-.536 1.245-1.092 1.846-1.67 7.685-7.392 12.03-17.334 12.237-27.995 0-.007 0-.014.001-.02.465-26.69 11.402-52.07 30.798-71.465 19.395-19.396 44.774-30.333 71.483-30.799 21.462.027 39.999-19.242 39.139-40.686zm-162.577 202.428c-.729 41.74-18.297 82.829-48.2 112.732-29.902 29.903-70.992 47.471-112.751 48.199-10.701.401-20.317-8.807-20.302-19.53-.213-10.98 8.548-20.088 19.53-20.302 31.895-.561 62.164-13.577 85.238-36.651 23.079-23.08 36.097-53.358 36.652-85.239.214-10.982 9.288-19.718 20.302-19.53 10.982.213 19.744 9.321 19.531 20.321zm137.021-187.845c-3.688 3.835-8.649 6.003-13.95 6.105-31.899.557-62.178 13.574-85.258 36.653-23.075 23.075-36.092 53.346-36.652 85.238-.104 5.32-2.271 10.282-6.106 13.971-3.834 3.688-8.882 5.627-14.195 5.56-10.982-.213-19.743-9.32-19.53-20.321.157-85.456 75.491-160.78 160.95-160.932 10.939-.227 20.101 8.543 20.303 19.53.102 5.32-1.874 10.361-5.562 14.196z"/><path d="m203.71 71.155c13.268-.528 13.258-19.476 0-20h-.007c-13.268.53-13.25 19.478.007 20z"/></g></g></svg>