<svg id="Layer_1" enable-background="new 0 0 511.928 511.928" height="512" viewBox="0 0 511.928 511.928" width="512" xmlns="http://www.w3.org/2000/svg"><g><g><path d="m93.685 296.585-42.486 42.485c-3.873 3.725-3.873 10.418 0 14.143l99.134 99.134c3.725 3.873 10.418 3.873 14.143 0l42.485-42.486c3.905-3.905 3.905-10.237 0-14.143l-99.133-99.133c-3.906-3.905-10.236-3.905-14.143 0zm63.719 134.548-84.991-84.991 28.344-28.343 84.99 84.99z"/><path d="m503.147 85.369-56.647-56.646c-26.005-27.121-73.111-27.119-99.115 0l-225.386 225.386-.01-.01c-11.709-11.708-30.76-11.706-42.467 0l-70.81 70.811c-11.616 11.139-11.616 31.327 0 42.466l127.458 127.457c11.139 11.617 31.327 11.616 42.466 0l70.811-70.811c11.707-11.708 11.707-30.759 0-42.466l-14.172-14.172 233.688-233.688c11.162 5.322 24.955 3.368 34.185-5.86 11.707-11.708 11.707-30.759-.001-42.467zm-267.843 324.512-70.811 70.81c-3.693 3.858-10.487 3.859-14.181 0l-127.457-127.459c-3.859-3.693-3.858-10.488 0-14.181l70.809-70.811c3.912-3.91 10.274-3.91 14.183 0l127.458 127.458c3.909 3.91 3.909 10.273-.001 14.183zm-28.354-70.821 84.416-84.416c3.905-3.905 3.905-10.237 0-14.143-3.906-3.904-10.236-3.904-14.143 0l-84.416 84.416-28.341-28.341 225.386-225.388c3.66-3.829 10.522-3.829 14.181.001l21.251 21.251-84.421 84.421c-3.905 3.905-3.905 10.237 0 14.143 3.906 3.905 10.237 3.905 14.143 0l84.421-84.421 14.182 14.182-232.477 232.477zm282.055-225.367c-3.912 3.91-10.274 3.91-14.183 0l-56.647-56.646c-11.103-11.59-31.362-11.589-42.466-.001l-225.385 225.388-14.182-14.182 225.386-225.387c18.559-19.362 52.271-19.361 70.83 0l56.646 56.646c3.91 3.911 3.91 10.272.001 14.182z"/><path d="m322.516 208.069c-4.244-3.534-10.551-2.959-14.087 1.284-3.535 4.242-2.962 10.548 1.281 14.084 4.219 3.521 10.533 2.978 14.084-1.281l.005-.006c3.535-4.242 2.959-10.545-1.283-14.081z"/></g></g></svg>