<svg id="Layer_1" enable-background="new 0 0 512.002 512.002" height="512" viewBox="0 0 512.002 512.002" width="512" xmlns="http://www.w3.org/2000/svg"><g><g><path d="m482.078 0h-472c-5.523 0-10 4.478-10 10v40c0 5.522 4.477 10 10 10h76v32.003h-10c-16.542 0-30 13.457-30 29.999v269.997c0 16.711 9.316 30.912 25.559 38.96l141.127 69.937c15.804 7.832 25.315 11.106 43.313 11.106 17.999 0 27.51-3.274 43.314-11.106l141.126-69.936c16.244-8.049 25.56-22.25 25.56-38.961v-269.997c0-16.542-13.458-29.999-30-29.999h-10v-32.003h56c39.81-1.653 39.779-58.362.001-60zm-375.999 60h20.001v32.003h-20.001zm40.001 32.003v-32.003h219.996v32.003zm299.998 29.999v269.997c0 11.476-7.853 17.775-14.44 21.04l-141.126 69.937c-14.111 6.993-20.342 9.026-34.433 9.026-14.09 0-20.322-2.033-34.433-9.026l-141.128-69.937c-6.587-3.265-14.439-9.563-14.439-21.04v-269.997c0-5.514 4.486-9.999 10-9.999h360c5.513 0 9.999 4.485 9.999 9.999zm-40-29.999h-20.001v-32.003h20.001zm76-52.003h-462v-20h462c13.27.551 13.26 19.454 0 20z"/><path d="m91.638 396.229 138.888 68.827 1.038.516c8.353 4.146 12.954 6.431 24.514 6.431 11.561 0 16.162-2.284 24.515-6.432l139.926-69.342c3.405-1.688 5.56-5.159 5.56-8.96v-245.266c0-5.522-4.477-10-10-10h-115.004c-13.268.528-13.258 19.476 0 20h105.003v229.061l-133.328 66.072-1.051.521c-7.586 3.766-8.751 4.345-15.621 4.345-6.869 0-8.035-.579-15.621-4.345l-134.379-66.594v-229.06h104.996c13.268-.528 13.258-19.476 0-20h-114.995c-5.523 0-10 4.478-10 10v245.266c0 3.8 2.154 7.272 5.559 8.96z"/><path d="m157.306 267.388c-26.11 52.055-3.256 122.877 54.448 137.213 8.724 2.278 17.844 3.404 26.994 3.404 14.551-.001 29.173-2.85 42.36-8.437 24.34-10.314 41.911-29.172 49.474-53.097 3.091-9.78 3.169-19.263 3.25-29.301-.531-20.607 3.468-47.86 19.393-63.832 14.123-15.551 16.272-37.039 5.476-54.742-10.788-17.69-37.517-34.558-77.391-23.953-24.315 5.487-49.34 16.665-70.489 31.486-24.19 16.953-42.695 38.136-53.515 61.259zm128.58-73.275c.133-.029.266-.062.398-.098 29.31-7.853 48.129 3.17 55.34 14.994 6.249 10.246 5.05 21.791-3.206 30.882-10.213 11.246-16.316 22.707-20.407 38.321-3.986 15.218-4.089 27.743-4.179 38.794 4.046 53.327-52.592 80.237-97.024 68.242-18.906-4.938-34.099-17.846-42.78-36.344-33.545-73.814 49.179-142.506 111.858-154.791z"/><path d="m240.42 348.434c18.867 0 34.217-15.35 34.217-34.218-1.88-45.394-66.562-45.38-68.434 0 0 18.868 15.349 34.218 34.217 34.218zm0-48.435c7.839 0 14.217 6.378 14.217 14.217-.781 18.862-27.656 18.856-28.434 0 0-7.839 6.378-14.217 14.217-14.217z"/><path d="m256.078 152.003c13.268-.528 13.258-19.476 0-20h-.007c-13.268.53-13.25 19.478.007 20z"/></g></g></svg>