<svg id="Layer_1" enable-background="new 0 0 512.004 512.004" height="512" viewBox="0 0 512.004 512.004" width="512" xmlns="http://www.w3.org/2000/svg"><g><g><path d="m331.717 287.273c-.381-5.228-4.732-9.273-9.974-9.273h-25.602c-10.806-41.586-69.522-41.558-80.312 0h-25.602c-5.241 0-9.593 4.046-9.974 9.273l-12.679 173.999c-.202 2.771.758 5.501 2.65 7.536 1.892 2.034 4.545 3.19 7.324 3.19h33.433c13.268-.528 13.258-19.476 0-20h-22.678l11.223-153.998h25.083c5.523 0 10-4.478 10-10 1.175-28.363 41.586-28.351 42.755 0 0 5.522 4.478 10 10 10h25.082l11.223 153.999h-22.686c-13.268.529-13.258 19.476 0 20h33.44c2.778 0 5.432-1.156 7.323-3.19 1.893-2.035 2.853-4.766 2.65-7.536z"/><path d="m385.959 481.273-17.783-244.059c-1.694-23.264-11.429-37.676-30.633-45.357l-23.723-9.49-7.116-102.368h4.281c5.522 0 10-4.478 10-10v-40c0-16.542-13.458-29.999-30-29.999h-70c-16.542 0-30 13.457-30 29.999v40c0 5.522 4.477 10 10 10h4.281l-7.115 102.368-23.723 9.489c-19.204 7.683-28.938 22.096-30.633 45.358l-17.784 244.059c-.559 7.677 2.117 15.113 7.534 20.939 5.782 6.22 13.961 9.786 22.439 9.786h200.001c16.282.319 31.497-14.251 29.974-30.725zm-164.119-351.272h68.292l2.085 30.002h-72.463zm-10.854-100.002c0-5.514 4.486-9.999 10-9.999h70c5.514 0 10 4.485 10 9.999v30h-90zm75.671 50 2.085 30.002h-65.512l2.085-30.002zm77.12 408.596c-1.981 2.132-4.894 3.404-7.791 3.404h-200c-2.897 0-5.811-1.272-7.792-3.404-1.126-1.211-2.427-3.212-2.234-5.868l17.784-244.059c1.308-17.948 8.187-24.271 18.114-28.242l29.549-11.819c3.563-1.426 5.996-4.764 6.262-8.592l.696-10.012h75.243l.696 10.012c.266 3.828 2.699 7.166 6.262 8.592l29.549 11.82c9.927 3.971 16.807 10.293 18.114 28.241l17.783 244.059c.193 2.656-1.109 4.657-2.235 5.868z"/><path d="m293.177 376.215c.422-1.61 2.006-3.688 3.681-5.888 7.223-9.474 7.986-21.164 1.994-30.511-6.75-10.528-20.132-15.308-34.095-12.171-30.883 6.135-68.525 39.811-51.545 77.535 4.961 10.572 14.104 18.281 25.082 21.149 20.627 5.231 44.939-3.29 52.246-26.032 1.446-4.574 1.48-8.786 1.514-12.858.029-3.68.057-7.157 1.123-11.224zm-12.225-18.012c-2.534 3.324-5.687 7.461-7.123 12.943-1.697 6.479-1.74 11.83-1.775 16.129-.024 2.951-.044 5.282-.585 6.993-3.618 11.443-17.415 15.51-28.12 12.71-5.292-1.382-9.565-5.038-12.032-10.295-10.605-23.737 17.982-45.715 37.821-49.524 6.437-1.441 11.107.692 12.877 3.452 1.784 2.783.407 5.663-1.063 7.592z"/><path d="m255.986 451.999h-.007c-5.523 0-9.996 4.478-9.996 10 .528 13.263 19.478 13.263 20.003 0 0-5.522-4.477-10-10-10z"/></g></g></svg>