<svg id="Layer_1" enable-background="new 0 0 512.013 512.013" height="512" viewBox="0 0 512.013 512.013" width="512" xmlns="http://www.w3.org/2000/svg"><g><g><path d="m488.155 81.33c-48.065-65.928-177.942-100.924-253.512-69.881-6.009 2.104-11.683 4.702-17.008 7.774-51.955 27.456-114.284 91.095-145.416 127.547-44.092 51.625-68.96 109.03-71.916 166.01-2.693 51.932 13.263 102.604 44.929 142.683 29.204 36.962 58.288 55.441 88.915 56.494 30.806 1.185 58.767-16.441 78.982-31.84 42.009-31.607 84.505-61.63 146.51-119.33.182-.159.364-.318.545-.479.267-.236.518-.484.754-.741 41.625-39.161 85.885-86.649 126.112-142.448 32.886-45.619 33.279-93.842 1.105-135.789zm-272.677 372.061c-5.47 4.067-10.193 7.58-14.418 10.778-26.293 19.896-46.716 28.485-66.227 27.799-24.396-.839-48.571-16.835-73.909-48.904-62.898-79.608-52.495-190.812 26.504-283.306 18.216-21.329 50.581-55.561 84.505-84.12-31.343 87.656 9.927 227.008 80.943 285.723l-33.684 26.971c-4.312 3.451-5.008 9.745-1.556 14.056 3.468 4.331 9.776 4.991 14.056 1.556l38.794-31.063c.878.46 1.757.905 2.638 1.333 10.814 5.255 21.62 8.004 32.275 8.273-36.092 30.872-67.897 54.526-89.921 70.904zm255.347-247.968c-39.733 55.114-83.585 102.036-124.802 140.698-56.641 47.559-109.6-18.629-137.376-80.608-19.681-44.67-29.557-94.454-27.095-136.59 1.876-32.118 11.597-72.33 45.57-92.113 4.968-2.611 9.806-4.836 14.466-6.604.005-.002.009-.004.014-.005 72.523-27.5 184.633 3.263 230.683 63.302 18.632 24.289 33.502 63.424-1.46 111.92z"/><path d="m250.92 215.591c22.646-1.774 37.513-30.646 50.8-60.066 1.414-3.133 5.033-7.902 8.864-12.951 9.442-12.444 21.194-27.932 20-44.318-3.498-43.325-51.664-67.545-89.918-44.541-.061.034-.119.069-.179.104-15.964 9.511-30.825 33.843-36.979 60.548-6.558 28.458-2.39 55.991 11.736 77.527 11.083 16.595 22.241 24.527 35.676 23.697zm-18.952-34.666c-14.235-21.702-12.735-45.73-8.971-62.067 5.422-23.525 18.269-42.158 27.644-47.808 13.545-7.66 27.646-8.327 39.722-1.876 11.584 6.189 19.353 17.89 20.274 30.534.677 14.581-21.014 33.88-27.145 47.584-5.028 11.133-10.95 23.837-17.614 33.71-8.281 12.27-13.905 14.444-16.521 14.649-4.717.391-10.918-4.857-17.389-14.726z"/><path d="m358.937 219.121c-9.212 5.416-23.133 13.602-36.711 15.956-14.408 2.648-31.928-10.195-45.914-9.325-11.768.917-22.112 6.851-27.673 15.872-5.581 9.056-6.063 20.376-1.359 31.875.006.014.012.026.017.04 13.241 31.973 29.824 49.253 50.698 52.829 35.282 5.007 66.031-26.344 94.795-57.577 11.629-12.942 12.776-32.821 2.613-45.257-8.67-10.607-22.982-12.341-36.466-4.413zm18.976 36.303c-23.326 25.962-53.114 55.243-76.541 51.231-13.361-2.289-25.334-15.998-35.587-40.746-1.569-3.841-2.859-9.346-.119-13.791 2.22-3.602 6.781-6.004 12.202-6.427 1.915-.171 7.622 1.855 11.776 3.323 10.165 3.589 22.811 8.057 36 5.769 17.162-2.976 33.605-12.645 43.43-18.422 7.419-4.362 9.996-1.207 10.843-.171 3.051 3.734 4.052 12.495-2.004 19.234z"/><path d="m398.508 74.658c-17.581 2.063-32.802 16.835-50.894 49.395-2.323 4.183-6.082 8.834-10.062 13.76-8.872 10.98-18.928 23.427-17.429 37.395.809 7.533 4.834 14.261 11.964 19.995 8.298 6.676 21.839 5.368 34.936 4.104 4.825-.466 10.293-.994 12.642-.663 11.428 1.604 20.681 2.797 28.894 2.796 9.199 0 17.094-1.496 25.27-5.584 9.484-4.742 32.012-18.294 36.337-41.645 3.025-16.328-3.391-33.3-19.069-50.441-20.156-22.037-36.375-31.015-52.589-29.112zm51.992 75.91c-2.764 14.92-20.306 24.743-25.617 27.398-9.265 4.634-17.822 4.328-42.437.87-5.764-.702-10.836-.012-17.345.562-5.709.551-17.541 1.692-20.596.125-4.167-3.391-4.414-5.69-4.496-6.451-.613-5.718 6.672-14.735 13.1-22.69 4.339-5.37 8.824-10.922 11.987-16.614 14.215-25.582 25.572-38.053 35.742-39.246 8.952-1.042 20.543 6.394 35.499 22.745 11.218 12.266 15.984 23.47 14.163 33.301z"/><path d="m352.007 76.741c13.268-.529 13.258-19.476 0-20h-.008c-13.268.531-13.25 19.478.008 20z"/><path d="m305.007 196.242c-5.522 0-9.997 4.478-9.997 10 .529 13.263 19.479 13.263 20.004 0 0-5.522-4.478-10-10-10z"/><path d="m184.07 416.454-.005.004c-4.312 3.45-5.01 9.741-1.56 14.054 3.467 4.333 9.776 4.993 14.059 1.56 4.312-3.45 5.012-9.743 1.562-14.056-3.448-4.311-9.741-5.011-14.056-1.562z"/></g></g></svg>