<svg id="Layer_1" enable-background="new 0 0 512 512" height="512" viewBox="0 0 512 512" width="512" xmlns="http://www.w3.org/2000/svg"><g><g><path d="m446.001 0h-380.001c-16.542 0-30 13.458-30 30v452c0 16.542 13.458 30 30 30h380c16.542 0 30-13.458 30-30v-452c0-16.542-13.458-30-29.999-30zm9.999 482c0 5.514-4.485 10-9.999 10h-380.001c-5.514 0-10-4.486-10-10v-452c0-5.514 4.486-10 10-10h380c5.514 0 9.999 4.486 9.999 10v452z"/><path d="m426 40h-125.003c-13.268.529-13.258 19.476 0 20h115.003v392h-319.999v-392h114.996c13.268-.528 13.258-19.476 0-20h-124.996c-5.523 0-10 4.478-10 10v412c0 5.522 4.477 10 10 10h339.999c5.522 0 10-4.478 10-10v-412c0-5.522-4.478-10-10-10z"/><path d="m396.001 140.001c0-16.542-13.458-30-30-30-35.654 0-72.431-7.522-107.996-14.798-36.541-7.474-74.325-15.203-112.004-15.203-16.542 0-30 13.458-30 30v47.501c0 16.542 13.458 29.999 30 29.999h220c16.542 0 30-13.457 30-29.999zm-137.448 27.499c6.621-15.682 12.197-35.826 15.432-48.659 15.428 3.05 31.031 5.892 46.71 7.945-4.99 17.833-10.191 32.261-14.68 40.715h-47.462zm-4.191-52.627c-4.848 19.106-11.535 40.817-17.854 52.627h-47.718c8.008-18.942 14.842-45.258 18.531-61.658 15.659 2.612 31.281 5.807 46.676 8.956zm-118.361 42.628v-47.501c0-5.514 4.486-10 10-10 13.712 0 27.59 1.113 41.501 2.896-4.948 21.88-13.151 50.44-20.762 64.604h-20.739c-5.514 0-10-4.485-10-9.999zm240 0c0 5.514-4.486 9.999-10 9.999h-37.936c5.131-12.16 9.606-26.916 12.782-38.559 8.38.677 16.77 1.06 25.155 1.06 5.514 0 10 4.486 10 10v17.5z"/><path d="m366.001 354.5c-73.697-.298-145.77-30.07-220-30.001-16.542 0-30 13.457-30 29.999v47.501c0 16.542 13.458 30 30 30h220c16.542 0 30-13.458 30-30v-17.5c0-16.542-13.458-29.999-30-29.999zm-107.449 57.499c6.621-15.682 12.197-35.826 15.432-48.659 15.428 3.05 31.031 5.892 46.709 7.945-4.99 17.834-10.191 32.262-14.68 40.715h-47.461zm-4.19-52.627c-4.848 19.105-11.535 40.817-17.854 52.627h-47.719c8.008-18.942 14.842-45.259 18.531-61.658 15.659 2.612 31.281 5.807 46.676 8.956.122.025.244.05.366.075zm-118.361 42.627v-47.501c0-5.514 4.486-9.999 10-9.999 13.712 0 27.59 1.113 41.501 2.896-4.949 21.881-13.151 50.44-20.762 64.604h-20.739c-5.514 0-10-4.486-10-10zm240 0c0 5.514-4.486 10-10 10h-37.937c5.132-12.16 9.606-26.916 12.782-38.559 8.38.677 16.77 1.06 25.155 1.06 5.514 0 10 4.485 10 9.999z"/><path d="m396.001 232.25c0-16.542-13.458-30-30-30-37.679 0-75.463 7.729-112.003 15.203-35.566 7.275-72.342 14.798-107.997 14.798-16.542 0-30 13.458-30 30v17.499c0 16.542 13.458 30 30 30h220c16.542 0 30-13.458 30-30zm-91.32-4.158c3.69 16.4 10.524 42.717 18.531 61.658h-47.719c-6.32-11.811-13.007-33.522-17.854-52.627.122-.025.244-.05.366-.075 15.395-3.149 31.016-6.345 46.676-8.956zm-98.694 61.658c-4.489-8.453-9.691-22.881-14.68-40.715 15.679-2.053 31.281-4.895 46.709-7.945 3.234 12.833 8.81 32.977 15.431 48.659h-47.46zm-69.986-10v-17.499c0-5.514 4.486-10 10-10 8.385 0 16.775-.383 25.155-1.06 3.175 11.644 7.65 26.4 12.782 38.559h-37.936c-5.515 0-10.001-4.486-10.001-10zm240 0c0 5.514-4.486 10-10 10h-20.739c-7.611-14.163-15.813-42.723-20.762-64.604 13.911-1.783 27.789-2.896 41.501-2.896 5.514 0 10 4.486 10 10z"/><path d="m256 60c13.267-.528 13.257-19.477 0-20h-.007c-13.268.53-13.25 19.478.007 20z"/></g></g></svg>