<svg id="Layer_1" enable-background="new 0 0 512 512" height="512" viewBox="0 0 512 512" width="512" xmlns="http://www.w3.org/2000/svg"><g><g><path d="m435.4 94.478c-94.498-64.179-264.304-64.179-358.8.002-49.397 32.126-76.6 75.282-76.6 121.518v80.003c0 46.235 27.203 89.393 76.6 121.52 94.496 64.181 264.306 64.18 358.801 0 49.396-32.127 76.6-75.284 76.6-121.52v-80.003c-.001-46.236-27.204-89.392-76.601-121.52zm-347.896 16.765c44.859-29.176 104.699-45.245 168.496-45.245s123.637 16.068 168.496 45.245c89.565 56.658 89.588 152.852-.002 209.509-44.858 29.178-104.698 45.246-168.494 45.246s-123.636-16.068-168.496-45.246c-89.565-56.657-89.588-152.851 0-209.509zm404.496 184.758c-4.539 103.09-136.522 150.703-235.999 150.001-99.431.738-231.517-46.969-236.001-150.001v-13.599c12.971 20.446 32.043 39.144 56.6 55.115 94.496 64.181 264.306 64.18 358.801 0 24.557-15.971 43.628-34.669 56.6-55.115v13.599z"/><path d="m202.965 205.389c3.906 3.904 10.236 3.904 14.143 0 3.905-3.905 3.905-10.237 0-14.143l-35.516-35.514c-3.898-3.899-3.899-10.244-.001-14.143 3.9-3.898 10.245-3.898 14.144 0l134.674 134.674c8.998 9.802-4.385 23.089-14.142 14.142l-35.52-35.52c-3.906-3.904-10.236-3.904-14.143 0-3.905 3.905-3.905 10.237 0 14.143l35.52 35.519c5.65 5.652 13.183 8.763 21.213 8.763 8.029 0 15.563-3.111 21.214-8.763 11.696-11.697 11.696-30.729 0-42.426l-134.674-134.673c-11.697-11.695-30.729-11.695-42.428 0-11.696 11.696-11.696 30.729 0 42.427z"/><path d="m151.41 295.255c5.648 5.65 13.182 8.762 21.211 8.763h.003c8.029 0 15.562-3.112 21.213-8.762 11.697-11.697 11.697-30.729 0-42.427l-54.672-54.672c-11.695-11.695-30.729-11.696-42.426 0-.001 0-.001 0-.001 0-11.697 11.697-11.697 30.729 0 42.427zm-40.53-82.955c3.899-3.897 10.243-3.899 14.143 0l54.672 54.672c3.899 3.898 3.899 10.243 0 14.142-1.872 1.873-4.384 2.904-7.071 2.904-2.688-.001-5.198-1.031-7.07-2.904l-54.672-54.672c-3.901-3.899-3.901-10.243-.002-14.142z"/><path d="m372.835 233.837c5.648 5.65 13.182 8.762 21.211 8.763 8.03.001 15.564-3.112 21.215-8.762 11.697-11.697 11.697-30.729 0-42.427l-54.672-54.672c-11.697-11.697-30.729-11.695-42.426 0v.001c-11.696 11.696-11.696 30.729 0 42.427zm-40.529-82.956c3.9-3.897 10.245-3.896 14.142.001l54.671 54.672c1.872 1.872 2.903 4.383 2.904 7.07 0 2.688-1.031 5.199-2.904 7.071-1.872 1.873-4.384 2.904-7.07 2.904h-.001c-2.687-.001-5.197-1.031-7.069-2.904l-54.672-54.67c-3.9-3.899-3.9-10.244-.001-14.144z"/><path d="m107.51 152.251c13.268-.529 13.258-19.476 0-20h-.007c-13.269.531-13.252 19.478.007 20z"/><path d="m244.003 309.251h-.008c-5.522 0-9.996 4.478-9.996 10 .529 13.263 19.479 13.263 20.004 0 0-5.522-4.478-10-10-10z"/><path d="m275.503 128.251c13.268-.529 13.258-19.476 0-20h-.008c-13.268.531-13.25 19.478.008 20z"/><path d="m398.503 267.251h-.008c-5.522 0-9.996 4.478-9.996 10 .529 13.263 19.479 13.263 20.004 0 0-5.522-4.478-10-10-10z"/><path d="m235.457 237.823c4.219 3.521 10.533 2.978 14.084-1.281 3.535-4.242 2.962-10.548-1.281-14.084l-.006-.005c-4.241-3.533-10.545-2.96-14.081 1.283-3.535 4.243-2.959 10.55 1.284 14.087z"/></g></g></svg>