<svg id="Layer_1" enable-background="new 0 0 512.138 512.138" height="512" viewBox="0 0 512.138 512.138" width="512" xmlns="http://www.w3.org/2000/svg"><g><g><path d="m464.024 48.055c-38.847-38.847-94.128-54.953-155.663-45.341-68.369 10.88-131.151 49.975-182.342 101.096-71.676 71.675-119.831 167.023-125.675 248.834-2.695 37.736 14.26 56.674 31.026 61.813 20.904 6.409 44.162-6.342 59.254-32.48 10.754-18.628 35.19-35.847 54.471-38.386 8.054-1.058 14.297.564 18.562 4.83.004.004.008.008.012.011 4.256 4.264 5.877 10.506 4.818 18.55-2.538 19.281-19.758 43.718-38.385 54.473-26.139 15.091-38.889 38.35-32.481 59.254 4.895 18.551 29.147 34.165 61.814 31.025 144.161-10.326 325.47-151.092 349.929-308.017 9.61-61.532-6.492-116.815-45.34-155.662zm26.6 98.986c-34.984-46.148-79.44-90.603-125.588-125.587 66.186 7.64 117.947 59.403 125.588 125.587zm-179.177-124.566c6.361-.993 12.644-1.684 18.834-2.075.622.821 1.382 1.559 2.274 2.177 29.643 20.553 58.35 44.649 85.323 71.624 26.974 26.974 51.072 55.681 71.624 85.322.619.893 1.357 1.653 2.177 2.275-1.208 18.769-4.926 36.902-10.887 55.249-44.296-75.75-130.011-161.465-205.76-205.761 12.197-3.974 24.368-6.93 36.415-8.811zm-60.669 18.042c81.285 42.946 177.84 139.499 220.784 220.785-15.771 36.252-40.232 72.131-71.904 104.983-43.659-19.412-94.042-55.417-139.855-99.867l12.597-12.597c9.811 6.208 23.113 8.096 35.17 6.086 15.994-2.491 31.884-10.944 44.743-23.804 12.859-12.859 21.313-28.749 23.804-44.743 2.671-17.15-1.708-32.445-12.331-43.068-10.624-10.623-25.92-15.003-43.068-12.33-15.994 2.491-31.884 10.944-44.743 23.804-21.137 20.806-32.894 54.64-17.718 79.913l-12.596 12.596c-44.449-45.814-80.454-96.197-99.867-139.855 32.853-31.671 68.732-56.131 104.984-71.903zm91.165 376.234c-45.857-23.704-92-57.584-134.071-98.402l37.785-37.785c45.624 44.357 94.252 79.641 138.792 100.744-13.501 12.715-27.752 24.571-42.506 35.443zm-87.551 50.328c-26.901-19.495-53.4-41.066-78.866-64.199 6.723-10.923 11.383-22.587 12.792-33.287 1.364-10.366-.16-19.621-4.423-27.266l9.834-9.833c40.718 39.537 85.228 72.834 129.819 97.134-22.444 14.903-45.767 27.525-69.156 37.451zm24.263-233.632c-.004-.004-.007-.008-.011-.011-.004-.004-.008-.007-.012-.011-15.239-16.589-4.178-44.211 11.485-59.515 9.883-9.884 21.843-16.342 33.678-18.185 9.227-1.634 19.906.448 25.848 6.711 15.255 16.583 4.193 44.22-11.473 59.526-9.883 9.884-21.843 16.342-33.678 18.185-10.67 1.662-19.845-.717-25.837-6.7zm-205.351 138.53c-10.256 17.764-24.416 26.932-36.072 23.359-32.606-12.572-10.387-86.689-.799-115.545 17.495 23.425 36.474 46.464 56.61 68.72-8.01 7.057-14.911 15.103-19.739 23.466zm69.181-48.215c-10.701 1.409-22.365 6.069-33.287 12.792-23.116-25.445-44.685-51.941-64.198-78.867 9.926-23.389 22.549-46.713 37.453-69.156 5.362 9.837 11.194 19.732 17.413 29.541 2.976 4.702 9.206 6.022 13.8 3.09 4.665-2.958 6.048-9.137 3.09-13.801-7.852-12.383-15.055-24.896-21.428-37.225 10.872-14.753 22.728-29.005 35.442-42.505 21.103 44.539 56.386 93.167 100.744 138.792l-37.785 37.785c-8.26-8.514-16.293-17.253-23.961-26.069-9.107-9.662-23.396 2.779-15.09 13.127 7.97 9.162 16.321 18.243 24.907 27.086l-9.835 9.834c-7.644-4.263-16.899-5.786-27.265-4.424zm15.526 168.023c-21.442 1.524-37.644-5.116-41.267-16.938-3.574-11.656 5.595-25.815 23.359-36.071 8.363-4.829 16.408-11.729 23.467-19.739 22.272 20.147 45.312 39.127 68.72 56.61-25.331 8.88-50.437 14.435-74.279 16.138z"/><path d="m133.921 239.721h-.007c-5.523 0-9.996 4.478-9.996 10 .528 13.263 19.478 13.263 20.003 0 0-5.523-4.477-10-10-10z"/></g></g></svg>