<svg id="Layer_1" enable-background="new 0 0 511.872 511.872" height="512" viewBox="0 0 511.872 511.872" width="512" xmlns="http://www.w3.org/2000/svg"><g><g><path d="m272.146 239.726c-28.144-28.968-79.504-51.083-109.961-22.111l-103.189 103.188c-26.439 26.439-33.68 64.916-21.726 97.95h-2.999c-40.428 1.034-47.236 56.601-8.848 67.696 11.113 38.415 66.674 31.549 67.696-8.848v-3c33.701 12.073 71.632 4.475 97.949-21.725l103.189-103.19c28.966-30.49 6.866-81.783-22.111-109.96zm-74.508-15.636c3.95 0 8.206.514 12.7 1.551 16.295 3.76 33.224 13.785 47.666 28.228 14.443 14.442 24.468 31.37 28.228 47.666 7.164 29.847-10.281 47.288-40.126 40.126-16.296-3.76-33.224-13.785-47.667-28.228-28.129-28.13-38.255-65.533-22.112-81.676 5.067-5.068 12.416-7.667 21.311-7.667zm-124.518 253.512c-.794 19.135-28.058 19.13-28.849 0 0-5.522-4.477-10-10-10-19.128-.787-19.137-28.057 0-28.849h13.117c3.337 4.988 7.206 9.723 11.608 14.124 4.401 4.401 9.136 8.27 14.124 11.607zm103.806-38.868c-28.613 28.618-75.173 28.611-103.788 0-28.615-28.614-28.615-75.175 0-103.789l75.793-75.792c.32 3.602.916 7.311 1.792 11.111 1.15 4.984 2.761 9.997 4.796 14.979l-36.903 36.902c-9.015 9.743 4.411 23.153 14.143 14.143l32.436-32.436c5.284 8.323 11.711 16.333 19.101 23.723 17.059 17.058 37.412 28.981 57.312 33.573 3.8.877 7.509 1.473 11.11 1.793z"/><path d="m509.8 92.956c-8.395-39.819-51.066-82.49-90.885-90.885-21.581-4.98-40.279-.909-52.65 11.461-8.599 8.599-13.187 20.254-13.514 33.81-13.564.383-25.307 5.013-33.764 13.469-8.599 8.599-13.187 20.254-13.514 33.81-13.564.384-25.307 5.011-33.763 13.468-12.372 12.371-16.442 31.069-11.462 52.649 8.395 39.82 51.067 82.489 90.885 90.886 6.008 1.386 11.789 2.071 17.275 2.07 14.222 0 26.447-4.605 35.375-13.532 8.456-8.457 13.088-20.201 13.469-33.765 13.553-.327 25.21-4.915 33.808-13.513 8.456-8.456 13.088-20.201 13.469-33.765 13.553-.327 25.21-4.915 33.808-13.513 12.373-12.371 16.443-31.069 11.463-52.65zm-120.158 133.062c-16.144 16.146-53.548 6.018-81.677-22.112-14.443-14.442-24.468-31.37-28.228-47.666-3.373-14.615-1.201-26.693 6.116-34.01 5.093-5.094 12.754-7.732 21.943-7.636 8.799 39.083 50.397 80.68 89.479 89.48.094 9.191-2.54 16.85-7.633 21.944zm47.277-47.277c-5.227 5.228-12.68 7.7-21.329 7.7-18.061-.002-41.326-10.791-60.347-29.812-14.443-14.442-24.468-31.37-28.229-47.666-3.373-14.615-1.201-26.693 6.116-34.01 5.093-5.094 12.754-7.732 21.943-7.636 8.799 39.082 50.397 80.681 89.479 89.48.094 9.191-2.539 16.851-7.633 21.944zm47.277-47.277c-16.144 16.145-53.546 6.017-81.676-22.112-28.13-28.13-38.256-65.533-22.112-81.677 21.081-18.92 59.424-.208 81.676 22.112 20.533 20.004 41.704 59.724 22.112 81.677z"/><path d="m253.301 308.546c13.268-.528 13.258-19.476 0-20h-.007c-13.269.53-13.251 19.478.007 20z"/><path d="m203.301 274.046c13.268-.528 13.258-19.476 0-20h-.007c-13.269.53-13.251 19.478.007 20z"/><path d="m445.794 89.046h-.007c-5.523 0-9.997 4.478-9.997 10 .529 13.263 19.479 13.263 20.004 0 0-5.523-4.477-10-10-10z"/><path d="m412.794 45.546h-.007c-5.523 0-9.997 4.478-9.997 10 .529 13.263 19.479 13.263 20.004 0 0-5.523-4.477-10-10-10z"/><path d="m369.294 123.546h-.007c-5.523 0-9.997 4.478-9.997 10 .529 13.263 19.479 13.263 20.004 0 0-5.523-4.477-10-10-10z"/><path d="m344.294 191.046h-.007c-5.523 0-9.997 4.478-9.997 10 .529 13.263 19.479 13.263 20.004 0 0-5.523-4.477-10-10-10z"/><path d="m87.144 353.635-.005.005c-4.087 3.715-4.385 10.037-.67 14.124 3.724 4.095 10.055 4.377 14.129.67 4.087-3.715 4.388-10.04.673-14.126-3.715-4.087-10.041-4.39-14.127-.673z"/></g></g></svg>