<svg id="Layer_1" enable-background="new 0 0 511.905 511.905" height="512" viewBox="0 0 511.905 511.905" width="512" xmlns="http://www.w3.org/2000/svg"><g><g><path d="m508.976 158.48-155.563-155.563c-3.725-3.873-10.418-3.873-14.143 0l-8.249 8.249c-3.906-3.904-10.236-3.904-14.143 0-3.905 3.905-3.905 10.237 0 14.143l-16.499 16.5h-.001c-3.904-3.907-10.237-3.904-14.142.001s-3.904 10.237 0 14.142l-16.498 16.499c-3.906-3.904-10.236-3.904-14.142 0-3.905 3.905-3.905 10.237 0 14.142l-8.249 8.249c-3.905 3.905-3.905 10.237 0 14.143l56.568 56.568-39.425 39.425c-3.905 3.905-3.905 10.237 0 14.143 3.906 3.905 10.237 3.905 14.143 0l39.425-39.425 14.142 14.142-140.924 140.92-14.141-14.142 37.858-37.857c3.905-3.905 3.905-10.237 0-14.143-3.905-3.904-10.237-3.904-14.143 0l-39.07 39.07c-11.15-5.312-24.924-3.36-34.143 5.859l-113.138 113.137c-19.333 18.534-19.332 52.178 0 70.711 18.534 19.333 52.177 19.333 70.711 0l113.137-113.137c9.219-9.219 11.172-22.994 5.859-34.144l142.135-142.134 56.568 56.568c2.765 2.772 6.908 3.653 10.528 2.312l22.392-8.25c2.748-1.013 4.914-3.179 5.927-5.927l6.654-18.061 18.061-6.653c2.748-1.013 4.914-3.179 5.927-5.927l6.654-18.062 18.061-6.653c2.748-1.013 4.914-3.179 5.927-5.927l8.249-22.392c1.347-3.658.445-7.768-2.313-10.526zm-437.908 324.771c-11.089 11.575-31.337 11.574-42.426 0-11.574-11.089-11.574-31.337 0-42.426l84.852-84.853 42.427 42.426zm113.137-113.137-14.142 14.142-42.427-42.426 14.143-14.143c3.898-3.898 10.244-3.899 14.142 0l28.284 28.285c3.899 3.899 3.899 10.244 0 14.142zm119.712-232.846 77.782-77.781 70.708 70.708-77.781 77.781zm42.424-113.137 21.214 21.214-77.782 77.781-21.214-21.214zm139.527 156.024-18.061 6.653c-2.748 1.013-4.914 3.179-5.927 5.927l-6.654 18.062-18.061 6.653c-2.748 1.013-4.914 3.179-5.927 5.927l-6.654 18.061-12.057 4.442-23.761-23.761 77.781-77.781 23.761 23.761z"/><path d="m232.981 251.242c4.061 3.725 10.389 3.465 14.129-.614l.005-.006c3.732-4.071 3.454-10.394-.617-14.125-4.071-3.732-10.399-3.455-14.131.617-3.732 4.071-3.457 10.396.614 14.128z"/></g></g></svg>