<svg id="expand" height="512" viewBox="0 0 512 512" width="512" xmlns="http://www.w3.org/2000/svg"><path d="m430 122.93a40 40 0 0 0 -56.57 0l-181.34 181.22-53.47-53.59a40 40 0 0 0 -56.62 56.56l80.35 80.53c.44.48.88 1 1.35 1.42a39.71 39.71 0 0 0 28.3 11.71h.09a39.76 39.76 0 0 0 28.28-11.71c.45-.46.89-.92 1.32-1.39l208.31-208.18a40.06 40.06 0 0 0 0-56.57zm-11.31 45.26-208.45 208.32c-.11.1-.2.2-.3.31-.28.32-.58.63-.88.93a23.84 23.84 0 0 1 -17 7 23.84 23.84 0 0 1 -17-7c-.31-.32-.61-.64-.91-1l-.28-.3-80.5-80.63a24 24 0 0 1 33.93-33.95l59.12 59.25a8 8 0 0 0 5.65 2.35 8 8 0 0 0 5.65-2.34l187-186.88a24 24 0 0 1 33.95 33.94z"/></svg>